<?xml version="1.0" encoding="UTF-8" standalone="no"?>
<!-- Created with Inkscape (http://www.inkscape.org/) -->

<svg
   xmlns:dc="http://purl.org/dc/elements/1.1/"
   xmlns:cc="http://creativecommons.org/ns#"
   xmlns:rdf="http://www.w3.org/1999/02/22-rdf-syntax-ns#"
   xmlns:svg="http://www.w3.org/2000/svg"
   xmlns="http://www.w3.org/2000/svg"
   xmlns:sodipodi="http://sodipodi.sourceforge.net/DTD/sodipodi-0.dtd"
   xmlns:inkscape="http://www.inkscape.org/namespaces/inkscape"
   version="1.1"
   id="svg2"
   xml:space="preserve"
   width="1001.13"
   height="935.59326"
   viewBox="0 0 1001.13 935.59322"
   sodipodi:docname="responsive_Design.svg"
   inkscape:version="0.92.3 (unknown)"><metadata
     id="metadata8"><rdf:RDF><cc:Work
         rdf:about=""><dc:format>image/svg+xml</dc:format><dc:type
           rdf:resource="http://purl.org/dc/dcmitype/StillImage" /><dc:title></dc:title></cc:Work></rdf:RDF></metadata><defs
     id="defs6"><clipPath
       clipPathUnits="userSpaceOnUse"
       id="clipPath20"><path
         d="M 0,800 H 800 V 0 H 0 Z"
         id="path18"
         inkscape:connector-curvature="0" /></clipPath><clipPath
       clipPathUnits="userSpaceOnUse"
       id="clipPath156"><path
         d="M 0,800 H 800 V 0 H 0 Z"
         id="path154"
         inkscape:connector-curvature="0" /></clipPath></defs><sodipodi:namedview
     pagecolor="#ffffff"
     bordercolor="#666666"
     borderopacity="1"
     objecttolerance="10"
     gridtolerance="10"
     guidetolerance="10"
     inkscape:pageopacity="0"
     inkscape:pageshadow="2"
     inkscape:window-width="1366"
     inkscape:window-height="705"
     id="namedview4"
     showgrid="false"
     inkscape:zoom="0.44249997"
     inkscape:cx="364.06025"
     inkscape:cy="580.86497"
     inkscape:window-x="0"
     inkscape:window-y="24"
     inkscape:window-maximized="1"
     inkscape:current-layer="g10" /><g
     id="g10"
     inkscape:groupmode="layer"
     inkscape:label="20"
     transform="matrix(1.3333333,0,0,-1.3333333,-37.717518,995.12994)"><g
       id="g907"
       transform="translate(0,44.067801)"><g
         transform="translate(500.2207,295)"
         id="g158"><path
           inkscape:connector-curvature="0"
           id="path160"
           style="fill:#4d4d4d;fill-opacity:1;fill-rule:nonzero;stroke:none"
           d="m 0,0 h -4.01 c 0,0 -23.551,6.271 -23.551,72.032 0,19.371 -104.001,19.359 -104.001,-1.442 C -131.562,7.273 -155.727,0 -155.727,0 h -3.253 c -2.903,0 -5.241,-2.268 -5.241,-5.17 v -2.627 c 0,-2.902 2.338,-5.203 5.241,-5.203 H 0 c 2.902,0 5.779,2.301 5.779,5.203 V -5.17 C 5.779,-2.268 2.902,0 0,0" /></g><g
         transform="translate(605.2031,624)"
         id="g162"><path
           inkscape:connector-curvature="0"
           id="path164"
           style="fill:#4d4d4d;fill-opacity:1;fill-rule:nonzero;stroke:none"
           d="m 0,0 h -369.606 c -7.122,0 -13.597,-3.738 -13.597,-10.858 v -223.601 -34.266 c 0,-7.122 6.475,-16.275 13.597,-16.275 H 0 c 7.123,0 10.797,9.153 10.797,16.275 v 34.266 223.601 C 10.797,-3.738 7.123,0 0,0" /></g><path
         inkscape:connector-curvature="0"
         id="path166"
         style="fill:#f2f2f2;fill-opacity:1;fill-rule:nonzero;stroke:none"
         d="M 597,399 H 241 v 204 h 356 z" /><g
         transform="translate(436.5371,368.2676)"
         id="g168"><path
           inkscape:connector-curvature="0"
           id="path170"
           style="fill:#b3b3b3;fill-opacity:1;fill-rule:nonzero;stroke:none"
           d="m 0,0 c 0,-8.917 -7.229,-16.141 -16.141,-16.141 -8.91,0 -16.136,7.224 -16.136,16.141 0,8.914 7.226,16.139 16.136,16.139 C -7.229,16.139 0,8.914 0,0" /></g><g
         transform="translate(379,574.2808)"
         id="g172"><path
           inkscape:connector-curvature="0"
           id="path174"
           style="fill:#ff4522;fill-opacity:1;fill-rule:nonzero;stroke:none"
           d="M 0,0 C 0,-2.917 -2.405,-5.281 -5.839,-5.281 H -72.283 C -75.717,-5.281 -79,-2.917 -79,0 v 10.438 c 0,2.917 3.283,5.281 6.717,5.281 H -5.839 C -2.405,15.719 0,13.355 0,10.438 Z" /></g><g
         transform="translate(537,507.2808)"
         id="g176"><path
           inkscape:connector-curvature="0"
           id="path178"
           style="fill:#47dee5;fill-opacity:1;fill-rule:nonzero;stroke:none"
           d="m 0,0 c 0,-2.917 -2.648,-5.281 -6.081,-5.281 h -224.203 c -3.433,0 -6.716,2.364 -6.716,5.281 v 49.438 c 0,2.917 3.283,5.281 6.716,5.281 H -6.081 C -2.648,54.719 0,52.355 0,49.438 Z" /></g><g
         transform="translate(373,465.2808)"
         id="g180"><path
           inkscape:connector-curvature="0"
           id="path182"
           style="fill:#999999;fill-opacity:1;fill-rule:nonzero;stroke:none"
           d="M 0,0 C 0,-2.917 -2.292,-5.281 -5.725,-5.281 H -66.283 C -69.717,-5.281 -73,-2.917 -73,0 v 26.438 c 0,2.917 3.283,5.281 6.717,5.281 H -5.725 C -2.292,31.719 0,29.355 0,26.438 Z" /></g><g
         transform="translate(453,465.2808)"
         id="g184"><path
           inkscape:connector-curvature="0"
           id="path186"
           style="fill:#999999;fill-opacity:1;fill-rule:nonzero;stroke:none"
           d="M 0,0 C 0,-2.917 -2.236,-5.281 -5.669,-5.281 H -66.228 C -69.661,-5.281 -73,-2.917 -73,0 v 26.438 c 0,2.917 3.339,5.281 6.772,5.281 H -5.669 C -2.236,31.719 0,29.355 0,26.438 Z" /></g><g
         transform="translate(537,465.2808)"
         id="g188"><path
           inkscape:connector-curvature="0"
           id="path190"
           style="fill:#999999;fill-opacity:1;fill-rule:nonzero;stroke:none"
           d="m 0,0 c 0,-2.917 -2.648,-5.281 -6.081,-5.281 h -60.56 C -70.073,-5.281 -73,-2.917 -73,0 v 26.438 c 0,2.917 2.927,5.281 6.359,5.281 h 60.56 C -2.648,31.719 0,29.355 0,26.438 Z" /></g><g
         transform="translate(453,450.0132)"
         id="g192"><path
           inkscape:connector-curvature="0"
           id="path194"
           style="fill:#b3b3b3;fill-opacity:1;fill-rule:nonzero;stroke:none"
           d="M 0,0 C 0,-1.215 -0.669,-2.013 -2.06,-2.013 H -69.555 C -70.945,-2.013 -73,-1.215 -73,0 v 0.88 c 0,1.216 2.055,2.107 3.445,2.107 H -2.06 C -0.669,2.987 0,2.096 0,0.88 Z" /></g><g
         transform="translate(453,441.2124)"
         id="g196"><path
           inkscape:connector-curvature="0"
           id="path198"
           style="fill:#b3b3b3;fill-opacity:1;fill-rule:nonzero;stroke:none"
           d="M 0,0 C 0,-1.215 -0.669,-2.212 -2.06,-2.212 H -69.555 C -70.945,-2.212 -73,-1.215 -73,0 v 0.88 c 0,1.215 2.055,1.908 3.445,1.908 H -2.06 C -0.669,2.788 0,2.095 0,0.88 Z" /></g><g
         transform="translate(453,432.4111)"
         id="g200"><path
           inkscape:connector-curvature="0"
           id="path202"
           style="fill:#b3b3b3;fill-opacity:1;fill-rule:nonzero;stroke:none"
           d="M 0,0 C 0,-1.215 -0.669,-2.411 -2.06,-2.411 H -69.555 C -70.945,-2.411 -73,-1.215 -73,0 v 0.88 c 0,1.215 2.055,1.709 3.445,1.709 H -2.06 C -0.669,2.589 0,2.095 0,0.88 Z" /></g><g
         transform="translate(453,423.6099)"
         id="g204"><path
           inkscape:connector-curvature="0"
           id="path206"
           style="fill:#b3b3b3;fill-opacity:1;fill-rule:nonzero;stroke:none"
           d="M 0,0 C 0,-1.215 -0.669,-2.61 -2.06,-2.61 H -69.555 C -70.945,-2.61 -73,-1.215 -73,0 v 0.88 c 0,1.215 2.055,2.51 3.445,2.51 H -2.06 C -0.669,3.39 0,2.095 0,0.88 Z" /></g><g
         transform="translate(420,414.8086)"
         id="g208"><path
           inkscape:connector-curvature="0"
           id="path210"
           style="fill:#b3b3b3;fill-opacity:1;fill-rule:nonzero;stroke:none"
           d="M 0,0 C 0,-1.215 -0.826,-1.809 -2.216,-1.809 H -36.555 C -37.945,-1.809 -40,-1.215 -40,0 v 0.88 c 0,1.216 2.055,2.311 3.445,2.311 H -2.216 C -0.826,3.191 0,2.096 0,0.88 Z" /></g><g
         transform="translate(535,450.0132)"
         id="g212"><path
           inkscape:connector-curvature="0"
           id="path214"
           style="fill:#b3b3b3;fill-opacity:1;fill-rule:nonzero;stroke:none"
           d="M 0,0 C 0,-1.215 0.223,-2.013 -1.168,-2.013 H -68.663 C -70.053,-2.013 -71,-1.215 -71,0 v 0.88 c 0,1.216 0.947,2.107 2.337,2.107 H -1.168 C 0.223,2.987 0,2.096 0,0.88 Z" /></g><g
         transform="translate(535,441.2124)"
         id="g216"><path
           inkscape:connector-curvature="0"
           id="path218"
           style="fill:#b3b3b3;fill-opacity:1;fill-rule:nonzero;stroke:none"
           d="M 0,0 C 0,-1.215 0.223,-2.212 -1.168,-2.212 H -68.663 C -70.053,-2.212 -71,-1.215 -71,0 v 0.88 c 0,1.215 0.947,1.908 2.337,1.908 H -1.168 C 0.223,2.788 0,2.095 0,0.88 Z" /></g><g
         transform="translate(535,432.4111)"
         id="g220"><path
           inkscape:connector-curvature="0"
           id="path222"
           style="fill:#b3b3b3;fill-opacity:1;fill-rule:nonzero;stroke:none"
           d="M 0,0 C 0,-1.215 0.223,-2.411 -1.168,-2.411 H -68.663 C -70.053,-2.411 -71,-1.215 -71,0 v 0.88 c 0,1.215 0.947,1.709 2.337,1.709 H -1.168 C 0.223,2.589 0,2.095 0,0.88 Z" /></g><g
         transform="translate(535,423.6099)"
         id="g224"><path
           inkscape:connector-curvature="0"
           id="path226"
           style="fill:#b3b3b3;fill-opacity:1;fill-rule:nonzero;stroke:none"
           d="M 0,0 C 0,-1.215 0.223,-2.61 -1.168,-2.61 H -68.663 C -70.053,-2.61 -71,-1.215 -71,0 v 0.88 c 0,1.215 0.947,2.51 2.337,2.51 H -1.168 C 0.223,3.39 0,2.095 0,0.88 Z" /></g><g
         transform="translate(502,414.8086)"
         id="g228"><path
           inkscape:connector-curvature="0"
           id="path230"
           style="fill:#b3b3b3;fill-opacity:1;fill-rule:nonzero;stroke:none"
           d="M 0,0 C 0,-1.215 0.065,-1.809 -1.324,-1.809 H -35.663 C -37.053,-1.809 -38,-1.215 -38,0 v 0.88 c 0,1.216 0.947,2.311 2.337,2.311 H -1.324 C 0.065,3.191 0,2.096 0,0.88 Z" /></g><g
         transform="translate(372,450.0132)"
         id="g232"><path
           inkscape:connector-curvature="0"
           id="path234"
           style="fill:#b3b3b3;fill-opacity:1;fill-rule:nonzero;stroke:none"
           d="M 0,0 C 0,-1.215 -0.489,-2.013 -1.879,-2.013 H -69.374 C -70.765,-2.013 -72,-1.215 -72,0 v 0.88 c 0,1.216 1.235,2.107 2.626,2.107 H -1.879 C -0.489,2.987 0,2.096 0,0.88 Z" /></g><g
         transform="translate(372,441.2124)"
         id="g236"><path
           inkscape:connector-curvature="0"
           id="path238"
           style="fill:#b3b3b3;fill-opacity:1;fill-rule:nonzero;stroke:none"
           d="M 0,0 C 0,-1.215 -0.489,-2.212 -1.879,-2.212 H -69.374 C -70.765,-2.212 -72,-1.215 -72,0 v 0.88 c 0,1.215 1.235,1.908 2.626,1.908 H -1.879 C -0.489,2.788 0,2.095 0,0.88 Z" /></g><g
         transform="translate(372,432.4111)"
         id="g240"><path
           inkscape:connector-curvature="0"
           id="path242"
           style="fill:#b3b3b3;fill-opacity:1;fill-rule:nonzero;stroke:none"
           d="M 0,0 C 0,-1.215 -0.489,-2.411 -1.879,-2.411 H -69.374 C -70.765,-2.411 -72,-1.215 -72,0 v 0.88 c 0,1.215 1.235,1.709 2.626,1.709 H -1.879 C -0.489,2.589 0,2.095 0,0.88 Z" /></g><g
         transform="translate(372,423.6099)"
         id="g244"><path
           inkscape:connector-curvature="0"
           id="path246"
           style="fill:#b3b3b3;fill-opacity:1;fill-rule:nonzero;stroke:none"
           d="M 0,0 C 0,-1.215 -0.489,-2.61 -1.879,-2.61 H -69.374 C -70.765,-2.61 -72,-1.215 -72,0 v 0.88 c 0,1.215 1.235,2.51 2.626,2.51 H -1.879 C -0.489,3.39 0,2.095 0,0.88 Z" /></g><g
         transform="translate(339,414.8086)"
         id="g248"><path
           inkscape:connector-curvature="0"
           id="path250"
           style="fill:#b3b3b3;fill-opacity:1;fill-rule:nonzero;stroke:none"
           d="M 0,0 C 0,-1.215 -0.646,-1.809 -2.036,-1.809 H -36.374 C -37.765,-1.809 -39,-1.215 -39,0 v 0.88 c 0,1.216 1.235,2.311 2.626,2.311 H -2.036 C -0.646,3.191 0,2.096 0,0.88 Z" /></g><g
         transform="translate(397,120)"
         id="g252"><path
           inkscape:connector-curvature="0"
           id="path254"
           style="fill:#4d4d4d;fill-opacity:1;fill-rule:nonzero;stroke:none"
           d="m 0,0 h -302 v 193.668 c 0,4.027 3.979,6.332 8.006,6.332 H -5.985 C -1.958,200 0,197.695 0,193.668 Z" /></g><path
         inkscape:connector-curvature="0"
         id="path256"
         style="fill:#f2f2f2;fill-opacity:1;fill-rule:nonzero;stroke:none"
         d="M 387,135 H 107 v 171 h 280 z" /><g
         transform="translate(436,112)"
         id="g258"><path
           inkscape:connector-curvature="0"
           id="path260"
           style="fill:#4d4d4d;fill-opacity:1;fill-rule:nonzero;stroke:none"
           d="M 0,0 V 8.446 C 0,10.459 -1.045,11 -3.06,11 H -373.097 C -375.111,11 -377,10.459 -377,8.446 V 0 h 0.257 c 0,0 9.114,-7 14.582,-7 h 348.166 c 5.468,0 14.583,7 14.583,7 z" /></g><g
         transform="translate(280.7334,117)"
         id="g262"><path
           inkscape:connector-curvature="0"
           id="path264"
           style="fill:#b3b3b3;fill-opacity:1;fill-rule:nonzero;stroke:none"
           d="m 0,0 h -65.624 c -5.468,0 -5.468,6 -5.468,6 h 76.56 c 0,0 0,-6 -5.468,-6" /></g><g
         transform="translate(219,281.5654)"
         id="g266"><path
           inkscape:connector-curvature="0"
           id="path268"
           style="fill:#ff4522;fill-opacity:1;fill-rule:nonzero;stroke:none"
           d="M 0,0 C 0,-2.437 -1.648,-4.565 -4.088,-4.565 H -51.174 C -53.612,-4.565 -56,-2.437 -56,0 v 8.829 c 0,2.437 2.388,4.606 4.826,4.606 H -4.088 C -1.648,13.435 0,11.266 0,8.829 Z" /></g><g
         transform="translate(331,225.4141)"
         id="g270"><path
           inkscape:connector-curvature="0"
           id="path272"
           style="fill:#47dee5;fill-opacity:1;fill-rule:nonzero;stroke:none"
           d="m 0,0 c 0,-2.438 -1.977,-4.414 -4.414,-4.414 h -159.172 c -2.437,0 -4.414,1.976 -4.414,4.414 v 41.172 c 0,2.437 1.977,4.414 4.414,4.414 H -4.414 C -1.977,45.586 0,43.609 0,41.172 Z" /></g><g
         transform="translate(215,190.335)"
         id="g274"><path
           inkscape:connector-curvature="0"
           id="path276"
           style="fill:#999999;fill-opacity:1;fill-rule:nonzero;stroke:none"
           d="M 0,0 C 0,-2.437 -2.063,-4.335 -4.502,-4.335 H -47.174 C -49.612,-4.335 -52,-2.437 -52,0 v 22.071 c 0,2.438 2.388,4.594 4.826,4.594 H -4.502 C -2.063,26.665 0,24.509 0,22.071 Z" /></g><g
         transform="translate(272,190.415)"
         id="g278"><path
           inkscape:connector-curvature="0"
           id="path280"
           style="fill:#999999;fill-opacity:1;fill-rule:nonzero;stroke:none"
           d="m 0,0 c 0,-2.438 -1.977,-4.415 -4.415,-4.415 h -42.17 C -49.023,-4.415 -51,-2.438 -51,0 v 22.17 c 0,2.438 1.977,4.415 4.415,4.415 h 42.17 C -1.977,26.585 0,24.608 0,22.17 Z" /></g><g
         transform="translate(330,190.415)"
         id="g282"><path
           inkscape:connector-curvature="0"
           id="path284"
           style="fill:#999999;fill-opacity:1;fill-rule:nonzero;stroke:none"
           d="M 0,0 C 0,-2.438 -1.977,-4.415 -4.414,-4.415 H -46.586 C -49.023,-4.415 -51,-2.438 -51,0 v 22.17 c 0,2.438 1.977,4.415 4.414,4.415 H -4.414 C -1.977,26.585 0,24.608 0,22.17 Z" /></g><g
         transform="translate(272,177.46)"
         id="g286"><path
           inkscape:connector-curvature="0"
           id="path288"
           style="fill:#b3b3b3;fill-opacity:1;fill-rule:nonzero;stroke:none"
           d="M 0,0 C 0,-1.016 -0.501,-1.46 -1.488,-1.46 H -49.414 C -50.401,-1.46 -51,-1.016 -51,0 v 0.735 c 0,1.017 0.599,1.805 1.586,1.805 H -1.488 C -0.501,2.54 0,1.752 0,0.735 Z" /></g><g
         transform="translate(272,170.1025)"
         id="g290"><path
           inkscape:connector-curvature="0"
           id="path292"
           style="fill:#b3b3b3;fill-opacity:1;fill-rule:nonzero;stroke:none"
           d="M 0,0 C 0,-1.016 -0.501,-2.103 -1.488,-2.103 H -49.414 C -50.401,-2.103 -51,-1.016 -51,0 v 0.735 c 0,1.016 0.599,2.162 1.586,2.162 H -1.488 C -0.501,2.897 0,1.751 0,0.735 Z" /></g><g
         transform="translate(272,162.7451)"
         id="g294"><path
           inkscape:connector-curvature="0"
           id="path296"
           style="fill:#b3b3b3;fill-opacity:1;fill-rule:nonzero;stroke:none"
           d="M 0,0 C 0,-1.016 -0.501,-2.745 -1.488,-2.745 H -49.414 C -50.401,-2.745 -51,-1.016 -51,0 v 0.736 c 0,1.016 0.599,2.519 1.586,2.519 H -1.488 C -0.501,3.255 0,1.752 0,0.736 Z" /></g><g
         transform="translate(272,155.3877)"
         id="g298"><path
           inkscape:connector-curvature="0"
           id="path300"
           style="fill:#b3b3b3;fill-opacity:1;fill-rule:nonzero;stroke:none"
           d="M 0,0 C 0,-1.017 -0.501,-2.388 -1.488,-2.388 H -49.414 C -50.401,-2.388 -51,-1.017 -51,0 v 0.735 c 0,1.017 0.599,1.877 1.586,1.877 H -1.488 C -0.501,2.612 0,1.752 0,0.735 Z" /></g><g
         transform="translate(248,148.0312)"
         id="g302"><path
           inkscape:connector-curvature="0"
           id="path304"
           style="fill:#b3b3b3;fill-opacity:1;fill-rule:nonzero;stroke:none"
           d="M 0,0 C 0,-1.017 -0.044,-2.031 -1.031,-2.031 H -25.414 C -26.401,-2.031 -27,-1.017 -27,0 v 0.735 c 0,1.016 0.599,2.234 1.586,2.234 H -1.031 C -0.044,2.969 0,1.751 0,0.735 Z" /></g><g
         transform="translate(331,177.46)"
         id="g306"><path
           inkscape:connector-curvature="0"
           id="path308"
           style="fill:#b3b3b3;fill-opacity:1;fill-rule:nonzero;stroke:none"
           d="M 0,0 C 0,-1.016 -0.643,-1.46 -1.63,-1.46 H -49.556 C -50.543,-1.46 -52,-1.016 -52,0 v 0.735 c 0,1.017 1.457,1.805 2.444,1.805 H -1.63 C -0.643,2.54 0,1.752 0,0.735 Z" /></g><g
         transform="translate(331,170.1025)"
         id="g310"><path
           inkscape:connector-curvature="0"
           id="path312"
           style="fill:#b3b3b3;fill-opacity:1;fill-rule:nonzero;stroke:none"
           d="M 0,0 C 0,-1.016 -0.643,-2.103 -1.63,-2.103 H -49.556 C -50.543,-2.103 -52,-1.016 -52,0 v 0.735 c 0,1.016 1.457,2.162 2.444,2.162 H -1.63 C -0.643,2.897 0,1.751 0,0.735 Z" /></g><g
         transform="translate(331,162.7451)"
         id="g314"><path
           inkscape:connector-curvature="0"
           id="path316"
           style="fill:#b3b3b3;fill-opacity:1;fill-rule:nonzero;stroke:none"
           d="M 0,0 C 0,-1.016 -0.643,-2.745 -1.63,-2.745 H -49.556 C -50.543,-2.745 -52,-1.016 -52,0 v 0.736 c 0,1.016 1.457,2.519 2.444,2.519 H -1.63 C -0.643,3.255 0,1.752 0,0.736 Z" /></g><g
         transform="translate(331,155.3877)"
         id="g318"><path
           inkscape:connector-curvature="0"
           id="path320"
           style="fill:#b3b3b3;fill-opacity:1;fill-rule:nonzero;stroke:none"
           d="M 0,0 C 0,-1.017 -0.643,-2.388 -1.63,-2.388 H -49.556 C -50.543,-2.388 -52,-1.017 -52,0 v 0.735 c 0,1.017 1.457,1.877 2.444,1.877 H -1.63 C -0.643,2.612 0,1.752 0,0.735 Z" /></g><g
         transform="translate(308,148.0312)"
         id="g322"><path
           inkscape:connector-curvature="0"
           id="path324"
           style="fill:#b3b3b3;fill-opacity:1;fill-rule:nonzero;stroke:none"
           d="M 0,0 C 0,-1.017 -1.186,-2.031 -2.173,-2.031 H -26.556 C -27.543,-2.031 -29,-1.017 -29,0 v 0.735 c 0,1.016 1.457,2.234 2.444,2.234 H -2.173 C -1.186,2.969 0,1.751 0,0.735 Z" /></g><g
         transform="translate(215,177.46)"
         id="g326"><path
           inkscape:connector-curvature="0"
           id="path328"
           style="fill:#b3b3b3;fill-opacity:1;fill-rule:nonzero;stroke:none"
           d="M 0,0 C 0,-1.016 -0.888,-1.46 -1.875,-1.46 H -49.801 C -50.787,-1.46 -52,-1.016 -52,0 v 0.735 c 0,1.017 1.213,1.805 2.199,1.805 H -1.875 C -0.888,2.54 0,1.752 0,0.735 Z" /></g><g
         transform="translate(215,170.1025)"
         id="g330"><path
           inkscape:connector-curvature="0"
           id="path332"
           style="fill:#b3b3b3;fill-opacity:1;fill-rule:nonzero;stroke:none"
           d="M 0,0 C 0,-1.016 -0.888,-2.103 -1.875,-2.103 H -49.801 C -50.787,-2.103 -52,-1.016 -52,0 v 0.735 c 0,1.016 1.213,2.162 2.199,2.162 H -1.875 C -0.888,2.897 0,1.751 0,0.735 Z" /></g><g
         transform="translate(215,162.7451)"
         id="g334"><path
           inkscape:connector-curvature="0"
           id="path336"
           style="fill:#b3b3b3;fill-opacity:1;fill-rule:nonzero;stroke:none"
           d="M 0,0 C 0,-1.016 -0.888,-2.745 -1.875,-2.745 H -49.801 C -50.787,-2.745 -52,-1.016 -52,0 v 0.736 c 0,1.016 1.213,2.519 2.199,2.519 H -1.875 C -0.888,3.255 0,1.752 0,0.736 Z" /></g><g
         transform="translate(215,155.3877)"
         id="g338"><path
           inkscape:connector-curvature="0"
           id="path340"
           style="fill:#b3b3b3;fill-opacity:1;fill-rule:nonzero;stroke:none"
           d="M 0,0 C 0,-1.017 -0.888,-2.388 -1.875,-2.388 H -49.801 C -50.787,-2.388 -52,-1.017 -52,0 v 0.735 c 0,1.017 1.213,1.877 2.199,1.877 H -1.875 C -0.888,2.612 0,1.752 0,0.735 Z" /></g><g
         transform="translate(191,148.0312)"
         id="g342"><path
           inkscape:connector-curvature="0"
           id="path344"
           style="fill:#b3b3b3;fill-opacity:1;fill-rule:nonzero;stroke:none"
           d="M 0,0 C 0,-1.017 -0.432,-2.031 -1.419,-2.031 H -25.801 C -26.787,-2.031 -28,-1.017 -28,0 v 0.735 c 0,1.016 1.213,2.234 2.199,2.234 H -1.419 C -0.432,2.969 0,1.751 0,0.735 Z" /></g><g
         transform="translate(740,220.5322)"
         id="g346"><path
           inkscape:connector-curvature="0"
           id="path348"
           style="fill:#4d4d4d;fill-opacity:1;fill-rule:nonzero;stroke:none"
           d="M 0,0 C 0,-7.67 -6.012,-14.532 -13.678,-14.532 H -156.662 C -164.328,-14.532 -171,-7.67 -171,0 v 197.936 c 0,7.669 6.672,14.532 14.338,14.532 H -13.678 C -6.012,212.468 0,205.605 0,197.936 Z" /></g><path
         inkscape:connector-curvature="0"
         id="path350"
         style="fill:#f2f2f2;fill-opacity:1;fill-rule:nonzero;stroke:none"
         d="M 726,242 H 583 v 174 h 143 z" /><g
         transform="translate(666.3027,224.4785)"
         id="g352"><path
           inkscape:connector-curvature="0"
           id="path354"
           style="fill:#b3b3b3;fill-opacity:1;fill-rule:nonzero;stroke:none"
           d="m 0,0 c 0,-6.34 -5.133,-11.471 -11.473,-11.471 -6.339,0 -11.472,5.131 -11.472,11.471 0,6.34 5.133,11.477 11.472,11.477 C -5.133,11.477 0,6.34 0,0" /></g><g
         transform="translate(656,388.9453)"
         id="g356"><path
           inkscape:connector-curvature="0"
           id="path358"
           style="fill:#ff4522;fill-opacity:1;fill-rule:nonzero;stroke:none"
           d="M 0,0 C 0,-2.402 -1.829,-3.945 -4.232,-3.945 H -50.648 C -53.053,-3.945 -55,-2.402 -55,0 v 8.703 c 0,2.402 1.947,4.352 4.352,4.352 H -4.232 C -1.829,13.055 0,11.105 0,8.703 Z" /></g><g
         transform="translate(708,333.8271)"
         id="g360"><path
           inkscape:connector-curvature="0"
           id="path362"
           style="fill:#47dee5;fill-opacity:1;fill-rule:nonzero;stroke:none"
           d="m 0,0 c 0,-2.402 -1.611,-4.827 -4.015,-4.827 h -98.633 c -2.405,0 -4.352,2.425 -4.352,4.827 v 40.613 c 0,2.403 1.947,4.56 4.352,4.56 H -4.015 C -1.611,45.173 0,43.016 0,40.613 Z" /></g><g
         transform="translate(652,299.0146)"
         id="g364"><path
           inkscape:connector-curvature="0"
           id="path366"
           style="fill:#999999;fill-opacity:1;fill-rule:nonzero;stroke:none"
           d="M 0,0 C 0,-2.402 -2.18,-4.015 -4.584,-4.015 H -46.648 C -49.053,-4.015 -51,-2.402 -51,0 v 21.758 c 0,2.402 1.947,4.227 4.352,4.227 H -4.584 C -2.18,25.985 0,24.16 0,21.758 Z" /></g><g
         transform="translate(708,299.0146)"
         id="g368"><path
           inkscape:connector-curvature="0"
           id="path370"
           style="fill:#999999;fill-opacity:1;fill-rule:nonzero;stroke:none"
           d="M 0,0 C 0,-2.402 -1.611,-4.015 -4.015,-4.015 H -46.079 C -48.482,-4.015 -50,-2.402 -50,0 v 21.758 c 0,2.402 1.518,4.227 3.921,4.227 H -4.015 C -1.611,25.985 0,24.16 0,21.758 Z" /></g><g
         transform="translate(708,286.3232)"
         id="g372"><path
           inkscape:connector-curvature="0"
           id="path374"
           style="fill:#b3b3b3;fill-opacity:1;fill-rule:nonzero;stroke:none"
           d="M 0,0 C 0,-1.002 -0.452,-1.323 -1.426,-1.323 H -48.668 C -49.642,-1.323 -50,-1.002 -50,0 v 0.725 c 0,1.002 0.358,1.952 1.332,1.952 H -1.426 C -0.452,2.677 0,1.727 0,0.725 Z" /></g><g
         transform="translate(708,279.0703)"
         id="g376"><path
           inkscape:connector-curvature="0"
           id="path378"
           style="fill:#b3b3b3;fill-opacity:1;fill-rule:nonzero;stroke:none"
           d="M 0,0 C 0,-1.001 -0.452,-2.07 -1.426,-2.07 H -48.668 C -49.642,-2.07 -50,-1.001 -50,0 v 0.726 c 0,1.001 0.358,2.204 1.332,2.204 H -1.426 C -0.452,2.93 0,1.727 0,0.726 Z" /></g><g
         transform="translate(708,271.8184)"
         id="g380"><path
           inkscape:connector-curvature="0"
           id="path382"
           style="fill:#b3b3b3;fill-opacity:1;fill-rule:nonzero;stroke:none"
           d="M 0,0 C 0,-1.002 -0.452,-1.818 -1.426,-1.818 H -48.668 C -49.642,-1.818 -50,-1.002 -50,0 v 0.725 c 0,1.002 0.358,1.457 1.332,1.457 H -1.426 C -0.452,2.182 0,1.727 0,0.725 Z" /></g><g
         transform="translate(708,264.5654)"
         id="g384"><path
           inkscape:connector-curvature="0"
           id="path386"
           style="fill:#b3b3b3;fill-opacity:1;fill-rule:nonzero;stroke:none"
           d="M 0,0 C 0,-1.001 -0.452,-1.565 -1.426,-1.565 H -48.668 C -49.642,-1.565 -50,-1.001 -50,0 v 0.726 c 0,1.001 0.358,1.709 1.332,1.709 H -1.426 C -0.452,2.435 0,1.727 0,0.726 Z" /></g><g
         transform="translate(685,257.3135)"
         id="g388"><path
           inkscape:connector-curvature="0"
           id="path390"
           style="fill:#b3b3b3;fill-opacity:1;fill-rule:nonzero;stroke:none"
           d="M 0,0 C 0,-1.002 -0.66,-2.313 -1.633,-2.313 H -25.668 C -26.642,-2.313 -27,-1.002 -27,0 v 0.725 c 0,1.002 0.358,1.962 1.332,1.962 H -1.633 C -0.66,2.687 0,1.727 0,0.725 Z" /></g><g
         transform="translate(652,286.3232)"
         id="g392"><path
           inkscape:connector-curvature="0"
           id="path394"
           style="fill:#b3b3b3;fill-opacity:1;fill-rule:nonzero;stroke:none"
           d="M 0,0 C 0,-1.002 -1.021,-1.323 -1.994,-1.323 H -49.238 C -50.211,-1.323 -51,-1.002 -51,0 v 0.725 c 0,1.002 0.789,1.952 1.762,1.952 H -1.994 C -1.021,2.677 0,1.727 0,0.725 Z" /></g><g
         transform="translate(652,279.0703)"
         id="g396"><path
           inkscape:connector-curvature="0"
           id="path398"
           style="fill:#b3b3b3;fill-opacity:1;fill-rule:nonzero;stroke:none"
           d="M 0,0 C 0,-1.001 -1.021,-2.07 -1.994,-2.07 H -49.238 C -50.211,-2.07 -51,-1.001 -51,0 v 0.726 c 0,1.001 0.789,2.204 1.762,2.204 H -1.994 C -1.021,2.93 0,1.727 0,0.726 Z" /></g><g
         transform="translate(652,271.8184)"
         id="g400"><path
           inkscape:connector-curvature="0"
           id="path402"
           style="fill:#b3b3b3;fill-opacity:1;fill-rule:nonzero;stroke:none"
           d="M 0,0 C 0,-1.002 -1.021,-1.818 -1.994,-1.818 H -49.238 C -50.211,-1.818 -51,-1.002 -51,0 v 0.725 c 0,1.002 0.789,1.457 1.762,1.457 H -1.994 C -1.021,2.182 0,1.727 0,0.725 Z" /></g><g
         transform="translate(652,264.5654)"
         id="g404"><path
           inkscape:connector-curvature="0"
           id="path406"
           style="fill:#b3b3b3;fill-opacity:1;fill-rule:nonzero;stroke:none"
           d="M 0,0 C 0,-1.001 -1.021,-1.565 -1.994,-1.565 H -49.238 C -50.211,-1.565 -51,-1.001 -51,0 v 0.726 c 0,1.001 0.789,1.709 1.762,1.709 H -1.994 C -1.021,2.435 0,1.727 0,0.726 Z" /></g><g
         transform="translate(629,257.3135)"
         id="g408"><path
           inkscape:connector-curvature="0"
           id="path410"
           style="fill:#b3b3b3;fill-opacity:1;fill-rule:nonzero;stroke:none"
           d="M 0,0 C 0,-1.002 -1.229,-2.313 -2.203,-2.313 H -26.238 C -27.211,-2.313 -28,-1.002 -28,0 v 0.725 c 0,1.002 0.789,1.962 1.762,1.962 H -2.203 C -1.229,2.687 0,1.727 0,0.725 Z" /></g><g
         transform="translate(596,83.2871)"
         id="g412"><path
           inkscape:connector-curvature="0"
           id="path414"
           style="fill:#4d4d4d;fill-opacity:1;fill-rule:nonzero;stroke:none"
           d="M 0,0 C 0,-6.479 -6.256,-12.287 -12.742,-12.287 H -87.085 C -93.568,-12.287 -99,-6.479 -99,0 v 160.424 c 0,6.48 5.432,12.289 11.915,12.289 h 74.343 C -6.256,172.713 0,166.904 0,160.424 Z" /></g><g
         transform="translate(596,83.2871)"
         id="g416"><path
           inkscape:connector-curvature="0"
           id="path418"
           style="fill:#4d4d4d;fill-opacity:1;fill-rule:nonzero;stroke:none"
           d="M 0,0 C 0,-6.479 -6.256,-12.287 -12.742,-12.287 H -87.085 C -93.568,-12.287 -99,-6.479 -99,0 v 160.424 c 0,6.48 5.432,12.289 11.915,12.289 h 74.343 C -6.256,172.713 0,166.904 0,160.424 Z" /></g><path
         inkscape:connector-curvature="0"
         id="path420"
         style="fill:#f2f2f2;fill-opacity:1;fill-rule:nonzero;stroke:none"
         d="m 589,98 h -85 v 135 h 85 z" /><g
         transform="translate(553.1953,84.7852)"
         id="g422"><path
           inkscape:connector-curvature="0"
           id="path424"
           style="fill:#b3b3b3;fill-opacity:1;fill-rule:nonzero;stroke:none"
           d="m 0,0 c 0,-3.922 -3.182,-7.107 -7.107,-7.107 -3.927,0 -7.108,3.185 -7.108,7.107 0,3.924 3.181,7.107 7.108,7.107 C -3.182,7.107 0,3.924 0,0" /></g><g
         transform="translate(563,241.8594)"
         id="g426"><path
           inkscape:connector-curvature="0"
           id="path428"
           style="fill:#b3b3b3;fill-opacity:1;fill-rule:nonzero;stroke:none"
           d="M 0,0 C 0,-1.027 -0.832,-1.859 -1.858,-1.859 H -37.142 C -38.168,-1.859 -39,-1.027 -39,0 v 0.281 c 0,1.028 0.832,1.86 1.858,1.86 H -1.858 C -0.832,2.141 0,1.309 0,0.281 Z" /></g><g
         transform="translate(580,212.5195)"
         id="g430"><path
           inkscape:connector-curvature="0"
           id="path432"
           style="fill:#ff4522;fill-opacity:1;fill-rule:nonzero;stroke:none"
           d="M 0,0 C 0,-1.943 -1.576,-3.52 -3.52,-3.52 H -63.48 C -65.424,-3.52 -67,-1.943 -67,0 v 6.961 c 0,1.943 1.576,3.519 3.52,3.519 H -3.52 C -1.576,10.48 0,8.904 0,6.961 Z" /></g><g
         transform="translate(580,168.5205)"
         id="g434"><path
           inkscape:connector-curvature="0"
           id="path436"
           style="fill:#47dee5;fill-opacity:1;fill-rule:nonzero;stroke:none"
           d="M 0,0 C 0,-1.944 -1.576,-3.521 -3.52,-3.521 H -63.48 C -65.424,-3.521 -67,-1.944 -67,0 v 32.959 c 0,1.944 1.576,3.52 3.52,3.52 h 59.96 c 1.944,0 3.52,-1.576 3.52,-3.52 z" /></g><g
         transform="translate(580,140.4463)"
         id="g438"><path
           inkscape:connector-curvature="0"
           id="path440"
           style="fill:#999999;fill-opacity:1;fill-rule:nonzero;stroke:none"
           d="M 0,0 C 0,-1.943 -1.2,-3.446 -3.188,-3.446 H -63.77 C -65.757,-3.446 -67,-1.943 -67,0 v 17.601 c 0,1.943 1.243,2.953 3.23,2.953 H -3.188 C -1.2,20.554 0,19.544 0,17.601 Z" /></g><g
         transform="translate(580,111.4463)"
         id="g442"><path
           inkscape:connector-curvature="0"
           id="path444"
           style="fill:#999999;fill-opacity:1;fill-rule:nonzero;stroke:none"
           d="M 0,0 C 0,-1.943 -1.199,-3.446 -3.188,-3.446 H -63.77 C -65.758,-3.446 -67,-1.943 -67,0 v 17.601 c 0,1.943 1.242,2.953 3.23,2.953 H -3.188 C -1.199,20.554 0,19.544 0,17.601 Z" /></g></g></g></svg>