<?xml version="1.0" encoding="UTF-8" standalone="no"?>
<!-- Created with Inkscape (http://www.inkscape.org/) -->

<svg
   xmlns:dc="http://purl.org/dc/elements/1.1/"
   xmlns:cc="http://creativecommons.org/ns#"
   xmlns:rdf="http://www.w3.org/1999/02/22-rdf-syntax-ns#"
   xmlns:svg="http://www.w3.org/2000/svg"
   xmlns="http://www.w3.org/2000/svg"
   xmlns:sodipodi="http://sodipodi.sourceforge.net/DTD/sodipodi-0.dtd"
   xmlns:inkscape="http://www.inkscape.org/namespaces/inkscape"
   version="1.1"
   id="svg2"
   xml:space="preserve"
   width="763.84186"
   height="763.84186"
   viewBox="0 0 763.84182 763.84182"
   sodipodi:docname="speed.svg"
   inkscape:version="0.92.3 (unknown)"><metadata
     id="metadata8"><rdf:RDF><cc:Work
         rdf:about=""><dc:format>image/svg+xml</dc:format><dc:type
           rdf:resource="http://purl.org/dc/dcmitype/StillImage" /><dc:title></dc:title></cc:Work></rdf:RDF></metadata><defs
     id="defs6"><clipPath
       clipPathUnits="userSpaceOnUse"
       id="clipPath18"><path
         d="M 0,0 H 800 V 800 H 0 Z"
         id="path16"
         inkscape:connector-curvature="0" /></clipPath><radialGradient
       fx="0"
       fy="0"
       cx="0"
       cy="0"
       r="1"
       gradientUnits="userSpaceOnUse"
       gradientTransform="matrix(400,0,0,-400,400,400)"
       spreadMethod="pad"
       id="radialGradient34"><stop
         style="stop-opacity:1;stop-color:#ffffff"
         offset="0"
         id="stop24" /><stop
         style="stop-opacity:1;stop-color:#ffffff"
         offset="0.581178"
         id="stop26" /><stop
         style="stop-opacity:1;stop-color:#ffffff"
         offset="0.74165682"
         id="stop28" /><stop
         style="stop-opacity:1;stop-color:#e8eeec"
         offset="0.997706"
         id="stop30" /><stop
         style="stop-opacity:1;stop-color:#e8eeec"
         offset="1"
         id="stop32" /></radialGradient><clipPath
       clipPathUnits="userSpaceOnUse"
       id="clipPath44"><path
         d="M 0,800 H 800 V 0 H 0 Z"
         id="path42"
         inkscape:connector-curvature="0" /></clipPath><clipPath
       clipPathUnits="userSpaceOnUse"
       id="clipPath52"><path
         d="M 280.789,36.1367 H 519.211 V 13.0645 H 280.789 Z"
         id="path50"
         inkscape:connector-curvature="0" /></clipPath><clipPath
       clipPathUnits="userSpaceOnUse"
       id="clipPath188"><path
         d="M 202.292,160.177 H 597.709 V 130 H 202.292 Z"
         id="path186"
         inkscape:connector-curvature="0" /></clipPath><clipPath
       clipPathUnits="userSpaceOnUse"
       id="clipPath192"><path
         d="m 202.292,145.088 c 0,8.334 88.516,15.089 197.708,15.089 109.188,0 197.709,-6.755 197.709,-15.089 C 597.709,136.755 509.188,130 400,130 c -109.192,0 -197.708,6.755 -197.708,15.088"
         id="path190"
         inkscape:connector-curvature="0" /></clipPath><radialGradient
       fx="0"
       fy="0"
       cx="0"
       cy="0"
       r="1"
       gradientUnits="userSpaceOnUse"
       gradientTransform="matrix(140.04924,0,0,-17.92201,400,145.08887)"
       spreadMethod="pad"
       id="radialGradient202"><stop
         style="stop-opacity:1;stop-color:#e0e3e2"
         offset="0"
         id="stop194" /><stop
         style="stop-opacity:1;stop-color:#e0e3e2"
         offset="0.103383"
         id="stop196" /><stop
         style="stop-opacity:1;stop-color:#ffffff"
         offset="0.6645648"
         id="stop198" /><stop
         style="stop-opacity:1;stop-color:#ffffff"
         offset="1"
         id="stop200" /></radialGradient><clipPath
       clipPathUnits="userSpaceOnUse"
       id="clipPath224"><path
         d="m 345.701,545.554 c 5.038,-58.001 -24.883,-67.001 -24.883,-67.001 v 0 c 4.87,20.159 -0.855,39.49 -10.228,51.001 v 0 c -9.225,11.33 -22.063,15 -22.063,15 v 0 c 0,0 28.275,-35 -13.789,-111.001 v 0 c -22.217,-40.142 3.001,-81 3.001,-81 v 0 c -20.001,15.001 -36,0 -36,0 v 0 c 27,-19 8,-67.999 40,-111.999 v 0 c 18.61,-25.589 39.251,-40.004 60.445,-48.471 v 0 c -33.327,21.166 -55.445,58.399 -55.445,100.802 v 0 c 0,65.905 53.426,119.331 119.331,119.331 v 0 c 65.905,0 119.331,-53.426 119.331,-119.331 v 0 c 0,-43.996 -23.812,-82.425 -59.249,-103.117 v 0 c 47.633,17.244 70.224,53.369 78.587,76.786 v 0 c 35.001,98 -9,140.999 -9,140.999 v 0 c 8.001,-20.999 -4,-47.999 -4,-47.999 v 0 c 2.001,46.999 -40,71 -19.638,144.999 v 0 c 8.337,30.302 -9.362,47 -9.362,47 v 0 c 5.001,-20 -7,-25.999 -23.287,-52.999 v 0 c -16.287,-27 -7.846,-55.001 -7.846,-55.001 v 0 c -28.133,30.001 -15.867,73.001 -7.668,98 v 0 c 8.199,25.001 -3.199,41.001 -3.199,41.001 v 0 c 5,-29 -38,-71 -67.591,-22.001 v 0 c -29.591,49.001 7.627,81 7.627,81 v 0 c -46.965,-1 -58.122,-60.908 -55.074,-95.999"
         id="path222"
         inkscape:connector-curvature="0" /></clipPath><linearGradient
       x1="0"
       y1="0"
       x2="1"
       y2="0"
       gradientUnits="userSpaceOnUse"
       gradientTransform="matrix(-2.01e-5,460.67679,460.67679,2.01e-5,400.00049,180.87793)"
       spreadMethod="pad"
       id="linearGradient236"><stop
         style="stop-opacity:1;stop-color:#ff7543"
         offset="0"
         id="stop230" /><stop
         style="stop-opacity:1;stop-color:#ffd01f"
         offset="0.607194"
         id="stop232" /><stop
         style="stop-opacity:1;stop-color:#fff900"
         offset="1"
         id="stop234" /></linearGradient><clipPath
       clipPathUnits="userSpaceOnUse"
       id="clipPath246"><path
         d="M 0,800 H 800 V 0 H 0 Z"
         id="path244"
         inkscape:connector-curvature="0" /></clipPath><clipPath
       clipPathUnits="userSpaceOnUse"
       id="clipPath258"><path
         d="m 345.701,545.554 c 5.038,-58.001 -24.883,-67.001 -24.883,-67.001 v 0 c 4.87,20.159 -0.855,39.49 -10.228,51.001 v 0 c -9.225,11.33 -22.063,15 -22.063,15 v 0 c 0,0 28.275,-35 -13.789,-111.001 v 0 c -22.217,-40.142 3.001,-81 3.001,-81 v 0 c -20.001,15.001 -36,0 -36,0 v 0 c 27,-19 8,-67.999 40,-111.999 v 0 c 18.61,-25.589 39.251,-40.004 60.445,-48.471 v 0 c -33.327,21.166 -55.445,58.399 -55.445,100.802 v 0 c 0,65.905 53.426,119.331 119.331,119.331 v 0 c 65.905,0 119.331,-53.426 119.331,-119.331 v 0 c 0,-43.996 -23.812,-82.425 -59.249,-103.117 v 0 c 47.633,17.244 70.224,53.369 78.587,76.786 v 0 c 35.001,98 -9,140.999 -9,140.999 v 0 c 8.001,-20.999 -4,-47.999 -4,-47.999 v 0 c 2.001,46.999 -40,71 -19.638,144.999 v 0 c 8.337,30.302 -9.362,47 -9.362,47 v 0 c 5.001,-20 -7,-25.999 -23.287,-52.999 v 0 c -16.287,-27 -7.846,-55.001 -7.846,-55.001 v 0 c -28.133,30.001 -15.867,73.001 -7.668,98 v 0 c 8.199,25.001 -3.199,41.001 -3.199,41.001 v 0 c 5,-29 -38,-71 -67.591,-22.001 v 0 c -29.591,49.001 7.627,81 7.627,81 v 0 c -46.965,-1 -58.122,-60.908 -55.074,-95.999"
         id="path256"
         inkscape:connector-curvature="0" /></clipPath><linearGradient
       x1="0"
       y1="0"
       x2="1"
       y2="0"
       gradientUnits="userSpaceOnUse"
       gradientTransform="matrix(-2.01e-5,460.67679,460.67679,2.01e-5,400.00049,180.87793)"
       spreadMethod="pad"
       id="linearGradient270"><stop
         style="stop-opacity:1;stop-color:#ff7543"
         offset="0"
         id="stop264" /><stop
         style="stop-opacity:1;stop-color:#ffd01f"
         offset="0.607194"
         id="stop266" /><stop
         style="stop-opacity:1;stop-color:#fff900"
         offset="1"
         id="stop268" /></linearGradient><clipPath
       clipPathUnits="userSpaceOnUse"
       id="clipPath280"><path
         d="M 0,800 H 800 V 0 H 0 Z"
         id="path278"
         inkscape:connector-curvature="0" /></clipPath><clipPath
       clipPathUnits="userSpaceOnUse"
       id="clipPath292"><path
         d="m 345.701,546.447 c 5.038,-58.001 -24.883,-67.001 -24.883,-67.001 v 0 c 4.87,20.159 -0.855,39.489 -10.228,51 v 0 c -9.225,11.331 -22.063,15 -22.063,15 v 0 c 0,0 28.275,-34.999 -13.789,-111 v 0 c -22.217,-40.143 3.001,-81 3.001,-81 v 0 c -20.001,15.001 -36,0 -36,0 v 0 c 27,-19 8,-67.999 40,-111.999 v 0 c 18.61,-25.588 39.251,-40.004 60.445,-48.472 v 0 c -33.327,21.166 -55.445,58.399 -55.445,100.803 v 0 c 0,65.904 53.426,119.33 119.331,119.33 v 0 c 65.905,0 119.331,-53.426 119.331,-119.33 v 0 c 0,-43.996 -23.812,-82.426 -59.249,-103.117 v 0 c 47.633,17.244 70.224,53.37 78.587,76.786 v 0 c 35.001,97.999 -9,140.999 -9,140.999 v 0 c 8.001,-21 -4,-48 -4,-48 v 0 c 2.001,47 -40,71.001 -19.638,145 v 0 c 8.337,30.301 -9.362,47 -9.362,47 v 0 c 5.001,-20 -7,-26 -23.287,-53 v 0 c -16.287,-27 -7.846,-55 -7.846,-55 v 0 c -28.133,30.001 -15.867,73 -7.668,98 v 0 c 8.199,25 -3.199,41.001 -3.199,41.001 v 0 c 5,-29.001 -38,-71.001 -67.591,-22.001 v 0 c -29.591,49.001 7.627,81 7.627,81 v 0 c -46.965,-1 -58.122,-60.908 -55.074,-95.999"
         id="path290"
         inkscape:connector-curvature="0" /></clipPath><clipPath
       clipPathUnits="userSpaceOnUse"
       id="clipPath300"><path
         d="M 239.738,605.446 H 556.262 V 153.661 H 239.738 Z"
         id="path298"
         inkscape:connector-curvature="0" /></clipPath><clipPath
       clipPathUnits="userSpaceOnUse"
       id="clipPath316"><path
         d="M 260.739,536.31 H 567.262 V 98.7461 H 260.739 Z"
         id="path314"
         inkscape:connector-curvature="0" /></clipPath><clipPath
       clipPathUnits="userSpaceOnUse"
       id="clipPath332"><path
         d="m 295.239,292.885 c 0,-38.144 19.249,-73.142 51.492,-93.62 v 0 c 17.731,-11.26 38.25,-17.211 59.339,-17.211 v 0 c 19.634,0 38.931,5.208 55.805,15.06 v 0 c 33.941,19.82 55.026,56.518 55.026,95.771 v 0 c 0,61.112 -49.718,110.831 -110.831,110.831 v 0 c -61.113,0 -110.831,-49.719 -110.831,-110.831 m 55.245,-87.711 c -30.21,19.186 -48.245,51.976 -48.245,87.711 v 0 c 0,57.253 46.579,103.83 103.831,103.83 v 0 c 57.254,0 103.831,-46.577 103.831,-103.83 v 0 c 0,-36.775 -19.755,-71.156 -51.555,-89.726 v 0 c -15.805,-9.227 -33.881,-14.105 -52.276,-14.105 v 0 c -19.758,0 -38.979,5.574 -55.586,16.12"
         id="path330"
         inkscape:connector-curvature="0" /></clipPath><linearGradient
       x1="0"
       y1="0"
       x2="1"
       y2="0"
       gradientUnits="userSpaceOnUse"
       gradientTransform="matrix(221.6626,0,0,-221.6626,295.23877,292.88477)"
       spreadMethod="pad"
       id="linearGradient344"><stop
         style="stop-opacity:1;stop-color:#ffb372"
         offset="0"
         id="stop338" /><stop
         style="stop-opacity:1;stop-color:#eacc2f"
         offset="0.45925"
         id="stop340" /><stop
         style="stop-opacity:1;stop-color:#ffb372"
         offset="1"
         id="stop342" /></linearGradient><clipPath
       clipPathUnits="userSpaceOnUse"
       id="clipPath354"><path
         d="m 405.177,379.822 -2.073,-0.019 -0.449,-0.005 -0.238,-0.015 -0.474,-0.029 -0.951,-0.058 c -2.36,-0.116 -5.542,-0.423 -8.268,-0.834 v 0 c -11.053,-1.627 -21.898,-5.469 -31.518,-11.22 v 0 c -9.634,-5.733 -18.033,-13.335 -24.591,-22.018 v 0 c -6.568,-8.679 -11.313,-18.417 -14.035,-28.287 v 0 c -2.722,-9.865 -3.546,-19.85 -2.774,-29.018 v 0 c 0.65,-9.296 2.974,-17.794 6.024,-25.182 v 0 c 3.061,-7.397 6.923,-13.659 10.873,-18.737 v 0 c 3.952,-5.09 7.984,-8.997 11.438,-12.008 v 0 c 1.793,-1.437 3.326,-2.789 4.807,-3.783 v 0 c 1.451,-1.026 2.646,-1.947 3.708,-2.566 v 0 c 2.069,-1.299 3.173,-1.993 3.173,-1.993 v 0 c 0,0 -1.049,0.771 -3.018,2.215 v 0 c -1.95,1.46 -4.719,3.732 -7.967,6.89 v 0 c -3.189,3.215 -6.857,7.329 -10.332,12.547 v 0 c -3.476,5.204 -6.748,11.509 -9.149,18.757 v 0 c -2.392,7.232 -3.986,15.427 -3.96,24.043 v 0 c -0.102,8.708 1.348,17.751 4.46,26.531 v 0 c 3.117,8.767 8.02,17.161 14.379,24.403 v 0 c 6.349,7.248 14.17,13.319 22.792,17.633 v 0 c 8.616,4.331 18.011,6.88 27.332,7.562 v 0 c 1.187,0.135 2.254,0.111 3.367,0.17 v 0 c 1.026,0.067 2.374,0.03 3.635,0.019 v 0 l 0.954,-0.01 0.476,-0.005 0.237,-0.003 c -0.342,-0.007 -0.033,-0.005 -0.082,-0.01 v 0 l 0.108,-0.007 1.721,-0.114 1.714,-0.11 1.699,-0.194 c 4.521,-0.508 8.914,-1.429 13.103,-2.709 v 0 c 8.391,-2.55 15.893,-6.628 22.201,-11.412 v 0 c 6.34,-4.771 11.387,-10.382 15.306,-15.961 v 0 c 3.871,-5.631 6.637,-11.257 8.433,-16.433 v 0 c 1.828,-5.17 2.802,-9.842 3.322,-13.707 v 0 c 0.309,-1.926 0.375,-3.674 0.528,-5.173 v 0 c 0.021,-0.693 0.039,-1.332 0.056,-1.919 v 0 c 0.011,-0.292 0.021,-0.571 0.031,-0.837 v 0 c 0.014,-0.256 0.024,-0.507 0.015,-0.84 v 0 c -0.027,-2.442 -0.041,-3.746 -0.041,-3.746 v 0 l 12.07,0.306 12.068,0.305 c 0,0 -0.079,1.301 -0.229,3.739 v 0 c -0.012,0.278 -0.049,0.671 -0.093,1.092 v 0 c -0.042,0.414 -0.085,0.85 -0.131,1.306 v 0 c -0.097,0.909 -0.202,1.902 -0.317,2.974 v 0 c -0.333,2.006 -0.621,4.319 -1.209,6.864 v 0 c -1.076,5.099 -2.831,11.213 -5.739,17.829 v 0 c -2.874,6.622 -7.013,13.69 -12.53,20.549 v 0 c -5.561,6.813 -12.516,13.437 -20.919,18.856 v 0 c -8.366,5.435 -18.083,9.789 -28.613,12.168 v 0 c -5.255,1.196 -10.693,1.924 -16.193,2.138 v 0 l -2.066,0.08 z"
         id="path352"
         inkscape:connector-curvature="0" /></clipPath><linearGradient
       x1="0"
       y1="0"
       x2="1"
       y2="0"
       gradientUnits="userSpaceOnUse"
       gradientTransform="matrix(175.75732,0,0,-175.75732,319.52979,301.94336)"
       spreadMethod="pad"
       id="linearGradient366"><stop
         style="stop-opacity:1;stop-color:#a5ca00"
         offset="0"
         id="stop360" /><stop
         style="stop-opacity:1;stop-color:#ffd01f"
         offset="0.388615"
         id="stop362" /><stop
         style="stop-opacity:1;stop-color:#e71c3b"
         offset="1"
         id="stop364" /></linearGradient><clipPath
       clipPathUnits="userSpaceOnUse"
       id="clipPath376"><path
         d="M 0,800 H 800 V 0 H 0 Z"
         id="path374"
         inkscape:connector-curvature="0" /></clipPath><clipPath
       clipPathUnits="userSpaceOnUse"
       id="clipPath392"><path
         d="m 397.208,265.7 c -1.635,-1.43 -2.452,-3.332 -2.452,-5.705 v 0 c 0,-1.507 0.387,-2.734 1.161,-3.68 v 0 c 0.774,-0.948 1.96,-1.64 3.559,-2.078 v 0 l 2.153,-0.595 c 1.152,-0.326 1.898,-0.645 2.238,-0.955 v 0 c 0.341,-0.311 0.512,-0.746 0.512,-1.306 v 0 c 0,-0.855 -0.379,-1.558 -1.138,-2.108 v 0 c -0.758,-0.549 -1.744,-0.824 -2.955,-0.824 v 0 c -1.121,0 -2.256,0.192 -3.407,0.579 v 0 c -1.15,0.388 -2.332,0.973 -3.543,1.757 v 0 l -0.84,-4.963 c 1.252,-0.541 2.537,-0.948 3.857,-1.223 v 0 c 1.318,-0.275 2.639,-0.413 3.963,-0.413 v 0 c 2.851,0 5.121,0.75 6.812,2.247 v 0 c 1.691,1.495 2.536,3.482 2.536,5.956 v 0 c 0,1.527 -0.423,2.772 -1.267,3.734 v 0 c -0.846,0.963 -2.18,1.698 -4.003,2.207 v 0 l -2.169,0.595 c -1.018,0.276 -1.69,0.558 -2.016,0.848 v 0 c -0.326,0.291 -0.488,0.696 -0.488,1.215 v 0 c 0,0.815 0.369,1.451 1.107,1.909 v 0 c 0.738,0.458 1.769,0.688 3.093,0.688 v 0 c 0.957,0 1.939,-0.141 2.947,-0.42 v 0 c 1.009,-0.28 2.033,-0.706 3.07,-1.276 v 0 l 0.856,4.827 c -1.212,0.377 -2.4,0.659 -3.566,0.848 v 0 c -1.167,0.188 -2.305,0.281 -3.414,0.281 v 0 c -2.77,0 -4.972,-0.714 -6.606,-2.145 m 73.8,1.733 -4.003,-22.803 h 5.576 c 3.319,0 5.778,0.234 7.377,0.702 v 0 c 1.599,0.469 3.004,1.258 4.216,2.368 v 0 c 1.385,1.243 2.459,2.777 3.223,4.605 v 0 c 0.763,1.828 1.145,3.775 1.145,5.843 v 0 c 0,1.486 -0.224,2.817 -0.672,3.993 v 0 c -0.448,1.177 -1.115,2.176 -2,3.002 v 0 c -0.887,0.825 -1.994,1.413 -3.323,1.763 v 0 c -1.33,0.352 -3.322,0.527 -5.98,0.527 v 0 z m 4.536,-4.444 h 1.848 c 1.853,0 3.248,-0.453 4.185,-1.359 v 0 c 0.936,-0.906 1.405,-2.246 1.405,-4.018 v 0 c 0,-2.617 -0.717,-4.694 -2.154,-6.231 v 0 c -1.436,-1.538 -3.385,-2.307 -5.849,-2.307 v 0 h -1.909 z m -22.514,4.444 -4.002,-22.803 h 14.586 l 0.749,4.444 h -9.271 l 0.916,5.224 h 8.432 l 0.809,4.445 h -8.462 l 0.749,4.246 h 8.981 l 0.779,4.444 z m -17.978,0 -4.002,-22.803 h 14.586 l 0.749,4.444 h -9.272 l 0.917,5.224 h 8.431 l 0.809,4.445 h -8.461 l 0.748,4.246 h 8.981 l 0.78,4.444 z m -19.369,0 -4.002,-22.803 h 5.284 l 1.375,7.912 h 3.498 c 1.7,0 3.115,0.195 4.246,0.588 v 0 c 1.13,0.392 2.103,1.02 2.917,1.886 v 0 c 0.743,0.804 1.319,1.744 1.726,2.818 v 0 c 0.407,1.074 0.611,2.207 0.611,3.398 v 0 c 0,1.945 -0.609,3.465 -1.826,4.56 v 0 c -1.216,1.094 -2.899,1.641 -5.047,1.641 v 0 z m 4.551,-4.261 h 2.902 c 0.896,0 1.578,-0.219 2.046,-0.656 v 0 c 0.468,-0.439 0.702,-1.07 0.702,-1.895 v 0 c 0,-1.242 -0.327,-2.19 -0.983,-2.84 v 0 c -0.658,-0.652 -1.612,-0.979 -2.865,-0.979 v 0 h -2.917 z"
         id="path390"
         inkscape:connector-curvature="0" /></clipPath><linearGradient
       x1="0"
       y1="0"
       x2="1"
       y2="0"
       gradientUnits="userSpaceOnUse"
       gradientTransform="matrix(-1e-6,23.65918,23.65918,1e-6,440.51855,244.18652)"
       spreadMethod="pad"
       id="linearGradient410"><stop
         style="stop-opacity:1;stop-color:#710000"
         offset="0"
         id="stop398" /><stop
         style="stop-opacity:1;stop-color:#e71c3b"
         offset="0.24297697"
         id="stop400" /><stop
         style="stop-opacity:1;stop-color:#e71c3b"
         offset="0.52778"
         id="stop402" /><stop
         style="stop-opacity:1;stop-color:#e71c3b"
         offset="0.68551612"
         id="stop404" /><stop
         style="stop-opacity:1;stop-color:#ff7543"
         offset="0.995392"
         id="stop406" /><stop
         style="stop-opacity:1;stop-color:#ff7543"
         offset="1"
         id="stop408" /></linearGradient></defs><sodipodi:namedview
     pagecolor="#ffffff"
     bordercolor="#666666"
     borderopacity="1"
     objecttolerance="10"
     gridtolerance="10"
     guidetolerance="10"
     inkscape:pageopacity="0"
     inkscape:pageshadow="2"
     inkscape:window-width="1366"
     inkscape:window-height="705"
     id="namedview4"
     showgrid="false"
     inkscape:zoom="0.22124998"
     inkscape:cx="379.66105"
     inkscape:cy="388.7006"
     inkscape:window-x="0"
     inkscape:window-y="24"
     inkscape:window-maximized="1"
     inkscape:current-layer="g10" /><g
     id="g10"
     inkscape:groupmode="layer"
     inkscape:label="13762-NP3Q0H"
     transform="matrix(1.3333333,0,0,-1.3333333,-153.67233,908.47459)"><g
       id="g218"><g
         id="g220"
         clip-path="url(#clipPath224)"><g
           id="g226"><g
             id="g228"><path
               d="m 345.701,545.554 c 5.038,-58.001 -24.883,-67.001 -24.883,-67.001 v 0 c 4.87,20.159 -0.855,39.49 -10.228,51.001 v 0 c -9.225,11.33 -22.063,15 -22.063,15 v 0 c 0,0 28.275,-35 -13.789,-111.001 v 0 c -22.217,-40.142 3.001,-81 3.001,-81 v 0 c -20.001,15.001 -36,0 -36,0 v 0 c 27,-19 8,-67.999 40,-111.999 v 0 c 18.61,-25.589 39.251,-40.004 60.445,-48.471 v 0 c -33.327,21.166 -55.445,58.399 -55.445,100.802 v 0 c 0,65.905 53.426,119.331 119.331,119.331 v 0 c 65.905,0 119.331,-53.426 119.331,-119.331 v 0 c 0,-43.996 -23.812,-82.425 -59.249,-103.117 v 0 c 47.633,17.244 70.224,53.369 78.587,76.786 v 0 c 35.001,98 -9,140.999 -9,140.999 v 0 c 8.001,-20.999 -4,-47.999 -4,-47.999 v 0 c 2.001,46.999 -40,71 -19.638,144.999 v 0 c 8.337,30.302 -9.362,47 -9.362,47 v 0 c 5.001,-20 -7,-25.999 -23.287,-52.999 v 0 c -16.287,-27 -7.846,-55.001 -7.846,-55.001 v 0 c -28.133,30.001 -15.867,73.001 -7.668,98 v 0 c 8.199,25.001 -3.199,41.001 -3.199,41.001 v 0 c 5,-29 -38,-71 -67.591,-22.001 v 0 c -29.591,49.001 7.627,81 7.627,81 v 0 c -46.965,-1 -58.122,-60.908 -55.074,-95.999"
               style="fill:url(#linearGradient236);stroke:none"
               id="path238"
               inkscape:connector-curvature="0" /></g></g></g></g><g
       id="g240"><g
         id="g242"
         clip-path="url(#clipPath246)"><g
           id="g248"
           transform="translate(525.4014,292.8848)"><path
             d="m 0,0 c 0,65.905 -53.426,119.331 -119.331,119.331 -65.905,0 -119.332,-53.426 -119.332,-119.331 0,-42.403 22.119,-79.636 55.445,-100.802 18.472,-11.73 40.385,-18.529 63.887,-18.529 21.909,0 42.435,5.91 60.082,16.214 C -23.812,-82.425 0,-43.996 0,0"
             style="fill:#ffffff;fill-opacity:1;fill-rule:nonzero;stroke:none"
             id="path250"
             inkscape:connector-curvature="0" /></g></g></g><g
       id="g252"><g
         id="g254"
         clip-path="url(#clipPath258)"><g
           id="g260"><g
             id="g262"><path
               d="m 345.701,545.554 c 5.038,-58.001 -24.883,-67.001 -24.883,-67.001 v 0 c 4.87,20.159 -0.855,39.49 -10.228,51.001 v 0 c -9.225,11.33 -22.063,15 -22.063,15 v 0 c 0,0 28.275,-35 -13.789,-111.001 v 0 c -22.217,-40.142 3.001,-81 3.001,-81 v 0 c -20.001,15.001 -36,0 -36,0 v 0 c 27,-19 8,-67.999 40,-111.999 v 0 c 18.61,-25.589 39.251,-40.004 60.445,-48.471 v 0 c -33.327,21.166 -55.445,58.399 -55.445,100.802 v 0 c 0,65.905 53.426,119.331 119.331,119.331 v 0 c 65.905,0 119.331,-53.426 119.331,-119.331 v 0 c 0,-43.996 -23.812,-82.425 -59.249,-103.117 v 0 c 47.633,17.244 70.224,53.369 78.587,76.786 v 0 c 35.001,98 -9,140.999 -9,140.999 v 0 c 8.001,-20.999 -4,-47.999 -4,-47.999 v 0 c 2.001,46.999 -40,71 -19.638,144.999 v 0 c 8.337,30.302 -9.362,47 -9.362,47 v 0 c 5.001,-20 -7,-25.999 -23.287,-52.999 v 0 c -16.287,-27 -7.846,-55.001 -7.846,-55.001 v 0 c -28.133,30.001 -15.867,73.001 -7.668,98 v 0 c 8.199,25.001 -3.199,41.001 -3.199,41.001 v 0 c 5,-29 -38,-71 -67.591,-22.001 v 0 c -29.591,49.001 7.627,81 7.627,81 v 0 c -46.965,-1 -58.122,-60.908 -55.074,-95.999"
               style="fill:url(#linearGradient270);stroke:none"
               id="path272"
               inkscape:connector-curvature="0" /></g></g></g></g><g
       id="g274"><g
         id="g276"
         clip-path="url(#clipPath280)"><g
           id="g282"
           transform="translate(525.4014,292.8848)"><path
             d="m 0,0 c 0,65.905 -53.426,119.331 -119.331,119.331 -65.905,0 -119.332,-53.426 -119.332,-119.331 0,-42.403 22.119,-79.636 55.445,-100.802 18.472,-11.73 40.385,-18.529 63.887,-18.529 21.909,0 42.435,5.91 60.082,16.214 C -23.812,-82.425 0,-43.996 0,0"
             style="fill:#ffffff;fill-opacity:1;fill-rule:nonzero;stroke:none"
             id="path284"
             inkscape:connector-curvature="0" /></g></g></g><g
       id="g326"><g
         id="g328"
         clip-path="url(#clipPath332)"><g
           id="g334"><g
             id="g336"><path
               d="m 295.239,292.885 c 0,-38.144 19.249,-73.142 51.492,-93.62 v 0 c 17.731,-11.26 38.25,-17.211 59.339,-17.211 v 0 c 19.634,0 38.931,5.208 55.805,15.06 v 0 c 33.941,19.82 55.026,56.518 55.026,95.771 v 0 c 0,61.112 -49.718,110.831 -110.831,110.831 v 0 c -61.113,0 -110.831,-49.719 -110.831,-110.831 m 55.245,-87.711 c -30.21,19.186 -48.245,51.976 -48.245,87.711 v 0 c 0,57.253 46.579,103.83 103.831,103.83 v 0 c 57.254,0 103.831,-46.577 103.831,-103.83 v 0 c 0,-36.775 -19.755,-71.156 -51.555,-89.726 v 0 c -15.805,-9.227 -33.881,-14.105 -52.276,-14.105 v 0 c -19.758,0 -38.979,5.574 -55.586,16.12"
               style="fill:url(#linearGradient344);stroke:none"
               id="path346"
               inkscape:connector-curvature="0" /></g></g></g></g><g
       id="g348"><g
         id="g350"
         clip-path="url(#clipPath354)"><g
           id="g356"><g
             id="g358"><path
               d="m 405.177,379.822 -2.073,-0.019 -0.449,-0.005 -0.238,-0.015 -0.474,-0.029 -0.951,-0.058 c -2.36,-0.116 -5.542,-0.423 -8.268,-0.834 v 0 c -11.053,-1.627 -21.898,-5.469 -31.518,-11.22 v 0 c -9.634,-5.733 -18.033,-13.335 -24.591,-22.018 v 0 c -6.568,-8.679 -11.313,-18.417 -14.035,-28.287 v 0 c -2.722,-9.865 -3.546,-19.85 -2.774,-29.018 v 0 c 0.65,-9.296 2.974,-17.794 6.024,-25.182 v 0 c 3.061,-7.397 6.923,-13.659 10.873,-18.737 v 0 c 3.952,-5.09 7.984,-8.997 11.438,-12.008 v 0 c 1.793,-1.437 3.326,-2.789 4.807,-3.783 v 0 c 1.451,-1.026 2.646,-1.947 3.708,-2.566 v 0 c 2.069,-1.299 3.173,-1.993 3.173,-1.993 v 0 c 0,0 -1.049,0.771 -3.018,2.215 v 0 c -1.95,1.46 -4.719,3.732 -7.967,6.89 v 0 c -3.189,3.215 -6.857,7.329 -10.332,12.547 v 0 c -3.476,5.204 -6.748,11.509 -9.149,18.757 v 0 c -2.392,7.232 -3.986,15.427 -3.96,24.043 v 0 c -0.102,8.708 1.348,17.751 4.46,26.531 v 0 c 3.117,8.767 8.02,17.161 14.379,24.403 v 0 c 6.349,7.248 14.17,13.319 22.792,17.633 v 0 c 8.616,4.331 18.011,6.88 27.332,7.562 v 0 c 1.187,0.135 2.254,0.111 3.367,0.17 v 0 c 1.026,0.067 2.374,0.03 3.635,0.019 v 0 l 0.954,-0.01 0.476,-0.005 0.237,-0.003 c -0.342,-0.007 -0.033,-0.005 -0.082,-0.01 v 0 l 0.108,-0.007 1.721,-0.114 1.714,-0.11 1.699,-0.194 c 4.521,-0.508 8.914,-1.429 13.103,-2.709 v 0 c 8.391,-2.55 15.893,-6.628 22.201,-11.412 v 0 c 6.34,-4.771 11.387,-10.382 15.306,-15.961 v 0 c 3.871,-5.631 6.637,-11.257 8.433,-16.433 v 0 c 1.828,-5.17 2.802,-9.842 3.322,-13.707 v 0 c 0.309,-1.926 0.375,-3.674 0.528,-5.173 v 0 c 0.021,-0.693 0.039,-1.332 0.056,-1.919 v 0 c 0.011,-0.292 0.021,-0.571 0.031,-0.837 v 0 c 0.014,-0.256 0.024,-0.507 0.015,-0.84 v 0 c -0.027,-2.442 -0.041,-3.746 -0.041,-3.746 v 0 l 12.07,0.306 12.068,0.305 c 0,0 -0.079,1.301 -0.229,3.739 v 0 c -0.012,0.278 -0.049,0.671 -0.093,1.092 v 0 c -0.042,0.414 -0.085,0.85 -0.131,1.306 v 0 c -0.097,0.909 -0.202,1.902 -0.317,2.974 v 0 c -0.333,2.006 -0.621,4.319 -1.209,6.864 v 0 c -1.076,5.099 -2.831,11.213 -5.739,17.829 v 0 c -2.874,6.622 -7.013,13.69 -12.53,20.549 v 0 c -5.561,6.813 -12.516,13.437 -20.919,18.856 v 0 c -8.366,5.435 -18.083,9.789 -28.613,12.168 v 0 c -5.255,1.196 -10.693,1.924 -16.193,2.138 v 0 l -2.066,0.08 z"
               style="fill:url(#linearGradient366);stroke:none"
               id="path368"
               inkscape:connector-curvature="0" /></g></g></g></g><g
       id="g370"><g
         id="g372"
         clip-path="url(#clipPath376)"><g
           id="g378"
           transform="translate(419.0703,292.8848)"><path
             d="M 0,0 C 0,-0.915 -0.097,-1.807 -0.276,-2.668 12.78,5.384 41.948,24.34 41.948,24.34 c 0,0 -32.757,-9.057 -47.693,-13.552 C -2.279,8.453 0,4.493 0,0"
             style="fill:#740e1e;fill-opacity:1;fill-rule:nonzero;stroke:none"
             id="path380"
             inkscape:connector-curvature="0" /></g><g
           id="g382"
           transform="translate(419.0703,292.8848)"><path
             d="M 0,0 C 0,4.493 -2.279,8.453 -5.745,10.788 -7.817,12.185 -10.313,13 -13,13 -20.18,13 -26,7.18 -26,0 c 0,-7.18 5.82,-13 13,-13 6.265,0 11.492,4.433 12.724,10.332 C -0.097,-1.807 0,-0.915 0,0"
             style="fill:#3a070f;fill-opacity:1;fill-rule:nonzero;stroke:none"
             id="path384"
             inkscape:connector-curvature="0" /></g></g></g><g
       id="g386"><g
         id="g388"
         clip-path="url(#clipPath392)"><g
           id="g394"><g
             id="g396"><path
               d="m 397.208,265.7 c -1.635,-1.43 -2.452,-3.332 -2.452,-5.705 v 0 c 0,-1.507 0.387,-2.734 1.161,-3.68 v 0 c 0.774,-0.948 1.96,-1.64 3.559,-2.078 v 0 l 2.153,-0.595 c 1.152,-0.326 1.898,-0.645 2.238,-0.955 v 0 c 0.341,-0.311 0.512,-0.746 0.512,-1.306 v 0 c 0,-0.855 -0.379,-1.558 -1.138,-2.108 v 0 c -0.758,-0.549 -1.744,-0.824 -2.955,-0.824 v 0 c -1.121,0 -2.256,0.192 -3.407,0.579 v 0 c -1.15,0.388 -2.332,0.973 -3.543,1.757 v 0 l -0.84,-4.963 c 1.252,-0.541 2.537,-0.948 3.857,-1.223 v 0 c 1.318,-0.275 2.639,-0.413 3.963,-0.413 v 0 c 2.851,0 5.121,0.75 6.812,2.247 v 0 c 1.691,1.495 2.536,3.482 2.536,5.956 v 0 c 0,1.527 -0.423,2.772 -1.267,3.734 v 0 c -0.846,0.963 -2.18,1.698 -4.003,2.207 v 0 l -2.169,0.595 c -1.018,0.276 -1.69,0.558 -2.016,0.848 v 0 c -0.326,0.291 -0.488,0.696 -0.488,1.215 v 0 c 0,0.815 0.369,1.451 1.107,1.909 v 0 c 0.738,0.458 1.769,0.688 3.093,0.688 v 0 c 0.957,0 1.939,-0.141 2.947,-0.42 v 0 c 1.009,-0.28 2.033,-0.706 3.07,-1.276 v 0 l 0.856,4.827 c -1.212,0.377 -2.4,0.659 -3.566,0.848 v 0 c -1.167,0.188 -2.305,0.281 -3.414,0.281 v 0 c -2.77,0 -4.972,-0.714 -6.606,-2.145 m 73.8,1.733 -4.003,-22.803 h 5.576 c 3.319,0 5.778,0.234 7.377,0.702 v 0 c 1.599,0.469 3.004,1.258 4.216,2.368 v 0 c 1.385,1.243 2.459,2.777 3.223,4.605 v 0 c 0.763,1.828 1.145,3.775 1.145,5.843 v 0 c 0,1.486 -0.224,2.817 -0.672,3.993 v 0 c -0.448,1.177 -1.115,2.176 -2,3.002 v 0 c -0.887,0.825 -1.994,1.413 -3.323,1.763 v 0 c -1.33,0.352 -3.322,0.527 -5.98,0.527 v 0 z m 4.536,-4.444 h 1.848 c 1.853,0 3.248,-0.453 4.185,-1.359 v 0 c 0.936,-0.906 1.405,-2.246 1.405,-4.018 v 0 c 0,-2.617 -0.717,-4.694 -2.154,-6.231 v 0 c -1.436,-1.538 -3.385,-2.307 -5.849,-2.307 v 0 h -1.909 z m -22.514,4.444 -4.002,-22.803 h 14.586 l 0.749,4.444 h -9.271 l 0.916,5.224 h 8.432 l 0.809,4.445 h -8.462 l 0.749,4.246 h 8.981 l 0.779,4.444 z m -17.978,0 -4.002,-22.803 h 14.586 l 0.749,4.444 h -9.272 l 0.917,5.224 h 8.431 l 0.809,4.445 h -8.461 l 0.748,4.246 h 8.981 l 0.78,4.444 z m -19.369,0 -4.002,-22.803 h 5.284 l 1.375,7.912 h 3.498 c 1.7,0 3.115,0.195 4.246,0.588 v 0 c 1.13,0.392 2.103,1.02 2.917,1.886 v 0 c 0.743,0.804 1.319,1.744 1.726,2.818 v 0 c 0.407,1.074 0.611,2.207 0.611,3.398 v 0 c 0,1.945 -0.609,3.465 -1.826,4.56 v 0 c -1.216,1.094 -2.899,1.641 -5.047,1.641 v 0 z m 4.551,-4.261 h 2.902 c 0.896,0 1.578,-0.219 2.046,-0.656 v 0 c 0.468,-0.439 0.702,-1.07 0.702,-1.895 v 0 c 0,-1.242 -0.327,-2.19 -0.983,-2.84 v 0 c -0.658,-0.652 -1.612,-0.979 -2.865,-0.979 v 0 h -2.917 z"
               style="fill:url(#linearGradient410);stroke:none"
               id="path412"
               inkscape:connector-curvature="0" /></g></g></g></g></g></svg>