<?xml version="1.0" encoding="UTF-8" standalone="no"?>
<!-- Created with Inkscape (http://www.inkscape.org/) -->

<svg
   xmlns:dc="http://purl.org/dc/elements/1.1/"
   xmlns:cc="http://creativecommons.org/ns#"
   xmlns:rdf="http://www.w3.org/1999/02/22-rdf-syntax-ns#"
   xmlns:svg="http://www.w3.org/2000/svg"
   xmlns="http://www.w3.org/2000/svg"
   xmlns:sodipodi="http://sodipodi.sourceforge.net/DTD/sodipodi-0.dtd"
   xmlns:inkscape="http://www.inkscape.org/namespaces/inkscape"
   version="1.1"
   id="svg2"
   xml:space="preserve"
   width="666.66669"
   height="666.66669"
   viewBox="0 0 666.66669 666.66669"
   sodipodi:docname="app_development.svg"
   inkscape:version="0.92.3 (unknown)"><metadata
     id="metadata8"><rdf:RDF><cc:Work
         rdf:about=""><dc:format>image/svg+xml</dc:format><dc:type
           rdf:resource="http://purl.org/dc/dcmitype/StillImage" /><dc:title></dc:title></cc:Work></rdf:RDF></metadata><defs
     id="defs6"><clipPath
       clipPathUnits="userSpaceOnUse"
       id="clipPath20"><path
         d="M 0,500 H 500 V 0 H 0 Z"
         id="path18"
         inkscape:connector-curvature="0" /></clipPath><clipPath
       clipPathUnits="userSpaceOnUse"
       id="clipPath348"><path
         d="M 0,500 H 500 V 0 H 0 Z"
         id="path346"
         inkscape:connector-curvature="0" /></clipPath></defs><sodipodi:namedview
     pagecolor="#ffffff"
     bordercolor="#666666"
     borderopacity="1"
     objecttolerance="10"
     gridtolerance="10"
     guidetolerance="10"
     inkscape:pageopacity="0"
     inkscape:pageshadow="2"
     inkscape:window-width="1366"
     inkscape:window-height="705"
     id="namedview4"
     showgrid="false"
     inkscape:zoom="0.35399999"
     inkscape:cx="333.33334"
     inkscape:cy="333.33334"
     inkscape:window-x="0"
     inkscape:window-y="24"
     inkscape:window-maximized="1"
     inkscape:current-layer="g10" /><g
     id="g10"
     inkscape:groupmode="layer"
     inkscape:label="346981-PB2UAD-55"
     transform="matrix(1.3333333,0,0,-1.3333333,0,666.66667)"><path
       d="M 0,0 H 500 V 500 H 0 Z"
       style="fill:#ff9b80;fill-opacity:1;fill-rule:nonzero;stroke:none"
       id="path12"
       inkscape:connector-curvature="0" /><g
       id="g14"><g
         id="g16"
         clip-path="url(#clipPath20)"><g
           id="g22"
           transform="translate(0,77.043)"><path
             d="m 0,0 h 500 v 59.148 c -0.979,2.233 -1.922,3.743 -2.784,4.254 -6.095,-3.617 -11.435,-1.401 -11.435,-7.73 -8.126,15.372 -14.486,29.435 -22.612,5.021 -4.063,14.468 -3.288,77.01 -30.713,65.255 C 410.109,116.002 411.894,61.595 407.83,44.413 395.642,64.307 386.5,57.073 371.264,42.604 344.216,78.293 338.438,34.331 320.245,29.674 305.009,35.1 305.152,60.522 289.916,55.097 281.791,52.384 274.77,31.754 265.627,32.658 c -5.079,0.904 -9.142,9.042 -14.22,10.852 -14.22,2.712 -20.315,-5.427 -28.44,-13.565 -9.143,12.659 -14.221,36.17 -33.521,39.787 -18.282,4.521 -29.456,-10.851 -38.597,-20.797 -12.189,22.606 -21.33,51.542 -38.598,72.34 C 84.826,153.828 47.243,99.573 48.26,75.158 37.087,111.328 26.929,56.168 27.944,44.413 16.771,57.073 15.756,34.467 16.771,27.232 10.963,33.265 4.884,29.826 0,23.4 Z"
             style="fill:#f28670;fill-opacity:1;fill-rule:nonzero;stroke:none"
             id="path24"
             inkscape:connector-curvature="0" /></g><g
           id="g26"
           transform="translate(34.1729,434.1211)"><path
             d="m 0,0 c 0,0 3.783,0.309 5.549,0.923 2.018,1.024 2.523,2.05 4.793,2.666 1.513,0.411 3.28,-0.82 4.541,-0.41 1.766,0.615 2.018,2.665 3.028,3.485 4.288,3.486 7.064,1.438 11.1,-1.229 3.278,4.306 0,10.868 7.062,13.329 6.561,2.257 15.137,-3.896 16.651,-8.409 -0.252,4.922 2.523,13.946 10.343,13.331 6.558,-0.821 9.081,-7.587 11.099,-11.485 4.541,1.438 7.821,-5.537 7.064,-8.407 4.289,1.435 10.847,0.82 11.352,-3.691 z"
             style="fill:#ffb9a9;fill-opacity:1;fill-rule:nonzero;stroke:none"
             id="path28"
             inkscape:connector-curvature="0" /></g><g
           id="g30"
           transform="translate(325.3516,354.4951)"><path
             d="m 0,0 c 0,0 2.534,0.192 3.717,0.577 1.351,0.641 1.689,1.282 3.211,1.667 1.013,0.257 2.196,-0.513 3.041,-0.257 1.183,0.385 1.351,1.667 2.028,2.18 2.872,2.18 4.732,0.898 7.435,-0.769 2.196,2.693 0,6.796 4.731,8.335 4.394,1.412 10.139,-2.436 11.152,-5.257 -0.169,3.077 1.69,8.72 6.929,8.335 4.393,-0.513 6.082,-4.745 7.434,-7.181 3.042,0.898 5.239,-3.463 4.731,-5.258 2.873,0.899 7.267,0.514 7.604,-2.308 z"
             style="fill:#ffb9a9;fill-opacity:1;fill-rule:nonzero;stroke:none"
             id="path32"
             inkscape:connector-curvature="0" /></g><g
           id="g34"
           transform="translate(452.6582,409.3389)"><path
             d="m 0,0 c -11.025,0 -14.032,6.874 -17.29,7.811 -1.753,0.625 -4.76,-2.1 -6.515,-1.163 -4.76,2.499 -4.259,10.223 -10.774,8.037 -2.506,-0.938 -3.758,-2.812 -6.014,-1.874 -2.004,0.936 -3.759,5.623 -6.013,6.873 -5.513,2.812 -10.024,-3.124 -11.777,-9.373 -5.012,3.749 -13.03,0 -15.536,-6.249 C -77.928,6.249 -82.021,8.123 -84.276,0 Z"
             style="fill:#ffb9a9;fill-opacity:1;fill-rule:nonzero;stroke:none"
             id="path36"
             inkscape:connector-curvature="0" /></g><g
           id="g38"
           transform="translate(338.9268,123.6377)"><path
             d="m 0,0 c 0,-6.966 -5.646,-12.613 -12.612,-12.613 h -156.626 c -6.967,0 -12.616,5.647 -12.616,12.613 v 303.789 c 0,6.969 5.649,12.615 12.616,12.615 H -12.612 C -5.646,316.404 0,310.758 0,303.789 Z"
             style="fill:#ffffff;fill-opacity:1;fill-rule:nonzero;stroke:none"
             id="path40"
             inkscape:connector-curvature="0" /></g><g
           id="g42"
           transform="translate(331.6953,150.7168)"><path
             d="m 0,0 c 0,-6.411 -5.197,-11.609 -11.609,-11.609 h -144.17 c -6.413,0 -11.612,5.198 -11.612,11.609 v 251.63 c 0,6.416 5.199,11.612 11.612,11.612 h 144.17 C -5.197,263.242 0,258.046 0,251.63 Z"
             style="fill:#ffb9a9;fill-opacity:1;fill-rule:nonzero;stroke:none"
             id="path44"
             inkscape:connector-curvature="0" /></g><g
           id="g46"
           transform="translate(265.583,423.2852)"><path
             d="m 0,0 h -55.072 c -1.408,0 -2.55,1.142 -2.55,2.55 0,1.408 1.142,2.55 2.55,2.55 H 0 C 1.408,5.1 2.55,3.958 2.55,2.55 2.55,1.142 1.408,0 0,0"
             style="fill:#ff9b80;fill-opacity:1;fill-rule:nonzero;stroke:none"
             id="path48"
             inkscape:connector-curvature="0" /></g><g
           id="g50"
           transform="translate(285.4893,423.2852)"><path
             d="m 0,0 h -6.087 c -1.408,0 -2.55,1.142 -2.55,2.55 0,1.408 1.142,2.55 2.55,2.55 H 0 C 1.408,5.1 2.55,3.958 2.55,2.55 2.55,1.142 1.408,0 0,0"
             style="fill:#ff9b80;fill-opacity:1;fill-rule:nonzero;stroke:none"
             id="path52"
             inkscape:connector-curvature="0" /></g><g
           id="g54"
           transform="translate(271.0645,120.1016)"><path
             d="m 0,0 h -46.129 c -2.473,0 -4.478,2.005 -4.478,4.479 0,2.473 2.005,4.479 4.478,4.479 H 0 C 2.473,8.958 4.479,6.952 4.479,4.479 4.479,2.005 2.473,0 0,0"
             style="fill:#ff9b80;fill-opacity:1;fill-rule:nonzero;stroke:none"
             id="path56"
             inkscape:connector-curvature="0" /></g><g
           id="g58"
           transform="translate(126.6807,382.9141)"><path
             d="m 0,0 c 0.833,3 -1.334,10 -5.834,9.167 -2.666,-0.5 -4.4,-2.5 -6.734,-3.166 -2.833,-0.834 -3.516,0.5 -6.183,1 -3.166,0.667 -6.231,-2.678 -6.231,-6.012 0,-3.5 2.982,-2.322 2.315,-5.822 -0.333,-2.5 -3.333,-5.167 -2.5,-8 0.833,-2.667 4.333,-1.5 5.167,-3.667 0.5,-1.833 -2.834,-4 -3,-6 -0.334,-4.333 5,-5.333 8.166,-6.166 5.667,-1.334 6.5,1 9.5,4.833 3.334,4.333 2,6.833 2.834,11.833 0.333,1.834 0.333,4 0.666,5.667 0.5,1.5 1.667,2 1.167,3.667 z"
             style="fill:#db543a;fill-opacity:1;fill-rule:nonzero;stroke:none"
             id="path60"
             inkscape:connector-curvature="0" /></g><g
           id="g62"
           transform="translate(99.874,321.7773)"><path
             d="m 0,0 -2.859,20.47 13.044,19.599 27.318,0.2 15.837,3.654 20.199,9.891 2.517,-1.593 L 56.289,37.379 38.653,31.099 34.907,2.658 H 14.981 l -3.725,25.94 -6.784,-11.128 -1.74,-19 z"
             style="fill:#ffaea6;fill-opacity:1;fill-rule:nonzero;stroke:none"
             id="path64"
             inkscape:connector-curvature="0" /></g><g
           id="g66"
           transform="translate(116.8545,361.9102)"><path
             d="M 0,0 6.33,-9.906 12.657,0 Z"
             style="fill:#ffaea6;fill-opacity:1;fill-rule:nonzero;stroke:none"
             id="path68"
             inkscape:connector-curvature="0" /></g><g
           id="g70"
           transform="translate(120.998,365.2881)"><path
             d="m 0,0 7.793,1.571 0.453,6.741 1.476,1.287 -1.476,1.29 -2.143,7.726 -7.656,-3.889 0.53,-4.402 -1.016,-0.407 c 0,0 -1.962,2.184 -2.775,1.174 -0.847,-1.051 0.211,-2.362 1.641,-3.098 L -4.157,4.357 Z"
             style="fill:#ffaea6;fill-opacity:1;fill-rule:nonzero;stroke:none"
             id="path72"
             inkscape:connector-curvature="0" /></g><path
           d="m 126.239,357.915 h -5.264 v 9.311 h 5.264 z"
           style="fill:#ffaea6;fill-opacity:1;fill-rule:nonzero;stroke:none"
           id="path74"
           inkscape:connector-curvature="0" /><g
           id="g76"
           transform="translate(127.8516,236.1152)"><path
             d="m 0,0 h 12.646 c 0,0 -5.643,0.89 -8.362,6.367 H 0 Z"
             style="fill:#ffffff;fill-opacity:1;fill-rule:nonzero;stroke:none"
             id="path78"
             inkscape:connector-curvature="0" /></g><g
           id="g80"
           transform="translate(121.6826,236.1152)"><path
             d="m 0,0 h -12.643 c 0,0 5.641,0.89 8.36,6.367 H 0 Z"
             style="fill:#ffffff;fill-opacity:1;fill-rule:nonzero;stroke:none"
             id="path82"
             inkscape:connector-curvature="0" /></g><g
           id="g84"
           transform="translate(124.7676,313.0342)"><path
             d="m 0,0 -3.085,-70.552 h -4.283 c 0,0 -8.094,56.324 -7.389,69.392 0.446,8.251 4.741,12.561 4.741,12.561 h 20.03 c 0,0 4.297,-4.31 4.744,-12.561 0.706,-13.068 -7.39,-69.392 -7.39,-69.392 H 3.084 Z"
             style="fill:#1b89af;fill-opacity:1;fill-rule:nonzero;stroke:none"
             id="path86"
             inkscape:connector-curvature="0" /></g><g
           id="g88"
           transform="translate(175.9297,373.998)"><path
             d="m 0,0 c 1.548,1.27 0.451,2.434 0.451,2.434 0,0 1.786,4.837 1.478,4.993 C 1.507,7.64 -2.517,1.594 -2.517,1.594 Z"
             style="fill:#ffaea6;fill-opacity:1;fill-rule:nonzero;stroke:none"
             id="path90"
             inkscape:connector-curvature="0" /></g><g
           id="g92"
           transform="translate(126.2393,366.3437)"><path
             d="m 0,0 v -0.453 l -5.264,-2.395 v 1.815 z"
             style="fill:#efa3a3;fill-opacity:1;fill-rule:nonzero;stroke:none"
             id="path94"
             inkscape:connector-curvature="0" /></g><g
           id="g96"
           transform="translate(110.0586,361.8467)"><path
             d="m 0,0 27.318,0.199 c 0,0 -2.89,-4.361 1.151,-9.17 l -3.746,-28.44 H 4.693 l -3.622,25.939 c 0,0 2.45,6.58 -1.071,11.472"
             style="fill:#ffffff;fill-opacity:1;fill-rule:nonzero;stroke:none"
             id="path98"
             inkscape:connector-curvature="0" /></g><g
           id="g100"
           transform="translate(98.877,318.1113)"><path
             d="m 0,0 h 3.609 v -261.966 h -6.24 z"
             style="fill:#db543a;fill-opacity:1;fill-rule:nonzero;stroke:none"
             id="path102"
             inkscape:connector-curvature="0" /></g><g
           id="g104"
           transform="translate(149.6191,318.1113)"><path
             d="m 0,0 h -3.611 v -261.966 h 6.24 z"
             style="fill:#db543a;fill-opacity:1;fill-rule:nonzero;stroke:none"
             id="path106"
             inkscape:connector-curvature="0" /></g><path
           d="m 148.562,310.665 h -48.63 v 2.75 h 48.63 z"
           style="fill:#db543a;fill-opacity:1;fill-rule:nonzero;stroke:none"
           id="path108"
           inkscape:connector-curvature="0" /><path
           d="m 99.819,274.765 h 48.857 v -2.749 H 99.819 Z"
           style="fill:#db543a;fill-opacity:1;fill-rule:nonzero;stroke:none"
           id="path110"
           inkscape:connector-curvature="0" /><path
           d="m 99.704,236.115 h 49.087 v -2.749 H 99.704 Z"
           style="fill:#db543a;fill-opacity:1;fill-rule:nonzero;stroke:none"
           id="path112"
           inkscape:connector-curvature="0" /><path
           d="m 99.59,197.466 h 49.314 v -2.75 H 99.59 Z"
           style="fill:#db543a;fill-opacity:1;fill-rule:nonzero;stroke:none"
           id="path114"
           inkscape:connector-curvature="0" /><path
           d="m 99.477,158.816 h 49.543 v -2.751 H 99.477 Z"
           style="fill:#db543a;fill-opacity:1;fill-rule:nonzero;stroke:none"
           id="path116"
           inkscape:connector-curvature="0" /><path
           d="m 99.362,120.166 h 49.771 v -2.749 H 99.362 Z"
           style="fill:#db543a;fill-opacity:1;fill-rule:nonzero;stroke:none"
           id="path118"
           inkscape:connector-curvature="0" /><path
           d="m 149.248,78.767 h -50 v 2.75 h 50 z"
           style="fill:#db543a;fill-opacity:1;fill-rule:nonzero;stroke:none"
           id="path120"
           inkscape:connector-curvature="0" /><g
           id="g122"
           transform="translate(102.4863,318.1113)"><path
             d="m 0,0 -21.307,-261.966 h -4 L -3.609,0 Z"
             style="fill:#db543a;fill-opacity:1;fill-rule:nonzero;stroke:none"
             id="path124"
             inkscape:connector-curvature="0" /></g><g
           id="g126"
           transform="translate(149.3135,318.1113)"><path
             d="m 0,0 -21.307,-261.966 h -4 L -3.609,0 Z"
             style="fill:#db543a;fill-opacity:1;fill-rule:nonzero;stroke:none"
             id="path128"
             inkscape:connector-curvature="0" /></g><g
           id="g130"
           transform="translate(102.6064,320.2471)"><path
             d="m 0,0 c 2.274,-3.855 -1.099,-2.108 -1.099,-2.108 0,0 -3.186,-3.703 -4.197,-3.126 -1.388,0.796 2.564,6.764 2.564,6.764 z"
             style="fill:#ffaea6;fill-opacity:1;fill-rule:nonzero;stroke:none"
             id="path132"
             inkscape:connector-curvature="0" /></g><g
           id="g134"
           transform="translate(207.5127,137.748)"><path
             d="m 0,0 c -2.833,5 -11.833,8 -11.833,0.166 -0.167,-3.166 0.167,-4 -2.167,-6 -1.833,-1.5 -4.166,-2.5 -4,-5.333 0.334,-2.667 3.334,-3.333 3.667,-5.833 0.5,-2.667 -2.5,-3.834 -2.833,-6.167 -0.167,-2.167 1.666,-4.167 2.333,-6.333 0.833,-3.334 1.833,-6.5 6,-5.5 l 17,3.5 c 4.167,-1.667 6.333,2.5 6.333,5.833 -0.166,3 -0.666,4 1.167,6.667 1.667,2.666 3.667,4.166 2.167,7.666 -0.334,1 -1.667,1.834 -1.834,3 -0.166,1.334 1,2.167 1.167,3.334 0.5,3.666 -2,5 -5.167,5.833 C 10.667,1.333 9.5,1.166 8.334,2 7.5,2.666 7.667,4 6.5,4.5 3.334,6 0.5,2 0,0"
             style="fill:#db543a;fill-opacity:1;fill-rule:nonzero;stroke:none"
             id="path136"
             inkscape:connector-curvature="0" /></g><g
           id="g138"
           transform="translate(190.7012,69.9082)"><path
             d="M 0,0 H 36.34 V -6.931 L 18.169,-14.106 0,-6.679 Z"
             style="fill:#ffffff;fill-opacity:1;fill-rule:nonzero;stroke:none"
             id="path140"
             inkscape:connector-curvature="0" /></g><g
           id="g142"
           transform="translate(225.8164,110.373)"><path
             d="m 0,0 v 0 l 10.364,2.573 11.326,19.615 2.716,-3.185 -9.875,-23.18 -14.75,-5.689 -0.166,-36.275 -32.804,0.616 -0.449,8.663 -10.538,5.519 -0.968,3.207 10.082,27.856 z"
             style="fill:#1b89af;fill-opacity:1;fill-rule:nonzero;stroke:none"
             id="path144"
             inkscape:connector-curvature="0" /></g><g
           id="g146"
           transform="translate(211.8857,109.9229)"><path
             d="m 0,0 -0.091,6.324 -7.347,0.373 0.095,-6.794 c 0,0 3.636,-5.172 7.343,0.097"
             style="fill:#ffaea6;fill-opacity:1;fill-rule:nonzero;stroke:none"
             id="path148"
             inkscape:connector-curvature="0" /></g><g
           id="g150"
           transform="translate(204.5527,111.9434)"><path
             d="M 0,0 7.302,1.485 7.242,4.304 -0.105,4.677 Z"
             style="fill:#efa3a3;fill-opacity:1;fill-rule:nonzero;stroke:none"
             id="path152"
             inkscape:connector-curvature="0" /></g><g
           id="g154"
           transform="translate(217.6338,128.0254)"><path
             d="m 0,0 -3.416,-10.806 -5.748,-3.265 -6.259,3.138 -3.414,10.229 c 0,0 6.42,0.745 9.245,3.785 0,0 -1.953,-2.664 -7.486,-4.355 0,0 6.495,0.366 9.217,4.239 0,0 3.026,-2.728 7.861,-2.965"
             style="fill:#ffaea6;fill-opacity:1;fill-rule:nonzero;stroke:none"
             id="path156"
             inkscape:connector-curvature="0" /></g><g
           id="g158"
           transform="translate(200.0684,125.498)"><path
             d="m 0,0 c 0,0 -2.417,0.545 -2.16,-1.227 0.334,-2.241 3.571,-3.335 3.571,-3.335 z"
             style="fill:#ffaea6;fill-opacity:1;fill-rule:nonzero;stroke:none"
             id="path160"
             inkscape:connector-curvature="0" /></g><g
           id="g162"
           transform="translate(216.0557,125.498)"><path
             d="m 0,0 c 0,0 2.417,0.545 2.159,-1.227 -0.333,-2.241 -3.57,-3.335 -3.57,-3.335 z"
             style="fill:#ffaea6;fill-opacity:1;fill-rule:nonzero;stroke:none"
             id="path164"
             inkscape:connector-curvature="0" /></g><g
           id="g166"
           transform="translate(209.9551,120.8193)"><path
             d="M 0,0 C 0.099,0.066 0.197,0.133 0.283,0.19 0.122,0.325 -0.035,0.457 -0.189,0.586 L -0.413,0.768 -0.545,0.865 C -0.698,0.973 -0.846,1.067 -0.984,1.146 -1.26,1.303 -1.498,1.396 -1.666,1.412 -1.627,1.248 -1.502,1.024 -1.309,0.772 -1.213,0.646 -1.1,0.513 -0.972,0.376 -0.947,0.348 -0.891,0.293 -0.89,0.286 L -0.893,0.275 C -0.896,0.27 -0.901,0.269 -0.904,0.269 H -0.908 C -0.918,0.262 -0.881,0.283 -0.928,0.246 -1.015,0.181 -1.099,0.117 -1.18,0.055 -1.341,-0.073 -1.485,-0.2 -1.61,-0.321 c -0.249,-0.244 -0.421,-0.467 -0.484,-0.636 0.18,-0.007 0.452,0.065 0.773,0.201 0.16,0.069 0.333,0.152 0.513,0.251 0.089,0.051 0.181,0.105 0.274,0.158 C -0.36,-0.233 -0.182,-0.118 0,0"
             style="fill:#ff9b97;fill-opacity:1;fill-rule:nonzero;stroke:none"
             id="path168"
             inkscape:connector-curvature="0" /></g><g
           id="g170"
           transform="translate(226.8916,73.54)"><path
             d="m 0,0 15.479,4.691 6.283,-1.744 0.246,-12.093 -45.034,-16.168 -2.444,5.372 20.51,10.823 z"
             style="fill:#ffffff;fill-opacity:1;fill-rule:nonzero;stroke:none"
             id="path172"
             inkscape:connector-curvature="0" /></g><g
           id="g174"
           transform="translate(222.7417,64.6777)"><path
             d="m 0,0 c -6.107,-3.059 -11.228,-5.792 -13.114,-6.973 2.075,0.803 7.332,3.266 13.439,6.324 C 6.433,2.409 11.553,5.143 13.439,6.324 11.364,5.521 6.107,3.059 0,0"
             style="fill:#e5cfd3;fill-opacity:1;fill-rule:nonzero;stroke:none"
             id="path176"
             inkscape:connector-curvature="0" /></g><g
           id="g178"
           transform="translate(201.4219,53.5977)"><path
             d="m 0,0 -3.902,-2.993 -1.675,-13.173 8.02,10.794 z"
             style="fill:#ffffff;fill-opacity:1;fill-rule:nonzero;stroke:none"
             id="path180"
             inkscape:connector-curvature="0" /></g><g
           id="g182"
           transform="translate(192.8682,73.29)"><path
             d="m 0,0 -15.48,4.691 -6.282,-1.747 -0.246,-12.092 45.033,-16.169 2.442,5.372 -20.509,10.824 z"
             style="fill:#ffffff;fill-opacity:1;fill-rule:nonzero;stroke:none"
             id="path184"
             inkscape:connector-curvature="0" /></g><g
           id="g186"
           transform="translate(200.7939,61.7227)"><path
             d="M 0,0 C 7.994,-4.004 14.854,-7.269 17.541,-8.379 15.042,-6.891 8.319,-3.354 0.325,0.648 -7.669,4.652 -14.528,7.917 -17.216,9.025 -14.717,7.539 -7.994,4.003 0,0"
             style="fill:#e5cfd3;fill-opacity:1;fill-rule:nonzero;stroke:none"
             id="path188"
             inkscape:connector-curvature="0" /></g><g
           id="g190"
           transform="translate(218.335,53.3447)"><path
             d="M 0,0 3.904,-2.99 5.58,-16.163 -2.441,-5.372 Z"
             style="fill:#ffffff;fill-opacity:1;fill-rule:nonzero;stroke:none"
             id="path192"
             inkscape:connector-curvature="0" /></g><g
           id="g194"
           transform="translate(202.7979,110.1875)"><path
             d="m 0,0 c 0,0 2.388,-10.575 5.273,-10.575 2.778,0 5.359,10.761 5.359,10.761 z"
             style="fill:#ffaea6;fill-opacity:1;fill-rule:nonzero;stroke:none"
             id="path196"
             inkscape:connector-curvature="0" /></g><g
           id="g198"
           transform="translate(193.6719,95.4434)"><path
             d="m 0,0 c -0.788,-2.399 -1.265,-4.5 -1.253,-5.366 0.523,0.69 1.385,2.665 2.173,5.063 0.788,2.4 1.265,4.5 1.252,5.366 C 1.65,4.373 0.788,2.398 0,0"
             style="fill:#22adc2;fill-opacity:1;fill-rule:nonzero;stroke:none"
             id="path200"
             inkscape:connector-curvature="0" /></g><g
           id="g202"
           transform="translate(226.8984,64.2324)"><path
             d="m 0,0 h -37.059 l -3.797,25.317 43.481,2.784 z"
             style="fill:#666666;fill-opacity:1;fill-rule:nonzero;stroke:none"
             id="path204"
             inkscape:connector-curvature="0" /></g><g
           id="g206"
           transform="translate(210.8486,77.9795)"><path
             d="m 0,0 c 0,-1.691 -1.375,-3.063 -3.064,-3.063 -1.694,0 -3.067,1.372 -3.067,3.063 0,1.691 1.373,3.064 3.067,3.064 C -1.375,3.064 0,1.691 0,0"
             style="fill:#ffffff;fill-opacity:1;fill-rule:nonzero;stroke:none"
             id="path208"
             inkscape:connector-curvature="0" /></g><g
           id="g210"
           transform="translate(247.5068,132.5615)"><path
             d="m 0,0 c 7.601,6.106 4.966,0.689 4.966,0.689 0,0 5.731,-0.395 5.625,-1.625 -0.149,-1.691 -7.875,-2.179 -7.875,-2.179 z"
             style="fill:#ffaea6;fill-opacity:1;fill-rule:nonzero;stroke:none"
             id="path212"
             inkscape:connector-curvature="0" /></g><g
           id="g214"
           transform="translate(360.7852,199.5947)"><path
             d="M 0,0 1.982,7.986 8.396,9.319 5.896,6.653 9.396,6.319 6.562,4.66 17.235,-8.68 6.187,-17.28 c 0,0 -7.512,11.942 -6.187,17.28"
             style="fill:#1b89af;fill-opacity:1;fill-rule:nonzero;stroke:none"
             id="path216"
             inkscape:connector-curvature="0" /></g><g
           id="g218"
           transform="translate(331.6709,217.2783)"><path
             d="m 0,0 -1.298,3.304 -3.406,-1.253 0.969,-4.837 3.297,0.298 C 3.184,0.37 0,0 0,0"
             style="fill:#ffaea6;fill-opacity:1;fill-rule:nonzero;stroke:none"
             id="path220"
             inkscape:connector-curvature="0" /></g><g
           id="g222"
           transform="translate(347.5146,137.7871)"><path
             d="m 0,0 -7.206,-84.411 h 4.935 l 16.764,69.935 14.226,-69.935 h 4.933 L 29.506,0 Z"
             style="fill:#db543a;fill-opacity:1;fill-rule:nonzero;stroke:none"
             id="path224"
             inkscape:connector-curvature="0" /></g><g
           id="g226"
           transform="translate(373.7578,177.4844)"><path
             d="M 0,0 9.964,7.707 18.74,37.306 22.037,37.008 18.575,0.783 2.256,-11.236 3.263,-39.697 h -29.506 l -0.168,27.795 -18.041,12.971 -1.37,35.939 3.297,0.298 7.111,-29.514 10.942,-8.32 z"
             style="fill:#ffaea6;fill-opacity:1;fill-rule:nonzero;stroke:none"
             id="path228"
             inkscape:connector-curvature="0" /></g><g
           id="g230"
           transform="translate(347.3467,165.582)"><path
             d="m 0,0 -5.333,3.835 2.31,11.312 4.962,-3.773 24.472,0.528 4.263,3.298 4.919,-9.433 -6.926,-5.101 1.007,-28.461 H 0.168 Z"
             style="fill:#1b89af;fill-opacity:1;fill-rule:nonzero;stroke:none"
             id="path232"
             inkscape:connector-curvature="0" /></g><g
           id="g234"
           transform="translate(392.0586,217.2783)"><path
             d="M 0,0 1.299,3.304 4.705,2.051 3.736,-2.786 0.439,-2.488 C -3.184,0.37 0,0 0,0"
             style="fill:#ffaea6;fill-opacity:1;fill-rule:nonzero;stroke:none"
             id="path236"
             inkscape:connector-curvature="0" /></g><g
           id="g238"
           transform="translate(364.9551,177.0508)"><path
             d="M 0,0 -0.398,5.264 -5.629,5.18 -5.206,-0.415 c 0,0 3.018,-12.054 5.206,0.415"
             style="fill:#ffaea6;fill-opacity:1;fill-rule:nonzero;stroke:none"
             id="path240"
             inkscape:connector-curvature="0" /></g><g
           id="g242"
           transform="translate(359.5078,179.833)"><path
             d="M 0,0 5.388,-1.998 5.049,2.481 -0.182,2.397 Z"
             style="fill:#efa3a3;fill-opacity:1;fill-rule:nonzero;stroke:none"
             id="path244"
             inkscape:connector-curvature="0" /></g><g
           id="g246"
           transform="translate(364.5225,178.7529)"><path
             d="m 0,0 -10.164,6.247 2.463,5.999 -1.901,1.169 7.092,8.981 7.166,-7.96 -2.441,-3.683 1.14,-0.701 c 0,0 2.458,2.338 3.209,0.631 C 7.054,9.571 5.454,7.196 3.858,7.003 L 2.034,2.544 Z"
             style="fill:#ffaea6;fill-opacity:1;fill-rule:nonzero;stroke:none"
             id="path248"
             inkscape:connector-curvature="0" /></g><g
           id="g250"
           transform="translate(340.3086,53.376)"><path
             d="M 0,0 H 4.935 V -4.255 H -9.539 c 0,0 1.234,3.825 9.539,4.255"
             style="fill:#a53b2d;fill-opacity:1;fill-rule:nonzero;stroke:none"
             id="path252"
             inkscape:connector-curvature="0" /></g><g
           id="g254"
           transform="translate(381.167,53.376)"><path
             d="M 0,0 H -4.934 V -4.255 H 9.539 C 9.539,-4.255 8.305,-0.43 0,0"
             style="fill:#a53b2d;fill-opacity:1;fill-rule:nonzero;stroke:none"
             id="path256"
             inkscape:connector-curvature="0" /></g><g
           id="g258"
           transform="translate(310.3164,373.7754)"><path
             d="m 0,0 c 0,-2.2 -1.8,-4 -4,-4 h -116.633 c -2.2,0 -4,1.8 -4,4 v 19.877 c 0,2.2 1.8,4 4,4 H -4 c 2.2,0 4,-1.8 4,-4 z"
             style="fill:#1b89af;fill-opacity:1;fill-rule:nonzero;stroke:none"
             id="path260"
             inkscape:connector-curvature="0" /></g><g
           id="g262"
           transform="translate(310.3164,156.8516)"><path
             d="m 0,0 c 0,-2.2 -1.8,-4 -4,-4 h -116.633 c -2.2,0 -4,1.8 -4,4 v 32.504 c 0,2.2 1.8,4 4,4 H -4 c 2.2,0 4,-1.8 4,-4 z"
             style="fill:#ff9b80;fill-opacity:1;fill-rule:nonzero;stroke:none"
             id="path264"
             inkscape:connector-curvature="0" /></g><g
           id="g266"
           transform="translate(310.3164,322.3525)"><path
             d="m 0,0 c 0,-1.1 -0.9,-2 -2,-2 h -120.633 c -1.099,0 -2,0.9 -2,2 v 0.124 c 0,1.101 0.901,2 2,2 H -2 c 1.1,0 2,-0.899 2,-2 z"
             style="fill:#ffffff;fill-opacity:1;fill-rule:nonzero;stroke:none"
             id="path268"
             inkscape:connector-curvature="0" /></g><g
           id="g270"
           transform="translate(310.3164,334.1875)"><path
             d="m 0,0 c 0,-1.099 -0.9,-1.999 -2,-1.999 h -120.633 c -1.099,0 -2,0.9 -2,1.999 v 0.124 c 0,1.101 0.901,2 2,2 H -2 c 1.1,0 2,-0.899 2,-2 z"
             style="fill:#ffffff;fill-opacity:1;fill-rule:nonzero;stroke:none"
             id="path272"
             inkscape:connector-curvature="0" /></g><g
           id="g274"
           transform="translate(310.3164,346.0225)"><path
             d="m 0,0 c 0,-1.1 -0.9,-2 -2,-2 h -120.633 c -1.099,0 -2,0.9 -2,2 v 0.124 c 0,1.101 0.901,2 2,2 H -2 c 1.1,0 2,-0.899 2,-2 z"
             style="fill:#ffffff;fill-opacity:1;fill-rule:nonzero;stroke:none"
             id="path276"
             inkscape:connector-curvature="0" /></g><g
           id="g278"
           transform="translate(310.3164,357.8574)"><path
             d="m 0,0 c 0,-1.1 -0.9,-2 -2,-2 h -120.633 c -1.099,0 -2,0.9 -2,2 v 0.124 c 0,1.101 0.901,2 2,2 H -2 c 1.1,0 2,-0.899 2,-2 z"
             style="fill:#ffffff;fill-opacity:1;fill-rule:nonzero;stroke:none"
             id="path280"
             inkscape:connector-curvature="0" /></g><g
           id="g282"
           transform="translate(394.6562,217.5371)"><path
             d="m 0,0 c 2.2,0 4,1.8 4,4 v 17.864 c 0,2.2 -1.8,4 -4,4 h -20.918 c -2.2,0 -4,-1.8 -4,-4 V 4 c 0,-2.2 1.8,-4 4,-4 z"
             style="fill:#ffffff;fill-opacity:1;fill-rule:nonzero;stroke:none"
             id="path284"
             inkscape:connector-curvature="0" /></g><g
           id="g286"
           transform="translate(326.3232,243.4014)"><path
             d="m 0,0 c -2.2,0 -4,-1.8 -4,-4 v -17.864 c 0,-2.2 1.8,-4 4,-4 h 20.918 c 2.2,0 4,1.8 4,4 V -4 c 0,2.2 -1.8,4 -4,4 z"
             style="fill:#db543a;fill-opacity:1;fill-rule:nonzero;stroke:none"
             id="path288"
             inkscape:connector-curvature="0" /></g><g
           id="g290"
           transform="translate(394.6562,251.6104)"><path
             d="m 0,0 c 2.2,0 4,1.8 4,4 v 17.864 c 0,2.2 -1.8,4 -4,4 h -20.918 c -2.2,0 -4,-1.8 -4,-4 V 4 c 0,-2.2 1.8,-4 4,-4 z"
             style="fill:#db543a;fill-opacity:1;fill-rule:nonzero;stroke:none"
             id="path292"
             inkscape:connector-curvature="0" /></g><g
           id="g294"
           transform="translate(326.3232,277.4746)"><path
             d="m 0,0 c -2.2,0 -4,-1.8 -4,-4 v -17.864 c 0,-2.2 1.8,-4 4,-4 h 20.918 c 2.2,0 4,1.8 4,4 V -4 c 0,2.2 -1.8,4 -4,4 z"
             style="fill:#ffffff;fill-opacity:1;fill-rule:nonzero;stroke:none"
             id="path296"
             inkscape:connector-curvature="0" /></g><g
           id="g298"
           transform="translate(394.6562,285.6826)"><path
             d="m 0,0 c 2.2,0 4,1.8 4,4 v 17.865 c 0,2.2 -1.8,4 -4,4 h -20.918 c -2.2,0 -4,-1.8 -4,-4 V 4 c 0,-2.2 1.8,-4 4,-4 z"
             style="fill:#ffffff;fill-opacity:1;fill-rule:nonzero;stroke:none"
             id="path300"
             inkscape:connector-curvature="0" /></g><g
           id="g302"
           transform="translate(326.3232,311.5479)"><path
             d="m 0,0 c -2.2,0 -4,-1.8 -4,-4 v -17.865 c 0,-2.2 1.8,-4 4,-4 h 20.918 c 2.2,0 4,1.8 4,4 V -4 c 0,2.2 -1.8,4 -4,4 z"
             style="fill:#db543a;fill-opacity:1;fill-rule:nonzero;stroke:none"
             id="path304"
             inkscape:connector-curvature="0" /></g><g
           id="g306"
           transform="translate(282.166,205.9941)"><path
             d="m 0,0 c 2.2,0 4,1.8 4,4 v 17.864 c 0,2.2 -1.8,4 -4,4 h -20.918 c -2.2,0 -4,-1.8 -4,-4 V 4 c 0,-2.2 1.8,-4 4,-4 z"
             style="fill:none;stroke:#ffffff;stroke-width:2;stroke-linecap:butt;stroke-linejoin:miter;stroke-miterlimit:10;stroke-dasharray:none;stroke-opacity:1"
             id="path308"
             inkscape:connector-curvature="0" /></g><g
           id="g310"
           transform="translate(213.834,231.8584)"><path
             d="m 0,0 c -2.2,0 -4,-1.8 -4,-4 v -17.864 c 0,-2.2 1.8,-4 4,-4 h 20.918 c 2.2,0 4,1.8 4,4 V -4 c 0,2.2 -1.8,4 -4,4 z"
             style="fill:none;stroke:#ffffff;stroke-width:2;stroke-linecap:butt;stroke-linejoin:miter;stroke-miterlimit:10;stroke-dasharray:none;stroke-opacity:1"
             id="path312"
             inkscape:connector-curvature="0" /></g><g
           id="g314"
           transform="translate(282.166,240.0674)"><path
             d="m 0,0 c 2.2,0 4,1.8 4,4 v 17.864 c 0,2.2 -1.8,4 -4,4 h -20.918 c -2.2,0 -4,-1.8 -4,-4 V 4 c 0,-2.2 1.8,-4 4,-4 z"
             style="fill:none;stroke:#ffffff;stroke-width:2;stroke-linecap:butt;stroke-linejoin:miter;stroke-miterlimit:10;stroke-dasharray:none;stroke-opacity:1"
             id="path316"
             inkscape:connector-curvature="0" /></g><g
           id="g318"
           transform="translate(213.834,265.9316)"><path
             d="m 0,0 c -2.2,0 -4,-1.8 -4,-4 v -17.864 c 0,-2.2 1.8,-4 4,-4 h 20.918 c 2.2,0 4,1.8 4,4 V -4 c 0,2.2 -1.8,4 -4,4 z"
             style="fill:none;stroke:#ffffff;stroke-width:2;stroke-linecap:butt;stroke-linejoin:miter;stroke-miterlimit:10;stroke-dasharray:none;stroke-opacity:1"
             id="path320"
             inkscape:connector-curvature="0" /></g><g
           id="g322"
           transform="translate(282.166,274.1396)"><path
             d="m 0,0 c 2.2,0 4,1.8 4,4 v 17.865 c 0,2.2 -1.8,4 -4,4 h -20.918 c -2.2,0 -4,-1.8 -4,-4 V 4 c 0,-2.2 1.8,-4 4,-4 z"
             style="fill:none;stroke:#ffffff;stroke-width:2;stroke-linecap:butt;stroke-linejoin:miter;stroke-miterlimit:10;stroke-dasharray:none;stroke-opacity:1"
             id="path324"
             inkscape:connector-curvature="0" /></g><g
           id="g326"
           transform="translate(213.834,300.0049)"><path
             d="m 0,0 c -2.2,0 -4,-1.8 -4,-4 v -17.865 c 0,-2.2 1.8,-4 4,-4 h 20.918 c 2.2,0 4,1.8 4,4 V -4 c 0,2.2 -1.8,4 -4,4 z"
             style="fill:none;stroke:#ffffff;stroke-width:2;stroke-linecap:butt;stroke-linejoin:miter;stroke-miterlimit:10;stroke-dasharray:none;stroke-opacity:1"
             id="path328"
             inkscape:connector-curvature="0" /></g><g
           id="g330"
           transform="translate(197.6914,285.6826)"><path
             d="m 0,0 c 0,-1.709 -1.385,-3.094 -3.094,-3.094 -1.709,0 -3.093,1.385 -3.093,3.094 0,1.709 1.384,3.094 3.093,3.094 C -1.385,3.094 0,1.709 0,0"
             style="fill:#ffffff;fill-opacity:1;fill-rule:nonzero;stroke:none"
             id="path332"
             inkscape:connector-curvature="0" /></g><g
           id="g334"
           transform="translate(197.6914,252.999)"><path
             d="m 0,0 c 0,-1.709 -1.385,-3.094 -3.094,-3.094 -1.709,0 -3.093,1.385 -3.093,3.094 0,1.709 1.384,3.094 3.093,3.094 C -1.385,3.094 0,1.709 0,0"
             style="fill:#ffffff;fill-opacity:1;fill-rule:nonzero;stroke:none"
             id="path336"
             inkscape:connector-curvature="0" /></g><g
           id="g338"
           transform="translate(197.6914,218.9268)"><path
             d="m 0,0 c 0,-1.709 -1.385,-3.094 -3.094,-3.094 -1.709,0 -3.093,1.385 -3.093,3.094 0,1.709 1.384,3.094 3.093,3.094 C -1.385,3.094 0,1.709 0,0"
             style="fill:#ffffff;fill-opacity:1;fill-rule:nonzero;stroke:none"
             id="path340"
             inkscape:connector-curvature="0" /></g></g></g></g></svg>