<?xml version="1.0" encoding="UTF-8" standalone="no"?>
<!-- Created with Inkscape (http://www.inkscape.org/) -->

<svg
   xmlns:dc="http://purl.org/dc/elements/1.1/"
   xmlns:cc="http://creativecommons.org/ns#"
   xmlns:rdf="http://www.w3.org/1999/02/22-rdf-syntax-ns#"
   xmlns:svg="http://www.w3.org/2000/svg"
   xmlns="http://www.w3.org/2000/svg"
   xmlns:sodipodi="http://sodipodi.sourceforge.net/DTD/sodipodi-0.dtd"
   xmlns:inkscape="http://www.inkscape.org/namespaces/inkscape"
   version="1.1"
   id="svg2"
   xml:space="preserve"
   width="666.66669"
   height="666.66669"
   viewBox="0 0 666.66669 666.66669"
   sodipodi:docname="dataAnalytics.svg"
   inkscape:version="0.92.3 (unknown)"><metadata
     id="metadata8"><rdf:RDF><cc:Work
         rdf:about=""><dc:format>image/svg+xml</dc:format><dc:type
           rdf:resource="http://purl.org/dc/dcmitype/StillImage" /><dc:title></dc:title></cc:Work></rdf:RDF></metadata><defs
     id="defs6"><clipPath
       clipPathUnits="userSpaceOnUse"
       id="clipPath28"><path
         d="M 0,500 H 500 V 0 H 0 Z"
         id="path26"
         inkscape:connector-curvature="0" /></clipPath><clipPath
       clipPathUnits="userSpaceOnUse"
       id="clipPath386"><path
         d="M 0,500 H 500 V 0 H 0 Z"
         id="path384"
         inkscape:connector-curvature="0" /></clipPath><clipPath
       clipPathUnits="userSpaceOnUse"
       id="clipPath456"><path
         d="m 365.063,272.53 h 89 v -87.478 h -89 z"
         id="path454"
         inkscape:connector-curvature="0" /></clipPath><clipPath
       clipPathUnits="userSpaceOnUse"
       id="clipPath460"><path
         d="m 365.062,200.167 44.629,72.363 44.371,-80.75 -73.5,-6.728 z"
         id="path458"
         inkscape:connector-curvature="0" /></clipPath><mask
       maskUnits="userSpaceOnUse"
       x="0"
       y="0"
       width="1"
       height="1"
       id="mask472"><g
         id="g482"><g
           clip-path="url(#clipPath464)"
           id="g480"><g
             id="g478"><g
               id="g476"><path
                 d="M -32768,32767 H 32767 V -32768 H -32768 Z"
                 style="fill:url(#linearGradient470);stroke:none"
                 id="path474"
                 inkscape:connector-curvature="0" /></g></g></g></g></mask><clipPath
       clipPathUnits="userSpaceOnUse"
       id="clipPath464"><path
         d="M -32768,32767 H 32767 V -32768 H -32768 Z"
         id="path462"
         inkscape:connector-curvature="0" /></clipPath><linearGradient
       x1="0"
       y1="0"
       x2="1"
       y2="0"
       gradientUnits="userSpaceOnUse"
       gradientTransform="matrix(65.396545,37.44273,-37.44273,65.396545,343.896,181.78192)"
       spreadMethod="pad"
       id="linearGradient470"><stop
         style="stop-opacity:1;stop-color:#ffffff"
         offset="0"
         id="stop466" /><stop
         style="stop-opacity:0;stop-color:#ffffff"
         offset="1"
         id="stop468" /></linearGradient><linearGradient
       x1="0"
       y1="0"
       x2="1"
       y2="0"
       gradientUnits="userSpaceOnUse"
       gradientTransform="matrix(65.396545,37.44273,-37.44273,65.396545,343.896,181.78192)"
       spreadMethod="pad"
       id="linearGradient488"><stop
         style="stop-opacity:1;stop-color:#e2ebf4"
         offset="0"
         id="stop484" /><stop
         style="stop-opacity:1;stop-color:#ffffff"
         offset="1"
         id="stop486" /></linearGradient><clipPath
       clipPathUnits="userSpaceOnUse"
       id="clipPath352"><path
         d="m 378.291,175 h 62.543 v -7.177 h -62.543 z"
         id="path350"
         inkscape:connector-curvature="0" /></clipPath><clipPath
       clipPathUnits="userSpaceOnUse"
       id="clipPath286"><path
         d="m 260.833,291.702 h 89 v -87.478 h -89 z"
         id="path284"
         inkscape:connector-curvature="0" /></clipPath><clipPath
       clipPathUnits="userSpaceOnUse"
       id="clipPath290"><path
         d="m 349.833,223.123 -44.629,68.579 -44.371,-80.75 73.5,-6.728 z"
         id="path288"
         inkscape:connector-curvature="0" /></clipPath><mask
       maskUnits="userSpaceOnUse"
       x="0"
       y="0"
       width="1"
       height="1"
       id="mask302"><g
         id="g312"><g
           clip-path="url(#clipPath294)"
           id="g310"><g
             id="g308"><g
               id="g306"><path
                 d="M -32768,32767 H 32767 V -32768 H -32768 Z"
                 style="fill:url(#linearGradient300);stroke:none"
                 id="path304"
                 inkscape:connector-curvature="0" /></g></g></g></g></mask><clipPath
       clipPathUnits="userSpaceOnUse"
       id="clipPath294"><path
         d="M -32768,32767 H 32767 V -32768 H -32768 Z"
         id="path292"
         inkscape:connector-curvature="0" /></clipPath><linearGradient
       x1="0"
       y1="0"
       x2="1"
       y2="0"
       gradientUnits="userSpaceOnUse"
       gradientTransform="matrix(-63.749996,36.5,36.5,63.749996,368.76706,202.23199)"
       spreadMethod="pad"
       id="linearGradient300"><stop
         style="stop-opacity:1;stop-color:#ffffff"
         offset="0"
         id="stop296" /><stop
         style="stop-opacity:0;stop-color:#ffffff"
         offset="1"
         id="stop298" /></linearGradient><linearGradient
       x1="0"
       y1="0"
       x2="1"
       y2="0"
       gradientUnits="userSpaceOnUse"
       gradientTransform="matrix(-63.749996,36.5,36.5,63.749996,368.76706,202.23199)"
       spreadMethod="pad"
       id="linearGradient318"><stop
         style="stop-opacity:1;stop-color:#e2ebf4"
         offset="0"
         id="stop314" /><stop
         style="stop-opacity:1;stop-color:#ffffff"
         offset="1"
         id="stop316" /></linearGradient><clipPath
       clipPathUnits="userSpaceOnUse"
       id="clipPath178"><path
         d="M 256.271,156.216 H 344 v -10.593 h -87.729 z"
         id="path176"
         inkscape:connector-curvature="0" /></clipPath><clipPath
       clipPathUnits="userSpaceOnUse"
       id="clipPath154"><path
         d="m 353.896,306.154 h 63.792 v -42.139 h -63.792 z"
         id="path152"
         inkscape:connector-curvature="0" /></clipPath><clipPath
       clipPathUnits="userSpaceOnUse"
       id="clipPath122"><path
         d="M 248.415,261.907 H 373.95 V 233.242 H 248.415 Z"
         id="path120"
         inkscape:connector-curvature="0" /></clipPath></defs><sodipodi:namedview
     pagecolor="#ffffff"
     bordercolor="#666666"
     borderopacity="1"
     objecttolerance="10"
     gridtolerance="10"
     guidetolerance="10"
     inkscape:pageopacity="0"
     inkscape:pageshadow="2"
     inkscape:window-width="1366"
     inkscape:window-height="705"
     id="namedview4"
     showgrid="false"
     inkscape:zoom="0.70799998"
     inkscape:cx="-157.17145"
     inkscape:cy="309.42552"
     inkscape:window-x="0"
     inkscape:window-y="24"
     inkscape:window-maximized="1"
     inkscape:current-layer="g10" /><g
     id="g10"
     inkscape:groupmode="layer"
     inkscape:label="155819-OV2IY1-964"
     transform="matrix(1.3333333,0,0,-1.3333333,0,666.66667)">
<g
   id="g828"
   transform="matrix(2.0628596,0,0,2.0628596,-1167.5312,176.51839)"><path
     d="m 699.68559,-34.062007 h -75.49 v 19.888 h 75.49 z"
     style="fill:#e4edf6;fill-opacity:1;fill-rule:nonzero;stroke:none;stroke-width:0.99999994"
     id="path66"
     inkscape:connector-curvature="0" /><path
     d="m 637.21259,-34.062007 h -7.123 v 19.888 h 7.123 z"
     style="fill:#d5ddea;fill-opacity:1;fill-rule:nonzero;stroke:none;stroke-width:0.99999994"
     id="path68"
     inkscape:connector-curvature="0" /><path
     d="m 631.78459,-34.062007 h -65.675 v 31.4929904 h 65.675 z"
     style="fill:#f2e3e2;fill-opacity:1;fill-rule:nonzero;stroke:none;stroke-width:0.99999994"
     id="path70"
     inkscape:connector-curvature="0" /><g
     id="g72"
     transform="translate(797.72639,-15.904817)"><path
       d="m 0,0 c -1.509,1.137 -9.351,6.02 -2.933,8.026 6.418,2.007 0.384,4.596 -1.185,5.703 -1.161,0.82 -5.703,3.672 -1.796,7.222 3.907,3.551 2.641,5.663 0.105,6.824 -2.534,1.162 -0.739,10.245 6.759,6.654 7.499,-3.591 -1.266,-9.423 0,-13.478 C 2.218,16.897 11.723,16.476 8.237,12.146 4.753,7.815 3.1,6.062 6.479,3.738 9.858,1.414 4.028,-3.032 0,0"
       style="fill:#fa4112;fill-opacity:1;fill-rule:nonzero;stroke:none"
       id="path74"
       inkscape:connector-curvature="0" /></g><g
     id="g76"
     transform="translate(797.36109,-17.477117)"><path
       d="m 0,0 -0.141,0.451 c 1.688,0.528 2.62,1.152 2.697,1.803 0.122,1.038 -1.868,2.22 -3.055,2.926 -0.362,0.215 -0.676,0.4 -0.895,0.555 l -0.185,0.13 c -0.936,0.652 -3.127,2.178 -3.259,4.211 -0.072,1.111 0.476,2.203 1.627,3.25 l 0.318,-0.35 c -1.04,-0.945 -1.535,-1.91 -1.473,-2.869 0.117,-1.806 2.178,-3.241 3.057,-3.853 l 0.19,-0.133 C -0.916,5.978 -0.611,5.796 -0.258,5.586 1.194,4.724 3.183,3.542 3.026,2.198 2.924,1.323 1.934,0.604 0,0"
       style="fill:#e2ebf4;fill-opacity:1;fill-rule:nonzero;stroke:none"
       id="path78"
       inkscape:connector-curvature="0" /></g><g
     id="g80"
     transform="translate(804.41969,-10.040607)"><path
       d="m 0,0 c -1.391,0.612 -2.166,1.289 -2.438,2.13 -0.484,1.49 0.584,3.317 2.355,6.345 l 0.367,0.628 c 0.475,0.812 0.604,1.466 0.396,1.999 -0.419,1.072 -2.198,1.619 -4.08,2.197 -2.238,0.686 -4.551,1.396 -5.458,3.123 -0.809,1.538 -0.124,3.504 0.6,5.586 0.706,2.025 1.436,4.119 0.612,5.674 -0.524,0.99 -1.63,1.7 -3.382,2.169 l 0.122,0.457 c 1.886,-0.505 3.09,-1.292 3.678,-2.405 0.92,-1.736 0.156,-3.93 -0.583,-6.051 -0.69,-1.982 -1.341,-3.854 -0.628,-5.21 0.815,-1.552 3.033,-2.233 5.177,-2.891 C -1.267,13.139 0.618,12.56 1.12,11.274 1.385,10.599 1.245,9.81 0.693,8.864 L 0.326,8.235 C -1.319,5.423 -2.406,3.564 -1.988,2.276 -1.761,1.572 -1.067,0.987 0.19,0.434 Z"
       style="fill:#e2ebf4;fill-opacity:1;fill-rule:nonzero;stroke:none"
       id="path82"
       inkscape:connector-curvature="0" /></g><g
     id="g84"
     transform="translate(804.41478,-32.183117)"><path
       d="m 0,0 h -9.945 c -0.516,0 -0.945,0.396 -0.987,0.909 l -1.369,16.761 c -0.04,0.5 0.355,0.929 0.857,0.929 H 1.499 c 0.502,0 0.897,-0.429 0.855,-0.929 L 0.986,0.909 C 0.944,0.396 0.516,0 0,0"
       style="fill:#d5ddea;fill-opacity:1;fill-rule:nonzero;stroke:none"
       id="path86"
       inkscape:connector-curvature="0" /></g><g
     id="g88"
     transform="translate(793.61019,94.062983)"><path
       d="m 0,0 c -0.002,0.001 -0.004,0.001 -0.006,0.002 -1.754,2.223 -4.47,3.651 -7.52,3.651 -3.794,0 -7.074,-2.206 -8.624,-5.405 -0.801,0.315 -1.672,0.486 -2.584,0.486 -3.605,0 -6.585,-2.683 -7.053,-6.162 -0.043,-0.314 -0.065,-0.632 -0.065,-0.957 0,-3.93 3.188,-7.117 7.118,-7.117 h 11.176 c 0.011,0 0.021,-10e-4 0.032,-10e-4 0.009,0 0.02,10e-4 0.031,10e-4 h 4.325 c 1.632,0 3.149,0.484 4.417,1.315 2.201,1.439 3.657,3.931 3.657,6.759 C 4.904,-4.096 2.883,-1.232 0,0"
       style="fill:#efefef;fill-opacity:1;fill-rule:nonzero;stroke:none"
       id="path90"
       inkscape:connector-curvature="0" /></g><g
     id="g92"
     transform="translate(685.68049,124.39989)"><path
       d="m 0,0 h -0.006 c -1.446,1.545 -3.237,2.762 -5.253,3.529 -3.092,4.126 -8.021,6.796 -13.574,6.796 -6.493,0 -12.131,-3.652 -14.98,-9.012 0,0 0,-10e-4 -10e-4,-10e-4 -5.915,-1.006 -10.418,-6.158 -10.418,-12.357 0,-6.926 5.613,-12.539 12.539,-12.539 h 12.811 c 0.017,0 0.032,-0.001 0.049,-0.001 0.016,0 0.031,0.001 0.048,0.001 h 8.5 c 0.015,0 0.031,-0.001 0.048,-0.001 0.015,0 0.031,0.001 0.048,0.001 h 9.54 c 6.516,0 11.801,5.281 11.801,11.801 0,0.247 -0.007,0.494 -0.022,0.738 C 10.761,-5.086 5.971,-0.321 0,0"
       style="fill:#efefef;fill-opacity:1;fill-rule:nonzero;stroke:none"
       id="path94"
       inkscape:connector-curvature="0" /></g><g
     id="g96"
     transform="translate(621.92659,109.73138)"><path
       d="m 0,0 c -0.926,0 -1.822,-0.122 -2.674,-0.35 -2.294,2.84 -5.808,4.654 -9.747,4.654 -6.926,0 -12.538,-5.616 -12.538,-12.539 0,-6.926 5.612,-12.538 12.538,-12.538 H 0 c 5.738,0 10.389,4.65 10.389,10.384 0,0.738 -0.077,1.461 -0.225,2.154 C 9.176,-3.529 5.001,0 0,0"
       style="fill:#efefef;fill-opacity:1;fill-rule:nonzero;stroke:none"
       id="path98"
       inkscape:connector-curvature="0" /></g><path
     d="m 731.91259,4.6529934 h -151.954 V 77.719993 h 151.954 z"
     style="fill:#e2ebf4;fill-opacity:1;fill-rule:nonzero;stroke:none;stroke-width:0.99999994"
     id="path100"
     inkscape:connector-curvature="0" /><path
     d="m 584.88159,72.797993 h 142.111 V 9.5729934 h -142.111 z"
     style="fill:#ffffff;fill-opacity:1;fill-rule:nonzero;stroke:none;stroke-width:0.99999994"
     id="path102"
     inkscape:connector-curvature="0" /><path
     d="m 668.91659,13.945983 h -1.128 v 45.52401 h 1.128 z"
     style="fill:#fa4112;fill-opacity:1;fill-rule:nonzero;stroke:none;stroke-width:0.99999994"
     id="path104"
     inkscape:connector-curvature="0" /><path
     d="m 594.41659,13.945983 h -1.128 v 19.941 h 1.128 z"
     style="fill:#e2ebf4;fill-opacity:1;fill-rule:nonzero;stroke:none;stroke-width:0.99999994"
     id="path106"
     inkscape:connector-curvature="0" /><path
     d="m 619.24959,13.945983 h -1.128 v 15.327 h 1.128 z"
     style="fill:#e2ebf4;fill-opacity:1;fill-rule:nonzero;stroke:none;stroke-width:0.99999994"
     id="path108"
     inkscape:connector-curvature="0" /><path
     d="m 644.08359,13.945983 h -1.128 v 32.09101 h 1.128 z"
     style="fill:#e2ebf4;fill-opacity:1;fill-rule:nonzero;stroke:none;stroke-width:0.99999994"
     id="path110"
     inkscape:connector-curvature="0" /><path
     d="m 693.75059,13.945983 h -1.128 v 36.70501 h 1.128 z"
     style="fill:#e2ebf4;fill-opacity:1;fill-rule:nonzero;stroke:none;stroke-width:0.99999994"
     id="path112"
     inkscape:connector-curvature="0" /><path
     d="m 718.58359,13.945983 h -1.128 v 24.76201 h 1.128 z"
     style="fill:#e2ebf4;fill-opacity:1;fill-rule:nonzero;stroke:none;stroke-width:0.99999994"
     id="path114"
     inkscape:connector-curvature="0" /><g
     id="g116"
     transform="translate(344.63359,-208.31402)"><g
       id="g118" /><g
       id="g130"><g
         clip-path="url(#clipPath122)"
         id="g128"
         style="opacity:0.30000299"><g
           transform="translate(373.9502,233.2412)"
           id="g126"><path
             d="m 0,0 c -6.477,0 -9.709,7.223 -12.835,14.207 -3.047,6.806 -6.196,13.844 -12.274,13.844 -6.078,0 -9.228,-7.038 -12.274,-13.844 C -40.509,7.223 -43.741,0 -50.218,0 c -6.475,0 -9.708,7.223 -12.833,14.207 -3.047,6.806 -6.195,13.844 -12.272,13.844 -6.077,0 -9.227,-7.038 -12.273,-13.844 C -90.722,7.223 -93.954,0 -100.43,0 c -6.475,0 -9.708,7.223 -12.833,14.207 -3.046,6.806 -6.195,13.844 -12.272,13.844 v 0.615 c 6.475,0 9.708,-7.223 12.833,-14.207 3.046,-6.806 6.195,-13.844 12.272,-13.844 6.077,0 9.227,7.038 12.273,13.844 3.126,6.984 6.358,14.207 12.834,14.207 6.475,0 9.708,-7.223 12.833,-14.207 3.046,-6.806 6.195,-13.844 12.272,-13.844 6.078,0 9.228,7.038 12.274,13.844 3.126,6.984 6.358,14.207 12.835,14.207 6.476,0 9.709,-7.223 12.835,-14.207 C -9.228,7.653 -6.078,0.615 0,0.615 Z"
             style="fill:#aeb8fd;fill-opacity:1;fill-rule:nonzero;stroke:none"
             id="path124"
             inkscape:connector-curvature="0" /></g></g></g></g><g
     id="g132"
     transform="translate(596.57008,66.440893)"><path
       d="m 0,0 c 0,-0.906 -0.734,-1.64 -1.641,-1.64 -0.906,0 -1.64,0.734 -1.64,1.64 0,0.906 0.734,1.641 1.64,1.641 C -0.734,1.641 0,0.906 0,0"
       style="fill:#aeb8fd;fill-opacity:1;fill-rule:nonzero;stroke:none"
       id="path134"
       inkscape:connector-curvature="0" /></g><g
     id="g136"
     transform="translate(602.72149,66.440893)"><path
       d="m 0,0 c 0,-0.906 -0.734,-1.64 -1.641,-1.64 -0.905,0 -1.64,0.734 -1.64,1.64 0,0.906 0.735,1.641 1.64,1.641 C -0.734,1.641 0,0.906 0,0"
       style="fill:#aeb8fd;fill-opacity:1;fill-rule:nonzero;stroke:none"
       id="path138"
       inkscape:connector-curvature="0" /></g><g
     id="g140"
     transform="translate(608.87379,66.440893)"><path
       d="m 0,0 c 0,-0.906 -0.734,-1.64 -1.641,-1.64 -0.906,0 -1.64,0.734 -1.64,1.64 0,0.906 0.734,1.641 1.64,1.641 C -0.734,1.641 0,0.906 0,0"
       style="fill:#aeb8fd;fill-opacity:1;fill-rule:nonzero;stroke:none"
       id="path142"
       inkscape:connector-curvature="0" /></g><g
     id="g144"
     transform="translate(747.63359,114.44228)"><path
       d="m 0,0 c -4.964,3.202 -10.869,5.051 -17.208,5.051 -13.141,0 -24.422,-7.939 -29.3,-19.296 l 29.3,-12.6 z"
       style="fill:#aeb8fd;fill-opacity:1;fill-rule:nonzero;stroke:none"
       id="path146"
       inkscape:connector-curvature="0" /></g><g
     id="g148"
     transform="translate(344.63359,-208.31402)"><g
       id="g150" /><g
       id="g162"><g
         clip-path="url(#clipPath154)"
         id="g160"
         style="opacity:0.5"><g
           transform="translate(415.9902,306.1538)"
           id="g158"><path
             d="m 0,0 -30.198,-10.242 -31.864,1.059 c -0.021,-0.357 -0.032,-0.702 -0.032,-1.059 0,-17.609 14.277,-31.897 31.896,-31.897 17.608,0 31.896,14.288 31.896,31.897 C 1.698,-6.662 1.104,-3.212 0,0"
             style="fill:#cacedd;fill-opacity:1;fill-rule:nonzero;stroke:none"
             id="path156"
             inkscape:connector-curvature="0" /></g></g></g></g><g
     id="g164"
     transform="translate(768.73709,103.97209)"><path
       d="M 0,0 C -2.325,6.912 -6.965,12.752 -12.99,16.603 L -30.198,-10.242 Z"
       style="fill:#fa4112;fill-opacity:1;fill-rule:nonzero;stroke:none"
       id="path166"
       inkscape:connector-curvature="0" /></g><g
     id="g168"
     transform="translate(702.12578,98.197693)"><path
       d="M 0,0 C -1.547,-3.558 -2.444,-7.452 -2.563,-11.541 L 29.3,-12.6 Z"
       style="fill:#455fe8;fill-opacity:1;fill-rule:nonzero;stroke:none"
       id="path170"
       inkscape:connector-curvature="0" /></g><g
     id="g172"
     transform="translate(344.63359,-208.31402)"><g
       id="g174" /><g
       id="g186"><g
         clip-path="url(#clipPath178)"
         id="g184"><g
           transform="translate(344,150.9189)"
           id="g182"><path
             d="m 0,0 c 0,-2.925 -19.639,-5.296 -43.864,-5.296 -24.227,0 -43.865,2.371 -43.865,5.296 0,2.926 19.638,5.297 43.865,5.297 C -19.639,5.297 0,2.926 0,0"
             style="fill:#f2f2f2;fill-opacity:1;fill-rule:nonzero;stroke:none"
             id="path180"
             inkscape:connector-curvature="0" /></g></g></g></g><g
     id="g188"
     transform="translate(673.42169,-59.055207)"><path
       d="m 0,0 c -0.691,0 -1.323,0.461 -1.511,1.16 l -11.738,43.822 c -0.224,0.834 0.272,1.693 1.106,1.917 0.835,0.224 1.694,-0.272 1.917,-1.107 L 1.513,1.97 C 1.736,1.135 1.241,0.277 0.406,0.053 0.271,0.017 0.134,0 0,0"
       style="fill:#7083c4;fill-opacity:1;fill-rule:nonzero;stroke:none"
       id="path190"
       inkscape:connector-curvature="0" /></g><g
     id="g192"
     transform="translate(642.80248,-59.055207)"><path
       d="m 0,0 c -0.69,0 -1.323,0.461 -1.511,1.16 l -11.738,43.822 c -0.224,0.834 0.272,1.693 1.107,1.917 0.833,0.224 1.693,-0.272 1.917,-1.107 L 1.513,1.97 C 1.736,1.135 1.241,0.277 0.406,0.053 0.271,0.017 0.134,0 0,0"
       style="fill:#7083c4;fill-opacity:1;fill-rule:nonzero;stroke:none"
       id="path194"
       inkscape:connector-curvature="0" /></g><g
     id="g196"
     transform="translate(624.35719,1.4574934)"><path
       d="m 0,0 c -2.202,-0.587 -2.286,-4.9 -1.23,-8.858 1.054,-3.958 3.274,-7.659 5.476,-7.072 2.202,0.587 2.286,4.902 1.232,8.86 C 4.422,-3.113 2.202,0.587 0,0"
       style="fill:#2234a4;fill-opacity:1;fill-rule:nonzero;stroke:none"
       id="path198"
       inkscape:connector-curvature="0" /></g><g
     id="g200"
     transform="translate(625.36989,31.066893)"><path
       d="m 0,0 c -5.635,0 -8.583,-10.254 -8.583,-20.383 0,-10.129 2.948,-20.383 8.583,-20.383 5.635,0 8.583,10.254 8.583,20.383 C 8.583,-10.254 5.635,0 0,0"
       style="fill:#112044;fill-opacity:1;fill-rule:nonzero;stroke:none"
       id="path202"
       inkscape:connector-curvature="0" /></g><g
     id="g204"
     transform="translate(673.32399,-3.4849166)"><path
       d="m 0,0 c -0.453,1.047 -1.34,1.942 -2.409,2.969 -1.191,1.142 -5.996,1.052 -8.457,1.927 -3.586,1.275 -10.986,6.798 -12.424,7.796 -0.166,0.115 -0.365,0.17 -0.566,0.158 l -3.735,-0.239 c -0.691,-0.044 -1.072,-0.824 -0.68,-1.395 0.657,-0.955 1.636,-2.213 2.681,-2.962 1.855,-1.33 15.381,-6.412 17.078,-7.067 1.697,-0.656 3.198,-0.717 4.554,-1.955 0.572,-0.521 1.416,-0.811 1.981,-1.068 0.685,-0.31 1.185,-0.338 1.47,-0.312 0.195,0.017 0.387,-0.031 0.557,-0.129 C 1.179,-2.938 0.422,-0.976 0,0"
       style="fill:#c69e91;fill-opacity:1;fill-rule:nonzero;stroke:none"
       id="path206"
       inkscape:connector-curvature="0" /></g><g
     id="g208"
     transform="translate(640.94019,24.754383)"><path
       d="m 0,0 c -0.214,2.374 -0.919,5.425 0.24,8.295 1.223,3.029 3.227,3.137 4.669,2.248 C 6.351,9.654 6.881,8.566 6.999,7.596 7.168,6.21 7.083,5.643 7.068,4.246 7.051,2.444 6.83,0.657 6.796,-1.142 6.761,-3.003 6.898,-4.864 7.104,-6.713 7.138,-7.01 7.173,-7.306 7.209,-7.601 c 0.135,-1.095 0.289,-2.193 0.589,-3.254 0.306,-1.09 0.765,-2.137 1.357,-3.102 0.113,-0.184 1.568,-2.422 0.882,-2.299 -0.817,0.147 -3.578,-2.982 -5.82,-1.665 C 1.225,-16.164 0.18,-1.999 0,0"
       style="fill:#9ba9ea;fill-opacity:1;fill-rule:nonzero;stroke:none"
       id="path210"
       inkscape:connector-curvature="0" /></g><g
     id="g212"
     transform="translate(665.15509,-51.662607)"><path
       d="m 0,0 -2.797,0.627 c -0.138,0.03 -0.224,0.168 -0.194,0.306 l 0.496,2.213 c 0.03,0.137 0.168,0.224 0.306,0.193 L 0.607,2.713 C 0.745,2.682 0.832,2.545 0.802,2.407 L 0.306,0.194 C 0.275,0.057 0.138,-0.03 0,0"
       style="fill:#8d9be2;fill-opacity:1;fill-rule:nonzero;stroke:none"
       id="path214"
       inkscape:connector-curvature="0" /></g><g
     id="g216"
     transform="translate(661.59649,-50.499507)"><path
       d="m 0,0 c 0,0 0.573,-4.306 1.208,-4.68 0.634,-0.374 3.786,0.439 5.421,1.399 1.635,0.96 3.177,0.416 6.454,1.261 1.775,0.458 3.127,1.239 3.127,1.239 0,0 0.424,1.979 -2.731,1.703 C 10.322,0.646 6.593,1.028 5.8,1.496 5.007,1.964 3.541,0.24 0,0"
       style="fill:#18297c;fill-opacity:1;fill-rule:nonzero;stroke:none"
       id="path218"
       inkscape:connector-curvature="0" /></g><g
     id="g220"
     transform="translate(655.44609,65.414993)"><path
       d="M 0,0 C 0,0 5.104,-2.899 5.397,-4.758 5.64,-6.293 3.211,-20.653 2.828,-27.25 c -0.085,-1.468 -1.58,-2.416 -2.936,-1.845 -3.262,1.373 -8.232,4.06 -9.95,8.198 C -12.699,-14.54 -4.49,1.325 0,0"
       style="fill:#e23c1b;fill-opacity:1;fill-rule:nonzero;stroke:none"
       id="path222"
       inkscape:connector-curvature="0" /></g><g
     id="g224"
     transform="translate(638.83479,45.202093)"><path
       d="M 0,0 C 1.679,-2.462 5.869,-6.652 10.173,-5.478 14.477,-4.304 21.52,1.565 19.954,10.956 18.39,20.346 11.347,21.52 6.651,19.172 1.956,16.825 -5.869,8.608 0,0"
       style="fill:#fed4c6;fill-opacity:1;fill-rule:nonzero;stroke:none"
       id="path226"
       inkscape:connector-curvature="0" /></g><g
     id="g228"
     transform="translate(642.00759,50.027783)"><path
       d="M 0,0 C -1.174,1.956 -5.086,3.913 -6.26,2.739 -7.434,1.565 -6.651,-4.304 -1.565,-3.13"
       style="fill:#fed4c6;fill-opacity:1;fill-rule:nonzero;stroke:none"
       id="path230"
       inkscape:connector-curvature="0" /></g><g
     id="g232"
     transform="translate(649.96659,22.560993)"><path
       d="m 0,0 c 0,4.767 0.317,9.375 -1.583,12.188 -2.02,2.989 -10.673,5.806 -14.371,1.693 -2.708,-3.01 -11.22,-25.33 -8.611,-38.242 2.608,-12.911 5.065,-11.102 18.566,-11.231 7.554,-0.071 0.413,12.297 0.928,19.057 C -4.305,-6.459 0,-4.5 0,0"
       style="fill:#2234a4;fill-opacity:1;fill-rule:nonzero;stroke:none"
       id="path234"
       inkscape:connector-curvature="0" /></g><g
     id="g236"
     transform="translate(640.17169,43.734793)"><path
       d="m 0,0 c 0,0 0.328,-3.689 -1.629,-5.157 -1.956,-1.467 5.052,-5.7 6.813,-5.114 1.76,0.587 -2.25,5.184 1.271,9.097"
       style="fill:#fed4c6;fill-opacity:1;fill-rule:nonzero;stroke:none"
       id="path238"
       inkscape:connector-curvature="0" /></g><g
     id="g240"
     transform="translate(658.39819,59.385683)"><path
       d="m 0,0 c -0.289,-4.571 -7.337,-1.467 -9.293,-8.706 -1.12,-4.144 -1.361,-8.608 -1.362,-11.668 -0.001,-1.577 -1.793,-2.485 -3.066,-1.554 -2.721,1.989 -6.577,5.028 -9.075,7.944 -4.138,4.827 -2.833,10.169 -0.681,15.549 2.153,5.38 4.848,8.433 10.173,8.51 C -7.826,10.154 0.587,9.292 0,0"
       style="fill:#fa4112;fill-opacity:1;fill-rule:nonzero;stroke:none"
       id="path242"
       inkscape:connector-curvature="0" /></g><g
     id="g244"
     transform="translate(660.49588,-51.597207)"><path
       d="m 0,0 -2.557,1.412 c -0.125,0.069 -0.171,0.229 -0.101,0.355 l 1.117,2.022 c 0.069,0.125 0.229,0.171 0.354,0.102 L 1.369,2.479 C 1.494,2.409 1.54,2.25 1.471,2.125 L 0.354,0.103 C 0.284,-0.023 0.125,-0.069 0,0"
       style="fill:#aeb8fd;fill-opacity:1;fill-rule:nonzero;stroke:none"
       id="path246"
       inkscape:connector-curvature="0" /></g><g
     id="g248"
     transform="translate(657.45489,-49.162617)"><path
       d="m 0,0 c 0,0 -2.439,-3.382 -2.244,-4.062 0.196,-0.679 2.931,-2.19 4.705,-2.598 1.773,-0.409 2.852,-3.758 6.102,-3.757 4.155,0 3.743,0.249 3.743,0.249 0,0 0.761,1.285 -2.923,2.443 C 6.442,-6.8 5.277,-3.63 5.033,-2.78 4.788,-1.932 2.629,-2.167 0,0"
       style="fill:#2234a4;fill-opacity:1;fill-rule:nonzero;stroke:none"
       id="path250"
       inkscape:connector-curvature="0" /></g><g
     id="g252"
     transform="translate(629.31519,-2.1910166)"><path
       d="m 0,0 c 0,0 -1.157,-12.488 10.379,-12.488 h 32.314 l -9.919,-33.7 c -0.217,-0.741 0.336,-1.482 1.108,-1.482 h 2.514 c 0.446,0 0.85,0.256 1.042,0.656 l 16.57,34.584 c 1.735,4.467 -1.452,9.3 -6.324,9.59 z"
       style="fill:#3a5ace;fill-opacity:1;fill-rule:nonzero;stroke:none"
       id="path254"
       inkscape:connector-curvature="0" /></g><g
     id="g256"
     transform="translate(625.40219,-1.1704166)"><path
       d="m 0,0 c 0,0 -1.157,-12.755 10.379,-12.755 h 32.315 l -9.923,-33.286 c -0.213,-0.738 0.431,-1.185 1.051,-1.639 0.553,-0.404 2.569,-1.01 2.569,-1.01 0.448,0 0.855,0.259 1.046,0.665 l 16.571,35.33 c 1.735,4.562 -1.451,9.499 -6.324,9.796 z"
       style="fill:#455fe8;fill-opacity:1;fill-rule:nonzero;stroke:none"
       id="path258"
       inkscape:connector-curvature="0" /></g><g
     id="g260"
     transform="translate(664.31428,-1.7163166)"><path
       d="m 0,0 c -0.528,1.011 -1.479,1.84 -2.62,2.786 -1.271,1.052 -6.057,0.61 -8.575,1.304 -3.669,1.01 -11.452,5.978 -12.96,6.869 -0.173,0.103 -0.376,0.143 -0.575,0.115 l -3.707,-0.51 c -0.688,-0.094 -1.011,-0.9 -0.578,-1.441 0.725,-0.905 1.793,-2.088 2.89,-2.759 1.947,-1.191 15.809,-5.272 17.549,-5.802 1.74,-0.529 3.241,-0.481 4.684,-1.616 0.609,-0.478 1.471,-0.706 2.055,-0.921 0.705,-0.259 1.205,-0.251 1.488,-0.205 0.194,0.033 0.388,-10e-4 0.564,-0.088 C 1.39,-2.844 0.491,-0.941 0,0"
       style="fill:#fed4c6;fill-opacity:1;fill-rule:nonzero;stroke:none"
       id="path262"
       inkscape:connector-curvature="0" /></g><g
     id="g264"
     transform="translate(631.94119,25.720183)"><path
       d="m 0,0 c -0.015,2.383 -0.462,5.482 0.933,8.246 1.47,2.917 3.476,2.857 4.839,1.851 C 7.135,9.091 7.572,7.962 7.609,6.985 7.662,5.59 7.529,5.031 7.399,3.641 7.23,1.848 6.862,0.085 6.678,-1.705 6.487,-3.557 6.469,-5.423 6.521,-7.283 c 0.007,-0.298 0.018,-0.595 0.03,-0.893 0.042,-1.103 0.104,-2.209 0.314,-3.293 0.215,-1.111 0.585,-2.192 1.094,-3.204 0.098,-0.192 1.132,-1.693 0.546,-2.069 -0.576,-0.37 -2.997,-3.017 -5.343,-1.584 C 0.201,-16.517 0.013,-2.007 0,0"
       style="fill:#aeb8fd;fill-opacity:1;fill-rule:nonzero;stroke:none"
       id="path266"
       inkscape:connector-curvature="0" /></g><g
     id="g268"
     transform="translate(664.06039,-15.232917)"><path
       d="m 0,0 h -37.58 c -0.864,0 -1.566,0.7 -1.566,1.564 0,0.865 0.702,1.566 1.566,1.566 H 0 C 0.864,3.13 1.565,2.429 1.565,1.564 1.565,0.7 0.864,0 0,0"
       style="fill:#9ba9ea;fill-opacity:1;fill-rule:nonzero;stroke:none"
       id="path270"
       inkscape:connector-curvature="0" /></g><g
     id="g272"
     transform="translate(616.54569,-59.055207)"><path
       d="M 0,0 C -0.134,0 -0.271,0.017 -0.405,0.053 -1.24,0.277 -1.736,1.135 -1.513,1.97 l 11.739,43.822 c 0.223,0.835 1.082,1.331 1.917,1.107 0.835,-0.224 1.33,-1.083 1.106,-1.917 L 1.512,1.16 C 1.323,0.461 0.691,0 0,0"
       style="fill:#9ba9ea;fill-opacity:1;fill-rule:nonzero;stroke:none"
       id="path274"
       inkscape:connector-curvature="0" /></g><g
     id="g276"
     transform="translate(647.16478,-59.055207)"><path
       d="m 0,0 c -0.134,0 -0.271,0.017 -0.406,0.053 -0.835,0.224 -1.33,1.082 -1.107,1.917 l 11.739,43.822 c 0.223,0.835 1.081,1.331 1.917,1.107 0.835,-0.224 1.33,-1.083 1.106,-1.917 L 1.511,1.16 C 1.323,0.461 0.691,0 0,0"
       style="fill:#9ba9ea;fill-opacity:1;fill-rule:nonzero;stroke:none"
       id="path278"
       inkscape:connector-curvature="0" /></g><g
     id="g280"
     transform="translate(344.63359,-208.31402)"><g
       id="g282" /><g
       id="g336"><g
         clip-path="url(#clipPath286)"
         id="g334"><g
           id="g332"><g
             clip-path="url(#clipPath290)"
             id="g330"><g
               id="g328"><g
                 id="g320" /><g
                 mask="url(#mask302)"
                 id="g326"><g
                   id="g324"><path
                     d="m 349.833,223.123 -44.629,68.579 -44.371,-80.75 73.5,-6.728 z"
                     style="fill:url(#linearGradient318);stroke:none"
                     id="path322"
                     inkscape:connector-curvature="0" /></g></g></g></g></g></g></g></g><g
     id="g338"
     transform="translate(698.87378,15.389083)"><path
       d="m 0,0 c -0.178,0.432 -0.6,0.713 -1.066,0.713 h -14.71 c -0.307,0 -0.601,-0.122 -0.818,-0.339 l -18.309,-18.311 c -0.331,-0.33 -0.43,-0.826 -0.251,-1.257 0.178,-0.432 0.6,-0.713 1.067,-0.713 h 14.71 c 0.307,0 0.601,0.122 0.816,0.338 L -0.25,-1.259 C 0.08,-0.929 0.18,-0.432 0,0"
       style="fill:#2234a4;fill-opacity:1;fill-rule:nonzero;stroke:none"
       id="path340"
       inkscape:connector-curvature="0" /></g><g
     id="g342"
     transform="translate(664.78689,-4.5181166)"><path
       d="m 0,0 h -11.896 c -0.638,0 -1.155,0.517 -1.155,1.154 0,0.638 0.517,1.156 1.155,1.156 h 11.417 l 17.972,17.971 c 0.451,0.451 1.183,0.451 1.634,0 0.45,-0.451 0.45,-1.181 0,-1.633 L 0.816,0.338 C 0.6,0.122 0.306,0 0,0"
       style="fill:#e2ebf4;fill-opacity:1;fill-rule:nonzero;stroke:none"
       id="path344"
       inkscape:connector-curvature="0" /></g><g
     id="g346"
     transform="translate(344.63359,-208.31402)"><g
       id="g348" /><g
       id="g360"><g
         clip-path="url(#clipPath352)"
         id="g358"><g
           transform="translate(440.834,171.4111)"
           id="g356"><path
             d="m 0,0 c 0,-1.981 -14.001,-3.588 -31.271,-3.588 -17.271,0 -31.272,1.607 -31.272,3.588 0,1.982 14.001,3.589 31.272,3.589 C -14.001,3.589 0,1.982 0,0"
             style="fill:#f2f2f2;fill-opacity:1;fill-rule:nonzero;stroke:none"
             id="path354"
             inkscape:connector-curvature="0" /></g></g></g></g><g
     id="g362"
     transform="translate(747.52808,22.936983)"><path
       d="M 0,0 C 0.743,-1.974 2.944,-2.971 4.918,-2.229 6.891,-1.485 7.889,0.716 7.146,2.689 6.403,4.662 4.202,5.66 2.229,4.917 0.255,4.175 -0.742,1.974 0,0"
       style="fill:#455fe8;fill-opacity:1;fill-rule:nonzero;stroke:none"
       id="path364"
       inkscape:connector-curvature="0" /></g><g
     id="g366"
     transform="translate(745.59548,27.668383)"><path
       d="m 0,0 c 2.504,-6.65 9.924,-10.013 16.575,-7.51 6.651,2.503 10.013,9.923 7.51,16.574 C 21.582,15.715 14.161,19.078 7.511,16.575 0.86,14.072 -2.503,6.651 0,0"
       style="fill:#455fe8;fill-opacity:1;fill-rule:nonzero;stroke:none"
       id="path368"
       inkscape:connector-curvature="0" /></g><g
     id="g370"
     transform="translate(747.30449,-37.531817)"><path
       d="m 0,0 c 0,0 4.627,-1.235 6.993,-0.881 2.366,0.355 6.905,0.22 7.207,-0.006 0.302,-0.225 1.693,-1.016 2.576,-0.731 0.884,0.286 0.188,1.281 -0.464,1.521 C 15.661,0.144 9.587,2.388 8.702,3.506 7.816,4.623 6.26,4.14 4.607,3.846 2.954,3.552 -0.367,5.219 -0.367,5.219 -0.367,5.219 -2.693,1.272 0,0"
       style="fill:#c69e91;fill-opacity:1;fill-rule:nonzero;stroke:none"
       id="path372"
       inkscape:connector-curvature="0" /></g><g
     id="g374"
     transform="translate(731.12678,-24.901917)"><path
       d="m 0,0 c 10.265,0.053 18.433,-7.532 18.433,-7.532 -3.461,-0.919 -1.785,-5.368 -1.785,-5.368 -0.994,-0.226 -14.007,2.098 -18.624,3.72 -4.616,1.623 -5.245,6.93 -4.734,9.327 0.511,2.397 3.356,2.949 5.511,3.585 C 0.955,4.369 9.379,4.19 11.67,3.607 13.962,3.025 21.329,2.58 23.261,3.584 c 0,0 5.649,-1.562 10.33,-0.936 4.68,0.627 -7.099,-10.514 -19.657,-10.331"
       style="fill:#fa4112;fill-opacity:1;fill-rule:nonzero;stroke:none"
       id="path376"
       inkscape:connector-curvature="0" /></g><g
     id="g378"
     transform="translate(763.45099,27.457483)"><path
       d="m 0,0 c 0.247,-2.954 -6.356,-7.888 -8.661,-8.494 -2.53,-0.666 -4.666,1.761 -5.699,4.602 -1.026,2.821 -1.832,5.285 -2.333,7.053 -0.357,1.254 -2.289,7.728 7.074,10.556 C 1.207,16.988 -0.245,2.934 0,0"
       style="fill:#fed4c6;fill-opacity:1;fill-rule:nonzero;stroke:none"
       id="path380"
       inkscape:connector-curvature="0" /></g><g
     id="g382"
     transform="translate(757.21268,24.129393)"><path
       d="m 0,0 c 0,0 0.86,-4.555 -0.791,-5.664 -1.652,-1.11 -3.712,-2.023 -4.786,-2.641 -1.109,-0.638 -3.088,-5.071 -1.827,-8.515 1.26,-3.445 11.807,-8.592 17.126,-5.951 5.318,2.64 7.478,11.692 3.609,14.275 C 9.462,-5.913 6.618,-5.44 6.183,-2.397 5.748,0.645 5.256,4.726 6.55,6.889"
       style="fill:#fed4c6;fill-opacity:1;fill-rule:nonzero;stroke:none"
       id="path384-3"
       inkscape:connector-curvature="0" /></g><g
     id="g386"
     transform="translate(755.98028,17.805093)"><path
       d="m 0,0 c -1.733,-0.383 -4.622,-1.368 -6.238,-3.474 -1.616,-2.104 -2.872,-6.67 -3.15,-8.839 -0.276,-2.158 -2.028,-8.726 -2.41,-10.449 -0.383,-1.721 -0.361,-3.513 -1.567,-4.362 -1.55,-1.091 -5.579,-4.994 -8.152,-6.027 -1.968,-0.791 -4.878,-1.067 -5.419,-1.054 -0.782,0.019 -0.999,-0.65 -0.675,-1.53 0.323,-0.881 0.599,-2.349 3.85,-1.723 3.278,0.632 7.075,2.392 10.669,3.789 1.677,0.652 4.262,2.144 4.791,4.095 0.53,1.952 2.565,10.984 4.064,14.275 C -2.738,-12.007 0,0 0,0"
       style="fill:#fed4c6;fill-opacity:1;fill-rule:nonzero;stroke:none"
       id="path388"
       inkscape:connector-curvature="0" /></g><g
     id="g390"
     transform="translate(767.99399,17.382283)"><path
       d="m 0,0 c 0,0 -4.802,-5.844 -3.526,-11.049 1.275,-5.204 5.902,-3.212 5.902,-3.212 0,0 -1.333,-10.527 -1.449,-13.666 -0.115,-3.137 1.623,-9.72 1.449,-11.098 -0.361,-2.865 -6.939,-2.255 -12.986,-1.796 -6.015,0.457 -8.118,0.572 -7.248,4.475 0.869,3.905 1.405,3.617 1.547,7.75 0.104,3.001 0.199,6.353 -2.281,9.587 -1.198,1.564 -1.085,4.363 0.591,9.721 0.807,2.578 2.092,7.013 3.896,9.465 0.116,0.211 1.194,0.504 1.672,0.734 0.232,0.096 0.88,0.508 0.217,-0.612 -1.094,-1.848 -1.99,-3.386 -2.206,-4.611 -0.243,-1.381 -0.224,-2.559 2.471,-3 2.695,-0.44 5.241,1.664 6.398,3.764 2.407,4.374 2.263,4.416 2.578,4.789 0.316,0.373 0.446,0.187 0.935,-0.1 C -1.551,0.854 0.187,0.244 0,0"
       style="fill:#2234a4;fill-opacity:1;fill-rule:nonzero;stroke:none"
       id="path392"
       inkscape:connector-curvature="0" /></g><g
     id="g394"
     transform="translate(730.67558,-17.240817)"><path
       d="m 0,0 c -1.158,0.95 -2.618,1.934 -4.929,2.478 -2.31,0.544 -3.922,1.717 -3.842,0.894 0.081,-0.823 0.996,-1.498 1.925,-1.858 0.931,-0.36 1.56,-1.059 0.956,-1.527 -0.603,-0.468 -1.666,-0.721 -2.196,-0.285 -0.529,0.437 -2.424,2.043 -4.099,1.711 -1.674,-0.333 3.437,-2.768 3.849,-3.504 0.411,-0.735 1.709,-2.105 3.647,-1.674 1.936,0.432 4.484,1.154 5.08,1.129 C 0.986,-2.66 1.067,-0.875 0,0"
       style="fill:#fed4c6;fill-opacity:1;fill-rule:nonzero;stroke:none"
       id="path396"
       inkscape:connector-curvature="0" /></g><g
     id="g398"
     transform="translate(768.47829,-21.396017)"><path
       d="m 0,0 c 2.989,1.036 11.017,-0.118 11.447,-6.073 0.432,-5.955 0.176,-11.499 -10.99,-11.732 -11.166,-0.233 -13.282,3.585 -14.025,5.891 -0.387,1.202 -1.248,2.903 1.418,4.247 C -9.485,-6.323 -6.291,-2.18 0,0"
       style="fill:#fa4112;fill-opacity:1;fill-rule:nonzero;stroke:none"
       id="path400"
       inkscape:connector-curvature="0" /></g><g
     id="g402"
     transform="translate(756.07399,-30.941007)"><path
       d="M 0,0 C -0.852,-0.007 0.299,0.906 -0.129,1.617 -0.535,2.291 -0.987,3.188 -4.705,1.9 -8.424,0.612 -9.015,1.21 -9.967,1.665 -10.919,2.119 -14.63,1.53 -15.2,0.966 c -0.571,-0.566 2.023,-1.018 2.468,-1.538 0.445,-0.521 8.403,-3.524 12.422,-3.99 C 3.711,-5.026 0,0 0,0"
       style="fill:#fed4c6;fill-opacity:1;fill-rule:nonzero;stroke:none"
       id="path404"
       inkscape:connector-curvature="0" /></g><g
     id="g406"
     transform="translate(750.14239,36.104893)"><path
       d="m 0,0 c 1.225,-3.254 4.854,-4.898 8.107,-3.674 3.254,1.225 4.899,4.855 3.674,8.108 C 10.557,7.687 6.927,9.332 3.674,8.107 0.421,6.883 -1.224,3.253 0,0"
       style="fill:#455fe8;fill-opacity:1;fill-rule:nonzero;stroke:none"
       id="path408"
       inkscape:connector-curvature="0" /></g><g
     id="g410"
     transform="translate(746.56519,36.524893)"><path
       d="m 0,0 c 1.089,-2.895 4.319,-4.358 7.214,-3.269 2.894,1.089 4.358,4.32 3.269,7.214 C 9.394,6.84 6.164,8.304 3.269,7.214 0.374,6.125 -1.09,2.895 0,0"
       style="fill:#455fe8;fill-opacity:1;fill-rule:nonzero;stroke:none"
       id="path412"
       inkscape:connector-curvature="0" /></g><g
     id="g414"
     transform="translate(757.51739,32.521893)"><path
       d="M 0,0 C 0.81,-2.15 3.209,-3.238 5.359,-2.429 7.51,-1.619 8.597,0.78 7.788,2.931 6.979,5.081 4.579,6.168 2.429,5.359 0.278,4.55 -0.81,2.15 0,0"
       style="fill:#455fe8;fill-opacity:1;fill-rule:nonzero;stroke:none"
       id="path416"
       inkscape:connector-curvature="0" /></g><g
     id="g418"
     transform="translate(759.70679,27.519993)"><path
       d="M 0,0 C 0.742,-1.973 2.944,-2.971 4.917,-2.229 6.891,-1.485 7.888,0.716 7.146,2.689 6.402,4.663 4.201,5.66 2.228,4.918 0.255,4.175 -0.743,1.974 0,0"
       style="fill:#455fe8;fill-opacity:1;fill-rule:nonzero;stroke:none"
       id="path420"
       inkscape:connector-curvature="0" /></g><g
     id="g422"
     transform="translate(747.78008,38.230893)"><path
       d="M 0,0 C -2.043,-1.428 -2.542,-4.241 -1.114,-6.284 0.313,-8.327 3.127,-8.826 5.17,-7.398"
       style="fill:#455fe8;fill-opacity:1;fill-rule:nonzero;stroke:none"
       id="path424"
       inkscape:connector-curvature="0" /></g><g
     id="g426"
     transform="translate(763.50179,28.445793)"><path
       d="M 0,0 C -2.043,-1.428 -2.542,-4.241 -1.114,-6.284 0.313,-8.327 3.127,-8.826 5.17,-7.398"
       style="fill:#455fe8;fill-opacity:1;fill-rule:nonzero;stroke:none"
       id="path428"
       inkscape:connector-curvature="0" /></g><g
     id="g430"
     transform="translate(764.29279,28.338283)"><path
       d="m 0,0 c -1.457,-1.614 -1.33,-4.104 0.284,-5.562 1.614,-1.458 4.105,-1.33 5.562,0.285"
       style="fill:#455fe8;fill-opacity:1;fill-rule:nonzero;stroke:none"
       id="path432"
       inkscape:connector-curvature="0" /></g><g
     id="g434"
     transform="translate(764.69408,28.893993)"><path
       d="m 0,0 c -0.87,-1.556 -0.314,-3.522 1.241,-4.393 1.556,-0.87 3.523,-0.314 4.393,1.242"
       style="fill:#455fe8;fill-opacity:1;fill-rule:nonzero;stroke:none"
       id="path436"
       inkscape:connector-curvature="0" /></g><g
     id="g438"
     transform="translate(747.56039,34.749493)"><path
       d="m 0,0 c -1.287,-0.091 -2.257,-1.208 -2.167,-2.494 0.091,-1.287 1.208,-2.257 2.494,-2.167"
       style="fill:#455fe8;fill-opacity:1;fill-rule:nonzero;stroke:none"
       id="path440"
       inkscape:connector-curvature="0" /></g><g
     id="g442"
     transform="translate(752.41679,-21.367707)"><path
       d="M 0,0 C 1.009,0.615 1.223,1.896 0.262,2.615 -0.172,2.94 -2.399,3.39 -4.04,3.868 -5.68,4.348 -6.736,3.016 -7.064,2.294 -7.392,1.572 -11.418,-0.097 -10.212,-1.099 -8.362,-2.636 -4.941,-3.019 0,0"
       style="fill:#fed4c6;fill-opacity:1;fill-rule:nonzero;stroke:none"
       id="path444"
       inkscape:connector-curvature="0" /></g><g
     id="g446"
     transform="translate(771.56039,14.626383)"><path
       d="m 0,0 c -1.733,-0.383 -2.35,-0.94 -3.967,-3.046 -1.616,-2.104 -2.872,-6.67 -3.149,-8.84 -0.276,-2.157 -1.57,-6.976 -1.951,-8.698 -0.383,-1.723 -0.362,-3.515 -1.568,-4.362 -1.55,-1.091 -6.038,-6.744 -8.61,-7.779 -1.968,-0.791 -4.877,-1.066 -5.418,-1.052 -0.782,0.019 -1,-0.651 -0.677,-1.531 0.324,-0.88 0.601,-2.349 3.851,-1.722 3.277,0.632 8.093,3.03 11.27,5.215 1.963,1.348 4.12,2.466 4.649,4.419 0.529,1.952 2.128,9.224 3.604,12.525 C 3.073,-3.606 0,0 0,0"
       style="fill:#fed4c6;fill-opacity:1;fill-rule:nonzero;stroke:none"
       id="path448"
       inkscape:connector-curvature="0" /></g><g
     id="g450"
     transform="translate(344.63359,-208.31402)"><g
       id="g452" /><g
       id="g506"><g
         clip-path="url(#clipPath456)"
         id="g504"><g
           id="g502"><g
             clip-path="url(#clipPath460)"
             id="g500"><g
               id="g498"><g
                 id="g490" /><g
                 mask="url(#mask472)"
                 id="g496"><g
                   id="g494"><path
                     d="m 365.062,200.167 44.629,72.363 44.371,-80.75 -73.5,-6.728 z"
                     style="fill:url(#linearGradient488);stroke:none"
                     id="path492"
                     inkscape:connector-curvature="0" /></g></g></g></g></g></g></g></g><g
     id="g508"
     transform="translate(706.84838,-6.5796166)"><path
       d="m 0,0 c 0.156,0.377 0.523,0.622 0.931,0.622 h 22.296 c 0.267,0 0.523,-0.106 0.711,-0.295 L 39.906,-15.64 c 0.288,-0.288 0.374,-0.721 0.218,-1.097 -0.155,-0.376 -0.522,-0.622 -0.931,-0.622 H 16.897 c -0.266,0 -0.523,0.106 -0.711,0.296 L 0.219,-1.097 C -0.069,-0.809 -0.155,-0.376 0,0"
       style="fill:#e2ebf4;fill-opacity:1;fill-rule:nonzero;stroke:none"
       id="path510"
       inkscape:connector-curvature="0" /></g><g
     id="g512"
     transform="translate(746.04179,-23.939007)"><path
       d="m 0,0 h 19.659 c 0.557,0 1.007,0.451 1.007,1.008 0,0.555 -0.45,1.007 -1.007,1.007 H 0.418 l -15.673,15.672 c -0.392,0.392 -1.03,0.392 -1.424,0 -0.392,-0.394 -0.392,-1.032 0,-1.424 L -0.712,0.296 C -0.522,0.106 -0.267,0 0,0"
       style="fill:#455fe8;fill-opacity:1;fill-rule:nonzero;stroke:none"
       id="path514"
       inkscape:connector-curvature="0" /></g></g></g></svg>