<?xml version="1.0" encoding="UTF-8" standalone="no"?>
<!-- Created with Inkscape (http://www.inkscape.org/) -->

<svg
   xmlns:dc="http://purl.org/dc/elements/1.1/"
   xmlns:cc="http://creativecommons.org/ns#"
   xmlns:rdf="http://www.w3.org/1999/02/22-rdf-syntax-ns#"
   xmlns:svg="http://www.w3.org/2000/svg"
   xmlns="http://www.w3.org/2000/svg"
   xmlns:sodipodi="http://sodipodi.sourceforge.net/DTD/sodipodi-0.dtd"
   xmlns:inkscape="http://www.inkscape.org/namespaces/inkscape"
   version="1.1"
   id="svg2"
   xml:space="preserve"
   width="1066.6667"
   height="1066.6667"
   viewBox="0 0 1066.6667 1066.6667"
   sodipodi:docname="hombrebombilla.svg"
   inkscape:version="0.92.3 (unknown)"><metadata
     id="metadata8"><rdf:RDF><cc:Work
         rdf:about=""><dc:format>image/svg+xml</dc:format><dc:type
           rdf:resource="http://purl.org/dc/dcmitype/StillImage" /><dc:title></dc:title></cc:Work></rdf:RDF></metadata><defs
     id="defs6" /><sodipodi:namedview
     pagecolor="#ffffff"
     bordercolor="#666666"
     borderopacity="1"
     objecttolerance="10"
     gridtolerance="10"
     guidetolerance="10"
     inkscape:pageopacity="0"
     inkscape:pageshadow="2"
     inkscape:window-width="640"
     inkscape:window-height="480"
     id="namedview4"
     showgrid="false"
     inkscape:zoom="0.22124998"
     inkscape:cx="533.33337"
     inkscape:cy="533.33337"
     inkscape:window-x="0"
     inkscape:window-y="24"
     inkscape:window-maximized="0"
     inkscape:current-layer="g10" /><g
     id="g10"
     inkscape:groupmode="layer"
     inkscape:label="ink_ext_XXXXXX"
     transform="matrix(1.3333333,0,0,-1.3333333,0,1066.6667)"><g
       id="g12"
       transform="scale(0.1)"><path
         d="M 0,0 H 8000 V 8000 H 0 Z"
         style="fill:#8cbf99;fill-opacity:1;fill-rule:nonzero;stroke:none"
         id="path14"
         inkscape:connector-curvature="0" /><path
         d="m 5937.9,4941.5 c -1.24,0 -2.49,0.06 -3.74,0.17 l -471.46,39.65 c -24.27,2.04 -42.29,23.36 -40.25,47.63 2.04,24.27 23.57,42.35 47.63,40.24 l 471.46,-39.65 c 24.27,-2.04 42.29,-23.37 40.25,-47.64 -1.94,-23 -21.21,-40.4 -43.89,-40.4"
         style="fill:#bcdcc1;fill-opacity:1;fill-rule:nonzero;stroke:none"
         id="path16"
         inkscape:connector-curvature="0" /><path
         d="m 5364.3,5736.93 c -17.95,0 -34.83,11.05 -41.39,28.88 -8.4,22.86 3.31,48.2 26.16,56.6 l 444.05,163.32 c 22.89,8.39 48.19,-3.31 56.61,-26.16 8.4,-22.86 -3.31,-48.2 -26.17,-56.61 l -444.04,-163.31 c -5.03,-1.85 -10.16,-2.72 -15.22,-2.72"
         style="fill:#bcdcc1;fill-opacity:1;fill-rule:nonzero;stroke:none"
         id="path18"
         inkscape:connector-curvature="0" /><path
         d="m 4952.36,6378.76 c -11.24,0 -22.47,4.27 -31.07,12.81 -17.28,17.17 -17.37,45.08 -0.21,62.36 l 333.43,335.67 c 17.16,17.29 45.08,17.36 62.36,0.21 17.27,-17.16 17.37,-45.07 0.2,-62.35 l -333.43,-335.68 c -8.61,-8.67 -19.95,-13.02 -31.28,-13.02"
         style="fill:#bcdcc1;fill-opacity:1;fill-rule:nonzero;stroke:none"
         id="path20"
         inkscape:connector-curvature="0" /><path
         d="m 4307.78,6786.36 c -4.96,0 -10,0.84 -14.94,2.61 -22.91,8.26 -34.79,33.52 -26.54,56.43 l 160.32,445.14 c 8.25,22.91 33.48,34.8 56.43,26.54 22.91,-8.25 34.79,-33.52 26.54,-56.43 l -160.32,-445.13 c -6.48,-17.98 -23.42,-29.16 -41.49,-29.16"
         style="fill:#bcdcc1;fill-opacity:1;fill-rule:nonzero;stroke:none"
         id="path22"
         inkscape:connector-curvature="0" /><path
         d="m 3551.29,6883.36 c -22.55,0 -41.78,17.22 -43.86,40.11 l -42.83,471.18 c -2.2,24.25 15.67,45.7 39.93,47.9 24.21,2.21 45.69,-15.67 47.9,-39.92 l 42.82,-471.18 c 2.2,-24.25 -15.67,-45.7 -39.92,-47.9 -1.36,-0.12 -2.71,-0.19 -4.04,-0.19"
         style="fill:#bcdcc1;fill-opacity:1;fill-rule:nonzero;stroke:none"
         id="path24"
         inkscape:connector-curvature="0" /><path
         d="m 2824.8,6651.58 c -15.18,0 -29.96,7.86 -38.14,21.93 l -237.94,408.94 c -12.25,21.05 -5.12,48.04 15.93,60.28 21.03,12.25 48.03,5.12 60.29,-15.93 l 237.94,-408.94 c 12.24,-21.05 5.11,-48.04 -15.94,-60.29 -6.97,-4.05 -14.61,-5.99 -22.14,-5.99"
         style="fill:#bcdcc1;fill-opacity:1;fill-rule:nonzero;stroke:none"
         id="path26"
         inkscape:connector-curvature="0" /><path
         d="m 2264.18,6134.46 c -8.68,0 -17.45,2.56 -25.12,7.9 l -388.48,270.07 c -19.99,13.89 -24.94,41.37 -11.03,61.36 13.9,20 41.38,24.94 61.36,11.04 l 388.48,-270.07 c 19.99,-13.9 24.94,-41.38 11.03,-61.37 -8.56,-12.32 -22.29,-18.93 -36.24,-18.93"
         style="fill:#bcdcc1;fill-opacity:1;fill-rule:nonzero;stroke:none"
         id="path28"
         inkscape:connector-curvature="0" /><path
         d="m 1974.79,5428.89 c -2.49,0 -5.01,0.21 -7.56,0.65 l -466.21,80.59 c -23.99,4.15 -40.09,26.96 -35.94,50.96 4.14,24 26.93,40.11 50.96,35.94 l 466.21,-80.59 c 23.99,-4.15 40.09,-26.97 35.94,-50.96 -3.71,-21.46 -22.34,-36.59 -43.4,-36.59"
         style="fill:#bcdcc1;fill-opacity:1;fill-rule:nonzero;stroke:none"
         id="path30"
         inkscape:connector-curvature="0" /><path
         d="m 1553.95,4543.1 c -19.41,0 -37.19,12.91 -42.52,32.54 -6.38,23.5 7.5,47.72 31,54.11 l 456.59,123.99 c 23.48,6.43 47.72,-7.5 54.1,-31 6.38,-23.5 -7.5,-47.72 -31,-54.1 l -456.59,-123.99 c -3.87,-1.06 -7.75,-1.55 -11.58,-1.55"
         style="fill:#bcdcc1;fill-opacity:1;fill-rule:nonzero;stroke:none"
         id="path32"
         inkscape:connector-curvature="0" /><path
         d="m 5003.41,5292.31 c -65.95,713.89 -698.14,1239.15 -1412.03,1173.2 -713.89,-65.94 -1239.15,-698.13 -1173.21,-1412.02 40.18,-434.89 290.49,-799.78 641.39,-1003.66 l 20.68,-223.89 552.31,51.02 c 64.91,-3.84 130.92,-2.85 197.65,3.32 66.73,6.17 131.81,17.28 194.91,32.94 l 551.7,50.97 -20.65,223.46 c 307.97,264.7 487.44,669.49 447.25,1104.66"
         style="fill:#fbc533;fill-opacity:1;fill-rule:nonzero;stroke:none"
         id="path34"
         inkscape:connector-curvature="0" /><path
         d="m 3451.33,3860.22 v 0 l 133.62,12.35 v -0.01 l -133.62,-12.34"
         style="fill:#6f9b80;fill-opacity:1;fill-rule:nonzero;stroke:none"
         id="path36"
         inkscape:connector-curvature="0" /><path
         d="M 3451.33,3860.22 3330.3,5170.37 v 0.01 c -0.41,4.38 -0.35,8.8 0.11,13.2 0.21,1.99 0.77,3.85 1.15,5.78 0.46,2.35 0.77,4.73 1.49,7.05 0.73,2.33 1.81,4.49 2.78,6.71 0.78,1.78 1.35,3.61 2.29,5.33 4.22,7.8 9.95,14.68 16.83,20.25 1.43,1.16 3.02,2 4.52,3.02 2.11,1.45 4.14,2.98 6.41,4.17 2.04,1.08 4.22,1.79 6.35,2.64 1.92,0.77 3.75,1.7 5.76,2.3 6.22,1.85 12.68,2.78 19.15,2.78 2.33,0 4.67,-0.12 7,-0.37 2.09,-0.22 4.05,-0.8 6.09,-1.21 2.24,-0.45 4.51,-0.74 6.71,-1.42 2.46,-0.77 4.75,-1.9 7.09,-2.93 1.65,-0.73 3.36,-1.26 4.97,-2.14 3.93,-2.13 7.64,-4.61 11.06,-7.46 l 117.84,-97.91 97.99,117.92 c 13.28,15.97 32.38,24.22 51.64,24.22 15.11,0 30.3,-5.08 42.84,-15.49 l 117.94,-97.97 97.9,117.83 c 2.83,3.42 6.01,6.54 9.47,9.34 1.6,1.31 3.39,2.27 5.09,3.4 1.93,1.29 3.76,2.71 5.83,3.8 2.2,1.16 4.55,1.94 6.86,2.84 1.76,0.69 3.42,1.56 5.26,2.1 4.24,1.27 8.58,2.13 12.98,2.53 h 0.39 c 1.95,0.17 3.91,0.25 5.88,0.25 2.3,0 4.61,-0.11 6.91,-0.35 2.17,-0.23 4.22,-0.83 6.32,-1.26 2.18,-0.44 4.36,-0.71 6.48,-1.37 2.53,-0.78 4.87,-1.94 7.26,-3 1.61,-0.72 3.26,-1.22 4.82,-2.07 7.79,-4.22 14.68,-9.94 20.27,-16.82 1.22,-1.51 2.11,-3.19 3.19,-4.78 1.37,-2.03 2.84,-3.97 4,-6.15 1.12,-2.13 1.85,-4.38 2.73,-6.6 0.73,-1.84 1.64,-3.58 2.21,-5.51 1.26,-4.24 2.13,-8.58 2.53,-12.97 v 0 l 121.03,-1310.15 -133.63,-12.35 -106.12,1148.85 -37.33,-44.94 c -11.37,-13.68 -27.71,-22.3 -45.43,-23.94 -2.06,-0.19 -4.11,-0.28 -6.16,-0.28 -15.6,0 -30.79,5.45 -42.89,15.49 l -117.94,98 -97.99,-117.94 c -11.38,-13.69 -27.71,-22.3 -45.43,-23.94 -2.06,-0.19 -4.13,-0.28 -6.18,-0.28 -15.59,0 -30.78,5.44 -42.86,15.49 l -44.94,37.34 106.13,-1148.84 -133.62,-12.35"
         style="fill:#cca42c;fill-opacity:1;fill-rule:nonzero;stroke:none"
         id="path38"
         inkscape:connector-curvature="0" /><path
         d="M 4603.95,3670.22 3107.39,3531.97 c -81.16,-7.5 -153.06,52.25 -160.55,133.41 -7.5,81.16 52.24,153.07 133.4,160.56 l 1496.57,138.25 c 81.16,7.5 153.05,-52.25 160.55,-133.41 7.5,-81.16 -52.24,-153.06 -133.41,-160.56"
         style="fill:#f4f6f5;fill-opacity:1;fill-rule:nonzero;stroke:none"
         id="path40"
         inkscape:connector-curvature="0" /><path
         d="M 4631.11,3376.26 3134.55,3238.01 c -81.17,-7.5 -153.06,52.23 -160.56,133.41 -7.5,81.16 52.24,153.05 133.4,160.55 l 1496.56,138.25 c 81.17,7.5 153.07,-52.24 160.57,-133.4 7.5,-81.17 -52.24,-153.07 -133.41,-160.56"
         style="fill:#f4f6f5;fill-opacity:1;fill-rule:nonzero;stroke:none"
         id="path42"
         inkscape:connector-curvature="0" /><path
         d="m 3093.65,3531.34 c -0.03,0 -0.06,0 -0.09,0 0.03,0 0.06,0 0.09,0 v 0 m 0,0 c 4.54,0 9.14,0.21 13.74,0.63 l 1496.56,138.25 c 76.57,7.07 134.08,71.46 134.05,146.87 0.03,-75.41 -57.48,-139.8 -134.05,-146.87 v 0 L 3107.39,3531.97 v 0 c -4.61,-0.42 -9.19,-0.63 -13.74,-0.63"
         style="fill:#78a585;fill-opacity:1;fill-rule:nonzero;stroke:none"
         id="path44"
         inkscape:connector-curvature="0" /><path
         d="m 3093.65,3531.34 c -0.03,0 -0.06,0 -0.09,0 -75.35,0.04 -139.66,57.53 -146.72,134.04 v 0 l 1790.52,165.4 c 0.43,-4.6 0.64,-9.16 0.64,-13.69 0.03,-75.41 -57.48,-139.8 -134.05,-146.87 L 3107.39,3531.97 c -4.6,-0.42 -9.2,-0.63 -13.74,-0.63 v 0"
         style="fill:#d5d6d4;fill-opacity:1;fill-rule:nonzero;stroke:none"
         id="path46"
         inkscape:connector-curvature="0" /><path
         d="m 3120.8,3237.37 c -0.04,0 -0.07,0 -0.11,0 0.04,0 0.07,0 0.11,0 v 0 m 0.01,0 c 4.54,0 9.13,0.21 13.74,0.64 v 0 c -4.61,-0.43 -9.2,-0.64 -13.74,-0.64 m -146.6,131.82 c -0.03,0.26 -0.05,0.52 -0.08,0.78 0.03,-0.26 0.05,-0.52 0.08,-0.78 m -0.1,0.99 c -0.04,0.41 -0.08,0.82 -0.12,1.24 v 0 c 0.04,-0.42 0.08,-0.83 0.12,-1.24"
         style="fill:#78a585;fill-opacity:1;fill-rule:nonzero;stroke:none"
         id="path48"
         inkscape:connector-curvature="0" /><path
         d="m 3120.8,3237.37 c -0.04,0 -0.07,0 -0.11,0 -74.6,0.06 -138.38,56.42 -146.48,131.82 -0.03,0.26 -0.05,0.52 -0.08,0.78 -0.01,0.07 -0.01,0.14 -0.02,0.21 -0.04,0.41 -0.08,0.82 -0.12,1.24 l 1790.53,165.4 c 0.43,-4.6 0.63,-9.17 0.64,-13.7 0.02,-75.4 -57.48,-139.79 -134.05,-146.86 v 0 l -940.11,-86.85 -556.45,-51.4 c -4.61,-0.43 -9.2,-0.64 -13.74,-0.64 -0.01,0 0,0 -0.01,0"
         style="fill:#d5d6d4;fill-opacity:1;fill-rule:nonzero;stroke:none"
         id="path50"
         inkscape:connector-curvature="0" /><path
         d="m 4711.97,2320.37 -146.37,70.07 c 0,0 34.94,56.5 92.86,166.96 l 140.13,-71.5 c -27.33,-52.88 -56.05,-107.85 -86.62,-165.53"
         style="fill:#f8f8f8;fill-opacity:1;fill-rule:nonzero;stroke:none"
         id="path52"
         inkscape:connector-curvature="0" /><path
         d="m 4658.46,2557.4 c 97.22,185.38 324.75,721.23 495.52,1199.26 0,0 11.48,39.41 42.45,25.31 17.56,-8 5.41,-44.44 5.41,-44.44 0,0 20.57,32.13 38.95,23.76 18.38,-8.38 10.23,-44.94 10.23,-44.94 0,0 17.7,26.52 33.2,19.09 15.5,-7.43 0.87,-43.51 0.87,-43.51 0,0 15.51,32.94 32.55,24.75 21.6,-10.38 0.79,-54.7 0.79,-54.7 -30.95,-65.5 -201.22,-559.54 -519.84,-1176.08 l -140.13,71.5"
         style="fill:#fbd8b6;fill-opacity:1;fill-rule:nonzero;stroke:none"
         id="path54"
         inkscape:connector-curvature="0" /><path
         d="m 4717.11,2677.51 c 0,0.02 0,0 0,0.02 22.71,48.77 48.19,105.46 75.57,168.12 0.01,0 0.01,-0.02 0.01,-0.02 -27.39,-62.68 -52.88,-119.37 -75.58,-168.12"
         style="fill:#83b591;fill-opacity:1;fill-rule:nonzero;stroke:none"
         id="path56"
         inkscape:connector-curvature="0" /><path
         d="m 4711.97,2320.38 -146.37,70.06 c 0,0 10.08,16.3 28.39,48.51 81.45,23.76 121.81,43.71 121.81,43.71 0,0 0.88,15.86 1.55,44.69 l 81.24,-41.45 c -1.49,-2.89 -2.99,-5.79 -4.49,-8.7 -25.99,-50.2 -53.23,-102.31 -82.13,-156.82"
         style="fill:#ecebeb;fill-opacity:1;fill-rule:nonzero;stroke:none"
         id="path58"
         inkscape:connector-curvature="0" /><path
         d="m 4798.59,2485.9 v 0 l -81.24,41.45 c 0.79,33.79 1.29,85.41 -0.24,150.16 22.7,48.75 48.19,105.44 75.58,168.12 7.9,-67.56 21.36,-196.77 25.37,-321.74 -6.46,-12.64 -12.88,-25.25 -19.47,-37.99 v 0"
         style="fill:#f0cdaa;fill-opacity:1;fill-rule:nonzero;stroke:none"
         id="path60"
         inkscape:connector-curvature="0" /><path
         d="m 4044.94,507.66 c -552.67,0 -1000.69,50.012 -1000.69,111.699 0,61.692 448.02,111.711 1000.69,111.711 552.66,0 1000.68,-50.019 1000.68,-111.711 0,-61.687 -448.02,-111.699 -1000.68,-111.699"
         style="fill:#83b591;fill-opacity:1;fill-rule:nonzero;stroke:none"
         id="path62"
         inkscape:connector-curvature="0" /><path
         d="m 4715.8,2482.66 c 0,0 24.26,437.74 -84.69,893.6 L 3134.55,3238.01 c 51.25,-265.87 67.65,-372.92 109.42,-803.85 990.23,-189.44 1471.83,48.5 1471.83,48.5"
         style="fill:#fbd8b6;fill-opacity:1;fill-rule:nonzero;stroke:none"
         id="path64"
         inkscape:connector-curvature="0" /><path
         d="m 3591.3,3013.4 99.7,276.01 -556.45,-51.4 c 20.75,-370.36 109.42,-803.85 109.42,-803.85 172.36,101.66 317.69,470.11 317.69,470.11 0,0 -173.07,-49.99 -139.95,93.11 33.15,143.1 169.59,16.02 169.59,16.02"
         style="fill:#504133;fill-opacity:1;fill-rule:nonzero;stroke:none"
         id="path66"
         inkscape:connector-curvature="0" /><path
         d="m 3364.79,1554.49 -8.75,-425.25 -59.46,-508.049 c 0,0 521.19,-140.941 389.83,64.68 C 3565.08,875.762 3375.77,718 3375.77,718 l 103.29,429.11 57.48,287.54 c 0,0 520.93,-70.68 987.48,9.94 l -23.5,-241.71 -87.62,-526.06 c 0,0 482.43,-161.949 348.87,62.352 -74.06,124.359 -256,46.328 -256,46.328 l 115.52,418 79.18,362.82 -1335.68,-11.83"
         style="fill:#504133;fill-opacity:1;fill-rule:nonzero;stroke:none"
         id="path68"
         inkscape:connector-curvature="0" /><path
         d="m 4715.8,2482.66 -15.33,-916.34 c 0,0 -558.28,-119.4 -1335.68,-11.83 l -120.82,879.67 c 0,0 898.85,-146.45 1471.83,48.5"
         style="fill:#f8f8f8;fill-opacity:1;fill-rule:nonzero;stroke:none"
         id="path70"
         inkscape:connector-curvature="0" /><path
         d="m 3264.91,2293.97 127.13,100.85 c 0,0 -46.62,47.34 -127.65,142.15 L 3143.66,2436.1 c 38.41,-45.48 78.63,-92.69 121.25,-142.13"
         style="fill:#f8f8f8;fill-opacity:1;fill-rule:nonzero;stroke:none"
         id="path72"
         inkscape:connector-curvature="0" /><path
         d="m 3264.39,2536.97 c -136.01,159.13 -476.97,630.98 -749.74,1059.08 0,0 -19.95,35.88 -47,15.25 -15.36,-11.71 4.6,-44.53 4.6,-44.53 0,0 -27.21,26.75 -43.26,14.5 -16.06,-12.26 0.01,-46.09 0.01,-46.09 0,0 -23.15,21.92 -36.61,11.24 -13.45,-10.7 8.83,-42.61 8.83,-42.61 0,0 -22.44,28.66 -37.24,16.88 -18.75,-14.92 11.4,-53.5 11.4,-53.5 44.72,-56.98 320.57,-500.81 768.28,-1031.09 l 120.73,100.87"
         style="fill:#fbd8b6;fill-opacity:1;fill-rule:nonzero;stroke:none"
         id="path74"
         inkscape:connector-curvature="0" /><path
         d="m 4389.39,2339.36 27.57,-50.8 -37.78,-60.13 30.36,-544.15 -149.3,-112.73 -118.84,130.96 162.74,519.24 -45.06,63.01 23.24,41.8 107.07,12.8"
         style="fill:#f5f6f5;fill-opacity:1;fill-rule:nonzero;stroke:none"
         id="path76"
         inkscape:connector-curvature="0" /><path
         d="m 4389.39,2339.36 27.57,-50.8 -37.78,-60.13 62.44,-536.08 -149.3,-112.72 -118.84,130.95 130.66,511.17 -45.06,63.01 23.24,41.8 107.07,12.8"
         style="fill:#504133;fill-opacity:1;fill-rule:nonzero;stroke:none"
         id="path78"
         inkscape:connector-curvature="0" /><path
         d="m 4438.94,2790.98 c 0,0 -272.56,-3.11 -436.51,-63.63 0,0 -5.38,-222.36 250.39,-192.57 253.16,29.48 186.12,256.2 186.12,256.2"
         style="fill:#ec6180;fill-opacity:1;fill-rule:nonzero;stroke:none"
         id="path80"
         inkscape:connector-curvature="0" /><path
         d="m 3911.17,3007.29 c 6.38,-53.95 -10.96,-100.36 -38.72,-103.65 -27.78,-3.28 -55.47,37.8 -61.86,91.75 -6.39,53.96 10.95,100.35 38.73,103.64 27.77,3.29 55.47,-37.79 61.85,-91.74"
         style="fill:#504133;fill-opacity:1;fill-rule:nonzero;stroke:none"
         id="path82"
         inkscape:connector-curvature="0" /><path
         d="m 4539.08,3081.59 c 6.39,-53.94 -10.95,-100.35 -38.72,-103.64 -27.77,-3.28 -55.47,37.79 -61.85,91.75 -6.39,53.95 10.95,100.35 38.73,103.64 27.77,3.28 55.46,-37.79 61.84,-91.75"
         style="fill:#504133;fill-opacity:1;fill-rule:nonzero;stroke:none"
         id="path84"
         inkscape:connector-curvature="0" /><path
         d="m 3691,3289.41 v 0 l 940.11,86.85 -940.11,-86.85"
         style="fill:#c9c9c7;fill-opacity:1;fill-rule:nonzero;stroke:none"
         id="path86"
         inkscape:connector-curvature="0" /><path
         d="m 4648.59,3298 c -5.41,25.98 -11.22,52.08 -17.48,78.26 10.27,-42.97 9.57,-36.59 17.48,-78.26"
         style="fill:#83b591;fill-opacity:1;fill-rule:nonzero;stroke:none"
         id="path88"
         inkscape:connector-curvature="0" /><path
         d="m 3672.52,3238.26 18.48,51.15 940.11,86.85 v 0 c 6.26,-26.18 12.07,-52.28 17.48,-78.26 0.05,-0.26 0.1,-0.52 0.15,-0.78 l -976.22,-58.96"
         style="fill:#f0cdaa;fill-opacity:1;fill-rule:nonzero;stroke:none"
         id="path90"
         inkscape:connector-curvature="0" /><path
         d="m 3136.51,3205.89 c -0.7,10.75 -1.36,21.46 -1.96,32.12 v 0 l 556.45,51.4 -18.48,-51.15 -536.01,-32.37"
         style="fill:#4c3d30;fill-opacity:1;fill-rule:nonzero;stroke:none"
         id="path92"
         inkscape:connector-curvature="0" /></g></g></svg>