<?xml version="1.0" encoding="UTF-8" standalone="no"?>
<!-- Created with Inkscape (http://www.inkscape.org/) -->

<svg
   xmlns:dc="http://purl.org/dc/elements/1.1/"
   xmlns:cc="http://creativecommons.org/ns#"
   xmlns:rdf="http://www.w3.org/1999/02/22-rdf-syntax-ns#"
   xmlns:svg="http://www.w3.org/2000/svg"
   xmlns="http://www.w3.org/2000/svg"
   xmlns:sodipodi="http://sodipodi.sourceforge.net/DTD/sodipodi-0.dtd"
   xmlns:inkscape="http://www.inkscape.org/namespaces/inkscape"
   version="1.1"
   id="svg2"
   xml:space="preserve"
   width="666.66669"
   height="666.66669"
   viewBox="0 0 666.66669 666.66669"
   sodipodi:docname="teamWork3.svg"
   inkscape:version="0.92.3 (unknown)"><metadata
     id="metadata8"><rdf:RDF><cc:Work
         rdf:about=""><dc:format>image/svg+xml</dc:format><dc:type
           rdf:resource="http://purl.org/dc/dcmitype/StillImage" /><dc:title></dc:title></cc:Work></rdf:RDF></metadata><defs
     id="defs6"><clipPath
       clipPathUnits="userSpaceOnUse"
       id="clipPath20"><path
         d="M 0,500 H 500 V 0 H 0 Z"
         id="path18"
         inkscape:connector-curvature="0" /></clipPath><clipPath
       clipPathUnits="userSpaceOnUse"
       id="clipPath28"><path
         d="M 71,81.1679 H 429.124 V 45.6685 H 71 Z"
         id="path26"
         inkscape:connector-curvature="0" /></clipPath><clipPath
       clipPathUnits="userSpaceOnUse"
       id="clipPath176"><path
         d="m 192.821,334.818 h 28.076 v -26.529 h -28.076 z"
         id="path174"
         inkscape:connector-curvature="0" /></clipPath><clipPath
       clipPathUnits="userSpaceOnUse"
       id="clipPath192"><path
         d="m 197.977,329.088 h 17.765 v -15.9 h -17.765 z"
         id="path190"
         inkscape:connector-curvature="0" /></clipPath><clipPath
       clipPathUnits="userSpaceOnUse"
       id="clipPath276"><path
         d="M 193.873,387.255 H 250 v -33.046 h -56.127 z"
         id="path274"
         inkscape:connector-curvature="0" /></clipPath><clipPath
       clipPathUnits="userSpaceOnUse"
       id="clipPath292"><path
         d="M 63.2016,294.44 H 106.392 V 252.871 H 63.2016 Z"
         id="path290"
         inkscape:connector-curvature="0" /></clipPath><clipPath
       clipPathUnits="userSpaceOnUse"
       id="clipPath308"><path
         d="M 68.8338,288.537 H 95.8557 V 263.089 H 68.8338 Z"
         id="path306"
         inkscape:connector-curvature="0" /></clipPath><clipPath
       clipPathUnits="userSpaceOnUse"
       id="clipPath344"><path
         d="m 357.793,330.705 h 43.228 v -33.663 h -43.228 z"
         id="path342"
         inkscape:connector-curvature="0" /></clipPath><clipPath
       clipPathUnits="userSpaceOnUse"
       id="clipPath380"><path
         d="m 200.594,205.889 h 21.016 v -23.15 h -21.016 z"
         id="path378"
         inkscape:connector-curvature="0" /></clipPath><clipPath
       clipPathUnits="userSpaceOnUse"
       id="clipPath408"><path
         d="M 89.0965,342.829 H 128.68 V 303.246 H 89.0965 Z"
         id="path406"
         inkscape:connector-curvature="0" /></clipPath><clipPath
       clipPathUnits="userSpaceOnUse"
       id="clipPath412"><path
         d="M 89.0965,342.829 H 128.68 V 303.246 H 89.0965 Z"
         id="path410"
         inkscape:connector-curvature="0" /></clipPath><clipPath
       clipPathUnits="userSpaceOnUse"
       id="clipPath468"><path
         d="M 107.251,334.092 H 117.31 V 321.4 h -10.059 z"
         id="path466"
         inkscape:connector-curvature="0" /></clipPath><clipPath
       clipPathUnits="userSpaceOnUse"
       id="clipPath604"><path
         d="m 358.747,120.069 h 6.38 V 67.4494 h -6.38 z"
         id="path602"
         inkscape:connector-curvature="0" /></clipPath><clipPath
       clipPathUnits="userSpaceOnUse"
       id="clipPath624"><path
         d="m 354.167,124.479 h 15 v -5.5 h -15 z"
         id="path622"
         inkscape:connector-curvature="0" /></clipPath><clipPath
       clipPathUnits="userSpaceOnUse"
       id="clipPath652"><path
         d="m 324.937,71.5294 h 37 v -8.1599 h -37 z"
         id="path650"
         inkscape:connector-curvature="0" /></clipPath><clipPath
       clipPathUnits="userSpaceOnUse"
       id="clipPath696"><path
         d="m 309.697,213.58 h 93.328 v -82.436 h -93.328 z"
         id="path694"
         inkscape:connector-curvature="0" /></clipPath><clipPath
       clipPathUnits="userSpaceOnUse"
       id="clipPath854"><path
         d="M 0,500 H 500 V 0 H 0 Z"
         id="path852"
         inkscape:connector-curvature="0" /></clipPath></defs><sodipodi:namedview
     pagecolor="#ffffff"
     bordercolor="#666666"
     borderopacity="1"
     objecttolerance="10"
     gridtolerance="10"
     guidetolerance="10"
     inkscape:pageopacity="0"
     inkscape:pageshadow="2"
     inkscape:window-width="1366"
     inkscape:window-height="705"
     id="namedview4"
     showgrid="false"
     inkscape:zoom="0.50063159"
     inkscape:cx="329.17689"
     inkscape:cy="439.63244"
     inkscape:window-x="0"
     inkscape:window-y="24"
     inkscape:window-maximized="1"
     inkscape:current-layer="g10" /><g
     id="g10"
     inkscape:groupmode="layer"
     inkscape:label="344376-PAPYZY-55"
     transform="matrix(1.3333333,0,0,-1.3333333,0,666.66667)"><path
       d="M 0,0 H 500 V 500 H 0 Z"
       style="fill:#aec5e6;fill-opacity:1;fill-rule:nonzero;stroke:none"
       id="path12"
       inkscape:connector-curvature="0" /><g
       id="g14"><g
         id="g16"
         clip-path="url(#clipPath20)"><g
           id="g22"><g
             id="g24" /><g
             id="g36"><g
               clip-path="url(#clipPath28)"
               id="g34"
               style="opacity:0.35000604"><g
                 transform="translate(429.124,63.418)"
                 id="g32"><path
                   d="m 0,0 c 0,-9.803 -80.169,-17.749 -179.062,-17.749 -98.893,0 -179.062,7.946 -179.062,17.749 0,9.803 80.169,17.75 179.062,17.75 C -80.169,17.75 0,9.803 0,0"
                   style="fill:#8fa9c9;fill-opacity:1;fill-rule:nonzero;stroke:none"
                   id="path30"
                   inkscape:connector-curvature="0" /></g></g></g></g><g
           id="g38"
           transform="translate(275.9131,361.8662)"><path
             d="m 0,0 c 0,0 2.516,10.803 20.521,7.333 17.188,-3.312 16.104,-27.289 18.104,-33.811 1.563,-5.095 4.804,-12.39 6.147,-15.337 0.324,-0.71 -0.033,-1.542 -0.772,-1.788 -6.353,-2.112 -33.318,-10.022 -51.71,1.011 -1.622,0.973 -2.961,2.398 -3.669,4.153 -0.317,0.785 -0.535,1.666 -0.496,2.564 0.125,2.875 1.75,6.375 0.5,14.75 C -12.625,-12.75 -11.125,0.25 0,0"
             style="fill:#0b0b3a;fill-opacity:1;fill-rule:nonzero;stroke:none"
             id="path40"
             inkscape:connector-curvature="0" /></g><g
           id="g42"
           transform="translate(270.6221,338.6992)"><path
             d="m 0,0 c 0,0 -2.292,-2.833 -1.459,-7.583 0.834,-4.75 5.057,-4.589 5.057,-4.589 l 0.568,4.714 -1.25,8.291 z"
             style="fill:#ffffff;fill-opacity:1;fill-rule:nonzero;stroke:none"
             id="path44"
             inkscape:connector-curvature="0" /></g><g
           id="g46"
           transform="translate(310.8359,338.6992)"><path
             d="m 0,0 c 0,0 2.292,-2.833 1.459,-7.583 -0.834,-4.75 -5.057,-4.589 -5.057,-4.589 l -0.568,4.714 1.25,8.291 z"
             style="fill:#ffffff;fill-opacity:1;fill-rule:nonzero;stroke:none"
             id="path48"
             inkscape:connector-curvature="0" /></g><g
           id="g50"
           transform="translate(314.9521,73.1992)"><path
             d="m 0,0 c 0.12,-0.702 0.101,-1.21 0.07,-2.85 -3.38,-1.509 -8.233,-1.733 -10.744,-1.025 -1.494,0.422 -2.63,0.893 -3.25,1.906 0.586,2.734 1.28,5.939 1.584,7.309 0.3,1.35 0.43,2.21 0.34,2.91 -0.859,7.21 -3.54,20.54 -4.66,28.67 -1.13,8.12 -3.64,28.38 -3.84,31.23 -0.109,1.55 -0.97,4.08 -0.83,8.27 0.36,10.98 2.08,28.8 2.08,28.8 0,0 21.28,2.18 21.75,-3.47 0.471,-5.649 -6.12,-25.62 -6.12,-25.62 0,0 -0.56,-5.069 -1.63,-11.75 0,-4.63 1.13,-17.42 1.34,-25.3 0.2,-7.87 -0.25,-23.62 0.16,-28 C -3.56,9.101 -2.779,7.13 -1.97,5.34 -1,3.181 -0.393,2.313 0,0"
             style="fill:#ffffff;fill-opacity:1;fill-rule:nonzero;stroke:none"
             id="path52"
             inkscape:connector-curvature="0" /></g><g
           id="g54"
           transform="translate(274.4561,150.6572)"><path
             d="m 0,0 c 0.522,-5.277 1.121,-6.369 1.456,-12.009 1.085,-18.263 7.745,-44.056 8.48,-50.315 0.321,-2.738 0.415,-4.963 0.293,-6.822 -0.269,-4.096 -3.125,-8.406 -6.625,-10.875 -4.036,-2.845 -7.943,-4.907 -6.771,-5.812 l 7.808,1.82 c 2.314,0.539 4.53,1.418 6.583,2.616 2.858,1.668 7.918,1.568 9.88,3.595 0.151,7.084 -2.188,6.886 -2.438,11.386 -0.25,4.5 -1.291,45.083 -2.291,51.458 -0.376,2.398 -0.302,2.036 -0.73,4.474 -0.021,0.116 -0.032,0.247 -0.027,0.365 0.206,5.833 1.801,8.082 2.09,12.494 C 17.998,6.805 2.197,2.18 0,0"
             style="fill:#ffffff;fill-opacity:1;fill-rule:nonzero;stroke:none"
             id="path56"
             inkscape:connector-curvature="0" /></g><g
           id="g58"
           transform="translate(317.7021,168.9492)"><path
             d="m 0,0 c -1.16,-4.16 -6.66,-20.109 -6.66,-20.109 0,0 -1.35,-0.271 -3.46,-0.611 -3.81,-0.639 -10.09,-1.53 -15.239,-1.53 -8.62,0 -18.271,2.15 -18.271,2.15 0,0 -2.99,8.85 -4.12,12.72 -1.12,3.88 -6,20.88 -6.12,30.13 -0.1,7.41 2.141,21.17 3.04,26.34 0.221,1.28 0.36,2.03 0.36,2.03 h 49.83 c 0,0 3.96,-11.49 4.98,-23.7 C 4.971,19.771 3.3,11.771 0,0"
             style="fill:#1a1a47;fill-opacity:1;fill-rule:nonzero;stroke:none"
             id="path60"
             inkscape:connector-curvature="0" /></g><g
           id="g62"
           transform="translate(317.7021,168.9492)"><path
             d="m 0,0 c -1.16,-4.16 -6.66,-20.109 -6.66,-20.109 0,0 -1.35,-0.271 -3.46,-0.611 0.9,6.611 3.431,26.151 3.54,39.47 0.13,16.25 -4.5,25.75 -4.5,25.75 -25.68,-1.21 -36.51,2.94 -39.75,4.59 0.221,1.28 0.36,2.03 0.36,2.03 h 49.83 c 0,0 3.96,-11.49 4.98,-23.7 C 4.971,19.771 3.3,11.771 0,0"
             style="fill:#33305b;fill-opacity:1;fill-rule:nonzero;stroke:none"
             id="path64"
             inkscape:connector-curvature="0" /></g><g
           id="g66"
           transform="translate(313.752,246.9492)"><path
             d="m 0,0 c -0.26,-4.88 -0.26,-6.939 0.311,-12.89 0.519,-5.48 3.7,-14.27 3.7,-14.27 0,0 -4.351,-1.739 -11.38,-3.06 -9.651,-1.84 -24.341,-2.9 -39.761,2.34 0,0 2.391,8.62 2.471,20.061 0.019,1.559 -0.011,3.17 -0.101,4.819 -0.08,2.12 -0.809,5.9 -1.649,10.54 -0.16,0.87 -0.32,1.77 -0.481,2.7 -0.58,3.35 -1.16,7.03 -1.57,10.78 -0.409,3.76 -0.659,7.59 -0.56,11.24 -1.4,10.06 1.68,19.96 1.68,19.96 0,0 12.71,5.31 18.08,6.03 0,0 9.521,2.18 16.21,-0.04 8.75,-2.9 13.54,-4.59 17.471,-6.74 0.42,-0.23 2.97,-7.69 1.85,-14.26 C 4.631,27.58 2.21,14.37 0.91,6.43 0.391,3.26 0.051,0.931 0,0"
             style="fill:#d73e5c;fill-opacity:1;fill-rule:nonzero;stroke:none"
             id="path68"
             inkscape:connector-curvature="0" /></g><g
           id="g70"
           transform="translate(317.7627,219.7891)"><path
             d="m 0,0 c 0,0 -4.351,-1.739 -11.38,-3.06 -2.681,6.911 -3.181,20.72 -3.181,20.72 -7.5,1.25 -18.91,5.75 -18.91,5.75 -3,-1.42 -12.279,-3.45 -15.199,-4.069 0.02,1.559 -0.011,3.17 -0.101,4.819 -0.08,2.12 -0.809,5.901 -1.649,10.54 3.51,2.45 10.029,-2.96 10.029,-2.96 l 32.92,5.17 c 0,0 2.37,-1.389 4.37,-3.32 C -3.62,30.42 -3.96,28.091 -4.011,27.16 -4.271,22.28 -4.271,20.221 -3.7,14.271 -3.181,8.79 0,0 0,0"
             style="fill:#9e304f;fill-opacity:1;fill-rule:nonzero;stroke:none"
             id="path72"
             inkscape:connector-curvature="0" /></g><g
           id="g74"
           transform="translate(309.4121,344.1196)"><path
             d="m 0,0 c 0,-4.83 -0.97,-16.06 -4,-23.5 -1.939,-4.77 -5.13,-8.15 -8.52,-10.18 -0.04,-1.93 -0.08,-4.47 1.27,-4.68 0.391,-0.86 0.88,-1.08 0.62,-2.43 -0.91,-4.8 -6.5,-10.11 -7.87,-11.44 -1.37,-1.33 -2.229,0 -2.229,0 -1.59,1.74 -3.01,4.03 -4.081,6.03 -0.69,1.3 -1.23,2.48 -1.57,3.31 -0.859,2.12 0.38,3.82 0.38,3.82 1.48,0.18 0.94,3.36 0.82,5.06 -2.86,2.04 -5.559,5.53 -7.57,9.63 C -36.779,-16.15 -37,-5.69 -37,0 c 0,10.21 8.28,18.5 18.5,18.5 C -8.279,18.5 0,10.21 0,0"
             style="fill:#ffffff;fill-opacity:1;fill-rule:nonzero;stroke:none"
             id="path76"
             inkscape:connector-curvature="0" /></g><g
           id="g78"
           transform="translate(296.6426,310.3496)"><path
             d="m 0,0 c -1.09,-0.4 -5.54,-2.13 -6.4,-4 -0.97,-2.15 -1.52,-5.63 -2.43,-6.61 -0.771,-0.82 -2.61,-1.58 -3.21,-1.82 -0.69,1.3 -1.231,2.48 -1.57,3.31 -0.86,2.12 0.38,3.82 0.38,3.82 1.48,0.18 0.94,3.36 0.82,5.06 0,0 3.12,-1.28 5.849,-1.07 2.5,0.2 5.471,0.96 6.561,1.31"
             style="fill:#f4f4f4;fill-opacity:1;fill-rule:nonzero;stroke:none"
             id="path80"
             inkscape:connector-curvature="0" /></g><g
           id="g82"
           transform="translate(303.4033,261.418)"><path
             d="m 0,0 c 0,0 2.938,0.562 3.875,0.562 0.937,0 -1.75,-8.406 -1.75,-8.406 0,0 -0.969,1.032 -2.125,1.219 -1.156,0.188 -0.719,6.531 -0.719,6.531 z"
             style="fill:#ffffff;fill-opacity:1;fill-rule:nonzero;stroke:none"
             id="path84"
             inkscape:connector-curvature="0" /></g><g
           id="g86"
           transform="translate(318.1758,298.4224)"><path
             d="m 0,0 c 0,0 8.365,-4.3 7.865,-10.8 -0.5,-6.5 -10.291,-42.006 -11.98,-46.673 -1.689,-4.667 -44.355,9.5 -44.355,9.5 0,0 1.333,5.706 2.5,7.271 0,0 29.166,-3.104 33,-4.604 0,0 5.916,28.166 7.75,33.166 C -3.387,-7.14 0,0 0,0"
             style="fill:#e04469;fill-opacity:1;fill-rule:nonzero;stroke:none"
             id="path88"
             inkscape:connector-curvature="0" /></g><g
           id="g90"
           transform="translate(303.9922,254.1992)"><path
             d="m 0,0 c -4.43,-2.5 -38.12,-16.5 -41.24,-15.63 -3.13,0.88 -6.88,3.63 -7.38,11.88 -0.44,7.32 3.801,36.17 4.79,42.85 0.13,0.88 0.62,2.25 1.261,2.88 0.21,0.21 0.429,0.45 0.649,0.62 2.14,1.62 4.34,2.37 4.34,2.37 0.42,-0.95 0.31,-4.85 0.83,-11.7 0.061,-0.78 0.01,-1.56 -0.149,-2.32 C -37.74,26.96 -38.76,21.76 -38.7,19 c 0,-0.16 0.011,-0.32 0.03,-0.5 0.29,-2.9 2.441,-8.4 2.481,-10.72 0.069,-5.48 0.049,-6.25 0.04,-6.34 1.21,0.2 5.409,0.95 10.54,1.86 C -15.02,5.2 -0.5,7.81 -0.5,7.81 0.76,5.13 0,0 0,0"
             style="fill:#ba3e5c;fill-opacity:1;fill-rule:nonzero;stroke:none"
             id="path92"
             inkscape:connector-curvature="0" /></g><g
           id="g94"
           transform="translate(268.6631,336.8662)"><path
             d="m 0,0 c 0,0 5.854,0.988 9.23,5.375 2.599,3.375 4.099,8.146 4.099,8.146 0,0 2.046,-4.396 8.921,-7.521 C 29.125,2.875 36.591,0.75 43.546,0 43.546,0 44,16 38.75,22.5 33.5,29 19.875,32.75 10.625,27.125 1.375,21.5 0,0 0,0"
             style="fill:#0b0b3a;fill-opacity:1;fill-rule:nonzero;stroke:none"
             id="path96"
             inkscape:connector-curvature="0" /></g><g
           id="g98"
           transform="translate(294.9111,78.5352)"><path
             d="m 0,0 c 0,0 -4.191,-8.281 -16.07,-7.2 0,0 -6.24,-3.761 -8.427,-5.511 -2.188,-1.75 -0.688,-2.437 -0.313,-2.437 h 9.37 c 0.732,0 1.436,0.241 2.011,0.694 0.859,0.677 2.403,1.772 4.682,2.951 2.035,1.054 3.272,1.545 4.659,1.945 0.425,0.123 0.864,-0.147 0.941,-0.583 l 0.551,-5.007 h 2.583 c 0,0 0.624,3.615 0.785,7.969 C 1.461,-4.367 1.93,-2.555 0,0"
             style="fill:#d73e5c;fill-opacity:1;fill-rule:nonzero;stroke:none"
             id="path100"
             inkscape:connector-curvature="0" /></g><g
           id="g102"
           transform="translate(302.7471,66.5742)"><path
             d="M 0,0 1.375,-3.188 H 8.438 L 9,0 Z"
             style="fill:#8c8c8c;fill-opacity:1;fill-rule:nonzero;stroke:none"
             id="path104"
             inkscape:connector-curvature="0" /></g><g
           id="g106"
           transform="translate(315.0928,67.8896)"><path
             d="m 0,0 c -0.561,-1.94 -2.051,-3.87 -3.601,-4.5 h -7.37 c -1.34,0.62 -2.989,2.46 -3.42,4.35 -0.269,1.19 -0.16,2.48 0.061,3.589 0.33,1.611 0.899,2.851 0.899,2.851 8.351,-6.27 12.63,1.489 12.63,1.489 0,0 0.381,-0.84 0.66,-2.259 C 0.14,4.149 0.319,2.24 0,0"
             style="fill:#ba3e5c;fill-opacity:1;fill-rule:nonzero;stroke:none"
             id="path108"
             inkscape:connector-curvature="0" /></g><g
           id="g110"
           transform="translate(315.0928,67.8896)"><path
             d="m 0,0 c -0.561,-1.94 -2.051,-3.87 -3.601,-4.5 h -7.37 c -1.34,0.62 -2.989,2.46 -3.42,4.35 -0.269,1.19 -0.16,2.48 0.061,3.589 l 0.01,-0.009 c 0,0 0.32,-1.548 1.05,-2.747 0.487,-0.799 1.46,-1.121 2.374,-0.923 1.834,0.398 4.314,0.406 6.417,-0.252 0.636,-0.199 1.348,-0.135 1.851,0.304 0.392,0.341 0.681,0.791 1.063,1.237 0.428,0.74 1.448,2.055 1.424,4.011 V 5.52 C 0.14,4.149 0.319,2.24 0,0"
             style="fill:#d73e5c;fill-opacity:1;fill-rule:nonzero;stroke:none"
             id="path112"
             inkscape:connector-curvature="0" /></g><g
           id="g114"
           transform="translate(283.4717,305.1675)"><path
             d="m 0,0 c 0,0 0.963,-8.625 5.21,-13.281 0,0 -1.409,0.465 -4.028,-2.687 -0.357,-0.429 -1.052,-0.265 -1.178,0.279 -0.813,3.506 -3.477,12.091 -1.995,15.076 0,0 0.755,0.887 1.991,0.613"
             style="fill:#9e304f;fill-opacity:1;fill-rule:nonzero;stroke:none"
             id="path116"
             inkscape:connector-curvature="0" /></g><g
           id="g118"
           transform="translate(298.0312,305.8057)"><path
             d="m 0,0 c 0,0 -1.192,-4.366 -2.597,-7.383 -1.77,-3.806 -4.735,-6.724 -4.735,-6.724 0,0 3.274,-0.606 4.789,-2.762 0.251,-0.358 0.731,-0.272 0.932,0.116 0.983,1.897 1.545,3.615 2.639,7.522 1.248,4.451 1.299,6.893 1.153,8.737 0,0 -0.861,1.055 -2.181,0.494"
             style="fill:#9e304f;fill-opacity:1;fill-rule:nonzero;stroke:none"
             id="path120"
             inkscape:connector-curvature="0" /></g><g
           id="g122"
           transform="translate(265.4521,253.3296)"><path
             d="M 0,0 C -3.413,2.912 0.66,8.47 0.37,10.41 0.09,12.35 0.09,12.68 -0.16,14.64 -0.279,15.57 -0.47,18 -0.13,19.37 0.16,16.47 2.311,10.97 2.351,8.65 2.42,3.17 2.4,2.4 2.391,2.31 3.601,2.51 14.898,4.534 20.028,5.444 21.229,4.814 2.298,-1.96 0,0"
             style="fill:#ad3457;fill-opacity:1;fill-rule:nonzero;stroke:none"
             id="path124"
             inkscape:connector-curvature="0" /></g><g
           id="g126"
           transform="translate(271.459,256.269)"><path
             d="m 0,0 -3.611,-0.635 c 0,0 -4.101,0.357 -6.767,0.19 -1.954,-0.122 -4.065,-0.725 -5.177,-1.104 -0.415,-0.141 -0.721,0.178 -0.863,0.593 -0.21,0.616 -0.584,2.319 -0.438,3.699 0.141,1.354 0.597,2.763 0.941,3.567 0.161,0.375 0.478,0.655 0.863,0.792 1.342,0.473 2.94,0.422 5.278,0.223 2.812,-0.239 4.011,-1.218 5.312,-2.739 L -2.977,2.821 C -2.494,2.257 -1.839,1.869 -1.112,1.718 L 0.674,1.347 c 0,0 -0.198,-0.318 -0.366,-0.649 C 0.102,0.292 0,0 0,0"
             style="fill:#ffffff;fill-opacity:1;fill-rule:nonzero;stroke:none"
             id="path128"
             inkscape:connector-curvature="0" /></g><g
           id="g130"
           transform="translate(281.9922,333.3193)"><path
             d="m 0,0 c 0,-0.656 -0.336,-1.187 -0.75,-1.187 -0.414,0 -0.75,0.531 -0.75,1.187 0,0.656 0.336,1.187 0.75,1.187 C -0.336,1.187 0,0.656 0,0"
             style="fill:#333333;fill-opacity:1;fill-rule:nonzero;stroke:none"
             id="path132"
             inkscape:connector-curvature="0" /></g><g
           id="g134"
           transform="translate(296.8789,333.3193)"><path
             d="m 0,0 c 0,-0.656 -0.336,-1.187 -0.75,-1.187 -0.414,0 -0.75,0.531 -0.75,1.187 0,0.656 0.336,1.187 0.75,1.187 C -0.336,1.187 0,0.656 0,0"
             style="fill:#333333;fill-opacity:1;fill-rule:nonzero;stroke:none"
             id="path136"
             inkscape:connector-curvature="0" /></g><g
           id="g138"
           transform="translate(279.9561,336.5464)"><path
             d="M 0,0 C 0,0 2.354,1.89 5.697,-0.156"
             style="fill:none;stroke:#231f20;stroke-width:1;stroke-linecap:round;stroke-linejoin:miter;stroke-miterlimit:10;stroke-dasharray:none;stroke-opacity:1"
             id="path140"
             inkscape:connector-curvature="0" /></g><g
           id="g142"
           transform="translate(294.7852,336.5464)"><path
             d="M 0,0 C 0,0 2.354,1.89 5.698,-0.156"
             style="fill:none;stroke:#231f20;stroke-width:1;stroke-linecap:round;stroke-linejoin:miter;stroke-miterlimit:10;stroke-dasharray:none;stroke-opacity:1"
             id="path144"
             inkscape:connector-curvature="0" /></g><g
           id="g146"
           transform="translate(285.6221,318.1162)"><path
             d="M 0,0 C 0,0 2.834,-1.75 8.917,-0.333"
             style="fill:none;stroke:#231f20;stroke-width:1;stroke-linecap:round;stroke-linejoin:miter;stroke-miterlimit:10;stroke-dasharray:none;stroke-opacity:1"
             id="path148"
             inkscape:connector-curvature="0" /></g><g
           id="g150"
           transform="translate(289.2061,328.6162)"><path
             d="M 0,0 C 0,0 -3,-2.5 0,-4.75"
             style="fill:none;stroke:#231f20;stroke-width:1;stroke-linecap:round;stroke-linejoin:miter;stroke-miterlimit:10;stroke-dasharray:none;stroke-opacity:1"
             id="path152"
             inkscape:connector-curvature="0" /></g><path
           d="m 91.193,63.532 h -3.5 v 111.5 h 3.5 z"
           style="fill:#ffffff;fill-opacity:1;fill-rule:nonzero;stroke:none"
           id="path154"
           inkscape:connector-curvature="0" /><g
           id="g156"
           transform="translate(91.2813,63.3555)"><path
             d="m 0,0 h -3.677 c -0.615,0 -1.115,0.499 -1.115,1.114 v 0.875 c 0,0.615 0.5,1.115 1.115,1.115 H 0 c 0.616,0 1.115,-0.5 1.115,-1.115 V 1.114 C 1.115,0.499 0.616,0 0,0"
             style="fill:#ffffff;fill-opacity:1;fill-rule:nonzero;stroke:none"
             id="path158"
             inkscape:connector-curvature="0" /></g><path
           d="m 415.789,64.637 h -3.5 v 110.396 h 3.5 z"
           style="fill:#ffffff;fill-opacity:1;fill-rule:nonzero;stroke:none"
           id="path160"
           inkscape:connector-curvature="0" /><g
           id="g162"
           transform="translate(415.8779,63.3555)"><path
             d="m 0,0 h -3.678 c -0.615,0 -1.114,0.499 -1.114,1.114 v 0.875 c 0,0.615 0.499,1.115 1.114,1.115 H 0 c 0.615,0 1.114,-0.5 1.114,-1.115 V 1.114 C 1.114,0.499 0.615,0 0,0"
             style="fill:#ffffff;fill-opacity:1;fill-rule:nonzero;stroke:none"
             id="path164"
             inkscape:connector-curvature="0" /></g><g
           id="g166"
           transform="translate(443.1143,173.9492)"><path
             d="m 0,0 h -385.984 c -1.799,0 -3.258,1.459 -3.258,3.258 0,1.8 1.459,3.258 3.258,3.258 H 0 C 1.8,6.516 3.258,5.058 3.258,3.258 3.258,1.459 1.8,0 0,0"
             style="fill:#d19f9c;fill-opacity:1;fill-rule:nonzero;stroke:none"
             id="path168"
             inkscape:connector-curvature="0" /></g><g
           id="g170"><g
             id="g172" /><g
             id="g184"><g
               clip-path="url(#clipPath176)"
               id="g182"
               style="opacity:0.39999402"><g
                 transform="translate(201.2915,334.8179)"
                 id="g180"><path
                   d="m 0,0 h 11.135 c 4.678,0 8.47,-3.792 8.47,-8.47 v -9.589 -0.053 c -0.006,-2.106 -0.862,-4.12 -2.375,-5.587 l -0.518,-0.502 c -1.192,-1.156 -2.69,-1.992 -4.332,-2.236 -0.406,-0.061 -0.822,-0.092 -1.245,-0.092 H 0 c -4.678,0 -8.47,3.792 -8.47,8.47 V -8.47 C -8.47,-3.792 -4.678,0 0,0"
                   style="fill:#ffffff;fill-opacity:1;fill-rule:nonzero;stroke:none"
                   id="path178"
                   inkscape:connector-curvature="0" /></g></g></g></g><g
           id="g186"><g
             id="g188" /><g
             id="g204"><g
               clip-path="url(#clipPath192)"
               id="g202"
               style="opacity:0.30000299"><g
                 transform="translate(212.2598,325.9287)"
                 id="g196"><path
                   d="m 0,0 c -1.454,1.919 -3.751,3.163 -6.346,3.159 -4.206,-0.006 -7.769,-3.432 -7.931,-7.636 -0.175,-4.533 3.449,-8.264 7.944,-8.264 2.706,0 5.093,1.355 6.529,3.421 l -6.529,4.529 z"
                   style="fill:#3d3d72;fill-opacity:1;fill-rule:nonzero;stroke:none"
                   id="path194"
                   inkscape:connector-curvature="0" /></g><g
                 transform="translate(214.125,325.9287)"
                 id="g200"><path
                   d="M 0,0 -6.333,-4.791 0.196,-9.32 c 0.893,1.285 1.421,2.844 1.421,4.529 C 1.617,-2.989 1.01,-1.333 0,0"
                   style="fill:#d73e5c;fill-opacity:1;fill-rule:nonzero;stroke:none"
                   id="path198"
                   inkscape:connector-curvature="0" /></g></g></g></g><g
           id="g206"
           transform="translate(390.5723,384.9829)"><path
             d="m 0,0 h -37.833 c -7.318,0 -13.25,-5.932 -13.25,-13.25 v -15 c 0,-2.753 0.84,-5.309 2.277,-7.428 l -6.048,-10.222 9.898,6.489 c 2.059,-1.316 4.498,-2.089 7.123,-2.089 H 0 c 7.317,0 13.25,5.933 13.25,13.25 v 15 C 13.25,-5.932 7.317,0 0,0"
             style="fill:#ffffff;fill-opacity:1;fill-rule:nonzero;stroke:none"
             id="path208"
             inkscape:connector-curvature="0" /></g><g
           id="g210"
           transform="translate(360.3848,353.8423)"><path
             d="M 0,0 H -4.958 C -5.43,0 -5.812,0.382 -5.812,0.854 v 18.042 c 0,0.472 0.382,0.854 0.854,0.854 H 0 c 0.472,0 0.854,-0.382 0.854,-0.854 V 0.854 C 0.854,0.382 0.472,0 0,0"
             style="fill:#3d3d72;fill-opacity:1;fill-rule:nonzero;stroke:none"
             id="path212"
             inkscape:connector-curvature="0" /></g><g
           id="g214"
           transform="translate(369.5518,353.8423)"><path
             d="m 0,0 h -4.959 c -0.472,0 -0.853,0.382 -0.853,0.854 v 12.959 c 0,0.471 0.381,0.854 0.853,0.854 H 0 c 0.472,0 0.854,-0.383 0.854,-0.854 V 0.854 C 0.854,0.382 0.472,0 0,0"
             style="fill:#3d3d72;fill-opacity:1;fill-rule:nonzero;stroke:none"
             id="path216"
             inkscape:connector-curvature="0" /></g><g
           id="g218"
           transform="translate(378.7178,353.8423)"><path
             d="M 0,0 H -4.958 C -5.43,0 -5.812,0.382 -5.812,0.854 v 21.708 c 0,0.472 0.382,0.855 0.854,0.855 H 0 c 0.472,0 0.854,-0.383 0.854,-0.855 V 0.854 C 0.854,0.382 0.472,0 0,0"
             style="fill:#d73e5c;fill-opacity:1;fill-rule:nonzero;stroke:none"
             id="path220"
             inkscape:connector-curvature="0" /></g><g
           id="g222"
           transform="translate(387.8848,353.8423)"><path
             d="M 0,0 H -4.958 C -5.43,0 -5.812,0.382 -5.812,0.854 v 15.458 c 0,0.472 0.382,0.855 0.854,0.855 H 0 c 0.472,0 0.854,-0.383 0.854,-0.855 V 0.854 C 0.854,0.382 0.472,0 0,0"
             style="fill:#3d3d72;fill-opacity:1;fill-rule:nonzero;stroke:none"
             id="path224"
             inkscape:connector-curvature="0" /></g><g
           id="g226"
           transform="translate(78.8398,382.0513)"><path
             d="m 0,0 h 31.35 c 4.811,0 8.711,-3.9 8.711,-8.71 v -9.861 c 0,-1.81 -0.553,-3.49 -1.498,-4.883 l 3.977,-6.721 -6.508,4.267 c -1.353,-0.865 -2.957,-1.374 -4.682,-1.374 H 0 c -4.811,0 -8.71,3.9 -8.71,8.711 V -8.71 C -8.71,-3.9 -4.811,0 0,0"
             style="fill:#ffffff;fill-opacity:1;fill-rule:nonzero;stroke:none"
             id="path228"
             inkscape:connector-curvature="0" /></g><g
           id="g230"
           transform="translate(101.3149,360.4873)"><path
             d="m 0,0 h -23.424 c -0.363,0 -0.658,0.294 -0.658,0.657 0,0.364 0.295,0.657 0.658,0.657 h 22.922 l 9.783,8.763 c 0.27,0.242 0.686,0.219 0.928,-0.052 0.242,-0.27 0.219,-0.686 -0.052,-0.928 z"
             style="fill:#3d3d72;fill-opacity:1;fill-rule:nonzero;stroke:none"
             id="path232"
             inkscape:connector-curvature="0" /></g><g
           id="g234"
           transform="translate(111.0991,365.1309)"><path
             d="m 0,0 h -0.001 c -0.363,0.001 -0.657,0.295 -0.656,0.659 l 0.006,3.781 -3.781,0.006 c -0.363,0.001 -0.657,0.296 -0.656,0.659 0.001,0.362 0.295,0.656 0.657,0.656 h 0.002 L 0.667,5.752 0.657,0.656 C 0.657,0.294 0.362,0 0,0"
             style="fill:#3d3d72;fill-opacity:1;fill-rule:nonzero;stroke:none"
             id="path236"
             inkscape:connector-curvature="0" /></g><g
           id="g238"
           transform="translate(101.2896,371.209)"><path
             d="m 0,0 c -0.168,0 -0.337,0.064 -0.466,0.193 -0.256,0.258 -0.255,0.674 0.002,0.93 L 2.214,3.792 -0.455,6.47 C -0.711,6.727 -0.71,7.144 -0.454,7.4 -0.196,7.656 0.219,7.655 0.477,7.398 L 4.073,3.789 0.464,0.191 C 0.336,0.064 0.168,0 0,0"
             style="fill:#d73e5c;fill-opacity:1;fill-rule:nonzero;stroke:none"
             id="path240"
             inkscape:connector-curvature="0" /></g><g
           id="g242"
           transform="translate(77.8901,360.4873)"><path
             d="m 0,0 c -0.124,0 -0.249,0.035 -0.361,0.108 -0.303,0.2 -0.388,0.607 -0.188,0.911 l 5.564,8.461 6.457,-2.825 3.366,8.52 h 10.855 c 0.363,0 0.658,-0.295 0.658,-0.657 0,-0.364 -0.295,-0.658 -0.658,-0.658 H 15.732 L 12.195,4.904 5.504,7.831 0.55,0.296 C 0.423,0.104 0.213,0 0,0"
             style="fill:#d73e5c;fill-opacity:1;fill-rule:nonzero;stroke:none"
             id="path244"
             inkscape:connector-curvature="0" /></g><g
           id="g246"
           transform="translate(432.6221,294.3403)"><path
             d="m 0,0 h -29.333 c -7.317,0 -13.25,-5.933 -13.25,-13.25 v -15 c 0,-2.753 0.841,-5.309 2.277,-7.428 l -6.048,-10.223 9.898,6.49 c 2.059,-1.316 4.498,-2.089 7.123,-2.089 L 0,-41.5 c 7.318,0 13.25,5.932 13.25,13.25 v 15 C 13.25,-5.933 7.318,0 0,0"
             style="fill:#ffffff;fill-opacity:1;fill-rule:nonzero;stroke:none"
             id="path248"
             inkscape:connector-curvature="0" /></g><g
           id="g250"
           transform="translate(400.0049,270.9395)"><path
             d="m 0,0 -2.37,1.557 c -0.484,0.317 -0.617,0.965 -0.3,1.448 L 4.353,13.7 c 0.317,0.482 0.965,0.616 1.448,0.3 l 2.371,-1.557 c 0.482,-0.318 0.617,-0.965 0.3,-1.448 L 1.448,0.3 C 1.132,-0.183 0.483,-0.317 0,0"
             style="fill:#3d3d72;fill-opacity:1;fill-rule:nonzero;stroke:none"
             id="path252"
             inkscape:connector-curvature="0" /></g><g
           id="g254"
           transform="translate(439.6152,271.0767)"><path
             d="m 0,0 2.371,1.557 c 0.483,0.317 0.617,0.965 0.3,1.448 L -4.353,13.699 C -4.669,14.182 -5.317,14.316 -5.8,14 l -2.371,-1.558 c -0.482,-0.317 -0.617,-0.965 -0.3,-1.448 L -1.447,0.3 C -1.131,-0.183 -0.482,-0.317 0,0"
             style="fill:#d73e5c;fill-opacity:1;fill-rule:nonzero;stroke:none"
             id="path256"
             inkscape:connector-curvature="0" /></g><g
           id="g258"
           transform="translate(408.8848,281.2432)"><path
             d="m 0,0 -6.342,-9.687 c -0.147,-0.225 -0.115,-0.522 0.077,-0.71 1.898,-1.853 11.49,-11.036 15.887,-11.651 0,0 5.258,0.727 10.313,7.708 0.226,0.313 0.347,0.707 0.291,1.089 -0.023,0.151 -0.064,0.322 -0.132,0.511 -0.274,0.752 -11.087,10.878 -11.087,10.878 0,0 -3.799,-0.441 -5.339,-0.305 C 2.456,-2.059 1.006,-0.586 0.443,0.036 0.319,0.173 0.102,0.155 0,0"
             style="fill:#3d3d72;fill-opacity:1;fill-rule:nonzero;stroke:none"
             id="path260"
             inkscape:connector-curvature="0" /></g><g
           id="g262"
           transform="translate(431.0439,281.2969)"><path
             d="m 0,0 6.233,-9.688 c 0.13,-0.208 0.038,-0.48 -0.191,-0.563 -1.346,-0.482 -5.563,-1.949 -8.107,-2.543 l -9.48,6.467 c 0,0 -3.215,-4.058 -6.933,-1.679 -0.281,0.18 -0.334,0.572 -0.098,0.809 1.289,1.29 5.106,5.092 6.21,5.969 1.207,0.959 5.237,-0.626 6.986,-0.94 0.286,-0.051 0.583,-0.017 0.852,0.096 1.347,0.566 3.213,1.718 3.97,2.199 C -0.369,0.248 -0.119,0.19 0,0"
             style="fill:#d73e5c;fill-opacity:1;fill-rule:nonzero;stroke:none"
             id="path264"
             inkscape:connector-curvature="0" /></g><g
           id="g266"
           transform="translate(407.7715,264.5645)"><path
             d="M 0,0 C -0.354,0.284 -0.455,0.773 -0.239,1.172 0.187,1.955 0.978,3.275 2.044,4.452 3.687,6.265 12.926,-1.058 12.721,-2.119 12.515,-3.18 10.735,-5.78 9.812,-6.157 8.946,-6.509 3.1,-2.48 0,0"
             style="fill:#d73e5c;fill-opacity:1;fill-rule:nonzero;stroke:none"
             id="path268"
             inkscape:connector-curvature="0" /></g><g
           id="g270"><g
             id="g272" /><g
             id="g284"><g
               clip-path="url(#clipPath276)"
               id="g282"
               style="opacity:0.39999402"><g
                 transform="translate(236.9175,380.5171)"
                 id="g280"><path
                   d="m 0,0 h -33.014 c -0.471,0 -0.856,0.385 -0.856,0.856 0,0.471 0.385,0.856 0.856,0.856 H 0 C 0.471,1.712 0.856,1.327 0.856,0.856 0.856,0.385 0.471,0 0,0 m -33.87,-3.607 c 0,0.471 0.385,0.856 0.856,0.856 h 24.353 c 0.471,0 0.856,-0.385 0.856,-0.856 0,-0.471 -0.385,-0.856 -0.856,-0.856 h -24.353 c -0.471,0 -0.856,0.385 -0.856,0.856 M 0,-8.926 h -33.014 c -0.471,0 -0.856,0.385 -0.856,0.856 0,0.471 0.385,0.856 0.856,0.856 H 0 c 0.471,0 0.856,-0.385 0.856,-0.856 0,-0.471 -0.385,-0.856 -0.856,-0.856 m -33.87,-3.607 c 0,0.471 0.385,0.856 0.856,0.856 h 17.442 c 0.471,0 0.856,-0.385 0.856,-0.856 0,-0.47 -0.385,-0.856 -0.856,-0.856 h -17.442 c -0.471,0 -0.856,0.386 -0.856,0.856 M 0,-17.852 h -33.014 c -0.471,0 -0.856,0.386 -0.856,0.856 0,0.471 0.385,0.856 0.856,0.856 H 0 c 0.471,0 0.856,-0.385 0.856,-0.856 0,-0.47 -0.385,-0.856 -0.856,-0.856 m 8.728,-1.096 c 1.034,1.525 1.64,3.365 1.64,5.347 v 10.799 c 0,5.269 -4.271,9.54 -9.54,9.54 h -34.333 c -5.268,0 -9.539,-4.271 -9.539,-9.54 v -10.799 c 0,-5.268 4.271,-9.539 9.539,-9.539 H 0.828 c 1.89,0 3.646,0.557 5.128,1.504 l 7.127,-4.673 z"
                   style="fill:#ffffff;fill-opacity:1;fill-rule:nonzero;stroke:none"
                   id="path278"
                   inkscape:connector-curvature="0" /></g></g></g></g><g
           id="g286"><g
             id="g288" /><g
             id="g300"><g
               clip-path="url(#clipPath292)"
               id="g298"
               style="opacity:0.39999402"><g
                 transform="translate(75.2012,294.4404)"
                 id="g296"><path
                   d="m 0,0 h 15.776 c 6.627,0 11.999,-5.373 11.999,-12 v -13.584 c 0,-2.494 -0.761,-4.809 -2.062,-6.727 l 5.478,-9.259 -8.964,5.878 c -1.865,-1.192 -4.074,-1.892 -6.451,-1.892 H 0 c -6.627,0 -12,5.372 -12,12 L -12,-12 c 0,6.627 5.373,12 12,12"
                   style="fill:#ffffff;fill-opacity:1;fill-rule:nonzero;stroke:none"
                   id="path294"
                   inkscape:connector-curvature="0" /></g></g></g></g><g
           id="g302"><g
             id="g304" /><g
             id="g336"><g
               clip-path="url(#clipPath308)"
               id="g334"
               style="opacity:0.39999402"><g
                 transform="translate(89.8442,282.0303)"
                 id="g312"><path
                   d="M 0,0 C 2.439,0.307 4.487,-1.748 4.175,-4.185 3.957,-5.885 2.553,-7.24 0.846,-7.401 -1.499,-7.623 -3.45,-5.669 -3.225,-3.325 -3.061,-1.617 -1.703,-0.214 0,0 m -4.419,-4.43 c 0.122,-0.819 0.444,-1.572 0.916,-2.209 l -0.445,-0.444 1.04,-1.041 0.445,0.445 c 0.637,-0.471 1.39,-0.794 2.209,-0.916 v -0.628 h 1.472 v 0.628 c 0.819,0.122 1.572,0.444 2.209,0.915 l 0.445,-0.444 1.04,1.041 -0.445,0.444 c 0.471,0.637 0.794,1.39 0.916,2.209 h 0.628 v 1.472 H 5.383 C 5.261,-2.139 4.939,-1.386 4.468,-0.749 L 4.912,-0.304 3.872,0.736 3.427,0.292 C 2.79,0.763 2.037,1.085 1.218,1.207 V 1.835 H -0.254 V 1.207 C -1.073,1.085 -1.826,0.763 -2.463,0.292 l -0.445,0.444 -1.04,-1.04 0.445,-0.445 c -0.472,-0.637 -0.794,-1.39 -0.916,-2.209 H -5.047 V -4.43 Z"
                   style="fill:#3d3d72;fill-opacity:1;fill-rule:nonzero;stroke:none"
                   id="path310"
                   inkscape:connector-curvature="0" /></g><g
                 transform="translate(87.7461,278.3364)"
                 id="g316"><path
                   d="m 0,0 c 0,-1.425 1.155,-2.581 2.58,-2.581 1.425,0 2.581,1.156 2.581,2.581 0,1.425 -1.156,2.58 -2.581,2.58 C 1.155,2.58 0,1.425 0,0"
                   style="fill:#3d3d72;fill-opacity:1;fill-rule:nonzero;stroke:none"
                   id="path314"
                   inkscape:connector-curvature="0" /></g><g
                 transform="translate(83.6504,271.9019)"
                 id="g320"><path
                   d="m 0,0 c 2.331,0.293 4.288,-1.67 3.989,-3.999 -0.208,-1.624 -1.55,-2.918 -3.18,-3.073 -2.24,-0.212 -4.105,1.655 -3.89,3.895 C -2.924,-1.545 -1.626,-0.205 0,0 m -4.222,-4.232 c 0.117,-0.783 0.425,-1.503 0.875,-2.111 l -0.425,-0.425 0.994,-0.994 0.425,0.425 c 0.608,-0.451 1.328,-0.759 2.111,-0.875 v -0.601 h 1.406 v 0.601 c 0.782,0.116 1.502,0.424 2.11,0.875 L 3.7,-7.762 4.694,-6.768 4.269,-6.343 c 0.45,0.608 0.758,1.328 0.875,2.111 h 0.6 v 1.406 h -0.6 c -0.117,0.782 -0.425,1.502 -0.875,2.11 L 4.694,-0.291 3.7,0.704 3.275,0.279 C 2.667,0.729 1.946,1.037 1.164,1.153 V 1.754 H -0.242 V 1.153 C -1.025,1.037 -1.745,0.729 -2.353,0.278 l -0.425,0.426 -0.994,-0.995 0.425,-0.425 c -0.45,-0.608 -0.758,-1.328 -0.875,-2.11 h -0.6 v -1.406 z"
                   style="fill:#3d3d72;fill-opacity:1;fill-rule:nonzero;stroke:none"
                   id="path318"
                   inkscape:connector-curvature="0" /></g><g
                 transform="translate(81.646,268.3726)"
                 id="g324"><path
                   d="m 0,0 c 0,-1.362 1.104,-2.465 2.465,-2.465 1.362,0 2.466,1.103 2.466,2.465 0,1.361 -1.104,2.465 -2.466,2.465 C 1.104,2.465 0,1.361 0,0"
                   style="fill:#3d3d72;fill-opacity:1;fill-rule:nonzero;stroke:none"
                   id="path322"
                   inkscape:connector-curvature="0" /></g><g
                 transform="translate(76.1196,285.8877)"
                 id="g328"><path
                   d="m 0,0 c 3.521,0.443 6.477,-2.523 6.026,-6.041 -0.314,-2.455 -2.341,-4.409 -4.805,-4.643 -3.384,-0.32 -6.201,2.5 -5.876,5.885 C -4.418,-2.334 -2.458,-0.309 0,0 m -6.378,-6.395 c 0.175,-1.182 0.641,-2.269 1.321,-3.188 l -0.642,-0.642 1.502,-1.502 0.642,0.642 c 0.919,-0.68 2.007,-1.145 3.189,-1.322 v -0.906 h 2.124 v 0.906 c 1.182,0.176 2.269,0.641 3.189,1.322 l 0.641,-0.642 1.502,1.502 -0.642,0.642 c 0.68,0.919 1.146,2.006 1.322,3.188 H 8.677 V -4.27 H 7.771 C 7.594,-3.088 7.129,-2 6.449,-1.081 L 7.09,-0.439 5.588,1.062 4.947,0.421 C 4.027,1.101 2.94,1.566 1.758,1.742 V 2.649 H -0.366 V 1.742 C -1.549,1.566 -2.636,1.101 -3.555,0.42 l -0.642,0.642 -1.502,-1.501 0.642,-0.642 C -5.738,-2 -6.203,-3.088 -6.379,-4.27 h -0.907 v -2.125 z"
                   style="fill:#3d3d72;fill-opacity:1;fill-rule:nonzero;stroke:none"
                   id="path326"
                   inkscape:connector-curvature="0" /></g><g
                 transform="translate(73.0908,280.5557)"
                 id="g332"><path
                   d="m 0,0 c 0,-2.057 1.667,-3.725 3.725,-3.725 2.056,0 3.724,1.668 3.724,3.725 0,2.057 -1.668,3.724 -3.724,3.724 C 1.667,3.724 0,2.057 0,0"
                   style="fill:#3d3d72;fill-opacity:1;fill-rule:nonzero;stroke:none"
                   id="path330"
                   inkscape:connector-curvature="0" /></g></g></g></g><g
           id="g338"><g
             id="g340" /><g
             id="g372"><g
               clip-path="url(#clipPath344)"
               id="g370"
               style="opacity:0.39999402"><g
                 transform="translate(372.5684,314.9766)"
                 id="g348"><path
                   d="m 0,0 c 0.36,-3.751 -2.762,-6.876 -6.513,-6.521 -2.73,0.258 -4.976,2.425 -5.325,5.145 -0.5,3.899 2.777,7.186 6.68,6.695 C -2.436,4.977 -0.262,2.732 0,0 M 2.916,-1.768 V 0.586 H 1.911 C 1.716,1.897 1.2,3.102 0.446,4.121 L 1.157,4.832 -0.508,6.497 -1.219,5.785 C -2.237,6.539 -3.442,7.055 -4.753,7.25 V 8.255 H -7.107 V 7.25 C -8.417,7.055 -9.623,6.54 -10.642,5.786 l -0.711,0.711 -1.665,-1.665 0.712,-0.711 C -13.06,3.102 -13.575,1.897 -13.771,0.586 h -1.004 v -2.354 h 1.004 c 0.196,-1.31 0.711,-2.515 1.465,-3.534 l -0.712,-0.711 1.665,-1.665 0.711,0.712 c 1.02,-0.755 2.225,-1.27 3.535,-1.465 v -1.006 h 2.354 v 1.006 c 1.311,0.195 2.516,0.711 3.534,1.465 l 0.711,-0.712 1.665,1.665 -0.712,0.712 c 0.754,1.018 1.27,2.223 1.465,3.533 z"
                   style="fill:#ffffff;fill-opacity:1;fill-rule:nonzero;stroke:none"
                   id="path346"
                   inkscape:connector-curvature="0" /></g><g
                 transform="translate(370.7666,314.3862)"
                 id="g352"><path
                   d="m 0,0 c 0,-2.28 -1.849,-4.128 -4.128,-4.128 -2.28,0 -4.128,1.848 -4.128,4.128 0,2.28 1.848,4.127 4.128,4.127 C -1.849,4.127 0,2.28 0,0"
                   style="fill:#ffffff;fill-opacity:1;fill-rule:nonzero;stroke:none"
                   id="path350"
                   inkscape:connector-curvature="0" /></g><g
                 transform="translate(380.2764,303.1147)"
                 id="g356"><path
                   d="m 0,0 c 0.231,-2.414 -1.778,-4.426 -4.191,-4.197 -1.758,0.166 -3.204,1.561 -3.428,3.311 -0.321,2.51 1.787,4.625 4.299,4.309 C -1.568,3.203 -0.169,1.758 0,0 M 1.876,-1.138 V 0.377 H 1.229 C 1.104,1.221 0.771,1.997 0.286,2.652 L 0.744,3.11 -0.327,4.181 -0.785,3.723 C -1.44,4.208 -2.216,4.54 -3.06,4.666 V 5.313 H -4.574 V 4.666 C -5.418,4.541 -6.193,4.208 -6.849,3.723 L -7.307,4.181 -8.378,3.11 -7.921,2.652 C -8.406,1.997 -8.737,1.221 -8.863,0.377 H -9.51 v -1.515 h 0.647 c 0.126,-0.843 0.458,-1.619 0.943,-2.274 l -0.458,-0.458 1.071,-1.071 0.458,0.457 c 0.656,-0.485 1.431,-0.817 2.275,-0.942 v -0.647 h 1.514 v 0.647 c 0.844,0.125 1.62,0.457 2.275,0.943 l 0.458,-0.458 1.071,1.071 -0.458,0.458 c 0.485,0.655 0.818,1.431 0.943,2.274 z"
                   style="fill:#ffffff;fill-opacity:1;fill-rule:nonzero;stroke:none"
                   id="path354"
                   inkscape:connector-curvature="0" /></g><g
                 transform="translate(379.1162,302.7344)"
                 id="g360"><path
                   d="m 0,0 c 0,-1.467 -1.189,-2.656 -2.657,-2.656 -1.467,0 -2.656,1.189 -2.656,2.656 0,1.467 1.189,2.657 2.656,2.657 C -1.189,2.657 0,1.467 0,0"
                   style="fill:#ffffff;fill-opacity:1;fill-rule:nonzero;stroke:none"
                   id="path358"
                   inkscape:connector-curvature="0" /></g><g
                 transform="translate(396.8125,318.7891)"
                 id="g364"><path
                   d="m 0,0 c 0.52,-5.415 -3.986,-9.926 -9.4,-9.414 -3.942,0.373 -7.184,3.501 -7.687,7.428 -0.722,5.628 4.008,10.372 9.641,9.664 C -3.516,7.183 -0.378,3.944 0,0 M 4.209,-2.552 V 0.846 H 2.758 C 2.477,2.737 1.732,4.477 0.644,5.948 L 1.671,6.975 -0.732,9.377 -1.76,8.35 c -1.469,1.088 -3.209,1.833 -5.1,2.114 v 1.452 h -3.399 V 10.465 C -12.15,10.184 -13.89,9.439 -15.36,8.351 l -1.027,1.026 -2.403,-2.402 1.026,-1.027 c -1.088,-1.47 -1.832,-3.211 -2.113,-5.102 h -1.451 v -3.398 h 1.451 c 0.282,-1.891 1.026,-3.631 2.114,-5.101 l -1.027,-1.027 2.403,-2.403 1.027,1.027 c 1.47,-1.089 3.211,-1.833 5.101,-2.114 v -1.452 h 3.399 v 1.452 c 1.89,0.282 3.631,1.026 5.1,2.114 l 1.028,-1.027 2.403,2.403 -1.027,1.027 c 1.087,1.47 1.832,3.21 2.114,5.101 z"
                   style="fill:#ffffff;fill-opacity:1;fill-rule:nonzero;stroke:none"
                   id="path362"
                   inkscape:connector-curvature="0" /></g><g
                 transform="translate(394.2109,317.936)"
                 id="g368"><path
                   d="m 0,0 c 0,-3.291 -2.667,-5.958 -5.958,-5.958 -3.291,0 -5.958,2.667 -5.958,5.958 0,3.291 2.667,5.958 5.958,5.958 C -2.667,5.958 0,3.291 0,0"
                   style="fill:#ffffff;fill-opacity:1;fill-rule:nonzero;stroke:none"
                   id="path366"
                   inkscape:connector-curvature="0" /></g></g></g></g><g
           id="g374"><g
             id="g376" /><g
             id="g388"><g
               clip-path="url(#clipPath380)"
               id="g386"
               style="opacity:0.58000201"><g
                 transform="translate(221.5972,202.2393)"
                 id="g384"><path
                   d="m 0,0 -1.57,-18.17 c -0.06,-0.75 -0.69,-1.33 -1.45,-1.33 h -14.95 c -0.76,0 -1.39,0.58 -1.45,1.33 L -20.99,0 c -0.17,1.96 1.37,3.65 3.34,3.65 h 14.3 c 1.17,0 2.19,-0.589 2.79,-1.49 C -0.15,1.55 0.07,0.8 0,0"
                   style="fill:#e1ebf9;fill-opacity:1;fill-rule:nonzero;stroke:none"
                   id="path382"
                   inkscape:connector-curvature="0" /></g></g></g></g><g
           id="g390"
           transform="translate(221.5972,202.2393)"><path
             d="m 0,0 -1.57,-18.17 c -0.06,-0.75 -0.69,-1.33 -1.45,-1.33 h -12.34 l -1.56,18.01 c -0.17,1.96 1.38,3.65 3.35,3.65 H -0.56 C -0.15,1.55 0.07,0.8 0,0"
             style="fill:#ffffff;fill-opacity:1;fill-rule:nonzero;stroke:none"
             id="path392"
             inkscape:connector-curvature="0" /></g><g
           id="g394"
           transform="translate(220.6782,186.0117)"><path
             d="m 0,0 h -2.136 c -0.414,0 -0.75,0.336 -0.75,0.75 0,0.414 0.336,0.75 0.75,0.75 H 0 c 1.121,0 2.081,0.658 2.233,1.531 l 1.648,9.47 C 3.975,13.036 3.743,13.447 3.532,13.698 3.11,14.2 2.406,14.5 1.648,14.5 h -3.784 c -0.414,0 -0.75,0.336 -0.75,0.75 0,0.414 0.336,0.75 0.75,0.75 h 3.784 c 1.195,0 2.329,-0.5 3.032,-1.336 0.588,-0.7 0.829,-1.56 0.679,-2.421 L 3.71,2.774 C 3.431,1.167 1.871,0 0,0"
             style="fill:#ffffff;fill-opacity:1;fill-rule:nonzero;stroke:none"
             id="path396"
             inkscape:connector-curvature="0" /></g><g
           id="g398"
           transform="translate(222.2344,180.4648)"><path
             d="m 0,0 h -22.266 c -0.835,0 -1.513,0.678 -1.513,1.514 0,0.835 0.678,1.512 1.513,1.512 H 0 C 0.835,3.026 1.513,2.349 1.513,1.514 1.513,0.678 0.835,0 0,0"
             style="fill:#37396b;fill-opacity:1;fill-rule:nonzero;stroke:none"
             id="path400"
             inkscape:connector-curvature="0" /></g><g
           id="g402"><g
             id="g404" /><g
             id="g460"><g
               clip-path="url(#clipPath408)"
               id="g458"
               style="opacity:0.39999402"><g
                 id="g424"><g
                   id="g414" /><g
                   id="g422"><g
                     clip-path="url(#clipPath412)"
                     id="g420"
                     style="opacity:0.39999402"><g
                       transform="translate(108.8887,339.7744)"
                       id="g418"><path
                         d="m 0,0 c -9.229,0 -16.738,-7.508 -16.738,-16.737 0,-9.229 7.509,-16.737 16.738,-16.737 9.229,0 16.737,7.508 16.737,16.737 C 16.737,-7.508 9.229,0 0,0 m 0,-36.529 c -10.914,0 -19.792,8.879 -19.792,19.792 0,10.913 8.878,19.792 19.792,19.792 10.913,0 19.792,-8.879 19.792,-19.792 0,-10.913 -8.879,-19.792 -19.792,-19.792"
                         style="fill:#ffffff;fill-opacity:1;fill-rule:nonzero;stroke:none"
                         id="path416"
                         inkscape:connector-curvature="0" /></g></g></g></g><g
                 transform="translate(120.9863,323.0371)"
                 id="g428"><path
                   d="M 0,0 V 0 C 0,0.551 0.451,1.002 1.002,1.002 H 2.72 C 3.271,1.002 3.722,0.551 3.722,0 3.722,-0.551 3.271,-1.002 2.72,-1.002 H 1.002 C 0.451,-1.002 0,-0.551 0,0"
                   style="fill:#ffffff;fill-opacity:1;fill-rule:nonzero;stroke:none"
                   id="path426"
                   inkscape:connector-curvature="0" /></g><g
                 transform="translate(93.0679,323.0371)"
                 id="g432"><path
                   d="M 0,0 V 0 C 0,0.551 0.451,1.002 1.002,1.002 H 2.72 C 3.271,1.002 3.723,0.551 3.723,0 3.723,-0.551 3.271,-1.002 2.72,-1.002 H 1.002 C 0.451,-1.002 0,-0.551 0,0"
                   style="fill:#ffffff;fill-opacity:1;fill-rule:nonzero;stroke:none"
                   id="path430"
                   inkscape:connector-curvature="0" /></g><g
                 transform="translate(108.8882,310.9395)"
                 id="g436"><path
                   d="M 0,0 V 0 C 0.551,0 1.002,-0.451 1.002,-1.002 V -2.72 c 0,-0.551 -0.451,-1.003 -1.002,-1.003 -0.551,0 -1.002,0.452 -1.002,1.003 v 1.718 C -1.002,-0.451 -0.551,0 0,0"
                   style="fill:#ffffff;fill-opacity:1;fill-rule:nonzero;stroke:none"
                   id="path434"
                   inkscape:connector-curvature="0" /></g><g
                 transform="translate(108.8882,338.8579)"
                 id="g440"><path
                   d="M 0,0 V 0 C 0.551,0 1.002,-0.451 1.002,-1.002 V -2.72 c 0,-0.551 -0.451,-1.003 -1.002,-1.003 -0.551,0 -1.002,0.452 -1.002,1.003 v 1.718 C -1.002,-0.451 -0.551,0 0,0"
                   style="fill:#ffffff;fill-opacity:1;fill-rule:nonzero;stroke:none"
                   id="path438"
                   inkscape:connector-curvature="0" /></g><g
                 transform="translate(100.3335,314.4829)"
                 id="g444"><path
                   d="m 0,0 v 0 c 0.39,-0.39 0.39,-1.028 0,-1.417 l -1.214,-1.215 c -0.39,-0.39 -1.028,-0.39 -1.418,0 -0.389,0.389 -0.389,1.028 0,1.417 L -1.417,0 C -1.027,0.39 -0.39,0.39 0,0"
                   style="fill:#ffffff;fill-opacity:1;fill-rule:nonzero;stroke:none"
                   id="path442"
                   inkscape:connector-curvature="0" /></g><g
                 transform="translate(120.0752,334.2241)"
                 id="g448"><path
                   d="m 0,0 v 0 c 0.39,-0.39 0.39,-1.028 0,-1.417 l -1.215,-1.215 c -0.39,-0.39 -1.028,-0.39 -1.417,0 -0.39,0.39 -0.39,1.028 0,1.417 L -1.417,0 C -1.028,0.39 -0.39,0.39 0,0"
                   style="fill:#ffffff;fill-opacity:1;fill-rule:nonzero;stroke:none"
                   id="path446"
                   inkscape:connector-curvature="0" /></g><g
                 transform="translate(100.3335,331.5918)"
                 id="g452"><path
                   d="m 0,0 v 0 c -0.39,-0.39 -1.027,-0.39 -1.417,0 l -1.215,1.215 c -0.389,0.389 -0.389,1.028 0,1.417 0.39,0.39 1.028,0.39 1.418,0 L 0,1.417 C 0.39,1.028 0.39,0.39 0,0"
                   style="fill:#ffffff;fill-opacity:1;fill-rule:nonzero;stroke:none"
                   id="path450"
                   inkscape:connector-curvature="0" /></g><g
                 transform="translate(120.0752,311.8506)"
                 id="g456"><path
                   d="m 0,0 v 0 c -0.39,-0.39 -1.028,-0.39 -1.417,0 l -1.215,1.215 c -0.39,0.389 -0.39,1.027 0,1.417 0.389,0.39 1.027,0.39 1.417,0 L 0,1.417 C 0.39,1.028 0.39,0.39 0,0"
                   style="fill:#ffffff;fill-opacity:1;fill-rule:nonzero;stroke:none"
                   id="path454"
                   inkscape:connector-curvature="0" /></g></g></g></g><g
           id="g462"><g
             id="g464" /><g
             id="g484"><g
               clip-path="url(#clipPath468)"
               id="g482"
               style="opacity:0.39999402"><g
                 transform="translate(110.5254,323.0371)"
                 id="g472"><path
                   d="m 0,0 c 0,-0.904 -0.733,-1.637 -1.637,-1.637 -0.905,0 -1.637,0.733 -1.637,1.637 0,0.904 0.732,1.638 1.637,1.638 C -0.733,1.638 0,0.904 0,0"
                   style="fill:#3d3d72;fill-opacity:1;fill-rule:nonzero;stroke:none"
                   id="path470"
                   inkscape:connector-curvature="0" /></g><g
                 transform="translate(108.8882,325.0884)"
                 id="g476"><path
                   d="m 0,0 v 0 c -0.176,0 -0.318,0.142 -0.318,0.318 v 8.368 c 0,0.175 0.142,0.318 0.318,0.318 0.176,0 0.318,-0.143 0.318,-0.318 V 0.318 C 0.318,0.142 0.176,0 0,0"
                   style="fill:#d73e5c;fill-opacity:1;fill-rule:nonzero;stroke:none"
                   id="path474"
                   inkscape:connector-curvature="0" /></g><g
                 transform="translate(111.146,323.0371)"
                 id="g480"><path
                   d="M 0,0 V 0 C 0,0.176 0.143,0.318 0.318,0.318 H 5.845 C 6.021,0.318 6.164,0.176 6.164,0 6.164,-0.175 6.021,-0.318 5.845,-0.318 H 0.318 C 0.143,-0.318 0,-0.175 0,0"
                   style="fill:#d73e5c;fill-opacity:1;fill-rule:nonzero;stroke:none"
                   id="path478"
                   inkscape:connector-curvature="0" /></g></g></g></g><g
           id="g486"
           transform="translate(314.2646,184.0742)"><path
             d="m 0,0 h -79.663 l -15.77,49.58 c -0.794,2.497 1.07,5.045 3.69,5.045 h 71.537 c 1.686,0 3.179,-1.091 3.689,-2.698 z"
             style="fill:#ffffff;fill-opacity:1;fill-rule:nonzero;stroke:none"
             id="path488"
             inkscape:connector-curvature="0" /></g><g
           id="g490"
           transform="translate(312.9775,184.0742)"><path
             d="m 0,0 h -76.275 l -15.622,48.664 c -0.787,2.45 1.059,4.951 3.654,4.951 h 68.226 c 1.671,0 3.149,-1.07 3.656,-2.647 z"
             style="fill:#e1edf9;fill-opacity:1;fill-rule:nonzero;stroke:none"
             id="path492"
             inkscape:connector-curvature="0" /></g><g
           id="g494"
           transform="translate(265.124,228.4912)"><path
             d="m 0,0 h -34.75 c -0.518,0 -0.938,0.42 -0.938,0.937 0,0.518 0.42,0.938 0.938,0.938 H 0 c 0.518,0 0.937,-0.42 0.937,-0.938 C 0.937,0.42 0.518,0 0,0"
             style="fill:#c2e0f2;fill-opacity:1;fill-rule:nonzero;stroke:none"
             id="path496"
             inkscape:connector-curvature="0" /></g><g
           id="g498"
           transform="translate(270.5049,224.1572)"><path
             d="m 0,0 h -38.75 c -0.518,0 -0.938,0.42 -0.938,0.937 0,0.519 0.42,0.938 0.938,0.938 H 0 C 0.518,1.875 0.937,1.456 0.937,0.937 0.937,0.42 0.518,0 0,0"
             style="fill:#c2e0f2;fill-opacity:1;fill-rule:nonzero;stroke:none"
             id="path500"
             inkscape:connector-curvature="0" /></g><g
           id="g502"
           transform="translate(266.915,219.8242)"><path
             d="m 0,0 h -33.75 c -0.518,0 -0.938,0.42 -0.938,0.937 0,0.518 0.42,0.938 0.938,0.938 H 0 c 0.518,0 0.937,-0.42 0.937,-0.938 C 0.937,0.42 0.518,0 0,0"
             style="fill:#c2e0f2;fill-opacity:1;fill-rule:nonzero;stroke:none"
             id="path504"
             inkscape:connector-curvature="0" /></g><g
           id="g506"
           transform="translate(261.29,215.4912)"><path
             d="m 0,0 h -26.75 c -0.518,0 -0.937,0.42 -0.937,0.937 0,0.518 0.419,0.938 0.937,0.938 H 0 c 0.518,0 0.937,-0.42 0.937,-0.938 C 0.937,0.42 0.518,0 0,0"
             style="fill:#c2e0f2;fill-opacity:1;fill-rule:nonzero;stroke:none"
             id="path508"
             inkscape:connector-curvature="0" /></g><g
           id="g510"
           transform="translate(274.707,211.1572)"><path
             d="m 0,0 h -38.75 c -0.518,0 -0.938,0.42 -0.938,0.937 0,0.519 0.42,0.938 0.938,0.938 H 0 C 0.518,1.875 0.937,1.456 0.937,0.937 0.937,0.42 0.518,0 0,0"
             style="fill:#c2e0f2;fill-opacity:1;fill-rule:nonzero;stroke:none"
             id="path512"
             inkscape:connector-curvature="0" /></g><g
           id="g514"
           transform="translate(271.0937,206.8242)"><path
             d="m 0,0 h -33.75 c -0.518,0 -0.938,0.42 -0.938,0.937 0,0.518 0.42,0.938 0.938,0.938 H 0 c 0.518,0 0.937,-0.42 0.937,-0.938 C 0.937,0.42 0.518,0 0,0"
             style="fill:#c2e0f2;fill-opacity:1;fill-rule:nonzero;stroke:none"
             id="path516"
             inkscape:connector-curvature="0" /></g><g
           id="g518"
           transform="translate(278.8594,198.1572)"><path
             d="m 0,0 h -38.75 c -0.518,0 -0.938,0.42 -0.938,0.937 0,0.519 0.42,0.938 0.938,0.938 H 0 C 0.518,1.875 0.937,1.456 0.937,0.937 0.937,0.42 0.518,0 0,0"
             style="fill:#c2e0f2;fill-opacity:1;fill-rule:nonzero;stroke:none"
             id="path520"
             inkscape:connector-curvature="0" /></g><g
           id="g522"
           transform="translate(280.2705,193.8242)"><path
             d="m 0,0 h -38.75 c -0.518,0 -0.938,0.42 -0.938,0.937 0,0.518 0.42,0.938 0.938,0.938 H 0 c 0.518,0 0.937,-0.42 0.937,-0.938 C 0.937,0.42 0.518,0 0,0"
             style="fill:#c2e0f2;fill-opacity:1;fill-rule:nonzero;stroke:none"
             id="path524"
             inkscape:connector-curvature="0" /></g><g
           id="g526"
           transform="translate(300.875,193.8242)"><path
             d="m 0,0 h -12.518 c -1.166,0 -2.197,0.756 -2.548,1.868 l -10.436,33.028 c -0.544,1.723 0.742,3.479 2.55,3.479 h 12.516 c 1.167,0 2.199,-0.756 2.55,-1.868 L 2.549,3.479 C 3.094,1.756 1.807,0 0,0"
             style="fill:#c2e0f2;fill-opacity:1;fill-rule:nonzero;stroke:none"
             id="path528"
             inkscape:connector-curvature="0" /></g><g
           id="g530"
           transform="translate(320.9404,180.4648)"><path
             d="m 0,0 h -86.63 c -1.416,0 -2.563,1.147 -2.563,2.563 0,1.415 1.147,2.562 2.563,2.562 H 0 C 1.415,5.125 2.563,3.978 2.563,2.563 2.563,1.147 1.415,0 0,0"
             style="fill:#ffffff;fill-opacity:1;fill-rule:nonzero;stroke:none"
             id="path532"
             inkscape:connector-curvature="0" /></g><g
           id="g534"
           transform="translate(327.9199,261.6055)"><path
             d="M 0,0 C -0.184,0 -0.369,-0.043 -0.541,-0.134 L -8.563,-4.37 c -0.282,-0.15 -0.486,-0.4 -0.576,-0.706 -0.089,-0.306 -0.051,-0.627 0.107,-0.904 v 0 l 2.882,-5.069 c 0.312,-0.549 1.014,-0.749 1.573,-0.448 L 3.3,-7.219 c 0.273,0.149 0.473,0.396 0.561,0.696 0.089,0.299 0.055,0.614 -0.094,0.888 L 1.029,-0.608 C 0.818,-0.221 0.415,0 0,0 m -5.126,-12.636 c -0.757,0 -1.496,0.395 -1.894,1.093 l -2.881,5.068 c -0.293,0.515 -0.363,1.111 -0.198,1.679 0.166,0.568 0.546,1.033 1.07,1.31 l 8.021,4.236 c 1.04,0.552 2.351,0.157 2.916,-0.88 L 4.646,-5.156 C 4.923,-5.665 4.984,-6.251 4.821,-6.807 4.657,-7.362 4.286,-7.821 3.776,-8.098 l -7.877,-4.278 c -0.324,-0.176 -0.676,-0.26 -1.025,-0.26"
             style="fill:#1a1a47;fill-opacity:1;fill-rule:nonzero;stroke:none"
             id="path536"
             inkscape:connector-curvature="0" /></g><g
           id="g538"
           transform="translate(289.917,196.5693)"><path
             d="m 0,0 c -0.56,-0.72 -1.01,-1.18 -1.01,-1.18 0,0 -4.2,3.18 -5.37,3.48 -1.16,0.29 -3.66,-0.63 -5.08,-0.71 -1.42,-0.09 -1.539,0.761 -1.539,0.761 0,0 -5.421,-2.261 -6.291,-2.471 -0.88,-0.21 -1.46,0.08 -0.92,1.46 0.12,0.3 0.481,0.78 1,1.36 l 0.01,0.01 c 1.85,2.09 5.66,5.43 7.03,6.09 1.75,0.83 4.13,2.04 6.04,1.33 C -4.21,9.42 2,4.76 2,4.76 2.181,3.16 0.94,1.21 0,0"
             style="fill:#ffffff;fill-opacity:1;fill-rule:nonzero;stroke:none"
             id="path540"
             inkscape:connector-curvature="0" /></g><g
           id="g542"
           transform="translate(291.207,201.0498)"><path
             d="M 0,0 -1.29,-4.48 C -1.85,-5.2 -2.3,-5.66 -2.3,-5.66 c 0,0 -4.2,3.18 -5.37,3.479 -1.16,0.29 -3.66,-0.63 -5.08,-0.71 -1.42,-0.089 -1.539,0.761 -1.539,0.761 0,0 -5.421,-2.261 -6.291,-2.471 -0.88,-0.21 -1.46,0.08 -0.92,1.46 0.12,0.3 0.48,0.781 1,1.361 -0.459,-0.636 -0.969,-1.291 -0.667,-2.102 0.367,-0.986 6.185,1.787 10.387,4.321 0.065,0.04 0.403,0.207 0.521,0.012 0.076,-0.134 -0.168,-0.404 -0.231,-0.472 -0.7,-0.751 -4.224,-1.016 -3.51,-2.139 1.005,-1.581 4.62,1.319 6.601,0.67 1.979,-0.651 4.46,-2.46 4.46,-2.46 0,0 1.129,3.37 2.939,3.95"
             style="fill:#f4f4f4;fill-opacity:1;fill-rule:nonzero;stroke:none"
             id="path544"
             inkscape:connector-curvature="0" /></g><g
           id="g546"
           transform="translate(288.2686,195.3867)"><path
             d="m 0,0 c 0,0 20.604,-18.021 36.021,-19.854 15.417,-1.833 41.417,27.416 41.417,27.416 0,0 -1.637,15.583 -11.25,13.75 -9.615,-1.832 -22.5,-25 -28.084,-26.083 C 32.521,-5.854 3.489,6.449 3.489,6.449 3.489,6.449 2.664,5.868 1.692,4.237 0.646,2.479 0,0 0,0"
             style="fill:#9e304f;fill-opacity:1;fill-rule:nonzero;stroke:none"
             id="path548"
             inkscape:connector-curvature="0" /></g><g
           id="g550"
           transform="translate(358.3721,284.1992)"><path
             d="m 0,0 c -5.639,6.454 -13.973,7.148 -20.406,6.437 -8.448,-0.934 -15.788,-6.63 -18.228,-14.771 -1.054,-3.519 -1.257,-7.635 0.384,-12.166 5.25,-14.5 10.75,-23.75 15.875,-26.5 1.956,-1.05 5.696,-0.35 9.692,1.055 0.527,0.184 1.11,-0.034 1.372,-0.526 l 1.686,-3.154 14.834,3.209 c 0,0 -1.909,4.132 -2.921,8.47 C 4.444,-35.225 10.316,-11.808 0,0"
             style="fill:#ffffff;fill-opacity:1;fill-rule:nonzero;stroke:none"
             id="path552"
             inkscape:connector-curvature="0" /></g><g
           id="g554"
           transform="translate(328.3965,263.5117)"><path
             d="m 0,0 c 1.843,0.146 3.593,-0.825 4.31,-2.53 1.219,-2.902 3.102,-6.962 4.583,-8.283 0.303,-0.27 0.971,-0.363 1.629,-0.015 0.651,0.344 0.783,0.9 0.746,1.265 -0.128,1.254 -1.057,3.972 -1.715,5.779 -0.842,2.317 0.157,4.768 2.923,5.388 0.5,0.112 1.769,0.046 2.412,-0.148 4.384,-1.331 1.364,-8.207 1.275,-11.8 -0.062,-2.531 2.969,-8.399 4.313,-8.927 4.406,-1.729 11.084,-0.166 14.625,4.208 3.542,4.375 4.312,19.001 2.375,27.751 -1.938,8.749 -8.938,13.687 -11.25,14.249 -1.143,0.279 -2.086,0.282 -2.749,0.214 -0.705,-0.072 -1.4,0.167 -1.934,0.631 -2.331,2.029 -9.297,6.664 -20.317,1.905 -13.75,-5.937 -16.063,-18.624 -15.813,-24.375 0.163,-3.737 3.098,-3.46 5.133,-2.81 1.119,0.359 2.338,0.066 3.231,-0.698 C -5.07,0.818 -3.083,-0.244 0,0"
             style="fill:#0b0b3a;fill-opacity:1;fill-rule:nonzero;stroke:none"
             id="path556"
             inkscape:connector-curvature="0" /></g><g
           id="g558"
           transform="translate(348.2891,232.1992)"><path
             d="M 0,0 C 0,0 -1.276,1.422 -0.792,2.292 -0.191,3.37 6.318,8.521 13.917,8.25 15.098,8.208 16.542,8.208 17.958,5.125 19.375,2.042 19.708,0 19.708,0 Z"
             style="fill:#ba3e5c;fill-opacity:1;fill-rule:nonzero;stroke:none"
             id="path560"
             inkscape:connector-curvature="0" /></g><g
           id="g562"
           transform="translate(383.542,140.2793)"><path
             d="M 0,0 C -0.46,-0.11 -0.96,-0.22 -1.479,-0.32 -7.93,-1.52 -18.42,-1.66 -18.42,-1.66 -39.1,-1.29 -48.279,9.86 -51.64,15.61 c -1.179,2.02 -1.65,3.37 -1.65,3.37 1.181,0.63 5.311,4.38 6.87,9.5 1.561,5.13 -0.08,17.36 -2.75,22.02 -1.47,2.561 -5.819,7.75 -8.55,13.22 -2.24,4.5 -3.399,9.19 -0.95,12.77 6.08,8.93 15.67,13.68 15.67,13.68 0,0 17.601,7.05 32.591,5.45 C -0.899,94.62 7.57,90.14 9.83,78.17 15.66,47.34 0,0 0,0"
             style="fill:#d73e5c;fill-opacity:1;fill-rule:nonzero;stroke:none"
             id="path564"
             inkscape:connector-curvature="0" /></g><g
           id="g566"
           transform="translate(342.8721,175.5293)"><path
             d="m 0,0 c -1.25,-10.97 -7.16,-16.899 -10.97,-19.64 -1.179,2.02 -1.65,3.37 -1.65,3.37 1.181,0.63 5.31,4.38 6.87,9.5 1.561,5.13 -0.08,17.36 -2.75,22.02 -1.47,2.561 -5.819,7.75 -8.55,13.22 l 1.16,0.45 7.06,1.17 3.58,-2.92 C -5.25,27.17 1.88,16.46 0,0"
             style="fill:#ba3e5c;fill-opacity:1;fill-rule:nonzero;stroke:none"
             id="path568"
             inkscape:connector-curvature="0" /></g><g
           id="g570"
           transform="translate(383.542,140.2793)"><path
             d="M 0,0 C -0.46,-0.11 -0.96,-0.22 -1.479,-0.32 -0.159,6.63 1.86,17.59 4.58,33.42 9.95,64.67 4.361,80.5 1.21,86.17 -1.336,90.753 -6.239,93.18 -10.409,95.62 -0.899,94.62 7.57,90.14 9.83,78.17 15.66,47.34 0,0 0,0"
             style="fill:#ed4877;fill-opacity:1;fill-rule:nonzero;stroke:none"
             id="path572"
             inkscape:connector-curvature="0" /></g><g
           id="g574"
           transform="translate(340.2656,79.2246)"><path
             d="m 0,0 c 0,0 -1.477,-1.735 -3.714,-2.095 -2.484,-0.399 -4.324,0.803 -4.324,0.803 l -1.15,3.317 7.936,1.729 z"
             style="fill:#ffffff;fill-opacity:1;fill-rule:nonzero;stroke:none"
             id="path576"
             inkscape:connector-curvature="0" /></g><g
           id="g578"
           transform="translate(298.6846,75.1162)"><path
             d="M 0,0 C 0,0 -1.734,-1.479 -4,-1.479 -6.516,-1.479 -8.142,0 -8.142,0 L -8.75,3.458 h 8.142 z"
             style="fill:#ffffff;fill-opacity:1;fill-rule:nonzero;stroke:none"
             id="path580"
             inkscape:connector-curvature="0" /></g><g
           id="g582"
           transform="translate(339.2324,82.5391)"><path
             d="m 0,0 c -0.521,-0.239 -1.07,-0.449 -1.64,-0.649 -3,-1.01 -6.35,-1.391 -6.35,-1.391 -6.5,10.66 -18.87,51.37 -18.87,51.37 -1.55,6.561 3.12,9.21 7.22,9.46 1.42,0.08 2.77,-0.12 3.78,-0.55 3.92,-1.66 9.67,-12.75 9.67,-12.75 0,0 1.75,-3.83 3.58,-11.75 C -0.78,25.83 0,0 0,0"
             style="fill:#1a1a47;fill-opacity:1;fill-rule:nonzero;stroke:none"
             id="path584"
             inkscape:connector-curvature="0" /></g><g
           id="g586"
           transform="translate(339.2324,82.5391)"><path
             d="m 0,0 c -0.521,-0.239 -1.07,-0.449 -1.64,-0.649 -0.41,3.16 -1.02,8.2 -1.92,16.229 -2.01,18 -13.42,38.61 -16.08,43.21 1.42,0.08 2.77,-0.12 3.78,-0.55 3.92,-1.66 9.67,-12.75 9.67,-12.75 0,0 1.75,-3.83 3.58,-11.75 C -0.78,25.83 0,0 0,0"
             style="fill:#3d3d72;fill-opacity:1;fill-rule:nonzero;stroke:none"
             id="path588"
             inkscape:connector-curvature="0" /></g><g
           id="g590"
           transform="translate(355.6729,139.6396)"><path
             d="m 0,0 c -0.051,-3.73 -1.04,-9.681 -6.631,-11.36 -8.34,-2.5 -14.5,-1.08 -24.17,0.589 -8.099,1.391 -20.889,6.13 -24.809,7.621 -0.51,0.19 -1.01,-0.241 -0.911,-0.77 1.85,-9.04 0.59,-26.601 -0.36,-31.77 -1,-5.42 -0.189,-25.94 -0.189,-25.94 0,0 -1.33,-0.41 -2.76,-0.641 -0.54,-0.08 -1.091,-0.139 -1.591,-0.139 -2.1,0 -4.63,0.389 -4.63,0.389 0,0 -8.75,34.411 -9.92,53.661 -1.16,19.25 0.67,20.839 9.42,24.92 8.75,4.08 41.13,3.06 41.13,3.06 l 0.011,-0.011 c 0.109,-0.339 2.309,-6.349 8.8,-11.79 C -12.75,4.569 -7.36,1.529 0,0"
             style="fill:#3d3d72;fill-opacity:1;fill-rule:nonzero;stroke:none"
             id="path592"
             inkscape:connector-curvature="0" /></g><g
           id="g594"
           transform="translate(355.6729,139.6396)"><path
             d="m 0,0 c -0.051,-3.73 -1.04,-9.681 -6.631,-11.36 -8.34,-2.5 -14.5,-1.08 -24.17,0.589 -8.099,1.391 -20.889,6.13 -24.809,7.621 -0.51,0.19 -1.01,-0.241 -0.911,-0.77 1.85,-9.04 0.59,-26.601 -0.36,-31.77 -1,-5.42 -0.189,-25.94 -0.189,-25.94 0,0 -1.33,-0.41 -2.76,-0.641 -0.25,1.361 -0.58,3.281 -0.931,5.611 -0.71,4.78 -0.16,17.72 0,26.88 0.16,9.15 -2.92,16.969 -3.04,25.969 -0.12,9 1,13.5 23.071,9.241 14.139,-2.72 21.009,0.049 24.12,2.389 C -12.75,4.569 -7.36,1.529 0,0"
             style="fill:#33305b;fill-opacity:1;fill-rule:nonzero;stroke:none"
             id="path596"
             inkscape:connector-curvature="0" /></g><g
           id="g598"><g
             id="g600" /><g
             id="g612"><g
               clip-path="url(#clipPath604)"
               id="g610"
               style="opacity:0.58000201"><g
                 transform="translate(365.127,120.0693)"
                 id="g608"><path
                   d="m 0,0 v -49.43 c 0,-1.759 -1.43,-3.19 -3.189,-3.19 -0.71,0 -1.361,0.23 -1.891,0.62 -0.79,0.58 -1.3,1.521 -1.3,2.57 V 0 Z"
                   style="fill:#c9ddf9;fill-opacity:1;fill-rule:nonzero;stroke:none"
                   id="path606"
                   inkscape:connector-curvature="0" /></g></g></g></g><g
           id="g614"
           transform="translate(365.127,117.9189)"><path
             d="m 0,0 v -47.143 c 0,-1.536 -1.225,-3.095 -2.747,-3.297 -0.752,-0.1 -1.454,0.058 -2.04,0.399 -0.101,0.187 -0.222,0.414 -0.322,0.602 v 48.13 c 0,0.724 0.586,1.309 1.308,1.309 z"
             style="fill:#ffffff;fill-opacity:1;fill-rule:nonzero;stroke:none"
             id="path616"
             inkscape:connector-curvature="0" /></g><g
           id="g618"><g
             id="g620" /><g
             id="g632"><g
               clip-path="url(#clipPath624)"
               id="g630"
               style="opacity:0.58000201"><g
                 transform="translate(369.167,121.7295)"
                 id="g628"><path
                   d="M 0,0 C 0,-0.24 -0.03,-0.46 -0.09,-0.68 -0.21,-1.17 -0.47,-1.6 -0.81,-1.94 -1.3,-2.44 -1.99,-2.75 -2.75,-2.75 h -9.5 c -1.51,0 -2.75,1.229 -2.75,2.75 0,0.76 0.311,1.45 0.811,1.939 0.5,0.5 1.179,0.811 1.939,0.811 h 9.5 C -1.229,2.75 0,1.52 0,0"
                   style="fill:#c9ddf9;fill-opacity:1;fill-rule:nonzero;stroke:none"
                   id="path626"
                   inkscape:connector-curvature="0" /></g></g></g></g><g
           id="g634"
           transform="translate(369.0771,121.0498)"><path
             d="M 0,0 C -0.12,-0.49 -0.38,-0.92 -0.72,-1.261 -1.21,-1.761 -1.9,-2.07 -2.66,-2.07 h -9.09 c 0.12,0.49 0.37,0.929 0.71,1.269 0.5,0.49 1.19,0.801 1.95,0.801 z"
             style="fill:#fefeff;fill-opacity:1;fill-rule:nonzero;stroke:none"
             id="path636"
             inkscape:connector-curvature="0" /></g><g
           id="g638"
           transform="translate(403.0068,207.9697)"><path
             d="m 0,0 c 0,-0.03 -0.01,-0.051 -0.01,-0.08 -0.03,-0.28 -0.09,-0.59 -0.17,-0.941 -0.759,-3.219 -3.49,-9.53 -3.889,-19 -0.281,-6.689 0.059,-26.059 -0.441,-34.309 -0.5,-8.25 -3.309,-20.5 -11.939,-26.691 -8.75,-6.58 -26.37,-5.439 -37.061,-5.189 -10.689,0.25 -37.189,5.069 -39.309,9 -0.491,0.89 -0.601,1.649 -0.491,2.279 0.1,0.63 0.42,1.13 0.821,1.54 1.01,1.011 2.529,1.321 3.92,0.971 4.309,-1.08 17.16,-3.551 22.939,3.779 7,8.87 6.12,19.12 9.12,40.741 2.84,20.45 9.21,26.719 19.771,30.799 C -25.449,7.25 -7.319,5.38 -2.79,4.02 -1.04,3.489 0.181,1.83 0,0"
             style="fill:#ffffff;fill-opacity:1;fill-rule:nonzero;stroke:none"
             id="path640"
             inkscape:connector-curvature="0" /></g><g
           id="g642"
           transform="translate(398.9375,64.5391)"><path
             d="m 0,0 c 0,-0.649 -0.53,-1.17 -1.17,-1.17 h -71.66 c -0.65,0 -1.17,0.521 -1.17,1.17 0,0.57 0.41,1.061 0.979,1.15 L -37,6.99 -27.94,5.521 -0.99,1.15 C -0.42,1.061 0,0.57 0,0"
             style="fill:#ffffff;fill-opacity:1;fill-rule:nonzero;stroke:none"
             id="path644"
             inkscape:connector-curvature="0" /></g><g
           id="g646"><g
             id="g648" /><g
             id="g660"><g
               clip-path="url(#clipPath652)"
               id="g658"
               style="opacity:0.58000201"><g
                 transform="translate(346.2275,65.9893)"
                 id="g656"><path
                   d="m 0,0 c 0,0 0.21,-0.25 -0.5,-0.87 -0.29,-0.26 -3.53,-0.989 -7.19,-1.75 h -12.43 c -0.651,0 -1.17,0.52 -1.17,1.17 0,0.57 0.41,1.06 0.979,1.15 L 15.71,5.54 Z"
                   style="fill:#c9ddf9;fill-opacity:1;fill-rule:nonzero;stroke:none"
                   id="path654"
                   inkscape:connector-curvature="0" /></g></g></g></g><g
           id="g662"
           transform="translate(290.5391,75.1162)"><path
             d="M 0,0 C 0,0 2.161,-0.854 4.114,-0.854 6.458,-0.854 8.167,0 8.167,0 c 0,0 4.174,-5.316 1.956,-11.239 -0.115,-0.31 -0.424,-0.511 -0.754,-0.511 h -27.994 c -0.341,0 -0.63,0.267 -0.635,0.607 -0.009,0.69 0.269,1.789 1.968,2.309 2.584,0.792 5.25,1.23 7.25,1.938 2,0.709 4.872,3.646 6.479,4.187 C -1.521,-2.021 0,0 0,0"
             style="fill:#1a1a47;fill-opacity:1;fill-rule:nonzero;stroke:none"
             id="path664"
             inkscape:connector-curvature="0" /></g><g
           id="g666"
           transform="translate(332.2236,77.9316)"><path
             d="m 0,0 c 0,0 2.27,-0.5 4.198,-0.19 2.315,0.372 3.865,1.487 3.865,1.487 0,0 4.965,-4.586 3.716,-10.787 -0.065,-0.323 -0.338,-0.572 -0.663,-0.623 0,0 -14.769,-3.312 -19.764,-4.026 -3.063,-0.437 -7.873,-0.437 -7.873,-0.437 -0.356,-0.009 -0.666,0.181 -0.725,0.517 -0.119,0.68 -0.02,1.809 1.576,2.593 2.425,1.192 4.988,2.047 6.851,3.064 1.862,1.016 4.23,4.373 5.732,5.163 C -1.181,-2.236 0,0 0,0"
             style="fill:#1a1a47;fill-opacity:1;fill-rule:nonzero;stroke:none"
             id="path668"
             inkscape:connector-curvature="0" /></g><g
           id="g670"
           transform="translate(276.0273,183.1689)"><path
             d="M 0,0 C 0,0 -2.87,1.19 -4.37,1.721 -4.97,1.931 -5.53,2.08 -5.99,2.19 -6.63,2.341 -7.3,2.4 -7.96,2.4 h -16.311 c -0.469,0 -0.849,0.39 -0.849,0.861 0,0.639 0.32,1.229 0.849,1.569 l 1.75,1.131 5.231,3.38 c 2.59,1.67 4.473,1.772 7.553,1.502 0.58,-0.05 2.785,-0.986 3.207,-1.125 C -3.475,8.71 -2.811,8.25 -0.78,7.53 0.02,7.24 0.57,7.091 0.93,7.011 1.49,6.891 1.63,6.94 1.63,6.94 2.189,2.78 0,0 0,0"
             style="fill:#ffffff;fill-opacity:1;fill-rule:nonzero;stroke:none"
             id="path672"
             inkscape:connector-curvature="0" /></g><g
           id="g674"
           transform="translate(276.0654,183.2207)"><path
             d="m 0,0 c -0.024,-0.034 -0.058,-0.043 -0.097,-0.027 -0.414,0.171 -2.937,1.211 -4.311,1.696 -0.507,0.177 -0.985,0.311 -1.399,0.415 -0.596,0.15 -1.587,0.265 -2.202,0.265 h -16.213 c -0.501,0 -0.945,0.394 -0.936,0.895 0.012,0.626 0.33,1.201 0.849,1.534 l 1.75,1.131 C -24.213,4.65 -24.48,3.704 -23.65,3.604 c 0.663,-0.081 2.234,0.093 6.213,1.202 0.089,0.024 0.125,-0.116 0.046,-0.164 -0.916,-0.563 -0.576,-1.74 0.553,-1.684 0.668,0.033 3.512,0.212 4.166,0.25 2.542,0.146 6.246,0.385 6.959,0.254 1.438,-0.265 2.536,-0.699 3.563,-1.233 0.696,-0.363 1.358,0.43 1.612,1.173 0.36,1.055 0.886,2.48 1.43,3.557 0.56,-0.12 0.7,-0.07 0.7,-0.07 C 2.107,3.057 0.29,0.396 0,0"
             style="fill:#f4f4f4;fill-opacity:1;fill-rule:nonzero;stroke:none"
             id="path676"
             inkscape:connector-curvature="0" /></g><g
           id="g678"
           transform="translate(339.8896,222.1309)"><path
             d="m 0,0 c -2.137,1.305 -8.601,4.895 -16.934,-8.102 -8.334,-12.997 -12.084,-20.997 -15,-22.747 -2.917,-1.75 -13,-2.25 -15.584,-2.25 -2.583,0 -15,1.417 -15,1.417 0,0 -1.812,-3.906 -2.125,-7.281 0,0 9.25,-7.552 30.73,-7.636 21.479,-0.083 37.812,32.417 38.562,36.334 C 5.399,-6.349 5.107,-3.119 0,0"
             style="fill:#d73e5c;fill-opacity:1;fill-rule:nonzero;stroke:none"
             id="path680"
             inkscape:connector-curvature="0" /></g><g
           id="g682"
           transform="translate(319.1582,252.395)"><path
             d="m 0,0 c -0.182,0 -0.356,0.099 -0.445,0.272 -0.126,0.246 -0.029,0.547 0.216,0.673 l 18.634,9.55 c 2.109,1.081 6.425,3.291 9.629,-1.409 C 28.189,8.857 28.131,8.546 27.902,8.391 27.677,8.237 27.364,8.292 27.208,8.522 24.71,12.189 21.73,11.076 18.896,9.623 L 0.229,0.055 C 0.155,0.018 0.077,0 0,0"
             style="fill:#1a1a47;fill-opacity:1;fill-rule:nonzero;stroke:none"
             id="path684"
             inkscape:connector-curvature="0" /></g><g
           id="g686"
           transform="translate(337.8721,261.6992)"><path
             d="m 0,0 2.25,-7.187 c 0,0 1.75,-1.693 3.437,0.25 C 7.375,-4.995 8.844,1.75 5.75,2.875 2.656,4 0.781,2.406 0,0"
             style="fill:#ffffff;fill-opacity:1;fill-rule:nonzero;stroke:none"
             id="path688"
             inkscape:connector-curvature="0" /></g><g
           id="g690"><g
             id="g692" /><g
             id="g704"><g
               clip-path="url(#clipPath696)"
               id="g702"
               style="opacity:0.58000201"><g
                 transform="translate(403.0068,207.9697)"
                 id="g700"><path
                   d="m 0,0 c 0,-0.03 -0.01,-0.051 -0.01,-0.08 -0.03,-0.28 -0.09,-0.59 -0.17,-0.941 -1.37,-0.58 -2.94,-0.389 -4.65,-0.059 -10.63,2.04 -31.699,5.14 -41.84,-7.79 -2.39,-3.061 -5.239,-17.61 -5.529,-19.901 -1.141,-9.04 -2.591,-24.709 -4.83,-32.5 -2.67,-9.25 -7.38,-13.25 -12,-14.5 -4.62,-1.25 -13.741,-1.839 -24.281,0.84 0.1,0.63 0.42,1.13 0.821,1.54 1.01,1.011 2.529,1.321 3.92,0.971 4.309,-1.08 17.16,-3.551 22.939,3.779 7,8.87 6.12,19.12 9.12,40.741 2.84,20.45 9.21,26.719 19.771,30.799 C -25.449,7.25 -7.319,5.38 -2.79,4.02 -1.04,3.489 0.181,1.83 0,0"
                   style="fill:#c9ddf9;fill-opacity:1;fill-rule:nonzero;stroke:none"
                   id="path698"
                   inkscape:connector-curvature="0" /></g></g></g></g><g
           id="g706"
           transform="translate(181.3071,313.6592)"><path
             d="m 0,0 c -1.77,-0.45 -1.81,-6.29 -2.35,-8.1 -0.54,-1.81 -2.81,-8.83 -6.72,-9.43 -3.91,-0.61 -6.29,-0.62 -6.39,-1.23 -0.05,-0.29 -0.12,-1.62 -0.18,-2.95 -0.07,-1.48 -0.13,-2.95 -0.13,-2.95 l -3.91,-3.79 -3.76,0.2 -8.78,3.8 c 0,0 0.78,9.53 0.59,11.04 -0.12,0.95 -2.72,7.77 -4.41,14.34 -0.99,3.841 -1.67,7.591 -1.37,10.03 0.83,6.62 1.94,13.5 6.45,16.39 4.5,2.88 31.9,11.83 30.04,-8.47 0,0 1.64,-11.98 2.75,-14.15 C 2.94,2.56 1.78,0.45 0,0"
             style="fill:#ffffff;fill-opacity:1;fill-rule:nonzero;stroke:none"
             id="path708"
             inkscape:connector-curvature="0" /></g><g
           id="g710"
           transform="translate(165.667,291.9492)"><path
             d="m 0,0 c -0.07,-1.48 -0.13,-2.95 -0.13,-2.95 l -3.91,-3.79 -3.76,0.2 -8.78,3.8 c 0,0 0.78,9.53 0.59,11.04 -0.12,0.95 -2.72,7.77 -4.41,14.34 l 0.83,3.86 c 0,0 7.55,-0.1 7.841,-0.17 0.289,-0.06 2.079,-4.91 2.039,-5.16 -0.039,-0.25 -2.06,-4.48 -2.06,-4.48 0,0 -1.032,-6.064 -1.379,-10.793 -0.183,-2.484 1.242,-4.824 3.54,-5.786 1.291,-0.54 2.784,-1.038 4.229,-1.231 C -2.9,-1.45 -1.01,-0.62 0,0"
             style="fill:#f4f4f4;fill-opacity:1;fill-rule:nonzero;stroke:none"
             id="path712"
             inkscape:connector-curvature="0" /></g><g
           id="g714"
           transform="translate(154.6519,319.4268)"><path
             d="m 0,0 c 0,0 -4.761,-12.597 1.619,-20.482 6.381,-7.886 19.485,-5.659 21.459,-4.336 1.974,1.323 9.308,11.404 4.443,17.102 -4.864,5.697 -12.819,1.156 -12.819,1.156 0,0 -4.796,-3.145 -6.183,-2.731 -1.344,0.401 -3.924,5.457 -1.818,13.62 0.115,0.446 0.526,0.746 0.986,0.748 1.721,0.009 5.811,0.92 6.627,9.193 0.069,0.69 0.703,1.187 1.388,1.074 2.363,-0.387 7.233,-1.221 8.231,-1.657 0,0 0.748,-0.239 1.465,-0.627 0.234,-0.126 0.397,-0.352 0.436,-0.614 0.122,-0.83 0.401,-2.725 0.472,-3.176 0.092,-0.582 0.815,-4.825 0.815,-4.825 0,0 1.385,0.619 1.582,2.088 0.197,1.468 0.016,4.775 0.392,5.469 0.377,0.694 2.55,0.953 3.113,2.605 1.275,3.738 4.718,18.506 -8.455,12.994 -1.722,-0.722 -3.372,-1.725 -4.72,-1.827 -1.759,-0.132 -3.105,1.652 -6.565,2.477 -4.834,1.152 -26.829,2.427 -26.982,-19.661 -0.153,-22.089 9.569,-28.384 9.569,-28.384 0,0 2.07,17.907 4.945,19.794"
             style="fill:#0b0b3a;fill-opacity:1;fill-rule:nonzero;stroke:none"
             id="path716"
             inkscape:connector-curvature="0" /></g><g
           id="g718"
           transform="translate(174.6875,325.0259)"><path
             d="m 0,0 c -0.032,-0.599 -0.399,-1.066 -0.82,-1.044 -0.422,0.023 -0.737,0.526 -0.705,1.125 0.031,0.599 0.399,1.067 0.82,1.044 C -0.284,1.103 0.032,0.599 0,0"
             style="fill:#333333;fill-opacity:1;fill-rule:nonzero;stroke:none"
             id="path720"
             inkscape:connector-curvature="0" /></g><g
           id="g722"
           transform="translate(176.0298,329.8159)"><path
             d="M 0,0 C 0,0 -3.948,1.841 -5.477,-2.633"
             style="fill:none;stroke:#231f20;stroke-width:1;stroke-linecap:round;stroke-linejoin:miter;stroke-miterlimit:10;stroke-dasharray:none;stroke-opacity:1"
             id="path724"
             inkscape:connector-curvature="0" /></g><g
           id="g726"
           transform="translate(169.4814,307.0132)"><path
             d="M 0,0 C 0,0 3.05,-1.454 8.204,-0.436"
             style="fill:none;stroke:#ffffff;stroke-width:1;stroke-linecap:round;stroke-linejoin:miter;stroke-miterlimit:10;stroke-dasharray:none;stroke-opacity:1"
             id="path728"
             inkscape:connector-curvature="0" /></g><g
           id="g730"
           transform="translate(225.9141,303.8242)"><path
             d="m 0,0 c -0.776,0.734 -1.526,0.852 -2.231,0.571 -0.107,0.406 -0.297,0.79 -0.644,0.804 -0.75,0.031 -2.974,-5.867 -2.974,-5.867 h 0.001 c -0.558,-1.361 -0.616,-2.21 -0.839,-3.008 -0.75,-2.688 0.395,-6.063 0.395,-7.344 0,-1.281 -2.031,-5.781 -2.031,-5.781 l 4.781,-3.437 c 0,0 7.396,9.999 7.334,11.937 C 3.729,-10.188 1.748,-1.654 0,0"
             style="fill:#ffffff;fill-opacity:1;fill-rule:nonzero;stroke:none"
             id="path732"
             inkscape:connector-curvature="0" /></g><g
           id="g734"
           transform="translate(217.6187,290.2344)"><path
             d="m 0,0 0.645,-0.722 c 0.088,-0.108 0.204,-0.191 0.334,-0.24 l 4.2,-1.641 c 0.32,-0.12 0.644,-0.041 0.816,0.343 l 11.921,26.847 c 0.083,0.186 0.137,0.573 -0.058,0.745 l -0.856,0.665 -3.357,-1.642 z"
             style="fill:#171733;fill-opacity:1;fill-rule:nonzero;stroke:none"
             id="path736"
             inkscape:connector-curvature="0" /></g><g
           id="g738"
           transform="translate(222.291,288.4019)"><path
             d="M 0,0 -4.214,1.473 C -4.7,1.683 -4.943,2.138 -4.746,2.582 L 6.62,28.214 c 0.216,0.489 0.725,0.781 1.256,0.721 l 4.122,-0.957 c 0.417,-0.047 0.668,-0.485 0.498,-0.869 L 0.636,0.365 C 0.526,0.118 0.269,-0.03 0,0"
             style="fill:#3d3d72;fill-opacity:1;fill-rule:nonzero;stroke:none"
             id="path740"
             inkscape:connector-curvature="0" /></g><g
           id="g742"
           transform="translate(222.5415,289.9736)"><path
             d="M 0,0 -3.499,1.183 C -3.901,1.356 -4.088,1.762 -3.905,2.177 L 6.687,26.065 c 0.202,0.456 0.643,0.743 1.089,0.709 l 3.441,-0.715 c 0.35,-0.027 0.545,-0.417 0.387,-0.775 L 0.551,0.359 C 0.449,0.128 0.226,-0.017 0,0"
             style="fill:#cadaef;fill-opacity:1;fill-rule:nonzero;stroke:none"
             id="path744"
             inkscape:connector-curvature="0" /></g><g
           id="g746"
           transform="translate(230.2476,303.4492)"><path
             d="m 0,0 c 0,0 -2.188,1.812 -4.062,0.812 -1.875,-0.999 -4.376,-6.374 -4.501,-8.875 -0.125,-2.5 3.602,-5.32 3.602,-5.32 l -3.889,-8.821 2.225,-0.733 c 0,0 1.5,3.198 2.812,4.692 1.313,1.495 4.75,4.745 7.063,8.932 C 5.562,-5.125 1.55,-0.863 0,0"
             style="fill:#ffffff;fill-opacity:1;fill-rule:nonzero;stroke:none"
             id="path748"
             inkscape:connector-curvature="0" /></g><g
           id="g750"
           transform="translate(224.3022,280.9492)"><path
             d="m 0,0 c 0,0 -5.92,-22.07 -13.27,-32.67 -5.73,-8.25 -8.9,-11.229 -19.32,-0.649 -10.41,10.589 -18.91,20.999 -22,25.589 -1.82,2.7 -1.57,7.65 0.6,10.77 1.5,2.17 3.92,3.46 7.22,2.51 0,0 7.05,-3.09 15.1,-13.37 7.85,-10.01 8.58,-11.08 9.58,-10.83 1,0.25 5.79,8.8 8.8,13.04 3.25,4.59 6.33,9.24 6.33,9.24 0,0 0.81,-0.01 1.75,-0.14 0.79,-0.11 1.67,-0.3 2.25,-0.66 C -1.39,1.87 0,0 0,0"
             style="fill:#f4f4f4;fill-opacity:1;fill-rule:nonzero;stroke:none"
             id="path752"
             inkscape:connector-curvature="0" /></g><g
           id="g754"
           transform="translate(219.0923,284.4395)"><path
             d="m 0,0 c -5.78,-6.77 -13.52,-26.17 -16.64,-26.32 -3.25,-0.17 -6.16,5.66 -11.16,11.09 -5,5.44 -14.09,9.57 -14.09,9.57 l -6.89,5.21 c 1.5,2.17 3.92,3.46 7.22,2.51 0,0 7.05,-3.09 15.1,-13.37 7.85,-10.01 8.58,-11.08 9.58,-10.83 1,0.25 5.79,8.8 8.8,13.04 3.25,4.59 6.33,9.24 6.33,9.24 0,0 0.81,-0.01 1.75,-0.14"
             style="fill:#ffffff;fill-opacity:1;fill-rule:nonzero;stroke:none"
             id="path756"
             inkscape:connector-curvature="0" /></g><g
           id="g758"
           transform="translate(198.1226,77.6992)"><path
             d="m 0,0 2.75,-4.687 7.854,0.166 -1.687,6.05 z"
             style="fill:#ffffff;fill-opacity:1;fill-rule:nonzero;stroke:none"
             id="path760"
             inkscape:connector-curvature="0" /></g><g
           id="g762"
           transform="translate(166.3413,87.8867)"><path
             d="m 0,0 c 0,0 -0.969,-3.479 -1.344,-5.281 -0.375,-1.802 -0.312,-2.948 -0.312,-2.948 l 8.48,0.256 c 0,0 1.656,4.345 1.953,5.048 z"
             style="fill:#ffffff;fill-opacity:1;fill-rule:nonzero;stroke:none"
             id="path764"
             inkscape:connector-curvature="0" /></g><g
           id="g766"
           transform="translate(182.8726,207.5742)"><path
             d="m 0,0 c 0,0 11.25,-26.25 13,-47 1.75,-20.75 -16.447,-67.263 -20.697,-76.541 0,0 -6.567,1.478 -9.379,3.041 -0.081,1.527 -0.084,2.001 -0.104,3.542 -0.141,10.6 5.513,38.58 11.347,49.166 0,0 0.166,13.167 -6.5,23.667 -6.667,10.5 -14.04,30.453 -16.187,37.227 z"
             style="fill:#1a1a47;fill-opacity:1;fill-rule:nonzero;stroke:none"
             id="path768"
             inkscape:connector-curvature="0" /></g><g
           id="g770"
           transform="translate(207.6626,77.9395)"><path
             d="m 0,0 c -3.5,-1.3 -6.07,-1.43 -7.71,-1.271 -1.44,0.151 -2.17,0.521 -2.17,0.521 -10.75,11.12 -22.61,39.51 -26.16,50.51 -2.51,7.75 0,19.5 -20.25,37.63 -20.25,18.12 -19.17,34.23 -19.17,34.23 l 13.83,0.91 23.59,1.54 c 3.63,-8.18 13.5,-37.56 16.63,-44.31 3.12,-6.75 12,-38.25 14.37,-48.87 C -4.67,20.26 0,0 0,0"
             style="fill:#3d3d72;fill-opacity:1;fill-rule:nonzero;stroke:none"
             id="path772"
             inkscape:connector-curvature="0" /></g><g
           id="g774"
           transform="translate(199.9526,76.6689)"><path
             d="m 0,0 c -1.44,0.15 -2.17,0.521 -2.17,0.521 -10.75,11.12 -22.61,39.509 -26.16,50.509 -2.51,7.75 0,19.5 -20.25,37.63 -20.25,18.12 -19.17,34.231 -19.17,34.231 l 13.83,0.91 c 0.1,-5.271 1.55,-23.231 15.84,-41.101 0,0 10.99,-10.42 13.25,-19.3 2.25,-8.87 0.13,-12.37 6.13,-25.62 C -13.16,25.54 -4.96,7.19 0,0"
             style="fill:#33305b;fill-opacity:1;fill-rule:nonzero;stroke:none"
             id="path776"
             inkscape:connector-curvature="0" /></g><g
           id="g778"
           transform="translate(108.3472,181.7295)"><path
             d="m 0,0 c 0,-1.04 -1,-1.26 -1,-1.26 h -20.54 c 0,0 -2.52,0.13 -1.45,1.75 0.05,0.07 0.11,0.15 0.17,0.23 1.43,1.19 4.38,1.18 6.34,1.34 0.66,0.05 1.25,0.39 1.62,0.93 0.56,0.78 1.14,1.66 1.36,1.79 0.17,0.1 0.36,0.15 0.47,0.25 0.72,1.24 1.26,2.25 1.26,2.25 L -4.04,6.81 -4.92,5.08 -4.93,5.05 C -5.08,4.74 -4.97,4.39 -4.71,4.17 -4.18,3.729 -3.95,3.02 -3.87,2.42 -3.77,1.8 -3.26,1.34 -2.64,1.34 H -1 C -1,1.34 0,1.06 0,0"
             style="fill:#ffffff;fill-opacity:1;fill-rule:nonzero;stroke:none"
             id="path780"
             inkscape:connector-curvature="0" /></g><g
           id="g782"
           transform="translate(104.3071,188.5391)"><path
             d="m 0,0 -0.88,-1.729 c -1.46,-0.031 -4.62,-0.05 -6.86,0.2 L -8.21,-2.25 c 0,0 -0.485,-0.134 -1.061,-0.994 -0.244,-0.365 -0.819,-1.226 -1.009,-1.485 -0.19,-0.25 -0.78,-0.851 -1.61,-0.871 -0.78,-0.009 -5.04,-0.089 -7.06,-0.719 0.05,0.069 0.11,0.149 0.17,0.229 1.43,1.191 4.38,1.181 6.34,1.34 0.66,0.051 1.25,0.391 1.62,0.931 0.56,0.779 1.14,1.66 1.36,1.79 0.17,0.099 0.36,0.149 0.47,0.25 0.72,1.239 1.26,2.25 1.26,2.25 z"
             style="fill:#f4f4f4;fill-opacity:1;fill-rule:nonzero;stroke:none"
             id="path784"
             inkscape:connector-curvature="0" /></g><g
           id="g786"
           transform="translate(200.5024,73.6436)"><path
             d="m 0,0 c 0,0 -3.528,-4.164 -1.391,-9.844 0.1,-0.267 0.366,-0.444 0.652,-0.444 h 29.687 c 0.325,0 0.703,0.253 0.703,0.577 v 0.595 c 0,0.579 -0.359,1.096 -0.901,1.301 L 22.041,-5.3 c -0.159,0.06 -0.315,0.124 -0.469,0.194 l -4.276,1.918 c -0.422,0.19 -0.858,0.348 -1.303,0.474 l -2.534,0.524 c -0.724,0.15 -1.43,0.376 -2.106,0.673 L 8.076,0.064 c 0,0 -2.426,-0.635 -4.206,-0.586 C 2.151,-0.476 0,0 0,0"
             style="fill:#1a1a47;fill-opacity:1;fill-rule:nonzero;stroke:none"
             id="path788"
             inkscape:connector-curvature="0" /></g><g
           id="g790"
           transform="translate(182.8774,207.5693)"><path
             d="m 0,0 c -19.26,-9.85 -45.22,-8.43 -49.92,-8.07 -0.49,0.03 -0.75,0.06 -0.75,0.06 -9.5,20.44 -16.33,61.56 -13.16,73.06 0.32,1.17 0.76,2.26 1.3,3.28 4.7,9 16.9,12.3 23.53,13.47 0.63,0.11 1.25,0.15 1.88,0.15 0.48,-0.01 0.96,-0.04 1.45,-0.1 3.37,-0.39 7.14,-1.84 13.61,-1.84 2.92,0 4.52,0.85 6.21,1.2 0.33,0.06 0.67,0.11 1.02,0.13 0.46,0.03 0.94,0 1.48,-0.1 C -5.71,79.81 0.37,77.4 1.08,70.88 2.58,57.21 -0.5,38.63 -2.33,29.63 -4.17,20.63 0,0 0,0"
             style="fill:#ffffff;fill-opacity:1;fill-rule:nonzero;stroke:none"
             id="path792"
             inkscape:connector-curvature="0" /></g><g
           id="g794"
           transform="translate(132.9526,199.499)"><path
             d="m 0,0 c -0.49,0.03 -0.75,0.061 -0.75,0.061 -9.5,20.439 -16.33,61.56 -13.16,73.06 0.32,1.17 0.76,2.259 1.3,3.279 5.95,-2.16 11.71,-6.9 14.86,-14.069 0,0 0.702,-13.341 -3.01,-25.501 C -5.455,21.45 -0.77,4.94 0,0"
             style="fill:#ededed;fill-opacity:1;fill-rule:nonzero;stroke:none"
             id="path796"
             inkscape:connector-curvature="0" /></g><g
           id="g798"
           transform="translate(164.9976,82.6055)"><path
             d="m 0,0 c 0,0 -5.561,-2.78 -5.318,-9.494 0.027,-0.76 0.46,-1.451 1.125,-1.821 2.808,-1.563 10.676,-5.924 13.797,-7.507 0.475,-0.241 0.989,-0.365 1.521,-0.365 H 22.56 c 0.669,0 1.206,0.632 1.014,1.274 -0.258,0.863 -1.216,2.014 -4.149,2.952 -0.503,0.161 -0.967,0.42 -1.381,0.749 -1.302,1.036 -4.155,3.288 -5.481,4.212 -1.75,1.219 -4.318,7.512 -4.318,7.512 0,0 -2.906,0.163 -4.511,0.738 C 2.078,-1.156 0,0 0,0"
             style="fill:#1a1a47;fill-opacity:1;fill-rule:nonzero;stroke:none"
             id="path800"
             inkscape:connector-curvature="0" /></g><g
           id="g802"
           transform="translate(120.8916,276.8823)"><path
             d="m 0,0 c 0,0 -4.436,-4.766 -9.269,-30.183 -4.834,-25.417 -15.868,-58.656 -15.868,-58.656 0,0 1.891,-0.554 4.071,-0.735 2.266,-0.187 4.141,0.032 4.141,0.032 0,0 12.489,21.942 15.156,27.942 2.666,6 6.333,14.965 7.583,17.982 1.25,3.018 7.417,21.352 8.333,25.852 C 15.064,-13.266 12.628,4.047 0,0"
             style="fill:#ffffff;fill-opacity:1;fill-rule:nonzero;stroke:none"
             id="path804"
             inkscape:connector-curvature="0" /></g><g
           id="g806"
           transform="translate(158.4365,280.4492)"><path
             d="m 0,0 c 0,0 -2.189,-29.437 -1.439,-40.875 0.75,-11.438 -0.187,-14.688 4.313,-14.688 4.5,0 -1.563,56.062 -1.563,56.062 z"
             style="fill:#9e304f;fill-opacity:1;fill-rule:nonzero;stroke:none"
             id="path808"
             inkscape:connector-curvature="0" /></g><g
           id="g810"
           transform="translate(158.7476,280.3242)"><path
             d="M 0,0 C 0,0 -1.416,-44.224 1.792,-56.737 5,-69.25 7.396,-73.125 8.823,-74 c 1.427,-0.875 6.469,11.875 6.969,17.625 0.5,5.75 -10.156,55.234 -10.839,56.999 C 4.27,2.389 0,0 0,0"
             style="fill:#d73e5c;fill-opacity:1;fill-rule:nonzero;stroke:none"
             id="path812"
             inkscape:connector-curvature="0" /></g><g
           id="g814"
           transform="translate(158.4375,281.7495)"><path
             d="m 0,0 -1.15,-1.14 c -4.76,1.45 -9.7,6.78 -11.53,8.91 0.48,-0.01 0.96,-0.04 1.45,-0.1 C -7.86,4.88 0,0 0,0"
             style="fill:#f4f4f4;fill-opacity:1;fill-rule:nonzero;stroke:none"
             id="path816"
             inkscape:connector-curvature="0" /></g><g
           id="g818"
           transform="translate(168.0474,288.9092)"><path
             d="m 0,0 c -0.09,-1.04 -0.61,-4.69 -3.54,-6.93 l -0.81,1.31 c 0,0 2.6,3.6 3.33,5.49 0.33,0.06 0.67,0.11 1.02,0.13"
             style="fill:#f4f4f4;fill-opacity:1;fill-rule:nonzero;stroke:none"
             id="path820"
             inkscape:connector-curvature="0" /></g><g
           id="g822"
           transform="translate(160.2246,287.7236)"><path
             d="M 0,0 C 0.299,0.08 0.771,0.144 1.467,0.081 1.665,0.062 1.854,-0.044 1.973,-0.203 2.575,-0.997 4.396,-3.542 4.611,-5.481 4.74,-6.645 4.109,-7.374 3.446,-7.812 2.796,-8.242 2.014,-8.415 1.235,-8.387 c -1.01,0.036 -2.693,0.176 -3.769,0.689 -1.414,0.675 0.733,5.886 1.432,7.205 C -0.976,-0.254 -0.261,-0.07 0,0"
             style="fill:#9e304f;fill-opacity:1;fill-rule:nonzero;stroke:none"
             id="path824"
             inkscape:connector-curvature="0" /></g><g
           id="g826"
           transform="translate(158.5771,281.0117)"><path
             d="m 0,0 c 0,0 -3.455,1.268 -6.705,3.5 -1.741,1.196 -5.465,4.975 -5.465,4.975 0,0 0.247,1.134 0.74,2.033 0.175,0.319 0.632,0.992 1.102,1.348 0.266,0.202 0.562,0.352 0.887,0.276 0,0 4.811,-1.202 6.455,-1.788 C -1.905,9.959 1.479,8.528 1.479,8.528 1.798,8.454 2.006,8.146 1.955,7.821 L 0.788,0.395 C 0.73,0.028 0.329,-0.174 0,0"
             style="fill:#ffffff;fill-opacity:1;fill-rule:nonzero;stroke:none"
             id="path828"
             inkscape:connector-curvature="0" /></g><g
           id="g830"
           transform="translate(166.7666,291.6377)"><path
             d="m 0,0 c 0,0 0.471,-0.788 0.606,-1.251 0.186,-0.635 0.198,-1.528 0.198,-1.528 0,0 -0.261,-2.409 -1.511,-4.138 -0.757,-1.047 -2.21,-2.842 -2.21,-2.842 -0.178,-0.218 -0.526,-0.15 -0.609,0.118 l -2.139,6.87 c -0.079,0.253 0.044,0.527 0.287,0.636 l 4.593,2.382 C -0.522,0.364 -0.218,0.265 0,0"
             style="fill:#ffffff;fill-opacity:1;fill-rule:nonzero;stroke:none"
             id="path832"
             inkscape:connector-curvature="0" /></g><g
           id="g834"
           transform="translate(154.6519,319.4268)"><path
             d="m 0,0 c 0,0 0.138,3.761 -2.779,3.606 -3.917,-0.209 -6.82,-10.001 1.173,-11.167 0,0 0.302,4.289 1.606,7.561"
             style="fill:#f4f4f4;fill-opacity:1;fill-rule:nonzero;stroke:none"
             id="path836"
             inkscape:connector-curvature="0" /></g></g></g></g></svg>