<?xml version="1.0" encoding="UTF-8" standalone="no"?>
<!-- Created with Inkscape (http://www.inkscape.org/) -->

<svg
   xmlns:dc="http://purl.org/dc/elements/1.1/"
   xmlns:cc="http://creativecommons.org/ns#"
   xmlns:rdf="http://www.w3.org/1999/02/22-rdf-syntax-ns#"
   xmlns:svg="http://www.w3.org/2000/svg"
   xmlns="http://www.w3.org/2000/svg"
   xmlns:sodipodi="http://sodipodi.sourceforge.net/DTD/sodipodi-0.dtd"
   xmlns:inkscape="http://www.inkscape.org/namespaces/inkscape"
   version="1.1"
   id="svg2"
   xml:space="preserve"
   width="666.66669"
   height="666.66669"
   viewBox="0 0 666.66669 666.66669"
   sodipodi:docname="teamwork4.svg"
   inkscape:version="0.92.3 (unknown)"><metadata
     id="metadata8"><rdf:RDF><cc:Work
         rdf:about=""><dc:format>image/svg+xml</dc:format><dc:type
           rdf:resource="http://purl.org/dc/dcmitype/StillImage" /><dc:title></dc:title></cc:Work></rdf:RDF></metadata><defs
     id="defs6"><clipPath
       clipPathUnits="userSpaceOnUse"
       id="clipPath26"><path
         d="M 0,500 H 500 V 0 H 0 Z"
         id="path24"
         inkscape:connector-curvature="0" /></clipPath><clipPath
       clipPathUnits="userSpaceOnUse"
       id="clipPath78"><path
         d="M 84.4812,361.042 H 424.991 V 198.755 H 84.4812 Z"
         id="path76"
         inkscape:connector-curvature="0" /></clipPath><clipPath
       clipPathUnits="userSpaceOnUse"
       id="clipPath556"><path
         d="M 0,500 H 500 V 0 H 0 Z"
         id="path554"
         inkscape:connector-curvature="0" /></clipPath></defs><sodipodi:namedview
     pagecolor="#ffffff"
     bordercolor="#666666"
     borderopacity="1"
     objecttolerance="10"
     gridtolerance="10"
     guidetolerance="10"
     inkscape:pageopacity="0"
     inkscape:pageshadow="2"
     inkscape:window-width="640"
     inkscape:window-height="480"
     id="namedview4"
     showgrid="false"
     inkscape:zoom="1.0012632"
     inkscape:cx="307.11199"
     inkscape:cy="607.57394"
     inkscape:window-x="0"
     inkscape:window-y="24"
     inkscape:window-maximized="0"
     inkscape:current-layer="g10" /><g
     id="g10"
     inkscape:groupmode="layer"
     inkscape:label="353900-PASO9E-161"
     transform="matrix(1.3333333,0,0,-1.3333333,0,666.66667)"><path
       d="M 0,0 H 500 V 500 H 0 Z"
       style="fill:#83d1f5;fill-opacity:1;fill-rule:nonzero;stroke:none"
       id="path12"
       inkscape:connector-curvature="0" /><path
       d="M 0,0 H 500 V 93.462 H 0 Z"
       style="fill:#2fb4e4;fill-opacity:1;fill-rule:nonzero;stroke:none"
       id="path14"
       inkscape:connector-curvature="0" /><g
       id="g20"><g
         id="g22"
         clip-path="url(#clipPath26)"><g
           id="g28"
           transform="translate(146.3857,201.0273)"><path
             d="m 0,0 c -9.524,0 -17.212,3.805 -17.698,4.05 l 2.25,5.468 2.234,5.476 c 0.134,-0.066 13.507,-6.577 23.929,-0.128 7.159,4.43 11.684,14.196 13.451,29.025 L 34.915,42.316 C 32.669,23.465 26.276,10.68 15.914,4.317 10.627,1.071 5.055,0 0,0"
             style="fill:#d9d9d9;fill-opacity:1;fill-rule:nonzero;stroke:none"
             id="path30"
             inkscape:connector-curvature="0" /></g><g
           id="g32"
           transform="translate(255.8496,189.7168)"><path
             d="m 0,0 c -9.524,0 -17.212,3.805 -17.698,4.05 l 2.25,5.469 2.234,5.475 c 0.133,-0.066 13.507,-6.576 23.929,-0.128 7.159,4.431 11.684,14.196 13.451,29.026 L 34.914,42.317 C 32.669,23.465 26.275,10.681 15.913,4.317 10.628,1.072 5.055,0 0,0"
             style="fill:#d9d9d9;fill-opacity:1;fill-rule:nonzero;stroke:none"
             id="path34"
             inkscape:connector-curvature="0" /></g><g
           id="g36"
           transform="translate(362.1592,198.0029)"><path
             d="m 0,0 c -8.409,-4.47 -16.984,-4.72 -17.528,-4.73 l -0.58,5.883 -0.598,5.884 c 0.149,0.005 15.015,0.533 21.189,11.119 4.243,7.273 3.655,18.02 -1.746,31.943 l 10.23,3.655 C 17.832,36.054 18.188,21.765 12.025,11.282 8.881,5.936 4.464,2.373 0,0"
             style="fill:#d9d9d9;fill-opacity:1;fill-rule:nonzero;stroke:none"
             id="path38"
             inkscape:connector-curvature="0" /></g><g
           id="g40"
           transform="translate(416.8145,358.9805)"><path
             d="m 0,0 c -28.84,80.276 -101.504,82.418 -130.882,77 -29.379,-5.419 -57.494,-25.791 -68.77,-51.923 -11.276,-26.133 -27.791,-39.513 -42.574,-44.823 -14.781,-5.31 -8.305,-17.619 -8.305,-17.619 l 16.749,-46.621 16.748,-46.621 c 0,0 2.838,-13.617 17.62,-8.306 14.782,5.31 36.036,5.5 61.364,-7.483 25.328,-12.983 59.98,-10.805 86.09,3.71 C -25.85,-128.17 28.839,-80.276 0,0"
             style="fill:#fdcb63;fill-opacity:1;fill-rule:nonzero;stroke:none"
             id="path42"
             inkscape:connector-curvature="0" /></g><g
           id="g44"
           transform="translate(183.0322,274.9941)"><path
             d="M 0,0 -16.381,45.374 -83.228,21.359 c 0,0 -20.601,-8.506 -13.425,-28.481 7.176,-19.974 8.782,-24.445 8.782,-24.445 0,0 1.607,-4.473 8.783,-24.448 7.175,-19.973 28.48,-13.424 28.48,-13.424 l 66.847,24.014 z"
             style="fill:#9d9d9d;fill-opacity:1;fill-rule:nonzero;stroke:none"
             id="path46"
             inkscape:connector-curvature="0" /></g><g
           id="g48"
           transform="translate(174.5483,220.6875)"><path
             d="m 0,0 -32.62,90.799 c -1.477,4.112 0.66,8.642 4.771,10.119 4.112,1.478 8.642,-0.658 10.12,-4.77 L 14.89,5.35 C 16.367,1.238 14.231,-3.293 10.12,-4.77 6.008,-6.247 1.477,-4.111 0,0"
             style="fill:#707070;fill-opacity:1;fill-rule:nonzero;stroke:none"
             id="path50"
             inkscape:connector-curvature="0" /></g><g
           id="g52"
           transform="translate(151.3125,212.3408)"><path
             d="m 0,0 -32.62,90.798 c -1.477,4.112 0.659,8.642 4.771,10.119 4.112,1.478 8.642,-0.658 10.12,-4.77 L 14.89,5.349 C 16.367,1.237 14.231,-3.294 10.12,-4.771 6.008,-6.248 1.477,-4.112 0,0"
             style="fill:#707070;fill-opacity:1;fill-rule:nonzero;stroke:none"
             id="path54"
             inkscape:connector-curvature="0" /></g><g
           id="g56"
           transform="translate(128.0771,203.9932)"><path
             d="m 0,0 -32.62,90.798 c -1.477,4.112 0.659,8.643 4.771,10.12 4.112,1.477 8.642,-0.659 10.12,-4.771 L 14.89,5.349 C 16.367,1.237 14.231,-3.293 10.12,-4.771 6.008,-6.248 1.477,-4.111 0,0"
             style="fill:#707070;fill-opacity:1;fill-rule:nonzero;stroke:none"
             id="path58"
             inkscape:connector-curvature="0" /></g><g
           id="g60"
           transform="translate(104.5093,217.4062)"><path
             d="m 0,0 -9.348,26.02 v 0.001 l -9.347,26.019 c 0,0 -10.145,-5.329 -1.333,-29.856 V 22.183 C -11.216,-2.345 0,0 0,0"
             style="fill:#707070;fill-opacity:1;fill-rule:nonzero;stroke:none"
             id="path62"
             inkscape:connector-curvature="0" /></g><g
           id="g64"
           transform="translate(271.6465,352.2012)"><path
             d="M 0,0 C -3.178,8.847 -14.648,12.189 -22.782,9.268 -31.837,6.014 -34.365,-3.27 -29.718,-16.204 l 3.798,-10.57 0.403,0.14 c 0.193,0.059 19.601,6.16 25.01,16.993 C 1.047,-6.529 1.213,-3.376 0,0 m -8.159,-76.213 3.797,-10.571 c 2.535,-7.056 6.131,-12.052 10.397,-14.447 4.307,-2.418 8.447,-1.763 11.162,-0.787 8.134,2.921 14.855,12.8 11.677,21.646 -1.214,3.38 -3.353,5.708 -6.536,7.12 -9.218,4.084 -24.852,-0.646 -30.097,-2.813 z m -86.769,16.578 -2.567,7.147 64.427,23.146 -3.797,10.571 c -7.284,20.275 1.172,31.47 11.515,35.186 C -13.819,20.557 2.362,15.889 7.147,2.567 9.074,-2.794 8.782,-8.049 6.28,-13.049 -0.442,-26.485 -21.409,-33.306 -23.196,-33.865 l -0.157,-0.057 12.625,-35.144 0.158,0.056 c 1.734,0.705 22.248,8.787 35.984,2.7 5.112,-2.265 8.681,-6.132 10.607,-11.494 4.786,-13.321 -4.726,-27.219 -16.255,-31.361 -10.344,-3.716 -23.992,-0.462 -31.276,19.814 l -3.797,10.57 -64.427,-23.146 -2.567,7.148 64.427,23.145 -12.626,35.145 z"
             style="fill:#f29101;fill-opacity:1;fill-rule:nonzero;stroke:none"
             id="path66"
             inkscape:connector-curvature="0" /></g><g
           id="g68"
           transform="translate(354.5537,397.7915)"><path
             d="m 0,0 c -0.994,-0.093 -2.025,0.103 -2.965,0.623 -46.744,25.883 -85.521,2.136 -85.908,1.893 -2.406,-1.513 -5.583,-0.79 -7.097,1.616 -1.512,2.407 -0.789,5.583 1.617,7.097 0.455,0.286 11.338,7.041 28.657,10.203 15.919,2.906 40.588,3.217 67.717,-11.805 C 4.507,8.25 5.406,5.119 4.03,2.632 3.174,1.085 1.638,0.152 0,0"
             style="fill:#ffffff;fill-opacity:1;fill-rule:nonzero;stroke:none"
             id="path70"
             inkscape:connector-curvature="0" /></g><g
           id="g72"><g
             id="g74" /><g
             id="g110"><g
               clip-path="url(#clipPath78)"
               id="g108"
               style="opacity:0.19999701"><g
                 transform="translate(182.812,275.6069)"
                 id="g82"><path
                   d="M 0,0 H -0.001 L 0.22,-0.613 Z"
                   style="fill:#ffffff;fill-opacity:1;fill-rule:nonzero;stroke:none"
                   id="path80"
                   inkscape:connector-curvature="0" /></g><g
                 transform="translate(98.2661,234.7842)"
                 id="g86"><path
                   d="M 0,0 C -0.225,0.625 -0.435,1.211 -0.63,1.755 Z"
                   style="fill:#ffffff;fill-opacity:1;fill-rule:nonzero;stroke:none"
                   id="path84"
                   inkscape:connector-curvature="0" /></g><g
                 transform="translate(100.2363,229.3008)"
                 id="g90"><path
                   d="M 0,0 C -0.313,0.871 -0.608,1.691 -0.886,2.465 Z"
                   style="fill:#ffffff;fill-opacity:1;fill-rule:nonzero;stroke:none"
                   id="path88"
                   inkscape:connector-curvature="0" /></g><g
                 transform="translate(98.938,232.915)"
                 id="g94"><path
                   d="M 0,0 C -0.178,0.495 -0.35,0.974 -0.513,1.427 Z"
                   style="fill:#ffffff;fill-opacity:1;fill-rule:nonzero;stroke:none"
                   id="path92"
                   inkscape:connector-curvature="0" /></g><g
                 transform="translate(96.3096,240.2305)"
                 id="g98"><path
                   d="M 0,0 C -0.101,0.281 -0.195,0.545 -0.281,0.783 Z"
                   style="fill:#ffffff;fill-opacity:1;fill-rule:nonzero;stroke:none"
                   id="path96"
                   inkscape:connector-curvature="0" /></g><g
                 transform="translate(199.7808,228.373)"
                 id="g102"><path
                   d="m 0,0 c 0,0 2.837,-13.616 17.62,-8.306 14.781,5.311 36.036,5.5 61.364,-7.483 25.328,-12.982 59.979,-10.805 86.09,3.711 26.11,14.516 80.799,62.41 51.96,142.685 -0.249,0.694 -0.503,1.38 -0.758,2.062 l -233.245,-85.435 0.22,-0.613 z"
                   style="fill:#000000;fill-opacity:1;fill-rule:nonzero;stroke:none"
                   id="path100"
                   inkscape:connector-curvature="0" /></g><g
                 transform="translate(99.3506,231.7656)"
                 id="g106"><path
                   d="m 0,0 c 0.278,-0.773 0.573,-1.594 0.886,-2.465 z m -0.925,2.576 c 0.162,-0.453 0.334,-0.931 0.512,-1.427 z m -0.79,2.197 C -1.519,4.229 -1.309,3.644 -1.084,3.019 Z M -3.322,9.248 C -3.236,9.01 -3.142,8.746 -3.041,8.465 Z M 5.159,-14.359 1.407,-3.917 c 0.916,-2.55 1.969,-5.481 3.186,-8.869 5.073,-14.119 17.203,-14.985 23.88,-14.28 l 0.254,-0.706 c 1.477,-4.112 6.008,-6.249 10.119,-4.771 4.112,1.478 6.248,6.008 4.771,10.119 l 8.345,2.998 c 1.477,-4.111 6.008,-6.247 10.12,-4.769 4.111,1.476 6.247,6.008 4.77,10.119 l 8.346,2.998 c 1.477,-4.111 6.008,-6.247 10.119,-4.77 4.112,1.477 6.248,6.008 4.771,10.119 L 99.92,-2.196 83.682,43.229 83.46,43.841 -14.869,7.823 C -6.058,-16.704 5.159,-14.359 5.159,-14.359"
                   style="fill:#000000;fill-opacity:1;fill-rule:nonzero;stroke:none"
                   id="path104"
                   inkscape:connector-curvature="0" /></g></g></g></g><g
           id="g112"
           transform="translate(178.0547,53.0479)"><path
             d="m 0,0 c 0,-1.846 -21.115,-3.342 -47.162,-3.342 -26.047,0 -47.162,1.496 -47.162,3.342 0,1.846 21.115,3.343 47.162,3.343 C -21.115,3.343 0,1.846 0,0"
             style="fill:#109ac0;fill-opacity:1;fill-rule:nonzero;stroke:none"
             id="path114"
             inkscape:connector-curvature="0" /></g><g
           id="g116"
           transform="translate(91.2598,72.8682)"><path
             d="M 0,0 -8.576,12.94 22.218,33.346 33.716,88.533 48.913,85.367 36.114,23.932 Z"
             style="fill:#f6a375;fill-opacity:1;fill-rule:nonzero;stroke:none"
             id="path118"
             inkscape:connector-curvature="0" /></g><path
           d="m 136.062,209.299 h -9.703 v 14.994 h 9.703 z"
           style="fill:#f6a375;fill-opacity:1;fill-rule:nonzero;stroke:none"
           id="path120"
           inkscape:connector-curvature="0" /><g
           id="g122"
           transform="translate(181.2402,240.8682)"><path
             d="m 0,0 c 0,-3.832 -3.106,-6.937 -6.937,-6.937 -3.831,0 -6.937,3.105 -6.937,6.937 0,3.831 3.106,6.937 6.937,6.937 C -3.106,6.937 0,3.831 0,0"
             style="fill:#f6c19f;fill-opacity:1;fill-rule:nonzero;stroke:none"
             id="path124"
             inkscape:connector-curvature="0" /></g><g
           id="g126"
           transform="translate(169.0991,238.167)"><path
             d="m 0,0 c -0.598,0 -1.166,0.351 -1.415,0.936 -2.705,6.359 1.155,15.511 1.321,15.897 0.334,0.78 1.238,1.141 2.017,0.807 0.78,-0.334 1.141,-1.237 0.806,-2.017 C 2.674,15.492 -0.771,7.271 1.413,2.138 1.745,1.357 1.381,0.455 0.6,0.123 0.404,0.039 0.2,0 0,0"
             style="fill:#f6c19f;fill-opacity:1;fill-rule:nonzero;stroke:none"
             id="path128"
             inkscape:connector-curvature="0" /></g><g
           id="g130"
           transform="translate(172.125,240.8779)"><path
             d="m 0,0 c -0.716,0 -1.356,0.503 -1.504,1.231 -1.383,6.827 3.936,14.317 4.163,14.633 0.495,0.688 1.455,0.845 2.144,0.349 C 5.491,15.718 5.647,14.759 5.153,14.07 5.105,14.003 0.392,7.345 1.507,1.842 1.676,1.01 1.138,0.199 0.307,0.031 0.204,0.01 0.101,0 0,0"
             style="fill:#f6c19f;fill-opacity:1;fill-rule:nonzero;stroke:none"
             id="path132"
             inkscape:connector-curvature="0" /></g><g
           id="g134"
           transform="translate(176.0293,242.3086)"><path
             d="M 0,0 C -0.684,0 -1.308,0.46 -1.486,1.153 -3.05,7.227 2.442,13.2 2.676,13.451 c 0.579,0.62 1.552,0.654 2.171,0.075 0.62,-0.578 0.654,-1.549 0.077,-2.17 C 4.878,11.307 0.347,6.354 1.489,1.919 1.7,1.098 1.206,0.26 0.384,0.049 0.255,0.016 0.127,0 0,0"
             style="fill:#f6c19f;fill-opacity:1;fill-rule:nonzero;stroke:none"
             id="path136"
             inkscape:connector-curvature="0" /></g><g
           id="g138"
           transform="translate(179.3521,241.2529)"><path
             d="m 0,0 c -0.736,0 -1.386,0.531 -1.513,1.281 -0.894,5.307 3.425,10.84 3.609,11.073 0.526,0.666 1.492,0.778 2.157,0.252 C 4.918,12.08 5.031,11.114 4.506,10.449 4.439,10.364 0.853,5.729 1.517,1.792 1.658,0.955 1.094,0.163 0.257,0.021 0.171,0.008 0.085,0 0,0"
             style="fill:#f6c19f;fill-opacity:1;fill-rule:nonzero;stroke:none"
             id="path140"
             inkscape:connector-curvature="0" /></g><g
           id="g142"
           transform="translate(135.1162,268.9385)"><path
             d="m 0,0 h -7.811 c -9.374,0 -17.043,-7.669 -17.043,-17.043 v -12.322 c -3.635,-0.714 -5.999,-4.971 -3.338,-9.029 0.104,-0.158 0.235,-0.301 0.383,-0.419 2.101,-1.674 4.164,-1.834 5.871,-1.236 3.655,-6.169 10.38,-10.33 18.032,-10.33 h 2.953 c 9.898,0 17.995,8.099 17.995,17.996 v 15.34 C 17.042,-7.669 9.374,0 0,0"
             style="fill:#f6c19f;fill-opacity:1;fill-rule:nonzero;stroke:none"
             id="path144"
             inkscape:connector-curvature="0" /></g><g
           id="g146"
           transform="translate(108.6616,238.9912)"><path
             d="m 0,0 6.205,-1.601 v 16.578 c 0,0 36.165,-7.607 37.6,5.518 C 45.239,33.619 4.049,36.148 -0.844,16.821 -3.525,4.57 0,0 0,0"
             style="fill:#f29101;fill-opacity:1;fill-rule:nonzero;stroke:none"
             id="path148"
             inkscape:connector-curvature="0" /></g><g
           id="g150"
           transform="translate(168.4473,62.8936)"><path
             d="M 0,0 V 43.323 L -44.142,87.93 -55.176,77.01 -15.524,36.941 V 0 l 0.139,-9.846 h 25.23 z"
             style="fill:#353535;fill-opacity:1;fill-rule:nonzero;stroke:none"
             id="path152"
             inkscape:connector-curvature="0" /></g><g
           id="g154"
           transform="translate(91.6753,73.1299)"><path
             d="m 0,0 -2.839,-13.63 -13.828,21.103 8.159,5.512 z"
             style="fill:#353535;fill-opacity:1;fill-rule:nonzero;stroke:none"
             id="path156"
             inkscape:connector-curvature="0" /></g><g
           id="g158"
           transform="translate(135.2896,212.7266)"><path
             d="m 0,0 c 0,0 14.292,-7.938 15.817,-47.63 0.762,-28.224 -1.906,-34.399 -1.906,-34.399 h -37.255 c 0,0 -7.337,91.291 23.344,82.029"
             style="fill:#fcffff;fill-opacity:1;fill-rule:nonzero;stroke:none"
             id="path160"
             inkscape:connector-curvature="0" /></g><path
           d="m 130.509,140.086 h -1.164 v 70.253 h 1.164 z"
           style="fill:#f5f5f5;fill-opacity:1;fill-rule:nonzero;stroke:none"
           id="path162"
           inkscape:connector-curvature="0" /><g
           id="g164"
           transform="translate(141.021,194.7051)"><path
             d="m 0,0 c -5.311,0 -10.106,0.963 -13.63,1.95 -3.24,0.908 -4.893,4.507 -3.496,7.569 1.343,2.971 4.626,4.534 7.788,3.731 5.39,-1.369 13.951,-2.439 21.217,1.616 7.937,4.431 13.128,13.516 15.087,28.345 L 38.26,41.333 C 35.77,22.481 29.132,10.681 17.643,4.317 11.783,1.072 5.604,0 0,0"
             style="fill:#f5f5f5;fill-opacity:1;fill-rule:nonzero;stroke:none"
             id="path166"
             inkscape:connector-curvature="0" /></g><g
           id="g168"
           transform="translate(111.0801,131.0576)"><path
             d="m 0,0 41.843,-31.223 v -36.941 h 15.524 v 43.323 L 39.779,-0.36 39.245,9.028 h -39.28 z"
             style="fill:#0c4e76;fill-opacity:1;fill-rule:nonzero;stroke:none"
             id="path170"
             inkscape:connector-curvature="0" /></g><g
           id="g172"
           transform="translate(111.0801,131.0576)"><path
             d="m 0,0 2.398,-24.844 -30.311,-20.098 8.508,-12.986 35.698,23.67 3.985,19.126 z"
             style="fill:#013f65;fill-opacity:1;fill-rule:nonzero;stroke:none"
             id="path174"
             inkscape:connector-curvature="0" /></g><g
           id="g176"
           transform="translate(111.0454,140.0859)"><path
             d="M 0,0 V -3.794 H 39.508 L 39.279,0 Z"
             style="fill:#353535;fill-opacity:1;fill-rule:nonzero;stroke:none"
             id="path178"
             inkscape:connector-curvature="0" /></g><g
           id="g180"
           transform="translate(126.3594,214.2773)"><path
             d="M 0,0 9.703,-1.26 12,-4.71 c 0,0 -6.93,-2.208 -13.867,1.914 C -1.86,-2.79 0,0 0,0"
             style="fill:#d9d9d9;fill-opacity:1;fill-rule:nonzero;stroke:none"
             id="path182"
             inkscape:connector-curvature="0" /></g><g
           id="g184"
           transform="translate(167.9868,237.916)"><path
             d="M 0,0 11.294,-1.878 10.868,-6.511 -1.077,-4.307 Z"
             style="fill:#d9d9d9;fill-opacity:1;fill-rule:nonzero;stroke:none"
             id="path186"
             inkscape:connector-curvature="0" /></g><g
           id="g188"
           transform="translate(131.3628,242.4824)"><path
             d="m 0,0 c 0,-1.215 -0.985,-2.199 -2.199,-2.199 -1.215,0 -2.199,0.984 -2.199,2.199 0,1.214 0.984,2.199 2.199,2.199 C -0.985,2.199 0,1.214 0,0"
             style="fill:#1c1c1b;fill-opacity:1;fill-rule:nonzero;stroke:none"
             id="path190"
             inkscape:connector-curvature="0" /></g><g
           id="g192"
           transform="translate(148.5771,242.4824)"><path
             d="m 0,0 c 0,-1.215 -0.984,-2.199 -2.199,-2.199 -1.214,0 -2.199,0.984 -2.199,2.199 0,1.214 0.985,2.199 2.199,2.199 C -0.984,2.199 0,1.214 0,0"
             style="fill:#1c1c1b;fill-opacity:1;fill-rule:nonzero;stroke:none"
             id="path194"
             inkscape:connector-curvature="0" /></g><g
           id="g196"
           transform="translate(125.4136,245.998)"><path
             d="M 0,0 H -0.001 C -0.305,0.191 -0.369,0.608 -0.13,0.877 0.649,1.755 2.549,3.369 5.826,3.118 6.162,3.092 6.41,2.786 6.362,2.452 6.319,2.151 6.05,1.933 5.747,1.955 2.958,2.167 1.36,0.794 0.741,0.104 0.552,-0.107 0.24,-0.15 0,0"
             style="fill:#9b6648;fill-opacity:1;fill-rule:nonzero;stroke:none"
             id="path198"
             inkscape:connector-curvature="0" /></g><g
           id="g200"
           transform="translate(149.0464,246.1748)"><path
             d="m 0,0 c -0.506,0.682 -1.742,1.942 -3.876,1.787 -0.3,-0.021 -0.57,0.183 -0.621,0.48 -0.058,0.336 0.185,0.655 0.525,0.681 C -1.337,3.146 0.244,1.582 0.918,0.7 1.14,0.41 1.049,-0.008 0.725,-0.175 L 0.268,-0.411 0.785,-0.144 0.736,-0.169 C 0.482,-0.302 0.171,-0.23 0,0"
             style="fill:#9b6648;fill-opacity:1;fill-rule:nonzero;stroke:none"
             id="path202"
             inkscape:connector-curvature="0" /></g><g
           id="g204"
           transform="translate(132.1553,230.3379)"><path
             d="m 0,0 c 1.833,-2.001 6.494,-5.772 11.859,-0.013 0.329,0.353 0.135,1.031 -0.297,1.031 H 0.307 C -0.121,1.018 -0.323,0.352 0,0"
             style="fill:#fb6363;fill-opacity:1;fill-rule:nonzero;stroke:none"
             id="path206"
             inkscape:connector-curvature="0" /></g><g
           id="g208"
           transform="translate(129.3477,243.4766)"><path
             d="m 0,0 c 0,-0.337 -0.273,-0.61 -0.611,-0.61 -0.337,0 -0.611,0.273 -0.611,0.61 0,0.338 0.274,0.611 0.611,0.611 C -0.273,0.611 0,0.338 0,0"
             style="fill:#ffffff;fill-opacity:1;fill-rule:nonzero;stroke:none"
             id="path210"
             inkscape:connector-curvature="0" /></g><g
           id="g212"
           transform="translate(146.3784,243.4766)"><path
             d="m 0,0 c 0,-0.337 -0.273,-0.61 -0.611,-0.61 -0.337,0 -0.611,0.273 -0.611,0.61 0,0.338 0.274,0.611 0.611,0.611 C -0.273,0.611 0,0.338 0,0"
             style="fill:#ffffff;fill-opacity:1;fill-rule:nonzero;stroke:none"
             id="path214"
             inkscape:connector-curvature="0" /></g><g
           id="g216"
           transform="translate(136.7183,238.3975)"><path
             d="M 0,0 C 0.503,1.466 2.751,1.536 3.763,0.659 4.817,-0.256 4.766,-1.859 3.417,-2.453 2.847,-2.704 3.34,-3.54 3.907,-3.291 5.872,-2.426 5.917,0.146 4.361,1.433 2.763,2.752 -0.212,2.364 -0.936,0.258 -1.139,-0.334 -0.202,-0.589 0,0"
             style="fill:#f6a375;fill-opacity:1;fill-rule:nonzero;stroke:none"
             id="path218"
             inkscape:connector-curvature="0" /></g><g
           id="g220"
           transform="translate(137.4155,242.5303)"><path
             d="m 0,0 c 0.159,-0.731 0.288,-1.468 0.388,-2.21 0.073,-0.538 0.989,-0.414 0.953,0.13 -0.003,0.042 -0.006,0.084 -0.008,0.126 -0.042,0.619 -1.013,0.624 -0.971,0 0.003,-0.042 0.006,-0.084 0.009,-0.126 0.317,0.043 0.635,0.086 0.953,0.129 -0.1,0.741 -0.23,1.477 -0.388,2.209 C 0.803,0.867 -0.132,0.609 0,0"
             style="fill:#f6a375;fill-opacity:1;fill-rule:nonzero;stroke:none"
             id="path222"
             inkscape:connector-curvature="0" /></g><g
           id="g224"
           transform="translate(109.3594,233.9814)"><path
             d="m 0,0 c 0.329,0.794 1.597,0.727 2.222,0.381 0.779,-0.431 1.146,-1.246 1.194,-2.109 0.034,-0.621 1.004,-0.625 0.97,0 C 4.309,-0.344 3.603,0.935 2.25,1.424 1.07,1.851 -0.432,1.473 -0.936,0.259 -1.174,-0.317 -0.236,-0.569 0,0"
             style="fill:#f6a375;fill-opacity:1;fill-rule:nonzero;stroke:none"
             id="path226"
             inkscape:connector-curvature="0" /></g><g
           id="g228"
           transform="translate(111.5146,232.0771)"><path
             d="M 0,0 C -0.072,0.758 0.215,1.412 0.814,1.882 1.305,2.267 0.614,2.949 0.128,2.567 -0.646,1.961 -1.062,0.978 -0.97,0 -0.912,-0.616 0.059,-0.623 0,0"
             style="fill:#f6a375;fill-opacity:1;fill-rule:nonzero;stroke:none"
             id="path230"
             inkscape:connector-curvature="0" /></g><g
           id="g232"
           transform="translate(127.9141,238.6475)"><path
             d="m 0,0 c 0,-1.248 -1.011,-2.26 -2.259,-2.26 -1.248,0 -2.26,1.012 -2.26,2.26 0,1.248 1.012,2.259 2.26,2.259 C -1.011,2.259 0,1.248 0,0"
             style="fill:#fd8e8f;fill-opacity:1;fill-rule:nonzero;stroke:none"
             id="path234"
             inkscape:connector-curvature="0" /></g><g
           id="g236"
           transform="translate(151.8325,238.6475)"><path
             d="m 0,0 c 0,-1.248 -1.012,-2.26 -2.26,-2.26 -1.247,0 -2.259,1.012 -2.259,2.26 0,1.248 1.012,2.259 2.259,2.259 C -1.012,2.259 0,1.248 0,0"
             style="fill:#fd8e8f;fill-opacity:1;fill-rule:nonzero;stroke:none"
             id="path238"
             inkscape:connector-curvature="0" /></g><g
           id="g240"
           transform="translate(110.521,252.7329)"><path
             d="m 0,0 c -0.075,0 -0.152,0.007 -0.229,0.022 -0.63,0.121 -1.04,0.711 -0.914,1.319 0.073,0.35 1.914,8.627 13.623,12.571 0.607,0.205 1.271,-0.103 1.484,-0.688 C 14.176,12.64 13.856,12 13.249,11.796 2.781,8.27 1.156,0.975 1.141,0.901 1.03,0.369 0.544,0 0,0"
             style="fill:#ffb04b;fill-opacity:1;fill-rule:nonzero;stroke:none"
             id="path242"
             inkscape:connector-curvature="0" /></g><g
           id="g244"
           transform="translate(170.0767,238.5479)"><path
             d="m 0,0 c -0.428,-0.6 -1.189,-0.854 -1.805,-0.57 -4.359,2.011 -5.851,8.382 -5.913,8.653 -0.176,0.772 0.304,1.616 1.072,1.887 0.767,0.269 1.53,-0.138 1.706,-0.908 C -4.917,8.963 -3.647,3.651 -0.415,2.159 0.272,1.842 0.518,0.974 0.134,0.221 0.094,0.143 0.049,0.069 0,0"
             style="fill:#f6c19f;fill-opacity:1;fill-rule:nonzero;stroke:none"
             id="path246"
             inkscape:connector-curvature="0" /></g><g
           id="g248"
           transform="translate(287.3145,53.0479)"><path
             d="m 0,0 c 0,-1.846 -21.114,-3.342 -47.162,-3.342 -26.046,0 -47.162,1.496 -47.162,3.342 0,1.846 21.116,3.343 47.162,3.343 C -21.114,3.343 0,1.846 0,0"
             style="fill:#109ac0;fill-opacity:1;fill-rule:nonzero;stroke:none"
             id="path250"
             inkscape:connector-curvature="0" /></g><g
           id="g252"
           transform="translate(200.4395,72.8682)"><path
             d="M 0,0 -8.575,12.94 22.218,33.346 33.716,88.533 48.913,85.367 36.114,23.932 Z"
             style="fill:#845440;fill-opacity:1;fill-rule:nonzero;stroke:none"
             id="path254"
             inkscape:connector-curvature="0" /></g><g
           id="g256"
           transform="translate(200.855,73.1299)"><path
             d="m 0,0 -2.839,-13.63 -13.828,21.103 8.159,5.512 z"
             style="fill:#845440;fill-opacity:1;fill-rule:nonzero;stroke:none"
             id="path258"
             inkscape:connector-curvature="0" /></g><path
           d="m 245.242,209.299 h -9.702 v 14.994 h 9.702 z"
           style="fill:#845440;fill-opacity:1;fill-rule:nonzero;stroke:none"
           id="path260"
           inkscape:connector-curvature="0" /><g
           id="g262"
           transform="translate(244.0854,212.7266)"><path
             d="m 0,0 c 0,0 14.292,-7.938 15.817,-47.63 0.763,-28.224 -1.905,-34.399 -1.905,-34.399 h -37.256 c 0,0 -7.338,91.291 23.344,82.029"
             style="fill:#9a7058;fill-opacity:1;fill-rule:nonzero;stroke:none"
             id="path264"
             inkscape:connector-curvature="0" /></g><g
           id="g266"
           transform="translate(277.627,62.8936)"><path
             d="M 0,0 H -15.523 V 36.941 L -55.175,77.01 -44.141,87.93 0,43.323 Z"
             style="fill:#9a7058;fill-opacity:1;fill-rule:nonzero;stroke:none"
             id="path268"
             inkscape:connector-curvature="0" /></g><g
           id="g270"
           transform="translate(277.627,62.8936)"><path
             d="M 0,0 9.846,-9.846 H -15.385 L -15.523,0 Z"
             style="fill:#9a7058;fill-opacity:1;fill-rule:nonzero;stroke:none"
             id="path272"
             inkscape:connector-curvature="0" /></g><g
           id="g274"
           transform="translate(290.4199,240.8682)"><path
             d="m 0,0 c 0,-3.832 -3.105,-6.937 -6.937,-6.937 -3.831,0 -6.937,3.105 -6.937,6.937 0,3.831 3.106,6.937 6.937,6.937 C -3.105,6.937 0,3.831 0,0"
             style="fill:#9a7058;fill-opacity:1;fill-rule:nonzero;stroke:none"
             id="path276"
             inkscape:connector-curvature="0" /></g><g
           id="g278"
           transform="translate(278.2783,238.167)"><path
             d="m 0,0 c -0.597,0 -1.165,0.351 -1.414,0.936 -2.705,6.359 1.155,15.511 1.32,15.897 0.335,0.78 1.239,1.141 2.018,0.807 C 2.703,17.306 3.064,16.403 2.73,15.623 2.675,15.492 -0.771,7.271 1.413,2.138 1.745,1.357 1.382,0.455 0.601,0.123 0.405,0.039 0.201,0 0,0"
             style="fill:#9a7058;fill-opacity:1;fill-rule:nonzero;stroke:none"
             id="path280"
             inkscape:connector-curvature="0" /></g><g
           id="g282"
           transform="translate(281.3047,240.8779)"><path
             d="m 0,0 c -0.716,0 -1.355,0.503 -1.504,1.231 -1.383,6.827 3.936,14.317 4.163,14.633 0.495,0.688 1.455,0.845 2.144,0.349 C 5.491,15.718 5.647,14.759 5.153,14.07 5.105,14.003 0.393,7.345 1.507,1.842 1.676,1.01 1.139,0.199 0.307,0.031 0.204,0.01 0.102,0 0,0"
             style="fill:#9a7058;fill-opacity:1;fill-rule:nonzero;stroke:none"
             id="path284"
             inkscape:connector-curvature="0" /></g><g
           id="g286"
           transform="translate(285.209,242.3086)"><path
             d="M 0,0 C -0.684,0 -1.308,0.46 -1.486,1.153 -3.05,7.227 2.442,13.2 2.677,13.451 c 0.579,0.62 1.551,0.654 2.171,0.075 0.619,-0.578 0.653,-1.549 0.076,-2.17 C 4.878,11.307 0.347,6.354 1.489,1.919 1.7,1.098 1.206,0.26 0.385,0.049 0.256,0.016 0.127,0 0,0"
             style="fill:#9a7058;fill-opacity:1;fill-rule:nonzero;stroke:none"
             id="path288"
             inkscape:connector-curvature="0" /></g><g
           id="g290"
           transform="translate(288.5322,241.2529)"><path
             d="m 0,0 c -0.736,0 -1.387,0.531 -1.513,1.281 -0.895,5.307 3.424,10.84 3.609,11.073 0.526,0.666 1.492,0.778 2.157,0.252 C 4.918,12.08 5.031,11.114 4.506,10.449 4.438,10.364 0.853,5.729 1.517,1.792 1.657,0.955 1.094,0.163 0.257,0.021 0.171,0.008 0.085,0 0,0"
             style="fill:#9a7058;fill-opacity:1;fill-rule:nonzero;stroke:none"
             id="path292"
             inkscape:connector-curvature="0" /></g><g
           id="g294"
           transform="translate(240.3906,268.9385)"><path
             d="m 0,0 v 0 c -11.521,0 -20.948,-9.427 -20.948,-20.948 v -8.417 c -2.664,-0.524 -4.645,-2.948 -4.467,-5.804 0.164,-2.624 2.226,-4.808 4.832,-5.151 0.905,-0.119 1.765,-0.004 2.55,0.271 3.656,-6.169 10.38,-10.33 18.033,-10.33 h 4.54 c 9.024,0 16.408,7.384 16.408,16.408 v 13.023 C 20.948,-9.427 11.521,0 0,0"
             style="fill:#9a7058;fill-opacity:1;fill-rule:nonzero;stroke:none"
             id="path296"
             inkscape:connector-curvature="0" /></g><g
           id="g298"
           transform="translate(217.2256,238.5967)"><path
             d="m 0,0 2.748,0.489 3.431,-4.941 1.622,0.32 c 0,0 -2.006,10.987 0.785,17.267 23.435,-4.206 34.713,2.032 34.713,2.032 0,0 -2.707,17.763 -22.373,15.583 C 1.26,28.569 -3.441,14.596 0,0"
             style="fill:#522b0e;fill-opacity:1;fill-rule:nonzero;stroke:none"
             id="path300"
             inkscape:connector-curvature="0" /></g><g
           id="g302"
           transform="translate(277.625,62.8936)"><path
             d="M 0,0 V 43.323 L -44.141,87.93 -55.175,77.01 -15.523,36.941 V 0 l 0.138,-9.846 H 9.846 Z"
             style="fill:#353535;fill-opacity:1;fill-rule:nonzero;stroke:none"
             id="path304"
             inkscape:connector-curvature="0" /></g><g
           id="g306"
           transform="translate(200.853,73.1299)"><path
             d="m 0,0 -2.838,-13.63 -13.829,21.103 8.159,5.512 z"
             style="fill:#212121;fill-opacity:1;fill-rule:nonzero;stroke:none"
             id="path308"
             inkscape:connector-curvature="0" /></g><g
           id="g310"
           transform="translate(244.0835,212.7266)"><path
             d="m 0,0 c 0,0 14.292,-7.938 15.817,-47.63 0.763,-28.224 -1.905,-34.399 -1.905,-34.399 h -37.256 c 0,0 -7.338,91.291 23.344,82.029"
             style="fill:#fcffff;fill-opacity:1;fill-rule:nonzero;stroke:none"
             id="path312"
             inkscape:connector-curvature="0" /></g><path
           d="m 239.687,140.086 h -1.165 v 70.253 h 1.165 z"
           style="fill:#f5f5f5;fill-opacity:1;fill-rule:nonzero;stroke:none"
           id="path314"
           inkscape:connector-curvature="0" /><g
           id="g316"
           transform="translate(250.1992,194.7051)"><path
             d="m 0,0 c -5.311,0 -10.107,0.963 -13.631,1.95 -3.24,0.908 -4.892,4.507 -3.496,7.569 1.344,2.971 4.627,4.534 7.789,3.731 5.39,-1.369 13.951,-2.439 21.217,1.616 7.937,4.431 13.128,13.516 15.086,28.345 L 38.26,41.333 C 35.77,22.481 29.132,10.681 17.643,4.317 11.782,1.072 5.604,0 0,0"
             style="fill:#f5f5f5;fill-opacity:1;fill-rule:nonzero;stroke:none"
             id="path318"
             inkscape:connector-curvature="0" /></g><g
           id="g320"
           transform="translate(220.2578,131.0576)"><path
             d="m 0,0 41.844,-31.223 v -36.941 h 15.523 v 43.323 L 39.779,-0.36 39.244,9.028 H -0.035 Z"
             style="fill:#4e4e4e;fill-opacity:1;fill-rule:nonzero;stroke:none"
             id="path322"
             inkscape:connector-curvature="0" /></g><g
           id="g324"
           transform="translate(220.2578,131.0576)"><path
             d="m 0,0 2.398,-24.844 -30.311,-20.098 8.508,-12.986 35.698,23.67 3.985,19.126 z"
             style="fill:#353535;fill-opacity:1;fill-rule:nonzero;stroke:none"
             id="path326"
             inkscape:connector-curvature="0" /></g><g
           id="g328"
           transform="translate(220.2231,140.0859)"><path
             d="M 0,0 V -3.794 H 39.508 L 39.279,0 Z"
             style="fill:#353535;fill-opacity:1;fill-rule:nonzero;stroke:none"
             id="path330"
             inkscape:connector-curvature="0" /></g><g
           id="g332"
           transform="translate(235.5376,214.2773)"><path
             d="m 0,0 9.702,-1.26 2.297,-3.45 c 0,0 -6.929,-2.208 -13.867,1.914 C -1.86,-2.79 0,0 0,0"
             style="fill:#d9d9d9;fill-opacity:1;fill-rule:nonzero;stroke:none"
             id="path334"
             inkscape:connector-curvature="0" /></g><g
           id="g336"
           transform="translate(277.1641,237.916)"><path
             d="M 0,0 11.295,-1.878 10.869,-6.511 -1.076,-4.307 Z"
             style="fill:#d9d9d9;fill-opacity:1;fill-rule:nonzero;stroke:none"
             id="path338"
             inkscape:connector-curvature="0" /></g><g
           id="g340"
           transform="translate(240.6255,242.4824)"><path
             d="m 0,0 c 0,-1.215 -0.985,-2.199 -2.199,-2.199 -1.215,0 -2.199,0.984 -2.199,2.199 0,1.214 0.984,2.199 2.199,2.199 C -0.985,2.199 0,1.214 0,0"
             style="fill:#1c1c1b;fill-opacity:1;fill-rule:nonzero;stroke:none"
             id="path342"
             inkscape:connector-curvature="0" /></g><g
           id="g344"
           transform="translate(257.8398,242.4824)"><path
             d="m 0,0 c 0,-1.215 -0.984,-2.199 -2.199,-2.199 -1.214,0 -2.198,0.984 -2.198,2.199 0,1.214 0.984,2.199 2.198,2.199 C -0.984,2.199 0,1.214 0,0"
             style="fill:#1c1c1b;fill-opacity:1;fill-rule:nonzero;stroke:none"
             id="path346"
             inkscape:connector-curvature="0" /></g><g
           id="g348"
           transform="translate(234.6763,245.998)"><path
             d="M 0,0 H -0.001 C -0.305,0.191 -0.369,0.608 -0.13,0.877 0.649,1.755 2.549,3.369 5.826,3.118 6.162,3.092 6.41,2.786 6.362,2.452 6.319,2.151 6.05,1.933 5.747,1.955 2.958,2.167 1.36,0.794 0.741,0.104 0.552,-0.107 0.24,-0.15 0,0"
             style="fill:#522b0e;fill-opacity:1;fill-rule:nonzero;stroke:none"
             id="path350"
             inkscape:connector-curvature="0" /></g><g
           id="g352"
           transform="translate(258.3096,246.1748)"><path
             d="m 0,0 c -0.507,0.682 -1.742,1.942 -3.877,1.787 -0.3,-0.021 -0.569,0.183 -0.62,0.48 -0.059,0.336 0.185,0.655 0.524,0.681 C -1.338,3.146 0.244,1.582 0.918,0.7 1.14,0.41 1.049,-0.008 0.725,-0.175 L 0.268,-0.411 0.784,-0.144 0.736,-0.169 C 0.481,-0.302 0.171,-0.23 0,0"
             style="fill:#522b0e;fill-opacity:1;fill-rule:nonzero;stroke:none"
             id="path354"
             inkscape:connector-curvature="0" /></g><g
           id="g356"
           transform="translate(238.6104,243.4766)"><path
             d="m 0,0 c 0,-0.337 -0.273,-0.61 -0.611,-0.61 -0.337,0 -0.611,0.273 -0.611,0.61 0,0.338 0.274,0.611 0.611,0.611 C -0.273,0.611 0,0.338 0,0"
             style="fill:#ffffff;fill-opacity:1;fill-rule:nonzero;stroke:none"
             id="path358"
             inkscape:connector-curvature="0" /></g><g
           id="g360"
           transform="translate(255.6406,243.4766)"><path
             d="m 0,0 c 0,-0.337 -0.273,-0.61 -0.61,-0.61 -0.337,0 -0.611,0.273 -0.611,0.61 0,0.338 0.274,0.611 0.611,0.611 C -0.273,0.611 0,0.338 0,0"
             style="fill:#ffffff;fill-opacity:1;fill-rule:nonzero;stroke:none"
             id="path362"
             inkscape:connector-curvature="0" /></g><g
           id="g364"
           transform="translate(245.981,238.3975)"><path
             d="M 0,0 C 0.503,1.466 2.751,1.536 3.763,0.659 4.817,-0.256 4.766,-1.859 3.417,-2.453 2.847,-2.704 3.34,-3.54 3.907,-3.291 5.872,-2.426 5.917,0.146 4.361,1.433 2.763,2.752 -0.212,2.364 -0.936,0.258 -1.139,-0.334 -0.202,-0.589 0,0"
             style="fill:#845440;fill-opacity:1;fill-rule:nonzero;stroke:none"
             id="path366"
             inkscape:connector-curvature="0" /></g><g
           id="g368"
           transform="translate(246.6782,242.5303)"><path
             d="m 0,0 c 0.159,-0.731 0.288,-1.468 0.388,-2.21 0.073,-0.538 0.989,-0.414 0.953,0.13 -0.003,0.042 -0.006,0.084 -0.008,0.126 -0.042,0.619 -1.013,0.624 -0.971,0 0.003,-0.042 0.006,-0.084 0.009,-0.126 0.317,0.043 0.635,0.086 0.953,0.129 -0.1,0.741 -0.23,1.477 -0.388,2.209 C 0.803,0.867 -0.132,0.609 0,0"
             style="fill:#845440;fill-opacity:1;fill-rule:nonzero;stroke:none"
             id="path370"
             inkscape:connector-curvature="0" /></g><g
           id="g372"
           transform="translate(218.6221,233.9814)"><path
             d="m 0,0 c 0.329,0.794 1.597,0.727 2.222,0.381 0.779,-0.431 1.146,-1.246 1.194,-2.109 0.034,-0.621 1.004,-0.625 0.97,0 C 4.309,-0.344 3.603,0.935 2.25,1.424 1.07,1.851 -0.432,1.473 -0.936,0.259 -1.174,-0.317 -0.236,-0.569 0,0"
             style="fill:#845440;fill-opacity:1;fill-rule:nonzero;stroke:none"
             id="path374"
             inkscape:connector-curvature="0" /></g><g
           id="g376"
           transform="translate(220.7773,232.0771)"><path
             d="M 0,0 C -0.072,0.758 0.215,1.412 0.814,1.882 1.305,2.267 0.614,2.949 0.128,2.567 -0.646,1.961 -1.062,0.978 -0.971,0 -0.912,-0.616 0.059,-0.623 0,0"
             style="fill:#845440;fill-opacity:1;fill-rule:nonzero;stroke:none"
             id="path378"
             inkscape:connector-curvature="0" /></g><g
           id="g380"
           transform="translate(247.4092,226.7793)"><path
             d="m 0,0 h -0.073 c -4.12,0.035 -7.094,3.064 -7.219,3.194 -0.271,0.281 -0.263,0.728 0.017,0.998 0.281,0.271 0.727,0.264 0.998,-0.016 C -6.25,4.149 -3.571,1.437 -0.049,1.412 2.04,1.395 4.042,2.33 5.895,4.184 6.171,4.46 6.618,4.46 6.894,4.184 7.17,3.908 7.17,3.461 6.894,3.186 4.779,1.071 2.46,0 0,0"
             style="fill:#845440;fill-opacity:1;fill-rule:nonzero;stroke:none"
             id="path382"
             inkscape:connector-curvature="0" /></g><g
           id="g384"
           transform="translate(236.9658,238.6475)"><path
             d="m 0,0 c 0,-1.248 -1.012,-2.26 -2.259,-2.26 -1.248,0 -2.26,1.012 -2.26,2.26 0,1.248 1.012,2.259 2.26,2.259 C -1.012,2.259 0,1.248 0,0"
             style="fill:#fb6363;fill-opacity:1;fill-rule:nonzero;stroke:none"
             id="path386"
             inkscape:connector-curvature="0" /></g><g
           id="g388"
           transform="translate(260.8838,238.6475)"><path
             d="m 0,0 c 0,-1.248 -1.012,-2.26 -2.259,-2.26 -1.248,0 -2.26,1.012 -2.26,2.26 0,1.248 1.012,2.259 2.26,2.259 C -1.012,2.259 0,1.248 0,0"
             style="fill:#fb6363;fill-opacity:1;fill-rule:nonzero;stroke:none"
             id="path390"
             inkscape:connector-curvature="0" /></g><g
           id="g392"
           transform="translate(220.7598,252.3447)"><path
             d="m 0,0 c -0.076,0 -0.152,0.007 -0.229,0.022 -0.631,0.121 -1.04,0.711 -0.914,1.319 0.072,0.35 1.914,8.627 13.623,12.571 0.606,0.205 1.271,-0.103 1.483,-0.688 C 14.176,12.64 13.856,12 13.249,11.796 2.78,8.27 1.155,0.975 1.14,0.902 1.03,0.369 0.543,0 0,0"
             style="fill:#753f1a;fill-opacity:1;fill-rule:nonzero;stroke:none"
             id="path394"
             inkscape:connector-curvature="0" /></g><g
           id="g396"
           transform="translate(279.625,238.5479)"><path
             d="m 0,0 c -0.428,-0.6 -1.189,-0.854 -1.806,-0.57 -4.357,2.011 -5.85,8.382 -5.912,8.653 -0.176,0.772 0.304,1.616 1.072,1.887 0.766,0.269 1.531,-0.138 1.707,-0.908 C -4.917,8.963 -3.647,3.651 -0.415,2.159 0.272,1.842 0.518,0.974 0.134,0.221 0.095,0.143 0.05,0.069 0,0"
             style="fill:#9a7058;fill-opacity:1;fill-rule:nonzero;stroke:none"
             id="path398"
             inkscape:connector-curvature="0" /></g><g
           id="g400"
           transform="translate(396.416,53.0479)"><path
             d="m 0,0 c 0,-1.846 -21.115,-3.342 -47.162,-3.342 -26.047,0 -47.162,1.496 -47.162,3.342 0,1.846 21.115,3.343 47.162,3.343 C -21.115,3.343 0,1.846 0,0"
             style="fill:#109ac0;fill-opacity:1;fill-rule:nonzero;stroke:none"
             id="path402"
             inkscape:connector-curvature="0" /></g><g
           id="g404"
           transform="translate(369.6992,242.3086)"><path
             d="m 0,0 c 0,0 0.01,-0.159 0.024,-0.456 0.181,-3.604 1.181,-27.585 -3.591,-36.964 -5.167,-10.153 -30.802,0.634 -30.802,0.634 l 1.449,25.883 32.93,10.744"
             style="fill:#914437;fill-opacity:1;fill-rule:nonzero;stroke:none"
             id="path406"
             inkscape:connector-curvature="0" /></g><g
           id="g408"
           transform="translate(309.6191,72.8682)"><path
             d="M 0,0 -8.575,12.94 22.219,33.346 33.716,88.533 48.913,85.367 36.114,23.932 Z"
             style="fill:#e69469;fill-opacity:1;fill-rule:nonzero;stroke:none"
             id="path410"
             inkscape:connector-curvature="0" /></g><g
           id="g412"
           transform="translate(310.0352,73.1299)"><path
             d="m 0,0 -2.839,-13.63 -13.828,21.103 8.159,5.512 z"
             style="fill:#f6a375;fill-opacity:1;fill-rule:nonzero;stroke:none"
             id="path414"
             inkscape:connector-curvature="0" /></g><path
           d="m 354.422,209.299 h -9.702 v 14.994 h 9.702 z"
           style="fill:#f6a375;fill-opacity:1;fill-rule:nonzero;stroke:none"
           id="path416"
           inkscape:connector-curvature="0" /><g
           id="g418"
           transform="translate(386.8066,62.8936)"><path
             d="M 0,0 H -15.523 V 36.941 L -55.175,77.01 -44.141,87.93 0,43.323 Z"
             style="fill:#f5b081;fill-opacity:1;fill-rule:nonzero;stroke:none"
             id="path420"
             inkscape:connector-curvature="0" /></g><g
           id="g422"
           transform="translate(386.8066,62.8936)"><path
             d="m 0,0 9.846,-9.846 h -25.23 L -15.523,0 Z"
             style="fill:#fac8a3;fill-opacity:1;fill-rule:nonzero;stroke:none"
             id="path424"
             inkscape:connector-curvature="0" /></g><g
           id="g426"
           transform="translate(399.5996,240.8682)"><path
             d="m 0,0 c 0,-3.832 -3.105,-6.937 -6.937,-6.937 -3.831,0 -6.936,3.105 -6.936,6.937 0,3.831 3.105,6.937 6.936,6.937 C -3.105,6.937 0,3.831 0,0"
             style="fill:#f6a375;fill-opacity:1;fill-rule:nonzero;stroke:none"
             id="path428"
             inkscape:connector-curvature="0" /></g><g
           id="g430"
           transform="translate(387.459,238.167)"><path
             d="m 0,0 c -0.598,0 -1.166,0.351 -1.414,0.936 -2.705,6.359 1.154,15.511 1.32,15.897 0.334,0.78 1.238,1.141 2.017,0.807 0.779,-0.334 1.14,-1.237 0.806,-2.017 C 2.674,15.492 -0.771,7.271 1.413,2.138 1.744,1.357 1.381,0.455 0.601,0.123 0.404,0.039 0.2,0 0,0"
             style="fill:#f6a375;fill-opacity:1;fill-rule:nonzero;stroke:none"
             id="path432"
             inkscape:connector-curvature="0" /></g><g
           id="g434"
           transform="translate(390.4844,240.8779)"><path
             d="m 0,0 c -0.715,0 -1.355,0.503 -1.503,1.231 -1.384,6.827 3.935,14.317 4.162,14.633 0.495,0.688 1.455,0.845 2.144,0.349 C 5.491,15.718 5.647,14.759 5.153,14.07 5.105,14.003 0.393,7.345 1.508,1.842 1.676,1.01 1.139,0.199 0.308,0.031 0.204,0.01 0.102,0 0,0"
             style="fill:#f6a375;fill-opacity:1;fill-rule:nonzero;stroke:none"
             id="path436"
             inkscape:connector-curvature="0" /></g><g
           id="g438"
           transform="translate(394.3896,242.3086)"><path
             d="m 0,0 c -0.685,0 -1.309,0.46 -1.487,1.153 -1.564,6.074 3.928,12.047 4.163,12.298 0.579,0.62 1.552,0.654 2.171,0.075 0.62,-0.578 0.654,-1.549 0.077,-2.17 C 4.878,11.307 0.347,6.354 1.488,1.919 1.699,1.098 1.205,0.26 0.384,0.049 0.255,0.016 0.126,0 0,0"
             style="fill:#f6a375;fill-opacity:1;fill-rule:nonzero;stroke:none"
             id="path440"
             inkscape:connector-curvature="0" /></g><g
           id="g442"
           transform="translate(397.7119,241.2529)"><path
             d="m 0,0 c -0.736,0 -1.387,0.531 -1.513,1.281 -0.894,5.307 3.424,10.84 3.609,11.073 0.526,0.666 1.492,0.778 2.157,0.252 C 4.918,12.08 5.031,11.114 4.506,10.449 4.438,10.364 0.853,5.729 1.517,1.792 1.657,0.955 1.094,0.163 0.257,0.021 0.171,0.008 0.085,0 0,0"
             style="fill:#f6a375;fill-opacity:1;fill-rule:nonzero;stroke:none"
             id="path444"
             inkscape:connector-curvature="0" /></g><g
           id="g446"
           transform="translate(388.4365,238.5479)"><path
             d="m 0,0 c -0.428,-0.6 -1.189,-0.854 -1.806,-0.57 -4.357,2.011 -5.85,8.382 -5.912,8.653 -0.176,0.772 0.304,1.616 1.072,1.887 0.766,0.269 1.53,-0.138 1.707,-0.908 C -4.917,8.963 -3.647,3.651 -0.415,2.159 0.272,1.842 0.518,0.974 0.134,0.221 0.094,0.143 0.049,0.069 0,0"
             style="fill:#f6a375;fill-opacity:1;fill-rule:nonzero;stroke:none"
             id="path448"
             inkscape:connector-curvature="0" /></g><g
           id="g450"
           transform="translate(348.6367,268.9385)"><path
             d="m 0,0 h -4.149 c -8.726,0 -15.866,-7.14 -15.866,-15.866 v -13.499 c -3.679,-0.723 -6.056,-5.075 -3.237,-9.178 0.039,-0.058 0.089,-0.111 0.143,-0.156 2.148,-1.78 4.265,-1.962 6.009,-1.35 3.657,-6.169 10.381,-10.33 18.034,-10.33 h 3.484 c 9.605,0 17.464,7.859 17.464,17.464 v 11.033 C 21.882,-9.847 12.035,0 0,0"
             style="fill:#f5b081;fill-opacity:1;fill-rule:nonzero;stroke:none"
             id="path452"
             inkscape:connector-curvature="0" /></g><g
           id="g454"
           transform="translate(310.0361,73.1299)"><path
             d="m 0,0 -2.839,-13.63 -13.922,21.247 8.239,5.372 z"
             style="fill:#353535;fill-opacity:1;fill-rule:nonzero;stroke:none"
             id="path456"
             inkscape:connector-curvature="0" /></g><g
           id="g458"
           transform="translate(372.5596,190.2881)"><path
             d="M 0,0 C 0,5.868 -4.723,7.898 -8.92,8.46 -14.887,20.748 -19.293,22.438 -19.293,22.438 -49.975,31.7 -42.771,-38.75 -42.771,-38.75 l 37.389,0.081 c 0,0 3.422,16.442 1.4,31.421 C -2.088,-6.11 0,-3.961 0,0"
             style="fill:#fcffff;fill-opacity:1;fill-rule:nonzero;stroke:none"
             id="path460"
             inkscape:connector-curvature="0" /></g><path
           d="m 348.871,140.086 h -1.165 v 70.253 h 1.165 z"
           style="fill:#f5f5f5;fill-opacity:1;fill-rule:nonzero;stroke:none"
           id="path462"
           inkscape:connector-curvature="0" /><g
           id="g464"
           transform="translate(359.3818,194.7051)"><path
             d="m 0,0 c -5.311,0 -10.106,0.963 -13.63,1.95 -3.24,0.908 -4.892,4.507 -3.496,7.569 1.344,2.971 4.626,4.534 7.788,3.731 5.391,-1.369 13.951,-2.439 21.218,1.616 7.936,4.431 13.128,13.516 15.086,28.345 L 38.26,41.333 C 35.771,22.481 29.132,10.681 17.644,4.317 11.783,1.072 5.604,0 0,0"
             style="fill:#f5f5f5;fill-opacity:1;fill-rule:nonzero;stroke:none"
             id="path466"
             inkscape:connector-curvature="0" /></g><g
           id="g468"
           transform="translate(329.6807,152.7197)"><path
             d="M 0,0 0.107,-3.794 H 37.739 L 37.708,0 Z"
             style="fill:#353535;fill-opacity:1;fill-rule:nonzero;stroke:none"
             id="path470"
             inkscape:connector-curvature="0" /></g><g
           id="g472"
           transform="translate(344.7207,214.2773)"><path
             d="m 0,0 9.702,-1.26 2.575,-3.543 c 0,0 -8.122,-1.537 -15.059,2.586 C -2.775,-2.212 0,0 0,0"
             style="fill:#d9d9d9;fill-opacity:1;fill-rule:nonzero;stroke:none"
             id="path474"
             inkscape:connector-curvature="0" /></g><g
           id="g476"
           transform="translate(386.3477,237.916)"><path
             d="M 0,0 11.294,-1.878 10.868,-6.511 -1.077,-4.307 Z"
             style="fill:#d9d9d9;fill-opacity:1;fill-rule:nonzero;stroke:none"
             id="path478"
             inkscape:connector-curvature="0" /></g><g
           id="g480"
           transform="translate(329.7881,148.9258)"><path
             d="M 0,0 -1.195,-44.862 57.021,-42.709 37.632,0 Z"
             style="fill:#0c4e76;fill-opacity:1;fill-rule:nonzero;stroke:none"
             id="path482"
             inkscape:connector-curvature="0" /></g><g
           id="g484"
           transform="translate(386.8086,62.8936)"><path
             d="M 0,0 H -15.515 V -9.846 H 9.845 Z"
             style="fill:#353535;fill-opacity:1;fill-rule:nonzero;stroke:none"
             id="path486"
             inkscape:connector-curvature="0" /></g><g
           id="g488"
           transform="translate(338.9541,268.9385)"><path
             d="m 0,0 c 0,0 25.547,7.248 32.251,-17.485 -9.331,-3.17 -23.804,-4.491 -28.246,1.76 -3.132,-27.818 -0.094,-45.184 1.516,-51.835 0.378,-1.568 -0.944,-3.023 -2.542,-2.801 -6.477,0.897 -20.127,4.612 -22.185,19.982 C -21.263,-35.017 -18.931,-6.795 0,0"
             style="fill:#a14d3e;fill-opacity:1;fill-rule:nonzero;stroke:none"
             id="path490"
             inkscape:connector-curvature="0" /></g><g
           id="g492"
           transform="translate(348.5508,148.9258)"><path
             d="M 0,0 8.447,-43.812 -19.958,-44.862 -18.763,0 Z"
             style="fill:#013f65;fill-opacity:1;fill-rule:nonzero;stroke:none"
             id="path494"
             inkscape:connector-curvature="0" /></g><g
           id="g496"
           transform="translate(349.9014,241.3184)"><path
             d="m 0,0 c 0,-1.215 -0.984,-2.199 -2.199,-2.199 -1.214,0 -2.198,0.984 -2.198,2.199 0,1.214 0.984,2.198 2.198,2.198 C -0.984,2.198 0,1.214 0,0"
             style="fill:#1c1c1b;fill-opacity:1;fill-rule:nonzero;stroke:none"
             id="path498"
             inkscape:connector-curvature="0" /></g><g
           id="g500"
           transform="translate(367.1152,241.3184)"><path
             d="m 0,0 c 0,-1.215 -0.984,-2.199 -2.198,-2.199 -1.215,0 -2.199,0.984 -2.199,2.199 0,1.214 0.984,2.198 2.199,2.198 C -0.984,2.198 0,1.214 0,0"
             style="fill:#1c1c1b;fill-opacity:1;fill-rule:nonzero;stroke:none"
             id="path502"
             inkscape:connector-curvature="0" /></g><g
           id="g504"
           transform="translate(343.9521,244.834)"><path
             d="m 0,0 h -0.001 c -0.304,0.191 -0.368,0.608 -0.13,0.877 0.78,0.878 2.68,2.492 5.957,2.24 C 6.162,3.092 6.409,2.786 6.362,2.452 6.319,2.151 6.05,1.932 5.747,1.955 2.958,2.167 1.36,0.794 0.741,0.104 0.552,-0.108 0.24,-0.15 0,0"
             style="fill:#9b6648;fill-opacity:1;fill-rule:nonzero;stroke:none"
             id="path506"
             inkscape:connector-curvature="0" /></g><g
           id="g508"
           transform="translate(367.585,245.0107)"><path
             d="m 0,0 c -0.506,0.682 -1.742,1.942 -3.876,1.787 -0.3,-0.021 -0.569,0.183 -0.621,0.48 -0.058,0.336 0.185,0.656 0.525,0.681 C -1.337,3.146 0.244,1.582 0.919,0.699 1.14,0.41 1.049,-0.008 0.725,-0.175 L 0.268,-0.411 0.785,-0.145 0.736,-0.169 C 0.481,-0.302 0.171,-0.23 0,0"
             style="fill:#9b6648;fill-opacity:1;fill-rule:nonzero;stroke:none"
             id="path510"
             inkscape:connector-curvature="0" /></g><g
           id="g512"
           transform="translate(350.6943,229.1729)"><path
             d="m 0,0 c 1.833,-2 6.493,-5.771 11.858,-0.012 0.329,0.353 0.135,1.031 -0.296,1.031 H 0.306 C -0.121,1.019 -0.323,0.353 0,0"
             style="fill:#fb6363;fill-opacity:1;fill-rule:nonzero;stroke:none"
             id="path514"
             inkscape:connector-curvature="0" /></g><g
           id="g516"
           transform="translate(347.8857,242.3125)"><path
             d="m 0,0 c 0,-0.337 -0.273,-0.61 -0.61,-0.61 -0.337,0 -0.611,0.273 -0.611,0.61 0,0.338 0.274,0.611 0.611,0.611 C -0.273,0.611 0,0.338 0,0"
             style="fill:#ffffff;fill-opacity:1;fill-rule:nonzero;stroke:none"
             id="path518"
             inkscape:connector-curvature="0" /></g><g
           id="g520"
           transform="translate(364.917,242.3125)"><path
             d="m 0,0 c 0,-0.337 -0.273,-0.61 -0.611,-0.61 -0.337,0 -0.611,0.273 -0.611,0.61 0,0.338 0.274,0.611 0.611,0.611 C -0.273,0.611 0,0.338 0,0"
             style="fill:#ffffff;fill-opacity:1;fill-rule:nonzero;stroke:none"
             id="path522"
             inkscape:connector-curvature="0" /></g><g
           id="g524"
           transform="translate(355.2568,237.2324)"><path
             d="M 0,0 C 0.504,1.466 2.751,1.536 3.763,0.659 4.817,-0.255 4.766,-1.858 3.418,-2.452 2.848,-2.703 3.341,-3.539 3.907,-3.29 5.871,-2.426 5.916,0.147 4.36,1.433 2.764,2.753 -0.212,2.365 -0.936,0.258 -1.139,-0.333 -0.202,-0.588 0,0"
             style="fill:#e69469;fill-opacity:1;fill-rule:nonzero;stroke:none"
             id="path526"
             inkscape:connector-curvature="0" /></g><g
           id="g528"
           transform="translate(355.9541,241.3652)"><path
             d="m 0,0 c 0.159,-0.731 0.288,-1.467 0.388,-2.209 0.073,-0.539 0.989,-0.414 0.953,0.129 -0.003,0.042 -0.006,0.084 -0.008,0.126 -0.042,0.62 -1.013,0.625 -0.971,0 L 0.371,-2.08 1.323,-1.951 C 1.224,-1.209 1.095,-0.473 0.936,0.259 0.804,0.868 -0.132,0.61 0,0"
             style="fill:#e69469;fill-opacity:1;fill-rule:nonzero;stroke:none"
             id="path530"
             inkscape:connector-curvature="0" /></g><g
           id="g532"
           transform="translate(346.7812,237.2578)"><path
             d="m 0,0 c 0,-1.199 -0.973,-2.171 -2.172,-2.171 -1.199,0 -2.172,0.972 -2.172,2.171 0,1.2 0.973,2.172 2.172,2.172 C -0.973,2.172 0,1.2 0,0"
             style="fill:#fe8c8c;fill-opacity:1;fill-rule:nonzero;stroke:none"
             id="path534"
             inkscape:connector-curvature="0" /></g><g
           id="g536"
           transform="translate(369.7715,237.2578)"><path
             d="m 0,0 c 0,-1.199 -0.972,-2.171 -2.172,-2.171 -1.199,0 -2.171,0.972 -2.171,2.171 0,1.2 0.972,2.172 2.171,2.172 C -0.972,2.172 0,1.2 0,0"
             style="fill:#fe8c8c;fill-opacity:1;fill-rule:nonzero;stroke:none"
             id="path538"
             inkscape:connector-curvature="0" /></g><g
           id="g540"
           transform="translate(328.8984,252.3447)"><path
             d="m 0,0 c -0.076,0 -0.152,0.007 -0.229,0.022 -0.631,0.121 -1.041,0.711 -0.915,1.319 0.074,0.35 1.915,8.627 13.623,12.571 0.608,0.205 1.272,-0.103 1.484,-0.688 C 14.176,12.64 13.855,12 13.249,11.796 2.78,8.27 1.155,0.975 1.141,0.902 1.029,0.369 0.544,0 0,0"
             style="fill:#c56659;fill-opacity:1;fill-rule:nonzero;stroke:none"
             id="path542"
             inkscape:connector-curvature="0" /></g><path
           d="m 386.807,62.894 h -15.523 v 3.219 h 15.523 z"
           style="fill:#ffffff;fill-opacity:1;fill-rule:nonzero;stroke:none"
           id="path544"
           inkscape:connector-curvature="0" /><g
           id="g546"
           transform="translate(310.0361,73.1279)"><path
             d="M 0,0 -8.522,12.991 -5.838,14.773 2.676,1.789 Z"
             style="fill:#ffffff;fill-opacity:1;fill-rule:nonzero;stroke:none"
             id="path548"
             inkscape:connector-curvature="0" /></g></g></g></g></svg>