<?xml version="1.0" encoding="UTF-8" standalone="no"?>
<!-- Created with Inkscape (http://www.inkscape.org/) -->

<svg
   xmlns:dc="http://purl.org/dc/elements/1.1/"
   xmlns:cc="http://creativecommons.org/ns#"
   xmlns:rdf="http://www.w3.org/1999/02/22-rdf-syntax-ns#"
   xmlns:svg="http://www.w3.org/2000/svg"
   xmlns="http://www.w3.org/2000/svg"
   xmlns:sodipodi="http://sodipodi.sourceforge.net/DTD/sodipodi-0.dtd"
   xmlns:inkscape="http://www.inkscape.org/namespaces/inkscape"
   version="1.1"
   id="svg2"
   xml:space="preserve"
   width="666.66669"
   height="666.66669"
   viewBox="0 0 666.66669 666.66669"
   sodipodi:docname="teamWork5.svg"
   inkscape:version="0.92.3 (unknown)"><metadata
     id="metadata8"><rdf:RDF><cc:Work
         rdf:about=""><dc:format>image/svg+xml</dc:format><dc:type
           rdf:resource="http://purl.org/dc/dcmitype/StillImage" /><dc:title></dc:title></cc:Work></rdf:RDF></metadata><defs
     id="defs6"><clipPath
       clipPathUnits="userSpaceOnUse"
       id="clipPath28"><path
         d="M 0,500 H 500 V 0 H 0 Z"
         id="path26"
         inkscape:connector-curvature="0" /></clipPath><clipPath
       clipPathUnits="userSpaceOnUse"
       id="clipPath386"><path
         d="M 0,500 H 500 V 0 H 0 Z"
         id="path384"
         inkscape:connector-curvature="0" /></clipPath></defs><sodipodi:namedview
     pagecolor="#ffffff"
     bordercolor="#666666"
     borderopacity="1"
     objecttolerance="10"
     gridtolerance="10"
     guidetolerance="10"
     inkscape:pageopacity="0"
     inkscape:pageshadow="2"
     inkscape:window-width="640"
     inkscape:window-height="480"
     id="namedview4"
     showgrid="false"
     inkscape:zoom="0.35399999"
     inkscape:cx="333.33334"
     inkscape:cy="333.33334"
     inkscape:window-x="0"
     inkscape:window-y="24"
     inkscape:window-maximized="0"
     inkscape:current-layer="g10" /><g
     id="g10"
     inkscape:groupmode="layer"
     inkscape:label="155819-OV2IY1-964"
     transform="matrix(1.3333333,0,0,-1.3333333,0,666.66667)"><path
       d="M 0,0 H 500 V 500 H 0 Z"
       style="fill:#ffffff;fill-opacity:1;fill-rule:nonzero;stroke:none"
       id="path12"
       inkscape:connector-curvature="0" /><text
       transform="matrix(1,0,0,-1,197.2759,56.4912)"
       style="font-variant:normal;font-weight:normal;font-stretch:normal;font-size:29.30780029px;font-family:'Bebas Neue Regular';-inkscape-font-specification:BebasNeueRegular;writing-mode:lr-tb;fill:#ffffff;fill-opacity:1;fill-rule:nonzero;stroke:none"
       id="text16"><tspan
         x="0 10.638731 21.189539 33.55743 48.88541 53.42812 70.514565 81.915298 93.462578"
         y="0"
         sodipodi:role="line"
         id="tspan14">TEAM WORK</tspan></text>
<path
       d="M 0,0 H 500 V 121.893 H 0 Z"
       style="fill:#dbdbdb;fill-opacity:1;fill-rule:nonzero;stroke:none"
       id="path18"
       inkscape:connector-curvature="0" /><path
       d="m 246.321,113.605 h -4.738 v 54.419 h 4.738 z"
       style="fill:#353535;fill-opacity:1;fill-rule:nonzero;stroke:none"
       id="path20"
       inkscape:connector-curvature="0" /><g
       id="g22"><g
         id="g24"
         clip-path="url(#clipPath28)"><g
           id="g30"
           transform="translate(279.3203,168.0244)"><path
             d="m 0,0 c 0,-1.748 -1.418,-3.166 -3.168,-3.166 h -64.998 c -1.749,0 -3.166,1.418 -3.166,3.166 0,1.749 1.417,3.167 3.166,3.167 H -3.168 C -1.418,3.167 0,1.749 0,0"
             style="fill:#353535;fill-opacity:1;fill-rule:nonzero;stroke:none"
             id="path32"
             inkscape:connector-curvature="0" /></g><g
           id="g34"
           transform="translate(219.7891,191.8584)"><path
             d="m 0,0 c 0,0 -4.65,-2.806 -6.4,-8.848 -1.75,-6.042 2.599,-19.236 11.265,-19.819 14.966,-1.007 16.584,6.917 26.834,1.667 10.25,-5.25 20.125,-1.643 21.606,2.656 1.478,4.299 8.144,22.594 -10.278,23.915 C 22.642,0.284 0,0 0,0"
             style="fill:#006163;fill-opacity:1;fill-rule:nonzero;stroke:none"
             id="path36"
             inkscape:connector-curvature="0" /></g><g
           id="g38"
           transform="translate(222.0713,258.2061)"><path
             d="m 0,0 c 0,0 2.208,13.708 9.875,15.125 7.666,1.416 18.375,-1.5 18.375,-1.5 0,0 8.064,-7.005 10.657,-12.482 C 41.499,-4.334 5.667,-9.834 0,0"
             style="fill:#707070;fill-opacity:1;fill-rule:nonzero;stroke:none"
             id="path40"
             inkscape:connector-curvature="0" /></g><g
           id="g42"
           transform="translate(231.4424,297.7881)"><path
             d="m 0,0 c 0,0 7.773,-1.536 10.142,1.984 2.368,3.521 4.583,1.746 7.542,-2.09 2.958,-3.836 7.957,-12.029 8.551,-18.536 0.736,-3.762 -0.647,-6.24 -0.647,-6.24 0,0 -1.084,-1.401 -3.275,-1.49 -2.19,-0.089 -4.67,-3.387 -4.67,-8.794 0,-6.666 -3.301,-7.416 -3.301,-7.416 0,0 -12.667,-4.376 -13.042,6.875 -0.224,6.705 0.517,7.872 -0.18,9.858 -0.696,1.986 -5.207,2.037 -7.709,5.709 C -9.09,-16.468 -16.315,-1.56 0,0"
             style="fill:#fabb86;fill-opacity:1;fill-rule:nonzero;stroke:none"
             id="path44"
             inkscape:connector-curvature="0" /></g><g
           id="g46"
           transform="translate(248.4922,305.5806)"><path
             d="m 0,0 c 0,0 1.333,-4.458 0,-7.097 -0.642,-1.27 -5.126,-5.028 -9.001,-4.903 -3.874,0.125 -6.874,-1.125 -6.874,-1.125 h 4.375 c 0,0 1.25,-3.125 1.75,-5.25 0.5,-2.125 -1.781,-2.312 -1.406,-4.062 0.375,-1.75 2.75,-5.082 2.75,-5.082 l -2.282,-1.231 c 0,0 -2.588,5.598 -4.437,6 -2.875,0.625 -5.036,-2.413 -2.75,-4.812 2.562,-2.688 3.33,-3.155 2.165,-10.171 -0.54,2.608 -7.695,4.909 -11.692,12.358 -3.997,7.449 -1.604,13.25 1.649,16 C -26.125,-5 -21,-1.625 -17.5,-2 c 3.5,-0.375 6.625,3.625 6.625,3.625 0,0 -0.375,-2.25 -1.75,-3.125 1.5,-0.25 2.75,1.667 2.75,2.083 0.375,-1 -0.417,-2.125 -0.417,-2.125 0,0 2.833,0 3.625,1.542 C -6.542,-0.458 -7,-1.5 -7.458,-1.792 -6.208,-1.917 -5,-1.833 -4,-0.375 c 0.125,-0.833 -0.291,-1.792 -1.458,-2.333 2.291,-0.375 3.416,2.166 3.541,2.791 0.25,-0.875 -0.125,-2.791 -0.708,-3.625 1.292,-0.125 2.375,2 2.625,3.542"
             style="fill:#7f3f22;fill-opacity:1;fill-rule:nonzero;stroke:none"
             id="path48"
             inkscape:connector-curvature="0" /></g><g
           id="g50"
           transform="translate(267.5371,216.5674)"><path
             d="M 0,0 C -0.393,-0.195 -2.494,-0.435 -4.699,-0.64 -4.943,8.628 -5.268,16.897 -5.268,16.897 -5.268,16.897 0.875,0.439 0,0 m -48.415,-0.64 c -2.205,0.205 -4.307,0.445 -4.698,0.64 -0.877,0.439 5.265,16.897 5.265,16.897 0,0 -0.325,-8.269 -0.567,-17.537 m 57.63,7.639 c -2.852,10.289 -8.861,32.31 -10.916,33.379 -2.059,1.069 -6.09,1.316 -10.369,2.634 -4.28,1.316 -6.293,4.759 -6.293,4.759 -1.116,-7.591 -4.665,-9.132 -8.195,-9.316 -4.22,0.371 -7.165,2.154 -8.28,9.746 0,0 -1.927,-3.873 -6.206,-5.189 -4.279,-1.318 -8.311,-1.565 -10.369,-2.634 -2.057,-1.069 -8.066,-23.09 -10.917,-33.379 -2.853,-10.289 -3.95,-12.704 0,-14.459 2.6,-1.155 9.38,-2.024 13.713,-2.485 -0.095,-5.971 -0.098,-11.328 0.105,-14.062 13.832,-5.872 31.192,-7.966 43.91,0.01 0.202,2.736 0.2,8.088 0.104,14.052 4.334,0.461 11.113,1.33 13.713,2.485 3.951,1.755 2.851,4.17 0,14.459"
             style="fill:#9dc030;fill-opacity:1;fill-rule:nonzero;stroke:none"
             id="path52"
             inkscape:connector-curvature="0" /></g><g
           id="g54"
           transform="translate(267.5371,216.5674)"><path
             d="M 0,0 C -0.393,-0.195 -2.494,-0.435 -4.699,-0.64 -4.943,8.628 -5.268,16.897 -5.268,16.897 -5.268,16.897 0.875,0.439 0,0 m 9.215,6.999 c -2.852,10.289 -8.861,32.31 -10.916,33.379 -2.059,1.069 -5.486,2.943 -9.765,4.261 -0.522,0.16 -1.96,1.201 -2.416,1.416 -5.255,-24.775 -3.084,-72.931 1,-79.097 4.999,2.833 8.333,6.666 14.945,6.225 1.419,-0.095 -6.438,9.19 -6.561,16.872 4.334,0.461 11.113,1.33 13.713,2.485 3.951,1.755 2.851,4.17 0,14.459"
             style="fill:#939393;fill-opacity:1;fill-rule:nonzero;stroke:none"
             id="path56"
             inkscape:connector-curvature="0" /></g><g
           id="g58"
           transform="translate(256.4883,262.6221)"><path
             d="M 0,0 C -0.522,0.161 -2.377,-0.215 -2.833,0 -4.415,-7.459 -5.443,-15.218 -6.157,-23.095 -3.681,-15.68 0.155,-9.217 4.549,-3.303 3.07,-2.643 1.828,-0.562 0,0"
             style="fill:#707070;fill-opacity:1;fill-rule:nonzero;stroke:none"
             id="path60"
             inkscape:connector-curvature="0" /></g><g
           id="g62"
           transform="translate(219.1221,215.9277)"><path
             d="M 0,0 C -2.205,0.205 -4.307,0.444 -4.698,0.64 -5.575,1.079 0.567,17.537 0.567,17.537 0.567,17.537 0.242,9.268 0,0 M 10.574,47.341 C 9.693,46.644 7.757,44.993 6.449,44.591 2.17,43.273 -0.94,42.087 -2.998,41.018 c -2.057,-1.07 -8.065,-23.09 -10.917,-33.379 -2.853,-10.289 -3.95,-12.704 0,-14.459 2.6,-1.156 9.38,-2.025 13.713,-2.486 -0.122,-7.681 -7.474,-17.388 -5.24,-22.53 0,0 1.352,7.302 18.766,0 5.5,13.754 5.257,54.184 -2.75,79.177"
             style="fill:#939393;fill-opacity:1;fill-rule:nonzero;stroke:none"
             id="path64"
             inkscape:connector-curvature="0" /></g><g
           id="g66"
           transform="translate(229.6963,263.2686)"><path
             d="M 0,0 C -0.881,-0.697 -3.067,-0.244 -4.375,-0.646 -5.479,-0.986 -6.253,-3.422 -7.204,-3.744 -2.164,-8.82 1.822,-14.423 4.769,-20.545 3.67,-13.559 2.139,-6.678 0,0"
             style="fill:#707070;fill-opacity:1;fill-rule:nonzero;stroke:none"
             id="path68"
             inkscape:connector-curvature="0" /></g><g
           id="g70"
           transform="translate(242.4541,113.2441)"><path
             d="m 0,0 c 0,0 13.953,25.204 20.755,35.956 6.803,10.754 12.508,21.506 12.289,28.967 -0.219,7.461 -1.898,8.939 -5.047,9.873 C 24.849,75.731 17.903,73.042 14.831,68.653 11.759,64.265 5.616,44.954 -0.749,26.521 L -8.648,3.698 C -8.648,3.698 -5.806,0 0,0"
             style="fill:#006a72;fill-opacity:1;fill-rule:nonzero;stroke:none"
             id="path72"
             inkscape:connector-curvature="0" /></g><g
           id="g74"
           transform="translate(235.2324,121.8584)"><path
             d="m 0,0 c 0,0 -5.501,-9.834 -10.334,-13.167 -4.833,-3.333 -9.75,-4.996 -12,-8.833 -0.667,-2.598 19.043,-1.89 25.836,1.621 3.078,1.591 4.695,8.907 6.164,15.046 C 11.135,0.806 0,0 0,0"
             style="fill:#262626;fill-opacity:1;fill-rule:nonzero;stroke:none"
             id="path76"
             inkscape:connector-curvature="0" /></g><g
           id="g78"
           transform="translate(249.0654,123.0459)"><path
             d="m 0,0 c 0,0 -9.891,-1.145 -11.578,6.105 -2.464,-2.324 -5.922,-6.792 -5.922,-6.792 0,0 4.5,-7.376 15.229,-7 C -1,-5.187 0,0 0,0"
             style="fill:#494949;fill-opacity:1;fill-rule:nonzero;stroke:none"
             id="path80"
             inkscape:connector-curvature="0" /></g><g
           id="g82"
           transform="translate(245.9326,113.2441)"><path
             d="m 0,0 c 0,0 -13.953,25.204 -20.756,35.956 -6.804,10.754 -12.508,21.506 -12.288,28.967 0.218,7.461 1.898,8.939 5.046,9.873 3.149,0.935 10.095,-1.754 13.167,-6.143 3.071,-4.388 9.215,-23.699 15.58,-42.132 L 8.648,3.698 C 8.648,3.698 5.806,0 0,0"
             style="fill:#007686;fill-opacity:1;fill-rule:nonzero;stroke:none"
             id="path84"
             inkscape:connector-curvature="0" /></g><g
           id="g86"
           transform="translate(253.1543,121.8584)"><path
             d="m 0,0 c 0,0 5.501,-9.834 10.334,-13.167 4.832,-3.333 9.75,-4.996 12,-8.833 0.666,-2.598 -19.043,-1.89 -25.836,1.621 -3.078,1.591 -4.695,8.907 -6.164,15.046 C -11.135,0.806 0,0 0,0"
             style="fill:#353535;fill-opacity:1;fill-rule:nonzero;stroke:none"
             id="path88"
             inkscape:connector-curvature="0" /></g><g
           id="g90"
           transform="translate(239.8096,124.1787)"><path
             d="m 0,0 c 0,0 9.211,-3.296 10.898,3.954 2.614,0 6.114,-5.774 6.114,-5.774 0,0 -4.5,-7.375 -15.229,-7 C -0.863,-4.946 0,0 0,0"
             style="fill:#595959;fill-opacity:1;fill-rule:nonzero;stroke:none"
             id="path92"
             inkscape:connector-curvature="0" /></g><g
           id="g94"
           transform="translate(121.7822,121.623)"><path
             d="m 0,0 c 0,0 -1.734,-5.429 1.016,-13.516 1.9,-3.115 14.634,-7.674 14.634,-7.674 0,0 2.149,-3.618 -10.963,-2.939 -6.717,0.347 -16.416,12.707 -18.302,16.328 -1.887,3.621 0.723,5.137 3.102,6.239 2.379,1.102 3.891,3.365 3.891,3.365 0,0 5.7,0.29 6.622,-1.803"
             style="fill:#823d1a;fill-opacity:1;fill-rule:nonzero;stroke:none"
             id="path96"
             inkscape:connector-curvature="0" /></g><g
           id="g98"
           transform="translate(92.8965,178.0889)"><path
             d="m 0,0 c 0,0 3.128,3.976 -2.575,-5.652 -5.703,-9.627 55.061,6.869 56.34,3.695 -1.563,-4.833 -8.511,0.261 -15.638,-19.3 -6.77,-18.535 -17.102,-33.781 -17.102,-33.781 l 8.225,-6.606 c 0,0 14.254,18.945 27.69,34.519 13.438,15.575 20.829,29.159 13.955,34.482 0,0 0.84,6.135 -60.159,-3.618 C 0.985,2.18 0,0 0,0"
             style="fill:#545454;fill-opacity:1;fill-rule:nonzero;stroke:none"
             id="path100"
             inkscape:connector-curvature="0" /></g><path
           d="m 193.571,202.648 h -45.688 v 1.054 h 45.688 z"
           style="fill:#303030;fill-opacity:1;fill-rule:nonzero;stroke:none"
           id="path102"
           inkscape:connector-curvature="0" /><g
           id="g104"
           transform="translate(208.0225,247.5508)"><path
             d="M 0,0 C 0.148,0.484 0.661,0.756 1.145,0.607 1.629,0.459 1.901,-0.053 1.753,-0.537 L -11.85,-44.916 c -0.148,-0.484 -0.66,-0.756 -1.145,-0.607 -0.484,0.148 -0.755,0.66 -0.607,1.144 z"
             style="fill:#8c8c8c;fill-opacity:1;fill-rule:nonzero;stroke:none"
             id="path106"
             inkscape:connector-curvature="0" /></g><g
           id="g108"
           transform="translate(146.3184,203.0352)"><path
             d="m 0,0 c -0.018,-0.13 -0.032,-0.264 -0.032,-0.399 0,-1.303 0.847,-2.361 1.891,-2.361 h 44.467 c 1.045,0 1.892,1.058 1.892,2.361 0,0.135 -0.015,0.269 -0.032,0.399 z"
             style="fill:#515151;fill-opacity:1;fill-rule:nonzero;stroke:none"
             id="path110"
             inkscape:connector-curvature="0" /></g><g
           id="g112"
           transform="translate(339.376,121.3057)"><path
             d="M 0,0 C 0,0 -1.5,-8.076 -11.5,-13.289 -21.5,-18.5 -12.25,-21 -3,-19.5 6.25,-18 7.564,-12.721 10.5,-10.939 13.436,-9.16 10,-4.277 9,-1.014 8,2.25 0,0 0,0"
             style="fill:#262626;fill-opacity:1;fill-rule:nonzero;stroke:none"
             id="path114"
             inkscape:connector-curvature="0" /></g><g
           id="g116"
           transform="translate(302.0264,119.9717)"><path
             d="m 0,0 c 0,0 -3.897,-7.23 -15.013,-9.135 -11.114,-1.904 -3.071,-7.113 6.195,-8.513 9.265,-1.401 12.131,3.226 15.47,4.023 3.339,0.797 1.561,6.496 1.607,9.908 C 8.305,-0.303 0,0 0,0"
             style="fill:#262626;fill-opacity:1;fill-rule:nonzero;stroke:none"
             id="path118"
             inkscape:connector-curvature="0" /></g><g
           id="g120"
           transform="translate(294.8574,240.4004)"><path
             d="m 0,0 c 0,0 -1.268,-37.407 0.352,-57.075 1.619,-19.666 4.047,-48.596 2.167,-66.332 9.058,-1.545 14.334,0 14.334,0 0,0 3.836,34.01 4.025,50.332 0.188,16.322 4.807,40.31 5.807,43.012 3.333,-11.299 14.101,-79.684 15.768,-91.37 9,-0.685 12,1.368 12,1.368 0,0 -0.224,34.99 -3.663,53.324 -3.438,18.334 -0.161,58 -4.3,73 C 29.352,13.925 0,0 0,0"
             style="fill:#b78c58;fill-opacity:1;fill-rule:nonzero;stroke:none"
             id="path122"
             inkscape:connector-curvature="0" /></g><g
           id="g124"
           transform="translate(301.3604,319.8301)"><path
             d="m 0,0 c 0,0 -6.325,-2.291 -9.988,-4.397 -3.663,-2.107 -15.803,-33.11 -20.053,-39.247 -4.25,-6.137 -26.943,-33.34 -26.943,-33.34 v -9.02 c 0,0 22.198,16.194 35.167,31.263 6.295,7.314 14.842,21.21 14.842,21.21 0,0 5.574,-24.724 -2.843,-52.307 27.333,-8 52.131,1.084 52.131,1.084 0,0 -4.291,20.174 -3.808,58.382 l 5.844,-27.723 5.25,-34.916 8.941,7.007 c 0,0 -0.75,29.858 -3.691,41.307 -9,28.443 -16.778,40.192 -22.889,43.859 C 25.849,6.829 17.516,8.094 12.516,7.461 7.516,6.829 0,0 0,0"
             style="fill:#0aacc1;fill-opacity:1;fill-rule:nonzero;stroke:none"
             id="path126"
             inkscape:connector-curvature="0" /></g><g
           id="g128"
           transform="translate(289.5615,352.9819)"><path
             d="m 0,0 c 0,0 -4.25,-6.687 -8.432,-5.974 -4.182,0.713 -4.424,-2.114 -3.688,-6.903 0.737,-4.788 3.221,-14.058 7.521,-18.977 2.217,-3.127 4.966,-3.835 4.966,-3.835 0,0 1.762,-0.182 3.337,1.343 1.575,1.524 5.674,1.046 9.589,-2.684 4.827,-4.598 9.354,2.749 9.354,2.749 0,0 4.167,6.833 2.31,8.711 -4.718,4.769 -6.057,5.055 -7.014,6.93 -0.958,1.874 2.117,5.175 1.184,9.519 C 18.193,-4.777 12.383,10.737 0,0"
             style="fill:#fabb86;fill-opacity:1;fill-rule:nonzero;stroke:none"
             id="path130"
             inkscape:connector-curvature="0" /></g><g
           id="g132"
           transform="translate(278.043,343.2422)"><path
             d="m 0,0 c 0,0 3.65,-1.702 9.666,0.083 6.688,1.985 7.695,3.25 8.348,0 0.652,-3.25 1.652,-3.625 3.402,-4.25 1.75,-0.625 2.75,-4.375 2.75,-4.375 l 1.625,1.625 c 0,0 -1.25,2 -1,4.75 0.25,2.75 2.965,2.995 4.25,0.5 1.285,-2.494 -1.533,-6.015 1.654,-8.838 1.096,5.088 2.471,15.463 -4.779,22.088 C 18.666,18.208 2.291,11.333 0.541,6.958 -1.209,2.583 0.37,0.791 0,0"
             style="fill:#939393;fill-opacity:1;fill-rule:nonzero;stroke:none"
             id="path134"
             inkscape:connector-curvature="0" /></g><g
           id="g136"
           transform="translate(277.5215,339.3569)"><path
             d="m 0,0 c 0,0 6.062,3.469 16.687,4.135 9.69,0.608 15.412,-2.333 15.412,-2.333 0,0 1.387,10.743 -4.595,15.538 -5.983,4.795 -18.816,4.039 -24.316,0 C -2.313,13.302 -2.021,6.927 0,0"
             style="fill:#353535;fill-opacity:1;fill-rule:nonzero;stroke:none"
             id="path138"
             inkscape:connector-curvature="0" /></g><g
           id="g140"
           transform="translate(296.0566,343.5669)"><path
             d="m 0,0 c 0,0 -11.031,2.634 -18.939,2.134 -7.909,-0.5 -16.159,-6.266 -11.159,-10.133 5,-3.867 13.221,-2.831 13.221,-2.831 0,0 -1.221,4.839 -1.158,5.776 C -14.223,-1.866 -2.653,0.037 0,0"
             style="fill:#f2595b;fill-opacity:1;fill-rule:nonzero;stroke:none"
             id="path142"
             inkscape:connector-curvature="0" /></g><g
           id="g144"
           transform="translate(273.0742,205.1504)"><path
             d="m 0,0 c 0,-0.979 -0.793,-1.771 -1.771,-1.771 h -59.441 c -0.978,0 -1.771,0.792 -1.771,1.771 v 38.363 c 0,0.979 0.793,1.772 1.771,1.772 H -1.771 C -0.793,40.135 0,39.342 0,38.363 Z"
             style="fill:#dbdbdb;fill-opacity:1;fill-rule:nonzero;stroke:none"
             id="path146"
             inkscape:connector-curvature="0" /></g><g
           id="g148"
           transform="translate(273.0937,200.6455)"><path
             d="m 0,0 c 0,-0.204 -0.354,-0.37 -0.791,-0.37 h -61.421 c -0.437,0 -0.791,0.166 -0.791,0.37 v 2.36 c 0,0.207 0.354,0.373 0.791,0.373 H -0.791 C -0.354,2.733 0,2.567 0,2.36 Z"
             style="fill:#515151;fill-opacity:1;fill-rule:nonzero;stroke:none"
             id="path150"
             inkscape:connector-curvature="0" /></g><g
           id="g152"
           transform="translate(370.3281,130.9375)"><path
             d="m 0,0 c 0,0 2.566,-4.909 1.279,-13.114 -1.3,-3.302 -14.463,-10.624 -14.463,-10.624 0,0 0.002,-2.803 12.688,-1.374 8.312,0.936 13.633,16.128 14.838,19.91 1.203,3.782 -1.551,4.801 -4.012,5.459 C 7.867,0.915 6.041,2.831 6.041,2.831 6.041,2.831 0.533,2.159 0,0"
             style="fill:#f2595b;fill-opacity:1;fill-rule:nonzero;stroke:none"
             id="path154"
             inkscape:connector-curvature="0" /></g><g
           id="g156"
           transform="translate(390.5527,192.1094)"><path
             d="m 0,0 c 0,0 -3.66,3.287 3.408,-4.984 7.067,-8.271 -53.885,-2.597 -54.58,-5.85 2.301,-4.369 8.109,1.667 18.195,-15.881 9.573,-16.624 22.079,-32.869 22.079,-32.869 l -8.602,-6.334 c 0,0 -15.055,17.768 -30.521,30.448 -15.465,12.678 -24.809,24.459 -19.112,30.702 0,0 -1.828,5.736 58.225,6.561 C -1.309,1.925 0,0 0,0"
             style="fill:#0d1f60;fill-opacity:1;fill-rule:nonzero;stroke:none"
             id="path158"
             inkscape:connector-curvature="0" /></g><g
           id="g160"
           transform="translate(382.3789,104.7021)"><path
             d="M 0,0 C 0,0 -33.75,-4.094 -34.625,-4.219 -35.5,-4.344 -35.75,-1.281 -31.75,0 c 4,1.281 28.454,5.656 28.454,5.656 z"
             style="fill:#353535;fill-opacity:1;fill-rule:nonzero;stroke:none"
             id="path162"
             inkscape:connector-curvature="0" /></g><g
           id="g164"
           transform="translate(382.3789,104.7021)"><path
             d="M 0,0 C 0,0 33.75,-4.094 34.625,-4.219 35.5,-4.344 35.75,-1.281 31.75,0 27.75,1.281 3.296,5.656 3.296,5.656 Z"
             style="fill:#353535;fill-opacity:1;fill-rule:nonzero;stroke:none"
             id="path166"
             inkscape:connector-curvature="0" /></g><path
           d="m 378.004,104.171 h 8.75 v 52.499 h -8.75 z"
           style="fill:#545454;fill-opacity:1;fill-rule:nonzero;stroke:none"
           id="path168"
           inkscape:connector-curvature="0" /><path
           d="m 375.754,155.108 h 13.25 v 9 h -13.25 z"
           style="fill:#353535;fill-opacity:1;fill-rule:nonzero;stroke:none"
           id="path170"
           inkscape:connector-curvature="0" /><g
           id="g172"
           transform="translate(345.3477,161.3574)"><path
             d="M 0,0 72.74,0.125 94.438,87.936 90.563,88.934 68.934,4.935 0.15,4.815 Z"
             style="fill:#353535;fill-opacity:1;fill-rule:nonzero;stroke:none"
             id="path174"
             inkscape:connector-curvature="0" /></g><g
           id="g176"
           transform="translate(435.6465,249.293)"><path
             d="m 0,0 c 0,0 -10.643,2.69 -12.643,-14.435 -2,-17.125 -7.25,-49.833 -11.416,-55 -4.166,-5.167 1.221,-12.132 2.694,-13.566 C -18.225,-70.806 0,0 0,0"
             style="fill:#017994;fill-opacity:1;fill-rule:nonzero;stroke:none"
             id="path178"
             inkscape:connector-curvature="0" /></g><g
           id="g180"
           transform="translate(347.3301,166.1729)"><path
             d="m 0,0 h 66.951 c 0,0 -0.724,7.603 -7.943,7.603 C 51.789,7.603 35.424,2.352 28.592,3.519 21.758,4.686 -0.758,11.314 0,0"
             style="fill:#017994;fill-opacity:1;fill-rule:nonzero;stroke:none"
             id="path182"
             inkscape:connector-curvature="0" /></g><g
           id="g184"
           transform="translate(305.9297,113.5947)"><path
             d="m 0,0 c 0,0 -8.574,-6.43 -24.766,-8.798 -8.318,-0.858 -9.498,-1.491 -9.498,-1.491 0,0 -1.533,-3.771 4.832,-4.171 6.366,-0.397 25.698,-1.011 29.661,-0.793 3.964,0.217 3.937,3.151 3.679,5.688 -0.26,2.536 0.883,4.923 0.883,4.923 0,0 -2.584,4.91 -4.791,4.642"
             style="fill:#f2595b;fill-opacity:1;fill-rule:nonzero;stroke:none"
             id="path186"
             inkscape:connector-curvature="0" /></g><g
           id="g188"
           transform="translate(409.3984,192.8955)"><path
             d="m 0,0 c 0,0 6.344,-9.238 -0.064,-18.031 -6.409,-8.789 -60.045,-10.558 -63.372,-10.634 -3.716,-3.253 3.522,-13.553 -11.21,-27.433 -13.956,-13.163 -23.604,-28.248 -23.604,-28.248 l -9.059,4.811 c 0,0 11.426,26.057 20.174,44.042 8.75,17.982 13.774,28.042 22.352,28.197 l 39.195,8.277 C -16.369,3.664 0,0 0,0"
             style="fill:#12357c;fill-opacity:1;fill-rule:nonzero;stroke:none"
             id="path190"
             inkscape:connector-curvature="0" /></g><g
           id="g192"
           transform="translate(411.2305,192.8477)"><path
             d="m 0,0 0.135,-4.965 c 0,0 -12.723,8.736 -29.151,7.869 0.883,1.987 1.432,3.909 1.432,3.909 z"
             style="fill:#999999;fill-opacity:1;fill-rule:nonzero;stroke:none"
             id="path194"
             inkscape:connector-curvature="0" /></g><g
           id="g196"
           transform="translate(373.5156,292.6128)"><path
             d="m 0,0 c 0,0 -2.426,-8.838 -0.779,-11.395 -1.565,-3.671 -3.02,-5.712 -3.02,-5.712 l 3.369,-1.782 c 0,0 1.346,-2.773 0.95,-3.875 -0.397,-1.102 -0.801,-2.575 1.095,-3.952 1.897,-1.377 9.776,-0.298 9.776,-0.298 0,0 1.242,-5.139 1.787,-8.327 0.541,-3.171 10.761,-0.271 10.761,-0.271 l -1.31,10.714 c 0,0 6.283,12.234 6.596,19.564 C 29.541,1.995 23.32,8.659 16.135,8.896 8.951,9.134 1.047,5.029 0,0"
             style="fill:#fabb86;fill-opacity:1;fill-rule:nonzero;stroke:none"
             id="path198"
             inkscape:connector-curvature="0" /></g><g
           id="g200"
           transform="translate(378.9375,270.0483)"><path
             d="M 0,0 C 0,0 -1.172,3.542 -2.262,4.181 -3.354,4.82 -5.354,3.625 -6.418,4.082 c -1.064,0.456 0.002,-1.707 0.666,-2.034 0.969,0.421 2.08,0.765 3.299,0.245 1.217,-0.52 1.658,-2.742 1.375,-3.276 -0.281,-0.535 -1.215,-1.594 -2.381,-0.978 -1.168,0.616 -1.51,1.126 -1.443,1.762 -0.735,-0.238 -1.231,-1.53 -0.758,-3.457 0.471,-1.928 3.097,-2.012 3.097,-2.012 l 6.319,0.982 c 0,0 -3.701,1.612 -3.756,4.686"
             style="fill:#3d3d3d;fill-opacity:1;fill-rule:nonzero;stroke:none"
             id="path202"
             inkscape:connector-curvature="0" /></g><g
           id="g204"
           transform="translate(373.1504,282.4951)"><path
             d="M 0,0 C 0,0 -0.316,1.907 0.453,2.579 1.221,3.25 5.77,0.098 7.449,0.453 4.742,-0.437 0.416,1.277 0,0"
             style="fill:#3d3d3d;fill-opacity:1;fill-rule:nonzero;stroke:none"
             id="path206"
             inkscape:connector-curvature="0" /></g><g
           id="g208"
           transform="translate(396.8125,262.4043)"><path
             d="m 0,0 c 0,0 -5.693,-8.564 -9.678,-5.245 -1.4,-2.33 -7.994,-14.016 -9.166,-19.583 -1.172,-5.569 -2.166,-13.393 -0.588,-20.718 1.578,-7.326 -1.746,-17.201 -3.685,-22.949 9.222,0.019 37.037,-5.541 40.625,-9.718 -0.264,8.657 -0.192,17.14 0.668,23.333 C 19.662,-44.176 20.867,-9.737 0,0"
             style="fill:#ffe164;fill-opacity:1;fill-rule:nonzero;stroke:none"
             id="path210"
             inkscape:connector-curvature="0" /></g><g
           id="g212"
           transform="translate(408.9043,210.2744)"><path
             d="m 0,0 c 0,0 -5.092,25.451 -8.209,31.718 -3.117,6.263 -2.076,10.143 3.625,9.366 5.705,-0.777 7.879,-7.125 7.879,-7.125 0,0 7.236,-30.67 5.496,-39.75 -1.736,-9.081 -17.883,-3.917 -26.207,-3.833 -8.375,0.085 -23.168,0 -23.168,0 l -4.42,5.482 C -40.936,-1.569 0,0 0,0"
             style="fill:#fabb86;fill-opacity:1;fill-rule:nonzero;stroke:none"
             id="path214"
             inkscape:connector-curvature="0" /></g><g
           id="g216"
           transform="translate(402.8945,255.5771)"><path
             d="m 0,0 c -5.703,0.777 -7.543,-6.976 -4.426,-13.239 1.317,-2.648 2.893,-8.319 4.276,-13.987 3.871,2.36 8.332,3.705 12.91,4.349 -1.557,7.523 -3.059,13.517 -3.059,13.517 0,0 -3.998,8.583 -9.701,9.36"
             style="fill:#ffed9f;fill-opacity:1;fill-rule:nonzero;stroke:none"
             id="path218"
             inkscape:connector-curvature="0" /></g><g
           id="g220"
           transform="translate(374.0996,294.417)"><path
             d="m 0,0 c 0,0 8.373,-0.725 12.373,-2.059 4,-1.333 1.332,-4.5 0.832,-5 -0.5,-0.5 -1.332,-3.226 0.168,-4.863 1.5,-1.637 1.166,-3.841 1.166,-3.841 h 1.666 c 0,0 0.25,5.204 3.334,4.371 3.084,-0.834 1.406,-4.084 1.412,-6.334 0.004,-2.25 0.069,-8.036 0.994,-8.976 1.928,2.893 7.176,14.06 7.094,21.143 C 28.955,1.524 22.539,7.108 15.623,7.608 8.705,8.108 1.123,3.606 0,0"
             style="fill:#939393;fill-opacity:1;fill-rule:nonzero;stroke:none"
             id="path222"
             inkscape:connector-curvature="0" /></g><g
           id="g224"
           transform="translate(347.2783,236.2148)"><path
             d="m 0,0 c 0,0 -3.668,3.251 -5.643,6.525 -1.972,3.277 -2.877,4.86 -2.877,4.86 0,0 -6.343,3.077 -7.851,3.714 -1.514,0.637 -9.609,-1.066 -12.08,-0.927 -0.641,-1.371 3.111,-1.445 5.021,-1.334 1.912,0.107 4.489,0.012 4.489,0.012 L -23,11.387 c 0,0 -1.883,-3.301 -2.357,-3.664 0.363,-0.68 1.445,-0.726 3.076,1.922 1.597,0.868 5.234,0.425 5.234,0.425 0,0 -3.135,-0.771 -3.83,-1.103 -0.693,-0.334 -2.525,-2.557 -2.525,-2.557 0,0 -0.084,-1.513 3.144,1.154 1.844,1.524 2.946,0.226 5.545,-2.451 2.602,-2.675 3.842,-2.359 3.842,-2.359 l 7.322,-8.274 3.944,5.377"
             style="fill:#fabb86;fill-opacity:1;fill-rule:nonzero;stroke:none"
             id="path226"
             inkscape:connector-curvature="0" /></g><g
           id="g228"
           transform="translate(388.6191,204.2588)"><path
             d="m 0,0 c 0,-0.797 -0.646,-1.443 -1.443,-1.443 h -48.412 c -0.797,0 -1.444,0.646 -1.444,1.443 v 31.245 c 0,0.797 0.647,1.442 1.444,1.442 H -1.443 C -0.646,32.687 0,32.042 0,31.245 Z"
             style="fill:#dbdbdb;fill-opacity:1;fill-rule:nonzero;stroke:none"
             id="path230"
             inkscape:connector-curvature="0" /></g><g
           id="g232"
           transform="translate(388.6348,200.5898)"><path
             d="M 0,0 C 0,-0.167 -0.287,-0.302 -0.645,-0.302 H -50.67 c -0.355,0 -0.644,0.135 -0.644,0.302 v 1.922 c 0,0.169 0.289,0.304 0.644,0.304 H -0.645 C -0.287,2.226 0,2.091 0,1.922 Z"
             style="fill:#515151;fill-opacity:1;fill-rule:nonzero;stroke:none"
             id="path234"
             inkscape:connector-curvature="0" /></g><path
           d="m 165.616,98.132 h 6.329 v 97.06 h -6.329 z"
           style="fill:#d67838;fill-opacity:1;fill-rule:nonzero;stroke:none"
           id="path236"
           inkscape:connector-curvature="0" /><g
           id="g238"
           transform="translate(176.4199,98.1318)"><path
             d="m 0,0 c 0,-0.396 -0.322,-0.719 -0.719,-0.719 h -13.84 c -0.396,0 -0.718,0.323 -0.718,0.719 0,0.397 0.322,0.719 0.718,0.719 h 13.84 C -0.322,0.719 0,0.397 0,0"
             style="fill:#d67838;fill-opacity:1;fill-rule:nonzero;stroke:none"
             id="path240"
             inkscape:connector-curvature="0" /></g><g
           id="g242"
           transform="translate(106.084,97.9541)"><path
             d="M 0,0 C 0,0 33.75,-4.094 34.625,-4.219 35.5,-4.344 35.75,-1.281 31.75,0 27.75,1.281 3.296,5.656 3.296,5.656 Z"
             style="fill:#353535;fill-opacity:1;fill-rule:nonzero;stroke:none"
             id="path244"
             inkscape:connector-curvature="0" /></g><g
           id="g246"
           transform="translate(106.084,97.9541)"><path
             d="M 0,0 C 0,0 -33.75,-4.094 -34.625,-4.219 -35.5,-4.344 -35.75,-1.281 -31.75,0 c 4,1.281 28.454,5.656 28.454,5.656 z"
             style="fill:#353535;fill-opacity:1;fill-rule:nonzero;stroke:none"
             id="path248"
             inkscape:connector-curvature="0" /></g><path
           d="m 110.459,97.335 h -8.75 v 52.499 h 8.75 z"
           style="fill:#545454;fill-opacity:1;fill-rule:nonzero;stroke:none"
           id="path250"
           inkscape:connector-curvature="0" /><path
           d="m 112.709,138.108 h -13.25 v 9 h 13.25 z"
           style="fill:#353535;fill-opacity:1;fill-rule:nonzero;stroke:none"
           id="path252"
           inkscape:connector-curvature="0" /><g
           id="g254"
           transform="translate(143.1162,144.3574)"><path
             d="m 0,0 -72.74,0.125 -21.698,87.811 3.875,0.998 21.628,-83.999 68.785,-0.12 z"
             style="fill:#353535;fill-opacity:1;fill-rule:nonzero;stroke:none"
             id="path256"
             inkscape:connector-curvature="0" /></g><g
           id="g258"
           transform="translate(52.8174,232.293)"><path
             d="m 0,0 c 0,0 10.642,2.69 12.642,-14.435 2,-17.125 7.251,-49.833 11.417,-55 4.167,-5.167 -1.222,-12.132 -2.695,-13.566 C 18.226,-70.806 0,0 0,0"
             style="fill:#017994;fill-opacity:1;fill-rule:nonzero;stroke:none"
             id="path260"
             inkscape:connector-curvature="0" /></g><g
           id="g262"
           transform="translate(141.1338,149.1729)"><path
             d="m 0,0 h -66.952 c 0,0 0.725,7.603 7.944,7.603 7.219,0 23.584,-5.251 30.417,-4.084 C -21.758,4.686 0.759,11.314 0,0"
             style="fill:#017994;fill-opacity:1;fill-rule:nonzero;stroke:none"
             id="path264"
             inkscape:connector-curvature="0" /></g><g
           id="g266"
           transform="translate(157.4072,213.5312)"><path
             d="m 0,0 c 0,0 4.708,1.434 7.879,3.598 3.171,2.166 4.656,3.233 4.656,3.233 0,0 7.075,0.156 8.72,0.106 1.645,-0.05 8.324,-4.988 10.638,-5.893 0.012,-1.52 -3.446,-0.019 -5.144,0.879 -1.698,0.897 -4.092,1.888 -4.092,1.888 l 3.096,-3.034 c 0,0 0.338,-3.797 0.618,-4.326 -0.615,-0.469 -1.621,-0.058 -2.004,3.039 -1.096,1.459 -4.599,2.575 -4.599,2.575 0,0 2.54,-2.012 3.034,-2.607 0.495,-0.596 1.236,-3.388 1.236,-3.388 0,0 -0.555,-1.418 -2.387,2.368 -1.046,2.16 -2.593,1.436 -6.085,0.081 -3.492,-1.356 -4.494,-0.548 -4.494,-0.548 L 0.933,-6.521 -0.419,0.035"
             style="fill:#e5a576;fill-opacity:1;fill-rule:nonzero;stroke:none"
             id="path268"
             inkscape:connector-curvature="0" /></g><g
           id="g270"
           transform="translate(200.4707,114.5303)"><path
             d="m 0,0 c 0,0 9.177,-7.294 26.808,-10.385 9.07,-1.194 10.338,-1.923 10.338,-1.923 0,0 1.563,-4.17 -5.41,-4.41 -6.971,-0.24 -28.13,-0.315 -32.458,0.045 -4.327,0.361 -4.207,3.569 -3.846,6.334 0.361,2.765 -0.815,5.41 -0.815,5.41 0,0 2.979,5.289 5.383,4.929"
             style="fill:#823d1a;fill-opacity:1;fill-rule:nonzero;stroke:none"
             id="path272"
             inkscape:connector-curvature="0" /></g><g
           id="g274"
           transform="translate(73.6445,176.0801)"><path
             d="m 0,0 c 0,0 -5.29,-11.06 3.125,-19.476 8.415,-8.414 66.68,-1.235 70.286,-0.755 4.568,-2.885 -2.512,-8.701 15.761,-21.203 17.311,-11.862 30.294,-26.528 30.294,-26.528 l 8.976,6.733 c 0,0 -15.761,19.681 -28.263,37.632 C 87.677,-5.646 80.543,4.374 71.247,3.091 L 27.486,5.396 C 17.069,6.732 0,0 0,0"
             style="fill:#666666;fill-opacity:1;fill-rule:nonzero;stroke:none"
             id="path276"
             inkscape:connector-curvature="0" /></g><g
           id="g278"
           transform="translate(72.709,177.9834)"><path
             d="m 0,0 -0.152,-5.647 c 0,0 14.47,9.936 33.155,8.952 C 32,5.562 31.375,7.75 31.375,7.75 Z"
             style="fill:#999999;fill-opacity:1;fill-rule:nonzero;stroke:none"
             id="path280"
             inkscape:connector-curvature="0" /></g><g
           id="g282"
           transform="translate(159.833,214.8887)"><path
             d="m 0,0 c -14.56,-0.738 -42.374,-3.697 -42.374,-3.697 0,0 -16.25,23.334 -18.916,30.834 -2.667,7.5 -10.466,12.114 -14.334,6.833 -3.867,-5.283 0,-15.333 0,-15.333 0,0 18.75,-27.917 27.555,-33.667 8.803,-5.75 15.945,-1 28.195,1.75 8.02,1.8 16.083,3.652 21.184,4.829 C 1.31,-7.03 -0.046,-0.591 0,0"
             style="fill:#e06873;fill-opacity:1;fill-rule:nonzero;stroke:none"
             id="path284"
             inkscape:connector-curvature="0" /></g><g
           id="g286"
           transform="translate(123.8271,286.8882)"><path
             d="m 0,0 c 0,0 0.408,-10.417 -2.075,-12.825 0.788,-4.469 1.873,-7.106 1.873,-7.106 l -4.191,-1.105 c 0,0 -2.205,-2.725 -2.05,-4.048 0.154,-1.325 0.221,-3.06 -2.234,-4.097 -2.454,-1.037 -10.906,2.19 -10.906,2.19 0,0 -2.701,-5.373 -4.126,-8.764 -1.417,-3.373 -11.992,2.475 -11.992,2.475 l 4.213,11.531 c 0,0 -3.806,15.172 -2.265,23.374 1.54,8.201 10.151,13.979 18.17,12.391 C -7.563,12.427 0.135,5.841 0,0"
             style="fill:#fabb86;fill-opacity:1;fill-rule:nonzero;stroke:none"
             id="path288"
             inkscape:connector-curvature="0" /></g><g
           id="g290"
           transform="translate(105.3359,287.8379)"><path
             d="m 0,0 c 0,0 1.375,-3.257 7.592,-3.298 6.216,-0.042 8.304,-2.077 7.445,-3.725 1.807,0.993 1.265,3.047 1.265,3.047 0,0 2.863,-1.054 2.254,-4.382 0.84,0.738 1.574,3.647 0.565,6.096 0.873,-0.029 1.529,-1.536 1.943,-3.108 0.15,1.397 -1.515,10.653 -7.752,14.697 1.909,0.115 2.597,1.59 2.355,3.163 -0.231,-0.923 -1.587,-4.77 -6.263,-0.272 -4.676,4.498 -13.264,3.893 -16.32,1.019 0.565,2.023 2.639,3.475 4.242,3.768 -1.155,0.213 -6.148,-1.685 -6.894,-4.984 -0.053,2.895 1.2,4.517 1.2,4.517 0,0 -2.736,-1.656 -3.096,-5.255 -2.226,0.275 -6.569,-1.559 -7.466,-7.311 -0.897,-5.752 -3.402,-8.997 -3.916,-8.357 1.341,-0.509 3.202,0.93 3.66,1.482 -0.652,-2.758 -1.973,-5.262 -0.705,-8.115 1.27,-2.854 3.492,-7.353 1.359,-9.725 1.166,0.48 2.271,2.495 2.109,4.09 0.71,-1.709 -0.371,-4.968 0.578,-6.85 0.949,-1.883 -0.499,-4.785 -1.331,-5.521 1.534,0.338 3.245,1.695 3.495,3.441 0.483,0.05 1.063,-2.557 0.227,-3.557 1.159,0.755 2.418,1.863 2.518,4.668 0.58,-0.234 1.213,-1.166 0.679,-3.31 0.617,0.355 5.778,3.419 4.749,7.973 -1.028,4.555 -0.344,9.476 0.229,10.575 0.917,-0.535 0.722,-3.579 0.032,-5.68 1.006,0.437 2.167,2.898 2.098,5.121 1.158,-0.471 1.693,-2.831 1.037,-3.606 0.893,1.185 1.245,3.777 0.663,5.002 C -2.03,-7.171 2.881,-7.169 0,0"
             style="fill:#7f3f22;fill-opacity:1;fill-rule:nonzero;stroke:none"
             id="path292"
             inkscape:connector-curvature="0" /></g><g
           id="g294"
           transform="translate(112.002,263.2881)"><path
             d="M 0,0 C 0,0 2.212,3.622 3.586,4.049 4.96,4.476 6.867,2.637 8.164,2.868 9.46,3.099 7.721,0.977 6.902,0.786 5.938,1.502 4.793,2.17 3.311,1.908 1.828,1.646 0.767,-0.702 0.942,-1.367 c 0.175,-0.664 0.936,-2.08 2.387,-1.697 1.45,0.382 1.962,0.859 2.053,1.58 C 6.134,-1.937 6.351,-3.496 5.331,-5.51 4.311,-7.523 1.377,-6.939 1.377,-6.939 l -6.745,2.716 c 0,0 4.516,0.832 5.368,4.223"
             style="fill:#7f3f22;fill-opacity:1;fill-rule:nonzero;stroke:none"
             id="path296"
             inkscape:connector-curvature="0" /></g><g
           id="g298"
           transform="translate(121.6221,275.585)"><path
             d="M 0,0 C 0,0 0.843,2.032 0.164,2.973 -0.515,3.915 -6.367,1.596 -8.136,2.422 -5.365,0.74 -0.129,1.522 0,0"
             style="fill:#7f3f22;fill-opacity:1;fill-rule:nonzero;stroke:none"
             id="path300"
             inkscape:connector-curvature="0" /></g><g
           id="g302"
           transform="translate(89.1084,257.1006)"><path
             d="m 0,0 c 0,0 6.476,-9.742 11.01,-5.968 1.591,-2.649 9.091,-15.941 10.425,-22.274 1.333,-6.333 -3.745,-13.667 -5.539,-22 -1.795,-8.333 -0.975,-18.67 1.231,-25.208 -10.49,0.021 -30.151,-1.167 -34.232,-5.917 0.3,9.847 2.183,14.749 1.206,21.792 C -17.589,-47.399 -23.732,-11.075 0,0"
             style="fill:#f2595b;fill-opacity:1;fill-rule:nonzero;stroke:none"
             id="path304"
             inkscape:connector-curvature="0" /></g><g
           id="g306"
           transform="translate(72.3027,204.1611)"><path
             d="m 0,0 c 0.138,-1.103 0.276,-2.146 0.41,-3.111 9.832,3.934 21.574,3.894 31.48,-0.118 0.083,1.159 0.214,2.299 0.378,3.422 C 22.09,3.89 10.305,2.797 0,0"
             style="fill:#f47d83;fill-opacity:1;fill-rule:nonzero;stroke:none"
             id="path308"
             inkscape:connector-curvature="0" /></g><g
           id="g310"
           transform="translate(73.1309,198.0791)"><path
             d="m 0,0 c 0.026,-0.184 0.054,-0.38 0.078,-0.554 0.308,-2.216 0.332,-4.219 0.211,-6.232 9.811,3.526 20.165,4.29 30.645,3.55 -0.05,1.389 -0.031,2.792 0.022,4.189 C 20.638,3.442 10.319,2.49 0,0"
             style="fill:#f47d83;fill-opacity:1;fill-rule:nonzero;stroke:none"
             id="path312"
             inkscape:connector-curvature="0" /></g><g
           id="g314"
           transform="translate(158.8027,210.8076)"><path
             d="m 0,0 c 0,0 4.863,0.753 8.309,2.447 3.445,1.695 5.067,2.541 5.067,2.541 0,0 7.025,-0.846 8.646,-1.13 1.623,-0.282 7.536,-6.115 9.697,-7.338 -0.202,-1.506 -3.413,0.468 -4.967,1.598 -1.554,1.129 -3.783,2.447 -3.783,2.447 l 2.635,-3.439 c 0,0 -0.204,-3.808 0,-4.372 -0.676,-0.377 -1.614,0.172 -1.554,3.294 -0.879,1.599 -4.189,3.199 -4.189,3.199 0,0 2.229,-2.352 2.635,-3.011 0.405,-0.659 0.744,-3.529 0.744,-3.529 0,0 -0.75,-1.323 -2.028,2.682 -0.73,2.288 -2.364,1.789 -6.013,0.941 -3.647,-0.847 -4.525,0.095 -4.525,0.095 L 0,-6.587 -0.41,0.095"
             style="fill:#fabb86;fill-opacity:1;fill-rule:nonzero;stroke:none"
             id="path316"
             inkscape:connector-curvature="0" /></g><g
           id="g318"
           transform="translate(116.459,208.1914)"><path
             d="m 0,0 c 0,0 -16.25,23.334 -18.916,30.834 -2.667,7.5 -10.466,12.115 -14.334,6.833 -3.867,-5.282 0,-15.333 0,-15.333 0,0 18.75,-27.917 27.555,-33.667 8.803,-5.75 15.945,-1 28.195,1.75 9.293,2.086 19.587,4.459 24.018,5.483 L 45.524,3.85 C 31.797,3.312 0,0 0,0"
             style="fill:#f47d83;fill-opacity:1;fill-rule:nonzero;stroke:none"
             id="path320"
             inkscape:connector-curvature="0" /></g><g
           id="g322"
           transform="translate(103.4023,282.8027)"><path
             d="m 0,0 c -0.241,-0.972 -1.225,-1.564 -2.196,-1.323 -0.971,0.24 -1.564,1.224 -1.323,2.195 l 5.128,20.683 c 0.242,0.971 1.225,1.564 2.197,1.323 0.97,-0.241 1.563,-1.224 1.322,-2.195 z"
             style="fill:#adadad;fill-opacity:1;fill-rule:nonzero;stroke:none"
             id="path324"
             inkscape:connector-curvature="0" /></g><g
           id="g326"
           transform="translate(106.251,277.4062)"><path
             d="m 0,0 c -0.78,-3.15 -3.968,-5.071 -7.119,-4.29 -3.15,0.782 -5.07,3.969 -4.289,7.119 0.781,3.151 3.969,5.071 7.118,4.29 C -1.139,6.338 0.781,3.151 0,0"
             style="fill:#6d6d6d;fill-opacity:1;fill-rule:nonzero;stroke:none"
             id="path328"
             inkscape:connector-curvature="0" /></g><g
           id="g330"
           transform="translate(288.9219,214.251)"><path
             d="m 0,0 v -7.808 c 0,-2.491 1.232,-4.69 3.115,-6.036 h 8.612 c 1.883,1.346 3.115,3.545 3.115,6.036 V 0 Z"
             style="fill:#dbdbdb;fill-opacity:1;fill-rule:nonzero;stroke:none"
             id="path332"
             inkscape:connector-curvature="0" /></g><g
           id="g334"
           transform="translate(308.0352,200.1484)"><path
             d="m 0,0 c 0,-0.379 -0.307,-0.687 -0.686,-0.687 h -21.471 c -0.379,0 -0.687,0.308 -0.687,0.687 0,0.379 0.308,0.686 0.687,0.686 H -0.686 C -0.307,0.686 0,0.379 0,0"
             style="fill:#a3a3a3;fill-opacity:1;fill-rule:nonzero;stroke:none"
             id="path336"
             inkscape:connector-curvature="0" /></g><g
           id="g338"
           transform="translate(302.9473,202.8672)"><path
             d="m 0,0 c -0.42,0 -0.664,0.044 -0.687,0.049 l 0.183,0.982 C -0.494,1.029 0.738,0.823 2.562,1.508 3.658,1.92 4.357,5.26 4.003,7.213 3.881,7.887 3.686,8.04 3.654,8.04 h -4.25 v 1 h 4.25 C 4.04,9.04 4.727,8.826 4.986,7.391 5.339,5.448 4.806,1.281 2.913,0.572 1.65,0.098 0.629,0 0,0"
             style="fill:#dbdbdb;fill-opacity:1;fill-rule:nonzero;stroke:none"
             id="path340"
             inkscape:connector-curvature="0" /></g><g
           id="g342"
           transform="translate(185.8799,214.1104)"><path
             d="m 0,0 v -7.808 c 0,-2.491 1.232,-4.69 3.115,-6.036 h 8.612 c 1.883,1.346 3.115,3.545 3.115,6.036 V 0 Z"
             style="fill:#dbdbdb;fill-opacity:1;fill-rule:nonzero;stroke:none"
             id="path344"
             inkscape:connector-curvature="0" /></g><g
           id="g346"
           transform="translate(204.9932,200.0078)"><path
             d="m 0,0 c 0,-0.379 -0.307,-0.687 -0.686,-0.687 h -21.471 c -0.379,0 -0.687,0.308 -0.687,0.687 0,0.379 0.308,0.686 0.687,0.686 H -0.686 C -0.307,0.686 0,0.379 0,0"
             style="fill:#a3a3a3;fill-opacity:1;fill-rule:nonzero;stroke:none"
             id="path348"
             inkscape:connector-curvature="0" /></g><g
           id="g350"
           transform="translate(199.9053,202.7266)"><path
             d="m 0,0 c -0.42,0 -0.664,0.044 -0.687,0.049 l 0.183,0.982 C -0.494,1.029 0.738,0.823 2.562,1.508 3.658,1.92 4.357,5.26 4.003,7.213 3.881,7.887 3.686,8.04 3.654,8.04 h -4.25 v 1 h 4.25 C 4.04,9.04 4.727,8.826 4.986,7.391 5.339,5.448 4.806,1.281 2.913,0.572 1.65,0.098 0.629,0 0,0"
             style="fill:#dbdbdb;fill-opacity:1;fill-rule:nonzero;stroke:none"
             id="path352"
             inkscape:connector-curvature="0" /></g><g
           id="g354"
           transform="translate(419.8369,98.1318)"><path
             d="m 0,0 c 0,-0.396 -0.322,-0.719 -0.719,-0.719 h -13.84 c -0.396,0 -0.718,0.323 -0.718,0.719 0,0.397 0.322,0.719 0.718,0.719 h 13.84 C -0.322,0.719 0,0.397 0,0"
             style="fill:#d67838;fill-opacity:1;fill-rule:nonzero;stroke:none"
             id="path356"
             inkscape:connector-curvature="0" /></g><path
           d="m 409.033,98.132 h 6.329 v 97.06 h -6.329 z"
           style="fill:#d67838;fill-opacity:1;fill-rule:nonzero;stroke:none"
           id="path358"
           inkscape:connector-curvature="0" /><path
           d="M 451.32,191.684 H 130.33 v 7.778 h 320.99 z"
           style="fill:#ff9a55;fill-opacity:1;fill-rule:nonzero;stroke:none"
           id="path360"
           inkscape:connector-curvature="0" /><g
           id="g362"
           transform="translate(195.2827,420.1426)"><path
             d="m 0,0 v 20.803 c 0,7.284 -5.904,13.188 -13.188,13.188 -7.283,0 -13.187,-5.904 -13.187,-13.188 V 0 Z"
             style="fill:#b7b7b7;fill-opacity:1;fill-rule:nonzero;stroke:none"
             id="path364"
             inkscape:connector-curvature="0" /></g><path
           d="m 182.899,443.313 h -1.608 V 500 h 1.608 z"
           style="fill:#b7b7b7;fill-opacity:1;fill-rule:nonzero;stroke:none"
           id="path366"
           inkscape:connector-curvature="0" /><g
           id="g368"
           transform="translate(331.0928,400.5767)"><path
             d="m 0,0 v 20.804 c 0,7.283 -5.904,13.187 -13.188,13.187 -7.283,0 -13.188,-5.904 -13.188,-13.187 V 0 Z"
             style="fill:#b7b7b7;fill-opacity:1;fill-rule:nonzero;stroke:none"
             id="path370"
             inkscape:connector-curvature="0" /></g><path
           d="m 318.709,430.314 h -1.608 V 500 h 1.608 z"
           style="fill:#b7b7b7;fill-opacity:1;fill-rule:nonzero;stroke:none"
           id="path372"
           inkscape:connector-curvature="0" /><g
           id="g374"
           transform="translate(261.7764,371.165)"><path
             d="m 0,0 v 20.804 c 0,7.283 -5.903,13.187 -13.188,13.187 -7.282,0 -13.187,-5.904 -13.187,-13.187 V 0 Z"
             style="fill:#b7b7b7;fill-opacity:1;fill-rule:nonzero;stroke:none"
             id="path376"
             inkscape:connector-curvature="0" /></g><path
           d="m 249.393,394.336 h -1.608 V 500 h 1.608 z"
           style="fill:#b7b7b7;fill-opacity:1;fill-rule:nonzero;stroke:none"
           id="path378"
           inkscape:connector-curvature="0" /></g></g></g></svg>