<?xml version="1.0" encoding="UTF-8" standalone="no"?>
<!-- Created with Inkscape (http://www.inkscape.org/) -->

<svg
   xmlns:dc="http://purl.org/dc/elements/1.1/"
   xmlns:cc="http://creativecommons.org/ns#"
   xmlns:rdf="http://www.w3.org/1999/02/22-rdf-syntax-ns#"
   xmlns:svg="http://www.w3.org/2000/svg"
   xmlns="http://www.w3.org/2000/svg"
   xmlns:sodipodi="http://sodipodi.sourceforge.net/DTD/sodipodi-0.dtd"
   xmlns:inkscape="http://www.inkscape.org/namespaces/inkscape"
   version="1.1"
   id="svg2"
   xml:space="preserve"
   width="666.66669"
   height="666.66669"
   viewBox="0 0 666.66669 666.66669"
   sodipodi:docname="teamLightOn2.svg"
   inkscape:version="0.92.3 (unknown)"><metadata
     id="metadata8"><rdf:RDF><cc:Work
         rdf:about=""><dc:format>image/svg+xml</dc:format><dc:type
           rdf:resource="http://purl.org/dc/dcmitype/StillImage" /><dc:title></dc:title></cc:Work></rdf:RDF></metadata><defs
     id="defs6"><clipPath
       clipPathUnits="userSpaceOnUse"
       id="clipPath20"><path
         d="M 0,500 H 500 V 0 H 0 Z"
         id="path18"
         inkscape:connector-curvature="0" /></clipPath><clipPath
       clipPathUnits="userSpaceOnUse"
       id="clipPath28"><path
         d="M 143.222,147.357 H 369.474 V 62.3807 H 143.222 Z"
         id="path26"
         inkscape:connector-curvature="0" /></clipPath><clipPath
       clipPathUnits="userSpaceOnUse"
       id="clipPath392"><path
         d="m 209.003,296.99 h 71.311 v -31.176 h -71.311 z"
         id="path390"
         inkscape:connector-curvature="0" /></clipPath><clipPath
       clipPathUnits="userSpaceOnUse"
       id="clipPath432"><path
         d="m 251.246,404.136 h 41.508 v -44.635 h -41.508 z"
         id="path430"
         inkscape:connector-curvature="0" /></clipPath><clipPath
       clipPathUnits="userSpaceOnUse"
       id="clipPath448"><path
         d="m 259.464,395.299 h 25.072 v -26.961 h -25.072 z"
         id="path446"
         inkscape:connector-curvature="0" /></clipPath><clipPath
       clipPathUnits="userSpaceOnUse"
       id="clipPath494"><path
         d="M 0,500 H 500 V 0 H 0 Z"
         id="path492"
         inkscape:connector-curvature="0" /></clipPath></defs><sodipodi:namedview
     pagecolor="#ffffff"
     bordercolor="#666666"
     borderopacity="1"
     objecttolerance="10"
     gridtolerance="10"
     guidetolerance="10"
     inkscape:pageopacity="0"
     inkscape:pageshadow="2"
     inkscape:window-width="1366"
     inkscape:window-height="705"
     id="namedview4"
     showgrid="false"
     showguides="true"
     inkscape:guide-bbox="true"
     inkscape:zoom="0.35399999"
     inkscape:cx="109.27906"
     inkscape:cy="466.13427"
     inkscape:window-x="0"
     inkscape:window-y="24"
     inkscape:window-maximized="1"
     inkscape:current-layer="g10"><sodipodi:guide
       position="0,666.66667"
       orientation="1,0"
       id="guide628"
       inkscape:locked="false" /><sodipodi:guide
       position="0,666.66667"
       orientation="0,1"
       id="guide630"
       inkscape:locked="false" /><sodipodi:guide
       position="666.66665,666.66667"
       orientation="1,0"
       id="guide632"
       inkscape:locked="false" /><sodipodi:guide
       position="333.33335,737.28816"
       orientation="1,0"
       id="guide636"
       inkscape:locked="false" /><sodipodi:guide
       position="0,1.7011719e-05"
       orientation="0,1"
       id="guide638"
       inkscape:locked="false" /><sodipodi:guide
       position="-822.03393,336.1582"
       orientation="0,1"
       id="guide640"
       inkscape:locked="false" /></sodipodi:namedview><g
     id="g10"
     inkscape:groupmode="layer"
     inkscape:label="366917-PB1GQY-718"
     transform="matrix(1.3333333,0,0,-1.3333333,0,666.66667)"><g
       id="g14"
       transform="matrix(1.2151987,0,0,1.2151987,-48.381601,-34.371621)"><g
         id="g16"
         clip-path="url(#clipPath20)"><g
           id="g22"><g
             id="g24" /><g
             id="g36"><g
               clip-path="url(#clipPath28)"
               id="g34"
               style="opacity:0.27999902"><g
                 transform="translate(369.4736,104.8691)"
                 id="g32"><path
                   d="m 0,0 c 0,-23.466 -50.648,-42.488 -113.126,-42.488 -62.477,0 -113.125,19.022 -113.125,42.488 0,23.465 50.648,42.488 113.125,42.488 C -50.648,42.488 0,23.465 0,0"
                   style="fill:#4966b7;fill-opacity:1;fill-rule:nonzero;stroke:none"
                   id="path30"
                   inkscape:connector-curvature="0" /></g></g></g></g><g
           id="g38"
           transform="translate(308.7051,292.8105)"><path
             d="m 0,0 2.541,3.06 c 0,0 -2.142,8.639 -0.765,8.45 C 3.153,11.321 4.58,7.65 4.58,7.65 l 4.845,5.369 c 0,0 5.202,-0.867 3.825,-3.807 C 11.873,6.273 3.306,-2.753 3.306,-2.753 Z"
             style="fill:#e18f67;fill-opacity:1;fill-rule:nonzero;stroke:none"
             id="path40"
             inkscape:connector-curvature="0" /></g><g
           id="g42"
           transform="translate(292.2725,210.2314)"><path
             d="m 0,0 c 0,0 -5.957,-33.739 -13.86,-42.459 -7.904,-8.721 -13.744,-25.159 -13.744,-25.159 l -7.236,-1.685 c 0,0 2.733,23.59 7.904,45.64 5.172,22.05 18.36,24.697 18.36,24.697 z"
             style="fill:#17191c;fill-opacity:1;fill-rule:nonzero;stroke:none"
             id="path44"
             inkscape:connector-curvature="0" /></g><g
           id="g46"
           transform="translate(265.3955,151.9346)"><path
             d="M 0,0 C 0,0 7.077,-10.314 8.484,-9.477 9.891,-8.639 9.292,1.47 9.292,1.47 Z"
             style="fill:#151719;fill-opacity:1;fill-rule:nonzero;stroke:none"
             id="path48"
             inkscape:connector-curvature="0" /></g><g
           id="g50"
           transform="translate(259.4062,200.3389)"><path
             d="m 0,0 c 0,0 -1.203,-3.923 2.77,-13.771 3.972,-9.846 9.459,-14.668 7.29,-20.746 -2.17,-6.077 -4.129,-13.387 -4.129,-13.387 0,0 2.546,-2.825 6.153,-2.464 3.607,0.361 13.497,18.086 14.175,20.353 0.678,2.267 -4.25,36.623 -4.25,36.623 z"
             style="fill:#212428;fill-opacity:1;fill-rule:nonzero;stroke:none"
             id="path52"
             inkscape:connector-curvature="0" /></g><g
           id="g54"
           transform="translate(283.4658,191.999)"><path
             d="M 0,0 C 0,0 5.465,2.663 5.94,4.687 6.416,6.712 7.802,18.232 7.802,18.232 L -3.702,12.705 Z"
             style="fill:#212428;fill-opacity:1;fill-rule:nonzero;stroke:none"
             id="path56"
             inkscape:connector-curvature="0" /></g><g
           id="g58"
           transform="translate(288.585,260.3486)"><path
             d="M 0,0 19.59,34.484 24.743,30.724 9.336,-15.533 13.583,-65.562 2.461,-66.879 -5.11,-5.101 Z"
             style="fill:#212428;fill-opacity:1;fill-rule:nonzero;stroke:none"
             id="path60"
             inkscape:connector-curvature="0" /></g><g
           id="g62"
           transform="translate(263.54,207.0566)"><path
             d="m 0,0 c 0,0 13.661,-7.904 22.569,-3.115 8.909,4.79 9.82,19.342 7.329,28.014 -2.489,8.674 -6.196,21.434 -6.196,21.434 L 6.828,44.878 Z"
             style="fill:#e4edec;fill-opacity:1;fill-rule:nonzero;stroke:none"
             id="path64"
             inkscape:connector-curvature="0" /></g><g
           id="g66"
           transform="translate(264.0967,237.8213)"><path
             d="m 0,0 -10.799,-34.551 c 3.52,-9.083 28.117,-9.801 28.117,-9.801 L 12.5,8.06 11.312,14.589 -3.507,18.263 Z"
             style="fill:#2a2e33;fill-opacity:1;fill-rule:nonzero;stroke:none"
             id="path68"
             inkscape:connector-curvature="0" /></g><g
           id="g70"
           transform="translate(269.7969,254.4829)"><path
             d="M 0,0 -3.754,-8.324 3.063,-12.399 -0.908,-18.727 8.968,-30.94 5.959,-1.566 Z"
             style="fill:#373d44;fill-opacity:1;fill-rule:nonzero;stroke:none"
             id="path72"
             inkscape:connector-curvature="0" /></g><g
           id="g74"
           transform="translate(279.9883,246.4326)"><path
             d="m 0,0 2.291,-3.987 2.787,0.49 1.001,5.846 -7.576,-1.507 z"
             style="fill:#373d44;fill-opacity:1;fill-rule:nonzero;stroke:none"
             id="path76"
             inkscape:connector-curvature="0" /></g><g
           id="g78"
           transform="translate(292.4707,258.1089)"><path
             d="m 0,0 c -0.181,-0.362 -1.425,-11.207 -1.425,-11.207 l 3.096,-0.612 V -29.28 l -6.9,24.561 z"
             style="fill:#2a2e33;fill-opacity:1;fill-rule:nonzero;stroke:none"
             id="path80"
             inkscape:connector-curvature="0" /></g><g
           id="g82"
           transform="translate(275.6787,250.4922)"><path
             d="m 0,0 -0.791,-6.714 8.819,4.59 7.339,-0.31 -3.474,4.199 z"
             style="fill:#ffffff;fill-opacity:1;fill-rule:nonzero;stroke:none"
             id="path84"
             inkscape:connector-curvature="0" /></g><g
           id="g86"
           transform="translate(276.5967,249.5742)"><path
             d="m 0,0 c 0,0 3.923,-2.34 7.11,-1.206 3.189,1.135 3.946,3.641 3.865,3.889 C -2.244,4.668 0,0 0,0"
             style="fill:#d87b56;fill-opacity:1;fill-rule:nonzero;stroke:none"
             id="path88"
             inkscape:connector-curvature="0" /></g><g
           id="g90"
           transform="translate(293.9326,264.6177)"><path
             d="m 0,0 c 0,-8.393 -4.968,-15.196 -13.36,-15.196 -8.393,0 -17.033,6.803 -17.033,15.196 0,8.393 6.804,15.197 15.197,15.197 C -6.804,15.197 0,8.393 0,0"
             style="fill:#e18f67;fill-opacity:1;fill-rule:nonzero;stroke:none"
             id="path92"
             inkscape:connector-curvature="0" /></g><g
           id="g94"
           transform="translate(282.2793,242.4453)"><path
             d="m 0,0 -0.169,-20.498 5.132,-2.479 2.448,4.184 L 2.787,0.49 Z"
             style="fill:#373d44;fill-opacity:1;fill-rule:nonzero;stroke:none"
             id="path96"
             inkscape:connector-curvature="0" /></g><g
           id="g98"
           transform="translate(284.5742,258.46)"><path
             d="M 0,0 C 0.306,0.077 3.06,0.691 3.06,0.691 L 0.744,6.349 -0.878,5.912 Z"
             style="fill:#ce5f51;fill-opacity:1;fill-rule:nonzero;stroke:none"
             id="path100"
             inkscape:connector-curvature="0" /></g><g
           id="g102"
           transform="translate(281.415,262.6582)"><path
             d="M 0,0 C -2.002,2.045 -4.004,1.704 -6.007,-1.024"
             style="fill:none;stroke:#2a2e33;stroke-width:1;stroke-linecap:butt;stroke-linejoin:miter;stroke-miterlimit:10;stroke-dasharray:none;stroke-opacity:1"
             id="path104"
             inkscape:connector-curvature="0" /></g><g
           id="g106"
           transform="translate(291.54,265.3032)"><path
             d="M 0,0 C 0,0 -1.288,0.974 -2.265,0.629 -3.242,0.285 -3.487,-1.024 -3.487,-1.024"
             style="fill:none;stroke:#2a2e33;stroke-width:1;stroke-linecap:butt;stroke-linejoin:miter;stroke-miterlimit:10;stroke-dasharray:none;stroke-opacity:1"
             id="path108"
             inkscape:connector-curvature="0" /></g><g
           id="g110"
           transform="translate(284.3838,255.3374)"><path
             d="M 0,0 C 0,0 1.533,1.235 2.564,1.459 3.595,1.683 3.901,0.729 3.901,0.729 Z"
             style="fill:#cc6642;fill-opacity:1;fill-rule:nonzero;stroke:none"
             id="path112"
             inkscape:connector-curvature="0" /></g><g
           id="g114"
           transform="translate(284.3838,255.3374)"><path
             d="m 0,0 c 0,0 1.06,-1.213 2.564,-0.803 1.505,0.41 1.337,1.532 1.337,1.532 z"
             style="fill:#d87b56;fill-opacity:1;fill-rule:nonzero;stroke:none"
             id="path116"
             inkscape:connector-curvature="0" /></g><g
           id="g118"
           transform="translate(268.7471,259.4468)"><path
             d="m 0,0 c 0.058,-0.287 2.123,-4.171 2.123,-4.171 l 2.342,1.762 -3.202,4.36 c 0,0 1.95,2.237 1.892,4.475 -0.056,2.237 -0.675,4.819 7.178,6.367 7.854,1.549 11.168,2.511 11.966,1.29 0.799,-1.222 2.773,2.669 -0.354,4.161 -3.128,1.491 -10.493,2.36 -12.653,2.107 C 7.133,20.098 -0.975,19.735 -5.45,10.786 -9.925,1.836 0.438,-5.806 0.438,-5.806 Z"
             style="fill:#212428;fill-opacity:1;fill-rule:nonzero;stroke:none"
             id="path120"
             inkscape:connector-curvature="0" /></g><g
           id="g122"
           transform="translate(265.6777,257.6841)"><path
             d="m 0,0 c -0.335,2.002 0.527,3.816 1.927,4.051 1.398,0.234 1.305,-3.202 1.305,-3.202 0,0 1.309,-3.816 -0.09,-4.05 C 1.742,-3.436 0.336,-2.002 0,0"
             style="fill:#e18f67;fill-opacity:1;fill-rule:nonzero;stroke:none"
             id="path124"
             inkscape:connector-curvature="0" /></g><g
           id="g126"
           transform="translate(257.4326,140.9287)"><path
             d="M 0,0 C 0,0 8.767,-7.816 11.839,-6.436 14.912,-5.054 7.437,3.188 7.437,3.188 7.437,3.188 6.085,5.628 0,0"
             style="fill:#151719;fill-opacity:1;fill-rule:nonzero;stroke:none"
             id="path128"
             inkscape:connector-curvature="0" /></g><g
           id="g130"
           transform="translate(351.9512,264.3882)"><path
             d="m 0,0 2.541,3.06 c 0,0 -2.142,8.639 -0.765,8.45 C 3.153,11.321 4.58,7.649 4.58,7.649 l 4.845,5.37 c 0,0 5.202,-0.868 3.825,-3.807 C 11.873,6.272 3.306,-2.754 3.306,-2.754 Z"
             style="fill:#773823;fill-opacity:1;fill-rule:nonzero;stroke:none"
             id="path132"
             inkscape:connector-curvature="0" /></g><g
           id="g134"
           transform="translate(330.3975,200.2305)"><path
             d="M 0,0 C 0,0 8.521,1.692 11.032,4.811 13.543,7.929 3.57,28.815 3.57,28.815 L -1.773,22.791 0.48,1.198"
             style="fill:#212428;fill-opacity:1;fill-rule:nonzero;stroke:none"
             id="path136"
             inkscape:connector-curvature="0" /></g><g
           id="g138"
           transform="translate(354.0195,268.0825)"><path
             d="M 0,0 C 0,0 -20.324,-32.347 -27.362,-34.122 -34.4,-35.896 -38.89,-60.818 -22.693,-53.958 -6.497,-47.1 2.141,-5.971 2.141,-5.971 Z"
             style="fill:#212428;fill-opacity:1;fill-rule:nonzero;stroke:none"
             id="path140"
             inkscape:connector-curvature="0" /></g><g
           id="g142"
           transform="translate(329.3066,170.9746)"><path
             d="m 0,0 c -9.461,-47.633 -7.347,-58.115 -7.347,-58.115 l -3.256,-0.391 c 0,0 -9.616,46.706 -9.616,56.484 C -20.219,7.755 0.684,5.405 0,0"
             style="fill:#682d1d;fill-opacity:1;fill-rule:nonzero;stroke:none"
             id="path144"
             inkscape:connector-curvature="0" /></g><g
           id="g146"
           transform="translate(318.0596,172.8682)"><path
             d="m 0,0 -15.521,-4.752 0.924,-22.304 -14.563,5.619 -1.783,-2.641 c 0,0 15.428,-11.981 19.734,-13.385 4.305,-1.405 12.959,24.387 12.959,24.387 0,0 2.783,7.938 2.634,8.456 C 4.233,-4.102 0,0 0,0"
             style="fill:#773823;fill-opacity:1;fill-rule:nonzero;stroke:none"
             id="path148"
             inkscape:connector-curvature="0" /></g><g
           id="g150"
           transform="translate(332.1035,197.7637)"><path
             d="m 0,0 c 0,0 7.337,14.502 -1.243,32.385 -0.689,0.041 -14.462,3.029 -14.462,3.029 l -4.833,-19.391 4.113,-17.51 9,-5.786 z"
             style="fill:#ffffff;fill-opacity:1;fill-rule:nonzero;stroke:none"
             id="path152"
             inkscape:connector-curvature="0" /></g><g
           id="g154"
           transform="translate(307.0176,200.2305)"><path
             d="m 0,0 c 0,0 -6.41,-3.873 -6.314,-15.756 0.095,-11.884 1.835,-18.194 1.835,-18.194 11.498,-3.252 21.688,-4.976 26.029,0.149 l 3.536,31.334 c 0,0 -6.017,-8.217 -25.086,2.467"
             style="fill:#212428;fill-opacity:1;fill-rule:nonzero;stroke:none"
             id="path156"
             inkscape:connector-curvature="0" /></g><g
           id="g158"
           transform="translate(316.3984,233.1777)"><path
             d="m 0,0 c 7.867,-17.799 -1.143,-38.461 -1.143,-38.461 -6.781,1.286 -13.023,3.616 -17.366,9.621 0,0 -1.641,3.789 8.355,21.017 C -3.315,2.581 -3.411,2.299 0,0"
             style="fill:#2a2e33;fill-opacity:1;fill-rule:nonzero;stroke:none"
             id="path160"
             inkscape:connector-curvature="0" /></g><g
           id="g162"
           transform="translate(322.4492,228.3535)"><path
             d="M 0,0 C -0.054,-0.465 7.948,-6.77 7.948,-6.77 L 8.411,1.795 -2.827,6.13 Z"
             style="fill:#6b2f1f;fill-opacity:1;fill-rule:nonzero;stroke:none"
             id="path164"
             inkscape:connector-curvature="0" /></g><g
           id="g166"
           transform="translate(337.4482,247.6416)"><path
             d="m 0,0 c -0.004,-0.001 2.706,-16.764 2.706,-16.764 l -9.276,0.689 V 3.167 c 0,0 7.076,-3.04 6.57,-3.167"
             style="fill:#151719;fill-opacity:1;fill-rule:nonzero;stroke:none"
             id="path168"
             inkscape:connector-curvature="0" /></g><g
           id="g170"
           transform="translate(336.2383,249.1348)"><path
             d="m 0,0 c 2.258,-8.083 2.464,-20.469 -9.416,-19.362 -11.643,2.023 -16.89,10.548 -16.89,10.548 0,0 3.294,17.21 8.712,18.724 C -9.511,12.168 -2.258,8.083 0,0"
             style="fill:#773823;fill-opacity:1;fill-rule:nonzero;stroke:none"
             id="path172"
             inkscape:connector-curvature="0" /></g><g
           id="g174"
           transform="translate(316.0283,234.874)"><path
             d="M 0,0 C -0.862,1.839 -0.52,3.817 0.765,4.42 2.049,5.022 3.789,4.021 4.651,2.182 5.514,0.344 5.171,-1.635 3.887,-2.237 2.602,-2.84 0.861,-1.838 0,0"
             style="fill:#773823;fill-opacity:1;fill-rule:nonzero;stroke:none"
             id="path176"
             inkscape:connector-curvature="0" /></g><g
           id="g178"
           transform="translate(331.4502,237.3232)"><path
             d="M 0,0 C 0.304,0.086 3.038,0.781 3.038,0.781 L 0.557,6.368 -1.053,5.884 Z"
             style="fill:#964833;fill-opacity:1;fill-rule:nonzero;stroke:none"
             id="path180"
             inkscape:connector-curvature="0" /></g><g
           id="g182"
           transform="translate(329.3584,240.832)"><path
             d="M 0,0 C 0,0 -2.154,1.109 -3.855,0.87 -5.556,0.631 -6.059,-0.649 -6.059,-0.649"
             style="fill:none;stroke:#151719;stroke-width:1;stroke-linecap:butt;stroke-linejoin:miter;stroke-miterlimit:10;stroke-dasharray:none;stroke-opacity:1"
             id="path184"
             inkscape:connector-curvature="0" /></g><g
           id="g186"
           transform="translate(336.9268,244.2178)"><path
             d="M 0,0 C 0,0 -1.542,0.479 -2.345,-0.177 -3.146,-0.832 -2.934,-2.146 -2.934,-2.146"
             style="fill:none;stroke:#151719;stroke-width:1;stroke-linecap:butt;stroke-linejoin:miter;stroke-miterlimit:10;stroke-dasharray:none;stroke-opacity:1"
             id="path188"
             inkscape:connector-curvature="0" /></g><g
           id="g190"
           transform="translate(330.8779,234.1826)"><path
             d="M 0,0 C 0,0 1.673,1.649 2.869,2.038 4.066,2.427 4.544,1.331 4.544,1.331 Z"
             style="fill:#ce2020;fill-opacity:1;fill-rule:nonzero;stroke:none"
             id="path192"
             inkscape:connector-curvature="0" /></g><g
           id="g194"
           transform="translate(330.8779,234.1826)"><path
             d="M 0,0 C 0,0 1.401,-1.314 3.14,-0.647 4.877,0.02 4.544,1.331 4.544,1.331 Z"
             style="fill:#ef2e2e;fill-opacity:1;fill-rule:nonzero;stroke:none"
             id="path196"
             inkscape:connector-curvature="0" /></g><g
           id="g198"
           transform="translate(322.9736,248.5811)"><path
             d="m 0,0 c -1.033,-1.775 -0.545,-22.346 -0.545,-22.346 l -16.582,10.242 c 0,0 -1.85,21.683 13.813,23.039 15.662,1.356 18.56,-11.721 18.56,-11.721 L -1.569,-4.137"
             style="fill:#151719;fill-opacity:1;fill-rule:nonzero;stroke:none"
             id="path200"
             inkscape:connector-curvature="0" /></g><g
           id="g202"
           transform="translate(319.6182,111.5176)"><path
             d="M 0,0 C 0,0 5.867,-2.2 7.616,0.967 9.364,4.134 6.286,1.825 1.074,1.955 -4.139,2.085 0,0 0,0"
             style="fill:#2a2e33;fill-opacity:1;fill-rule:nonzero;stroke:none"
             id="path204"
             inkscape:connector-curvature="0" /></g><g
           id="g206"
           transform="translate(287.4102,150.6426)"><path
             d="m 0,0 c 0,0 -3.485,-5.207 -0.804,-7.635 2.682,-2.428 1.141,1.098 2.462,6.141 C 2.979,3.55 0,0 0,0"
             style="fill:#2a2e33;fill-opacity:1;fill-rule:nonzero;stroke:none"
             id="path208"
             inkscape:connector-curvature="0" /></g><g
           id="g210"
           transform="translate(301.1641,277.0288)"><path
             d="M 0,0 C 0,0 7.667,-42.015 13.633,-46.149 19.6,-50.282 15.048,-70.603 2.293,-58.492 -10.462,-46.38 -4.102,-4.838 -4.102,-4.838 Z"
             style="fill:#2a2e33;fill-opacity:1;fill-rule:nonzero;stroke:none"
             id="path212"
             inkscape:connector-curvature="0" /></g><g
           id="g214"
           transform="translate(150.0439,167.4268)"><path
             d="m 0,0 c 0,0 1.008,3.633 -3.375,4.902 -4.384,1.271 -12.613,-13.341 -11.854,-14.804 0.758,-1.463 7.898,-0.181 10.096,1.394 C -2.934,-6.932 0,0 0,0"
             style="fill:#212428;fill-opacity:1;fill-rule:nonzero;stroke:none"
             id="path216"
             inkscape:connector-curvature="0" /></g><g
           id="g218"
           transform="translate(183.7754,102.1631)"><path
             d="M 0,0 C 0,0 13.332,-7.367 14.713,-6.108 16.094,-4.85 10.909,4.481 10.909,4.481 Z"
             style="fill:#212428;fill-opacity:1;fill-rule:nonzero;stroke:none"
             id="path220"
             inkscape:connector-curvature="0" /></g><g
           id="g222"
           transform="translate(145.7529,139.2002)"><path
             d="m 0,0 -2.978,25.244 c 0,0 0.024,5.879 5.478,4.604 C 7.953,28.572 9.559,13.639 9.559,13.639 L 5.494,-1.55 Z"
             style="fill:#373d44;fill-opacity:1;fill-rule:nonzero;stroke:none"
             id="path224"
             inkscape:connector-curvature="0" /></g><g
           id="g226"
           transform="translate(158.1982,165.8223)"><path
             d="m 0,0 c 0,0 -19.846,-24.691 -9.416,-32.253 10.431,-7.561 31.336,18.865 31.336,18.865 0,0 -3.352,-25.445 -1.917,-38.098 1.435,-12.653 2.557,-13.425 7.914,-11.202 5.358,2.223 8.569,3.51 8.569,3.51 0,0 -0.408,31.181 1.806,40.679 2.212,9.497 4.274,27.566 4.274,27.566 L 7.44,11.071 Z"
             style="fill:#373d44;fill-opacity:1;fill-rule:nonzero;stroke:none"
             id="path228"
             inkscape:connector-curvature="0" /></g><g
           id="g230"
           transform="translate(194.7129,223.5186)"><path
             d="M 0,0 19.589,34.484 24.743,30.724 9.335,-15.534 13.583,-65.563 2.461,-66.879 -5.111,-5.102 Z"
             style="fill:#212428;fill-opacity:1;fill-rule:nonzero;stroke:none"
             id="path232"
             inkscape:connector-curvature="0" /></g><g
           id="g234"
           transform="translate(169.6675,170.2266)"><path
             d="m 0,0 c 0,0 13.661,-7.904 22.569,-3.115 8.909,4.789 9.819,19.341 7.33,28.014 -2.49,8.674 -6.197,21.434 -6.197,21.434 L 6.828,44.877 Z"
             style="fill:#e4edec;fill-opacity:1;fill-rule:nonzero;stroke:none"
             id="path236"
             inkscape:connector-curvature="0" /></g><g
           id="g238"
           transform="translate(186.1157,209.6025)"><path
             d="M 0,0 2.291,-3.988 5.078,-3.498 6.08,2.349 -1.498,0.841 Z"
             style="fill:#373d44;fill-opacity:1;fill-rule:nonzero;stroke:none"
             id="path240"
             inkscape:connector-curvature="0" /></g><g
           id="g242"
           transform="translate(198.5977,221.2783)"><path
             d="m 0,0 c -0.18,-0.361 -1.424,-11.206 -1.424,-11.206 l 3.096,-0.612 v -17.461 l -6.9,24.56 z"
             style="fill:#2a2e33;fill-opacity:1;fill-rule:nonzero;stroke:none"
             id="path244"
             inkscape:connector-curvature="0" /></g><g
           id="g246"
           transform="translate(175.9731,216.5029)"><path
             d="m 0,0 -31.965,25.389 -4.579,-3.815 25.98,-33.877 -17.376,-38.378 c 0,0 14.305,-11.77 17.103,-10.877 2.797,0.894 12.196,30.433 13.065,32.744 C 3.097,-26.505 7.122,-18.506 0,0"
             style="fill:#2a2e33;fill-opacity:1;fill-rule:nonzero;stroke:none"
             id="path248"
             inkscape:connector-curvature="0" /></g><g
           id="g250"
           transform="translate(173.3755,218.5654)"><path
             d="m 0,0 3.952,-13.383 -4.988,-2.278 c 0,0 4.845,-18.208 4.988,-17.78 0.143,0.426 6.139,18.198 5.142,28.419 C 8.097,5.198 0,0 0,0"
             style="fill:#373d44;fill-opacity:1;fill-rule:nonzero;stroke:none"
             id="path252"
             inkscape:connector-curvature="0" /></g><g
           id="g254"
           transform="translate(182.7236,212.7441)"><path
             d="m 0,0 -1.708,-5.797 8.819,4.591 7.339,-0.311 -3.475,4.2 z"
             style="fill:#ffffff;fill-opacity:1;fill-rule:nonzero;stroke:none"
             id="path256"
             inkscape:connector-curvature="0" /></g><g
           id="g258"
           transform="translate(182.7236,212.7441)"><path
             d="m 0,0 c 0,0 3.924,-2.341 7.111,-1.206 3.188,1.135 3.864,3.889 3.864,3.889 z"
             style="fill:#993e2c;fill-opacity:1;fill-rule:nonzero;stroke:none"
             id="path260"
             inkscape:connector-curvature="0" /></g><g
           id="g262"
           transform="translate(200.0605,227.7871)"><path
             d="m 0,0 c 0,-8.393 -4.968,-15.196 -13.361,-15.196 -8.392,0 -17.032,6.803 -17.032,15.196 0,8.393 6.804,15.196 15.196,15.196 C -6.804,15.196 0,8.393 0,0"
             style="fill:#a94931;fill-opacity:1;fill-rule:nonzero;stroke:none"
             id="path264"
             inkscape:connector-curvature="0" /></g><g
           id="g266"
           transform="translate(188.4067,205.6143)"><path
             d="m 0,0 -0.168,-20.498 5.131,-2.478 2.448,4.183 L 2.787,0.49 Z"
             style="fill:#373d44;fill-opacity:1;fill-rule:nonzero;stroke:none"
             id="path268"
             inkscape:connector-curvature="0" /></g><g
           id="g270"
           transform="translate(190.7012,221.6299)"><path
             d="M 0,0 C 0.306,0.076 3.06,0.69 3.06,0.69 L 0.745,6.349 -0.878,5.911 Z"
             style="fill:#993e2c;fill-opacity:1;fill-rule:nonzero;stroke:none"
             id="path272"
             inkscape:connector-curvature="0" /></g><g
           id="g274"
           transform="translate(187.5425,225.8271)"><path
             d="M 0,0 C -2.002,2.045 -4.004,1.704 -6.006,-1.023"
             style="fill:none;stroke:#2a2e33;stroke-width:1;stroke-linecap:butt;stroke-linejoin:miter;stroke-miterlimit:10;stroke-dasharray:none;stroke-opacity:1"
             id="path276"
             inkscape:connector-curvature="0" /></g><g
           id="g278"
           transform="translate(197.6675,228.4727)"><path
             d="M 0,0 C 0,0 -1.288,0.974 -2.265,0.629 -3.242,0.285 -3.487,-1.024 -3.487,-1.024"
             style="fill:none;stroke:#2a2e33;stroke-width:1;stroke-linecap:butt;stroke-linejoin:miter;stroke-miterlimit:10;stroke-dasharray:none;stroke-opacity:1"
             id="path280"
             inkscape:connector-curvature="0" /></g><g
           id="g282"
           transform="translate(190.5112,218.5068)"><path
             d="M 0,0 C 0,0 1.533,1.235 2.564,1.459 3.595,1.683 3.901,0.729 3.901,0.729 Z"
             style="fill:#893527;fill-opacity:1;fill-rule:nonzero;stroke:none"
             id="path284"
             inkscape:connector-curvature="0" /></g><g
           id="g286"
           transform="translate(190.5112,218.5068)"><path
             d="m 0,0 c 0,0 1.059,-1.214 2.564,-0.803 1.505,0.41 1.337,1.532 1.337,1.532 z"
             style="fill:#993e2c;fill-opacity:1;fill-rule:nonzero;stroke:none"
             id="path288"
             inkscape:connector-curvature="0" /></g><g
           id="g290"
           transform="translate(174.875,222.6162)"><path
             d="m 0,0 c 0.057,-0.286 2.123,-4.172 2.123,-4.172 l 2.341,1.763 -3.202,4.36 c 0,0 1.95,2.237 1.893,4.475 -0.057,2.237 -0.675,4.818 7.178,6.368 7.853,1.549 11.167,2.51 11.966,1.289 0.798,-1.222 2.773,2.669 -0.355,4.16 C 18.817,19.735 11.452,20.604 9.292,20.352 7.132,20.098 -0.976,19.735 -5.45,10.785 -9.925,1.836 0.438,-5.806 0.438,-5.806 Z"
             style="fill:#212428;fill-opacity:1;fill-rule:nonzero;stroke:none"
             id="path292"
             inkscape:connector-curvature="0" /></g><g
           id="g294"
           transform="translate(171.8057,220.8535)"><path
             d="M 0,0 C -0.336,2.003 0.526,3.816 1.926,4.051 3.325,4.285 3.231,0.85 3.231,0.85 c 0,0 1.31,-3.817 -0.089,-4.051 C 1.742,-3.436 0.335,-2.003 0,0"
             style="fill:#a94931;fill-opacity:1;fill-rule:nonzero;stroke:none"
             id="path296"
             inkscape:connector-curvature="0" /></g><g
           id="g298"
           transform="translate(207.1665,89.5215)"><path
             d="M 0,0 C 0,0 -2.617,-5.694 0.417,-7.666 3.449,-9.639 1.369,-6.401 1.874,-1.212 2.378,3.978 0,0 0,0"
             style="fill:#2a2e33;fill-opacity:1;fill-rule:nonzero;stroke:none"
             id="path300"
             inkscape:connector-curvature="0" /></g><g
           id="g302"
           transform="translate(208.6113,99.0186)"><path
             d="M 0,0 -1.445,-9.497 0.429,-10.709 7.971,0 Z"
             style="fill:#f5c8a7;fill-opacity:1;fill-rule:nonzero;stroke:none"
             id="path304"
             inkscape:connector-curvature="0" /></g><g
           id="g306"
           transform="translate(188.1499,137.6367)"><path
             d="m 0,0 c 0,0 -3.486,-5.206 -0.805,-7.635 2.682,-2.428 1.141,1.098 2.462,6.142 C 2.979,3.551 0,0 0,0"
             style="fill:#2a2e33;fill-opacity:1;fill-rule:nonzero;stroke:none"
             id="path308"
             inkscape:connector-curvature="0" /></g><g
           id="g310"
           transform="translate(199.8242,138.0723)"><path
             d="M 0,0 -9.563,0.912 -10.668,-1.025 0.445,-7.958 Z"
             style="fill:#f5c8a7;fill-opacity:1;fill-rule:nonzero;stroke:none"
             id="path312"
             inkscape:connector-curvature="0" /></g><g
           id="g314"
           transform="translate(230.209,171.0195)"><path
             d="m 0,0 c 0,0 0.681,-14.595 -1.578,-23.951 -2.258,-9.358 -16.411,-19.354 -25.551,-18.028 -9.14,1.327 -6.59,1.437 -6.59,1.437 0,0 -2.281,5.897 1.562,8.555 3.844,2.656 10.881,-0.993 13.176,0.831 2.294,1.825 2.442,28.319 2.442,28.319 z"
             style="fill:#212428;fill-opacity:1;fill-rule:nonzero;stroke:none"
             id="path316"
             inkscape:connector-curvature="0" /></g><g
           id="g318"
           transform="translate(204.2593,167.5215)"><path
             d="m 0,0 c 0,0 -3.997,-4.979 -3.141,-16.414 0.855,-11.436 11.639,-33.132 11.639,-33.132 0,0 -3.723,-12.848 -4.462,-16.444 -0.739,-3.596 3.85,-7.268 8.287,-4.514 4.436,2.753 13.156,12.697 11.932,20.958 -1.224,8.262 -8.264,27.594 -7.345,31.619 0.92,4.027 0.614,19.158 0.614,19.158 z"
             style="fill:#2a2e33;fill-opacity:1;fill-rule:nonzero;stroke:none"
             id="path320"
             inkscape:connector-curvature="0" /></g><g
           id="g322"
           transform="translate(224.6899,221.6982)"><path
             d="m 0,0 12.165,29.406 h 4.631 c 0,0 0.343,-27.444 -4.631,-46.4 C 7.19,-35.951 5.028,-35.969 5.028,-35.969 Z"
             style="fill:#e4edec;fill-opacity:1;fill-rule:nonzero;stroke:none"
             id="path324"
             inkscape:connector-curvature="0" /></g><g
           id="g326"
           transform="translate(221.1694,149.5947)"><path
             d="m 0,0 c 0,0 8.956,6.893 9.045,11.201 0.089,4.308 0,10.877 0,10.877 L -4.587,20.632 -3.646,4.104 Z"
             style="fill:#2a2e33;fill-opacity:1;fill-rule:nonzero;stroke:none"
             id="path328"
             inkscape:connector-curvature="0" /></g><g
           id="g330"
           transform="translate(211.9927,199.4629)"><path
             d="m 0,0 c -0.465,-0.415 -13.962,-10.504 -21.737,-22.569 -7.775,-12.066 -10.916,-22.827 -10.916,-22.827 l 4.723,-1.632 22.925,26.124 c 0,0 -5.001,-5.905 -4.129,-9.149 0.873,-3.244 9.287,-6.61 21.831,-1.715 12.545,4.896 10.969,16.247 4.796,32.908 C 11.32,17.799 0,0 0,0"
             style="fill:#ffffff;fill-opacity:1;fill-rule:nonzero;stroke:none"
             id="path332"
             inkscape:connector-curvature="0" /></g><g
           id="g334"
           transform="translate(233.7344,212.9316)"><path
             d="m 0,0 c 0,-8.393 -3.134,-20.376 -14.278,-16.114 -10.447,2.239 -15.197,6.803 -15.197,15.196 0,8.394 6.804,15.197 15.197,15.197 C -5.886,14.279 0,8.393 0,0"
             style="fill:#f5c8a7;fill-opacity:1;fill-rule:nonzero;stroke:none"
             id="path336"
             inkscape:connector-curvature="0" /></g><g
           id="g338"
           transform="translate(214.8145,205.6143)"><path
             d="m 0,0 2.532,7.713 c 0,0 7.343,-1.523 12.239,0.182 4.896,1.703 4.031,4.019 4.031,4.019 0,0 -3.725,11.283 -17.034,9.41 -13.31,-1.874 -12.232,-12.747 -12.323,-16.56 0,-9.293 7.432,-11.162 7.432,-11.162 z"
             style="fill:#2a2e33;fill-opacity:1;fill-rule:nonzero;stroke:none"
             id="path340"
             inkscape:connector-curvature="0" /></g><g
           id="g342"
           transform="translate(210.4326,204.6357)"><path
             d="M 0,0 C -0.336,2.002 0.526,3.815 1.926,4.051 3.325,4.285 4.731,2.852 5.067,0.849 5.403,-1.153 4.541,-2.967 3.141,-3.202 1.742,-3.437 0.335,-2.003 0,0"
             style="fill:#f5c8a7;fill-opacity:1;fill-rule:nonzero;stroke:none"
             id="path344"
             inkscape:connector-curvature="0" /></g><g
           id="g346"
           transform="translate(216.582,226.2969)"><path
             d="m 0,0 c 0,-3.925 -3.181,-7.105 -7.105,-7.105 -3.924,0 -7.105,3.18 -7.105,7.105 0,3.924 3.181,7.104 7.105,7.104 C -3.181,7.104 0,3.924 0,0"
             style="fill:#2a2e33;fill-opacity:1;fill-rule:nonzero;stroke:none"
             id="path348"
             inkscape:connector-curvature="0" /></g><g
           id="g350"
           transform="translate(227.54,201.8105)"><path
             d="M 0,0 C 0.306,0.077 3.06,0.691 3.06,0.691 L 0.745,6.349 -0.877,5.912 Z"
             style="fill:#eda78c;fill-opacity:1;fill-rule:nonzero;stroke:none"
             id="path352"
             inkscape:connector-curvature="0" /></g><g
           id="g354"
           transform="translate(218.9673,205.6143)"><path
             d="m 0,0 c 0,0 2.218,-0.974 3.901,-0.629 1.683,0.344 2.105,1.653 2.105,1.653"
             style="fill:none;stroke:#2a2e33;stroke-width:1;stroke-linecap:butt;stroke-linejoin:miter;stroke-miterlimit:10;stroke-dasharray:none;stroke-opacity:1"
             id="path356"
             inkscape:connector-curvature="0" /></g><g
           id="g358"
           transform="translate(229.6035,207.5625)"><path
             d="m 0,0 c 0,0 1.288,-0.974 2.265,-0.63 0.977,0.344 1.222,1.653 1.222,1.653"
             style="fill:none;stroke:#2a2e33;stroke-width:1;stroke-linecap:butt;stroke-linejoin:miter;stroke-miterlimit:10;stroke-dasharray:none;stroke-opacity:1"
             id="path360"
             inkscape:connector-curvature="0" /></g><g
           id="g362"
           transform="translate(226.0669,199.5928)"><path
             d="M 0,0 C 0,0 1.533,1.234 2.564,1.459 3.595,1.683 3.901,0.729 3.901,0.729 Z"
             style="fill:#ce2020;fill-opacity:1;fill-rule:nonzero;stroke:none"
             id="path364"
             inkscape:connector-curvature="0" /></g><g
           id="g366"
           transform="translate(226.0669,199.5928)"><path
             d="m 0,0 c 0,0 1.059,-1.214 2.564,-0.804 1.505,0.411 1.337,1.533 1.337,1.533 z"
             style="fill:#ef2e2e;fill-opacity:1;fill-rule:nonzero;stroke:none"
             id="path368"
             inkscape:connector-curvature="0" /></g><g
           id="g370"
           transform="translate(303.6934,278.0513)"><path
             d="m 0,0 c 0,-0.399 -0.019,-0.799 -0.055,-1.19 -1.193,-13.045 -21.911,-23.44 -47.291,-23.44 -9.399,0 -18.165,1.427 -25.535,3.889 -12.768,4.264 -21.35,11.634 -21.791,20.056 v 0.049 c -0.009,0.212 -0.018,0.424 -0.018,0.636 0,0.212 0.009,0.424 0.018,0.636 0.119,2.535 0.982,4.981 2.478,7.272 0.854,1.313 1.919,2.576 3.176,3.775 7.995,7.705 23.664,12.939 41.672,12.939 20.837,0 38.525,-6.996 44.849,-16.714 C -0.872,5.421 0,2.764 0,0"
             style="fill:#7e93fc;fill-opacity:1;fill-rule:nonzero;stroke:none"
             id="path372"
             inkscape:connector-curvature="0" /></g><g
           id="g374"
           transform="translate(303.6934,285.9595)"><path
             d="m 0,0 v -9.099 h -0.055 l -80.537,0.432 -14.08,0.074 V 0 Z"
             style="fill:#7e93fc;fill-opacity:1;fill-rule:nonzero;stroke:none"
             id="path376"
             inkscape:connector-curvature="0" /></g><g
           id="g378"
           transform="translate(230.812,265.9116)"><path
             d="m 0,0 v -8.602 c -12.768,4.265 -21.35,11.635 -21.791,20.057 v 0.048 c -0.009,0.213 -0.018,0.425 -0.018,0.637 0,0.212 0.009,0.423 0.018,0.635 v 7.273 h 2.479 c 0.853,1.312 1.918,2.576 3.175,3.775 l 2.552,-3.775 5.875,-8.667 z"
             style="fill:#607bc6;fill-opacity:1;fill-rule:nonzero;stroke:none"
             id="path380"
             inkscape:connector-curvature="0" /></g><g
           id="g382"
           transform="translate(303.6934,286.6445)"><path
             d="m 0,0 c 0,-13.599 -21.194,-24.622 -47.346,-24.622 -9.399,0 -18.165,1.427 -25.535,3.889 -13.117,4.37 -21.809,12.025 -21.809,20.733 0,2.739 0.862,5.381 2.45,7.843 6.297,9.751 24.022,16.779 44.894,16.779 C -21.194,24.622 0,13.599 0,0"
             style="fill:#ffffff;fill-opacity:1;fill-rule:nonzero;stroke:none"
             id="path384"
             inkscape:connector-curvature="0" /></g><g
           id="g386"><g
             id="g388" /><g
             id="g400"><g
               clip-path="url(#clipPath392)"
               id="g398"
               style="opacity:0.22999603"><g
                 transform="translate(280.3145,281.4019)"
                 id="g396"><path
                   d="m 0,0 c 0,-8.609 -19.982,-15.588 -44.628,-15.588 -1.653,0 -3.277,0.032 -4.874,0.098 -13.117,4.369 -21.81,12.025 -21.81,20.733 0,2.739 0.863,5.381 2.451,7.842 6.976,1.59 15.301,2.503 24.233,2.503 C -19.982,15.588 0,8.61 0,0"
                   style="fill:#abc0ef;fill-opacity:1;fill-rule:nonzero;stroke:none"
                   id="path394"
                   inkscape:connector-curvature="0" /></g></g></g></g><g
           id="g402"
           transform="translate(275.6582,294.4155)"><path
             d="m 0,0 c 0,-9.394 -4.602,-16.091 -17.009,-16.091 -12.408,0 -17.009,6.697 -17.009,16.091 0,9.394 7.616,17.009 17.009,17.009 C -7.615,17.009 0,9.394 0,0"
             style="fill:#abc0ef;fill-opacity:1;fill-rule:nonzero;stroke:none"
             id="path404"
             inkscape:connector-curvature="0" /></g><g
           id="g406"
           transform="translate(286.7393,337.2729)"><path
             d="m 0,0 c -5.177,-5.553 -4.901,-17.385 -4.828,-26.316 0.01,-0.753 0.01,-1.487 0.01,-2.194 0,-9.078 0.697,-25.829 -23.673,-25.829 -24.361,0 -22.287,20.735 -22.287,29.033 0,0.927 0,1.881 0.009,2.836 0.028,7.563 -0.018,15.659 -2.854,19.79 l 29.455,20.57 C -24.168,17.89 5.618,6.012 0,0"
             style="fill:#f1c21e;fill-opacity:1;fill-rule:nonzero;stroke:none"
             id="path408"
             inkscape:connector-curvature="0" /></g><g
           id="g410"
           transform="translate(235.9707,314.8027)"><path
             d="m 0,0 c 0.027,7.563 -0.019,15.66 -2.854,19.79 0,0 12.281,-8.986 23.241,-8.068 C 30.915,12.603 11.327,-1.716 0,0"
             style="fill:#db9d16;fill-opacity:1;fill-rule:nonzero;stroke:none"
             id="path412"
             inkscape:connector-curvature="0" /></g><g
           id="g414"
           transform="translate(301.2754,369.5039)"><path
             d="m 0,0 c 0,-23.762 -19.263,-43.025 -43.024,-43.025 -23.763,0 -43.026,19.263 -43.026,43.025 0,23.762 19.263,43.025 43.026,43.025 C -19.263,43.025 0,23.762 0,0"
             style="fill:#f1c21e;fill-opacity:1;fill-rule:nonzero;stroke:none"
             id="path416"
             inkscape:connector-curvature="0" /></g><g
           id="g418"
           transform="translate(281.6357,300.8232)"><path
             d="m 0,0 c -0.146,-1.331 -0.376,-2.68 -0.725,-4.011 -1.89,-7.206 -7.279,-13.879 -22.663,-13.879 -13.86,0 -19.156,6.701 -21.157,14.016 -0.368,1.332 -0.624,2.69 -0.799,4.03 -0.551,4.222 -0.33,8.27 -0.33,10.988 14.769,-4.811 30.079,-5.15 45.949,-1.01 C 0.285,9.381 0.285,8.646 0.285,7.94 0.285,5.654 0.331,2.873 0,0"
             style="fill:#d0ddff;fill-opacity:1;fill-rule:nonzero;stroke:none"
             id="path420"
             inkscape:connector-curvature="0" /></g><g
           id="g422"
           transform="translate(281.6357,300.8232)"><path
             d="m 0,0 c -0.146,-1.331 -0.376,-2.68 -0.725,-4.011 -7.114,-1.882 -14.31,-2.827 -21.543,-2.827 -7.398,0 -14.833,0.982 -22.277,2.964 -0.368,1.332 -0.624,2.69 -0.799,4.03 C -30.098,-4.222 -14.879,-4.268 0,0"
             style="fill:#abc0ef;fill-opacity:1;fill-rule:nonzero;stroke:none"
             id="path424"
             inkscape:connector-curvature="0" /></g><g
           id="g426"><g
             id="g428" /><g
             id="g440"><g
               clip-path="url(#clipPath432)"
               id="g438"
               style="opacity:0.39999402"><g
                 transform="translate(291.3828,388.5664)"
                 id="g436"><path
                   d="m 0,0 c 4.089,-11.745 -1.274,-24.288 -11.979,-28.015 -10.705,-3.727 -22.698,2.774 -26.787,14.519 -4.089,11.746 1.275,24.288 11.979,28.015 C -16.082,18.246 -4.089,11.746 0,0"
                   style="fill:#fff931;fill-opacity:1;fill-rule:nonzero;stroke:none"
                   id="path434"
                   inkscape:connector-curvature="0" /></g></g></g></g><g
           id="g442"><g
             id="g444" /><g
             id="g456"><g
               clip-path="url(#clipPath448)"
               id="g454"
               style="opacity:0.44999701"><g
                 transform="translate(283.708,385.8945)"
                 id="g452"><path
                   d="m 0,0 c 2.47,-7.095 -0.77,-14.671 -7.236,-16.922 -6.466,-2.251 -13.71,1.675 -16.18,8.77 -2.47,7.094 0.77,14.671 7.235,16.922 C -9.714,11.021 -2.47,7.095 0,0"
                   style="fill:#fffdbb;fill-opacity:1;fill-rule:nonzero;stroke:none"
                   id="path450"
                   inkscape:connector-curvature="0" /></g></g></g></g><g
           id="g458"
           transform="translate(236.8545,251.9038)"><path
             d="m 0,0 c -0.262,0.632 -6.167,6.099 -6.167,6.099 l 1.656,6.378 c 1.964,1.547 3.844,1.415 5.6,-1.279 V 3.414 L 4.632,-0.8 H 0 Z"
             style="fill:#f5c8a7;fill-opacity:1;fill-rule:nonzero;stroke:none"
             id="path460"
             inkscape:connector-curvature="0" /></g><g
           id="g462"
           transform="translate(241.4863,251.104)"><path
             d="m 0,0 0.797,3.641 -4.34,0.955 c 0,0 -0.708,-1.416 -0.632,-1.645 0.076,-0.23 1.453,-1.913 1.453,-1.913 z"
             style="fill:#f5c8a7;fill-opacity:1;fill-rule:nonzero;stroke:none"
             id="path464"
             inkscape:connector-curvature="0" /></g><g
           id="g466"
           transform="translate(215.1118,257.4116)"><path
             d="m 0,0 1.814,3.642 -0.57,5.632 c 0,0 3.668,5.497 5.619,3.432 1.95,-2.065 0,-7.78 0,-7.78 L 5.715,1.691 3.428,-2.501 Z"
             style="fill:#a94931;fill-opacity:1;fill-rule:nonzero;stroke:none"
             id="path468"
             inkscape:connector-curvature="0" /></g><g
           id="g470"
           transform="translate(219.4561,258.8735)"><path
             d="M 0,0 4.8,2.114 2.519,3.464 Z"
             style="fill:#a94931;fill-opacity:1;fill-rule:nonzero;stroke:none"
             id="path472"
             inkscape:connector-curvature="0" /></g><g
           id="g474"
           transform="translate(144.0078,241.8916)"><path
             d="m 0,0 -2.541,3.061 c 0,0 2.142,8.638 0.765,8.449 -1.377,-0.188 -2.803,-3.86 -2.803,-3.86 l -4.846,5.369 c 0,0 -5.201,-0.867 -3.825,-3.807 1.377,-2.939 9.945,-11.965 9.945,-11.965 z"
             style="fill:#a94931;fill-opacity:1;fill-rule:nonzero;stroke:none"
             id="path476"
             inkscape:connector-curvature="0" /></g><g
           id="g478"
           transform="translate(179.4731,154.374)"><path
             d="m 0,0 -2.029,-8.948 c 2.161,-2.18 4.639,-1.876 7.413,0.749 l -0.392,5.837 c 0,0 2.927,-2.354 3.234,-1.662 C 8.534,-3.332 4.927,0.84 4.927,0.84 Z"
             style="fill:#f5c8a7;fill-opacity:1;fill-rule:nonzero;stroke:none"
             id="path480"
             inkscape:connector-curvature="0" /></g></g></g></g></svg>