<?xml version="1.0" encoding="UTF-8" standalone="no"?>
<!-- Created with Inkscape (http://www.inkscape.org/) -->

<svg
   xmlns:dc="http://purl.org/dc/elements/1.1/"
   xmlns:cc="http://creativecommons.org/ns#"
   xmlns:rdf="http://www.w3.org/1999/02/22-rdf-syntax-ns#"
   xmlns:svg="http://www.w3.org/2000/svg"
   xmlns="http://www.w3.org/2000/svg"
   xmlns:sodipodi="http://sodipodi.sourceforge.net/DTD/sodipodi-0.dtd"
   xmlns:inkscape="http://www.inkscape.org/namespaces/inkscape"
   version="1.1"
   id="svg2"
   xml:space="preserve"
   width="666.66663"
   height="470.33896"
   viewBox="0 0 666.66663 470.33896"
   sodipodi:docname="teamWork2.svg"
   inkscape:version="0.92.3 (unknown)"><metadata
     id="metadata8"><rdf:RDF><cc:Work
         rdf:about=""><dc:format>image/svg+xml</dc:format><dc:type
           rdf:resource="http://purl.org/dc/dcmitype/StillImage" /><dc:title></dc:title></cc:Work></rdf:RDF></metadata><defs
     id="defs6"><clipPath
       clipPathUnits="userSpaceOnUse"
       id="clipPath20"><path
         d="M 0,500 H 500 V 0 H 0 Z"
         id="path18"
         inkscape:connector-curvature="0" /></clipPath><clipPath
       clipPathUnits="userSpaceOnUse"
       id="clipPath28"><path
         d="m 213.655,384.527 h 95.334 v -95.334 h -95.334 z"
         id="path26"
         inkscape:connector-curvature="0" /></clipPath><clipPath
       clipPathUnits="userSpaceOnUse"
       id="clipPath44"><path
         d="m 231.87,366.312 h 58.904 V 307.408 H 231.87 Z"
         id="path42"
         inkscape:connector-curvature="0" /></clipPath><clipPath
       clipPathUnits="userSpaceOnUse"
       id="clipPath88"><path
         d="m 208.063,87.4034 h 80.656 v -8.2389 h -80.656 z"
         id="path86"
         inkscape:connector-curvature="0" /></clipPath><clipPath
       clipPathUnits="userSpaceOnUse"
       id="clipPath104"><path
         d="M 85.5882,90.4696 H 168.451 V 77.9411 H 85.5882 Z"
         id="path102"
         inkscape:connector-curvature="0" /></clipPath><clipPath
       clipPathUnits="userSpaceOnUse"
       id="clipPath120"><path
         d="m 316.401,90.4696 h 87.254 V 77.9411 h -87.254 z"
         id="path118"
         inkscape:connector-curvature="0" /></clipPath><clipPath
       clipPathUnits="userSpaceOnUse"
       id="clipPath168"><path
         d="m 247.854,211.762 h 11.419 v -24.663 h -11.419 z"
         id="path166"
         inkscape:connector-curvature="0" /></clipPath><clipPath
       clipPathUnits="userSpaceOnUse"
       id="clipPath188"><path
         d="m 268.2,169.11 h 23.275 v -8.613 H 268.2 Z"
         id="path186"
         inkscape:connector-curvature="0" /></clipPath><clipPath
       clipPathUnits="userSpaceOnUse"
       id="clipPath232"><path
         d="m 245.457,248.924 h 26.359 v -14.031 h -26.359 z"
         id="path230"
         inkscape:connector-curvature="0" /></clipPath><clipPath
       clipPathUnits="userSpaceOnUse"
       id="clipPath312"><path
         d="m 137.513,212.687 h 11.161 v -17.862 h -11.161 z"
         id="path310"
         inkscape:connector-curvature="0" /></clipPath><clipPath
       clipPathUnits="userSpaceOnUse"
       id="clipPath348"><path
         d="m 158.896,169.11 h 16.734 v -6.175 h -16.734 z"
         id="path346"
         inkscape:connector-curvature="0" /></clipPath><clipPath
       clipPathUnits="userSpaceOnUse"
       id="clipPath504"><path
         d="m 367.31,212.632 h 14.255 V 187.099 H 367.31 Z"
         id="path502"
         inkscape:connector-curvature="0" /></clipPath><clipPath
       clipPathUnits="userSpaceOnUse"
       id="clipPath524"><path
         d="m 368.185,164.803 h 18.547 v -13.625 h -18.547 z"
         id="path522"
         inkscape:connector-curvature="0" /></clipPath><clipPath
       clipPathUnits="userSpaceOnUse"
       id="clipPath608"><path
         d="m 359.376,212.548 h 46.802 v -50.94 h -46.802 z"
         id="path606"
         inkscape:connector-curvature="0" /></clipPath><clipPath
       clipPathUnits="userSpaceOnUse"
       id="clipPath624"><path
         d="M 248.931,212.59 H 289.52 V 161.546 H 248.931 Z"
         id="path622"
         inkscape:connector-curvature="0" /></clipPath><clipPath
       clipPathUnits="userSpaceOnUse"
       id="clipPath640"><path
         d="m 137.127,212.59 h 40.588 v -51.044 h -40.588 z"
         id="path638"
         inkscape:connector-curvature="0" /></clipPath><clipPath
       clipPathUnits="userSpaceOnUse"
       id="clipPath820"><path
         d="m 153.647,450.56 h 200.24 v -43.419 h -200.24 z"
         id="path818"
         inkscape:connector-curvature="0" /></clipPath><clipPath
       clipPathUnits="userSpaceOnUse"
       id="clipPath920"><path
         d="M 0,500 H 500 V 0 H 0 Z"
         id="path918"
         inkscape:connector-curvature="0" /></clipPath></defs><sodipodi:namedview
     pagecolor="#ffffff"
     bordercolor="#666666"
     borderopacity="1"
     objecttolerance="10"
     gridtolerance="10"
     guidetolerance="10"
     inkscape:pageopacity="0"
     inkscape:pageshadow="2"
     inkscape:window-width="1366"
     inkscape:window-height="705"
     id="namedview4"
     showgrid="false"
     inkscape:zoom="0.70799998"
     inkscape:cx="474.78259"
     inkscape:cy="199.418"
     inkscape:window-x="0"
     inkscape:window-y="24"
     inkscape:window-maximized="1"
     inkscape:current-layer="g10" /><g
     id="g10"
     inkscape:groupmode="layer"
     inkscape:label="253074-P4X16X-71"
     transform="matrix(1.3333333,0,0,-1.3333333,0,552.25987)"><path
       d="M 0,61.440681 H 500 V 414.19491 H 0 Z"
       style="fill:#00d8f7;fill-opacity:1;fill-rule:nonzero;stroke:none;stroke-width:0.8399455"
       id="path12"
       inkscape:connector-curvature="0" /><g
       id="g14"><g
         id="g16"
         clip-path="url(#clipPath20)"><g
           id="g22"><g
             id="g24" /><g
             id="g36"><g
               clip-path="url(#clipPath28)"
               id="g34"
               style="opacity:0.19999701"><g
                 transform="translate(213.6548,336.8604)"
                 id="g32"><path
                   d="m 0,0 c 0,-26.326 21.341,-47.667 47.667,-47.667 26.326,0 47.667,21.341 47.667,47.667 0,26.326 -21.341,47.667 -47.667,47.667 C 21.341,47.667 0,26.326 0,0"
                   style="fill:#ffffff;fill-opacity:1;fill-rule:nonzero;stroke:none"
                   id="path30"
                   inkscape:connector-curvature="0" /></g></g></g></g><g
           id="g38"><g
             id="g40" /><g
             id="g52"><g
               clip-path="url(#clipPath44)"
               id="g50"
               style="opacity:0.19999701"><g
                 transform="translate(231.8701,336.8604)"
                 id="g48"><path
                   d="m 0,0 c 0,-16.266 13.186,-29.452 29.452,-29.452 16.266,0 29.451,13.186 29.451,29.452 0,16.266 -13.185,29.452 -29.451,29.452 C 13.186,29.452 0,16.266 0,0"
                   style="fill:#ffffff;fill-opacity:1;fill-rule:nonzero;stroke:none"
                   id="path46"
                   inkscape:connector-curvature="0" /></g></g></g></g><g
           id="g54"
           transform="translate(242.2891,336.8604)"><path
             d="m 0,0 c 0,-10.512 8.521,-19.033 19.033,-19.033 10.511,0 19.032,8.521 19.032,19.033 0,10.511 -8.521,19.033 -19.032,19.033 C 8.521,19.033 0,10.511 0,0"
             style="fill:#8bfbf2;fill-opacity:1;fill-rule:nonzero;stroke:none"
             id="path56"
             inkscape:connector-curvature="0" /></g><g
           id="g58"
           transform="translate(198.3032,284.3579)"><path
             d="m 0,0 c -6.543,0 -12.193,-3.768 -14.938,-9.244 -3.291,12.166 -14.376,21.13 -27.583,21.13 -12.536,0 -23.163,-8.078 -27.026,-19.303 -3,4.472 -8.1,7.417 -13.89,7.417 -8.326,0 -15.231,-6.088 -16.506,-14.055 -0.223,-1.393 0.843,-2.662 2.254,-2.662 h 26.565 4.404 50.003 2.799 27.026 c 2.078,0 3.626,1.948 3.135,3.967 C 14.462,-5.432 7.865,0 0,0"
             style="fill:#f7f8ff;fill-opacity:1;fill-rule:nonzero;stroke:none"
             id="path60"
             inkscape:connector-curvature="0" /></g><g
           id="g62"
           transform="translate(214.5918,271.2671)"><path
             d="m 0,0 c -1.66,7.484 -8.306,13.091 -16.289,13.091 -6.543,0 -12.192,-3.768 -14.938,-9.244 -3.29,12.166 -14.375,21.13 -27.583,21.13 -12.536,0 -23.162,-8.078 -27.025,-19.303 -3.001,4.472 -8.101,7.417 -13.891,7.417 -8.288,0 -15.149,-6.039 -16.469,-13.953 1.687,7.444 8.515,13.039 16.469,13.039 5.79,0 10.89,-2.945 13.891,-7.417 3.863,11.225 14.489,19.302 27.025,19.302 13.208,0 24.293,-8.963 27.583,-21.129 2.746,5.476 8.395,9.244 14.938,9.244 C -8.623,12.177 -1.974,7.042 0,0 0.025,0.039 -0.028,-0.038 0,0"
             style="fill:#ffffff;fill-opacity:1;fill-rule:nonzero;stroke:none"
             id="path64"
             inkscape:connector-curvature="0" /></g><g
           id="g66"
           transform="translate(381.0605,296.479)"><path
             d="m 0,0 c -1.465,0 -2.752,-0.723 -3.552,-1.823 -1.041,2.737 -3.68,4.685 -6.783,4.685 -2.234,0 -4.232,-1.011 -5.564,-2.6 -2.133,9.681 -10.75,16.929 -21.073,16.929 -8.883,0 -16.507,-5.368 -19.821,-13.035 -1.99,1.728 -4.581,2.781 -7.423,2.781 -6.021,0 -10.947,-4.695 -11.314,-10.624 -0.025,-0.386 0.301,-0.713 0.688,-0.713 h 16.279 5.684 35.282 2.216 10.981 1.327 7.083 c 0.211,0 0.391,0.182 0.373,0.392 C 4.185,-1.762 2.298,0 0,0"
             style="fill:#f7f8ff;fill-opacity:1;fill-rule:nonzero;stroke:none"
             id="path68"
             inkscape:connector-curvature="0" /></g><g
           id="g70"
           transform="translate(381.0605,296.479)"><path
             d="m 0,0 c -1.465,0 -2.752,-0.723 -3.553,-1.823 -1.04,2.737 -3.679,4.685 -6.782,4.685 -2.234,0 -4.232,-1.011 -5.564,-2.6 -2.133,9.681 -10.75,16.929 -21.073,16.929 -8.883,0 -16.507,-5.368 -19.821,-13.035 -1.99,1.728 -4.581,2.781 -7.423,2.781 -6.024,0 -10.936,-4.702 -11.302,-10.634 0.114,0.344 0.25,0.669 0.425,0.969 1.139,5.057 5.635,8.84 11.036,8.84 2.842,0 5.433,-1.053 7.423,-2.78 3.314,7.666 10.938,13.035 19.821,13.035 10.323,0 18.94,-7.248 21.073,-16.929 1.332,1.588 3.329,2.6 5.564,2.6 3.102,0 5.742,-1.949 6.782,-4.685 0.8,1.1 2.088,1.823 3.553,1.823 1.993,0 3.657,-1.334 4.197,-3.152 C 4.141,-1.748 2.284,0 0,0"
             style="fill:#ffffff;fill-opacity:1;fill-rule:nonzero;stroke:none"
             id="path72"
             inkscape:connector-curvature="0" /></g><g
           id="g74"
           transform="translate(194.3223,309.3862)"><path
             d="m 0,0 c 1.041,0 1.957,-0.514 2.526,-1.296 0.74,1.946 2.617,3.331 4.822,3.331 1.59,0 3.01,-0.719 3.957,-1.848 1.516,6.883 7.644,12.037 14.983,12.037 6.316,0 11.737,-3.818 14.094,-9.269 1.415,1.229 3.257,1.978 5.278,1.978 4.281,0 7.783,-3.339 8.045,-7.555 0.017,-0.274 -0.214,-0.506 -0.49,-0.506 H 41.641 37.599 12.512 10.936 3.128 2.185 -2.852 C -3.001,-3.128 -3.129,-3 -3.116,-2.85 -2.976,-1.252 -1.634,0 0,0"
             style="fill:#f7f8ff;fill-opacity:1;fill-rule:nonzero;stroke:none"
             id="path76"
             inkscape:connector-curvature="0" /></g><g
           id="g78"
           transform="translate(194.3223,309.3862)"><path
             d="m 0,0 c 1.041,0 1.957,-0.514 2.526,-1.296 0.74,1.946 2.617,3.331 4.822,3.331 1.59,0 3.01,-0.719 3.957,-1.848 1.516,6.883 7.644,12.037 14.983,12.037 6.316,0 11.737,-3.818 14.094,-9.269 1.415,1.229 3.257,1.978 5.278,1.978 4.283,0 7.777,-3.344 8.036,-7.562 -0.081,0.245 -0.178,0.476 -0.302,0.69 -0.81,3.595 -4.007,6.285 -7.847,6.285 -2.021,0 -3.863,-0.749 -5.278,-1.977 C 37.913,7.82 32.492,11.638 26.175,11.638 18.836,11.638 12.708,6.484 11.192,-0.4 10.245,0.729 8.824,1.449 7.235,1.449 5.03,1.449 3.152,0.063 2.413,-1.882 1.844,-1.1 0.928,-0.586 -0.113,-0.586 c -1.417,0 -2.6,-0.949 -2.985,-2.241 C -2.944,-1.243 -1.625,0 0,0"
             style="fill:#ffffff;fill-opacity:1;fill-rule:nonzero;stroke:none"
             id="path80"
             inkscape:connector-curvature="0" /></g><g
           id="g82"><g
             id="g84" /><g
             id="g96"><g
               clip-path="url(#clipPath88)"
               id="g94"
               style="opacity:0.30999804"><g
                 transform="translate(288.7187,83.2842)"
                 id="g92"><path
                   d="m 0,0 c 0,-2.275 -18.056,-4.12 -40.328,-4.12 -22.273,0 -40.328,1.845 -40.328,4.12 0,2.274 18.055,4.119 40.328,4.119 C -18.056,4.119 0,2.274 0,0"
                   style="fill:#00bdf7;fill-opacity:1;fill-rule:nonzero;stroke:none"
                   id="path90"
                   inkscape:connector-curvature="0" /></g></g></g></g><g
           id="g98"><g
             id="g100" /><g
             id="g112"><g
               clip-path="url(#clipPath104)"
               id="g110"
               style="opacity:0.30999804"><g
                 transform="translate(168.4517,84.2051)"
                 id="g108"><path
                   d="m 0,0 c 0,-3.459 -18.55,-6.264 -41.432,-6.264 -22.882,0 -41.431,2.805 -41.431,6.264 0,3.46 18.549,6.265 41.431,6.265 C -18.55,6.265 0,3.46 0,0"
                   style="fill:#00bdf7;fill-opacity:1;fill-rule:nonzero;stroke:none"
                   id="path106"
                   inkscape:connector-curvature="0" /></g></g></g></g><g
           id="g114"><g
             id="g116" /><g
             id="g128"><g
               clip-path="url(#clipPath120)"
               id="g126"
               style="opacity:0.30999804"><g
                 transform="translate(403.6543,84.2051)"
                 id="g124"><path
                   d="m 0,0 c 0,-3.459 -19.532,-6.264 -43.626,-6.264 -24.095,0 -43.627,2.805 -43.627,6.264 0,3.46 19.532,6.265 43.627,6.265 C -19.532,6.265 0,3.46 0,0"
                   style="fill:#00bdf7;fill-opacity:1;fill-rule:nonzero;stroke:none"
                   id="path122"
                   inkscape:connector-curvature="0" /></g></g></g></g><g
           id="g130"
           transform="translate(227.8828,85.1309)"><path
             d="M 0,0 C 0,0 19.177,57.347 37.918,58.533 58.915,59.862 60.084,1.659 60.084,1.659 l 6.149,-0.293 c 0,0 3.088,58.783 -7.289,75.155 H 21.17 c 0,0 -24.261,-33.055 -25.607,-76.521 z"
             style="fill:#00a6ff;fill-opacity:1;fill-rule:nonzero;stroke:none"
             id="path132"
             inkscape:connector-curvature="0" /></g><g
           id="g134"
           transform="translate(250.0063,161.6514)"><path
             d="m 0,0 -2.429,-2.807 c 0,-10e-4 12.908,-19.545 44.201,-12.521 C 40.615,-8.916 39.02,-3.47 36.821,0 Z"
             style="fill:#0097fb;fill-opacity:1;fill-rule:nonzero;stroke:none"
             id="path136"
             inkscape:connector-curvature="0" /></g><g
           id="g138"
           transform="translate(293.3164,98.0371)"><path
             d="m 0,0 c -5.929,-5.591 -6.026,-12.29 -4.598,-13.719 1.429,-1.428 6.03,0.857 10.276,5.103 C 9.925,-4.37 12.209,0.23 10.78,1.659 9.352,3.088 4.369,4.12 0,0"
             style="fill:#ffffff;fill-opacity:1;fill-rule:nonzero;stroke:none"
             id="path140"
             inkscape:connector-curvature="0" /></g><g
           id="g142"
           transform="translate(293.8203,94.5947)"><path
             d="m 0,0 c -4.246,-4.247 -6.53,-8.848 -5.102,-10.276 1.429,-1.429 6.03,0.856 10.276,5.102 4.247,4.246 6.531,8.847 5.102,10.276 C 8.848,6.53 4.247,4.246 0,0"
             style="fill:#006ce2;fill-opacity:1;fill-rule:nonzero;stroke:none"
             id="path144"
             inkscape:connector-curvature="0" /></g><g
           id="g146"
           transform="translate(247.5771,197.5225)"><path
             d="m 0,0 -4.137,-2.716 c 0,0 -11.944,-18.384 -36.645,-23.815 -0.67,0.815 -4.573,4.982 -10.917,-0.143 1.017,-0.466 2.071,-0.81 3.108,-1.071 -2.094,-0.193 -4.26,-0.297 -6.506,-0.286 l 8.04,-1.097 c 0,0 30.707,-3.959 51.987,19.81 C 2.768,-0.303 0,0 0,0"
             style="fill:#ffc490;fill-opacity:1;fill-rule:nonzero;stroke:none"
             id="path148"
             inkscape:connector-curvature="0" /></g><g
           id="g150"
           transform="translate(246.2212,196.6318)"><path
             d="m 0,0 -2.781,-1.825 c 0,0 -0.019,-0.029 -0.05,-0.075 l -0.027,-0.599 6.452,-8.722 c 0.91,0.891 1.811,1.81 2.692,2.793 -0.685,2.858 -1.431,4.835 -2.13,6.209 L 2.645,-0.87 Z"
             style="fill:#ffad65;fill-opacity:1;fill-rule:nonzero;stroke:none"
             id="path152"
             inkscape:connector-curvature="0" /></g><g
           id="g154"
           transform="translate(238.2871,176.6543)"><path
             d="m 0,0 c -12.354,-5.242 -37.343,-6.139 -37.343,-6.139 l -0.256,-2.14 C -35.773,-8.481 -17.605,-10.171 0,0"
             style="fill:#ffb87c;fill-opacity:1;fill-rule:nonzero;stroke:none"
             id="path156"
             inkscape:connector-curvature="0" /></g><g
           id="g158"
           transform="translate(243.3633,194.1328)"><path
             d="m 0,0 9.824,-7.033 c 0,0 15.323,19.707 7.717,24.157 C 11.769,20.501 2.446,6.979 -0.471,2.43 -0.988,1.622 -0.78,0.559 0,0"
             style="fill:#009bf3;fill-opacity:1;fill-rule:nonzero;stroke:none"
             id="path160"
             inkscape:connector-curvature="0" /></g><g
           id="g162"><g
             id="g164" /><g
             id="g176"><g
               clip-path="url(#clipPath168)"
               id="g174"
               style="opacity:0.24000501"><g
                 transform="translate(247.8535,190.918)"
                 id="g172"><path
                   d="m 0,0 5.334,-3.818 c 0,0 2.859,3.679 5.495,8.216 L 11.42,20.844 C 11.419,20.843 3.603,15.395 0,0"
                   style="fill:#005ad6;fill-opacity:1;fill-rule:nonzero;stroke:none"
                   id="path170"
                   inkscape:connector-curvature="0" /></g></g></g></g><g
           id="g178"
           transform="translate(270.3379,216.4951)"><path
             d="m 0,0 c 0,0 6.538,0.814 11.421,-6.017 15.395,-21.543 8.142,-55.852 8.142,-55.852 0,0 -9.662,-6.503 -23.87,-4.79 -15.587,1.88 -18.454,9.893 -18.454,9.893 0,0 4.081,9.586 4.532,24.888 C -17.88,-20.055 -17.385,-1.31 0,0"
             style="fill:#006ce2;fill-opacity:1;fill-rule:nonzero;stroke:none"
             id="path180"
             inkscape:connector-curvature="0" /></g><g
           id="g182"><g
             id="g184" /><g
             id="g196"><g
               clip-path="url(#clipPath188)"
               id="g194"
               style="opacity:0.24000501"><g
                 transform="translate(290.8145,160.4971)"
                 id="g192"><path
                   d="m 0,0 c 0.261,2.136 0.513,4.763 0.66,7.73 l -23.274,0.883 2.058,-3.614 c 0,0 12.495,0.977 20.556,-4.999"
                   style="fill:#005ad6;fill-opacity:1;fill-rule:nonzero;stroke:none"
                   id="path190"
                   inkscape:connector-curvature="0" /></g></g></g></g><g
           id="g198"
           transform="translate(273.6973,232.0156)"><path
             d="m 0,0 0.79,-16.132 c 0,0 -0.614,-4.092 -4.698,-4.092 -3.675,0 -3.758,3.233 -3.758,3.233 l 3.024,14.027"
             style="fill:#ffdfa6;fill-opacity:1;fill-rule:nonzero;stroke:none"
             id="path200"
             inkscape:connector-curvature="0" /></g><g
           id="g202"
           transform="translate(274.3359,218.9854)"><path
             d="m 0,0 -0.396,8.078 c -0.196,0.204 0.965,0 0.965,0 H -5.164 L -7.071,7.034 -7.774,-0.49 C -7.773,-0.49 -4.566,-1.55 0,0"
             style="fill:#ffbd83;fill-opacity:1;fill-rule:nonzero;stroke:none"
             id="path204"
             inkscape:connector-curvature="0" /></g><g
           id="g206"
           transform="translate(286.6104,243.7842)"><path
             d="m 0,0 c 0,-11.801 -14.258,-27.55 -28.15,-26.416 -13.846,1.13 -12.998,14.679 -12.998,26.479 0,16.2 7.981,21.303 19.782,21.303 C -9.566,21.366 0,11.8 0,0"
             style="fill:#ffdfa6;fill-opacity:1;fill-rule:nonzero;stroke:none"
             id="path208"
             inkscape:connector-curvature="0" /></g><g
           id="g210"
           transform="translate(247.1162,247.9365)"><path
             d="M 0,0 C -0.131,0.022 -0.259,0.074 -0.374,0.156 -0.778,0.446 -0.876,1.005 -0.59,1.413 -0.508,1.53 1.458,4.252 5.471,3.576 5.508,3.569 5.546,3.563 5.583,3.557 6.076,3.466 6.403,2.995 6.312,2.501 6.223,2.008 5.755,1.726 5.258,1.771 2.361,2.298 0.947,0.444 0.889,0.362 0.68,0.074 0.33,-0.056 0,0"
             style="fill:#00a6ff;fill-opacity:1;fill-rule:nonzero;stroke:none"
             id="path212"
             inkscape:connector-curvature="0" /></g><g
           id="g214"
           transform="translate(266.1416,244.7451)"><path
             d="M 0,0 C 0.131,-0.022 0.269,-0.015 0.404,0.025 0.882,0.166 1.157,0.662 1.021,1.142 0.981,1.279 0.016,4.494 -3.997,5.17 -4.034,5.177 -4.071,5.183 -4.109,5.189 -4.604,5.266 -5.068,4.927 -5.145,4.431 -5.221,3.936 -4.872,3.516 -4.387,3.396 -1.478,2.943 -0.749,0.729 -0.722,0.634 -0.618,0.292 -0.33,0.056 0,0"
             style="fill:#00a6ff;fill-opacity:1;fill-rule:nonzero;stroke:none"
             id="path216"
             inkscape:connector-curvature="0" /></g><g
           id="g218"
           transform="translate(267.4561,236.1328)"><path
             d="m 0,0 c 0,-1.724 1.397,-3.12 3.121,-3.12 1.724,0 3.12,1.396 3.12,3.12 0,1.724 -1.396,3.121 -3.12,3.121 C 1.397,3.121 0,1.724 0,0"
             style="fill:#ffceaa;fill-opacity:1;fill-rule:nonzero;stroke:none"
             id="path220"
             inkscape:connector-curvature="0" /></g><g
           id="g222"
           transform="translate(245.8105,236.1328)"><path
             d="m 0,0 c 0,-1.724 1.397,-3.12 3.121,-3.12 1.723,0 3.12,1.396 3.12,3.12 0,1.724 -1.397,3.121 -3.12,3.121 C 1.397,3.121 0,1.724 0,0"
             style="fill:#ffceaa;fill-opacity:1;fill-rule:nonzero;stroke:none"
             id="path224"
             inkscape:connector-curvature="0" /></g><g
           id="g226"><g
             id="g228" /><g
             id="g240"><g
               clip-path="url(#clipPath232)"
               id="g238"
               style="opacity:0.57000703"><g
                 transform="translate(264.7998,236.7422)"
                 id="g236"><path
                   d="m 0,0 c -2.849,0 -5.166,2.317 -5.166,5.166 0,2.85 2.317,5.167 5.166,5.167 2.85,0 5.168,-2.317 5.168,-5.167 C 5.168,2.317 2.85,0 0,0 m 0,12.182 c -2.626,0 -4.893,-1.467 -6.095,-3.61 -0.074,0.02 -0.146,0.046 -0.226,0.046 h -2.985 c -1.209,2.117 -3.463,3.564 -6.07,3.564 -1.387,0 -2.672,-0.416 -3.761,-1.114 -0.078,-0.821 -0.13,-1.679 -0.157,-2.572 0.948,1.114 2.343,1.837 3.918,1.837 2.849,0 5.167,-2.317 5.167,-5.167 0,-2.849 -2.318,-5.166 -5.167,-5.166 -1.602,0 -3.019,0.748 -3.967,1.896 0.006,-0.85 0.018,-1.7 0.044,-2.542 1.12,-0.759 2.47,-1.204 3.923,-1.204 3.869,0 7.016,3.148 7.016,7.016 0,0.554 -0.08,1.087 -0.203,1.604 h 1.751 C -6.935,6.253 -7.015,5.72 -7.015,5.166 -7.015,1.298 -3.868,-1.85 0,-1.85 c 3.869,0 7.016,3.148 7.016,7.016 0,3.869 -3.147,7.016 -7.016,7.016"
                   style="fill:#ffc986;fill-opacity:1;fill-rule:nonzero;stroke:none"
                   id="path234"
                   inkscape:connector-curvature="0" /></g></g></g></g><g
           id="g242"
           transform="translate(251.6406,240.6387)"><path
             d="m 0,0 c -0.479,0 -0.866,0.388 -0.866,0.866 0,0.481 -0.39,0.872 -0.871,0.872 -0.48,0 -0.872,-0.391 -0.872,-0.872 C -2.609,0.388 -2.998,0 -3.476,0 c -0.478,0 -0.866,0.388 -0.866,0.866 0,1.437 1.169,2.605 2.605,2.605 1.435,0 2.603,-1.168 2.603,-2.605 C 0.866,0.388 0.479,0 0,0"
             style="fill:#002591;fill-opacity:1;fill-rule:nonzero;stroke:none"
             id="path244"
             inkscape:connector-curvature="0" /></g><g
           id="g246"
           transform="translate(264.6387,240.6387)"><path
             d="m 0,0 c -0.479,0 -0.866,0.388 -0.866,0.866 0,0.481 -0.39,0.872 -0.87,0.872 -0.481,0 -0.873,-0.391 -0.873,-0.872 C -2.609,0.388 -2.997,0 -3.476,0 c -0.478,0 -0.866,0.388 -0.866,0.866 0,1.437 1.168,2.605 2.606,2.605 1.434,0 2.602,-1.168 2.602,-2.605 C 0.866,0.388 0.479,0 0,0"
             style="fill:#002591;fill-opacity:1;fill-rule:nonzero;stroke:none"
             id="path248"
             inkscape:connector-curvature="0" /></g><g
           id="g250"
           transform="translate(276.9775,256.2271)"><path
             d="m 0,0 -9.032,3.226 -6.38,1.147 -11.834,-1.322 c -1.291,-1.581 -2.3,-3.55 -3.022,-5.916 0.2,-0.172 3.381,-2.811 7.544,0.016 0,0 4.159,-4.083 10.036,-1.298 0,0 1.147,-4.087 8.244,-4.199 0,0 0.076,-4.269 5.055,-6.241 -0.755,5.841 0.393,11.146 0.393,11.146 z"
             style="fill:#ffbd83;fill-opacity:1;fill-rule:nonzero;stroke:none"
             id="path252"
             inkscape:connector-curvature="0" /></g><g
           id="g254"
           transform="translate(281.9502,230.7676)"><path
             d="m 0,0 c 0,0 -2.643,2.41 -1.525,6.135 0,0 5.959,2.942 4.465,8.236 -0.638,2.263 -2.655,2.518 -3.98,2.14 -1.826,-0.522 -3.485,-2.894 -3.321,-5.639 0,0 -3.969,2.917 -2.268,8.304 0,0 -8.092,-2.063 -10.077,5.103 0,0 -4.879,-3.967 -10.902,0 0,0 -2.637,-3.697 -7.652,-1.669 l -0.922,-4.432 c 0,0 -7.279,1.26 -7.303,8.653 -0.028,8.51 7.654,9.072 7.654,9.072 0,0 -1.89,10.062 7.56,14.142 9.796,4.231 17.106,-4.786 17.106,-4.786 0,0 7.196,5.916 15.825,0.51 8.79,-5.507 4.871,-15.536 4.871,-15.536 0,0 5.171,-0.932 5.758,-5.846 0.652,-5.454 -4.624,-7.274 -4.624,-7.274 0,0 3.914,-3.725 1.03,-9.026 C 9.405,3.879 3.294,4.15 3.294,4.15 Z"
             style="fill:#00a6ff;fill-opacity:1;fill-rule:nonzero;stroke:none"
             id="path256"
             inkscape:connector-curvature="0" /></g><g
           id="g258"
           transform="translate(275.1621,249.3311)"><path
             d="m 0,0 c -0.208,-0.848 -0.282,-1.632 -0.249,-2.345 0.021,0.732 0.137,1.521 0.408,2.38 C 0.159,0.035 0.094,0.021 0,0"
             style="fill:#00bcff;fill-opacity:1;fill-rule:nonzero;stroke:none"
             id="path260"
             inkscape:connector-curvature="0" /></g><g
           id="g262"
           transform="translate(263.8896,237.2295)"><path
             d="m 0,0 c -2.85,0 -5.168,2.317 -5.168,5.167 0,2.849 2.318,5.167 5.168,5.167 2.849,0 5.166,-2.318 5.166,-5.167 C 5.166,2.317 2.849,0 0,0 m -15.377,0 c -2.849,0 -5.167,2.317 -5.167,5.167 0,2.849 2.318,5.167 5.167,5.167 2.849,0 5.167,-2.318 5.167,-5.167 C -10.21,2.317 -12.528,0 -15.377,0 M 0,12.182 c -2.627,0 -4.894,-1.467 -6.096,-3.61 -0.074,0.02 -0.146,0.046 -0.227,0.046 h -2.984 c -1.209,2.117 -3.462,3.564 -6.07,3.564 -3.869,0 -7.016,-3.147 -7.016,-7.015 0,-3.869 3.147,-7.016 7.016,-7.016 3.868,0 7.016,3.147 7.016,7.016 0,0.554 -0.08,1.086 -0.202,1.603 h 1.75 C -6.936,6.253 -7.016,5.721 -7.016,5.167 c 0,-3.869 3.147,-7.016 7.016,-7.016 3.868,0 7.015,3.147 7.015,7.016 0,3.868 -3.147,7.015 -7.015,7.015"
             style="fill:#ffffff;fill-opacity:1;fill-rule:nonzero;stroke:none"
             id="path264"
             inkscape:connector-curvature="0" /></g><g
           id="g266"
           transform="translate(251.7227,229.6377)"><path
             d="m 0,0 c 1.147,-2.775 4.082,-4.506 7.285,-3.932 3.434,0.618 5.968,3.401 5.585,6.801 z"
             style="fill:#ffc88c;fill-opacity:1;fill-rule:nonzero;stroke:none"
             id="path268"
             inkscape:connector-curvature="0" /></g><g
           id="g270"
           transform="translate(265.1484,231.5684)"><path
             d="M 0,0 C -0.127,0 -0.251,0.068 -0.315,0.188 -0.729,0.963 -1.559,1.17 -1.567,1.173 -1.758,1.219 -1.877,1.41 -1.832,1.603 -1.786,1.792 -1.6,1.914 -1.404,1.867 -1.358,1.857 -0.255,1.593 0.314,0.525 0.407,0.352 0.341,0.136 0.169,0.042 0.114,0.014 0.057,0 0,0"
             style="fill:#ffc88c;fill-opacity:1;fill-rule:nonzero;stroke:none"
             id="path272"
             inkscape:connector-curvature="0" /></g><g
           id="g274"
           transform="translate(251.7227,229.6377)"><path
             d="m 0,0 c 1.123,-2.783 4.087,-4.478 7.146,-3.889 3.058,0.59 5.181,3.265 5.189,6.267 z"
             style="fill:#002591;fill-opacity:1;fill-rule:nonzero;stroke:none"
             id="path276"
             inkscape:connector-curvature="0" /></g><g
           id="g278"
           transform="translate(256.2285,239.54)"><path
             d="m 0,0 h -2.019 c -0.936,0 -1.703,-0.767 -1.703,-1.703 0,-0.938 0.767,-1.704 1.703,-1.704 H 0 Z"
             style="fill:#ffb698;fill-opacity:1;fill-rule:nonzero;stroke:none"
             id="path280"
             inkscape:connector-curvature="0" /></g><g
           id="g282"
           transform="translate(132.3618,204.1309)"><path
             d="m 0,0 -4.867,-0.894 c 0,0 -17.504,-11.838 -41.678,-7.914 -0.325,-0.978 -2.063,-2.688 -2.54,-3.626 9.8,-3.7 30.076,-7.479 50.003,1.932 C 2.433,-1.355 0,0 0,0"
             style="fill:#ffc490;fill-opacity:1;fill-rule:nonzero;stroke:none"
             id="path284"
             inkscape:connector-curvature="0" /></g><g
           id="g286"
           transform="translate(69.5239,196.2422)"><path
             d="m 0,0 c 0,0 1.369,-6.176 4.48,-8.126 2.613,-1.637 5.316,-1.094 5.368,-0.249 0.041,0.68 -3.84,3.148 -4.783,6.81 0.279,0.499 0.629,0.692 1.778,0.727 C 12.631,-0.663 0,0 0,0"
             style="fill:#ffaf73;fill-opacity:1;fill-rule:nonzero;stroke:none"
             id="path288"
             inkscape:connector-curvature="0" /></g><g
           id="g290"
           transform="translate(69.7559,195.3555)"><path
             d="m 0,0 c 0.007,-0.001 2.964,-0.141 5.003,-1.147 -0.053,0.158 -0.128,0.305 -0.17,0.468 0.279,0.499 0.629,0.693 1.779,0.728 5.787,0.175 -6.844,0.838 -6.844,0.838 0,0 0.078,-0.346 0.232,-0.887"
             style="fill:#ffa064;fill-opacity:1;fill-rule:nonzero;stroke:none"
             id="path292"
             inkscape:connector-curvature="0" /></g><g
           id="g294"
           transform="translate(85.9863,195.2617)"><path
             d="m 0,0 -9.31,5.681 c -0.406,0.248 -0.892,0.303 -1.341,0.148 -2.002,-0.692 -8.069,-2.573 -14.381,-2.387 0,0 -0.765,-4.24 3.928,-4.143 0,0 4.183,0.864 8.224,1.128 0,0 3.817,0.562 4.647,-2.247 1.073,-3.634 -7.306,-1.603 -7.306,-1.603 0,0 -0.409,-2.858 3.951,-4.089 5.234,-1.477 13.49,3.828 13.49,3.828 z"
             style="fill:#ffc490;fill-opacity:1;fill-rule:nonzero;stroke:none"
             id="path296"
             inkscape:connector-curvature="0" /></g><g
           id="g298"
           transform="translate(133.7729,198.9443)"><path
             d="M 0,0 -0.049,0.11 -3.45,4.812 -6.611,3.702 -3.316,-6.534 c 0.941,0.387 1.882,0.774 2.823,1.219 C -0.129,-3.122 0.003,-1.387 0,0"
             style="fill:#ffb073;fill-opacity:1;fill-rule:nonzero;stroke:none"
             id="path300"
             inkscape:connector-curvature="0" /></g><g
           id="g302"
           transform="translate(127.1621,202.6465)"><path
             d="m 0,0 6.315,-10.3 c 0,0 21.781,12.197 16.503,19.255 C 18.813,14.312 4.967,5.479 0.511,2.421 -0.28,1.879 -0.501,0.817 0,0"
             style="fill:#e9efff;fill-opacity:1;fill-rule:nonzero;stroke:none"
             id="path304"
             inkscape:connector-curvature="0" /></g><g
           id="g306"><g
             id="g308" /><g
             id="g320"><g
               clip-path="url(#clipPath312)"
               id="g318"
               style="opacity:0.24000501"><g
                 transform="translate(137.5137,194.8252)"
                 id="g316"><path
                   d="m 0,0 c 3.444,2.251 8.264,5.749 11.054,9.284 l 0.107,8.561 c -0.012,0.006 -0.022,0.011 -0.034,0.017 C 10.807,17.733 3.749,14.713 0,0"
                   style="fill:#005ad6;fill-opacity:1;fill-rule:nonzero;stroke:none"
                   id="path314"
                   inkscape:connector-curvature="0" /></g></g></g></g><g
           id="g322"
           transform="translate(167.4478,148.0986)"><path
             d="m 0,0 c 0,0 -24.246,-28.559 -8.143,-62.968 l -6.989,2.856 c 0,0 -21.666,36.299 -10.299,62.331 z"
             style="fill:#0058c4;fill-opacity:1;fill-rule:nonzero;stroke:none"
             id="path324"
             inkscape:connector-curvature="0" /></g><g
           id="g326"
           transform="translate(165.8843,146.4004)"><path
             d="m 0,0 -1.05,1.927 -15.871,1.385 -8.586,-4.007 c -2.327,-8.149 -1.949,-16.976 -0.353,-25.227 3.21,5.914 8.159,10.515 13.059,13.842 C -4.089,-6.166 0,0 0,0"
             style="fill:#0047b8;fill-opacity:1;fill-rule:nonzero;stroke:none"
             id="path328"
             inkscape:connector-curvature="0" /></g><g
           id="g330"
           transform="translate(133.4814,156.29)"><path
             d="m 0,0 c 0,0 -29.1,-31.49 -31.536,-68.146 l 4.082,-4.082 c 0,0 9.507,31.3 27.416,44.371 19.188,14.003 32.743,11.04 37.668,26.792 -9.232,13.027 -22.391,12.067 -22.391,12.067 z"
             style="fill:#006ce2;fill-opacity:1;fill-rule:nonzero;stroke:none"
             id="path332"
             inkscape:connector-curvature="0" /></g><g
           id="g334"
           transform="translate(168.5308,149.6104)"><path
             d="M 0,0 C 1.022,1.572 1.89,3.404 2.581,5.614 1.41,7.267 0.176,8.689 -1.086,9.922 L -35.049,6.681 C -35.049,6.681 -22.49,-5.628 0,0"
             style="fill:#0060d8;fill-opacity:1;fill-rule:nonzero;stroke:none"
             id="path336"
             inkscape:connector-curvature="0" /></g><g
           id="g338"
           transform="translate(157.6787,218.1416)"><path
             d="m 0,0 c 0,0 5.956,1.112 12.48,-6.38 17.387,-19.971 0.637,-57.273 0.637,-57.273 0,0 -12.386,-4.519 -22.121,-2.831 -13.982,2.423 -16.948,6.304 -16.948,6.304 0,0 6.606,10.352 10.797,25.076 C -9.341,-14.674 -13.883,-2.453 0,0"
             style="fill:#ffffff;fill-opacity:1;fill-rule:nonzero;stroke:none"
             id="path340"
             inkscape:connector-curvature="0" /></g><g
           id="g342"><g
             id="g344" /><g
             id="g356"><g
               clip-path="url(#clipPath348)"
               id="g354"
               style="opacity:0.24000501"><g
                 transform="translate(175.6299,169.1104)"
                 id="g352"><path
                   d="m 0,0 -14.093,-0.962 -2.641,-0.958 c 0,0 9.499,-0.268 14.998,-4.256 C -1.155,-4.33 -0.557,-2.258 0,0"
                   style="fill:#005ad6;fill-opacity:1;fill-rule:nonzero;stroke:none"
                   id="path350"
                   inkscape:connector-curvature="0" /></g></g></g></g><g
           id="g358"
           transform="translate(106.0278,84.0625)"><path
             d="m 0,0 h -18.489 c -0.869,0 -1.353,0.983 -0.84,1.686 0.658,0.899 1.642,1.997 2.98,2.867 C -11.802,7.509 -4.492,8.505 0,0"
             style="fill:#0057cd;fill-opacity:1;fill-rule:nonzero;stroke:none"
             id="path360"
             inkscape:connector-curvature="0" /></g><g
           id="g362"
           transform="translate(159.8223,84.2051)"><path
             d="m 0,0 h -18.094 c -0.851,0 -1.325,0.962 -0.823,1.649 0.645,0.88 1.607,1.955 2.917,2.806 C -11.55,7.349 -4.396,8.323 0,0"
             style="fill:#0040be;fill-opacity:1;fill-rule:nonzero;stroke:none"
             id="path364"
             inkscape:connector-curvature="0" /></g><g
           id="g366"
           transform="translate(224.5078,85.7441)"><path
             d="m 0,0 c 0.435,-0.653 -0.043,-1.539 -0.828,-1.539 h -16.354 c -0.851,0 -1.324,0.962 -0.822,1.649 0.644,0.88 1.607,1.954 2.916,2.806 C -10.934,5.617 -4.423,6.646 0,0"
             style="fill:#ffffff;fill-opacity:1;fill-rule:nonzero;stroke:none"
             id="path368"
             inkscape:connector-curvature="0" /></g><g
           id="g370"
           transform="translate(164.0967,230.0244)"><path
             d="m 0,0 -1.902,-16.039 c 0,0 -1.286,-3.933 -5.312,-3.254 -3.624,0.611 -3.169,3.813 -3.169,3.813 l 5.314,13.329"
             style="fill:#ffdfa6;fill-opacity:1;fill-rule:nonzero;stroke:none"
             id="path372"
             inkscape:connector-curvature="0" /></g><g
           id="g374"
           transform="translate(162.5605,217.0693)"><path
             d="M 0,0 0.952,8.031 C 0.792,8.266 1.904,7.871 1.904,7.871 L -3.749,8.823 -5.804,8.111 -7.747,0.809 C -7.747,0.809 -4.76,-0.77 0,0"
             style="fill:#ffbd83;fill-opacity:1;fill-rule:nonzero;stroke:none"
             id="path376"
             inkscape:connector-curvature="0" /></g><g
           id="g378"
           transform="translate(178.8965,240.7051)"><path
             d="m 0,0 c -2.106,-12.496 -20.014,-26.629 -34.521,-22.949 -14.46,3.668 -11.146,17.863 -9.04,30.359 2.891,17.153 12.254,21.132 24.749,19.027 C -6.317,24.331 2.105,12.495 0,0"
             style="fill:#ffdfa6;fill-opacity:1;fill-rule:nonzero;stroke:none"
             id="path380"
             inkscape:connector-curvature="0" /></g><g
           id="g382"
           transform="translate(154.0142,235.7051)"><path
             d="M 0,0 C -0.063,-1.551 1.142,-2.859 2.692,-2.923 4.243,-2.986 5.551,-1.781 5.614,-0.231 5.678,1.319 4.473,2.628 2.922,2.691 1.372,2.755 0.063,1.55 0,0"
             style="fill:#ffceaa;fill-opacity:1;fill-rule:nonzero;stroke:none"
             id="path384"
             inkscape:connector-curvature="0" /></g><g
           id="g386"
           transform="translate(134.5425,236.5039)"><path
             d="M 0,0 C -0.064,-1.551 1.142,-2.858 2.692,-2.923 4.242,-2.986 5.55,-1.781 5.614,-0.23 5.678,1.32 4.473,2.628 2.922,2.692 1.372,2.756 0.063,1.551 0,0"
             style="fill:#ffceaa;fill-opacity:1;fill-rule:nonzero;stroke:none"
             id="path388"
             inkscape:connector-curvature="0" /></g><g
           id="g390"
           transform="translate(140.6353,239.6943)"><path
             d="M 0,0 C -0.472,0.079 -0.79,0.526 -0.71,0.998 -0.63,1.472 -0.95,1.923 -1.423,2.003 -1.897,2.083 -2.35,1.761 -2.429,1.287 -2.509,0.815 -2.956,0.498 -3.427,0.577 -3.898,0.656 -4.217,1.104 -4.137,1.575 -3.898,2.992 -2.552,3.95 -1.136,3.711 0.279,3.473 1.237,2.126 0.998,0.71 0.918,0.238 0.472,-0.08 0,0"
             style="fill:#002591;fill-opacity:1;fill-rule:nonzero;stroke:none"
             id="path392"
             inkscape:connector-curvature="0" /></g><g
           id="g394"
           transform="translate(152.6245,237.6729)"><path
             d="M 0,0 C -0.471,0.08 -0.789,0.527 -0.71,0.998 -0.63,1.473 -0.95,1.924 -1.423,2.004 -1.897,2.084 -2.349,1.762 -2.429,1.288 -2.508,0.816 -2.956,0.499 -3.427,0.578 -3.898,0.657 -4.217,1.104 -4.137,1.576 -3.898,2.993 -2.552,3.95 -1.135,3.712 0.279,3.474 1.237,2.127 0.998,0.711 0.918,0.239 0.472,-0.079 0,0"
             style="fill:#002591;fill-opacity:1;fill-rule:nonzero;stroke:none"
             id="path396"
             inkscape:connector-curvature="0" /></g><g
           id="g398"
           transform="translate(145.2969,239.748)"><path
             d="m 0,0 -1.99,0.336 c -0.924,0.155 -1.807,-0.474 -1.963,-1.398 -0.155,-0.923 0.473,-1.806 1.397,-1.962 l 1.99,-0.335 z"
             style="fill:#ffb698;fill-opacity:1;fill-rule:nonzero;stroke:none"
             id="path400"
             inkscape:connector-curvature="0" /></g><g
           id="g402"
           transform="translate(166.0166,257.7734)"><path
             d="m 0,0 -26.006,2.768 c 0,0 -0.082,-0.015 -0.2,-0.038 -2.05,-2.999 -3.576,-7.055 -4.475,-12.388 -0.072,-0.431 -0.148,-0.867 -0.222,-1.302 17.1,-2.482 28.446,3.836 28.446,3.836 2.092,-1.429 4.482,-1.408 4.482,-1.408 l 5.649,4.547 z"
             style="fill:#ffbd83;fill-opacity:1;fill-rule:nonzero;stroke:none"
             id="path404"
             inkscape:connector-curvature="0" /></g><g
           id="g406"
           transform="translate(181.2427,256.355)"><path
             d="m 0,0 c -0.211,23.774 -24.393,18.162 -35.602,15.815 -8,-1.675 -10.996,6.405 -10.996,6.405 -12.478,-13.586 -0.714,-20.663 -0.714,-20.663 -1.037,-1.335 -3.407,-2.397 -3.407,-2.397 15.976,-11.82 33.65,-3.289 33.65,-3.289 1.772,-2.49 3.868,-2.984 3.868,-2.984 -2.762,-5.401 0.92,-9.198 0.92,-9.198 0.316,2.936 2.495,5.152 4.522,5.378 1.471,0.164 3.562,-0.466 3.834,-2.976 0.636,-5.873 -6.2,-7.924 -6.2,-7.924 -1.847,-3.745 0.522,-6.769 0.522,-6.769 l 2.876,2.59 c 0.007,0.024 0.018,0.049 0.025,0.074 l 0.44,-1.065 c 1.741,2.385 2.433,5.17 2.433,5.17 l 0.081,-2.135 C 10.088,-10.741 0,0 0,0"
             style="fill:#006ce2;fill-opacity:1;fill-rule:nonzero;stroke:none"
             id="path408"
             inkscape:connector-curvature="0" /></g><g
           id="g410"
           transform="translate(136.377,244.1729)"><path
             d="M 0,0 C -0.131,0.021 -0.259,0.073 -0.374,0.156 -0.778,0.445 -0.876,1.004 -0.59,1.412 -0.508,1.529 1.458,4.251 5.471,3.575 5.508,3.568 5.546,3.563 5.583,3.556 6.077,3.466 6.403,2.993 6.313,2.5 6.223,2.007 5.755,1.725 5.257,1.771 2.361,2.297 0.947,0.443 0.889,0.362 0.68,0.073 0.33,-0.056 0,0"
             style="fill:#006ce2;fill-opacity:1;fill-rule:nonzero;stroke:none"
             id="path412"
             inkscape:connector-curvature="0" /></g><g
           id="g414"
           transform="translate(155.3179,240.9805)"><path
             d="M 0,0 C 0.131,-0.022 0.269,-0.015 0.404,0.025 0.881,0.166 1.157,0.662 1.021,1.142 0.981,1.279 0.016,4.494 -3.997,5.171 -4.034,5.177 -4.072,5.184 -4.109,5.189 -4.605,5.266 -5.068,4.927 -5.145,4.432 -5.221,3.936 -4.872,3.516 -4.387,3.396 -1.478,2.944 -0.749,0.729 -0.722,0.634 -0.618,0.293 -0.33,0.056 0,0"
             style="fill:#006ce2;fill-opacity:1;fill-rule:nonzero;stroke:none"
             id="path416"
             inkscape:connector-curvature="0" /></g><g
           id="g418"
           transform="translate(137.3403,230.7959)"><path
             d="m 0,0 c 0.857,-3.742 4.188,-6.547 8.347,-6.503 4.459,0.048 8.245,3.019 8.484,7.386 z"
             style="fill:#ffc88c;fill-opacity:1;fill-rule:nonzero;stroke:none"
             id="path420"
             inkscape:connector-curvature="0" /></g><g
           id="g422"
           transform="translate(154.6724,230.3779)"><path
             d="m 0,0 c -0.16,0.026 -0.301,0.139 -0.356,0.304 -0.357,1.063 -1.36,1.502 -1.37,1.507 -0.231,0.098 -0.339,0.364 -0.242,0.596 0.098,0.23 0.359,0.345 0.595,0.243 C -1.317,2.628 0.017,2.061 0.508,0.595 0.587,0.355 0.459,0.098 0.222,0.017 0.147,-0.007 0.072,-0.013 0,0"
             style="fill:#ffc88c;fill-opacity:1;fill-rule:nonzero;stroke:none"
             id="path424"
             inkscape:connector-curvature="0" /></g><g
           id="g426"
           transform="translate(137.3403,230.7959)"><path
             d="m 0,0 c 0.824,-3.747 4.201,-6.513 8.181,-6.419 3.981,0.093 7.224,3.014 7.871,6.796 z"
             style="fill:#ffffff;fill-opacity:1;fill-rule:nonzero;stroke:none"
             id="path428"
             inkscape:connector-curvature="0" /></g><g
           id="g430"
           transform="translate(153.3926,231.1729)"><path
             d="m 0,0 -16.052,-0.377 c 0.07,-0.317 0.182,-0.615 0.287,-0.918 L -1.037,-2.782 C -0.429,-1.903 -0.171,-1.003 0,0"
             style="fill:#ffffff;fill-opacity:1;fill-rule:nonzero;stroke:none"
             id="path432"
             inkscape:connector-curvature="0" /></g><g
           id="g434"
           transform="translate(152.8823,229.3389)"><path
             d="M 0,0 C 0.333,0.711 0.515,1.279 0.623,1.909 L -15.542,1.457 C -7.103,1.687 -1.796,0.484 0,0"
             style="fill:#d5deff;fill-opacity:1;fill-rule:nonzero;stroke:none"
             id="path436"
             inkscape:connector-curvature="0" /></g><g
           id="g438"
           transform="translate(138.1665,228.7334)"><path
             d="M 0,0 13.879,-0.844 13.458,-1.399 13.072,-1.834 Z"
             style="fill:#c1ccf1;fill-opacity:1;fill-rule:nonzero;stroke:none"
             id="path440"
             inkscape:connector-curvature="0" /></g><g
           id="g442"
           transform="translate(409.0117,260.6816)"><path
             d="m 0,0 c -0.252,1.149 11.055,-5.573 9.475,-24.549 -1.32,-15.832 -6.421,-21.432 4.703,-34.94 11.124,-13.507 7.255,-24.298 2.297,-31.365 -6.211,-8.854 -30.63,-13.649 -42.551,0.458 -11.921,14.108 -2.426,30.907 -2.426,30.907 l 5.614,11.413"
             style="fill:#0033ad;fill-opacity:1;fill-rule:nonzero;stroke:none"
             id="path444"
             inkscape:connector-curvature="0" /></g><g
           id="g446"
           transform="translate(418.6299,164.5166)"><path
             d="m 0,0 c -1.402,40.853 -23.434,54.29 -23.434,54.29 2.843,1.737 3.274,2.568 3.274,2.568 l -2.248,6.112 -2.908,-0.737 -0.519,-0.131 -6.671,-14.013 -2.403,-4.885 -3.32,-33.871 C -37.516,8.135 -36.686,6.942 -35.694,5.77 -26.65,-4.934 -10.27,-5.128 0,0"
             style="fill:#002795;fill-opacity:1;fill-rule:nonzero;stroke:none"
             id="path448"
             inkscape:connector-curvature="0" /></g><g
           id="g450"
           transform="translate(369.2432,163.4551)"><path
             d="m 0,0 c 0,0 -39.131,-25.046 -50.082,-60.11 l 3.013,-4.925 c 0,0 16.571,28.202 37.044,36.716 21.934,9.121 31.821,2.115 40.297,16.276 C 24.348,2.784 13.927,5.882 13.927,5.882 Z"
             style="fill:#ffffff;fill-opacity:1;fill-rule:nonzero;stroke:none"
             id="path452"
             inkscape:connector-curvature="0" /></g><g
           id="g454"
           transform="translate(366.9111,160.9707)"><path
             d="m 0,0 c 0,0 -12.482,-12.661 -18.399,-32.152 3.389,2.563 6.981,4.768 10.706,6.317 6.937,2.885 12.667,4.155 17.53,4.994 l 3.653,8.007 2.238,5.698 z"
             style="fill:#e7edff;fill-opacity:1;fill-rule:nonzero;stroke:none"
             id="path456"
             inkscape:connector-curvature="0" /></g><g
           id="g458"
           transform="translate(368.6084,156.5117)"><path
             d="m 0,0 c 0,0 -28.084,-38.788 6.427,-71.714 h 7.483 c 0,0 -28.391,32.354 1.21,51.391 12.993,8.356 16.54,14.984 16.54,19.036 C 22.429,11.74 9.27,10.78 9.27,10.78 Z"
             style="fill:#ffffff;fill-opacity:1;fill-rule:nonzero;stroke:none"
             id="path460"
             inkscape:connector-curvature="0" /></g><g
           id="g462"
           transform="translate(368.6084,156.5117)"><path
             d="m 0,0 c 0,0 -28.084,-38.788 6.427,-71.714 h 7.483 c 0,0 -28.391,32.354 1.21,51.391 12.993,8.356 16.54,14.984 16.54,19.036 C 22.429,11.74 9.27,10.78 9.27,10.78 Z"
             style="fill:#ffffff;fill-opacity:1;fill-rule:nonzero;stroke:none"
             id="path464"
             inkscape:connector-curvature="0" /></g><g
           id="g466"
           transform="translate(393.8975,144.0547)"><path
             d="m 0,0 c 4.801,4.684 6.371,8.492 6.371,11.17 -1.665,2.351 -3.46,4.231 -5.281,5.759 -0.412,0.177 -0.662,0.266 -0.662,0.266 l -15.275,0.967 -10.442,-5.705 c 0,0 8.745,-12.026 25.289,-12.457"
             style="fill:#e7edff;fill-opacity:1;fill-rule:nonzero;stroke:none"
             id="path468"
             inkscape:connector-curvature="0" /></g><g
           id="g470"
           transform="translate(373.5137,162.2168)"><path
             d="m 0,0 v 0 l -1.82,-2.116 c 4.369,-3.347 11.54,-10.204 15.7,-21.413 2.638,1.895 4.781,3.687 6.504,5.367 L 7.335,-5.102 Z"
             style="fill:#e7edff;fill-opacity:1;fill-rule:nonzero;stroke:none"
             id="path472"
             inkscape:connector-curvature="0" /></g><g
           id="g474"
           transform="translate(382.5361,85.5166)"><path
             d="m 0,0 c 0.36,-0.562 -0.037,-1.312 -0.706,-1.312 h -16.625 c -0.852,0 -1.325,0.962 -0.822,1.65 0.643,0.88 1.606,1.954 2.916,2.806 C -11.036,5.875 -4.426,6.896 0,0"
             style="fill:#0040be;fill-opacity:1;fill-rule:nonzero;stroke:none"
             id="path476"
             inkscape:connector-curvature="0" /></g><g
           id="g478"
           transform="translate(321.4492,98.627)"><path
             d="m 0,0 -11.914,11.947 c -0.602,0.604 -0.252,1.618 0.591,1.747 1.078,0.165 2.516,0.243 4.043,-0.084 C -2.33,12.554 3.12,8.523 1.196,0.356 1.067,-0.19 0.396,-0.398 0,0"
             style="fill:#0040be;fill-opacity:1;fill-rule:nonzero;stroke:none"
             id="path480"
             inkscape:connector-curvature="0" /></g><g
           id="g482"
           transform="translate(369.7832,197.5225)"><path
             d="m 0,0 -4.137,-2.716 c 0,0 -11.944,-18.384 -36.645,-23.815 -0.669,0.815 -4.573,4.982 -10.917,-0.143 1.016,-0.466 2.071,-0.81 3.108,-1.071 -2.095,-0.193 -4.26,-0.297 -6.506,-0.286 l 8.04,-1.097 c 0,0 30.706,-3.959 51.987,19.81 C 2.769,-0.303 0,0 0,0"
             style="fill:#ffc490;fill-opacity:1;fill-rule:nonzero;stroke:none"
             id="path484"
             inkscape:connector-curvature="0" /></g><g
           id="g486"
           transform="translate(368.4268,196.6318)"><path
             d="m 0,0 -2.78,-1.825 c 0,0 -0.02,-0.029 -0.05,-0.075 l -0.027,-0.599 6.452,-8.722 c 0.909,0.891 1.81,1.81 2.691,2.793 -0.685,2.858 -1.431,4.835 -2.13,6.209 L 2.645,-0.87 Z"
             style="fill:#ffad65;fill-opacity:1;fill-rule:nonzero;stroke:none"
             id="path488"
             inkscape:connector-curvature="0" /></g><g
           id="g490"
           transform="translate(360.4932,176.6543)"><path
             d="M 0,0 C -12.354,-5.242 -37.344,-6.139 -37.344,-6.139 L -37.6,-8.279 C -35.773,-8.481 -17.605,-10.171 0,0"
             style="fill:#ffb87c;fill-opacity:1;fill-rule:nonzero;stroke:none"
             id="path492"
             inkscape:connector-curvature="0" /></g><g
           id="g494"
           transform="translate(365.5693,194.1328)"><path
             d="m 0,0 9.824,-7.033 c 0,0 15.876,20.567 8.269,25.017 C 12.321,21.361 2.446,6.979 -0.471,2.43 -0.988,1.622 -0.779,0.559 0,0"
             style="fill:#006ce2;fill-opacity:1;fill-rule:nonzero;stroke:none"
             id="path496"
             inkscape:connector-curvature="0" /></g><g
           id="g498"><g
             id="g500" /><g
             id="g512"><g
               clip-path="url(#clipPath504)"
               id="g510"
               style="opacity:0.24000501"><g
                 transform="translate(367.3096,192.8867)"
                 id="g508"><path
                   d="m 0,0 8.084,-5.787 c 0,0 2.859,3.68 5.495,8.217 l 0.676,17.315 C 14.255,19.745 7.563,7.639 0,0"
                   style="fill:#005ad6;fill-opacity:1;fill-rule:nonzero;stroke:none"
                   id="path506"
                   inkscape:connector-curvature="0" /></g></g></g></g><g
           id="g514"
           transform="translate(387.2461,217.2627)"><path
             d="m 0,0 c 0,0 5.361,1.945 9.945,-4.672 14.256,-18.991 2.823,-59.365 2.823,-59.365 0,0 -11.811,-3.256 -21.547,-1.568 -13.982,2.423 -11.556,9.313 -11.556,9.313 0,0 4.428,3.791 8.087,18.656 C -7.06,-16.557 -11.477,-3.198 0,0"
             style="fill:#009bf3;fill-opacity:1;fill-rule:nonzero;stroke:none"
             id="path516"
             inkscape:connector-curvature="0" /></g><g
           id="g518"><g
             id="g520" /><g
             id="g532"><g
               clip-path="url(#clipPath524)"
               id="g530"
               style="opacity:0.24000501"><g
                 transform="translate(380.8486,157.1152)"
                 id="g528"><path
                   d="m 0,0 -7.335,5.102 -3.889,2.586 -10e-4,-10e-4 c -0.545,-0.983 -1.03,-1.733 -1.438,-2.306 1.133,-0.65 6.809,-4.145 12.174,-11.103 2.116,-0.231 4.282,-0.257 6.373,-0.167 z"
                   style="fill:#005ad6;fill-opacity:1;fill-rule:nonzero;stroke:none"
                   id="path526"
                   inkscape:connector-curvature="0" /></g></g></g></g><g
           id="g534"
           transform="translate(394.3252,215.6582)"><path
             d="m 0,0 c -3.691,2.818 -7.079,1.604 -7.079,1.604 -1.888,-0.5 -3.186,-1.125 -4.366,-2.283 -0.108,-1.393 0.029,-3.353 3.23,-4.143 C -2.762,-6.169 -0.475,-1.219 0,0"
             style="fill:#ffdfa6;fill-opacity:1;fill-rule:nonzero;stroke:none"
             id="path536"
             inkscape:connector-curvature="0" /></g><g
           id="g538"
           transform="translate(388.8555,228.1162)"><path
             d="m 0,0 -4.214,-13.565 c 0,0 -0.984,-2.823 2.068,-3.577 3.965,-0.978 5.313,3.254 5.313,3.254 L 5.069,2.151"
             style="fill:#ffdfa6;fill-opacity:1;fill-rule:nonzero;stroke:none"
             id="path540"
             inkscape:connector-curvature="0" /></g><g
           id="g542"
           transform="translate(388.6045,225.8926)"><path
             d="m 0,0 -0.447,-0.155 -2.432,-7.696 c 1.241,-0.41 3.464,-1.484 6.628,-0.972 l 0.263,2.212 0.689,5.819 z"
             style="fill:#ffc986;fill-opacity:1;fill-rule:nonzero;stroke:none"
             id="path544"
             inkscape:connector-curvature="0" /></g><g
           id="g546"
           transform="translate(393.3057,225.1006)"><path
             d="M 0,0 0.008,0.062 C -0.015,0.052 -0.022,0.033 0,0"
             style="fill:#ffce90;fill-opacity:1;fill-rule:nonzero;stroke:none"
             id="path548"
             inkscape:connector-curvature="0" /></g><g
           id="g550"
           transform="translate(408.6895,240.7051)"><path
             d="m 0,0 c -2.105,-12.496 -20.014,-26.629 -34.521,-22.949 -14.46,3.668 -11.145,17.863 -9.04,30.359 2.891,17.153 12.254,21.132 24.749,19.027 C -6.316,24.331 2.105,12.495 0,0"
             style="fill:#ffdfa6;fill-opacity:1;fill-rule:nonzero;stroke:none"
             id="path552"
             inkscape:connector-curvature="0" /></g><g
           id="g554"
           transform="translate(368.8223,253.1084)"><path
             d="m 0,0 c 0,0 -1.349,-0.411 -2.931,-1.401 -0.285,-1.135 -0.548,-2.316 -0.762,-3.592 -0.413,-2.449 -0.87,-4.963 -1.233,-7.449 12.043,0.256 19.319,4.859 19.319,4.859 l 0.447,-2.113 c 8.045,4.662 8.887,10.482 8.887,10.482 L 25.067,6.179 9.185,2.3 Z"
             style="fill:#ffc986;fill-opacity:1;fill-rule:nonzero;stroke:none"
             id="path556"
             inkscape:connector-curvature="0" /></g><g
           id="g558"
           transform="translate(363.7822,237.0508)"><path
             d="m 0,0 c 0,-1.375 1.115,-2.489 2.489,-2.489 1.375,0 2.49,1.114 2.49,2.489 0,1.375 -1.115,2.489 -2.49,2.489 C 1.115,2.489 0,1.375 0,0"
             style="fill:#ffceaa;fill-opacity:1;fill-rule:nonzero;stroke:none"
             id="path560"
             inkscape:connector-curvature="0" /></g><g
           id="g562"
           transform="translate(381.7793,237.0508)"><path
             d="m 0,0 c 0,-1.375 1.114,-2.489 2.489,-2.489 1.375,0 2.49,1.114 2.49,2.489 0,1.375 -1.115,2.489 -2.49,2.489 C 1.114,2.489 0,1.375 0,0"
             style="fill:#ffceaa;fill-opacity:1;fill-rule:nonzero;stroke:none"
             id="path564"
             inkscape:connector-curvature="0" /></g><g
           id="g566"
           transform="translate(395.1963,248.1758)"><path
             d="m 0,0 c 0,0 -6.692,-9.65 -1.812,-26.745 1.693,0.991 3.309,2.122 4.82,3.358 z"
             style="fill:#ffc986;fill-opacity:1;fill-rule:nonzero;stroke:none"
             id="path568"
             inkscape:connector-curvature="0" /></g><g
           id="g570"
           transform="translate(382.3486,240.2031)"><path
             d="m 0,0 c -0.479,0 -0.866,0.388 -0.866,0.866 0,0.481 -0.39,0.873 -0.87,0.873 -0.481,0 -0.873,-0.392 -0.873,-0.873 C -2.609,0.388 -2.997,0 -3.476,0 c -0.478,0 -0.866,0.388 -0.866,0.866 0,1.437 1.169,2.606 2.606,2.606 1.434,0 2.602,-1.169 2.602,-2.606 C 0.866,0.388 0.479,0 0,0"
             style="fill:#002591;fill-opacity:1;fill-rule:nonzero;stroke:none"
             id="path572"
             inkscape:connector-curvature="0" /></g><g
           id="g574"
           transform="translate(370.5605,240.2031)"><path
             d="m 0,0 c -0.479,0 -0.866,0.388 -0.866,0.866 0,0.481 -0.391,0.873 -0.871,0.873 -0.481,0 -0.872,-0.392 -0.872,-0.873 C -2.609,0.388 -2.998,0 -3.476,0 c -0.478,0 -0.866,0.388 -0.866,0.866 0,1.437 1.168,2.606 2.605,2.606 1.434,0 2.603,-1.169 2.603,-2.606 C 0.866,0.388 0.478,0 0,0"
             style="fill:#002591;fill-opacity:1;fill-rule:nonzero;stroke:none"
             id="path576"
             inkscape:connector-curvature="0" /></g><g
           id="g578"
           transform="translate(366.6104,240.666)"><path
             d="M 0,0 C 0.379,0 0.643,0.06 0.671,0.066 0.888,0.118 1.022,0.335 0.972,0.552 0.919,0.769 0.699,0.904 0.486,0.854 0.429,0.84 -0.932,0.547 -1.692,1.626 -1.822,1.81 -2.076,1.855 -2.255,1.724 -2.438,1.596 -2.483,1.343 -2.354,1.161 -1.665,0.184 -0.661,0 0,0"
             style="fill:#002591;fill-opacity:1;fill-rule:nonzero;stroke:none"
             id="path580"
             inkscape:connector-curvature="0" /></g><g
           id="g582"
           transform="translate(366.7734,241.6689)"><path
             d="M 0,0 C 0.366,-0.095 0.637,-0.103 0.666,-0.104 0.889,-0.107 1.073,0.068 1.078,0.291 1.082,0.514 0.903,0.701 0.684,0.705 0.625,0.706 -0.765,0.764 -1.23,1.998 -1.311,2.209 -1.546,2.317 -1.751,2.234 -1.961,2.156 -2.067,1.923 -1.987,1.714 -1.566,0.596 -0.641,0.166 0,0"
             style="fill:#002591;fill-opacity:1;fill-rule:nonzero;stroke:none"
             id="path584"
             inkscape:connector-curvature="0" /></g><g
           id="g586"
           transform="translate(373.2871,239.54)"><path
             d="m 0,0 h -2.019 c -0.936,0 -1.703,-0.767 -1.703,-1.703 0,-0.938 0.767,-1.704 1.703,-1.704 H 0 Z"
             style="fill:#ffb698;fill-opacity:1;fill-rule:nonzero;stroke:none"
             id="path588"
             inkscape:connector-curvature="0" /></g><g
           id="g590"
           transform="translate(409.1543,255.998)"><path
             d="m 0,0 h -1.36 c -2.287,0.007 -4.499,0.291 -6.641,0.828 -0.432,-0.506 -0.864,-1.011 -1.331,-1.475 -1.528,-1.52 -3.078,-3.02 -4.626,-4.52 1.386,-1.283 2.639,-1.589 2.639,-1.589 -2.763,-5.401 0.92,-9.198 0.92,-9.198 0.315,2.936 2.495,5.152 4.521,5.378 1.472,0.164 3.562,-0.466 3.834,-2.976 0.637,-5.873 -6.199,-7.925 -6.199,-7.925 -1.847,-3.744 0.521,-6.768 0.521,-6.768 l 2.876,2.59 c 0.008,0.024 0.018,0.049 0.026,0.073 l 0.439,-1.064 c 1.741,2.385 2.434,5.17 2.434,5.17 l 0.08,-2.135 c 12.48,11.93 5.498,21.836 4.01,23.663 C 1.435,0.01 0.727,-0.027 0,0"
             style="fill:#0033ad;fill-opacity:1;fill-rule:nonzero;stroke:none"
             id="path592"
             inkscape:connector-curvature="0" /></g><g
           id="g594"
           transform="translate(381.4795,213.3828)"><path
             d="m 0,0 -9.016,-19.757 c 0,0 -1.163,-5.501 6.429,-6.285 7.592,-0.784 6.352,8.852 6.352,8.852 z"
             style="fill:#009bf3;fill-opacity:1;fill-rule:nonzero;stroke:none"
             id="path596"
             inkscape:connector-curvature="0" /></g><g
           id="g598"
           transform="translate(0.6099,168.6895)"><path
             d="m 0,0 h 346.081 c 0,0 43.486,3.712 60.225,-52.992 7.147,-24.207 19.06,-32.541 32.352,-34.107"
             style="fill:none;stroke:#0093e7;stroke-width:2;stroke-linecap:round;stroke-linejoin:round;stroke-miterlimit:10;stroke-dasharray:none;stroke-opacity:1"
             id="path600"
             inkscape:connector-curvature="0" /></g><g
           id="g602"><g
             id="g604" /><g
             id="g616"><g
               clip-path="url(#clipPath608)"
               id="g614"
               style="opacity:0.24000501"><g
                 transform="translate(398.25,212.5479)"
                 id="g612"><path
                   d="m 0,0 c -7.946,-1.561 -5.86,-23.291 -5.86,-23.291 l 1.693,0.179 c -0.033,-3.754 -1.441,-25.952 -29.918,-23.925 -4.547,-0.212 -4.373,0.296 -4.789,-0.68 6.864,-2.574 42.639,-13.039 45.514,25.744 l 1.264,0.134 c 0,0 0.038,1.042 0.019,2.66 C 6.876,-13.188 4.94,-7.28 1.633,-2.11 1.115,-1.302 0.565,-0.608 0,0"
                   style="fill:#005ad6;fill-opacity:1;fill-rule:nonzero;stroke:none"
                   id="path610"
                   inkscape:connector-curvature="0" /></g></g></g></g><g
           id="g618"><g
             id="g620" /><g
             id="g632"><g
               clip-path="url(#clipPath624)"
               id="g630"
               style="opacity:0.24000501"><g
                 transform="translate(279.9668,212.5908)"
                 id="g628"><path
                   d="m 0,0 c -7.829,-1.562 -4.103,-23.312 -4.103,-23.312 l 1.681,0.179 c 0.25,-3.757 0.518,-25.972 -28.112,-23.944 -0.502,-1.897 -0.159,-0.919 -0.502,-1.897 6.613,-2.584 39.141,-8.643 39.334,26.983 l 1.255,0.134 c 0,0 -0.041,1.043 -0.183,2.662 C 7.871,-13.199 5.489,-7.287 1.792,-2.112 1.213,-1.304 0.611,-0.609 0,0"
                   style="fill:#005ad6;fill-opacity:1;fill-rule:nonzero;stroke:none"
                   id="path626"
                   inkscape:connector-curvature="0" /></g></g></g></g><g
           id="g634"><g
             id="g636" /><g
             id="g648"><g
               clip-path="url(#clipPath640)"
               id="g646"
               style="opacity:0.24000501"><g
                 transform="translate(168.1621,212.5908)"
                 id="g644"><path
                   d="m 0,0 c -7.829,-1.562 -4.103,-23.312 -4.103,-23.312 l 1.681,0.179 c 0.25,-3.757 0.517,-25.972 -28.112,-23.944 -0.502,-1.897 -0.159,-0.919 -0.502,-1.897 6.613,-2.584 39.141,-8.643 39.334,26.983 l 1.255,0.134 c 0,0 -0.041,1.043 -0.182,2.662 C 8.569,-13.43 7.605,-9.121 3.92,-3.026 3.405,-2.176 0.611,-0.609 0,0"
                   style="fill:#005ad6;fill-opacity:1;fill-rule:nonzero;stroke:none"
                   id="path642"
                   inkscape:connector-curvature="0" /></g></g></g></g><g
           id="g650"
           transform="translate(274.8613,190.457)"><path
             d="m 0,0 c 0,0 0.044,-28.24 -33.048,-20.548 l -1.087,-4.061 c 0,0 40.46,-16.413 45.003,24.684 C 4.874,9.784 3.753,2.999 3.753,2.999 Z"
             style="fill:#ffdfa6;fill-opacity:1;fill-rule:nonzero;stroke:none"
             id="path652"
             inkscape:connector-curvature="0" /></g><g
           id="g654"
           transform="translate(274.8379,189.8291)"><path
             d="m 0,0 10.43,-2.515 c 0.175,1.037 0.338,2.097 0.462,3.218 -0.81,1.312 -1.524,2.301 -2.164,3.068 L 3.776,3.627 0.018,0.383 C 0.015,0.283 0.009,0.158 0,0"
             style="fill:#ffbf86;fill-opacity:1;fill-rule:nonzero;stroke:none"
             id="path656"
             inkscape:connector-curvature="0" /></g><g
           id="g658"
           transform="translate(274.5049,189.9092)"><path
             d="m 0,0 10.959,-0.129 c 0.796,-0.01 1.455,0.611 1.479,1.407 0.154,5.07 0.133,21.907 -6.959,21.408 C -0.687,22.252 -1.308,6.198 -1.354,1.374 -1.361,0.619 -0.754,0.009 0,0"
             style="fill:#009bf3;fill-opacity:1;fill-rule:nonzero;stroke:none"
             id="path660"
             inkscape:connector-curvature="0" /></g><g
           id="g662"
           transform="translate(232.0952,172.7744)"><path
             d="m 0,0 c -0.973,0.259 -2.009,0.125 -2.885,-0.373 l -2.448,-1.898 h 1.017 c 1.067,0 1.853,-0.998 1.602,-2.034 -0.219,-0.903 -1.025,-1.54 -1.954,-1.544 l -7.84,-0.029 3.74,-3.407 c 0.755,-0.57 1.676,-0.878 2.622,-0.878 h 1.109 l 4.489,-1.134 11.53,3.551 2.261,4.174 z"
             style="fill:#ffdfa6;fill-opacity:1;fill-rule:nonzero;stroke:none"
             id="path664"
             inkscape:connector-curvature="0" /></g><g
           id="g666"
           transform="translate(224.9551,162.7266)"><path
             d="M 0,0 7.012,0.279 3.663,-0.51 Z"
             style="fill:#ffc27d;fill-opacity:1;fill-rule:nonzero;stroke:none"
             id="path668"
             inkscape:connector-curvature="0" /></g><g
           id="g670"
           transform="translate(197.8657,167.5791)"><path
             d="m 0,0 -2.623,-0.396 c 0,0 -1.575,2.239 0.55,5.242 0,0 -0.603,1.764 -2.57,0.435 0,0 -2.709,-2.336 -1.249,-7.418 l 0.265,-0.112 c 1.639,-0.702 3.539,-0.287 4.712,1.056 C -0.623,-0.859 -0.316,-0.465 0,0"
             style="fill:#ffdfa6;fill-opacity:1;fill-rule:nonzero;stroke:none"
             id="path672"
             inkscape:connector-curvature="0" /></g><g
           id="g674"
           transform="translate(195.793,172.4248)"><path
             d="M 0,0 C 0,0 -0.099,0.272 -0.333,0.523 -0.514,0.43 -0.707,0.302 -0.917,0.12 c 0,0 -2.172,-2.38 -0.322,-6.766 l 0.248,-0.072 c 0.382,-0.112 0.769,-0.159 1.151,-0.149 0.367,0.217 0.705,0.494 0.998,0.828 0.292,0.334 0.598,0.728 0.915,1.194 L -0.55,-5.241 c 0,0 -1.575,2.238 0.55,5.241"
             style="fill:#ffc490;fill-opacity:1;fill-rule:nonzero;stroke:none"
             id="path676"
             inkscape:connector-curvature="0" /></g><g
           id="g678"
           transform="translate(200.0869,166.8896)"><path
             d="m 0,0 h -2.388 c 0,0 -1.102,2.204 1.194,4.593 0,0 -0.301,1.651 -2.229,0.733 0,0 -2.727,-1.716 -2.11,-6.436 l 0.22,-0.136 C -3.947,-2.092 -2.2,-1.978 -0.975,-0.939 -0.67,-0.682 -0.344,-0.372 0,0"
             style="fill:#ffdfa6;fill-opacity:1;fill-rule:nonzero;stroke:none"
             id="path680"
             inkscape:connector-curvature="0" /></g><g
           id="g682"
           transform="translate(200.0869,166.8896)"><path
             d="m 0,0 h -2.388 c 0,0 -1.102,2.204 1.194,4.593 0,0 -0.116,0.581 -0.611,0.86 -0.48,-0.515 -2.109,-2.621 -0.956,-6.55 l 0.239,-0.099 c 0.258,-0.11 0.527,-0.149 0.794,-0.198 0.261,0.13 0.523,0.259 0.753,0.455 C -0.67,-0.682 -0.344,-0.372 0,0"
             style="fill:#ffc490;fill-opacity:1;fill-rule:nonzero;stroke:none"
             id="path684"
             inkscape:connector-curvature="0" /></g><g
           id="g686"
           transform="translate(202.8984,166.8896)"><path
             d="m 0,0 h -2.388 c 0,0 -1.102,2.204 1.194,4.593 0,0 -0.3,1.651 -2.229,0.733 0,0 -2.727,-1.716 -2.109,-6.436 l 0.22,-0.136 C -3.947,-2.092 -2.2,-1.978 -0.975,-0.939 -0.67,-0.682 -0.344,-0.372 0,0"
             style="fill:#ffdfa6;fill-opacity:1;fill-rule:nonzero;stroke:none"
             id="path688"
             inkscape:connector-curvature="0" /></g><g
           id="g690"
           transform="translate(264.0576,232.0156)"><path
             d="m 0,0 -12.335,-2.378 c 0.095,-0.235 0.221,-0.451 0.341,-0.67 l 11.556,0.767 C -0.084,-1.524 -0.002,-0.796 0,0"
             style="fill:#ffffff;fill-opacity:1;fill-rule:nonzero;stroke:none"
             id="path692"
             inkscape:connector-curvature="0" /></g><g
           id="g694"
           transform="translate(263.9023,230.5352)"><path
             d="M 0,0 C 0.164,0.592 0.23,1.053 0.231,1.554 L -12.18,-0.897 C -5.699,0.377 -1.449,0.14 0,0"
             style="fill:#d5deff;fill-opacity:1;fill-rule:nonzero;stroke:none"
             id="path696"
             inkscape:connector-curvature="0" /></g><g
           id="g698"
           transform="translate(163.2476,190.4834)"><path
             d="m 0,0 c 0,0 0.044,-28.239 -33.048,-20.548 l -1.087,-4.061 c 0,0 40.46,-16.413 45.004,24.685 C 4.875,9.784 3.753,2.999 3.753,2.999 Z"
             style="fill:#ffdfa6;fill-opacity:1;fill-rule:nonzero;stroke:none"
             id="path700"
             inkscape:connector-curvature="0" /></g><g
           id="g702"
           transform="translate(163.2246,189.8555)"><path
             d="m 0,0 10.43,-2.515 c 0.175,1.037 0.338,2.097 0.462,3.219 -0.81,1.311 -1.523,2.3 -2.164,3.067 L 3.776,3.627 0.018,0.383 C 0.014,0.283 0.009,0.159 0,0"
             style="fill:#ffbf86;fill-opacity:1;fill-rule:nonzero;stroke:none"
             id="path704"
             inkscape:connector-curvature="0" /></g><g
           id="g706"
           transform="translate(162.8916,189.9355)"><path
             d="m 0,0 10.959,-0.129 c 0.796,-0.01 1.455,0.612 1.479,1.407 0.154,5.07 0.133,21.908 -6.96,21.408 C -0.688,22.252 -1.308,6.199 -1.354,1.374 -1.362,0.619 -0.754,0.009 0,0"
             style="fill:#e9efff;fill-opacity:1;fill-rule:nonzero;stroke:none"
             id="path708"
             inkscape:connector-curvature="0" /></g><g
           id="g710"
           transform="translate(120.4814,172.8008)"><path
             d="m 0,0 c -0.973,0.26 -2.009,0.125 -2.884,-0.373 l -2.449,-1.898 h 1.018 c 1.066,10e-4 1.852,-0.998 1.601,-2.034 -0.219,-0.903 -1.025,-1.54 -1.954,-1.544 l -7.84,-0.029 3.741,-3.407 c 0.755,-0.569 1.675,-0.878 2.621,-0.878 h 1.109 l 4.49,-1.134 11.529,3.551 2.261,4.174 z"
             style="fill:#ffdfa6;fill-opacity:1;fill-rule:nonzero;stroke:none"
             id="path712"
             inkscape:connector-curvature="0" /></g><g
           id="g714"
           transform="translate(113.3418,162.7529)"><path
             d="M 0,0 7.011,0.279 3.663,-0.509 Z"
             style="fill:#ffc27d;fill-opacity:1;fill-rule:nonzero;stroke:none"
             id="path716"
             inkscape:connector-curvature="0" /></g><g
           id="g718"
           transform="translate(391.8867,190.4834)"><path
             d="m 0,0 c 0,0 0.045,-28.239 -33.048,-20.548 l -1.087,-4.061 c 0,0 40.46,-16.413 45.004,24.685 C 4.874,9.784 3.753,2.999 3.753,2.999 Z"
             style="fill:#ffdfa6;fill-opacity:1;fill-rule:nonzero;stroke:none"
             id="path720"
             inkscape:connector-curvature="0" /></g><g
           id="g722"
           transform="translate(391.8633,189.8555)"><path
             d="m 0,0 10.431,-2.515 c 0.175,1.037 0.338,2.097 0.461,3.219 -0.809,1.311 -1.523,2.3 -2.164,3.067 L 3.776,3.627 0.018,0.383 C 0.015,0.283 0.01,0.159 0,0"
             style="fill:#ffbf86;fill-opacity:1;fill-rule:nonzero;stroke:none"
             id="path724"
             inkscape:connector-curvature="0" /></g><g
           id="g726"
           transform="translate(391.5312,189.9355)"><path
             d="m 0,0 10.958,-0.129 c 0.796,-0.01 1.456,0.612 1.48,1.407 0.154,5.07 0.133,21.908 -6.96,21.408 C -0.688,22.252 -1.309,6.199 -1.354,1.374 -1.362,0.619 -0.755,0.009 0,0"
             style="fill:#006ce2;fill-opacity:1;fill-rule:nonzero;stroke:none"
             id="path728"
             inkscape:connector-curvature="0" /></g><g
           id="g730"
           transform="translate(349.1211,172.8008)"><path
             d="m 0,0 c -0.974,0.26 -2.01,0.125 -2.885,-0.373 l -2.449,-1.898 h 1.019 c 1.066,10e-4 1.851,-0.998 1.6,-2.034 -0.218,-0.903 -1.024,-1.54 -1.953,-1.544 l -7.84,-0.029 3.74,-3.407 c 0.755,-0.569 1.675,-0.878 2.622,-0.878 h 1.109 l 4.489,-1.134 11.529,3.551 2.261,4.174 z"
             style="fill:#ffdfa6;fill-opacity:1;fill-rule:nonzero;stroke:none"
             id="path732"
             inkscape:connector-curvature="0" /></g><g
           id="g734"
           transform="translate(361.4014,169.4883)"><path
             d="m 0,0 c 0,0 0.047,-3.02 -1.299,-4.434 l 1.463,-0.438 c 0,0 1.472,1.309 1.463,4.507 z"
             style="fill:#0033ad;fill-opacity:1;fill-rule:nonzero;stroke:none"
             id="path736"
             inkscape:connector-curvature="0" /></g><g
           id="g738"
           transform="translate(341.9805,162.7529)"><path
             d="M 0,0 7.012,0.279 3.664,-0.509 Z"
             style="fill:#ffc27d;fill-opacity:1;fill-rule:nonzero;stroke:none"
             id="path740"
             inkscape:connector-curvature="0" /></g><g
           id="g742"
           transform="translate(402.0098,248.6797)"><path
             d="m 0,0 c 0,0 -6.432,-12.036 2.324,-18.264 10.325,-7.343 12.86,-16.382 6.806,-23.192 0,0 -23.708,8.063 -15.943,43.607"
             style="fill:#0033ad;fill-opacity:1;fill-rule:nonzero;stroke:none"
             id="path744"
             inkscape:connector-curvature="0" /></g><g
           id="g746"
           transform="translate(392.5488,253.894)"><path
             d="m 0,0 c -2.034,-3.961 2.647,-5.718 2.647,-5.718 0,0 -0.08,-0.102 -0.19,-0.253 2.226,0.618 4.519,0.98 6.835,0.98 0.493,0 0.971,-0.049 1.456,-0.074 l 1.595,1.116 0.612,0.309 3.508,0.963 1.31,2.034 V 2.932 L 17.474,4.929 C 15.242,15.755 1.341,22.061 -9.334,20.353 -23.91,18.021 -31.029,7.799 -31.029,-1.342 c 0,-6.22 1.185,-7.293 1.185,-7.293 C -8.887,-10.482 0,0 0,0"
             style="fill:#0033ad;fill-opacity:1;fill-rule:nonzero;stroke:none"
             id="path748"
             inkscape:connector-curvature="0" /></g><g
           id="g750"
           transform="translate(392.5488,253.894)"><path
             d="m 0,0 c 0,0 -2.857,-5.087 -8.535,-8.119 l -0.352,2.542 4.033,3.77 z"
             style="fill:#0033ad;fill-opacity:1;fill-rule:nonzero;stroke:none"
             id="path752"
             inkscape:connector-curvature="0" /></g><g
           id="g754"
           transform="translate(368.4111,232.7187)"><path
             d="m 0,0 c -0.012,-0.307 -0.03,-0.61 -0.001,-0.921 0.325,-3.485 3.216,-5.912 6.58,-5.599 3.487,0.327 6.472,3.487 6.553,7.267 0.008,0.337 -0.039,0.654 -0.077,0.977 z"
             style="fill:#ffc88c;fill-opacity:1;fill-rule:nonzero;stroke:none"
             id="path756"
             inkscape:connector-curvature="0" /></g><g
           id="g758"
           transform="translate(381.9092,232.8408)"><path
             d="m 0,0 c -0.159,0.026 -0.301,0.139 -0.356,0.304 -0.357,1.063 -1.36,1.502 -1.37,1.507 -0.23,0.098 -0.339,0.364 -0.242,0.597 0.098,0.229 0.36,0.344 0.595,0.242 C -1.316,2.629 0.018,2.061 0.509,0.595 0.588,0.355 0.46,0.098 0.222,0.017 0.147,-0.007 0.072,-0.013 0,0"
             style="fill:#ffc88c;fill-opacity:1;fill-rule:nonzero;stroke:none"
             id="path760"
             inkscape:connector-curvature="0" /></g><g
           id="g762"
           transform="translate(368.4121,232.7158)"><path
             d="m 0,0 c -0.014,-0.287 -0.034,-0.574 -0.007,-0.869 0.319,-3.428 3.359,-5.948 6.787,-5.628 3.428,0.319 5.949,3.358 5.628,6.786 -0.027,0.295 -0.1,0.572 -0.166,0.853 z"
             style="fill:#002591;fill-opacity:1;fill-rule:nonzero;stroke:none"
             id="path764"
             inkscape:connector-curvature="0" /></g><g
           id="g766"
           transform="translate(368.4121,232.7158)"><path
             d="m 0,0 c -0.014,-0.287 -0.034,-0.574 -0.007,-0.868 0.068,-0.72 0.278,-1.386 0.562,-2.007 l 11.7,1.089 c 0.165,0.663 0.221,1.356 0.153,2.075 -0.027,0.295 -0.1,0.572 -0.166,0.853 z"
             style="fill:#ffffff;fill-opacity:1;fill-rule:nonzero;stroke:none"
             id="path768"
             inkscape:connector-curvature="0" /></g><g
           id="g770"
           transform="translate(368.4092,232.3145)"><path
             d="m 0,0 12.392,-0.665 c 0.063,0.441 0.063,0.892 0.019,1.355 -0.027,0.295 -0.066,0.614 -0.132,0.894 L 0.003,0.401 C -0.003,0.269 0.003,0.134 0,0"
             style="fill:#d5deff;fill-opacity:1;fill-rule:nonzero;stroke:none"
             id="path772"
             inkscape:connector-curvature="0" /></g><g
           id="g774"
           transform="translate(372.4639,226.5947)"><path
             d="M 0,0 C 0.848,-0.313 1.769,-0.466 2.729,-0.376 3.334,-0.319 3.896,-0.152 4.435,0.061 4.101,1.079 3.14,1.789 2.027,1.686 1.039,1.594 0.262,0.898 0,0"
             style="fill:#ff547b;fill-opacity:1;fill-rule:nonzero;stroke:none"
             id="path776"
             inkscape:connector-curvature="0" /></g><g
           id="g778"
           transform="translate(382.8057,240.666)"><path
             d="m 0,0 c -0.378,0 -0.642,0.06 -0.671,0.066 -0.216,0.052 -0.35,0.269 -0.3,0.486 0.052,0.217 0.272,0.352 0.486,0.302 C -0.429,0.84 0.932,0.547 1.692,1.626 1.822,1.81 2.077,1.855 2.256,1.724 2.439,1.596 2.483,1.343 2.354,1.161 1.666,0.184 0.661,0 0,0"
             style="fill:#002591;fill-opacity:1;fill-rule:nonzero;stroke:none"
             id="path780"
             inkscape:connector-curvature="0" /></g><g
           id="g782"
           transform="translate(382.6436,241.6689)"><path
             d="m 0,0 c -0.366,-0.095 -0.637,-0.103 -0.666,-0.104 -0.223,-0.003 -0.407,0.172 -0.413,0.395 -0.004,0.223 0.175,0.41 0.394,0.414 0.059,0.001 1.45,0.059 1.915,1.293 C 1.311,2.209 1.545,2.317 1.751,2.234 1.961,2.156 2.067,1.923 1.987,1.714 1.566,0.596 0.64,0.166 0,0"
             style="fill:#002591;fill-opacity:1;fill-rule:nonzero;stroke:none"
             id="path784"
             inkscape:connector-curvature="0" /></g><g
           id="g786"
           transform="translate(320.0713,167.5791)"><path
             d="m 0,0 -2.622,-0.396 c 0,0 -1.576,2.239 0.55,5.242 0,0 -0.604,1.764 -2.57,0.435 0,0 -2.71,-2.336 -1.25,-7.418 l 0.265,-0.112 c 1.64,-0.702 3.539,-0.287 4.713,1.056 C -0.622,-0.859 -0.316,-0.465 0,0"
             style="fill:#ffdfa6;fill-opacity:1;fill-rule:nonzero;stroke:none"
             id="path788"
             inkscape:connector-curvature="0" /></g><g
           id="g790"
           transform="translate(317.999,172.4248)"><path
             d="M 0,0 C 0,0 -0.1,0.272 -0.334,0.523 -0.514,0.43 -0.707,0.302 -0.917,0.12 c 0,0 -2.172,-2.38 -0.322,-6.766 l 0.249,-0.072 c 0.381,-0.112 0.768,-0.159 1.149,-0.149 0.368,0.217 0.706,0.494 0.999,0.828 0.292,0.334 0.599,0.728 0.914,1.194 L -0.55,-5.241 c 0,0 -1.576,2.238 0.55,5.241"
             style="fill:#ffc490;fill-opacity:1;fill-rule:nonzero;stroke:none"
             id="path792"
             inkscape:connector-curvature="0" /></g><g
           id="g794"
           transform="translate(322.293,166.8896)"><path
             d="m 0,0 h -2.389 c 0,0 -1.101,2.204 1.195,4.593 0,0 -0.301,1.651 -2.23,0.733 0,0 -2.726,-1.716 -2.109,-6.436 l 0.221,-0.136 C -3.947,-2.092 -2.2,-1.978 -0.975,-0.939 -0.67,-0.682 -0.345,-0.372 0,0"
             style="fill:#ffdfa6;fill-opacity:1;fill-rule:nonzero;stroke:none"
             id="path796"
             inkscape:connector-curvature="0" /></g><g
           id="g798"
           transform="translate(322.293,166.8896)"><path
             d="m 0,0 h -2.389 c 0,0 -1.101,2.204 1.195,4.593 0,0 -0.116,0.581 -0.612,0.86 -0.479,-0.515 -2.108,-2.621 -0.955,-6.55 l 0.239,-0.099 c 0.257,-0.11 0.527,-0.149 0.794,-0.198 0.261,0.13 0.523,0.259 0.753,0.455 C -0.67,-0.682 -0.345,-0.372 0,0"
             style="fill:#ffc490;fill-opacity:1;fill-rule:nonzero;stroke:none"
             id="path800"
             inkscape:connector-curvature="0" /></g><g
           id="g802"
           transform="translate(325.1045,166.8896)"><path
             d="m 0,0 h -2.388 c 0,0 -1.102,2.204 1.194,4.593 0,0 -0.3,1.651 -2.229,0.733 0,0 -2.727,-1.716 -2.109,-6.436 l 0.22,-0.136 C -3.947,-2.092 -2.2,-1.978 -0.975,-0.939 -0.67,-0.682 -0.345,-0.372 0,0"
             style="fill:#ffdfa6;fill-opacity:1;fill-rule:nonzero;stroke:none"
             id="path804"
             inkscape:connector-curvature="0" /></g><g
           id="g806"
           transform="translate(250.9048,189.9736)"><path
             d="m 0,0 c 0,-0.499 -0.405,-0.904 -0.905,-0.904 -0.499,0 -0.905,0.405 -0.905,0.904 0,0.5 0.406,0.905 0.905,0.905 C -0.405,0.905 0,0.5 0,0"
             style="fill:#009bf3;fill-opacity:1;fill-rule:nonzero;stroke:none"
             id="path808"
             inkscape:connector-curvature="0" /></g><g
           id="g810"
           transform="translate(250.5591,189.9736)"><path
             d="m 0,0 c 0,-0.309 -0.25,-0.559 -0.559,-0.559 -0.309,0 -0.559,0.25 -0.559,0.559 0,0.309 0.25,0.56 0.559,0.56 C -0.25,0.56 0,0.309 0,0"
             style="fill:#00d7fa;fill-opacity:1;fill-rule:nonzero;stroke:none"
             id="path812"
             inkscape:connector-curvature="0" /></g><g
           id="g814"><g
             id="g816" /><g
             id="g904" /></g></g></g><text
       transform="matrix(0.90910938,0,0,-1,151.5532,426.7417)"
       style="font-variant:normal;font-weight:normal;font-stretch:normal;font-size:33.96279907px;font-family:'Fredoka One';-inkscape-font-specification:FredokaOne-Regular;writing-mode:lr-tb;fill:#4ff9ff;fill-opacity:1;fill-rule:nonzero;stroke:none"
       id="text908"><tspan
         sodipodi:role="line"
         id="tspan906"
         x="0"
         y="30.049118" /></text>
</g></svg>