<?xml version="1.0" encoding="UTF-8" standalone="no"?>
<!-- Created with Inkscape (http://www.inkscape.org/) -->

<svg
   xmlns:dc="http://purl.org/dc/elements/1.1/"
   xmlns:cc="http://creativecommons.org/ns#"
   xmlns:rdf="http://www.w3.org/1999/02/22-rdf-syntax-ns#"
   xmlns:svg="http://www.w3.org/2000/svg"
   xmlns="http://www.w3.org/2000/svg"
   xmlns:sodipodi="http://sodipodi.sourceforge.net/DTD/sodipodi-0.dtd"
   xmlns:inkscape="http://www.inkscape.org/namespaces/inkscape"
   version="1.1"
   id="svg2"
   xml:space="preserve"
   width="666.66669"
   height="666.66669"
   viewBox="0 0 666.66669 666.66669"
   sodipodi:docname="teamWorkChat.svg"
   inkscape:version="0.92.3 (unknown)"><metadata
     id="metadata8"><rdf:RDF><cc:Work
         rdf:about=""><dc:format>image/svg+xml</dc:format><dc:type
           rdf:resource="http://purl.org/dc/dcmitype/StillImage" /><dc:title></dc:title></cc:Work></rdf:RDF></metadata><defs
     id="defs6"><clipPath
       clipPathUnits="userSpaceOnUse"
       id="clipPath20"><path
         d="M 0,500 H 500 V 0 H 0 Z"
         id="path18"
         inkscape:connector-curvature="0" /></clipPath><clipPath
       clipPathUnits="userSpaceOnUse"
       id="clipPath458"><path
         d="M 0,500 H 500 V 0 H 0 Z"
         id="path456"
         inkscape:connector-curvature="0" /></clipPath></defs><sodipodi:namedview
     pagecolor="#ffffff"
     bordercolor="#666666"
     borderopacity="1"
     objecttolerance="10"
     gridtolerance="10"
     guidetolerance="10"
     inkscape:pageopacity="0"
     inkscape:pageshadow="2"
     inkscape:window-width="1366"
     inkscape:window-height="705"
     id="namedview4"
     showgrid="false"
     inkscape:zoom="2.0025263"
     inkscape:cx="394.01528"
     inkscape:cy="117.43449"
     inkscape:window-x="0"
     inkscape:window-y="24"
     inkscape:window-maximized="1"
     inkscape:current-layer="g10" /><g
     id="g10"
     inkscape:groupmode="layer"
     inkscape:label="257180-P4N2ML-37"
     transform="matrix(1.3333333,0,0,-1.3333333,0,666.66667)"><path
       d="M 0,0 H 500 V 500 H 0 Z"
       style="fill:#eeeeee;fill-opacity:1;fill-rule:nonzero;stroke:none"
       id="path12"
       inkscape:connector-curvature="0" /><g
       id="g14"><g
         id="g16"
         clip-path="url(#clipPath20)"><g
           id="g22"
           transform="translate(406.1953,65.1426)"><path
             d="M 0,0 C 0,0 -88.02,-4.267 -196.598,-4.267 -305.176,-4.267 -393.195,0 -393.195,0 c 0,0 88.019,4.266 196.597,4.266 C -88.02,4.266 0,0 0,0"
             style="fill:#d3d3d3;fill-opacity:1;fill-rule:nonzero;stroke:none"
             id="path24"
             inkscape:connector-curvature="0" /></g><g
           id="g26"
           transform="translate(168.8599,265.8604)"><path
             d="m 0,0 17.722,22.317 17.882,4.657 0.124,-2.993 -9.959,-5.325 10.286,-2.741 13.538,7.255 1.946,-2.456 L 37.28,8.683 20.02,11.456 10.813,-3.557 Z"
             style="fill:#ffc1a0;fill-opacity:1;fill-rule:nonzero;stroke:none"
             id="path28"
             inkscape:connector-curvature="0" /></g><g
           id="g30"
           transform="translate(175.125,278.5503)"><path
             d="M 0,0 4.682,4.966 15.484,-7.988 11.46,-11.972 Z"
             style="fill:#ffffff;fill-opacity:1;fill-rule:nonzero;stroke:none"
             id="path32"
             inkscape:connector-curvature="0" /></g><g
           id="g34"
           transform="translate(188.4609,265.4287)"><path
             d="m 0,0 -14.675,14.439 c -4.906,-2.287 -23.079,-21.406 -30.875,-30.382 0,0 -4.184,36.444 -12.306,41.136 L -68.438,12.15 v -27.769 l 6.725,-22.002 c 0,0 8.051,-5.567 11.453,-4.686 3.403,0.881 18.164,13.688 18.164,13.688 h -0.001 C -16.972,-16.208 0,0 0,0"
             style="fill:#00de91;fill-opacity:1;fill-rule:nonzero;stroke:none"
             id="path36"
             inkscape:connector-curvature="0" /></g><g
           id="g38"
           transform="translate(171.0703,78.6543)"><path
             d="m 0,0 c -0.71,0.354 -1.373,0.686 -2.035,1.041 -0.403,0.213 -0.805,0.402 -1.183,0.615 -0.71,0.378 -1.372,0.734 -1.988,1.088 -0.497,0.261 -0.946,0.521 -1.373,0.781 -0.733,0.426 -1.372,0.805 -1.963,1.16 -1.515,0.922 -2.461,1.609 -2.722,1.845 0,0.024 -0.023,0.048 -0.047,0.072 -0.118,0.141 -0.189,0.354 -0.236,0.662 -0.114,0.599 0.022,1.514 0.296,2.628 h -10.645 l -5.08,-23.049 50.095,-0.355 0.047,4.946 C 14.647,-6.626 6.318,-3.147 0,0"
             style="fill:#d0d0dd;fill-opacity:1;fill-rule:nonzero;stroke:none"
             id="path40"
             inkscape:connector-curvature="0" /></g><g
           id="g42"
           transform="translate(172.0859,73.0928)"><path
             d="M 0,0 4.001,5.784 2.143,7.068 -1.858,1.284 Z"
             style="fill:#d0d0dd;fill-opacity:1;fill-rule:nonzero;stroke:none"
             id="path44"
             inkscape:connector-curvature="0" /></g><g
           id="g46"
           transform="translate(169.0186,74.96)"><path
             d="M 0,0 4,5.784 2.142,7.068 -1.859,1.284 Z"
             style="fill:#d0d0dd;fill-opacity:1;fill-rule:nonzero;stroke:none"
             id="path48"
             inkscape:connector-curvature="0" /></g><g
           id="g50"
           transform="translate(165.5981,76.7734)"><path
             d="m 0,0 4.001,5.784 -1.859,1.284 -4,-5.784 z"
             style="fill:#d0d0dd;fill-opacity:1;fill-rule:nonzero;stroke:none"
             id="path52"
             inkscape:connector-curvature="0" /></g><g
           id="g54"
           transform="translate(184.6562,186.5674)"><path
             d="m 0,0 c -5.285,10.57 -34.98,12.09 -34.98,12.09 l -52.357,7.241 c 0,0 -7.134,-29.241 1.785,-35.517 8.918,-6.276 55.493,-3.613 55.493,-3.613 l -9.579,-80.618 h 24.443 c 0,0 20.48,89.847 15.195,100.417"
             style="fill:#513e35;fill-opacity:1;fill-rule:nonzero;stroke:none"
             id="path56"
             inkscape:connector-curvature="0" /></g><path
           d="M 95.546,65.143 H 73.745 v 90.259 h 21.801 z"
           style="fill:#ffffff;fill-opacity:1;fill-rule:nonzero;stroke:none"
           id="path58"
           inkscape:connector-curvature="0" /><path
           d="M 95.546,65.143 H 73.745 V 77.68 h 21.801 z"
           style="fill:#d0d0dd;fill-opacity:1;fill-rule:nonzero;stroke:none"
           id="path60"
           inkscape:connector-curvature="0" /><path
           d="m 367.756,65.143 h -21.801 v 90.259 h 21.801 z"
           style="fill:#ffffff;fill-opacity:1;fill-rule:nonzero;stroke:none"
           id="path62"
           inkscape:connector-curvature="0" /><path
           d="M 367.756,65.143 H 345.955 V 77.68 h 21.801 z"
           style="fill:#d0d0dd;fill-opacity:1;fill-rule:nonzero;stroke:none"
           id="path64"
           inkscape:connector-curvature="0" /><g
           id="g66"
           transform="translate(296.8657,68.7666)"><path
             d="m 0,0 1.614,-3.624 c 0,0 20.916,13.284 22.092,16.581 l 1.217,-1.382 7.825,5.212 c 0,0 -4.979,6.658 -7.683,7.65 -0.048,0.023 -0.084,0.034 -0.132,0.044 L 6.184,89.02 -7.032,84.002 c 0,0 23.332,-61.312 23.026,-62.887 C 15.846,20.351 12.658,15.362 7.942,9.476 6.378,7.525 0,0 0,0"
             style="fill:#332e55;fill-opacity:1;fill-rule:nonzero;stroke:none"
             id="path68"
             inkscape:connector-curvature="0" /></g><g
           id="g70"
           transform="translate(304.8081,78.2422)"><path
             d="m 0,0 c 2.202,-1.276 5.073,-0.175 7.184,1.252 3.232,2.181 5.866,5.14 7.715,8.492 0.918,1.664 1.571,3.441 2.224,5.218 -0.048,0.022 -0.084,0.033 -0.133,0.044 L -1.759,79.544 -14.975,74.526 c 0,0 23.333,-61.311 23.026,-62.886 C 7.904,10.875 4.716,5.887 0,0"
             style="fill:#ffc1a0;fill-opacity:1;fill-rule:nonzero;stroke:none"
             id="path72"
             inkscape:connector-curvature="0" /></g><g
           id="g74"
           transform="translate(276.9761,72.1152)"><path
             d="m 0,0 1.614,-3.34 c 0,0 20.915,12.24 22.092,15.278 l 1.217,-1.273 7.825,4.803 c 0,0 -4.98,6.134 -7.683,7.048 -0.048,0.02 -0.085,0.031 -0.133,0.041 L 6.184,82.021 -7.032,77.397 c 0,0 23.332,-56.491 23.026,-57.943 C 15.846,18.75 12.658,14.154 7.942,8.73 6.378,6.934 0,0 0,0"
             style="fill:#211e40;fill-opacity:1;fill-rule:nonzero;stroke:none"
             id="path76"
             inkscape:connector-curvature="0" /></g><g
           id="g78"
           transform="translate(284.9185,80.8457)"><path
             d="m 0,0 c 2.202,-1.176 5.073,-0.161 7.184,1.153 3.232,2.01 5.866,4.736 7.715,7.825 0.918,1.534 1.571,3.17 2.224,4.807 -0.049,0.021 -0.085,0.031 -0.133,0.041 L -1.759,73.29 -14.975,68.667 c 0,0 23.333,-56.491 23.026,-57.943 C 7.904,10.02 4.716,5.424 0,0"
             style="fill:#ffc1a0;fill-opacity:1;fill-rule:nonzero;stroke:none"
             id="path80"
             inkscape:connector-curvature="0" /></g><g
           id="g82"
           transform="translate(274.3154,194.8535)"><path
             d="m 0,0 c 1.023,1.275 2.098,2.183 3.138,2.379 25.561,4.844 50.129,-4.106 50.129,-4.106 0,0 1.379,15.401 2.108,18.821 0,0 9.197,9.074 27.161,9.074 0,0 24.585,-20.601 20.171,-36.051 -4.415,-15.45 -20.384,-18.714 -25.996,-18.148 -30.432,3.066 -52.673,6.508 -56.591,7.257 -0.03,0.049 -0.06,0.1 -0.06,0.1 -0.794,0.095 -0.734,0.051 0.06,-0.1 0.653,-1.112 8.351,-14.273 16.581,-31.815 -6.818,-4.358 -14.028,-7.907 -21.503,-10.605 -4.883,16.73 -10.724,33.982 -16.761,45.631 C -4.497,-11.903 -3.988,-4.975 0,0"
             style="fill:#ff7292;fill-opacity:1;fill-rule:nonzero;stroke:none"
             id="path84"
             inkscape:connector-curvature="0" /></g><path
           d="M 385.729,151.938 H 53.974 v 11.696 h 331.755 z"
           style="fill:#d0d0dd;fill-opacity:1;fill-rule:nonzero;stroke:none"
           id="path86"
           inkscape:connector-curvature="0" /><path
           d="M 391.614,159.874 H 47.106 v 13.789 h 344.508 z"
           style="fill:#ffffff;fill-opacity:1;fill-rule:nonzero;stroke:none"
           id="path88"
           inkscape:connector-curvature="0" /><g
           id="g90"
           transform="translate(269.2793,137.9385)"><path
             d="m 0,0 25.703,7.342 -13.471,27.91 85.281,12.314 -7.425,13.153 c 0,0 -91.796,-2.892 -99.994,-11.832 C -18.104,39.947 0,0 0,0"
             style="fill:#211e40;fill-opacity:1;fill-rule:nonzero;stroke:none"
             id="path92"
             inkscape:connector-curvature="0" /></g><g
           id="g94"
           transform="translate(265.1978,143.3779)"><path
             d="M 0,0 27.292,11.204 31.49,1.729 4.925,-9.204 Z"
             style="fill:#d0d0dd;fill-opacity:1;fill-rule:nonzero;stroke:none"
             id="path96"
             inkscape:connector-curvature="0" /></g><g
           id="g98"
           transform="translate(234.9629,276.4097)"><path
             d="m 0,0 1.386,2.254 2.391,-0.235 1.802,1.569 14.145,-7.274 -1.93,7.955 2.449,1.097 4.305,-9.613 1.105,-7.428 18.907,-13.679 -4.575,-9.351 -19.537,16.653 -5.972,1.581 -11.27,10.286 0.882,1.919 z"
             style="fill:#ffc1a0;fill-opacity:1;fill-rule:nonzero;stroke:none"
             id="path100"
             inkscape:connector-curvature="0" /></g><g
           id="g102"
           transform="translate(324.2119,251.23)"><path
             d="m 0,0 c 0,0 -23.545,-20.096 -27.773,-20.136 -5.034,-0.053 -13.582,4.4 -19.912,8.166 -1.347,0.805 -2.603,1.572 -3.686,2.272 -2.629,1.665 -4.347,2.854 -4.347,2.854 l 7.241,12.182 4.809,-2.458 3.422,-1.743 10.029,-5.127 c 9.711,3.62 22.818,21.246 22.818,21.246 z"
             style="fill:#ec4c77;fill-opacity:1;fill-rule:nonzero;stroke:none"
             id="path104"
             inkscape:connector-curvature="0" /></g><g
           id="g106"
           transform="translate(283.9663,252.3667)"><path
             d="m 0,0 -7.439,-13.107 c -1.348,0.806 -2.603,1.572 -3.686,2.273 l 7.703,12.578 z"
             style="fill:#ffffff;fill-opacity:1;fill-rule:nonzero;stroke:none"
             id="path108"
             inkscape:connector-curvature="0" /></g><g
           id="g110"
           transform="translate(356.8511,221.0215)"><path
             d="m 0,0 c -17.964,0 -27.161,-9.074 -27.161,-9.074 -0.728,-3.42 -2.108,-18.821 -2.108,-18.821 0,0 -24.568,8.95 -50.128,4.106 -1.041,-0.196 -2.116,-1.104 -3.139,-2.379 -3.988,-4.975 -4.497,-11.903 -1.563,-17.563 6.037,-11.649 11.878,-28.901 16.762,-45.631 7.474,2.698 16.762,6.452 23.58,10.81 -8.23,17.542 -17.776,30.885 -17.776,30.885 3.919,-0.749 25.276,-3.466 55.708,-6.532 5.613,-0.566 21.582,2.698 25.996,18.148 C 24.585,-20.601 0,0 0,0"
             style="fill:#332e55;fill-opacity:1;fill-rule:nonzero;stroke:none"
             id="path112"
             inkscape:connector-curvature="0" /></g><g
           id="g114"
           transform="translate(308.1133,242.4766)"><path
             d="m 0,0 c 2.448,-10.049 13.487,-9.804 13.487,-9.804 v -0.01 c 0.085,-1.033 0.223,-2.066 0.415,-3.077 1.767,-9.527 7.675,-17.638 7.675,-17.638 19.001,0.128 27.166,9.069 27.166,9.069 -6.057,3.363 -7.675,12.465 -8.261,22.312 -0.117,1.959 -0.191,3.949 -0.255,5.929 v 0.011 c -0.128,4.385 -0.202,8.729 -0.5,12.582 C 38.62,33.723 23.355,41.27 23.355,41.27 L 10.826,33.351 C 10.017,27.954 -2.459,10.06 0,0"
             style="fill:#ff7292;fill-opacity:1;fill-rule:nonzero;stroke:none"
             id="path116"
             inkscape:connector-curvature="0" /></g><g
           id="g118"
           transform="translate(308.5181,198.9346)"><path
             d="M 0,0 -0.491,5.289 -42.643,1.379 -58.712,50.551 -65.867,48.634 -48.507,-4.5 Z"
             style="fill:#242143;fill-opacity:1;fill-rule:nonzero;stroke:none"
             id="path120"
             inkscape:connector-curvature="0" /></g><g
           id="g122"
           transform="translate(298.7109,203.6602)"><path
             d="m 0,0 c 3.586,-1.089 11.097,-2.766 18.379,-0.711 22.266,-0.661 47.513,-1.03 49.822,-0.678 3.447,0.524 4.033,1.925 4.033,1.925 1.516,2.557 1.871,6.331 1.719,10.048 -0.155,4.091 -0.924,8.114 -1.435,10.397 -0.272,1.205 -0.468,1.935 -0.468,1.935 l -11.5,1.231 c 0.389,-0.509 0.735,-2.156 1.019,-4.181 0.44,-3.135 0.751,-7.179 0.889,-9.24 0.057,-0.839 0.083,-1.35 0.083,-1.35 C 49.73,7.332 18.953,5.66 18.953,5.66 18.953,5.66 9.69,9.291 8.232,9.103 5.222,8.705 1.409,3.947 -0.497,2.241 -1.255,1.551 -0.989,0.293 0,0"
             style="fill:#ffdfc4;fill-opacity:1;fill-rule:nonzero;stroke:none"
             id="path124"
             inkscape:connector-curvature="0" /></g><g
           id="g126"
           transform="translate(361.1689,214.3857)"><path
             d="M 0,0 11.495,-0.142 C 11.34,3.949 10.571,7.973 10.06,10.256 L -0.889,9.24 C -0.449,6.105 -0.138,2.062 0,0"
             style="fill:#ffc1a0;fill-opacity:1;fill-rule:nonzero;stroke:none"
             id="path128"
             inkscape:connector-curvature="0" /></g><g
           id="g130"
           transform="translate(337.1738,260.3813)"><path
             d="m 0,0 c 11.422,-6.419 16.808,-21.152 19.214,-30.966 0.266,-1.096 0.5,-2.129 0.692,-3.087 0.809,-3.875 1.064,-6.44 1.064,-6.44 l 17.405,-0.831 c 0,0 0.202,2.661 0.021,6.728 -0.042,0.958 -0.096,1.98 -0.191,3.077 -0.554,6.737 -2.193,15.817 -6.696,23.429 C 23.174,6.014 15.839,11.72 7.473,16.063 5.716,16.979 3.981,17.649 2.459,18.139 -1.767,19.491 -6.472,17.553 -8.186,13.455 -9.687,9.868 -8.953,5.024 0,0"
             style="fill:#ff7292;fill-opacity:1;fill-rule:nonzero;stroke:none"
             id="path132"
             inkscape:connector-curvature="0" /></g><g
           id="g134"
           transform="translate(320.3057,295.9185)"><path
             d="m 0,0 c 0.785,-1.845 1.22,-4.042 1.442,-6.291 0.072,-0.81 0.12,-1.627 0.147,-2.441 0.182,-5.759 -0.797,-11.164 -0.797,-11.164 l 13.652,5.771 c -1.08,1.301 -2.681,4.932 -4.079,8.421 C 9.494,-3.532 8.703,-1.395 8.171,0.085 7.717,1.325 7.44,2.126 7.44,2.126 Z"
             style="fill:#ffdfc4;fill-opacity:1;fill-rule:nonzero;stroke:none"
             id="path136"
             inkscape:connector-curvature="0" /></g><g
           id="g138"
           transform="translate(321.748,289.6274)"><path
             d="M 0,0 C 0.071,-0.81 0.12,-1.627 0.147,-2.441 L 8.922,0.587 C 8.051,2.759 7.261,4.896 6.729,6.376 6.729,6.376 2.916,2.367 0,0"
             style="fill:#ffc1a0;fill-opacity:1;fill-rule:nonzero;stroke:none"
             id="path140"
             inkscape:connector-curvature="0" /></g><g
           id="g142"
           transform="translate(307.3042,315.8032)"><path
             d="m 0,0 c 0,0 -0.773,-9.775 -3.792,-11.183 -3.019,-1.409 2.873,-5.63 2.873,-5.63 0,0 -0.533,-17.952 12.032,-12.048 11.604,9.112 11.354,11.215 11.354,11.215 0,0 4.945,-0.271 5.745,3.106 0.801,3.377 -0.192,8.038 -5.047,5.743 0,0 -3.017,3.181 -3.38,6.553 -0.363,3.372 0.83,10.182 -4.461,9.753 C 10.033,7.08 0,0 0,0"
             style="fill:#ffdfc4;fill-opacity:1;fill-rule:nonzero;stroke:none"
             id="path144"
             inkscape:connector-curvature="0" /></g><g
           id="g146"
           transform="translate(315.9922,303.0508)"><path
             d="M 0,0 C -0.244,-1.477 0.755,-2.871 2.231,-3.115 3.708,-3.358 5.102,-2.359 5.346,-0.883 5.59,0.593 4.591,1.987 3.115,2.231 1.638,2.475 0.244,1.476 0,0"
             style="fill:#ffc1a0;fill-opacity:1;fill-rule:nonzero;stroke:none"
             id="path148"
             inkscape:connector-curvature="0" /></g><g
           id="g150"
           transform="translate(313.3164,334.8926)"><path
             d="m 0,0 c 0.388,0.127 0.763,0.223 1.143,0.331 l 0.003,0.02 c 4.687,1.66 9.285,1.748 13.368,1.104 8.149,-1.287 15.392,-5.91 20.447,-12.429 18.697,-24.111 -1.507,-32.268 -1.507,-32.268 L 13.835,-48.31 c 1.774,4.917 -0.591,22.475 -1.641,29.921 L -9.151,-22.16 c 0,0 -3.089,18.156 9.151,22.16"
             style="fill:#242143;fill-opacity:1;fill-rule:nonzero;stroke:none"
             id="path152"
             inkscape:connector-curvature="0" /></g><g
           id="g154"
           transform="translate(336.249,328.2393)"><path
             d="m 0,0 c 0,0 0.358,-0.251 0.997,-0.7 0.648,-0.426 1.542,-1.114 2.59,-1.99 1.057,-0.868 2.224,-1.994 3.439,-3.292 1.192,-1.325 2.418,-2.835 3.581,-4.514 1.141,-1.693 2.102,-3.385 2.902,-4.977 0.767,-1.605 1.392,-3.101 1.816,-4.401 0.435,-1.295 0.751,-2.378 0.913,-3.136 0.185,-0.759 0.289,-1.184 0.289,-1.184 0,0 0.022,0.439 0.061,1.22 0.046,0.79 0.007,1.937 -0.166,3.351 -0.161,1.417 -0.541,3.086 -1.161,4.885 -0.651,1.782 -1.563,3.686 -2.795,5.512 -1.253,1.812 -2.695,3.353 -4.118,4.608 C 6.898,-3.387 5.481,-2.426 4.22,-1.76 2.966,-1.084 1.911,-0.631 1.158,-0.387 0.417,-0.139 0,0 0,0"
             style="fill:#3a3750;fill-opacity:1;fill-rule:nonzero;stroke:none"
             id="path156"
             inkscape:connector-curvature="0" /></g><g
           id="g158"
           transform="translate(321.1548,320.8452)"><path
             d="m 0,0 c 0,0 -0.075,0.673 -0.06,1.615 0.004,0.951 0.169,2.14 0.332,3.49 0.16,1.352 0.249,2.666 0.273,3.668 0.027,0.998 -0.022,1.665 -0.022,1.665 0,0 -0.476,-0.463 -1.05,-1.321 C -1.093,8.262 -1.771,6.976 -1.964,5.365 -2.166,3.754 -1.725,2.213 -1.141,1.299 -0.856,0.835 -0.571,0.505 -0.347,0.304 -0.127,0.099 0,0 0,0"
             style="fill:#3a3750;fill-opacity:1;fill-rule:nonzero;stroke:none"
             id="path160"
             inkscape:connector-curvature="0" /></g><g
           id="g162"
           transform="translate(315.4995,320.7822)"><path
             d="M 0,0 C 0,0 -0.034,0.721 -0.001,1.755 0.026,2.798 0.18,4.128 0.405,5.55 0.638,6.97 0.909,8.281 1.21,9.28 c 0.294,0.992 0.553,1.666 0.553,1.666 0,0 -0.161,-0.089 -0.432,-0.239 C 1.051,10.547 0.675,10.275 0.257,9.877 -0.58,9.095 -1.528,7.687 -1.818,5.908 -2.102,4.127 -1.644,2.493 -1.095,1.487 -0.822,0.978 -0.551,0.602 -0.335,0.363 -0.125,0.135 0,0 0,0"
             style="fill:#3a3750;fill-opacity:1;fill-rule:nonzero;stroke:none"
             id="path164"
             inkscape:connector-curvature="0" /></g><g
           id="g166"
           transform="translate(309.8872,318.9141)"><path
             d="m 0,0 c 0,0 -0.029,0.207 -0.08,0.56 -0.063,0.347 -0.112,0.858 -0.148,1.458 -0.079,1.209 0.01,2.782 0.288,4.459 0.288,1.674 0.72,3.189 1.192,4.305 0.231,0.554 0.445,1.021 0.619,1.328 0.164,0.318 0.259,0.504 0.259,0.504 0,0 -0.187,-0.094 -0.509,-0.256 C 1.289,12.19 0.842,11.89 0.34,11.442 -0.664,10.564 -1.805,8.933 -2.161,6.852 -2.509,4.769 -1.966,2.854 -1.306,1.694 -0.979,1.107 -0.656,0.676 -0.397,0.409 -0.146,0.15 0,0 0,0"
             style="fill:#3a3750;fill-opacity:1;fill-rule:nonzero;stroke:none"
             id="path168"
             inkscape:connector-curvature="0" /></g><g
           id="g170"
           transform="translate(343.3804,312.3911)"><path
             d="M 0,0 C 0,0 0.168,-0.209 0.462,-0.574 0.754,-0.939 1.149,-1.482 1.571,-2.165 2.423,-3.527 3.305,-5.497 3.73,-7.735 4.157,-9.974 4.059,-12.13 3.767,-13.71 3.625,-14.5 3.457,-15.15 3.319,-15.597 3.18,-16.044 3.1,-16.3 3.1,-16.3 c 0,0 0.199,0.174 0.525,0.529 0.327,0.355 0.765,0.908 1.199,1.674 0.87,1.501 1.642,4.018 1.118,6.782 -0.527,2.763 -2.169,4.822 -3.53,5.898 C 1.728,-0.863 1.117,-0.509 0.683,-0.3 0.249,-0.089 0,0 0,0"
             style="fill:#3a3750;fill-opacity:1;fill-rule:nonzero;stroke:none"
             id="path172"
             inkscape:connector-curvature="0" /></g><g
           id="g174"
           transform="translate(340.8193,304.4766)"><path
             d="m 0,0 c 0,0 0.109,-0.755 0.099,-1.844 -0.003,-1.094 -0.184,-2.492 -0.598,-3.9 -0.412,-1.408 -1.014,-2.683 -1.602,-3.605 -0.578,-0.923 -1.078,-1.499 -1.078,-1.499 0,0 0.185,0.025 0.513,0.113 0.328,0.088 0.794,0.256 1.333,0.563 1.067,0.589 2.432,1.879 2.995,3.795 0.56,1.917 0.107,3.74 -0.473,4.812 C 0.901,-1.016 0.599,-0.623 0.37,-0.372 0.142,-0.121 0,0 0,0"
             style="fill:#3a3750;fill-opacity:1;fill-rule:nonzero;stroke:none"
             id="path176"
             inkscape:connector-curvature="0" /></g><g
           id="g178"
           transform="translate(341.209,278.3267)"><path
             d="m 0,0 -4.846,6.47 -17.578,-6.704 -1.93,-6.236 z"
             style="fill:#ffffff;fill-opacity:1;fill-rule:nonzero;stroke:none"
             id="path180"
             inkscape:connector-curvature="0" /></g><g
           id="g182"
           transform="translate(337.1738,260.3813)"><path
             d="m 0,0 11.422,-17.053 c -0.117,1.959 -0.192,3.949 -0.255,5.929 v 0.011 c 0,0 -6.079,7.558 -11.167,11.113"
             style="fill:#ec4c77;fill-opacity:1;fill-rule:nonzero;stroke:none"
             id="path184"
             inkscape:connector-curvature="0" /></g><g
           id="g186"
           transform="translate(356.3877,229.415)"><path
             d="m 0,0 c 0.266,-1.096 0.5,-2.129 0.692,-3.087 l 18.49,-0.543 c -0.042,0.958 -0.096,1.981 -0.191,3.077 z"
             style="fill:#ffffff;fill-opacity:1;fill-rule:nonzero;stroke:none"
             id="path188"
             inkscape:connector-curvature="0" /></g><g
           id="g190"
           transform="translate(321.6001,232.6621)"><path
             d="M 0,0 C 0.085,-1.032 0.224,-2.065 0.416,-3.076 4.791,-2.055 8.91,0.063 12.284,3.044 9.017,1.267 5.259,0.66 1.576,0.096 1.033,0.021 0.511,0.032 0,0"
             style="fill:#ec4c77;fill-opacity:1;fill-rule:nonzero;stroke:none"
             id="path192"
             inkscape:connector-curvature="0" /></g><g
           id="g194"
           transform="translate(285.9927,137.2109)"><path
             d="M 0,0 25.229,10.765 30.514,1.735 3.949,-9.198 Z"
             style="fill:#ffffff;fill-opacity:1;fill-rule:nonzero;stroke:none"
             id="path196"
             inkscape:connector-curvature="0" /></g><g
           id="g198"
           transform="translate(160.9395,78.6543)"><path
             d="m 0,0 c -0.71,0.354 -1.373,0.686 -2.035,1.041 -0.403,0.213 -0.805,0.402 -1.183,0.615 -0.71,0.378 -1.373,0.734 -1.988,1.088 -0.497,0.261 -0.946,0.521 -1.373,0.781 -0.733,0.426 -1.372,0.805 -1.963,1.16 -1.515,0.922 -2.461,1.609 -2.722,1.845 0,0.024 -0.023,0.048 -0.047,0.072 -0.118,0.141 -0.189,0.354 -0.236,0.662 -0.114,0.599 0.021,1.514 0.296,2.628 h -10.645 l -5.08,-23.049 50.095,-0.355 0.047,4.946 C 14.647,-6.626 6.318,-3.147 0,0"
             style="fill:#ffffff;fill-opacity:1;fill-rule:nonzero;stroke:none"
             id="path200"
             inkscape:connector-curvature="0" /></g><g
           id="g202"
           transform="translate(161.9551,73.0928)"><path
             d="M 0,0 4.001,5.784 2.143,7.068 -1.858,1.284 Z"
             style="fill:#d0d0dd;fill-opacity:1;fill-rule:nonzero;stroke:none"
             id="path204"
             inkscape:connector-curvature="0" /></g><g
           id="g206"
           transform="translate(158.8872,74.96)"><path
             d="M 0,0 4.001,5.784 2.143,7.068 -1.858,1.284 Z"
             style="fill:#d0d0dd;fill-opacity:1;fill-rule:nonzero;stroke:none"
             id="path208"
             inkscape:connector-curvature="0" /></g><g
           id="g210"
           transform="translate(155.4673,76.7734)"><path
             d="m 0,0 4,5.784 -1.858,1.284 -4,-5.784 z"
             style="fill:#d0d0dd;fill-opacity:1;fill-rule:nonzero;stroke:none"
             id="path212"
             inkscape:connector-curvature="0" /></g><g
           id="g214"
           transform="translate(174.5254,186.5674)"><path
             d="m 0,0 c -5.285,10.57 -34.98,12.09 -34.98,12.09 l -50.572,16.235 c 0,0 -8.919,-38.235 0,-44.511 8.918,-6.276 55.493,-3.613 55.493,-3.613 l -9.579,-80.618 h 24.443 c 0,0 20.48,89.847 15.195,100.417"
             style="fill:#57443b;fill-opacity:1;fill-rule:nonzero;stroke:none"
             id="path216"
             inkscape:connector-curvature="0" /></g><g
           id="g218"
           transform="translate(125.9507,301.0923)"><path
             d="m 0,0 -16.31,7.058 0.776,8.355 0.694,7.454 0.023,0.276 3.783,1.691 7.895,-5.85 1.316,-7.935 0.451,-2.746 z"
             style="fill:#ffdfc4;fill-opacity:1;fill-rule:nonzero;stroke:none"
             id="path220"
             inkscape:connector-curvature="0" /></g><g
           id="g222"
           transform="translate(124.5791,309.395)"><path
             d="m 0,0 -14.162,7.11 0.694,7.454 c 0,0 1.655,-1.178 3.649,-0.793 0,0 4.697,-7.002 9.367,-11.025 z"
             style="fill:#ffc1a0;fill-opacity:1;fill-rule:nonzero;stroke:none"
             id="path224"
             inkscape:connector-curvature="0" /></g><g
           id="g226"
           transform="translate(135.5605,199.9365)"><path
             d="M 0,0 C 2.073,19.035 2.424,51.153 2.635,65.552 2.942,86.581 -8.722,96.306 -8.722,96.306 l -21.439,8.943 C -37.457,97.905 -42.231,88.433 -43.794,78.2 L -54.515,-5.502 Z"
             style="fill:#00c685;fill-opacity:1;fill-rule:nonzero;stroke:none"
             id="path228"
             inkscape:connector-curvature="0" /></g><g
           id="g230"
           transform="translate(135.4346,346.9805)"><path
             d="m 0,0 c 0,0 6.032,-15.369 8.888,-19.423 1.983,-2.815 -4.741,-2.827 -4.741,-2.827 0,0 1.14,-26.86 -12.012,-15.63 -11.599,9.904 -12.805,14.063 -12.805,14.063 0,0 -5.12,-0.069 -5.803,3.452 -0.683,3.522 0.539,8.294 5.457,5.719 0,0 3.25,3.157 3.768,6.624 0.518,3.468 -0.426,10.552 5.021,9.885 C -6.78,1.195 0,0 0,0"
             style="fill:#ffdfc4;fill-opacity:1;fill-rule:nonzero;stroke:none"
             id="path232"
             inkscape:connector-curvature="0" /></g><g
           id="g234"
           transform="translate(94.1504,334.2417)"><path
             d="m 0,0 c -2.452,6.232 -0.393,13.95 4.838,18.132 -2.388,0.58 -4.914,0.585 -7.304,0.016 2.203,3.352 6.605,5.093 10.506,4.154 0.447,3.285 1.858,6.433 4.013,8.952 -0.49,-1.572 -0.362,-3.328 0.349,-4.813 2.431,2.979 5.711,5.258 9.352,6.494 2.719,0.924 4.945,0.858 8.197,-0.869 L 25.325,30.309 C 31.216,31.947 38.474,29.905 42.563,25.358 46.652,20.812 46.815,12.869 42.146,8.921 40.726,7.72 38.981,6.936 37.169,6.519 33.041,5.569 28.423,6.618 25.344,9.527 26,4.586 24.373,-0.613 21.015,-4.297 c 0.256,1.705 -1.644,3.213 -3.341,2.908 -1.697,-0.304 -2.694,-1.913 -2.892,-3.625 -0.198,-1.713 1.289,-3.783 2.181,-5.259 C 10.284,-10.776 2.452,-6.232 0,0"
             style="fill:#242143;fill-opacity:1;fill-rule:nonzero;stroke:none"
             id="path236"
             inkscape:connector-curvature="0" /></g><g
           id="g238"
           transform="translate(107.4517,309.3223)"><path
             d="M 0,0 23.125,-9.876 23.153,-18.7 -2.052,-4.137 Z"
             style="fill:#ffffff;fill-opacity:1;fill-rule:nonzero;stroke:none"
             id="path240"
             inkscape:connector-curvature="0" /></g><g
           id="g242"
           transform="translate(128.7642,328.5869)"><path
             d="m 0,0 c -0.148,-1.844 -1.763,-3.219 -3.607,-3.071 -1.844,0.148 -3.219,1.762 -3.071,3.607 0.148,1.844 1.762,3.219 3.607,3.071 C -1.228,3.459 0.148,1.844 0,0"
             style="fill:#ffc1a0;fill-opacity:1;fill-rule:nonzero;stroke:none"
             id="path244"
             inkscape:connector-curvature="0" /></g><g
           id="g246"
           transform="translate(113.2095,330.7358)"><path
             d="m 0,0 c 0,0 -0.352,-0.041 -0.854,-0.131 -0.248,-0.051 -0.525,-0.13 -0.745,-0.276 -0.218,-0.14 -0.391,-0.358 -0.557,-0.652 -0.328,-0.607 -0.532,-1.248 -0.56,-1.73 -0.035,-0.487 0.097,-0.822 0.097,-0.822 0,0 -0.073,0.046 -0.183,0.161 -0.111,0.114 -0.255,0.306 -0.36,0.585 -0.216,0.554 -0.228,1.434 0.215,2.247 0.221,0.41 0.607,0.775 1.036,0.909 0.423,0.138 0.792,0.091 1.069,0.03 C -0.289,0.182 0,0 0,0"
             style="fill:#ffc1a0;fill-opacity:1;fill-rule:nonzero;stroke:none"
             id="path248"
             inkscape:connector-curvature="0" /></g><g
           id="g250"
           transform="translate(100.3027,348.6812)"><path
             d="m 0,0 c 0,0 -0.129,-0.304 -0.358,-0.845 -0.23,-0.54 -0.544,-1.328 -0.872,-2.302 -0.64,-1.939 -1.339,-4.714 -0.823,-7.596 0.501,-2.883 2.097,-5.244 3.459,-6.739 0.684,-0.754 1.31,-1.32 1.759,-1.695 0.456,-0.368 0.712,-0.575 0.712,-0.575 0,0 -0.311,0.102 -0.861,0.335 -0.547,0.235 -1.326,0.628 -2.211,1.257 -0.877,0.633 -1.875,1.502 -2.736,2.697 -0.866,1.18 -1.612,2.69 -1.907,4.407 -0.314,1.716 -0.113,3.383 0.268,4.786 0.398,1.407 0.964,2.58 1.517,3.501 0.553,0.922 1.073,1.612 1.452,2.07 C -0.225,-0.239 0,0 0,0"
             style="fill:#3a3750;fill-opacity:1;fill-rule:nonzero;stroke:none"
             id="path252"
             inkscape:connector-curvature="0" /></g><g
           id="g254"
           transform="translate(105.2148,346.0474)"><path
             d="m 0,0 c 0,0 -0.084,-0.201 -0.23,-0.552 -0.146,-0.352 -0.36,-0.859 -0.567,-1.475 -0.211,-0.622 -0.383,-1.329 -0.452,-2.14 -0.077,-0.813 -0.067,-1.738 -0.11,-2.764 -0.05,-1.022 -0.103,-1.867 0.014,-2.649 0.107,-0.789 0.324,-1.521 0.541,-2.137 0.217,-0.619 0.432,-1.124 0.579,-1.476 0.148,-0.351 0.232,-0.552 0.232,-0.552 0,0 -0.172,0.129 -0.462,0.387 -0.288,0.258 -0.699,0.644 -1.139,1.197 -0.438,0.552 -0.915,1.278 -1.235,2.216 -0.338,0.944 -0.394,2.073 -0.34,3.093 0.043,1.019 0.148,2.051 0.421,2.981 0.265,0.937 0.72,1.722 1.154,2.275 0.437,0.562 0.845,0.95 1.134,1.208 C -0.171,-0.13 0,0 0,0"
             style="fill:#3a3750;fill-opacity:1;fill-rule:nonzero;stroke:none"
             id="path256"
             inkscape:connector-curvature="0" /></g><g
           id="g258"
           transform="translate(129.4531,356.271)"><path
             d="M 0,0 C 0,0 0.192,-0.132 0.519,-0.395 0.846,-0.658 1.312,-1.05 1.832,-1.61 2.345,-2.172 2.924,-2.91 3.353,-3.895 3.783,-4.864 4.02,-6.135 3.782,-7.4 3.561,-8.665 2.941,-9.772 2.174,-10.556 c -0.772,-0.79 -1.654,-1.242 -2.407,-1.48 -0.757,-0.24 -1.394,-0.266 -1.818,-0.254 -0.428,0.019 -0.655,0.069 -0.655,0.069 0,0 0.227,0.064 0.609,0.21 0.378,0.152 0.91,0.393 1.472,0.792 1.142,0.773 2.31,2.235 2.623,4.136 C 2.362,-5.221 1.69,-3.414 1.082,-2.118 0.776,-1.47 0.495,-0.942 0.301,-0.575 0.109,-0.209 0,0 0,0"
             style="fill:#3a3750;fill-opacity:1;fill-rule:nonzero;stroke:none"
             id="path260"
             inkscape:connector-curvature="0" /></g><g
           id="g262"
           transform="translate(129.085,361.7842)"><path
             d="m 0,0 c 0,0 0.594,-0.062 1.494,-0.32 0.89,-0.262 2.14,-0.739 3.24,-1.774 1.108,-1.043 1.649,-2.419 1.723,-3.408 0.044,-0.497 0.002,-0.895 -0.054,-1.161 -0.055,-0.266 -0.107,-0.405 -0.107,-0.405 0,0 -0.22,0.568 -0.699,1.278 -0.472,0.72 -1.223,1.541 -2.112,2.383 -0.896,0.85 -1.793,1.659 -2.446,2.303 C 0.383,-0.464 0,0 0,0"
             style="fill:#3a3750;fill-opacity:1;fill-rule:nonzero;stroke:none"
             id="path264"
             inkscape:connector-curvature="0" /></g><g
           id="g266"
           transform="translate(133.9058,330.4414)"><path
             d="m 0,0 c -2.81,0 -5.096,2.286 -5.096,5.097 0,2.808 2.286,5.095 5.096,5.095 2.81,0 5.096,-2.287 5.096,-5.095 C 5.096,2.286 2.81,0 0,0 M 1.764,12.638 C -3.098,13.719 -7.423,10.192 -7.713,5.587 L -20.938,3.891 c -0.725,-0.093 -1.236,-0.756 -1.144,-1.48 0.094,-0.724 0.756,-1.235 1.48,-1.142 L -7.431,2.958 C -6.5,-0.271 -3.524,-2.643 0,-2.643 4.821,-2.643 8.626,1.79 7.557,6.793 6.942,9.669 4.635,12 1.764,12.638"
             style="fill:#ffffff;fill-opacity:1;fill-rule:nonzero;stroke:none"
             id="path268"
             inkscape:connector-curvature="0" /></g><g
           id="g270"
           transform="translate(154.2656,211.0957)"><path
             d="m 0,0 h 30.004 c 0,0 0,5.365 -1.486,6.356 -1.487,0.992 -15.69,7.928 -15.69,7.928 L -1.431,11.629 -3.854,2.558 Z"
             style="fill:#ffdfc4;fill-opacity:1;fill-rule:nonzero;stroke:none"
             id="path272"
             inkscape:connector-curvature="0" /></g><g
           id="g274"
           transform="translate(149.5381,233.5801)"><path
             d="m 0,0 c -18.627,-2.114 -44.139,-0.934 -44.139,-0.934 l 5.752,43.411 c 1.335,10.077 -0.686,20.314 -5.752,29.128 0,0 -19.135,-14.568 -20.754,-41.324 -1.618,-26.756 1.355,-42.775 4.328,-48.968 1.991,-4.149 36.731,-4.062 59.457,-3.551 z"
             style="fill:#00de91;fill-opacity:1;fill-rule:nonzero;stroke:none"
             id="path276"
             inkscape:connector-curvature="0" /></g><g
           id="g278"
           transform="translate(149.3042,230.5771)"><path
             d="m 0,0 7.061,0.581 -2.1,-20.062 -5.835,0.246 z"
             style="fill:#ffffff;fill-opacity:1;fill-rule:nonzero;stroke:none"
             id="path280"
             inkscape:connector-curvature="0" /></g><g
           id="g282"
           transform="translate(146.1763,201.9775)"><path
             d="M 0,0 H 37.312 V -10.075 H 0 c -2.106,0 -3.813,1.707 -3.813,3.812 v 2.45 C -3.813,-1.707 -2.106,0 0,0"
             style="fill:#00de91;fill-opacity:1;fill-rule:nonzero;stroke:none"
             id="path284"
             inkscape:connector-curvature="0" /></g><g
           id="g286"
           transform="translate(146.9434,200.1865)"><path
             d="M 0,0 H 36.544 V -6.359 H 0 c -1.329,0 -2.406,1.078 -2.406,2.406 v 1.547 C -2.406,-1.077 -1.329,0 0,0"
             style="fill:#ffffff;fill-opacity:1;fill-rule:nonzero;stroke:none"
             id="path288"
             inkscape:connector-curvature="0" /></g><g
           id="g290"
           transform="translate(181.3032,201.9775)"><path
             d="M 0,0 H -37.312 V 10.075 H 0 c 2.105,0 3.813,-1.707 3.813,-3.812 V 3.813 C 3.813,1.707 2.105,0 0,0"
             style="fill:#ff7292;fill-opacity:1;fill-rule:nonzero;stroke:none"
             id="path292"
             inkscape:connector-curvature="0" /></g><g
           id="g294"
           transform="translate(180.5361,203.7686)"><path
             d="M 0,0 H -36.545 V 6.358 H 0 c 1.329,0 2.406,-1.077 2.406,-2.406 V 2.406 C 2.406,1.077 1.329,0 0,0"
             style="fill:#ffffff;fill-opacity:1;fill-rule:nonzero;stroke:none"
             id="path296"
             inkscape:connector-curvature="0" /></g><g
           id="g298"
           transform="translate(177.6855,201.6201)"><path
             d="M 0,0 -2.34,1.321 -4.68,0 V 5.395 H 0 Z"
             style="fill:#242143;fill-opacity:1;fill-rule:nonzero;stroke:none"
             id="path300"
             inkscape:connector-curvature="0" /></g><g
           id="g302"
           transform="translate(114.2261,65.1426)"><path
             d="m 0,0 h -58.413 c -3.14,0 -5.686,2.546 -5.686,5.686 V 29.84 H 5.686 V 5.686 C 5.686,2.546 3.14,0 0,0"
             style="fill:#211e40;fill-opacity:1;fill-rule:nonzero;stroke:none"
             id="path304"
             inkscape:connector-curvature="0" /></g><g
           id="g306"
           transform="translate(74.4766,127.8027)"><path
             d="M 0,0 C 0,2.2 1.79,3.989 3.989,3.989 H 17.097 C 19.296,3.989 21.086,2.2 21.086,0 V -2.179 H 0 Z M 24.876,-2.179 V 0 c 0,4.29 -3.489,7.779 -7.779,7.779 H 3.989 C -0.301,7.779 -3.791,4.29 -3.791,0 V -2.179 H -27.37 v -33.636 c 0,-3.141 2.545,-5.687 5.686,-5.687 H 42.77 c 3.141,0 5.686,2.546 5.686,5.687 v 33.636 z"
             style="fill:#3a3750;fill-opacity:1;fill-rule:nonzero;stroke:none"
             id="path308"
             inkscape:connector-curvature="0" /></g><path
           d="M 91.12,82.155 H 78.919 v 8.174 H 91.12 Z"
           style="fill:#ffcb45;fill-opacity:1;fill-rule:nonzero;stroke:none"
           id="path310"
           inkscape:connector-curvature="0" /><g
           id="g312"
           transform="translate(487,63.9375)"><path
             d="M 0,0 C 0,0 -17.152,-3.062 -38.31,-3.062 -59.468,-3.062 -76.62,0 -76.62,0 c 0,0 17.152,3.062 38.31,3.062 C -17.152,3.062 0,0 0,0"
             style="fill:#d3d3d3;fill-opacity:1;fill-rule:nonzero;stroke:none"
             id="path314"
             inkscape:connector-curvature="0" /></g><g
           id="g316"
           transform="translate(440.2695,152.0859)"><path
             d="m 0,0 c 7.757,-7.757 6.385,-21.695 6.385,-21.695 0,0 -13.946,-1.379 -21.703,6.378 -7.757,7.756 -6.378,21.703 -6.378,21.703 0,0 13.939,1.371 21.696,-6.386"
             style="fill:#00de91;fill-opacity:1;fill-rule:nonzero;stroke:none"
             id="path318"
             inkscape:connector-curvature="0" /></g><g
           id="g320"
           transform="translate(418.5732,158.4717)"><path
             d="m 0,0 28.082,-28.081 c 0,0 -13.947,-1.379 -21.704,6.378 C -1.378,-13.946 0,0 0,0"
             style="fill:#00c685;fill-opacity:1;fill-rule:nonzero;stroke:none"
             id="path322"
             inkscape:connector-curvature="0" /></g><g
           id="g324"
           transform="translate(456.1724,152.0859)"><path
             d="m 0,0 c -7.757,-7.757 -6.385,-21.695 -6.385,-21.695 0,0 13.946,-1.379 21.702,6.378 7.757,7.756 6.379,21.703 6.379,21.703 C 21.696,6.386 7.757,7.757 0,0"
             style="fill:#00de91;fill-opacity:1;fill-rule:nonzero;stroke:none"
             id="path326"
             inkscape:connector-curvature="0" /></g><g
           id="g328"
           transform="translate(477.8682,158.4717)"><path
             d="m 0,0 -28.081,-28.081 c 0,0 13.946,-1.379 21.703,6.378 C 1.378,-13.946 0,0 0,0"
             style="fill:#00c685;fill-opacity:1;fill-rule:nonzero;stroke:none"
             id="path330"
             inkscape:connector-curvature="0" /></g><g
           id="g332"
           transform="translate(441.6758,179.168)"><path
             d="m 0,0 c 6.385,-6.385 5.256,-17.858 5.256,-17.858 0,0 -11.48,-1.135 -17.864,5.25 -6.385,6.384 -5.251,17.864 -5.251,17.864 0,0 11.474,1.129 17.859,-5.256"
             style="fill:#00de91;fill-opacity:1;fill-rule:nonzero;stroke:none"
             id="path334"
             inkscape:connector-curvature="0" /></g><g
           id="g336"
           transform="translate(423.8169,184.4238)"><path
             d="m 0,0 23.115,-23.114 c 0,0 -11.48,-1.135 -17.865,5.25 C -1.134,-11.479 0,0 0,0"
             style="fill:#00c685;fill-opacity:1;fill-rule:nonzero;stroke:none"
             id="path338"
             inkscape:connector-curvature="0" /></g><g
           id="g340"
           transform="translate(454.7656,179.168)"><path
             d="m 0,0 c -6.385,-6.385 -5.256,-17.858 -5.256,-17.858 0,0 11.48,-1.135 17.864,5.25 6.386,6.384 5.251,17.864 5.251,17.864 C 17.859,5.256 6.385,6.385 0,0"
             style="fill:#00de91;fill-opacity:1;fill-rule:nonzero;stroke:none"
             id="path342"
             inkscape:connector-curvature="0" /></g><g
           id="g344"
           transform="translate(472.6245,184.4238)"><path
             d="m 0,0 -23.115,-23.114 c 0,0 11.48,-1.135 17.865,5.25 C 1.135,-11.479 0,0 0,0"
             style="fill:#00c685;fill-opacity:1;fill-rule:nonzero;stroke:none"
             id="path346"
             inkscape:connector-curvature="0" /></g><g
           id="g348"
           transform="translate(443.4565,200.7041)"><path
             d="m 0,0 c 4.647,-4.647 3.826,-13 3.826,-13 0,0 -8.356,-0.825 -13.003,3.822 -4.648,4.648 -3.822,13.003 -3.822,13.003 0,0 8.352,0.822 12.999,-3.825"
             style="fill:#00de91;fill-opacity:1;fill-rule:nonzero;stroke:none"
             id="path350"
             inkscape:connector-curvature="0" /></g><g
           id="g352"
           transform="translate(430.4575,204.5293)"><path
             d="m 0,0 16.825,-16.825 c 0,0 -8.356,-0.825 -13.003,3.822 C -0.826,-8.355 0,0 0,0"
             style="fill:#00c685;fill-opacity:1;fill-rule:nonzero;stroke:none"
             id="path354"
             inkscape:connector-curvature="0" /></g><g
           id="g356"
           transform="translate(452.9849,200.7041)"><path
             d="m 0,0 c -4.647,-4.647 -3.826,-13 -3.826,-13 0,0 8.356,-0.825 13.004,3.822 4.647,4.648 3.821,13.003 3.821,13.003 C 12.999,3.825 4.647,4.647 0,0"
             style="fill:#00de91;fill-opacity:1;fill-rule:nonzero;stroke:none"
             id="path358"
             inkscape:connector-curvature="0" /></g><g
           id="g360"
           transform="translate(465.9839,204.5293)"><path
             d="m 0,0 -16.825,-16.825 c 0,0 8.356,-0.825 13.004,3.822 C 0.826,-8.355 0,0 0,0"
             style="fill:#00c685;fill-opacity:1;fill-rule:nonzero;stroke:none"
             id="path362"
             inkscape:connector-curvature="0" /></g><path
           d="m 449.787,111.701 h -3.132 v 96.163 h 3.132 z"
           style="fill:#00c685;fill-opacity:1;fill-rule:nonzero;stroke:none"
           id="path364"
           inkscape:connector-curvature="0" /><g
           id="g366"
           transform="translate(445.438,216.1738)"><path
             d="m 0,0 c 3.359,-3.359 2.766,-9.397 2.766,-9.397 0,0 -6.041,-0.597 -9.401,2.762 -3.36,3.361 -2.762,9.401 -2.762,9.401 0,0 6.037,0.594 9.397,-2.766"
             style="fill:#00de91;fill-opacity:1;fill-rule:nonzero;stroke:none"
             id="path368"
             inkscape:connector-curvature="0" /></g><g
           id="g370"
           transform="translate(436.0405,218.9395)"><path
             d="m 0,0 12.163,-12.163 c 0,0 -6.04,-0.597 -9.4,2.763 C -0.597,-6.04 0,0 0,0"
             style="fill:#00c685;fill-opacity:1;fill-rule:nonzero;stroke:none"
             id="path372"
             inkscape:connector-curvature="0" /></g><g
           id="g374"
           transform="translate(451.0039,216.1738)"><path
             d="m 0,0 c -3.36,-3.359 -2.766,-9.397 -2.766,-9.397 0,0 6.041,-0.597 9.401,2.762 3.359,3.361 2.762,9.401 2.762,9.401 C 9.397,2.766 3.36,3.36 0,0"
             style="fill:#00de91;fill-opacity:1;fill-rule:nonzero;stroke:none"
             id="path376"
             inkscape:connector-curvature="0" /></g><g
           id="g378"
           transform="translate(460.4014,218.9395)"><path
             d="m 0,0 -12.163,-12.163 c 0,0 6.04,-0.597 9.4,2.763 C 0.597,-6.04 0,0 0,0"
             style="fill:#00c685;fill-opacity:1;fill-rule:nonzero;stroke:none"
             id="path380"
             inkscape:connector-curvature="0" /></g><g
           id="g382"
           transform="translate(465.5117,63.7705)"><path
             d="m 0,0 h -34.582 l -7.866,43.282 H 7.866 Z"
             style="fill:#3b4182;fill-opacity:1;fill-rule:nonzero;stroke:none"
             id="path384"
             inkscape:connector-curvature="0" /></g><path
           d="m 479.193,101.333 h -61.945 v 11.44 h 61.945 z"
           style="fill:#444a97;fill-opacity:1;fill-rule:nonzero;stroke:none"
           id="path386"
           inkscape:connector-curvature="0" /><g
           id="g388"
           transform="translate(454.4907,416.9521)"><path
             d="m 0,0 h -139.137 c -2.519,0 -4.56,-2.042 -4.56,-4.56 v -41.362 c 0,-2.519 2.041,-4.56 4.56,-4.56 h 10.364 v -19.286 l 19.285,19.286 H 0 c 2.518,0 4.56,2.041 4.56,4.56 V -4.56 C 4.56,-2.042 2.518,0 0,0"
             style="fill:#ffffff;fill-opacity:1;fill-rule:nonzero;stroke:none"
             id="path390"
             inkscape:connector-curvature="0" /></g><path
           d="m 388.694,401.059 h -62.977 v 6.232 h 62.977 z"
           style="fill:#d0d0dd;fill-opacity:1;fill-rule:nonzero;stroke:none"
           id="path392"
           inkscape:connector-curvature="0" /><path
           d="M 444.126,388.513 H 325.717 v 6.56 h 118.409 z"
           style="fill:#d0d0dd;fill-opacity:1;fill-rule:nonzero;stroke:none"
           id="path394"
           inkscape:connector-curvature="0" /><path
           d="m 425.143,376.131 h -99.426 v 6.56 h 99.426 z"
           style="fill:#d0d0dd;fill-opacity:1;fill-rule:nonzero;stroke:none"
           id="path396"
           inkscape:connector-curvature="0" /><g
           id="g398"
           transform="translate(283.4346,395.1929)"><path
             d="m 0,0 h -54.242 v -60.305 h 41.775 L 0,-48.314 Z"
             style="fill:#ffcb45;fill-opacity:1;fill-rule:nonzero;stroke:none"
             id="path400"
             inkscape:connector-curvature="0" /></g><g
           id="g402"
           transform="translate(270.9673,334.8877)"><path
             d="M 0,0 12.467,11.991 H 0 Z"
             style="fill:#ffa127;fill-opacity:1;fill-rule:nonzero;stroke:none"
             id="path404"
             inkscape:connector-curvature="0" /></g><path
           d="M 276.318,383.379 H 236.31 v 3.456 h 40.008 z"
           style="fill:#ffa127;fill-opacity:1;fill-rule:nonzero;stroke:none"
           id="path406"
           inkscape:connector-curvature="0" /><path
           d="M 276.318,375.827 H 236.31 v 3.456 h 40.008 z"
           style="fill:#ffa127;fill-opacity:1;fill-rule:nonzero;stroke:none"
           id="path408"
           inkscape:connector-curvature="0" /><path
           d="M 276.318,368.275 H 236.31 v 3.456 h 40.008 z"
           style="fill:#ffa127;fill-opacity:1;fill-rule:nonzero;stroke:none"
           id="path410"
           inkscape:connector-curvature="0" /><path
           d="M 276.318,360.723 H 236.31 v 3.456 h 40.008 z"
           style="fill:#ffa127;fill-opacity:1;fill-rule:nonzero;stroke:none"
           id="path412"
           inkscape:connector-curvature="0" /><path
           d="M 276.318,353.171 H 236.31 v 3.456 h 40.008 z"
           style="fill:#ffa127;fill-opacity:1;fill-rule:nonzero;stroke:none"
           id="path414"
           inkscape:connector-curvature="0" /><g
           id="g416"
           transform="translate(259.9624,395.1929)"><path
             d="m 0,0 c 0,-2.015 -1.633,-3.649 -3.649,-3.649 -2.015,0 -3.649,1.634 -3.649,3.649 0,2.015 1.634,3.649 3.649,3.649 C -1.633,3.649 0,2.015 0,0"
             style="fill:#ffffff;fill-opacity:1;fill-rule:nonzero;stroke:none"
             id="path418"
             inkscape:connector-curvature="0" /></g><path
           d="M 224.47,372.214 H 170.228 V 311.909 H 224.47 Z"
           style="fill:#ffcb45;fill-opacity:1;fill-rule:nonzero;stroke:none"
           id="path420"
           inkscape:connector-curvature="0" /><path
           d="m 217.353,360.4 h -40.008 v 3.456 h 40.008 z"
           style="fill:#ffa127;fill-opacity:1;fill-rule:nonzero;stroke:none"
           id="path422"
           inkscape:connector-curvature="0" /><path
           d="m 217.353,352.848 h -40.008 v 3.456 h 40.008 z"
           style="fill:#ffa127;fill-opacity:1;fill-rule:nonzero;stroke:none"
           id="path424"
           inkscape:connector-curvature="0" /><path
           d="m 217.353,345.296 h -40.008 v 3.456 h 40.008 z"
           style="fill:#ffa127;fill-opacity:1;fill-rule:nonzero;stroke:none"
           id="path426"
           inkscape:connector-curvature="0" /><path
           d="m 217.353,337.744 h -40.008 v 3.456 h 40.008 z"
           style="fill:#ffa127;fill-opacity:1;fill-rule:nonzero;stroke:none"
           id="path428"
           inkscape:connector-curvature="0" /><path
           d="m 217.353,330.192 h -40.008 v 3.456 h 40.008 z"
           style="fill:#ffa127;fill-opacity:1;fill-rule:nonzero;stroke:none"
           id="path430"
           inkscape:connector-curvature="0" /><g
           id="g432"
           transform="translate(200.9976,372.2139)"><path
             d="m 0,0 c 0,-2.015 -1.633,-3.649 -3.649,-3.649 -2.015,0 -3.649,1.634 -3.649,3.649 0,2.016 1.634,3.649 3.649,3.649 C -1.633,3.649 0,2.016 0,0"
             style="fill:#ffffff;fill-opacity:1;fill-rule:nonzero;stroke:none"
             id="path434"
             inkscape:connector-curvature="0" /></g><path
           d="M 78.071,316.821 H 62.589 v 15.482 h 15.482 z"
           style="fill:#444a97;fill-opacity:1;fill-rule:nonzero;stroke:none"
           id="path436"
           inkscape:connector-curvature="0" /><path
           d="M 62.588,298.045 H 47.106 v 15.482 h 15.482 z"
           style="fill:#ffa127;fill-opacity:1;fill-rule:nonzero;stroke:none"
           id="path438"
           inkscape:connector-curvature="0" /><path
           d="M 117.774,424.787 H 82.681 v 15.581 h 35.093 z"
           style="fill:#ffffff;fill-opacity:1;fill-rule:nonzero;stroke:none"
           id="path440"
           inkscape:connector-curvature="0" /><path
           d="M 97.188,404.175 H 62.095 v 15.58 h 35.093 z"
           style="fill:#ffffff;fill-opacity:1;fill-rule:nonzero;stroke:none"
           id="path442"
           inkscape:connector-curvature="0" /><path
           d="m 138.245,404.175 h -35.093 v 15.58 h 35.093 z"
           style="fill:#ffffff;fill-opacity:1;fill-rule:nonzero;stroke:none"
           id="path444"
           inkscape:connector-curvature="0" /><path
           d="m 412.796,289.464 h 35.093 v -15.581 h -35.093 z"
           style="fill:#ffffff;fill-opacity:1;fill-rule:nonzero;stroke:none"
           id="path446"
           inkscape:connector-curvature="0" /><path
           d="m 433.382,310.075 h 35.093 v -15.581 h -35.093 z"
           style="fill:#ffffff;fill-opacity:1;fill-rule:nonzero;stroke:none"
           id="path448"
           inkscape:connector-curvature="0" /><path
           d="m 392.326,310.075 h 35.093 v -15.581 h -35.093 z"
           style="fill:#ffffff;fill-opacity:1;fill-rule:nonzero;stroke:none"
           id="path450"
           inkscape:connector-curvature="0" /></g></g></g></svg>