<?xml version="1.0" encoding="UTF-8" standalone="no"?>
<!-- Created with Inkscape (http://www.inkscape.org/) -->

<svg
   xmlns:dc="http://purl.org/dc/elements/1.1/"
   xmlns:cc="http://creativecommons.org/ns#"
   xmlns:rdf="http://www.w3.org/1999/02/22-rdf-syntax-ns#"
   xmlns:svg="http://www.w3.org/2000/svg"
   xmlns="http://www.w3.org/2000/svg"
   xmlns:sodipodi="http://sodipodi.sourceforge.net/DTD/sodipodi-0.dtd"
   xmlns:inkscape="http://www.inkscape.org/namespaces/inkscape"
   version="1.1"
   id="svg2"
   xml:space="preserve"
   width="666.66669"
   height="666.66669"
   viewBox="0 0 666.66669 666.66669"
   sodipodi:docname="socialMedia.ai.svg"
   inkscape:version="0.92.3 (unknown)"><metadata
     id="metadata8"><rdf:RDF><cc:Work
         rdf:about=""><dc:format>image/svg+xml</dc:format><dc:type
           rdf:resource="http://purl.org/dc/dcmitype/StillImage" /><dc:title></dc:title></cc:Work></rdf:RDF></metadata><defs
     id="defs6"><clipPath
       clipPathUnits="userSpaceOnUse"
       id="clipPath20"><path
         d="M 0,500 H 500 V 0 H 0 Z"
         id="path18"
         inkscape:connector-curvature="0" /></clipPath><clipPath
       clipPathUnits="userSpaceOnUse"
       id="clipPath28"><path
         d="M 64.8296,342.461 H 398.981 V 102.012 H 64.8296 Z"
         id="path26"
         inkscape:connector-curvature="0" /></clipPath><clipPath
       clipPathUnits="userSpaceOnUse"
       id="clipPath44"><path
         d="m 341.187,198.949 h 64.592 v -61.414 h -64.592 z"
         id="path42"
         inkscape:connector-curvature="0" /></clipPath><clipPath
       clipPathUnits="userSpaceOnUse"
       id="clipPath386"><path
         d="M 179.535,255.861 H 226.4 V 169.41 h -46.865 z"
         id="path384"
         inkscape:connector-curvature="0" /></clipPath><clipPath
       clipPathUnits="userSpaceOnUse"
       id="clipPath412"><path
         d="m 257.776,125.176 h 1.335 v -13.848 h -1.335 z"
         id="path410"
         inkscape:connector-curvature="0" /></clipPath><clipPath
       clipPathUnits="userSpaceOnUse"
       id="clipPath426"><path
         d="m 302.013,270.289 h 4.213 v -4.213 h -4.213 z"
         id="path424"
         inkscape:connector-curvature="0" /></clipPath><clipPath
       clipPathUnits="userSpaceOnUse"
       id="clipPath442"><path
         d="m 310.928,270.289 h 4.213 v -4.213 h -4.213 z"
         id="path440"
         inkscape:connector-curvature="0" /></clipPath><clipPath
       clipPathUnits="userSpaceOnUse"
       id="clipPath458"><path
         d="m 319.843,270.289 h 4.214 v -4.213 h -4.214 z"
         id="path456"
         inkscape:connector-curvature="0" /></clipPath><clipPath
       clipPathUnits="userSpaceOnUse"
       id="clipPath474"><path
         d="m 328.758,270.289 h 4.214 v -4.213 h -4.214 z"
         id="path472"
         inkscape:connector-curvature="0" /></clipPath><clipPath
       clipPathUnits="userSpaceOnUse"
       id="clipPath494"><path
         d="M 75.415,306.961 C 68.477,305.53 64.013,298.749 65.443,291.81 v 0 c 0.484,-2.344 1.579,-4.403 3.084,-6.05 v 0 l -0.267,-6.711 5.922,3.11 c 2.01,-0.63 4.203,-0.775 6.412,-0.32 v 0 c 6.938,1.431 11.401,8.214 9.971,15.151 v 0 c -1.25,6.064 -6.589,10.238 -12.547,10.238 v 0 c -0.859,0 -1.729,-0.087 -2.603,-0.267"
         id="path492"
         inkscape:connector-curvature="0" /></clipPath><radialGradient
       fx="0"
       fy="0"
       cx="0"
       cy="0"
       r="1"
       gradientUnits="userSpaceOnUse"
       gradientTransform="matrix(27.143084,5.5954552,5.5954552,-27.143084,75.812279,279.86581)"
       spreadMethod="pad"
       id="radialGradient508"><stop
         style="stop-opacity:1;stop-color:#e6e6e6"
         offset="0"
         id="stop500" /><stop
         style="stop-opacity:1;stop-color:#e6e6e6"
         offset="0.219388"
         id="stop502" /><stop
         style="stop-opacity:1;stop-color:#fbfbfb"
         offset="0.882653"
         id="stop504" /><stop
         style="stop-opacity:1;stop-color:#fbfbfb"
         offset="1"
         id="stop506" /></radialGradient><clipPath
       clipPathUnits="userSpaceOnUse"
       id="clipPath518"><path
         d="m 75.902,305.01 c -5.939,-1.225 -9.775,-6.964 -8.569,-12.82 v 0 c 0.462,-2.239 1.598,-4.17 3.154,-5.635 v 0 l -0.171,-3.95 3.48,1.813 c 1.975,-0.82 4.216,-1.079 6.479,-0.612 v 0 c 5.94,1.225 9.777,6.964 8.569,12.82 v 0 c -1.052,5.107 -5.595,8.616 -10.682,8.616 v 0 c -0.744,0 -1.501,-0.076 -2.26,-0.232"
         id="path516"
         inkscape:connector-curvature="0" /></clipPath><radialGradient
       fx="0"
       fy="0"
       cx="0"
       cy="0"
       r="1"
       gradientUnits="userSpaceOnUse"
       gradientTransform="matrix(23.241444,4.7923112,4.7232909,-22.907846,76.135849,282.33432)"
       spreadMethod="pad"
       id="radialGradient532"><stop
         style="stop-opacity:1;stop-color:#38b549"
         offset="0"
         id="stop524" /><stop
         style="stop-opacity:1;stop-color:#38b549"
         offset="0.260204"
         id="stop526" /><stop
         style="stop-opacity:1;stop-color:#56c865"
         offset="0.760204"
         id="stop528" /><stop
         style="stop-opacity:1;stop-color:#56c865"
         offset="1"
         id="stop530" /></radialGradient><clipPath
       clipPathUnits="userSpaceOnUse"
       id="clipPath542"><path
         d="m 72.319,299.208 c 0,0 -2.221,-1.693 -0.973,-3.907 v 0 c 0,0 2.847,-6.38 10.525,-6.23 v 0 c 0,0 2.732,0.167 3.111,1.927 v 0 c 0.082,0.379 0.084,0.889 -0.018,1.263 v 0 c -0.102,0.361 -0.411,0.551 -0.749,0.663 v 0 c -0.436,0.143 -0.826,0.28 -1.314,0.408 v 0 c -0.425,0.109 -0.925,0.299 -1.343,0.085 v 0 c -0.307,-0.157 -0.479,-0.501 -0.651,-0.783 v 0 c -0.224,-0.363 -0.456,-0.724 -0.684,-1.086 v 0 c 0,0 -4.028,0.603 -5.599,3.192 v 0 c 0.111,0.197 0.222,0.395 0.332,0.592 v 0 c 0.187,0.335 0.496,0.684 0.432,1.096 v 0 c -0.063,0.396 -0.284,0.759 -0.496,1.086 v 0 c -0.136,0.21 -0.275,0.42 -0.411,0.633 v 0 c -0.245,0.385 -0.57,0.927 -0.851,1.125 v 0 c -0.173,0.12 -0.38,0.178 -0.591,0.178 v 0 c -0.254,0 -0.512,-0.084 -0.72,-0.242"
         id="path540"
         inkscape:connector-curvature="0" /></clipPath><radialGradient
       fx="0"
       fy="0"
       cx="0"
       cy="0"
       r="1"
       gradientUnits="userSpaceOnUse"
       gradientTransform="matrix(12.142976,2.5032337,2.5032337,-12.142976,74.926727,285.61151)"
       spreadMethod="pad"
       id="radialGradient556"><stop
         style="stop-opacity:1;stop-color:#e6e6e6"
         offset="0"
         id="stop548" /><stop
         style="stop-opacity:1;stop-color:#e6e6e6"
         offset="0.219388"
         id="stop550" /><stop
         style="stop-opacity:1;stop-color:#ffffff"
         offset="0.882653"
         id="stop552" /><stop
         style="stop-opacity:1;stop-color:#ffffff"
         offset="1"
         id="stop554" /></radialGradient><clipPath
       clipPathUnits="userSpaceOnUse"
       id="clipPath566"><path
         d="M 0,500 H 500 V 0 H 0 Z"
         id="path564"
         inkscape:connector-curvature="0" /></clipPath><clipPath
       clipPathUnits="userSpaceOnUse"
       id="clipPath582"><path
         d="m 419.822,177.627 c -3.798,0 -5.34,-3.078 -5.34,-6.877 v 0 -7.274 c 0,-3.799 1.703,-6.879 5.503,-6.879 v 0 h 19.544 c 3.797,0 5.096,3.08 5.096,6.879 v 0 7.274 c 0,3.799 -1.137,6.877 -4.936,6.877 v 0 z"
         id="path580"
         inkscape:connector-curvature="0" /></clipPath><radialGradient
       fx="0"
       fy="0"
       cx="0"
       cy="0"
       r="1"
       gradientUnits="userSpaceOnUse"
       gradientTransform="matrix(28.998085,0,0,-28.998085,429.06241,152.68069)"
       spreadMethod="pad"
       id="radialGradient596"><stop
         style="stop-opacity:1;stop-color:#c1181e"
         offset="0"
         id="stop588" /><stop
         style="stop-opacity:1;stop-color:#c1181e"
         offset="0.168367"
         id="stop590" /><stop
         style="stop-opacity:1;stop-color:#dd2925"
         offset="0.765306"
         id="stop592" /><stop
         style="stop-opacity:1;stop-color:#dd2925"
         offset="1"
         id="stop594" /></radialGradient><clipPath
       clipPathUnits="userSpaceOnUse"
       id="clipPath606"><path
         d="M 0,500 H 500 V 0 H 0 Z"
         id="path604"
         inkscape:connector-curvature="0" /></clipPath><clipPath
       clipPathUnits="userSpaceOnUse"
       id="clipPath626"><path
         d="m 88.66,226.595 -0.404,-19.352 c -0.078,-3.728 2.88,-6.81 6.607,-6.888 v 0 l 19.352,-0.404 c 3.726,-0.078 6.81,2.879 6.887,6.605 v 0 l 0.404,19.353 c 0.078,3.726 -2.88,6.808 -6.605,6.887 v 0 L 95.549,233.2 c -0.048,0.001 -0.096,0.001 -0.144,0.001 v 0 c -3.662,0 -6.668,-2.927 -6.745,-6.606"
         id="path624"
         inkscape:connector-curvature="0" /></clipPath><radialGradient
       fx="0"
       fy="0"
       cx="0"
       cy="0"
       r="1"
       gradientUnits="userSpaceOnUse"
       gradientTransform="matrix(44.23864,-0.9247726,-0.9247726,-44.23864,104.63277,192.76151)"
       spreadMethod="pad"
       id="radialGradient638"><stop
         style="stop-opacity:1;stop-color:#3c5997"
         offset="0"
         id="stop632" /><stop
         style="stop-opacity:1;stop-color:#3c5997"
         offset="0.30102"
         id="stop634" /><stop
         style="stop-opacity:1;stop-color:#5f82ce"
         offset="1"
         id="stop636" /></radialGradient><clipPath
       clipPathUnits="userSpaceOnUse"
       id="clipPath648"><path
         d="M 0,500 H 500 V 0 H 0 Z"
         id="path646"
         inkscape:connector-curvature="0" /></clipPath><clipPath
       clipPathUnits="userSpaceOnUse"
       id="clipPath668"><path
         d="m 346.656,368.776 c 0,-6.988 5.873,-12.653 13.119,-12.653 v 0 c 7.247,0 13.12,5.665 13.12,12.653 v 0 c 0,6.988 -5.873,12.653 -13.12,12.653 v 0 c -7.246,0 -13.119,-5.665 -13.119,-12.653"
         id="path666"
         inkscape:connector-curvature="0" /></clipPath><radialGradient
       fx="0"
       fy="0"
       cx="0"
       cy="0"
       r="1"
       gradientUnits="userSpaceOnUse"
       gradientTransform="matrix(33.611885,0.2532,0.2650199,-35.180954,358.92618,354.26114)"
       spreadMethod="pad"
       id="radialGradient682"><stop
         style="stop-opacity:1;stop-color:#f9f606"
         offset="0"
         id="stop674" /><stop
         style="stop-opacity:1;stop-color:#f9f606"
         offset="0.0918367"
         id="stop676" /><stop
         style="stop-opacity:1;stop-color:#fefb01"
         offset="0.729592"
         id="stop678" /><stop
         style="stop-opacity:1;stop-color:#fefb01"
         offset="1"
         id="stop680" /></radialGradient><clipPath
       clipPathUnits="userSpaceOnUse"
       id="clipPath692"><path
         d="M 0,500 H 500 V 0 H 0 Z"
         id="path690"
         inkscape:connector-curvature="0" /></clipPath><clipPath
       clipPathUnits="userSpaceOnUse"
       id="clipPath716"><path
         d="m 368.722,299.808 c 0,-5.886 4.771,-10.657 10.656,-10.657 v 0 c 5.885,0 10.656,4.771 10.656,10.657 v 0 c 0,5.884 -4.771,10.654 -10.656,10.654 v 0 c -5.885,0 -10.656,-4.77 -10.656,-10.654"
         id="path714"
         inkscape:connector-curvature="0" /></clipPath><clipPath
       clipPathUnits="userSpaceOnUse"
       id="clipPath728"><path
         d="m 372.683,303.639 h 18.125 v -18.123 h -18.125 z"
         id="path726"
         inkscape:connector-curvature="0" /></clipPath><clipPath
       clipPathUnits="userSpaceOnUse"
       id="clipPath732"><path
         d="m 390.808,292.453 -6.938,-6.937 -11.186,11.187 0.966,6.151 5.971,0.786 z"
         id="path730"
         inkscape:connector-curvature="0" /></clipPath><linearGradient
       x1="0"
       y1="0"
       x2="1"
       y2="0"
       gradientUnits="userSpaceOnUse"
       gradientTransform="matrix(13.073632,-12.814353,-17.012308,-17.208452,373.20477,302.94919)"
       spreadMethod="pad"
       id="linearGradient740"><stop
         style="stop-opacity:1;stop-color:#bcbdc1"
         offset="0"
         id="stop734" /><stop
         style="stop-opacity:1;stop-color:#ffffff"
         offset="0.770408"
         id="stop736" /><stop
         style="stop-opacity:1;stop-color:#ffffff"
         offset="1"
         id="stop738" /></linearGradient><clipPath
       clipPathUnits="userSpaceOnUse"
       id="clipPath766"><path
         d="m 382.826,302.023 h 8.173 v -8.173 h -8.173 z"
         id="path764"
         inkscape:connector-curvature="0" /></clipPath><clipPath
       clipPathUnits="userSpaceOnUse"
       id="clipPath770"><path
         d="m 390.999,296.703 -2.853,-2.853 -5.32,5.318 2.853,2.855 z"
         id="path768"
         inkscape:connector-curvature="0" /></clipPath><linearGradient
       x1="0"
       y1="0"
       x2="1"
       y2="0"
       gradientUnits="userSpaceOnUse"
       gradientTransform="matrix(5.0510926,-4.9643335,-5.687499,-5.763382,384.11502,300.686)"
       spreadMethod="pad"
       id="linearGradient778"><stop
         style="stop-opacity:1;stop-color:#bcbdc1"
         offset="0"
         id="stop772" /><stop
         style="stop-opacity:1;stop-color:#ffffff"
         offset="0.770408"
         id="stop774" /><stop
         style="stop-opacity:1;stop-color:#ffffff"
         offset="1"
         id="stop776" /></linearGradient><clipPath
       clipPathUnits="userSpaceOnUse"
       id="clipPath804"><path
         d="M 0,500 H 500 V 0 H 0 Z"
         id="path802"
         inkscape:connector-curvature="0" /></clipPath><clipPath
       clipPathUnits="userSpaceOnUse"
       id="clipPath852"><path
         d="m 366.009,226.698 h 8.279 v -19.841 h -8.279 z"
         id="path850"
         inkscape:connector-curvature="0" /></clipPath><clipPath
       clipPathUnits="userSpaceOnUse"
       id="clipPath868"><path
         d="m 367.074,221.647 h 31.412 v -19.05 h -31.412 z"
         id="path866"
         inkscape:connector-curvature="0" /></clipPath><clipPath
       clipPathUnits="userSpaceOnUse"
       id="clipPath884"><path
         d="m 173.458,309.419 h 10.457 v -19.29 h -10.457 z"
         id="path882"
         inkscape:connector-curvature="0" /></clipPath><clipPath
       clipPathUnits="userSpaceOnUse"
       id="clipPath900"><path
         d="m 192.842,298.494 h 18.909 v -10.981 h -18.909 z"
         id="path898"
         inkscape:connector-curvature="0" /></clipPath><clipPath
       clipPathUnits="userSpaceOnUse"
       id="clipPath916"><path
         d="m 184.68,319.742 h 18.604 V 288.739 H 184.68 Z"
         id="path914"
         inkscape:connector-curvature="0" /></clipPath><clipPath
       clipPathUnits="userSpaceOnUse"
       id="clipPath932"><path
         d="m 137.332,182.317 h 18.215 V 140.66 h -18.215 z"
         id="path930"
         inkscape:connector-curvature="0" /></clipPath><clipPath
       clipPathUnits="userSpaceOnUse"
       id="clipPath952"><path
         d="m 280.506,356.425 -0.35,-20.972 c -0.068,-4.036 3.15,-7.365 7.189,-7.433 v 0 l 20.973,-0.351 c 4.037,-0.067 7.366,3.153 7.433,7.189 v 0 l 0.351,20.972 c 0.067,4.039 -3.153,7.368 -7.19,7.435 v 0 l -20.972,0.35 c -0.042,10e-4 -0.083,10e-4 -0.125,10e-4 v 0 c -3.982,0 -7.242,-3.195 -7.309,-7.191"
         id="path950"
         inkscape:connector-curvature="0" /></clipPath><radialGradient
       fx="0"
       fy="0"
       cx="0"
       cy="0"
       r="1"
       gradientUnits="userSpaceOnUse"
       gradientTransform="matrix(47.168991,-0.7878009,-0.7878009,-47.168991,290.41446,325.21094)"
       spreadMethod="pad"
       id="radialGradient970"><stop
         style="stop-opacity:1;stop-color:#fed779"
         offset="0"
         id="stop958" /><stop
         style="stop-opacity:1;stop-color:#fed779"
         offset="0.0969388"
         id="stop960" /><stop
         style="stop-opacity:1;stop-color:#fed779"
         offset="0.16567668"
         id="stop962" /><stop
         style="stop-opacity:1;stop-color:#e35f58"
         offset="0.44898"
         id="stop964" /><stop
         style="stop-opacity:1;stop-color:#d02a9b"
         offset="0.678571"
         id="stop966" /><stop
         style="stop-opacity:1;stop-color:#6868de"
         offset="1"
         id="stop968" /></radialGradient><clipPath
       clipPathUnits="userSpaceOnUse"
       id="clipPath980"><path
         d="M 0,500 H 500 V 0 H 0 Z"
         id="path978"
         inkscape:connector-curvature="0" /></clipPath><clipPath
       clipPathUnits="userSpaceOnUse"
       id="clipPath1004"><path
         d="m 137.332,177.627 h 8.217 v -8.217 h -8.217 z"
         id="path1002"
         inkscape:connector-curvature="0" /></clipPath><clipPath
       clipPathUnits="userSpaceOnUse"
       id="clipPath1020"><path
         d="m 250.259,329.987 h 8.218 v -8.217 h -8.218 z"
         id="path1018"
         inkscape:connector-curvature="0" /></clipPath><clipPath
       clipPathUnits="userSpaceOnUse"
       id="clipPath1036"><path
         d="m 359.148,196.062 h 8.217 v -8.217 h -8.217 z"
         id="path1034"
         inkscape:connector-curvature="0" /></clipPath><clipPath
       clipPathUnits="userSpaceOnUse"
       id="clipPath1084"><path
         d="M 0,500 H 500 V 0 H 0 Z"
         id="path1082"
         inkscape:connector-curvature="0" /></clipPath></defs><sodipodi:namedview
     pagecolor="#ffffff"
     bordercolor="#666666"
     borderopacity="1"
     objecttolerance="10"
     gridtolerance="10"
     guidetolerance="10"
     inkscape:pageopacity="0"
     inkscape:pageshadow="2"
     inkscape:window-width="1366"
     inkscape:window-height="705"
     id="namedview4"
     showgrid="false"
     inkscape:zoom="0.70799998"
     inkscape:cx="340.968"
     inkscape:cy="405.0922"
     inkscape:window-x="0"
     inkscape:window-y="24"
     inkscape:window-maximized="1"
     inkscape:current-layer="g10" /><g
     id="g10"
     inkscape:groupmode="layer"
     inkscape:label="308337-P8EXG4-169"
     transform="matrix(1.3333333,0,0,-1.3333333,0,666.66667)"><path
       d="M 0,0 H 500 V 500 H 0 Z"
       style="fill:#00b4d5;fill-opacity:1;fill-rule:nonzero;stroke:none"
       id="path12"
       inkscape:connector-curvature="0" /><g
       id="g14"><g
         id="g16"
         clip-path="url(#clipPath20)"><g
           id="g22"><g
             id="g24" /><g
             id="g36"><g
               clip-path="url(#clipPath28)"
               id="g34"
               style="opacity:0.5"><g
                 transform="translate(393.7773,232.2637)"
                 id="g32"><path
                   d="m 0,0 c 16.475,34.389 -8.73,76.667 -39.74,94.111 -24.845,13.974 -55.565,19.708 -83.577,13.747 -24.511,-5.216 -46.516,-18.771 -71.299,-22.911 -35.181,-5.877 -69.668,9.635 -100.437,-15.153 -14.973,-12.063 -25.058,-29.552 -30.048,-48.122 -15.342,-57.097 16.977,-107.417 65.491,-135.086 34.899,-19.903 78.752,-22.06 115.852,-7.012 28.046,11.375 45.625,33.358 63.855,56.473 9.948,12.613 21.254,25.232 35.829,32.547 13.475,6.761 27.283,8.084 37.358,20.738 C -3.977,-7.228 -1.753,-3.658 0,0"
                   style="fill:#00b4d5;fill-opacity:1;fill-rule:nonzero;stroke:none"
                   id="path30"
                   inkscape:connector-curvature="0" /></g></g></g></g><g
           id="g38"><g
             id="g40" /><g
             id="g52"><g
               clip-path="url(#clipPath44)"
               id="g50"
               style="opacity:0.5"><g
                 transform="translate(391.9229,193.9678)"
                 id="g48"><path
                   d="M 0,0 C -3.995,2.52 -8.562,4.169 -13.279,4.743 -50.095,9.227 -68.23,-51.064 -27.701,-56.178 2.442,-59.98 32.058,-20.215 0,0"
                   style="fill:#00b4d5;fill-opacity:1;fill-rule:nonzero;stroke:none"
                   id="path46"
                   inkscape:connector-curvature="0" /></g></g></g></g><g
           id="g54"
           transform="translate(153.6299,110.4922)"><path
             d="M 0,0 V -3.425 C 0,-5.754 1.888,-7.642 4.217,-7.642 H 205.41 c 2.329,0 4.217,1.888 4.217,4.217 l 0,3.425 z"
             style="fill:#9a9a9a;fill-opacity:1;fill-rule:nonzero;stroke:none"
             id="path56"
             inkscape:connector-curvature="0" /></g><g
           id="g58"
           transform="translate(245.2964,107.21)"><path
             d="M 0,0 1.069,0.781 H 27.153 L 28.021,0 h 86.033 c 2.821,0 4.84,2.725 4.019,5.424 l -13.074,42.95 c -0.539,1.769 -2.17,2.978 -4.019,2.978 H -73.898 c -1.843,0 -3.47,-1.202 -4.014,-2.961 L -91.179,5.439 C -92.014,2.738 -89.994,0 -87.166,0 Z"
             style="fill:#e7e4e5;fill-opacity:1;fill-rule:nonzero;stroke:none"
             id="path60"
             inkscape:connector-curvature="0" /></g><g
           id="g62"
           transform="translate(187.3003,152.3105)"><path
             d="m 0,0 h 142.185 l 4.98,-23.049 H -4.284 Z"
             style="fill:#c4c4c4;fill-opacity:1;fill-rule:nonzero;stroke:none"
             id="path64"
             inkscape:connector-curvature="0" /></g><g
           id="g66"
           transform="translate(259.4238,276.3623)"><path
             d="m 0,0 c 0,-0.579 -0.469,-1.047 -1.048,-1.047 -0.579,0 -1.048,0.468 -1.048,1.047 0,0.579 0.469,1.048 1.048,1.048 C -0.469,1.048 0,0.579 0,0 Z"
             style="fill:none;stroke:#000000;stroke-width:1;stroke-linecap:butt;stroke-linejoin:miter;stroke-miterlimit:10;stroke-dasharray:none;stroke-opacity:1"
             id="path68"
             inkscape:connector-curvature="0" /></g><g
           id="g70"
           transform="translate(342.2061,262.6475)"><path
             d="m 0,0 h -168.337 v 4.667 c 0,3.065 2.485,5.549 5.55,5.549 H -5.55 C -2.485,10.216 0,7.732 0,4.667 Z"
             style="fill:none;stroke:#000000;stroke-width:1;stroke-linecap:butt;stroke-linejoin:miter;stroke-miterlimit:10;stroke-dasharray:none;stroke-opacity:1"
             id="path72"
             inkscape:connector-curvature="0" /></g><path
           d="m 187.3,265.195 h -8.105 v 5.095 h 8.105 z"
           style="fill:none;stroke:#000000;stroke-width:1;stroke-linecap:butt;stroke-linejoin:miter;stroke-miterlimit:10;stroke-dasharray:none;stroke-opacity:1"
           id="path74"
           inkscape:connector-curvature="0" /><path
           d="m 261.635,265.658 h -70.166 v 3.937 h 70.166 z"
           style="fill:none;stroke:#000000;stroke-width:1;stroke-linecap:butt;stroke-linejoin:miter;stroke-miterlimit:10;stroke-dasharray:none;stroke-opacity:1"
           id="path76"
           inkscape:connector-curvature="0" /><path
           d="m 229.084,165.851 h -52.668 v 92.628 h 52.668 z"
           style="fill:none;stroke:#000000;stroke-width:1;stroke-linecap:butt;stroke-linejoin:miter;stroke-miterlimit:10;stroke-dasharray:none;stroke-opacity:1"
           id="path78"
           inkscape:connector-curvature="0" /><path
           d="m 339.74,165.851 h -39.832 v 61.135 h 39.832 z"
           style="fill:none;stroke:#000000;stroke-width:1;stroke-linecap:butt;stroke-linejoin:miter;stroke-miterlimit:10;stroke-dasharray:none;stroke-opacity:1"
           id="path80"
           inkscape:connector-curvature="0" /><path
           d="M 339.74,258.479 H 299.908 V 231.463 H 339.74 Z"
           style="fill:none;stroke:#000000;stroke-width:1;stroke-linecap:butt;stroke-linejoin:miter;stroke-miterlimit:10;stroke-dasharray:none;stroke-opacity:1"
           id="path82"
           inkscape:connector-curvature="0" /><path
           d="m 296.863,238.101 h -64.739 v 20.378 h 64.739 z"
           style="fill:none;stroke:#000000;stroke-width:1;stroke-linecap:butt;stroke-linejoin:miter;stroke-miterlimit:10;stroke-dasharray:none;stroke-opacity:1"
           id="path84"
           inkscape:connector-curvature="0" /><path
           d="m 296.863,214.617 h -64.739 v 20.378 h 64.739 z"
           style="fill:none;stroke:#000000;stroke-width:1;stroke-linecap:butt;stroke-linejoin:miter;stroke-miterlimit:10;stroke-dasharray:none;stroke-opacity:1"
           id="path86"
           inkscape:connector-curvature="0" /><path
           d="m 296.863,191.134 h -64.739 v 20.378 h 64.739 z"
           style="fill:none;stroke:#000000;stroke-width:1;stroke-linecap:butt;stroke-linejoin:miter;stroke-miterlimit:10;stroke-dasharray:none;stroke-opacity:1"
           id="path88"
           inkscape:connector-curvature="0" /><path
           d="m 296.863,167.65 h -64.739 v 20.378 h 64.739 z"
           style="fill:none;stroke:#000000;stroke-width:1;stroke-linecap:butt;stroke-linejoin:miter;stroke-miterlimit:10;stroke-dasharray:none;stroke-opacity:1"
           id="path90"
           inkscape:connector-curvature="0" /><g
           id="g92"
           transform="translate(338.415,157.666)"><path
             d="m 0,0 h -160.755 c -5.615,0 -10.167,4.552 -10.167,10.166 v 102.632 c 0,5.615 4.552,10.166 10.167,10.166 H 0 c 5.615,0 10.167,-4.551 10.167,-10.166 V 10.166 C 10.167,4.552 5.615,0 0,0"
             style="fill:#4d4749;fill-opacity:1;fill-rule:nonzero;stroke:none"
             id="path94"
             inkscape:connector-curvature="0" /></g><g
           id="g96"
           transform="translate(338.0195,162.332)"><path
             d="m 0,0 h -159.964 c -2.312,0 -4.186,1.874 -4.186,4.187 v 102.577 c 0,2.312 1.874,4.186 4.186,4.186 L 0,110.95 c 2.312,0 4.187,-1.874 4.187,-4.186 V 4.187 C 4.187,1.874 2.312,0 0,0"
             style="fill:#ffffff;fill-opacity:1;fill-rule:nonzero;stroke:none"
             id="path98"
             inkscape:connector-curvature="0" /></g><path
           d="M 329.485,155.917 H 187.3 v 2.085 h 142.185 z"
           style="fill:#1e1e1e;fill-opacity:1;fill-rule:nonzero;stroke:none"
           id="path100"
           inkscape:connector-curvature="0" /><g
           id="g102"
           transform="translate(169.1802,151.7373)"><path
             d="M 0,0 H 15.457 L 10.594,-22.926 H -6.079 Z"
             style="fill:#c4c4c4;fill-opacity:1;fill-rule:nonzero;stroke:none"
             id="path104"
             inkscape:connector-curvature="0" /></g><g
           id="g106"
           transform="translate(331.8594,150.6953)"><path
             d="M 0,0 4.516,-21.884 H 21.188 L 15.631,0 Z"
             style="fill:#c4c4c4;fill-opacity:1;fill-rule:nonzero;stroke:none"
             id="path108"
             inkscape:connector-curvature="0" /></g><g
           id="g110"
           transform="translate(285.5615,111.3281)"><path
             d="m 0,0 h -54.237 c -1.582,0 -2.829,1.348 -2.706,2.926 l 0.654,8.418 c 0.111,1.418 1.297,2.51 2.719,2.504 L -0.522,13.616 C 0.903,13.609 2.082,12.501 2.175,11.078 L 2.709,2.892 C 2.812,1.326 1.569,0 0,0"
             style="fill:#c4c4c4;fill-opacity:1;fill-rule:nonzero;stroke:none"
             id="path112"
             inkscape:connector-curvature="0" /></g><g
           id="g114"
           transform="translate(259.4238,276.7808)"><path
             d="m 0,0 c 0,-0.579 -0.469,-1.048 -1.048,-1.048 -0.579,0 -1.048,0.469 -1.048,1.048 0,0.579 0.469,1.048 1.048,1.048 C -0.469,1.048 0,0.579 0,0"
             style="fill:#999999;fill-opacity:1;fill-rule:nonzero;stroke:none"
             id="path116"
             inkscape:connector-curvature="0" /></g><g
           id="g118"
           transform="translate(195.9277,149.4092)"><path
             d="m 0,0 h -6.718 c -0.519,0 -0.94,0.42 -0.94,0.939 v 0.032 c 0,0.518 0.421,0.939 0.94,0.939 H 0 c 0.519,0 0.939,-0.421 0.939,-0.939 V 0.939 C 0.939,0.42 0.519,0 0,0"
             style="fill:#4d4749;fill-opacity:1;fill-rule:nonzero;stroke:none"
             id="path120"
             inkscape:connector-curvature="0" /></g><g
           id="g122"
           transform="translate(198.8354,140.541)"><path
             d="m 0,0 h -10.71 c -0.759,0 -1.375,0.615 -1.375,1.375 v 0.376 c 0,0.76 0.616,1.375 1.375,1.375 H 0 c 0.76,0 1.375,-0.615 1.375,-1.375 V 1.375 C 1.375,0.615 0.76,0 0,0"
             style="fill:#4d4749;fill-opacity:1;fill-rule:nonzero;stroke:none"
             id="path124"
             inkscape:connector-curvature="0" /></g><g
           id="g126"
           transform="translate(210.1899,136.0352)"><path
             d="m 0,0 h -5.847 c -0.759,0 -1.375,0.615 -1.375,1.375 v 0.376 c 0,0.759 0.616,1.375 1.375,1.375 H 0 c 0.759,0 1.375,-0.616 1.375,-1.375 V 1.375 C 1.375,0.615 0.759,0 0,0"
             style="fill:#4d4749;fill-opacity:1;fill-rule:nonzero;stroke:none"
             id="path128"
             inkscape:connector-curvature="0" /></g><g
           id="g130"
           transform="translate(277.8379,131.1484)"><path
             d="m 0,0 h -46.358 c -0.759,0 -1.375,0.616 -1.375,1.375 v 0.724 c 0,0.759 0.616,1.375 1.375,1.375 H 0 c 0.76,0 1.375,-0.616 1.375,-1.375 V 1.375 C 1.375,0.616 0.76,0 0,0"
             style="fill:#4d4749;fill-opacity:1;fill-rule:nonzero;stroke:none"
             id="path132"
             inkscape:connector-curvature="0" /></g><g
           id="g134"
           transform="translate(219.1997,140.541)"><path
             d="m 0,0 h -5.847 c -0.76,0 -1.375,0.615 -1.375,1.375 v 0.376 c 0,0.76 0.615,1.375 1.375,1.375 H 0 c 0.759,0 1.375,-0.615 1.375,-1.375 V 1.375 C 1.375,0.615 0.759,0 0,0"
             style="fill:#4d4749;fill-opacity:1;fill-rule:nonzero;stroke:none"
             id="path136"
             inkscape:connector-curvature="0" /></g><g
           id="g138"
           transform="translate(229.2729,140.541)"><path
             d="m 0,0 h -5.847 c -0.759,0 -1.375,0.615 -1.375,1.375 v 0.376 c 0,0.76 0.616,1.375 1.375,1.375 H 0 c 0.759,0 1.375,-0.615 1.375,-1.375 V 1.375 C 1.375,0.615 0.759,0 0,0"
             style="fill:#4d4749;fill-opacity:1;fill-rule:nonzero;stroke:none"
             id="path140"
             inkscape:connector-curvature="0" /></g><g
           id="g142"
           transform="translate(239.3462,140.541)"><path
             d="m 0,0 h -5.847 c -0.759,0 -1.375,0.615 -1.375,1.375 v 0.376 c 0,0.76 0.616,1.375 1.375,1.375 H 0 c 0.759,0 1.375,-0.615 1.375,-1.375 V 1.375 C 1.375,0.615 0.759,0 0,0"
             style="fill:#4d4749;fill-opacity:1;fill-rule:nonzero;stroke:none"
             id="path144"
             inkscape:connector-curvature="0" /></g><g
           id="g146"
           transform="translate(309.8594,140.541)"><path
             d="m 0,0 h -5.847 c -0.759,0 -1.375,0.615 -1.375,1.375 v 0.376 c 0,0.76 0.616,1.375 1.375,1.375 H 0 c 0.76,0 1.375,-0.615 1.375,-1.375 V 1.375 C 1.375,0.615 0.76,0 0,0"
             style="fill:#4d4749;fill-opacity:1;fill-rule:nonzero;stroke:none"
             id="path148"
             inkscape:connector-curvature="0" /></g><g
           id="g150"
           transform="translate(319.9336,140.541)"><path
             d="m 0,0 h -5.848 c -0.758,0 -1.375,0.615 -1.375,1.375 v 0.376 c 0,0.76 0.617,1.375 1.375,1.375 H 0 c 0.759,0 1.375,-0.615 1.375,-1.375 V 1.375 C 1.375,0.615 0.759,0 0,0"
             style="fill:#4d4749;fill-opacity:1;fill-rule:nonzero;stroke:none"
             id="path152"
             inkscape:connector-curvature="0" /></g><g
           id="g154"
           transform="translate(329.0293,136.1445)"><path
             d="m 0,0 h -4.609 c -0.76,0 -1.375,0.615 -1.375,1.375 v 4.609 c 0,0.76 0.615,1.375 1.375,1.375 H 0 c 0.76,0 1.375,-0.615 1.375,-1.375 V 1.375 C 1.375,0.615 0.76,0 0,0"
             style="fill:#4d4749;fill-opacity:1;fill-rule:nonzero;stroke:none"
             id="path156"
             inkscape:connector-curvature="0" /></g><g
           id="g158"
           transform="translate(235.0479,144.8125)"><path
             d="m 0,0 h -5.847 c -0.759,0 -1.375,0.616 -1.375,1.375 v 0.377 c 0,0.759 0.616,1.375 1.375,1.375 H 0 c 0.759,0 1.375,-0.616 1.375,-1.375 V 1.375 C 1.375,0.616 0.759,0 0,0"
             style="fill:#4d4749;fill-opacity:1;fill-rule:nonzero;stroke:none"
             id="path160"
             inkscape:connector-curvature="0" /></g><g
           id="g162"
           transform="translate(245.1211,144.8125)"><path
             d="m 0,0 h -5.847 c -0.759,0 -1.375,0.616 -1.375,1.375 v 0.377 c 0,0.759 0.616,1.375 1.375,1.375 H 0 c 0.759,0 1.375,-0.616 1.375,-1.375 V 1.375 C 1.375,0.616 0.759,0 0,0"
             style="fill:#4d4749;fill-opacity:1;fill-rule:nonzero;stroke:none"
             id="path164"
             inkscape:connector-curvature="0" /></g><g
           id="g166"
           transform="translate(216.0747,149.4092)"><path
             d="m 0,0 h -6.718 c -0.519,0 -0.94,0.42 -0.94,0.939 v 0.032 c 0,0.518 0.421,0.939 0.94,0.939 H 0 c 0.519,0 0.939,-0.421 0.939,-0.939 V 0.939 C 0.939,0.42 0.519,0 0,0"
             style="fill:#4d4749;fill-opacity:1;fill-rule:nonzero;stroke:none"
             id="path168"
             inkscape:connector-curvature="0" /></g><g
           id="g170"
           transform="translate(236.2212,149.4092)"><path
             d="m 0,0 h -6.718 c -0.519,0 -0.94,0.42 -0.94,0.939 v 0.032 c 0,0.518 0.421,0.939 0.94,0.939 H 0 c 0.519,0 0.939,-0.421 0.939,-0.939 V 0.939 C 0.939,0.42 0.519,0 0,0"
             style="fill:#4d4749;fill-opacity:1;fill-rule:nonzero;stroke:none"
             id="path172"
             inkscape:connector-curvature="0" /></g><g
           id="g174"
           transform="translate(286.5879,149.4092)"><path
             d="m 0,0 h -6.718 c -0.518,0 -0.939,0.42 -0.939,0.939 v 0.032 c 0,0.518 0.421,0.939 0.939,0.939 H 0 c 0.52,0 0.939,-0.421 0.939,-0.939 V 0.939 C 0.939,0.42 0.52,0 0,0"
             style="fill:#4d4749;fill-opacity:1;fill-rule:nonzero;stroke:none"
             id="path176"
             inkscape:connector-curvature="0" /></g><g
           id="g178"
           transform="translate(296.6611,149.4092)"><path
             d="m 0,0 h -6.718 c -0.518,0 -0.939,0.42 -0.939,0.939 v 0.032 c 0,0.518 0.421,0.939 0.939,0.939 H 0 c 0.52,0 0.939,-0.421 0.939,-0.939 V 0.939 C 0.939,0.42 0.52,0 0,0"
             style="fill:#4d4749;fill-opacity:1;fill-rule:nonzero;stroke:none"
             id="path180"
             inkscape:connector-curvature="0" /></g><g
           id="g182"
           transform="translate(316.8086,149.4092)"><path
             d="m 0,0 h -6.719 c -0.518,0 -0.939,0.42 -0.939,0.939 v 0.032 c 0,0.518 0.421,0.939 0.939,0.939 H 0 c 0.519,0 0.939,-0.421 0.939,-0.939 V 0.939 C 0.939,0.42 0.519,0 0,0"
             style="fill:#4d4749;fill-opacity:1;fill-rule:nonzero;stroke:none"
             id="path184"
             inkscape:connector-curvature="0" /></g><g
           id="g186"
           transform="translate(326.8818,149.4092)"><path
             d="m 0,0 h -6.719 c -0.518,0 -0.939,0.42 -0.939,0.939 v 0.032 c 0,0.518 0.421,0.939 0.939,0.939 H 0 c 0.519,0 0.939,-0.421 0.939,-0.939 V 0.939 C 0.939,0.42 0.519,0 0,0"
             style="fill:#4d4749;fill-opacity:1;fill-rule:nonzero;stroke:none"
             id="path188"
             inkscape:connector-curvature="0" /></g><g
           id="g190"
           transform="translate(195.0146,144.8125)"><path
             d="m 0,0 h -5.847 c -0.759,0 -1.375,0.616 -1.375,1.375 v 0.377 c 0,0.759 0.616,1.375 1.375,1.375 H 0 c 0.759,0 1.375,-0.616 1.375,-1.375 V 1.375 C 1.375,0.616 0.759,0 0,0"
             style="fill:#4d4749;fill-opacity:1;fill-rule:nonzero;stroke:none"
             id="path192"
             inkscape:connector-curvature="0" /></g><g
           id="g194"
           transform="translate(195.0146,131.3223)"><path
             d="m 0,0 h -8.539 c -0.759,0 -1.375,0.616 -1.375,1.375 v 0.376 c 0,0.76 0.616,1.375 1.375,1.375 H 0 c 0.759,0 1.375,-0.615 1.375,-1.375 V 1.375 C 1.375,0.616 0.759,0 0,0"
             style="fill:#4d4749;fill-opacity:1;fill-rule:nonzero;stroke:none"
             id="path196"
             inkscape:connector-curvature="0" /></g><g
           id="g198"
           transform="translate(199.6606,136.0352)"><path
             d="m 0,0 h -12.36 c -0.76,0 -1.375,0.615 -1.375,1.375 v 0.376 c 0,0.759 0.615,1.375 1.375,1.375 H 0 c 0.759,0 1.375,-0.616 1.375,-1.375 V 1.375 C 1.375,0.615 0.759,0 0,0"
             style="fill:#4d4749;fill-opacity:1;fill-rule:nonzero;stroke:none"
             id="path200"
             inkscape:connector-curvature="0" /></g><g
           id="g202"
           transform="translate(204.8276,144.8125)"><path
             d="m 0,0 h -5.847 c -0.759,0 -1.375,0.616 -1.375,1.375 v 0.377 c 0,0.759 0.616,1.375 1.375,1.375 H 0 c 0.759,0 1.375,-0.616 1.375,-1.375 V 1.375 C 1.375,0.616 0.759,0 0,0"
             style="fill:#4d4749;fill-opacity:1;fill-rule:nonzero;stroke:none"
             id="path204"
             inkscape:connector-curvature="0" /></g><g
           id="g206"
           transform="translate(209.0176,140.541)"><path
             d="m 0,0 h -5.847 c -0.759,0 -1.375,0.615 -1.375,1.375 v 0.376 c 0,0.76 0.616,1.375 1.375,1.375 H 0 c 0.759,0 1.375,-0.615 1.375,-1.375 V 1.375 C 1.375,0.615 0.759,0 0,0"
             style="fill:#4d4749;fill-opacity:1;fill-rule:nonzero;stroke:none"
             id="path208"
             inkscape:connector-curvature="0" /></g><g
           id="g210"
           transform="translate(204.8276,131.3223)"><path
             d="m 0,0 h -5.847 c -0.759,0 -1.375,0.616 -1.375,1.375 v 0.376 c 0,0.76 0.616,1.375 1.375,1.375 H 0 c 0.759,0 1.375,-0.615 1.375,-1.375 V 1.375 C 1.375,0.616 0.759,0 0,0"
             style="fill:#4d4749;fill-opacity:1;fill-rule:nonzero;stroke:none"
             id="path212"
             inkscape:connector-curvature="0" /></g><g
           id="g214"
           transform="translate(215.0312,131.3223)"><path
             d="m 0,0 h -5.847 c -0.759,0 -1.375,0.616 -1.375,1.375 v 0.376 c 0,0.76 0.616,1.375 1.375,1.375 H 0 c 0.759,0 1.375,-0.615 1.375,-1.375 V 1.375 C 1.375,0.616 0.759,0 0,0"
             style="fill:#4d4749;fill-opacity:1;fill-rule:nonzero;stroke:none"
             id="path216"
             inkscape:connector-curvature="0" /></g><g
           id="g218"
           transform="translate(225.6689,131.3223)"><path
             d="m 0,0 h -5.847 c -0.759,0 -1.375,0.616 -1.375,1.375 v 0.376 c 0,0.76 0.616,1.375 1.375,1.375 H 0 c 0.759,0 1.375,-0.615 1.375,-1.375 V 1.375 C 1.375,0.616 0.759,0 0,0"
             style="fill:#4d4749;fill-opacity:1;fill-rule:nonzero;stroke:none"
             id="path220"
             inkscape:connector-curvature="0" /></g><g
           id="g222"
           transform="translate(289.4961,131.3223)"><path
             d="m 0,0 h -5.848 c -0.758,0 -1.375,0.616 -1.375,1.375 v 0.376 c 0,0.76 0.617,1.375 1.375,1.375 H 0 c 0.76,0 1.375,-0.615 1.375,-1.375 V 1.375 C 1.375,0.616 0.76,0 0,0"
             style="fill:#4d4749;fill-opacity:1;fill-rule:nonzero;stroke:none"
             id="path224"
             inkscape:connector-curvature="0" /></g><g
           id="g226"
           transform="translate(300.1338,131.3223)"><path
             d="m 0,0 h -5.847 c -0.759,0 -1.375,0.616 -1.375,1.375 v 0.376 c 0,0.76 0.616,1.375 1.375,1.375 H 0 c 0.76,0 1.375,-0.615 1.375,-1.375 V 1.375 C 1.375,0.616 0.76,0 0,0"
             style="fill:#4d4749;fill-opacity:1;fill-rule:nonzero;stroke:none"
             id="path228"
             inkscape:connector-curvature="0" /></g><g
           id="g230"
           transform="translate(308.6006,131.3223)"><path
             d="m 0,0 h -4.197 c -0.759,0 -1.375,0.616 -1.375,1.375 v 0.376 c 0,0.76 0.616,1.375 1.375,1.375 H 0 c 0.76,0 1.375,-0.615 1.375,-1.375 V 1.375 C 1.375,0.616 0.76,0 0,0"
             style="fill:#4d4749;fill-opacity:1;fill-rule:nonzero;stroke:none"
             id="path232"
             inkscape:connector-curvature="0" /></g><g
           id="g234"
           transform="translate(220.2632,136.0352)"><path
             d="m 0,0 h -5.847 c -0.759,0 -1.375,0.615 -1.375,1.375 v 0.376 c 0,0.759 0.616,1.375 1.375,1.375 H 0 c 0.759,0 1.375,-0.616 1.375,-1.375 V 1.375 C 1.375,0.615 0.759,0 0,0"
             style="fill:#4d4749;fill-opacity:1;fill-rule:nonzero;stroke:none"
             id="path236"
             inkscape:connector-curvature="0" /></g><g
           id="g238"
           transform="translate(230.3364,136.0352)"><path
             d="m 0,0 h -5.847 c -0.759,0 -1.375,0.615 -1.375,1.375 v 0.376 c 0,0.759 0.616,1.375 1.375,1.375 H 0 c 0.76,0 1.375,-0.616 1.375,-1.375 V 1.375 C 1.375,0.615 0.76,0 0,0"
             style="fill:#4d4749;fill-opacity:1;fill-rule:nonzero;stroke:none"
             id="path240"
             inkscape:connector-curvature="0" /></g><g
           id="g242"
           transform="translate(240.4102,136.0352)"><path
             d="m 0,0 h -5.847 c -0.759,0 -1.375,0.615 -1.375,1.375 v 0.376 c 0,0.759 0.616,1.375 1.375,1.375 H 0 c 0.759,0 1.375,-0.616 1.375,-1.375 V 1.375 C 1.375,0.615 0.759,0 0,0"
             style="fill:#4d4749;fill-opacity:1;fill-rule:nonzero;stroke:none"
             id="path244"
             inkscape:connector-curvature="0" /></g><g
           id="g246"
           transform="translate(250.4834,136.0352)"><path
             d="m 0,0 h -5.847 c -0.759,0 -1.375,0.615 -1.375,1.375 v 0.376 c 0,0.759 0.616,1.375 1.375,1.375 H 0 c 0.76,0 1.375,-0.616 1.375,-1.375 V 1.375 C 1.375,0.615 0.76,0 0,0"
             style="fill:#4d4749;fill-opacity:1;fill-rule:nonzero;stroke:none"
             id="path248"
             inkscape:connector-curvature="0" /></g><g
           id="g250"
           transform="translate(260.5566,136.0352)"><path
             d="m 0,0 h -5.847 c -0.759,0 -1.375,0.615 -1.375,1.375 v 0.376 c 0,0.759 0.616,1.375 1.375,1.375 H 0 c 0.76,0 1.375,-0.616 1.375,-1.375 V 1.375 C 1.375,0.615 0.76,0 0,0"
             style="fill:#4d4749;fill-opacity:1;fill-rule:nonzero;stroke:none"
             id="path252"
             inkscape:connector-curvature="0" /></g><g
           id="g254"
           transform="translate(270.6299,136.0352)"><path
             d="m 0,0 h -5.847 c -0.759,0 -1.375,0.615 -1.375,1.375 v 0.376 c 0,0.759 0.616,1.375 1.375,1.375 H 0 c 0.76,0 1.375,-0.616 1.375,-1.375 V 1.375 C 1.375,0.615 0.76,0 0,0"
             style="fill:#4d4749;fill-opacity:1;fill-rule:nonzero;stroke:none"
             id="path256"
             inkscape:connector-curvature="0" /></g><g
           id="g258"
           transform="translate(280.7031,136.0352)"><path
             d="m 0,0 h -5.847 c -0.759,0 -1.375,0.615 -1.375,1.375 v 0.376 c 0,0.759 0.616,1.375 1.375,1.375 H 0 c 0.76,0 1.375,-0.616 1.375,-1.375 V 1.375 C 1.375,0.615 0.76,0 0,0"
             style="fill:#4d4749;fill-opacity:1;fill-rule:nonzero;stroke:none"
             id="path260"
             inkscape:connector-curvature="0" /></g><g
           id="g262"
           transform="translate(290.7773,136.0352)"><path
             d="m 0,0 h -5.848 c -0.759,0 -1.375,0.615 -1.375,1.375 v 0.376 c 0,0.759 0.616,1.375 1.375,1.375 H 0 c 0.759,0 1.375,-0.616 1.375,-1.375 V 1.375 C 1.375,0.615 0.759,0 0,0"
             style="fill:#4d4749;fill-opacity:1;fill-rule:nonzero;stroke:none"
             id="path264"
             inkscape:connector-curvature="0" /></g><g
           id="g266"
           transform="translate(300.8506,136.0352)"><path
             d="m 0,0 h -5.848 c -0.758,0 -1.375,0.615 -1.375,1.375 v 0.376 c 0,0.759 0.617,1.375 1.375,1.375 H 0 c 0.759,0 1.375,-0.616 1.375,-1.375 V 1.375 C 1.375,0.615 0.759,0 0,0"
             style="fill:#4d4749;fill-opacity:1;fill-rule:nonzero;stroke:none"
             id="path268"
             inkscape:connector-curvature="0" /></g><g
           id="g270"
           transform="translate(310.9238,136.0352)"><path
             d="m 0,0 h -5.848 c -0.758,0 -1.375,0.615 -1.375,1.375 v 0.376 c 0,0.759 0.617,1.375 1.375,1.375 H 0 c 0.759,0 1.375,-0.616 1.375,-1.375 V 1.375 C 1.375,0.615 0.759,0 0,0"
             style="fill:#4d4749;fill-opacity:1;fill-rule:nonzero;stroke:none"
             id="path272"
             inkscape:connector-curvature="0" /></g><g
           id="g274"
           transform="translate(320.2158,136.0352)"><path
             d="m 0,0 h -5.152 c -0.76,0 -1.375,0.615 -1.375,1.375 v 0.376 c 0,0.759 0.615,1.375 1.375,1.375 H 0 c 0.759,0 1.375,-0.616 1.375,-1.375 V 1.375 C 1.375,0.615 0.759,0 0,0"
             style="fill:#4d4749;fill-opacity:1;fill-rule:nonzero;stroke:none"
             id="path276"
             inkscape:connector-curvature="0" /></g><g
           id="g278"
           transform="translate(249.4194,140.541)"><path
             d="m 0,0 h -5.847 c -0.759,0 -1.375,0.615 -1.375,1.375 v 0.376 c 0,0.76 0.616,1.375 1.375,1.375 H 0 c 0.76,0 1.375,-0.615 1.375,-1.375 V 1.375 C 1.375,0.615 0.76,0 0,0"
             style="fill:#4d4749;fill-opacity:1;fill-rule:nonzero;stroke:none"
             id="path280"
             inkscape:connector-curvature="0" /></g><g
           id="g282"
           transform="translate(259.4932,140.541)"><path
             d="m 0,0 h -5.848 c -0.758,0 -1.375,0.615 -1.375,1.375 v 0.376 c 0,0.76 0.617,1.375 1.375,1.375 H 0 c 0.759,0 1.375,-0.615 1.375,-1.375 V 1.375 C 1.375,0.615 0.759,0 0,0"
             style="fill:#4d4749;fill-opacity:1;fill-rule:nonzero;stroke:none"
             id="path284"
             inkscape:connector-curvature="0" /></g><g
           id="g286"
           transform="translate(269.5664,140.541)"><path
             d="m 0,0 h -5.848 c -0.758,0 -1.375,0.615 -1.375,1.375 v 0.376 c 0,0.76 0.617,1.375 1.375,1.375 H 0 c 0.76,0 1.375,-0.615 1.375,-1.375 V 1.375 C 1.375,0.615 0.76,0 0,0"
             style="fill:#4d4749;fill-opacity:1;fill-rule:nonzero;stroke:none"
             id="path288"
             inkscape:connector-curvature="0" /></g><g
           id="g290"
           transform="translate(279.6396,140.541)"><path
             d="m 0,0 h -5.847 c -0.759,0 -1.375,0.615 -1.375,1.375 v 0.376 c 0,0.76 0.616,1.375 1.375,1.375 H 0 c 0.76,0 1.375,-0.615 1.375,-1.375 V 1.375 C 1.375,0.615 0.76,0 0,0"
             style="fill:#4d4749;fill-opacity:1;fill-rule:nonzero;stroke:none"
             id="path292"
             inkscape:connector-curvature="0" /></g><g
           id="g294"
           transform="translate(289.7129,140.541)"><path
             d="m 0,0 h -5.847 c -0.759,0 -1.375,0.615 -1.375,1.375 v 0.376 c 0,0.76 0.616,1.375 1.375,1.375 H 0 c 0.76,0 1.375,-0.615 1.375,-1.375 V 1.375 C 1.375,0.615 0.76,0 0,0"
             style="fill:#4d4749;fill-opacity:1;fill-rule:nonzero;stroke:none"
             id="path296"
             inkscape:connector-curvature="0" /></g><g
           id="g298"
           transform="translate(299.7861,140.541)"><path
             d="m 0,0 h -5.847 c -0.759,0 -1.375,0.615 -1.375,1.375 v 0.376 c 0,0.76 0.616,1.375 1.375,1.375 H 0 c 0.76,0 1.375,-0.615 1.375,-1.375 V 1.375 C 1.375,0.615 0.76,0 0,0"
             style="fill:#4d4749;fill-opacity:1;fill-rule:nonzero;stroke:none"
             id="path300"
             inkscape:connector-curvature="0" /></g><g
           id="g302"
           transform="translate(331.5693,130.4619)"><path
             d="m 0,0 h -18.96 c -0.759,0 -1.375,0.615 -1.375,1.375 v 1.766 c 0,0.759 0.616,1.375 1.375,1.375 H 0 C 0.76,4.516 1.375,3.9 1.375,3.141 V 1.375 C 1.375,0.615 0.76,0 0,0"
             style="fill:#4d4749;fill-opacity:1;fill-rule:nonzero;stroke:none"
             id="path304"
             inkscape:connector-curvature="0" /></g><g
           id="g306"
           transform="translate(214.9009,144.8125)"><path
             d="m 0,0 h -5.847 c -0.759,0 -1.375,0.616 -1.375,1.375 v 0.377 c 0,0.759 0.616,1.375 1.375,1.375 H 0 c 0.759,0 1.375,-0.616 1.375,-1.375 V 1.375 C 1.375,0.616 0.759,0 0,0"
             style="fill:#4d4749;fill-opacity:1;fill-rule:nonzero;stroke:none"
             id="path308"
             inkscape:connector-curvature="0" /></g><g
           id="g310"
           transform="translate(224.9741,144.8125)"><path
             d="m 0,0 h -5.847 c -0.759,0 -1.375,0.616 -1.375,1.375 v 0.377 c 0,0.759 0.616,1.375 1.375,1.375 H 0 c 0.76,0 1.375,-0.616 1.375,-1.375 V 1.375 C 1.375,0.616 0.76,0 0,0"
             style="fill:#4d4749;fill-opacity:1;fill-rule:nonzero;stroke:none"
             id="path312"
             inkscape:connector-curvature="0" /></g><g
           id="g314"
           transform="translate(255.1943,144.8125)"><path
             d="m 0,0 h -5.847 c -0.759,0 -1.375,0.616 -1.375,1.375 v 0.377 c 0,0.759 0.616,1.375 1.375,1.375 H 0 c 0.76,0 1.375,-0.616 1.375,-1.375 V 1.375 C 1.375,0.616 0.76,0 0,0"
             style="fill:#4d4749;fill-opacity:1;fill-rule:nonzero;stroke:none"
             id="path316"
             inkscape:connector-curvature="0" /></g><g
           id="g318"
           transform="translate(265.2676,144.8125)"><path
             d="m 0,0 h -5.847 c -0.759,0 -1.375,0.616 -1.375,1.375 v 0.377 c 0,0.759 0.616,1.375 1.375,1.375 H 0 c 0.76,0 1.375,-0.616 1.375,-1.375 V 1.375 C 1.375,0.616 0.76,0 0,0"
             style="fill:#4d4749;fill-opacity:1;fill-rule:nonzero;stroke:none"
             id="path320"
             inkscape:connector-curvature="0" /></g><g
           id="g322"
           transform="translate(275.3408,144.8125)"><path
             d="m 0,0 h -5.847 c -0.759,0 -1.375,0.616 -1.375,1.375 v 0.377 c 0,0.759 0.616,1.375 1.375,1.375 H 0 c 0.76,0 1.375,-0.616 1.375,-1.375 V 1.375 C 1.375,0.616 0.76,0 0,0"
             style="fill:#4d4749;fill-opacity:1;fill-rule:nonzero;stroke:none"
             id="path324"
             inkscape:connector-curvature="0" /></g><g
           id="g326"
           transform="translate(285.4141,144.8125)"><path
             d="m 0,0 h -5.847 c -0.759,0 -1.375,0.616 -1.375,1.375 v 0.377 c 0,0.759 0.616,1.375 1.375,1.375 H 0 c 0.76,0 1.375,-0.616 1.375,-1.375 V 1.375 C 1.375,0.616 0.76,0 0,0"
             style="fill:#4d4749;fill-opacity:1;fill-rule:nonzero;stroke:none"
             id="path328"
             inkscape:connector-curvature="0" /></g><g
           id="g330"
           transform="translate(295.4883,144.8125)"><path
             d="m 0,0 h -5.848 c -0.758,0 -1.375,0.616 -1.375,1.375 v 0.377 c 0,0.759 0.617,1.375 1.375,1.375 H 0 c 0.759,0 1.375,-0.616 1.375,-1.375 V 1.375 C 1.375,0.616 0.759,0 0,0"
             style="fill:#4d4749;fill-opacity:1;fill-rule:nonzero;stroke:none"
             id="path332"
             inkscape:connector-curvature="0" /></g><g
           id="g334"
           transform="translate(305.5615,144.8125)"><path
             d="m 0,0 h -5.848 c -0.758,0 -1.375,0.616 -1.375,1.375 v 0.377 c 0,0.759 0.617,1.375 1.375,1.375 H 0 c 0.759,0 1.375,-0.616 1.375,-1.375 V 1.375 C 1.375,0.616 0.759,0 0,0"
             style="fill:#4d4749;fill-opacity:1;fill-rule:nonzero;stroke:none"
             id="path336"
             inkscape:connector-curvature="0" /></g><g
           id="g338"
           transform="translate(327.3584,144.8125)"><path
             d="m 0,0 h -17.571 c -0.759,0 -1.375,0.616 -1.375,1.375 v 0.377 c 0,0.759 0.616,1.375 1.375,1.375 H 0 c 0.759,0 1.375,-0.616 1.375,-1.375 V 1.375 C 1.375,0.616 0.759,0 0,0"
             style="fill:#4d4749;fill-opacity:1;fill-rule:nonzero;stroke:none"
             id="path340"
             inkscape:connector-curvature="0" /></g><g
           id="g342"
           transform="translate(206.0015,149.4092)"><path
             d="m 0,0 h -6.718 c -0.519,0 -0.94,0.42 -0.94,0.939 v 0.032 c 0,0.518 0.421,0.939 0.94,0.939 H 0 c 0.519,0 0.939,-0.421 0.939,-0.939 V 0.939 C 0.939,0.42 0.519,0 0,0"
             style="fill:#4d4749;fill-opacity:1;fill-rule:nonzero;stroke:none"
             id="path344"
             inkscape:connector-curvature="0" /></g><g
           id="g346"
           transform="translate(226.1479,149.4092)"><path
             d="m 0,0 h -6.718 c -0.519,0 -0.94,0.42 -0.94,0.939 v 0.032 c 0,0.518 0.421,0.939 0.94,0.939 H 0 c 0.519,0 0.939,-0.421 0.939,-0.939 V 0.939 C 0.939,0.42 0.519,0 0,0"
             style="fill:#4d4749;fill-opacity:1;fill-rule:nonzero;stroke:none"
             id="path348"
             inkscape:connector-curvature="0" /></g><g
           id="g350"
           transform="translate(246.2949,149.4092)"><path
             d="m 0,0 h -6.718 c -0.519,0 -0.94,0.42 -0.94,0.939 v 0.032 c 0,0.518 0.421,0.939 0.94,0.939 H 0 c 0.519,0 0.939,-0.421 0.939,-0.939 V 0.939 C 0.939,0.42 0.519,0 0,0"
             style="fill:#4d4749;fill-opacity:1;fill-rule:nonzero;stroke:none"
             id="path352"
             inkscape:connector-curvature="0" /></g><g
           id="g354"
           transform="translate(256.3682,149.4092)"><path
             d="m 0,0 h -6.718 c -0.519,0 -0.94,0.42 -0.94,0.939 v 0.032 c 0,0.518 0.421,0.939 0.94,0.939 H 0 c 0.519,0 0.939,-0.421 0.939,-0.939 V 0.939 C 0.939,0.42 0.519,0 0,0"
             style="fill:#4d4749;fill-opacity:1;fill-rule:nonzero;stroke:none"
             id="path356"
             inkscape:connector-curvature="0" /></g><g
           id="g358"
           transform="translate(266.4414,149.4092)"><path
             d="m 0,0 h -6.718 c -0.519,0 -0.939,0.42 -0.939,0.939 v 0.032 c 0,0.518 0.42,0.939 0.939,0.939 H 0 c 0.519,0 0.939,-0.421 0.939,-0.939 V 0.939 C 0.939,0.42 0.519,0 0,0"
             style="fill:#4d4749;fill-opacity:1;fill-rule:nonzero;stroke:none"
             id="path360"
             inkscape:connector-curvature="0" /></g><g
           id="g362"
           transform="translate(276.5146,149.4092)"><path
             d="m 0,0 h -6.718 c -0.519,0 -0.939,0.42 -0.939,0.939 v 0.032 c 0,0.518 0.42,0.939 0.939,0.939 H 0 c 0.52,0 0.939,-0.421 0.939,-0.939 V 0.939 C 0.939,0.42 0.52,0 0,0"
             style="fill:#4d4749;fill-opacity:1;fill-rule:nonzero;stroke:none"
             id="path364"
             inkscape:connector-curvature="0" /></g><g
           id="g366"
           transform="translate(306.7354,149.4092)"><path
             d="m 0,0 h -6.719 c -0.518,0 -0.939,0.42 -0.939,0.939 v 0.032 c 0,0.518 0.421,0.939 0.939,0.939 H 0 c 0.519,0 0.939,-0.421 0.939,-0.939 V 0.939 C 0.939,0.42 0.519,0 0,0"
             style="fill:#4d4749;fill-opacity:1;fill-rule:nonzero;stroke:none"
             id="path368"
             inkscape:connector-curvature="0" /></g><g
           id="g370"
           transform="translate(342.0039,263.0659)"><path
             d="m 0,0 h -167.933 c -0.111,0 -0.202,0.09 -0.202,0.201 v 6.688 c 0,1.838 1.49,3.327 3.328,3.327 H -3.126 c 1.838,0 3.328,-1.489 3.328,-3.327 V 0.201 C 0.202,0.09 0.111,0 0,0"
             style="fill:#2467b6;fill-opacity:1;fill-rule:nonzero;stroke:none"
             id="path372"
             inkscape:connector-curvature="0" /></g><path
           d="m 187.3,265.613 h -8.105 v 5.095 h 8.105 z"
           style="fill:#ffffff;fill-opacity:1;fill-rule:nonzero;stroke:none"
           id="path374"
           inkscape:connector-curvature="0" /><path
           d="m 261.635,266.076 h -70.166 v 3.937 h 70.166 z"
           style="fill:#ffffff;fill-opacity:1;fill-rule:nonzero;stroke:none"
           id="path376"
           inkscape:connector-curvature="0" /><path
           d="m 229.084,166.269 h -52.668 v 92.629 h 52.668 z"
           style="fill:#e7e4e5;fill-opacity:1;fill-rule:nonzero;stroke:none"
           id="path378"
           inkscape:connector-curvature="0" /><g
           id="g380"><g
             id="g382" /><g
             id="g392"><g
               clip-path="url(#clipPath386)"
               id="g390"
               style="opacity:0.5"><path
                 d="m 226.4,169.41 h -46.865 v 86.451 H 226.4 Z"
                 style="fill:#e7e4e5;fill-opacity:1;fill-rule:nonzero;stroke:none"
                 id="path388"
                 inkscape:connector-curvature="0" /></g></g></g><path
           d="m 339.74,166.269 h -39.832 v 61.135 h 39.832 z"
           style="fill:#e7e4e5;fill-opacity:1;fill-rule:nonzero;stroke:none"
           id="path394"
           inkscape:connector-curvature="0" /><path
           d="M 339.74,258.897 H 299.908 V 231.88 h 39.832 z"
           style="fill:#c4c4c4;fill-opacity:1;fill-rule:nonzero;stroke:none"
           id="path396"
           inkscape:connector-curvature="0" /><path
           d="m 296.863,238.52 h -64.739 v 20.378 h 64.739 z"
           style="fill:#c4c4c4;fill-opacity:1;fill-rule:nonzero;stroke:none"
           id="path398"
           inkscape:connector-curvature="0" /><path
           d="m 296.863,215.035 h -64.739 v 20.379 h 64.739 z"
           style="fill:#e7e4e5;fill-opacity:1;fill-rule:nonzero;stroke:none"
           id="path400"
           inkscape:connector-curvature="0" /><path
           d="m 296.863,191.552 h -64.739 v 20.379 h 64.739 z"
           style="fill:#c4c4c4;fill-opacity:1;fill-rule:nonzero;stroke:none"
           id="path402"
           inkscape:connector-curvature="0" /><path
           d="m 296.863,168.068 h -64.739 v 20.378 h 64.739 z"
           style="fill:#e7e4e5;fill-opacity:1;fill-rule:nonzero;stroke:none"
           id="path404"
           inkscape:connector-curvature="0" /><g
           id="g406"><g
             id="g408" /><g
             id="g418"><g
               clip-path="url(#clipPath412)"
               id="g416"
               style="opacity:0.5"><path
                 d="m 259.11,111.328 h -1.334 v 13.848 h 1.334 z"
                 style="fill:#c4c4c4;fill-opacity:1;fill-rule:nonzero;stroke:none"
                 id="path414"
                 inkscape:connector-curvature="0" /></g></g></g><g
           id="g420"><g
             id="g422" /><g
             id="g434"><g
               clip-path="url(#clipPath426)"
               id="g432"><g
                 transform="translate(306.2266,268.1826)"
                 id="g430"><path
                   d="m 0,0 c 0,-1.163 -0.943,-2.106 -2.106,-2.106 -1.165,0 -2.107,0.943 -2.107,2.106 0,1.164 0.942,2.107 2.107,2.107 C -0.943,2.107 0,1.164 0,0"
                   style="fill:#2467b6;fill-opacity:1;fill-rule:nonzero;stroke:none"
                   id="path428"
                   inkscape:connector-curvature="0" /></g></g></g></g><g
           id="g436"><g
             id="g438" /><g
             id="g450"><g
               clip-path="url(#clipPath442)"
               id="g448"><g
                 transform="translate(315.1416,268.1826)"
                 id="g446"><path
                   d="m 0,0 c 0,-1.163 -0.943,-2.106 -2.106,-2.106 -1.165,0 -2.107,0.943 -2.107,2.106 0,1.164 0.942,2.107 2.107,2.107 C -0.943,2.107 0,1.164 0,0"
                   style="fill:#2467b6;fill-opacity:1;fill-rule:nonzero;stroke:none"
                   id="path444"
                   inkscape:connector-curvature="0" /></g></g></g></g><g
           id="g452"><g
             id="g454" /><g
             id="g466"><g
               clip-path="url(#clipPath458)"
               id="g464"><g
                 transform="translate(324.0566,268.1826)"
                 id="g462"><path
                   d="m 0,0 c 0,-1.163 -0.943,-2.106 -2.106,-2.106 -1.165,0 -2.107,0.943 -2.107,2.106 0,1.164 0.942,2.107 2.107,2.107 C -0.943,2.107 0,1.164 0,0"
                   style="fill:#2467b6;fill-opacity:1;fill-rule:nonzero;stroke:none"
                   id="path460"
                   inkscape:connector-curvature="0" /></g></g></g></g><g
           id="g468"><g
             id="g470" /><g
             id="g482"><g
               clip-path="url(#clipPath474)"
               id="g480"><g
                 transform="translate(332.9717,268.1826)"
                 id="g478"><path
                   d="m 0,0 c 0,-1.163 -0.943,-2.106 -2.106,-2.106 -1.164,0 -2.107,0.943 -2.107,2.106 0,1.164 0.943,2.107 2.107,2.107 C -0.943,2.107 0,1.164 0,0"
                   style="fill:#2467b6;fill-opacity:1;fill-rule:nonzero;stroke:none"
                   id="path476"
                   inkscape:connector-curvature="0" /></g></g></g></g><g
           id="g484"
           transform="translate(99.9536,293.0034)"><path
             d="m 0,0 c 0,-12.534 -10.161,-22.695 -22.695,-22.695 -12.534,0 -22.694,10.161 -22.694,22.695 0,12.534 10.16,22.694 22.694,22.694 C -10.161,22.694 0,12.534 0,0"
             style="fill:#ffffff;fill-opacity:1;fill-rule:nonzero;stroke:none"
             id="path486"
             inkscape:connector-curvature="0" /></g></g></g><g
       id="g488"><g
         id="g490"
         clip-path="url(#clipPath494)"><g
           id="g496"><g
             id="g498"><path
               d="M 75.415,306.961 C 68.477,305.53 64.013,298.749 65.443,291.81 v 0 c 0.484,-2.344 1.579,-4.403 3.084,-6.05 v 0 l -0.267,-6.711 5.922,3.11 c 2.01,-0.63 4.203,-0.775 6.412,-0.32 v 0 c 6.938,1.431 11.401,8.214 9.971,15.151 v 0 c -1.25,6.064 -6.589,10.238 -12.547,10.238 v 0 c -0.859,0 -1.729,-0.087 -2.603,-0.267"
               style="fill:url(#radialGradient508);stroke:none"
               id="path510"
               inkscape:connector-curvature="0" /></g></g></g></g><g
       id="g512"><g
         id="g514"
         clip-path="url(#clipPath518)"><g
           id="g520"><g
             id="g522"><path
               d="m 75.902,305.01 c -5.939,-1.225 -9.775,-6.964 -8.569,-12.82 v 0 c 0.462,-2.239 1.598,-4.17 3.154,-5.635 v 0 l -0.171,-3.95 3.48,1.813 c 1.975,-0.82 4.216,-1.079 6.479,-0.612 v 0 c 5.94,1.225 9.777,6.964 8.569,12.82 v 0 c -1.052,5.107 -5.595,8.616 -10.682,8.616 v 0 c -0.744,0 -1.501,-0.076 -2.26,-0.232"
               style="fill:url(#radialGradient532);stroke:none"
               id="path534"
               inkscape:connector-curvature="0" /></g></g></g></g><g
       id="g536"><g
         id="g538"
         clip-path="url(#clipPath542)"><g
           id="g544"><g
             id="g546"><path
               d="m 72.319,299.208 c 0,0 -2.221,-1.693 -0.973,-3.907 v 0 c 0,0 2.847,-6.38 10.525,-6.23 v 0 c 0,0 2.732,0.167 3.111,1.927 v 0 c 0.082,0.379 0.084,0.889 -0.018,1.263 v 0 c -0.102,0.361 -0.411,0.551 -0.749,0.663 v 0 c -0.436,0.143 -0.826,0.28 -1.314,0.408 v 0 c -0.425,0.109 -0.925,0.299 -1.343,0.085 v 0 c -0.307,-0.157 -0.479,-0.501 -0.651,-0.783 v 0 c -0.224,-0.363 -0.456,-0.724 -0.684,-1.086 v 0 c 0,0 -4.028,0.603 -5.599,3.192 v 0 c 0.111,0.197 0.222,0.395 0.332,0.592 v 0 c 0.187,0.335 0.496,0.684 0.432,1.096 v 0 c -0.063,0.396 -0.284,0.759 -0.496,1.086 v 0 c -0.136,0.21 -0.275,0.42 -0.411,0.633 v 0 c -0.245,0.385 -0.57,0.927 -0.851,1.125 v 0 c -0.173,0.12 -0.38,0.178 -0.591,0.178 v 0 c -0.254,0 -0.512,-0.084 -0.72,-0.242"
               style="fill:url(#radialGradient556);stroke:none"
               id="path558"
               inkscape:connector-curvature="0" /></g></g></g></g><g
       id="g560"><g
         id="g562"
         clip-path="url(#clipPath566)"><g
           id="g568"
           transform="translate(396.7139,142.5303)"><path
             d="m 0,0 c 11.114,-4.436 23.271,-6.906 35.108,-5.149 11.838,1.755 23.301,8.133 29.507,18.366 6.938,11.438 2.484,24.932 -5.469,34.686 C 51.873,56.824 40.108,59.338 29.518,55.216 17.755,50.638 9.438,40.764 0.866,31.961 -3.114,27.873 -7.308,23.09 -12.479,20.14 -18.246,16.849 -24.726,16.731 -31.198,16.945 -31.198,16.945 -11.115,4.436 0,0"
             style="fill:#ffffff;fill-opacity:1;fill-rule:nonzero;stroke:none"
             id="path570"
             inkscape:connector-curvature="0" /></g><g
           id="g572"
           transform="translate(454.4473,182.9131)"><path
             d="M 0,0 C 6.313,-5.247 8.087,-14.847 5.062,-22.479 2.026,-30.142 -5.152,-35.659 -12.958,-37.851 0.684,-34.021 9.383,-12.45 0.508,-0.675 0.508,-0.674 0,0 0,0"
             style="fill:#e2ddca;fill-opacity:1;fill-rule:nonzero;stroke:none"
             id="path574"
             inkscape:connector-curvature="0" /></g></g></g><g
       id="g576"><g
         id="g578"
         clip-path="url(#clipPath582)"><g
           id="g584"><g
             id="g586"><path
               d="m 419.822,177.627 c -3.798,0 -5.34,-3.078 -5.34,-6.877 v 0 -7.274 c 0,-3.799 1.703,-6.879 5.503,-6.879 v 0 h 19.544 c 3.797,0 5.096,3.08 5.096,6.879 v 0 7.274 c 0,3.799 -1.137,6.877 -4.936,6.877 v 0 z"
               style="fill:url(#radialGradient596);stroke:none"
               id="path598"
               inkscape:connector-curvature="0" /></g></g></g></g><g
       id="g600"><g
         id="g602"
         clip-path="url(#clipPath606)"><g
           id="g608"
           transform="translate(426.5322,171.2217)"><path
             d="M 0,0 8.211,-4.285 0,-8.569 Z"
             style="fill:#ffffff;fill-opacity:1;fill-rule:nonzero;stroke:none"
             id="path610"
             inkscape:connector-curvature="0" /></g><g
           id="g612"
           transform="translate(426.5322,171.1572)"><path
             d="M 0,0 7.142,-4.777 8.211,-4.221 0.635,-0.268 0,0.008 Z"
             style="fill:#e7dfdf;fill-opacity:1;fill-rule:nonzero;stroke:none"
             id="path614"
             inkscape:connector-curvature="0" /></g><g
           id="g616"
           transform="translate(150.3237,273.6777)"><path
             d="m 0,0 c -8.002,4.236 -19.78,2.747 -28.054,0.258 -25.529,-7.679 -51.917,-32.33 -50.656,-61.037 0.675,-15.379 12.69,-28.704 26.726,-33.874 13.729,-5.057 28.455,-0.09 37.462,11.158 6.157,7.688 9.085,17.447 8.085,27.253 -1.495,14.679 -13.033,27.372 -9.64,42.709 0.775,3.504 2.512,6.95 5.221,9.356 C -7.818,-1.48 -3.721,-1.253 0,0"
             style="fill:#ffffff;fill-opacity:1;fill-rule:nonzero;stroke:none"
             id="path618"
             inkscape:connector-curvature="0" /></g></g></g><g
       id="g620"><g
         id="g622"
         clip-path="url(#clipPath626)"><g
           id="g628"><g
             id="g630"><path
               d="m 88.66,226.595 -0.404,-19.352 c -0.078,-3.728 2.88,-6.81 6.607,-6.888 v 0 l 19.352,-0.404 c 3.726,-0.078 6.81,2.879 6.887,6.605 v 0 l 0.404,19.353 c 0.078,3.726 -2.88,6.808 -6.605,6.887 v 0 L 95.549,233.2 c -0.048,0.001 -0.096,0.001 -0.144,0.001 v 0 c -3.662,0 -6.668,-2.927 -6.745,-6.606"
               style="fill:url(#radialGradient638);stroke:none"
               id="path640"
               inkscape:connector-curvature="0" /></g></g></g></g><g
       id="g642"><g
         id="g644"
         clip-path="url(#clipPath648)"><g
           id="g650"
           transform="translate(113.8667,223.7852)"><path
             d="m 0,0 3.03,-0.063 0.099,4.762 -3.762,0.078 -0.779,0.017 c 0,0 -2.853,0.13 -4.722,-2.197 0,0 -1.264,-1.143 -1.355,-4.565 v 0 l -0.075,-3.572 -4.488,0.094 -0.106,-5.057 4.488,-0.094 -0.272,-13.064 5.176,-0.109 0.273,13.065 4.453,-0.093 0.726,5.044 -5.074,0.106 0.075,3.572 H -2.314 C -2.293,-1.678 -2.079,0.079 0,0"
             style="fill:#ffffff;fill-opacity:1;fill-rule:nonzero;stroke:none"
             id="path652"
             inkscape:connector-curvature="0" /></g><g
           id="g654"
           transform="translate(134.1377,205.9434)"><path
             d="m 0,0 c 0.935,-7.604 -4,-15.261 -10.937,-18.514 -6.963,-3.264 -15.372,-2.423 -22.077,1.08 11.72,-6.122 31.428,2.973 32.928,16.651 C -0.086,-0.782 0,0 0,0"
             style="fill:#e2ddca;fill-opacity:1;fill-rule:nonzero;stroke:none"
             id="path656"
             inkscape:connector-curvature="0" /></g><g
           id="g658"
           transform="translate(378.707,368.7759)"><path
             d="m 0,0 c 0,-10.455 -8.476,-18.931 -18.932,-18.931 -10.455,0 -18.931,8.476 -18.931,18.931 0,10.456 8.476,18.932 18.931,18.932 C -8.476,18.932 0,10.456 0,0"
             style="fill:#ffffff;fill-opacity:1;fill-rule:nonzero;stroke:none"
             id="path660"
             inkscape:connector-curvature="0" /></g></g></g><g
       id="g662"><g
         id="g664"
         clip-path="url(#clipPath668)"><g
           id="g670"><g
             id="g672"><path
               d="m 346.656,368.776 c 0,-6.988 5.873,-12.653 13.119,-12.653 v 0 c 7.247,0 13.12,5.665 13.12,12.653 v 0 c 0,6.988 -5.873,12.653 -13.12,12.653 v 0 c -7.246,0 -13.119,-5.665 -13.119,-12.653"
               style="fill:url(#radialGradient682);stroke:none"
               id="path684"
               inkscape:connector-curvature="0" /></g></g></g></g><g
       id="g686"><g
         id="g688"
         clip-path="url(#clipPath692)"><g
           id="g694"
           transform="translate(358.041,376.6924)"><path
             d="m 0,0 c -0.433,-0.204 -0.823,-0.479 -1.156,-0.816 -0.4,-0.401 -0.723,-0.896 -0.962,-1.468 -0.351,-0.84 -0.257,-2.248 -0.182,-3.379 l 10e-4,-0.003 c 0.008,-0.12 0.017,-0.247 0.025,-0.371 -0.052,-0.025 -0.138,-0.051 -0.261,-0.052 -0.187,-0.002 -0.372,0.051 -0.545,0.119 -0.15,0.06 -0.3,0.125 -0.463,0.128 -0.157,0.002 -0.318,-0.057 -0.452,-0.14 -0.184,-0.116 -0.302,-0.277 -0.334,-0.456 -0.02,-0.119 -0.018,-0.352 0.231,-0.586 0.137,-0.128 0.337,-0.247 0.597,-0.352 0.067,-0.028 0.147,-0.053 0.232,-0.081 0.297,-0.097 0.745,-0.242 0.864,-0.527 0.059,-0.145 0.036,-0.336 -0.073,-0.57 -10e-4,-0.005 -0.004,-0.011 -0.006,-0.019 -0.132,-0.331 -0.319,-0.643 -0.516,-0.934 -0.309,-0.454 -0.681,-0.876 -1.117,-1.196 -0.23,-0.168 -0.475,-0.315 -0.734,-0.425 -0.231,-0.098 -0.479,-0.141 -0.717,-0.212 -0.194,-0.059 -0.354,-0.192 -0.339,-0.424 0.003,-0.057 0.016,-0.114 0.04,-0.171 0.077,-0.186 0.254,-0.343 0.543,-0.481 0.351,-0.167 0.878,-0.307 1.562,-0.414 0.035,-0.069 0.073,-0.241 0.098,-0.359 0.025,-0.126 0.054,-0.255 0.094,-0.392 0.043,-0.149 0.152,-0.326 0.43,-0.324 0.105,10e-4 0.226,0.028 0.366,0.057 0.206,0.043 0.485,0.103 0.837,0.105 0.193,0.002 0.395,-0.015 0.598,-0.049 0.391,-0.065 0.73,-0.311 1.12,-0.596 0.034,-0.024 0.068,-0.049 0.101,-0.072 0.242,-0.175 0.488,-0.346 0.753,-0.482 0.295,-0.15 0.61,-0.257 0.935,-0.303 0.191,-0.025 0.377,-0.029 0.566,-0.025 0.209,0.005 0.417,0.018 0.62,0.061 0.317,0.067 0.618,0.192 0.901,0.356 0.131,0.075 0.257,0.157 0.38,0.246 0.115,0.081 0.24,0.159 0.347,0.253 v 10e-4 c 0.388,0.291 0.722,0.542 1.112,0.613 0.203,0.037 0.404,0.056 0.599,0.058 0.335,0.002 0.6,-0.041 0.838,-0.088 0.155,-0.03 0.274,-0.044 0.367,-0.043 h 0.009 0.008 c 0.204,0.001 0.352,0.119 0.408,0.324 0.038,0.135 0.064,0.261 0.088,0.39 0.024,0.111 0.058,0.289 0.094,0.359 0.682,0.116 1.206,0.264 1.555,0.436 0.286,0.143 0.462,0.302 0.536,0.488 0.023,0.057 0.035,0.115 0.038,0.172 0.01,0.2 -0.126,0.375 -0.314,0.405 -2.134,0.353 -3.111,2.637 -3.151,2.735 -0.004,0.007 -0.007,0.013 -0.009,0.019 -0.111,0.231 -0.137,0.422 -0.079,0.568 0.115,0.287 0.56,0.439 0.855,0.541 0.086,0.028 0.166,0.056 0.232,0.084 0.29,0.122 0.497,0.254 0.634,0.404 0.163,0.178 0.193,0.346 0.191,0.457 C 8.384,-5.998 7.974,-5.764 7.61,-5.756 7.433,-5.752 7.216,-5.819 7.056,-5.887 6.895,-5.956 6.721,-6.01 6.546,-6.02 c -0.103,0.004 -0.174,0.027 -0.221,0.049 0.006,0.104 0.011,0.211 0.017,0.323 l 0.003,0.049 C 6.404,-4.466 6.48,-3.056 6.117,-2.221 5.87,-1.65 5.537,-1.159 5.132,-0.763 4.792,-0.431 4.398,-0.162 3.96,0.036 3.515,0.236 3.037,0.358 2.555,0.404 2.37,0.422 2.18,0.436 1.995,0.434 1.588,0.431 1.17,0.38 0.772,0.278 0.508,0.21 0.25,0.117 0,0 m -1.777,-2.442 c 0.026,0.064 0.055,0.126 0.085,0.188 0.177,0.379 0.405,0.735 0.684,1.041 0.238,0.261 0.509,0.484 0.807,0.666 0.256,0.156 0.531,0.281 0.815,0.372 0.231,0.076 0.471,0.13 0.712,0.164 0.233,0.032 0.468,0.043 0.702,0.043 0.235,-0.002 0.464,-0.008 0.697,-0.041 0.25,-0.037 0.498,-0.095 0.737,-0.177 0.29,-0.098 0.569,-0.231 0.829,-0.397 0.301,-0.192 0.573,-0.429 0.81,-0.703 0.278,-0.326 0.503,-0.7 0.677,-1.096 C 6.103,-3.129 6.029,-4.487 5.971,-5.578 5.962,-5.75 5.953,-5.918 5.946,-6.079 L 5.943,-6.146 5.986,-6.198 c 0.018,-0.02 0.186,-0.2 0.555,-0.213 h 0.007 0.005 c 0.162,0.004 0.321,0.043 0.474,0.099 0.14,0.049 0.274,0.127 0.417,0.161 0.154,0.037 0.427,-0.036 0.534,-0.162 C 8.079,-6.435 7.969,-6.596 7.876,-6.674 7.743,-6.786 7.589,-6.864 7.432,-6.93 7.376,-6.953 7.305,-6.977 7.223,-7.005 6.863,-7.127 6.318,-7.313 6.138,-7.767 6.037,-8.023 6.066,-8.323 6.229,-8.661 c 0.066,-0.159 1.114,-2.582 3.435,-2.964 -10e-4,-0.011 -0.003,-0.023 -0.01,-0.038 -0.039,-0.097 -0.287,-0.434 -1.838,-0.696 -0.244,-0.042 -0.301,-0.328 -0.368,-0.66 -0.024,-0.118 -0.049,-0.238 -0.083,-0.363 -0.01,-0.037 -0.012,-0.039 -0.05,-0.04 H 7.297 c -0.069,0 -0.174,0.014 -0.296,0.038 -0.221,0.043 -0.522,0.095 -0.909,0.092 -0.215,-10e-4 -0.438,-0.021 -0.659,-0.062 -0.475,-0.087 -0.86,-0.376 -1.268,-0.682 -0.25,-0.188 -0.502,-0.375 -0.775,-0.524 -0.299,-0.162 -0.621,-0.271 -0.957,-0.306 -0.076,-0.007 -0.151,-0.009 -0.225,-0.013 -0.356,-0.017 -0.714,0.017 -1.053,0.134 -0.3,0.105 -0.576,0.267 -0.839,0.448 -0.107,0.074 -0.213,0.152 -0.32,0.229 -0.412,0.3 -0.802,0.584 -1.277,0.663 -0.223,0.038 -0.445,0.055 -0.659,0.053 -0.386,-0.003 -0.688,-0.066 -0.909,-0.112 -0.12,-0.026 -0.225,-0.049 -0.294,-0.05 -0.056,0 -0.057,0.003 -0.069,0.047 -0.037,0.123 -0.061,0.245 -0.088,0.364 -0.072,0.332 -0.134,0.618 -0.377,0.655 -1.555,0.24 -1.808,0.573 -1.848,0.669 -0.006,0.015 -0.008,0.028 -0.01,0.04 2.316,0.417 3.33,2.854 3.393,3.015 0.158,0.339 0.184,0.641 0.079,0.896 -0.186,0.451 -0.733,0.628 -1.095,0.745 -0.083,0.027 -0.155,0.05 -0.208,0.072 -0.215,0.087 -0.872,0.404 -0.448,0.681 0.091,0.059 0.193,0.099 0.3,0.092 0.116,-0.006 0.217,-0.064 0.325,-0.106 0.21,-0.081 0.431,-0.139 0.656,-0.137 0.403,0.002 0.581,0.2 0.6,0.223 l 0.042,0.052 -0.003,0.068 c -0.009,0.159 -0.02,0.328 -0.032,0.5 -0.073,1.091 -0.164,2.445 0.149,3.196"
             style="fill:#020202;fill-opacity:1;fill-rule:nonzero;stroke:none"
             id="path696"
             inkscape:connector-curvature="0" /></g><g
           id="g698"
           transform="translate(365.8574,364.333)"><path
             d="m 0,0 c 1.551,0.263 1.799,0.599 1.838,0.696 0.007,0.015 0.009,0.027 0.01,0.039 -2.322,0.382 -3.369,2.805 -3.436,2.964 -0.162,0.338 -0.191,0.637 -0.091,0.894 0.181,0.453 0.726,0.639 1.085,0.761 0.082,0.029 0.154,0.053 0.209,0.076 0.157,0.066 0.312,0.144 0.445,0.256 0.092,0.078 0.203,0.239 0.101,0.36 C 0.055,6.172 -0.219,6.245 -0.372,6.208 -0.516,6.175 -0.649,6.097 -0.789,6.047 -0.942,5.991 -1.102,5.953 -1.264,5.949 H -1.269 L -1.275,5.948 c -0.37,0.013 -0.537,0.193 -0.555,0.213 l -0.043,0.052 0.003,0.068 c 0.007,0.16 0.016,0.328 0.024,0.501 0.059,1.09 0.132,2.448 -0.192,3.195 -0.175,0.397 -0.4,0.771 -0.678,1.096 -0.236,0.274 -0.509,0.511 -0.809,0.704 -0.26,0.166 -0.539,0.298 -0.829,0.396 -0.24,0.082 -0.488,0.14 -0.738,0.178 -0.232,0.033 -0.462,0.038 -0.696,0.04 -0.234,10e-4 -0.47,-0.011 -0.702,-0.043 -0.241,-0.034 -0.482,-0.087 -0.712,-0.163 -0.284,-0.092 -0.56,-0.217 -0.816,-0.372 C -8.315,11.631 -8.586,11.408 -8.824,11.146 -9.104,10.84 -9.331,10.485 -9.509,10.105 -9.538,10.043 -9.567,9.981 -9.594,9.917 -9.906,9.166 -9.815,7.812 -9.742,6.721 -9.73,6.55 -9.72,6.381 -9.71,6.222 L -9.707,6.154 -9.749,6.102 c -0.02,-0.023 -0.197,-0.221 -0.601,-0.224 -0.224,-0.002 -0.446,0.057 -0.656,0.138 -0.107,0.041 -0.209,0.1 -0.324,0.105 -0.108,0.007 -0.209,-0.032 -0.301,-0.091 -0.424,-0.278 0.234,-0.595 0.448,-0.681 0.054,-0.023 0.125,-0.046 0.208,-0.073 0.363,-0.117 0.91,-0.294 1.096,-0.745 0.105,-0.255 0.078,-0.557 -0.079,-0.896 -0.063,-0.161 -1.077,-2.598 -3.394,-3.015 0.002,-0.012 0.004,-0.024 0.01,-0.039 0.04,-0.097 0.293,-0.43 1.849,-0.67 0.243,-0.037 0.305,-0.322 0.377,-0.655 0.026,-0.118 0.051,-0.24 0.088,-0.364 0.011,-0.044 0.012,-0.047 0.069,-0.046 0.068,0 0.174,0.024 0.294,0.049 0.221,0.046 0.522,0.109 0.908,0.112 0.215,0.002 0.437,-0.015 0.659,-0.052 0.476,-0.08 0.866,-0.364 1.278,-0.663 0.106,-0.078 0.213,-0.155 0.32,-0.23 0.263,-0.18 0.539,-0.343 0.839,-0.447 0.339,-0.118 0.696,-0.152 1.053,-0.135 0.074,0.004 0.149,0.006 0.224,0.014 0.336,0.035 0.658,0.144 0.957,0.305 0.274,0.149 0.526,0.336 0.776,0.524 0.408,0.306 0.793,0.595 1.267,0.682 0.222,0.041 0.445,0.061 0.659,0.063 0.387,0.003 0.689,-0.05 0.91,-0.093 0.122,-0.024 0.226,-0.038 0.295,-0.037 h 0.019 c 0.037,0 0.04,0.002 0.05,0.04 0.034,0.124 0.058,0.244 0.083,0.363 C -0.302,-0.327 -0.244,-0.042 0,0"
             style="fill:#ffffff;fill-opacity:1;fill-rule:nonzero;stroke:none"
             id="path700"
             inkscape:connector-curvature="0" /></g><g
           id="g702"
           transform="translate(380.1289,273.7095)"><path
             d="m 0,0 c 6.418,4.141 12.199,9.552 15.664,16.359 3.465,6.808 4.386,15.129 1.358,22.142 -3.383,7.839 -12.05,10.513 -20.066,9.984 -7.33,-0.485 -12.989,-5.674 -14.762,-12.709 -1.968,-7.812 0.092,-15.789 1.501,-23.505 0.654,-3.582 1.591,-7.532 1.213,-11.313 -0.421,-4.218 -2.756,-7.631 -5.262,-10.92 0,0 13.936,5.82 20.354,9.962"
             style="fill:#ffffff;fill-opacity:1;fill-rule:nonzero;stroke:none"
             id="path704"
             inkscape:connector-curvature="0" /></g><g
           id="g706"
           transform="translate(380.4746,318.6772)"><path
             d="m 0,0 c 5.064,1.344 10.715,-1.284 13.566,-5.68 2.863,-4.413 3.079,-10.189 1.331,-15.059 3.053,8.512 -4.95,21.016 -14.358,20.754 z"
             style="fill:#e2ddca;fill-opacity:1;fill-rule:nonzero;stroke:none"
             id="path708"
             inkscape:connector-curvature="0" /></g></g></g><g
       id="g710"><g
         id="g712"
         clip-path="url(#clipPath716)"><g
           id="g718"
           transform="translate(390.0342,299.8076)"><path
             d="m 0,0 c 0,-5.886 -4.771,-10.656 -10.656,-10.656 -5.885,0 -10.656,4.77 -10.656,10.656 0,5.884 4.771,10.655 10.656,10.655 C -4.771,10.655 0,5.884 0,0"
             style="fill:#da4639;fill-opacity:1;fill-rule:nonzero;stroke:none"
             id="path720"
             inkscape:connector-curvature="0" /></g><g
           id="g722"><g
             id="g724" /><g
             id="g754"><g
               clip-path="url(#clipPath728)"
               id="g752"><g
                 id="g750"><g
                   clip-path="url(#clipPath732)"
                   id="g748"><g
                     id="g746"><g
                       id="g744"><path
                         d="m 390.808,292.453 -6.938,-6.937 -11.186,11.187 0.966,6.151 5.971,0.786 z"
                         style="fill:url(#linearGradient740);stroke:none"
                         id="path742"
                         inkscape:connector-curvature="0" /></g></g></g></g></g></g></g><g
           id="g756"
           transform="translate(381.2334,300.5688)"><path
             d="m 0,0 h -0.05 -1.768 -2.943 v -1.701 h 2.852 c -0.412,-1.218 -1.549,-2.093 -2.887,-2.093 -1.687,0 -3.054,1.389 -3.054,3.104 0,1.713 1.367,3.103 3.054,3.103 0.738,0 1.414,-0.267 1.942,-0.711 h 0.081 l 1.255,1.277 c -0.866,0.798 -2.015,1.285 -3.278,1.285 -2.693,0 -4.877,-2.219 -4.877,-4.954 0,-2.738 2.184,-4.955 4.877,-4.955 0.353,0 0.705,0.037 1.049,0.115 0.699,0.154 1.358,0.469 1.922,0.909 0.56,0.437 1.022,0.999 1.349,1.629 0.166,0.324 0.298,0.663 0.39,1.013 C 0.029,-1.541 0,-1.101 0,-0.65 Z"
             style="fill:#ffffff;fill-opacity:1;fill-rule:nonzero;stroke:none"
             id="path758"
             inkscape:connector-curvature="0" /></g><g
           id="g760"><g
             id="g762" /><g
             id="g792"><g
               clip-path="url(#clipPath766)"
               id="g790"><g
                 id="g788"><g
                   clip-path="url(#clipPath770)"
                   id="g786"><g
                     id="g784"><g
                       id="g782"><path
                         d="m 390.999,296.703 -2.853,-2.853 -5.32,5.318 2.853,2.855 z"
                         style="fill:url(#linearGradient778);stroke:none"
                         id="path780"
                         inkscape:connector-curvature="0" /></g></g></g></g></g></g></g><path
           d="m 385.677,297.758 h -1.429 v 4.269 h 1.429 z"
           style="fill:#ffffff;fill-opacity:1;fill-rule:nonzero;stroke:none"
           id="path794"
           inkscape:connector-curvature="0" /><path
           d="m 382.829,300.606 h 4.269 v -1.428 h -4.269 z"
           style="fill:#ffffff;fill-opacity:1;fill-rule:nonzero;stroke:none"
           id="path796"
           inkscape:connector-curvature="0" /></g></g><g
       id="g798"><g
         id="g800"
         clip-path="url(#clipPath804)"><g
           id="g806"
           transform="translate(241.9473,337.7856)"><path
             d="m 0,0 c 0,-12.122 -9.827,-21.948 -21.948,-21.948 -12.121,0 -21.948,9.826 -21.948,21.948 0,12.122 9.827,21.948 21.948,21.948 C -9.827,21.948 0,12.122 0,0"
             style="fill:#ffffff;fill-opacity:1;fill-rule:nonzero;stroke:none"
             id="path808"
             inkscape:connector-curvature="0" /></g><g
           id="g810"
           transform="translate(234.5488,337.0928)"><path
             d="m 0,0 c 0,-8.254 -6.691,-14.946 -14.945,-14.946 -8.255,0 -14.946,6.692 -14.946,14.946 0,8.254 6.691,14.946 14.946,14.946 C -6.691,14.946 0,8.254 0,0"
             style="fill:#007bb4;fill-opacity:1;fill-rule:nonzero;stroke:none"
             id="path812"
             inkscape:connector-curvature="0" /></g><g
           id="g814"
           transform="translate(212.2739,347.0933)"><path
             d="M 0,0 C 1.271,0.06 2.354,-0.926 2.415,-2.2 2.475,-3.473 1.49,-4.554 0.218,-4.614 -1.057,-4.674 -2.137,-3.691 -2.197,-2.418 -2.257,-1.144 -1.275,-0.061 0,0 m -1.689,-6.458 3.979,0.188 0.606,-12.802 -3.98,-0.188 z"
             style="fill:#ffffff;fill-opacity:1;fill-rule:nonzero;stroke:none"
             id="path816"
             inkscape:connector-curvature="0" /></g><g
           id="g818"
           transform="translate(217.0596,340.9414)"><path
             d="M 0,0 3.817,0.18 3.9,-1.571 3.955,-1.568 c 0.482,1.032 1.731,2.153 3.666,2.245 4.029,0.19 4.899,-2.425 5.062,-5.871 l 0.332,-7.022 -3.978,-0.188 -0.294,6.226 C 8.673,-4.694 8.557,-2.784 6.514,-2.88 4.444,-2.979 4.204,-4.613 4.283,-6.282 l 0.3,-6.332 -3.978,-0.188 z"
             style="fill:#ffffff;fill-opacity:1;fill-rule:nonzero;stroke:none"
             id="path820"
             inkscape:connector-curvature="0" /></g><g
           id="g822"
           transform="translate(368.249,252.3828)"><path
             d="m 0,0 c 11.555,1.996 16.562,13.391 23.681,21.212 8.921,9.8 22.48,15.657 35.777,14.344 C 73.66,34.152 84.096,22.797 82.225,8.176 80.363,-6.358 67.612,-16.704 53.37,-17.896 c -9.736,-0.814 -19.462,1.835 -28.499,5.55 -8.953,3.68 -17.614,8.319 -26.403,12.213 0.523,0 1.033,0.047 1.532,0.133"
             style="fill:#ffffff;fill-opacity:1;fill-rule:nonzero;stroke:none"
             id="path824"
             inkscape:connector-curvature="0" /></g><g
           id="g826"
           transform="translate(400.582,249.584)"><path
             d="m 0,0 c 10.969,-7.623 23.282,-2.704 28.758,5.175 0.179,0.258 0.354,0.517 0.517,0.782 1.75,0.031 3.494,0.381 5.121,1.021 -1.398,0.268 -2.771,0.748 -4.076,1.44 1.744,-0.116 3.499,0.396 4.914,1.476 -1.624,0.118 -3.249,0.508 -4.793,1.183 -0.284,1.918 -1.326,3.716 -3.043,4.91 -3.293,2.288 -7.817,1.472 -10.103,-1.818 C 16.97,13.701 16.707,13.211 16.501,12.701 11.722,16.397 8.973,21.825 8.541,27.475 7.419,26.949 6.411,26.132 5.652,25.041 4.215,22.972 3.997,20.416 4.856,18.231 3.899,18.942 3.165,19.85 2.674,20.856 2.653,20.83 2.637,20.806 2.619,20.781 0.611,17.891 0.992,14.052 3.338,11.612 2.747,11.822 2.166,12.114 1.623,12.492 1.238,12.759 0.893,13.058 0.578,13.381 -0.31,10.481 0.693,7.228 3.267,5.367 0.115,5.185 -3.118,6.02 -5.913,7.961 -6.393,8.295 -6.847,8.652 -7.276,9.033 -5.814,5.506 -3.367,2.341 0,0"
             style="fill:#20a0f1;fill-opacity:1;fill-rule:nonzero;stroke:none"
             id="path828"
             inkscape:connector-curvature="0" /></g><g
           id="g830"
           transform="translate(126.9961,317.0054)"><path
             d="m 0,0 c -11.365,7.333 -21.602,16.913 -27.736,28.967 -6.136,12.054 -7.767,26.79 -2.407,39.208 C -24.15,82.057 -8.804,86.791 5.39,85.854 18.371,84.996 28.39,75.806 31.529,63.351 35.016,49.518 31.367,35.391 28.872,21.729 27.714,15.386 26.054,8.391 26.723,1.696 27.469,-5.772 31.604,-11.817 36.041,-17.64 36.041,-17.64 11.365,-7.333 0,0"
             style="fill:#ffffff;fill-opacity:1;fill-rule:nonzero;stroke:none"
             id="path832"
             inkscape:connector-curvature="0" /></g><g
           id="g834"
           transform="translate(149.9951,365.4814)"><path
             d="m 0,0 c 3.346,-11.471 -3.239,-23.479 -14.71,-26.825 -11.468,-3.345 -23.477,3.239 -26.823,14.709 -3.346,11.47 3.239,23.478 14.708,26.824 C -15.354,18.054 -3.346,11.47 0,0"
             style="fill:#bb091c;fill-opacity:1;fill-rule:evenodd;stroke:none"
             id="path836"
             inkscape:connector-curvature="0" /></g><g
           id="g838"
           transform="translate(129.7495,349.0391)"><path
             d="m 0,0 c 2.292,-1.468 5.364,-1.375 7.644,0.12 0.472,0.308 0.93,0.643 1.364,1.002 0.846,0.701 1.596,1.514 2.169,2.456 1.637,2.685 2.103,5.601 1.817,8.677 -0.372,3.999 -2.066,7.335 -5.343,9.673 -1.99,1.42 -4.394,2.032 -6.809,2.157 -3.274,0.172 -6.648,-0.679 -9.369,-2.523 -0.782,-0.529 -1.535,-1.16 -2.192,-1.836 -2.347,-2.42 -3.761,-5.627 -3.732,-9.013 0.009,-0.903 0.121,-1.815 0.29,-2.7 0.408,-2.146 1.472,-4.078 2.962,-5.66 0.235,-0.251 0.502,-0.466 0.73,-0.723 0.541,-0.608 1.253,-1.161 2.013,-1.457 0.354,-0.139 0.766,-0.23 1.136,-0.094 0.513,0.189 0.498,0.73 0.516,1.206 0.018,0.525 -0.075,1.045 -0.113,1.567 -0.038,0.474 -0.103,0.747 -0.497,1.063 -3.119,2.488 -3.84,7.779 -1.864,11.111 1.793,3.017 4.391,4.505 7.649,4.974 2.904,0.416 5.925,-0.687 7.782,-2.996 0.76,-0.947 1.33,-2.365 1.679,-3.506 C 8.337,11.856 8.507,10.303 8.316,8.575 8.156,7.098 7.706,5.583 6.81,4.377 5.489,2.606 2.096,1.015 0.604,3.465 0.236,4.067 -0.033,4.912 -0.094,5.614 c -0.153,1.767 0.025,3.54 -0.073,5.305 -0.054,0.942 -0.176,1.869 -0.68,2.698 -0.593,0.979 -1.453,1.472 -2.598,1.3 -1.22,-0.181 -2.213,-0.867 -2.628,-1.978 -0.866,-2.317 -0.412,-4.546 0.939,-6.583 0.289,-0.439 0.464,-0.837 0.486,-1.374 0.122,-2.915 0.337,-5.826 0.43,-8.74 0.061,-1.981 0.453,-3.92 1.096,-5.789 0.178,-0.52 0.345,-1.048 0.616,-1.527 0.18,-0.322 0.451,-0.778 0.843,-0.861 0.541,-0.111 0.765,0.603 0.891,0.992 0.494,1.537 0.757,3.166 0.844,4.776 0.057,1.046 0.033,2.094 0.003,3.142 C 0.064,-2.657 0.043,-0.747 0,0"
             style="fill:#ffffff;fill-opacity:1;fill-rule:evenodd;stroke:none"
             id="path840"
             inkscape:connector-curvature="0" /></g><g
           id="g842"
           transform="translate(126.3833,396.6318)"><path
             d="m 0,0 c -8.967,2.38 -18.972,-2.273 -24.021,-10.058 -5.07,-7.815 -5.451,-18.041 -2.357,-26.666 -5.407,15.074 8.766,37.213 25.424,36.75 C -0.953,0.026 0,0 0,0"
             style="fill:#e2ddca;fill-opacity:1;fill-rule:nonzero;stroke:none"
             id="path844"
             inkscape:connector-curvature="0" /></g><g
           id="g846"><g
             id="g848" /><g
             id="g860"><g
               clip-path="url(#clipPath852)"
               id="g858"
               style="opacity:0.80000299"><g
                 transform="translate(366.0098,206.8574)"
                 id="g856"><path
                   d="m 0,0 c 1.54,0.889 1.741,2.992 1.763,4.771 l 0.12,9.806 c 0.015,1.327 0.052,2.728 0.742,3.861 0.69,1.134 2.281,1.833 3.392,1.104 C 6.52,19.212 6.83,18.663 7.085,18.118 10.402,11.03 6.406,3.452 0,0"
                   style="fill:#ffffff;fill-opacity:1;fill-rule:nonzero;stroke:none"
                   id="path854"
                   inkscape:connector-curvature="0" /></g></g></g></g><g
           id="g862"><g
             id="g864" /><g
             id="g876"><g
               clip-path="url(#clipPath868)"
               id="g874"
               style="opacity:0.80000299"><g
                 transform="translate(367.0732,204.3408)"
                 id="g872"><path
                   d="m 0,0 c 2.841,-0.954 5.721,1.137 7.99,3.092 4.171,3.592 8.342,7.184 12.513,10.776 1.694,1.459 3.502,2.975 5.703,3.366 2.201,0.392 4.856,-0.838 5.173,-3.051 0.143,-1.002 -0.202,-2.008 -0.607,-2.937 C 25.521,-0.842 11.499,-4.24 0,0"
                   style="fill:#ffffff;fill-opacity:1;fill-rule:nonzero;stroke:none"
                   id="path870"
                   inkscape:connector-curvature="0" /></g></g></g></g><g
           id="g878"><g
             id="g880" /><g
             id="g892"><g
               clip-path="url(#clipPath884)"
               id="g890"
               style="opacity:0.80000299"><g
                 transform="translate(182.3281,290.1289)"
                 id="g888"><path
                   d="m 0,0 c 0.709,1.631 -0.381,3.442 -1.421,4.884 -1.913,2.651 -3.826,5.302 -5.738,7.953 -0.777,1.077 -1.581,2.224 -1.7,3.546 -0.12,1.322 0.743,2.829 2.068,2.904 0.601,0.034 1.178,-0.222 1.707,-0.508 C 1.799,15.055 3.095,6.586 0,0"
                   style="fill:#ffffff;fill-opacity:1;fill-rule:nonzero;stroke:none"
                   id="path886"
                   inkscape:connector-curvature="0" /></g></g></g></g><g
           id="g894"><g
             id="g896" /><g
             id="g908"><g
               clip-path="url(#clipPath900)"
               id="g906"
               style="opacity:0.80000299"><g
                 transform="translate(192.8418,288.7446)"
                 id="g904"><path
                   d="m 0,0 c 1.667,-0.621 3.417,0.564 4.802,1.68 2.545,2.051 5.09,4.103 7.635,6.153 1.034,0.834 2.136,1.698 3.45,1.888 1.314,0.19 2.865,-0.592 3.011,-1.911 C 18.964,7.212 18.739,6.622 18.481,6.079 15.13,-0.994 6.742,-2.739 0,0"
                   style="fill:#ffffff;fill-opacity:1;fill-rule:nonzero;stroke:none"
                   id="path902"
                   inkscape:connector-curvature="0" /></g></g></g></g><g
           id="g910"><g
             id="g912" /><g
             id="g924"><g
               clip-path="url(#clipPath916)"
               id="g922"
               style="opacity:0.80000299"><g
                 transform="translate(184.6802,288.7393)"
                 id="g920"><path
                   d="m 0,0 c 2.851,0.923 3.922,4.316 4.583,7.238 1.216,5.369 2.431,10.738 3.646,16.107 0.494,2.18 1.046,4.474 2.582,6.098 1.536,1.624 4.402,2.215 5.973,0.625 0.712,-0.72 1.031,-1.734 1.26,-2.721 C 21.014,14.506 11.765,3.432 0,0"
                   style="fill:#ffffff;fill-opacity:1;fill-rule:nonzero;stroke:none"
                   id="path918"
                   inkscape:connector-curvature="0" /></g></g></g></g><g
           id="g926"><g
             id="g928" /><g
             id="g940"><g
               clip-path="url(#clipPath932)"
               id="g938"
               style="opacity:0.80000299"><g
                 transform="translate(142.8364,159.7314)"
                 id="g936"><path
                   d="m 0,0 c -2.478,-3.576 -4.75,-7.203 -5.376,-11.889 -0.328,-2.456 -0.188,-5.365 2.368,-6.592 C 4.86,-22.259 9.598,-6.848 11.13,-1.874 15.05,10.853 10.539,25.997 9.778,21.903 8.902,17.187 7.304,12.29 5.067,7.896 3.618,5.049 1.758,2.537 0,0"
                   style="fill:#ffffff;fill-opacity:1;fill-rule:nonzero;stroke:none"
                   id="path934"
                   inkscape:connector-curvature="0" /></g></g></g></g><g
           id="g942"
           transform="translate(280.4941,294.2485)"><path
             d="m 0,0 c -1.701,8.638 -3.138,17.317 -5.521,25.803 -2.247,7.996 -6.614,15.323 -8.421,23.595 -2.426,11.101 -0.389,23.007 7.97,31.184 C 5.091,91.4 22.467,91.045 35.332,83.446 49.715,74.951 56.083,59.544 50.081,43.719 43.429,26.181 26.737,10.836 9.695,3.506 6.623,2.185 3.275,0.45 0.075,-0.371 0.05,-0.248 0.024,-0.125 0,0"
             style="fill:#ffffff;fill-opacity:1;fill-rule:nonzero;stroke:none"
             id="path944"
             inkscape:connector-curvature="0" /></g></g></g><g
       id="g946"><g
         id="g948"
         clip-path="url(#clipPath952)"><g
           id="g954"><g
             id="g956"><path
               d="m 280.506,356.425 -0.35,-20.972 c -0.068,-4.036 3.15,-7.365 7.189,-7.433 v 0 l 20.973,-0.351 c 4.037,-0.067 7.366,3.153 7.433,7.189 v 0 l 0.351,20.972 c 0.067,4.039 -3.153,7.368 -7.19,7.435 v 0 l -20.972,0.35 c -0.042,10e-4 -0.083,10e-4 -0.125,10e-4 v 0 c -3.982,0 -7.242,-3.195 -7.309,-7.191"
               style="fill:url(#radialGradient970);stroke:none"
               id="path972"
               inkscape:connector-curvature="0" /></g></g></g></g><g
       id="g974"><g
         id="g976"
         clip-path="url(#clipPath980)"><g
           id="g982"
           transform="translate(308.9043,341.2983)"><path
             d="m 0,0 c -0.062,-3.692 -3.104,-6.633 -6.794,-6.572 l -8.326,0.139 c -3.692,0.062 -6.634,3.103 -6.572,6.796 l 0.139,8.325 c 0.062,3.69 3.104,6.634 6.795,6.572 l 8.326,-0.139 c 3.69,-0.062 6.633,-3.105 6.572,-6.795 z m -5.4,17.681 -10.303,0.172 c -4.568,0.076 -8.333,-3.565 -8.409,-8.134 l -0.173,-10.302 c -0.076,-4.568 3.565,-8.333 8.134,-8.409 L -5.849,-9.164 C -1.28,-9.24 2.484,-5.6 2.561,-1.032 L 2.732,9.27 c 0.077,4.569 -3.564,8.334 -8.132,8.411"
             style="fill:#ffffff;fill-opacity:1;fill-rule:nonzero;stroke:none"
             id="path984"
             inkscape:connector-curvature="0" /></g><g
           id="g986"
           transform="translate(298.417,341.3359)"><path
             d="M 0,0 C -2.352,0.039 -4.224,1.977 -4.185,4.325 -4.146,6.676 -2.21,8.547 0.142,8.508 2.49,8.469 4.363,6.534 4.324,4.183 4.285,1.834 2.349,-0.04 0,0 m 0.188,11.324 c -3.906,0.066 -7.124,-3.046 -7.189,-6.952 -0.065,-3.904 3.047,-7.124 6.953,-7.189 3.905,-0.065 7.124,3.049 7.19,6.953 0.065,3.906 -3.048,7.123 -6.954,7.188"
             style="fill:#ffffff;fill-opacity:1;fill-rule:nonzero;stroke:none"
             id="path988"
             inkscape:connector-curvature="0" /></g><g
           id="g990"
           transform="translate(306.9873,352.6309)"><path
             d="m 0,0 c -0.017,-0.993 -0.837,-1.785 -1.829,-1.768 -0.993,0.017 -1.784,0.835 -1.768,1.828 0.017,0.993 0.835,1.786 1.828,1.769 C -0.776,1.812 0.017,0.993 0,0"
             style="fill:#ffffff;fill-opacity:1;fill-rule:nonzero;stroke:none"
             id="path992"
             inkscape:connector-curvature="0" /></g><g
           id="g994"
           transform="translate(299.2246,375.9629)"><path
             d="m 0,0 c 8.218,2.181 17.385,-2.083 22.012,-9.216 4.645,-7.161 4.995,-16.533 2.161,-24.436 C 29.127,-19.839 16.14,0.449 0.874,0.024 Z"
             style="fill:#e2ddca;fill-opacity:1;fill-rule:nonzero;stroke:none"
             id="path996"
             inkscape:connector-curvature="0" /></g><g
           id="g998"><g
             id="g1000" /><g
             id="g1012"><g
               clip-path="url(#clipPath1004)"
               id="g1010"
               style="opacity:0.80000299"><g
                 transform="translate(145.5493,173.5186)"
                 id="g1008"><path
                   d="m 0,0 c 0,-2.269 -1.839,-4.108 -4.108,-4.108 -2.27,0 -4.109,1.839 -4.109,4.108 0,2.27 1.839,4.108 4.109,4.108 C -1.839,4.108 0,2.27 0,0"
                   style="fill:#ffffff;fill-opacity:1;fill-rule:nonzero;stroke:none"
                   id="path1006"
                   inkscape:connector-curvature="0" /></g></g></g></g><g
           id="g1014"><g
             id="g1016" /><g
             id="g1028"><g
               clip-path="url(#clipPath1020)"
               id="g1026"
               style="opacity:0.80000299"><g
                 transform="translate(258.4766,325.8784)"
                 id="g1024"><path
                   d="m 0,0 c 0,-2.269 -1.84,-4.108 -4.108,-4.108 -2.27,0 -4.109,1.839 -4.109,4.108 0,2.269 1.839,4.109 4.109,4.109 C -1.84,4.109 0,2.269 0,0"
                   style="fill:#ffffff;fill-opacity:1;fill-rule:nonzero;stroke:none"
                   id="path1022"
                   inkscape:connector-curvature="0" /></g></g></g></g><g
           id="g1030"><g
             id="g1032" /><g
             id="g1044"><g
               clip-path="url(#clipPath1036)"
               id="g1042"
               style="opacity:0.80000299"><g
                 transform="translate(367.3652,191.9541)"
                 id="g1040"><path
                   d="m 0,0 c 0,-2.27 -1.84,-4.109 -4.108,-4.109 -2.27,0 -4.109,1.839 -4.109,4.109 0,2.269 1.839,4.108 4.109,4.108 C -1.84,4.108 0,2.269 0,0"
                   style="fill:#ffffff;fill-opacity:1;fill-rule:nonzero;stroke:none"
                   id="path1038"
                   inkscape:connector-curvature="0" /></g></g></g></g><g
           id="g1046"
           transform="translate(396.7178,342.0771)"><path
             d="M 0,0 16.093,14.407"
             style="fill:none;stroke:#ffffff;stroke-width:4;stroke-linecap:round;stroke-linejoin:miter;stroke-miterlimit:10;stroke-dasharray:none;stroke-opacity:1"
             id="path1048"
             inkscape:connector-curvature="0" /></g><g
           id="g1050"
           transform="translate(401.7988,334.9053)"><path
             d="M 0,0 20.06,8.01"
             style="fill:none;stroke:#ffffff;stroke-width:4;stroke-linecap:round;stroke-linejoin:miter;stroke-miterlimit:10;stroke-dasharray:none;stroke-opacity:1"
             id="path1052"
             inkscape:connector-curvature="0" /></g><g
           id="g1054"
           transform="translate(404.3721,323.0752)"><path
             d="M 0,0 21.537,-1.633"
             style="fill:none;stroke:#ffffff;stroke-width:4;stroke-linecap:round;stroke-linejoin:miter;stroke-miterlimit:10;stroke-dasharray:none;stroke-opacity:1"
             id="path1056"
             inkscape:connector-curvature="0" /></g><g
           id="g1058"
           transform="translate(389.7002,346.0786)"><path
             d="M 0,0 10.8,18.706"
             style="fill:none;stroke:#ffffff;stroke-width:4;stroke-linecap:round;stroke-linejoin:miter;stroke-miterlimit:10;stroke-dasharray:none;stroke-opacity:1"
             id="path1060"
             inkscape:connector-curvature="0" /></g><g
           id="g1062"
           transform="translate(49.5977,224.8477)"><path
             d="M 0,0 -21.598,-0.28"
             style="fill:none;stroke:#ffffff;stroke-width:4;stroke-linecap:round;stroke-linejoin:miter;stroke-miterlimit:10;stroke-dasharray:none;stroke-opacity:1"
             id="path1064"
             inkscape:connector-curvature="0" /></g><g
           id="g1066"
           transform="translate(50.4829,237.25)"><path
             d="M 0,0 -20.382,7.148"
             style="fill:none;stroke:#ffffff;stroke-width:4;stroke-linecap:round;stroke-linejoin:miter;stroke-miterlimit:10;stroke-dasharray:none;stroke-opacity:1"
             id="path1068"
             inkscape:connector-curvature="0" /></g><g
           id="g1070"
           transform="translate(54.5103,249.8091)"><path
             d="M 0,0 -17.89,12.104"
             style="fill:none;stroke:#ffffff;stroke-width:4;stroke-linecap:round;stroke-linejoin:miter;stroke-miterlimit:10;stroke-dasharray:none;stroke-opacity:1"
             id="path1072"
             inkscape:connector-curvature="0" /></g><g
           id="g1074"
           transform="translate(52.2568,212.165)"><path
             d="M 0,0 -20.434,-6.999"
             style="fill:none;stroke:#ffffff;stroke-width:4;stroke-linecap:round;stroke-linejoin:miter;stroke-miterlimit:10;stroke-dasharray:none;stroke-opacity:1"
             id="path1076"
             inkscape:connector-curvature="0" /></g></g></g></g></svg>