<?xml version="1.0" encoding="UTF-8" standalone="no"?>
<!-- Created with Inkscape (http://www.inkscape.org/) -->

<svg
   xmlns:dc="http://purl.org/dc/elements/1.1/"
   xmlns:cc="http://creativecommons.org/ns#"
   xmlns:rdf="http://www.w3.org/1999/02/22-rdf-syntax-ns#"
   xmlns:svg="http://www.w3.org/2000/svg"
   xmlns="http://www.w3.org/2000/svg"
   xmlns:sodipodi="http://sodipodi.sourceforge.net/DTD/sodipodi-0.dtd"
   xmlns:inkscape="http://www.inkscape.org/namespaces/inkscape"
   width="282.22186mm"
   height="282.22223mm"
   viewBox="0 0 282.22186 282.22223"
   version="1.1"
   id="svg8"
   sodipodi:docname="contactanos.svg"
   inkscape:version="0.92.3 (unknown)"
   inkscape:export-filename="/home/jose/Documentos/mbn/web_Killapu/assets/img/contactanos.png"
   inkscape:export-xdpi="96"
   inkscape:export-ydpi="96">
  <defs
     id="defs2">
    <clipPath
       id="clipPath3731"
       clipPathUnits="userSpaceOnUse">
      <path
         inkscape:connector-curvature="0"
         id="path3729"
         d="M 0,800 H 800 V 0 H 0 Z" />
    </clipPath>
    <clipPath
       id="clipPath3755"
       clipPathUnits="userSpaceOnUse">
      <path
         inkscape:connector-curvature="0"
         id="path3753"
         d="M 0,800 H 800 V 0 H 0 Z" />
    </clipPath>
    <clipPath
       id="clipPath3787"
       clipPathUnits="userSpaceOnUse">
      <path
         inkscape:connector-curvature="0"
         id="path3785"
         d="M 0,800 H 800 V 0 H 0 Z" />
    </clipPath>
    <clipPath
       id="clipPath3879"
       clipPathUnits="userSpaceOnUse">
      <path
         inkscape:connector-curvature="0"
         id="path3877"
         d="m 224.77,489.245 c 0,-13.104 1.455,-25.869 4.191,-38.15 v 0 c -2.736,-12.28 -4.191,-25.045 -4.191,-38.15 v 0 c 0,-96.471 78.206,-174.676 174.677,-174.676 v 0 c 96.471,0 174.676,78.205 174.676,174.676 v 0 c 0,13.105 -1.454,25.87 -4.19,38.15 v 0 c 2.736,12.281 4.19,25.046 4.19,38.15 v 0 c 0,96.471 -78.205,174.677 -174.676,174.677 v 0 c -96.471,0 -174.677,-78.206 -174.677,-174.677" />
    </clipPath>
    <clipPath
       id="clipPath3973"
       clipPathUnits="userSpaceOnUse">
      <path
         inkscape:connector-curvature="0"
         id="path3971"
         d="m 399.447,624.242 h 160.41 V 239.39 h -160.41 z" />
    </clipPath>
    <clipPath
       id="clipPath3989"
       clipPathUnits="userSpaceOnUse">
      <path
         inkscape:connector-curvature="0"
         id="path3987"
         d="M 0,800 H 800 V 0 H 0 Z" />
    </clipPath>
    <clipPath
       id="clipPath4029"
       clipPathUnits="userSpaceOnUse">
      <path
         inkscape:connector-curvature="0"
         id="path4027"
         d="M 0,800 H 800 V 0 H 0 Z" />
    </clipPath>
    <clipPath
       id="clipPath4081"
       clipPathUnits="userSpaceOnUse">
      <path
         inkscape:connector-curvature="0"
         id="path4079"
         d="M 0,800 H 800 V 0 H 0 Z" />
    </clipPath>
  </defs>
  <sodipodi:namedview
     id="base"
     pagecolor="#ffffff"
     bordercolor="#666666"
     borderopacity="1.0"
     inkscape:pageopacity="0.0"
     inkscape:pageshadow="2"
     inkscape:zoom="0.7"
     inkscape:cx="277.72731"
     inkscape:cy="259.95572"
     inkscape:document-units="mm"
     inkscape:current-layer="g3721"
     showgrid="false"
     inkscape:window-width="1366"
     inkscape:window-height="705"
     inkscape:window-x="0"
     inkscape:window-y="24"
     inkscape:window-maximized="1" />
  <metadata
     id="metadata5">
    <rdf:RDF>
      <cc:Work
         rdf:about="">
        <dc:format>image/svg+xml</dc:format>
        <dc:type
           rdf:resource="http://purl.org/dc/dcmitype/StillImage" />
        <dc:title></dc:title>
      </cc:Work>
    </rdf:RDF>
  </metadata>
  <g
     inkscape:label="Capa 1"
     inkscape:groupmode="layer"
     id="layer1"
     transform="translate(-42.585494,-11.501994)">
    <g
       transform="matrix(0.35277777,0,0,-0.35277777,42.585494,293.72421)"
       inkscape:label="103511-OM1GBY-922"
       id="g3721">
      <path
         inkscape:connector-curvature="0"
         id="path3723"
         style="fill:#ffba4e;fill-opacity:1;fill-rule:nonzero;stroke:none"
         d="M 0,0 H 799.999 V 800 H 0 Z" />
      <g
         id="g3725"
         transform="translate(8.7488,1.792)">
        <g
           clip-path="url(#clipPath3731)"
           id="g3727">
          <g
             transform="translate(651.9496,402.6679)"
             id="g3733">
            <path
               inkscape:connector-curvature="0"
               id="path3735"
               style="fill:none;stroke:#ed7b00;stroke-width:5;stroke-linecap:round;stroke-linejoin:round;stroke-miterlimit:4;stroke-dasharray:0, 12.02;stroke-dashoffset:0;stroke-opacity:1"
               d="m 0,0 c 0,-139.453 -113.049,-252.503 -252.503,-252.503 -139.453,0 -252.503,113.05 -252.503,252.503 0,139.454 113.05,252.503 252.503,252.503 C -113.049,252.503 0,139.454 0,0 Z" />
          </g>
          <g
             transform="translate(498.5385,139.4218)"
             id="g3737">
            <path
               inkscape:connector-curvature="0"
               id="path3739"
               style="fill:#ff8154;fill-opacity:1;fill-rule:nonzero;stroke:none"
               d="m 0,0 h -198.184 c -9.02,0 -16.332,7.312 -16.332,16.333 v 26.071 c 0,9.02 7.312,16.333 16.332,16.333 L 0,58.737 c 9.02,0 16.333,-7.313 16.333,-16.333 V 16.333 C 16.333,7.312 9.02,0 0,0" />
          </g>
          <g
             transform="translate(498.5385,143.0645)"
             id="g3741">
            <path
               inkscape:connector-curvature="0"
               id="path3743"
               style="fill:#e3734a;fill-opacity:1;fill-rule:nonzero;stroke:none"
               d="m 0,0 h -198.183 c -9.021,0 -16.333,7.312 -16.333,16.333 V 12.69 c 0,-9.02 7.312,-16.333 16.333,-16.333 L 0,-3.643 c 9.02,0 16.333,7.313 16.333,16.333 v 3.643 C 16.333,7.312 9.02,0 0,0" />
          </g>
        </g>
      </g>
      <text
         id="text3747"
         style="font-variant:normal;font-weight:500;font-stretch:normal;font-size:29.58939934px;font-family:'Roboto Lt';-inkscape-font-specification:Roboto-Medium;writing-mode:lr-tb;fill:#ffffff;fill-opacity:1;fill-rule:nonzero;stroke:none"
         transform="scale(1,-1)"
         x="312.46439"
         y="-160.14259">
        <tspan
           id="tspan3745"
           sodipodi:role="line"
           x="312.46439"
           y="-160.14259">Contactanos</tspan>
      </text>
      <g
         id="g3749">
        <g
           clip-path="url(#clipPath3755)"
           id="g3751">
          <g
             transform="translate(594.5875,717.6274)"
             id="g3757">
            <path
               inkscape:connector-curvature="0"
               id="path3759"
               style="fill:#ebab48;fill-opacity:1;fill-rule:nonzero;stroke:none"
               d="m 0,0 c 7.706,-6.016 9.076,-17.14 3.06,-24.846 -6.016,-7.705 -17.14,-9.075 -24.846,-3.059 -7.706,6.016 -9.075,17.139 -3.059,24.845 C -18.83,4.646 -7.706,6.016 0,0 m -33.737,4.789 c -0.15,-0.184 -0.3,-0.37 -0.447,-0.558 -1.722,-2.206 -3.081,-4.58 -4.087,-7.05 l 3.273,-3.092 c -0.757,-2.27 -1.181,-4.614 -1.279,-6.962 l -4.143,-2.15 c 0.102,-2.798 0.6,-5.575 1.483,-8.241 l 4.508,-0.266 c 0.979,-2.412 2.338,-4.692 4.063,-6.746 l -1.759,-4.229 c 0.94,-0.968 1.955,-1.885 3.049,-2.739 1.093,-0.853 2.229,-1.616 3.396,-2.292 l 3.676,2.732 c 2.411,-1.175 4.953,-1.941 7.53,-2.305 l 1.352,-4.309 c 2.801,-0.21 5.616,-0.019 8.355,0.561 l 1.08,4.54 c 2.254,0.665 4.425,1.645 6.444,2.93 l 3.794,-2.425 c 2.152,1.575 4.125,3.47 5.847,5.676 0.147,0.188 0.291,0.378 0.433,0.569 l -2.124,4.237 c 1.053,1.695 1.883,3.477 2.496,5.308 l 4.495,0.585 c 0.801,3.066 1.095,6.221 0.897,9.34 l -4.359,1.884 c -0.236,1.585 -0.62,3.149 -1.152,4.668 l 3.119,3.393 C 14.926,0.786 13.157,3.543 10.914,5.99 L 6.414,4.646 C 5.881,5.141 5.325,5.618 4.741,6.073 4.158,6.529 3.56,6.953 2.951,7.35 l 0.212,4.691 c -2.918,1.582 -6.022,2.63 -9.182,3.155 l -2.535,-3.848 c -1.603,0.147 -3.213,0.141 -4.808,-0.015 l -2.885,3.772 c -3.074,-0.566 -6.063,-1.616 -8.843,-3.137 l 0.523,-4.503 c -1.628,-1.039 -3.155,-2.276 -4.544,-3.709 z" />
          </g>
          <g
             transform="translate(534.1301,705.4028)"
             id="g3761">
            <path
               inkscape:connector-curvature="0"
               id="path3763"
               style="fill:#ebab48;fill-opacity:1;fill-rule:nonzero;stroke:none"
               d="m 0,0 c 7.706,-6.016 9.076,-17.14 3.06,-24.846 -6.016,-7.705 -17.14,-9.075 -24.846,-3.059 -7.705,6.016 -9.075,17.139 -3.059,24.845 C -18.829,4.646 -7.706,6.016 0,0 m -33.737,4.789 c -0.15,-0.184 -0.3,-0.37 -0.447,-0.558 -1.722,-2.206 -3.081,-4.58 -4.087,-7.05 l 3.273,-3.092 c -0.757,-2.27 -1.181,-4.614 -1.279,-6.962 l -4.143,-2.15 c 0.102,-2.798 0.6,-5.575 1.483,-8.241 l 4.508,-0.266 c 0.979,-2.412 2.338,-4.692 4.063,-6.746 l -1.759,-4.229 c 0.94,-0.968 1.955,-1.885 3.049,-2.739 1.093,-0.853 2.229,-1.616 3.396,-2.292 l 3.676,2.732 c 2.411,-1.175 4.953,-1.941 7.53,-2.305 l 1.352,-4.309 c 2.801,-0.21 5.616,-0.019 8.355,0.56 l 1.08,4.542 c 2.254,0.664 4.425,1.644 6.444,2.929 l 3.794,-2.425 c 2.152,1.575 4.125,3.47 5.847,5.676 0.147,0.188 0.291,0.378 0.433,0.569 l -2.124,4.237 c 1.053,1.695 1.883,3.477 2.496,5.308 l 4.495,0.585 c 0.801,3.066 1.095,6.221 0.897,9.34 l -4.359,1.884 c -0.236,1.585 -0.62,3.149 -1.151,4.668 l 3.118,3.393 C 14.926,0.786 13.157,3.543 10.914,5.99 L 6.414,4.646 C 5.882,5.141 5.325,5.618 4.741,6.073 4.158,6.529 3.56,6.953 2.951,7.35 l 0.212,4.691 c -2.917,1.582 -6.022,2.63 -9.182,3.156 l -2.535,-3.849 c -1.603,0.147 -3.213,0.141 -4.808,-0.015 l -2.885,3.772 c -3.074,-0.566 -6.063,-1.616 -8.843,-3.137 l 0.523,-4.503 c -1.628,-1.039 -3.155,-2.276 -4.544,-3.709 z" />
          </g>
          <g
             transform="translate(597.3964,656.0106)"
             id="g3765">
            <path
               inkscape:connector-curvature="0"
               id="path3767"
               style="fill:#ebab48;fill-opacity:1;fill-rule:nonzero;stroke:none"
               d="m 0,0 c 7.706,-6.016 9.076,-17.14 3.06,-24.846 -6.016,-7.705 -17.14,-9.075 -24.846,-3.059 -7.706,6.016 -9.075,17.139 -3.06,24.845 C -18.83,4.646 -7.706,6.016 0,0 m -33.737,4.789 c -0.151,-0.184 -0.3,-0.37 -0.447,-0.558 -1.722,-2.206 -3.081,-4.58 -4.087,-7.05 l 3.273,-3.092 c -0.757,-2.27 -1.181,-4.614 -1.279,-6.962 l -4.144,-2.15 c 0.103,-2.798 0.601,-5.575 1.484,-8.241 l 4.508,-0.266 c 0.979,-2.412 2.338,-4.692 4.063,-6.746 l -1.759,-4.229 c 0.94,-0.968 1.955,-1.885 3.049,-2.739 1.093,-0.853 2.229,-1.616 3.396,-2.292 l 3.676,2.732 c 2.411,-1.175 4.953,-1.941 7.53,-2.305 l 1.352,-4.309 c 2.801,-0.21 5.616,-0.019 8.355,0.56 l 1.08,4.541 c 2.254,0.665 4.425,1.645 6.443,2.93 l 3.795,-2.425 c 2.152,1.575 4.125,3.47 5.847,5.676 0.147,0.188 0.291,0.378 0.433,0.569 l -2.124,4.237 c 1.053,1.695 1.883,3.477 2.496,5.308 l 4.495,0.585 c 0.801,3.066 1.095,6.221 0.897,9.34 l -4.359,1.884 c -0.236,1.585 -0.62,3.149 -1.152,4.668 l 3.119,3.393 C 14.926,0.786 13.157,3.543 10.914,5.99 L 6.414,4.646 C 5.881,5.141 5.325,5.618 4.741,6.073 4.158,6.529 3.56,6.953 2.951,7.35 l 0.212,4.691 c -2.918,1.582 -6.022,2.63 -9.182,3.155 l -2.535,-3.848 c -1.603,0.147 -3.213,0.141 -4.808,-0.015 l -2.885,3.772 c -3.074,-0.566 -6.063,-1.616 -8.843,-3.137 l 0.523,-4.503 c -1.628,-1.039 -3.155,-2.276 -4.544,-3.709 z" />
          </g>
          <g
             transform="translate(61.8797,493.8489)"
             id="g3769">
            <path
               inkscape:connector-curvature="0"
               id="path3771"
               style="fill:#ebab48;fill-opacity:1;fill-rule:nonzero;stroke:none"
               d="m 0,0 c -5.816,26.856 20,55.239 57.662,63.395 37.661,8.156 72.907,-7.003 78.723,-33.859 5.816,-26.856 -20,-55.238 -57.662,-63.395 -9.239,-2 -18.331,-2.595 -26.881,-1.961 l -20.605,-16.56 4.194,19.464 C 17.084,-27.594 3.428,-15.83 0,0" />
          </g>
          <g
             transform="translate(232.0081,551.1761)"
             id="g3773">
            <path
               inkscape:connector-curvature="0"
               id="path3775"
               style="fill:#ff8154;fill-opacity:1;fill-rule:nonzero;stroke:none"
               d="m 0,0 c -5.816,26.856 -41.062,42.015 -78.723,33.859 -37.662,-8.156 -63.478,-36.539 -57.662,-63.395 5.816,-26.856 41.062,-42.015 78.723,-33.859 9.24,2.001 17.763,5.222 25.285,9.336 l 25.61,-6.552 -11.871,15.986 C -4.137,-32.189 3.428,-15.83 0,0" />
          </g>
        </g>
      </g>
      <text
         id="text3779"
         style="font-variant:normal;font-weight:500;font-stretch:normal;font-size:69.98994446px;font-family:'Roboto Lt';-inkscape-font-specification:Roboto-Medium;writing-mode:lr-tb;fill:#ffe7de;fill-opacity:1;fill-rule:nonzero;stroke:none"
         transform="matrix(0.97734327,0.21166041,0.21166041,-0.97734327,153.4019,512.7953)">
        <tspan
           id="tspan3777"
           y="0"
           x="0">?</tspan>
      </text>
      <g
         id="g3781">
        <g
           clip-path="url(#clipPath3787)"
           id="g3783">
          <g
             transform="translate(200.6156,217.6438)"
             id="g3789">
            <path
               inkscape:connector-curvature="0"
               id="path3791"
               style="fill:#a6a6a6;fill-opacity:1;fill-rule:nonzero;stroke:none"
               d="m 0,0 -40.569,-4.585 c -5.08,-0.574 -9.663,3.078 -10.237,8.158 l -9.282,82.124 c -0.574,5.08 3.078,9.663 8.158,10.237 l 40.569,4.585 c 5.08,0.574 9.663,-3.078 10.238,-8.158 L 8.158,10.238 C 8.733,5.158 5.08,0.574 0,0" />
          </g>
          <g
             transform="translate(200.0907,222.2881)"
             id="g3793">
            <path
               inkscape:connector-curvature="0"
               id="path3795"
               style="fill:#ffffff;fill-opacity:1;fill-rule:nonzero;stroke:none"
               d="m 0,0 -40.569,-4.585 c -5.08,-0.574 -9.663,3.078 -10.237,8.158 l -9.282,82.124 c -0.574,5.079 3.078,9.663 8.158,10.237 l 40.569,4.585 c 5.08,0.575 9.663,-3.078 10.238,-8.158 L 8.158,10.238 C 8.732,5.158 5.08,0.574 0,0" />
          </g>
          <g
             transform="translate(204.2195,234.7643)"
             id="g3797">
            <path
               inkscape:connector-curvature="0"
               id="path3799"
               style="fill:#c7c7c7;fill-opacity:1;fill-rule:nonzero;stroke:none"
               d="m 0,0 -51.507,-5.821 -8.681,76.803 51.508,5.821 z" />
          </g>
          <g
             transform="translate(183.065,226.0891)"
             id="g3801">
            <path
               inkscape:connector-curvature="0"
               id="path3803"
               style="fill:#c7c7c7;fill-opacity:1;fill-rule:nonzero;stroke:none"
               d="m 0,0 c 0.243,-2.153 -1.305,-4.095 -3.457,-4.338 -2.153,-0.243 -4.095,1.304 -4.338,3.457 -0.244,2.153 1.304,4.095 3.457,4.338 C -2.186,3.7 -0.243,2.153 0,0" />
          </g>
          <g
             transform="translate(679.5244,435.2939)"
             id="g3805">
            <path
               inkscape:connector-curvature="0"
               id="path3807"
               style="fill:#ebab48;fill-opacity:1;fill-rule:nonzero;stroke:none"
               d="M 0,0 C 1.233,2.894 4.58,4.241 7.474,3.007 10.368,1.774 11.715,-1.572 10.481,-4.466 9.248,-7.361 5.902,-8.707 3.008,-7.474 0.113,-6.241 -1.233,-2.894 0,0 m 20.156,-8.589 c 1.234,2.894 4.58,4.241 7.474,3.007 2.894,-1.233 4.241,-4.579 3.007,-7.473 -1.233,-2.895 -4.579,-4.241 -7.473,-3.008 -2.895,1.234 -4.241,4.58 -3.008,7.474 m 20.156,-8.589 c 1.234,2.894 4.58,4.241 7.474,3.007 2.894,-1.233 4.241,-4.579 3.008,-7.473 -1.234,-2.895 -4.58,-4.241 -7.474,-3.008 -2.894,1.233 -4.241,4.58 -3.008,7.474 m -49.937,-5.212 -9.201,-8.444 16.55,1.009 c 4.146,-3.423 9.016,-6.414 14.47,-8.738 22.235,-9.475 45.736,-4.302 52.493,11.553 6.756,15.854 -5.792,36.388 -28.026,45.863 -22.235,9.474 -45.736,4.302 -52.492,-11.553 -3.983,-9.346 -1.256,-20.316 6.206,-29.69" />
          </g>
          <g
             transform="translate(122.8835,352.3297)"
             id="g3809">
            <path
               inkscape:connector-curvature="0"
               id="path3811"
               style="fill:#ebab48;fill-opacity:1;fill-rule:nonzero;stroke:none"
               d="m 0,0 c 1.817,9.217 -0.316,21.642 -6.467,34.152 l 12.516,6.63 C 12.286,26.914 9.555,10.997 0,0 m -61.401,5.052 12.516,6.63 c 6.895,-12.117 15.975,-20.86 24.621,-24.535 -14.465,-1.727 -29.167,4.955 -37.137,17.905 m 3.718,45.184 c -1.818,-9.218 0.315,-21.641 6.466,-34.152 l -12.516,-6.63 c -6.236,13.869 -3.505,29.785 6.05,40.782 m 29.876,-21.751 -16.575,31.291 c 8.912,1.977 22.231,-7.971 31.176,-23.557 z m 18.908,-35.694 -16.576,31.292 14.6,7.735 c 7.87,-16.156 8.618,-32.763 1.976,-39.027 M -29.876,21.752 -13.301,-9.54 c -8.912,-1.977 -22.232,7.971 -31.176,23.557 z m -18.908,35.693 16.576,-31.292 -14.601,-7.734 c -7.87,16.156 -8.617,32.763 -1.975,39.026 M 3.718,45.184 -8.798,38.554 c -6.895,12.117 -15.975,20.86 -24.621,24.535 14.465,1.727 29.166,-4.955 37.137,-17.905 M -49.08,63.324 C -70.147,52.165 -78.208,25.946 -67.048,4.879 -55.888,-16.187 -29.67,-24.248 -8.603,-13.088 12.464,-1.928 20.524,24.29 9.364,45.357 -1.795,66.424 -28.013,74.484 -49.08,63.324" />
          </g>
          <g
             transform="translate(661.3705,253.2263)"
             id="g3813">
            <path
               inkscape:connector-curvature="0"
               id="path3815"
               style="fill:#cf6845;fill-opacity:1;fill-rule:nonzero;stroke:none"
               d="m 0,0 -56.647,18.777 c -4.527,1.501 -6.98,6.387 -5.48,10.914 l 25.349,76.472 c 1.501,4.527 6.387,6.98 10.914,5.479 L 30.783,92.865 c 4.527,-1.5 6.98,-6.387 5.48,-10.913 L 10.914,5.48 C 9.413,0.953 4.527,-1.501 0,0" />
          </g>
          <g
             transform="translate(662.2866,270.395)"
             id="g3817">
            <path
               inkscape:connector-curvature="0"
               id="path3819"
               style="fill:#ff8154;fill-opacity:1;fill-rule:nonzero;stroke:none"
               d="M 0,0 25.565,77.123 -26.78,94.474 c -4.527,1.5 -9.413,-0.953 -10.914,-5.48 L -63.043,12.522 c -1.5,-4.527 0.953,-9.413 5.48,-10.913 l 56.647,-18.778 c 4.527,-1.5 9.413,0.953 10.913,5.48 l 2.502,7.546 z" />
          </g>
          <g
             transform="translate(626.9951,348.8297)"
             id="g3821">
            <path
               inkscape:connector-curvature="0"
               id="path3823"
               style="fill:#cf6845;fill-opacity:1;fill-rule:nonzero;stroke:none"
               d="m 0,0 -10.636,3.526 c -1.172,0.388 -1.807,1.653 -1.418,2.824 0.388,1.172 1.653,1.807 2.824,1.419 L 1.406,4.243 C 2.578,3.855 3.213,2.59 2.825,1.418 2.436,0.247 1.172,-0.388 0,0" />
          </g>
          <g
             transform="translate(624.006,339.8123)"
             id="g3825">
            <path
               inkscape:connector-curvature="0"
               id="path3827"
               style="fill:#cf6845;fill-opacity:1;fill-rule:nonzero;stroke:none"
               d="m 0,0 -10.636,3.526 c -1.172,0.388 -1.807,1.653 -1.418,2.824 0.388,1.172 1.653,1.807 2.824,1.419 L 1.406,4.243 C 2.578,3.855 3.213,2.59 2.825,1.418 2.436,0.247 1.172,-0.388 0,0" />
          </g>
          <g
             transform="translate(621.017,330.795)"
             id="g3829">
            <path
               inkscape:connector-curvature="0"
               id="path3831"
               style="fill:#cf6845;fill-opacity:1;fill-rule:nonzero;stroke:none"
               d="m 0,0 -10.636,3.526 c -1.172,0.388 -1.807,1.653 -1.418,2.824 0.388,1.172 1.653,1.807 2.824,1.419 L 1.406,4.243 C 2.578,3.855 3.213,2.59 2.825,1.418 2.436,0.247 1.172,-0.388 0,0" />
          </g>
          <g
             transform="translate(618.0278,321.7774)"
             id="g3833">
            <path
               inkscape:connector-curvature="0"
               id="path3835"
               style="fill:#cf6845;fill-opacity:1;fill-rule:nonzero;stroke:none"
               d="m 0,0 -10.636,3.526 c -1.172,0.388 -1.807,1.653 -1.418,2.825 0.388,1.171 1.653,1.806 2.825,1.418 L 1.406,4.243 C 2.578,3.855 3.213,2.59 2.825,1.418 2.436,0.247 1.172,-0.388 0,0" />
          </g>
          <g
             transform="translate(615.0388,312.76)"
             id="g3837">
            <path
               inkscape:connector-curvature="0"
               id="path3839"
               style="fill:#cf6845;fill-opacity:1;fill-rule:nonzero;stroke:none"
               d="m 0,0 -10.636,3.526 c -1.172,0.388 -1.807,1.653 -1.418,2.825 0.388,1.171 1.653,1.806 2.825,1.418 L 1.406,4.243 C 2.578,3.855 3.213,2.59 2.825,1.418 2.436,0.247 1.172,-0.388 0,0" />
          </g>
          <g
             transform="translate(612.0496,303.7426)"
             id="g3841">
            <path
               inkscape:connector-curvature="0"
               id="path3843"
               style="fill:#cf6845;fill-opacity:1;fill-rule:nonzero;stroke:none"
               d="m 0,0 -10.636,3.526 c -1.172,0.388 -1.807,1.653 -1.418,2.824 0.388,1.172 1.653,1.807 2.825,1.419 L 1.406,4.243 C 2.578,3.855 3.213,2.59 2.825,1.418 2.436,0.247 1.172,-0.388 0,0" />
          </g>
          <g
             transform="translate(609.0605,294.7253)"
             id="g3845">
            <path
               inkscape:connector-curvature="0"
               id="path3847"
               style="fill:#cf6845;fill-opacity:1;fill-rule:nonzero;stroke:none"
               d="m 0,0 -10.636,3.526 c -1.172,0.388 -1.807,1.653 -1.418,2.824 0.388,1.172 1.653,1.807 2.825,1.419 L 1.406,4.243 C 2.578,3.855 3.213,2.59 2.825,1.418 2.437,0.247 1.172,-0.388 0,0" />
          </g>
          <g
             transform="translate(606.0714,285.7079)"
             id="g3849">
            <path
               inkscape:connector-curvature="0"
               id="path3851"
               style="fill:#cf6845;fill-opacity:1;fill-rule:nonzero;stroke:none"
               d="m 0,0 -10.636,3.526 c -1.172,0.388 -1.807,1.653 -1.418,2.824 0.388,1.172 1.653,1.807 2.825,1.419 L 1.407,4.243 C 2.578,3.855 3.213,2.59 2.825,1.418 2.437,0.247 1.172,-0.388 0,0" />
          </g>
          <g
             transform="translate(656.0273,285.0341)"
             id="g3853">
            <path
               inkscape:connector-curvature="0"
               id="path3855"
               style="fill:#cf6845;fill-opacity:1;fill-rule:nonzero;stroke:none"
               d="M 0,0 C -0.004,-0.003 -0.009,-0.005 -0.013,-0.008 -0.001,-0.028 0.008,-0.039 0,0" />
          </g>
          <g
             transform="translate(646.05,334.8148)"
             id="g3857">
            <path
               inkscape:connector-curvature="0"
               id="path3859"
               style="fill:#cf6845;fill-opacity:1;fill-rule:nonzero;stroke:none"
               d="M 0,0 C -0.008,0.039 -0.012,0.025 -0.015,0.003 -0.01,0.001 -0.005,0.001 0,0" />
          </g>
          <g
             transform="translate(634.14,330.2929)"
             id="g3861">
            <path
               inkscape:connector-curvature="0"
               id="path3863"
               style="fill:#ffe7de;fill-opacity:1;fill-rule:nonzero;stroke:none"
               d="m 0,0 c -2.759,-3.558 -3.698,-8.261 -3.487,-12.759 0.142,-3.037 0.764,-6.017 1.539,-8.964 0.404,-1.533 0.715,-3.089 0.934,-4.659 0.42,-3.018 0.994,-6.007 2.034,-8.865 1.539,-4.231 4.217,-8.209 8.135,-10.429 3.912,-2.218 9.167,-2.348 12.72,0.409 -0.021,0.035 -0.053,0.105 -0.039,0.036 l -2.594,12.941 c -2.27,0.718 -4.354,0.49 -6.603,-0.29 -1.907,3.26 -3.204,6.865 -3.861,10.584 -0.827,3.685 -1.019,7.511 -0.516,11.254 2.376,0.148 4.387,0.74 6.205,2.277 L 11.873,4.476 C 11.887,4.407 11.89,4.484 11.895,4.524 7.555,5.699 2.756,3.554 0,0" />
          </g>
          <g
             transform="translate(303.9847,682.3682)"
             id="g3865">
            <path
               inkscape:connector-curvature="0"
               id="path3867"
               style="fill:#ebab48;fill-opacity:1;fill-rule:nonzero;stroke:none"
               d="m 0,0 22.281,37.047 -2.052,4.344 -65.048,-30.73 2.051,-4.343 z" />
          </g>
          <g
             transform="translate(305.3391,679.5013)"
             id="g3869">
            <path
               inkscape:connector-curvature="0"
               id="path3871"
               style="fill:#ebab48;fill-opacity:1;fill-rule:nonzero;stroke:none"
               d="M 0,0 -42.768,6.318 -24.99,-31.314 40.059,-0.585 22.281,37.047 Z" />
          </g>
        </g>
      </g>
      <g
         id="g3873">
        <g
           clip-path="url(#clipPath3879)"
           id="g3875">
          <path
             inkscape:connector-curvature="0"
             id="path3881"
             style="fill:#f2d29d;fill-opacity:1;fill-rule:nonzero;stroke:none"
             d="m 448.709,347.353 h -98.525 v 113.251 h 98.525 z" />
          <g
             transform="translate(350.1841,397.5588)"
             id="g3883">
            <path
               inkscape:connector-curvature="0"
               id="path3885"
               style="fill:#e3c593;fill-opacity:1;fill-rule:nonzero;stroke:none"
               d="m 0,0 c 3.026,-3.21 6.491,-6.051 10.36,-8.402 l 27.823,-16.905 c 15.876,-9.646 35.802,-9.646 51.678,0 l 8.664,5.265 V 63.045 H 0 Z" />
          </g>
          <g
             transform="translate(337.2338,447.0779)"
             id="g3887">
            <path
               inkscape:connector-curvature="0"
               id="path3889"
               style="fill:#edcd99;fill-opacity:1;fill-rule:nonzero;stroke:none"
               d="m 0,0 c -9.119,3.203 -13.919,13.448 -17.76,22.73 -3.54,8.554 -7.127,17.302 -7.854,26.601 -0.328,4.187 0.166,8.933 3.227,11.627 2.381,2.094 5.825,2.405 8.833,1.603 3.007,-0.802 5.687,-2.572 8.311,-4.315 C 11.117,47.376 8.106,18.499 0,0" />
          </g>
          <g
             transform="translate(466.2388,448.8601)"
             id="g3891">
            <path
               inkscape:connector-curvature="0"
               id="path3893"
               style="fill:#edcd99;fill-opacity:1;fill-rule:nonzero;stroke:none"
               d="m 0,0 c 9.119,3.204 13.92,13.448 17.76,22.73 3.54,8.554 7.127,17.302 7.854,26.601 0.328,4.187 -0.166,8.933 -3.227,11.627 -2.381,2.095 -5.825,2.405 -8.833,1.603 C 10.547,61.759 7.867,59.989 5.243,58.246 -11.117,47.376 -8.106,18.499 0,0" />
          </g>
          <g
             transform="translate(452.4576,405.0934)"
             id="g3895">
            <path
               inkscape:connector-curvature="0"
               id="path3897"
               style="fill:#ffdca4;fill-opacity:1;fill-rule:nonzero;stroke:none"
               d="m 0,0 -26.413,-16.905 c -15.072,-9.646 -33.989,-9.646 -49.06,0 L -101.887,0 c -14.101,9.025 -22.71,25.146 -22.71,42.527 V 147.093 H 22.71 V 42.527 C 22.71,25.146 14.101,9.025 0,0" />
          </g>
          <g
             transform="translate(473.2411,471.3807)"
             id="g3899">
            <path
               inkscape:connector-curvature="0"
               id="path3901"
               style="fill:#5e523d;fill-opacity:1;fill-rule:nonzero;stroke:none"
               d="m 0,0 c -0.582,11.869 -3.769,24.349 -6.697,35.827 -41.208,1.871 -80.761,14.805 -116.051,37.296 -0.245,-16.324 -4.053,-32.577 -11.046,-47.147 -4.257,-8.869 -9.856,-17.984 -8.717,-27.849 -4.058,9.047 -7.408,17.317 -11.466,26.364 -4.784,10.665 -9.601,21.427 -12.173,32.907 -2.572,11.481 -2.762,23.886 1.57,34.763 5.083,12.764 16.486,22.51 29.391,25.119 8.588,15.424 24.148,27.084 40.516,31.827 16.368,4.742 33.702,4.393 50.558,2.276 20.288,-2.548 42.069,-8.799 54.052,-26.23 C 18.356,112.904 20.477,97.058 20.389,81.936 20.221,53.287 13.48,24.884 0,0" />
          </g>
          <g
             transform="translate(399.4467,354.8189)"
             id="g3903">
            <path
               inkscape:connector-curvature="0"
               id="path3905"
               style="fill:#d6d6d6;fill-opacity:1;fill-rule:nonzero;stroke:none"
               d="M 0,0 -49.196,26.135 -63.353,13.068 -102.851,-3.86 c -23.381,-10.021 -41.415,-29.486 -49.622,-53.563 l -7.937,-58.006 H 0 Z" />
          </g>
          <g
             transform="translate(399.4467,354.8189)"
             id="g3907">
            <path
               inkscape:connector-curvature="0"
               id="path3909"
               style="fill:#d6d6d6;fill-opacity:1;fill-rule:nonzero;stroke:none"
               d="M 0,0 49.196,26.135 63.353,13.068 102.851,-3.86 c 23.381,-10.021 41.415,-29.486 49.622,-53.563 l 7.937,-58.006 H 0 Z" />
          </g>
          <g
             transform="translate(399.4467,344.2335)"
             id="g3911">
            <path
               inkscape:connector-curvature="0"
               id="path3913"
               style="fill:#e0724a;fill-opacity:1;fill-rule:nonzero;stroke:none"
               d="m 0,0 -24.227,-90.741 4.823,-14.103 h 38.808 l 4.878,14.264 z" />
          </g>
          <g
             transform="translate(390.7875,323.2993)"
             id="g3915">
            <path
               inkscape:connector-curvature="0"
               id="path3917"
               style="fill:#ff8154;fill-opacity:1;fill-rule:nonzero;stroke:none"
               d="m 0,0 -7.181,12.438 c -3.849,6.666 0.962,14.998 8.659,14.998 H 15.84 c 7.697,0 12.508,-8.332 8.66,-14.998 L 17.319,0 C 13.47,-6.666 3.849,-6.666 0,0" />
          </g>
          <g
             transform="translate(462.7995,367.8864)"
             id="g3919">
            <path
               inkscape:connector-curvature="0"
               id="path3921"
               style="fill:#f0f0f0;fill-opacity:1;fill-rule:nonzero;stroke:none"
               d="m 0,0 16.033,-6.871 -34.545,-69.356 -44.841,63.159 49.197,26.136 z" />
          </g>
          <g
             transform="translate(559.8568,239.3898)"
             id="g3923">
            <path
               inkscape:connector-curvature="0"
               id="path3925"
               style="fill:#4b5669;fill-opacity:1;fill-rule:nonzero;stroke:none"
               d="m 0,0 h -141.007 l 43.95,128.497 39.498,-16.928 c 23.381,-10.02 41.415,-29.486 49.622,-53.563 z" />
          </g>
          <g
             transform="translate(500.2991,351.8152)"
             id="g3927">
            <path
               inkscape:connector-curvature="0"
               id="path3929"
               style="fill:#616f87;fill-opacity:1;fill-rule:nonzero;stroke:none"
               d="m 0,0 c -17.54,-16.997 -34.233,-32.932 -34.233,-32.932 l 15.246,-15.245 -43.053,-64.248 H -81.449 L -37.5,16.071 Z" />
          </g>
          <g
             transform="translate(336.094,367.8864)"
             id="g3931">
            <path
               inkscape:connector-curvature="0"
               id="path3933"
               style="fill:#f0f0f0;fill-opacity:1;fill-rule:nonzero;stroke:none"
               d="M 0,0 -16.033,-6.871 18.512,-76.227 63.353,-13.068 14.156,13.068 Z" />
          </g>
          <g
             transform="translate(239.0368,239.3898)"
             id="g3935">
            <path
               inkscape:connector-curvature="0"
               id="path3937"
               style="fill:#4b5669;fill-opacity:1;fill-rule:nonzero;stroke:none"
               d="M 0,0 H 141.006 L 97.057,128.497 57.559,111.569 C 34.178,101.549 16.144,82.083 7.936,58.006 Z" />
          </g>
          <g
             transform="translate(298.5944,351.8152)"
             id="g3939">
            <path
               inkscape:connector-curvature="0"
               id="path3941"
               style="fill:#616f87;fill-opacity:1;fill-rule:nonzero;stroke:none"
               d="M 0,0 C 17.54,-16.997 34.233,-32.932 34.233,-32.932 L 18.987,-48.177 62.04,-112.425 H 81.449 L 37.5,16.071 Z" />
          </g>
          <g
             transform="translate(316.5609,448.86)"
             id="g3943">
            <path
               inkscape:connector-curvature="0"
               id="path3945"
               style="fill:#bf613f;fill-opacity:1;fill-rule:nonzero;stroke:none"
               d="m 0,0 h -10.889 v 64.09 c 0,52.848 42.994,95.843 95.842,95.843 52.849,0 95.843,-42.995 95.843,-95.843 V 2.588 H 169.907 V 64.09 c 0,46.843 -38.11,84.953 -84.954,84.953 C 38.11,149.043 0,110.933 0,64.09 Z" />
          </g>
          <g
             transform="translate(311.433,447.5338)"
             id="g3947">
            <path
               inkscape:connector-curvature="0"
               id="path3949"
               style="fill:#ff8154;fill-opacity:1;fill-rule:nonzero;stroke:none"
               d="m 0,0 v 0 c -10.919,0 -19.77,8.851 -19.77,19.77 v 26.08 c 0,10.919 8.851,19.77 19.77,19.77 v 0 z" />
          </g>
          <g
             transform="translate(315.9211,442.2881)"
             id="g3951">
            <path
               inkscape:connector-curvature="0"
               id="path3953"
               style="fill:#bf613f;fill-opacity:1;fill-rule:nonzero;stroke:none"
               d="m 0,0 h 7.008 c 2.479,0 4.488,2.009 4.488,4.488 v 67.135 c 0,2.479 -2.009,4.489 -4.488,4.489 H 0 c -2.479,0 -4.488,-2.01 -4.488,-4.489 V 4.488 C -4.488,2.009 -2.479,0 0,0" />
          </g>
          <g
             transform="translate(411.786,393.5072)"
             id="g3955">
            <path
               inkscape:connector-curvature="0"
               id="path3957"
               style="fill:#bf613f;fill-opacity:1;fill-rule:nonzero;stroke:none"
               d="m 0,0 c -2.336,0 -4.495,1.515 -5.209,3.866 -0.872,2.878 0.753,5.918 3.631,6.791 l 19.625,5.95 c 27.968,8.479 49.875,30.193 58.603,58.082 0.898,2.869 3.952,4.473 6.822,3.57 2.87,-0.897 4.469,-3.952 3.57,-6.822 C 77.237,40.104 52.626,15.711 21.207,6.185 L 1.582,0.235 C 1.055,0.076 0.523,0 0,0" />
          </g>
          <g
             transform="translate(491.7394,513.1541)"
             id="g3959">
            <path
               inkscape:connector-curvature="0"
               id="path3961"
               style="fill:#ff8154;fill-opacity:1;fill-rule:nonzero;stroke:none"
               d="M 0,0 V 0 C 10.919,0 19.77,-8.851 19.77,-19.77 V -45.85 C 19.77,-56.769 10.919,-65.62 0,-65.62 v 0 z" />
          </g>
          <g
             transform="translate(487.2513,518.3998)"
             id="g3963">
            <path
               inkscape:connector-curvature="0"
               id="path3965"
               style="fill:#bf613f;fill-opacity:1;fill-rule:nonzero;stroke:none"
               d="m 0,0 h -7.008 c -2.479,0 -4.488,-2.01 -4.488,-4.488 v -67.136 c 0,-2.478 2.009,-4.488 4.488,-4.488 H 0 c 2.479,0 4.488,2.01 4.488,4.488 V -4.488 C 4.488,-2.01 2.479,0 0,0" />
          </g>
          <g
             id="g3967">
            <g
               id="g3969" />
            <g
               id="g3981">
              <g
                 style="opacity:0.07000732"
                 id="g3979"
                 clip-path="url(#clipPath3973)">
                <g
                   id="g3977"
                   transform="translate(475.1678,447.6202)">
                  <path
                     inkscape:connector-curvature="0"
                     id="path3975"
                     style="fill:#000000;fill-opacity:1;fill-rule:nonzero;stroke:none"
                     d="m 0,0 v 7.781 c 0.198,0.238 0.395,0.478 0.587,0.724 v -9.349 c 0,-0.998 0.33,-1.917 0.881,-2.662 C 0.877,-4.355 0.269,-5.189 -0.351,-6.016 -0.122,-4.033 0,-2.026 0,0 m 27.13,-96.662 -1.998,0.857 -37.5,16.071 -14.09,13.007 v 21.801 l 3.748,2.399 c 4.407,2.821 8.278,6.335 11.517,10.364 9.785,7.389 18.141,16.546 24.608,27.032 1.829,0.567 3.157,2.272 3.157,4.287 v 0.758 0 c 10.919,0 19.77,8.851 19.77,19.77 v 26.08 c 0,8.966 -5.971,16.534 -14.152,18.955 v 0.611 c 0,9.787 -1.478,19.235 -4.217,28.136 0.292,4.066 0.465,8.145 0.489,12.23 0.089,15.122 -2.032,30.969 -10.452,43.217 -11.983,17.432 -33.764,23.683 -54.051,26.231 -9.827,1.234 -19.815,1.857 -29.68,1.231 V -208.23 h 19.404 19.408 121.598 l -7.937,58.006 c -8.207,24.076 -26.241,43.542 -49.622,53.562" />
                </g>
              </g>
            </g>
          </g>
        </g>
      </g>
      <g
         id="g3983">
        <g
           clip-path="url(#clipPath3989)"
           id="g3985">
          <g
             transform="translate(657.0983,522.0679)"
             id="g3991">
            <path
               inkscape:connector-curvature="0"
               id="path3993"
               style="fill:#ebebeb;fill-opacity:1;fill-rule:nonzero;stroke:none"
               d="m 0,0 c -6.347,-26.24 -32.765,-42.367 -59.005,-36.019 -26.241,6.347 -42.367,32.765 -36.019,59.005 6.347,26.241 32.765,42.367 59.005,36.019 C -9.779,52.658 6.347,26.24 0,0" />
          </g>
          <g
             transform="translate(649.2393,523.9689)"
             id="g3995">
            <path
               inkscape:connector-curvature="0"
               id="path3997"
               style="fill:#ffffff;fill-opacity:1;fill-rule:nonzero;stroke:none"
               d="m 0,0 c -5.298,-21.9 -27.345,-35.359 -49.245,-30.061 -21.9,5.297 -35.359,27.345 -30.061,49.245 5.297,21.9 27.345,35.359 49.245,30.061 C -8.161,43.948 5.298,21.9 0,0" />
          </g>
          <g
             transform="translate(578.4321,541.097)"
             id="g3999">
            <path
               inkscape:connector-curvature="0"
               id="path4001"
               style="fill:#999999;fill-opacity:1;fill-rule:nonzero;stroke:none"
               d="M 0,0 C 0.011,0.045 0.025,0.089 0.036,0.134 L -5.183,1.396 C -5.194,1.351 -5.208,1.308 -5.219,1.263 -5.542,-0.073 -5.784,-1.408 -5.958,-2.74 l 5.26,-1.273 C -0.548,-2.678 -0.324,-1.339 0,0" />
          </g>
          <g
             transform="translate(640.7401,526.0248)"
             id="g4003">
            <path
               inkscape:connector-curvature="0"
               id="path4005"
               style="fill:#999999;fill-opacity:1;fill-rule:nonzero;stroke:none"
               d="M 0,0 C -0.324,-1.339 -0.737,-2.633 -1.214,-3.888 L 4.047,-5.16 c 0.454,1.264 0.849,2.562 1.172,3.897 0.011,0.046 0.019,0.091 0.029,0.136 L 0.029,0.135 C 0.018,0.09 0.011,0.045 0,0" />
          </g>
          <g
             transform="translate(616.2009,570.3887)"
             id="g4007">
            <path
               inkscape:connector-curvature="0"
               id="path4009"
               style="fill:#999999;fill-opacity:1;fill-rule:nonzero;stroke:none"
               d="M 0,0 -1.266,-5.233 C -0.537,-5.357 0.192,-5.497 0.921,-5.674 1.566,-5.83 2.198,-6.01 2.823,-6.202 l 1.266,5.233 C 3.462,-0.783 2.827,-0.61 2.184,-0.455 1.456,-0.278 0.728,-0.131 0,0" />
          </g>
          <g
             transform="translate(602.7173,496.7747)"
             id="g4011">
            <path
               inkscape:connector-curvature="0"
               id="path4013"
               style="fill:#999999;fill-opacity:1;fill-rule:nonzero;stroke:none"
               d="M 0,0 1.266,5.233 C 0.622,5.348 -0.023,5.476 -0.667,5.632 -1.397,5.809 -2.109,6.017 -2.814,6.24 L -4.08,1.007 C -3.373,0.791 -2.658,0.589 -1.93,0.413 -1.287,0.257 -0.643,0.121 0,0" />
          </g>
        </g>
      </g>
      <text
         id="text4017"
         style="font-variant:normal;font-weight:500;font-stretch:normal;font-size:26.36715698px;font-family:'Roboto Lt';-inkscape-font-specification:Roboto-Medium;writing-mode:lr-tb;fill:#999999;fill-opacity:1;fill-rule:nonzero;stroke:none"
         transform="matrix(0.97196677,-0.23511826,-0.23511826,-0.97196677,581.8586,531.6224)">
        <tspan
           id="tspan4015"
           sodipodi:role="line"
           y="0"
           x="0 14.976545 29.953091 40.763622">24/7</tspan>
      </text>
      <text
         id="text4021"
         style="font-variant:normal;font-weight:500;font-stretch:normal;font-size:7.90128946px;font-family:'Roboto Lt';-inkscape-font-specification:Roboto-Medium;writing-mode:lr-tb;fill:#999999;fill-opacity:1;fill-rule:nonzero;stroke:none"
         transform="matrix(0.97196792,-0.23511352,-0.23511352,-0.97196792,582.2212,522.1063)">
        <tspan
           id="tspan4019"
           sodipodi:role="line"
           y="0"
           x="0 5.5704093 10.042539 14.514669 17.288021 32.96418 38.258045 42.497875 46.50383">HoursDays</tspan>
      </text>
      <g
         id="g4023">
        <g
           clip-path="url(#clipPath4029)"
           id="g4025">
          <g
             transform="translate(220.4473,158.7966)"
             id="g4031">
            <path
               inkscape:connector-curvature="0"
               id="path4033"
               style="fill:#ebab48;fill-opacity:1;fill-rule:nonzero;stroke:none"
               d="m 0,0 c -0.328,-2.464 -1.061,-4.934 -2.199,-7.41 -0.543,-1.332 -0.748,-2.441 -0.612,-3.328 0.135,-0.886 0.571,-2.067 1.309,-3.544 l -6.186,-3.089 c -1.195,2.435 -1.782,4.31 -1.759,5.625 0.021,1.315 0.572,3.227 1.651,5.738 0.679,1.95 1.115,3.71 1.306,5.28 0.192,1.568 -0.068,3.066 -0.78,4.492 -0.822,1.646 -1.905,2.7 -3.25,3.163 -1.344,0.463 -2.839,0.283 -4.485,-0.538 -1.409,-0.704 -2.412,-1.687 -3.011,-2.95 -0.598,-1.265 -0.521,-2.651 0.233,-4.162 l -5.955,-2.974 -0.154,0.115 c -1.558,2.995 -1.721,5.855 -0.485,8.582 1.235,2.727 3.499,4.912 6.792,6.556 3.564,1.78 6.795,2.259 9.696,1.44 2.901,-0.821 5.157,-2.843 6.766,-6.067 C -0.046,4.774 0.328,2.464 0,0 m 3.837,-24.718 -6.313,-3.153 -2.962,5.931 6.313,3.153 z m -22.992,46.706 c -23.594,-10.05 -36.911,-31.835 -29.744,-48.659 4.224,-9.917 14.623,-15.895 27.282,-17.075 l -0.302,-13.247 11.392,13.406 c 5.667,0.657 11.536,2.185 17.324,4.65 23.593,10.05 36.91,31.836 29.744,48.66 -7.167,16.824 -32.103,22.315 -55.696,12.265" />
          </g>
          <g
             transform="translate(422.8372,723.4149)"
             id="g4035">
            <path
               inkscape:connector-curvature="0"
               id="path4037"
               style="fill:#ebab48;fill-opacity:1;fill-rule:nonzero;stroke:none"
               d="m 0,0 v 0 c -9.306,-16.119 -32.572,-16.119 -41.878,0 v 0 c -9.306,16.119 2.327,36.267 20.939,36.267 v 0 C -2.327,36.267 9.306,16.119 0,0 m -20.939,44.758 v 0 c -25.149,0 -40.867,-27.224 -28.292,-49.004 L -20.939,-53.25 7.354,-4.246 C 19.928,17.534 4.21,44.758 -20.939,44.758" />
          </g>
          <g
             transform="translate(649.0897,184.6711)"
             id="g4039">
            <path
               inkscape:connector-curvature="0"
               id="path4041"
               style="fill:#ebab48;fill-opacity:1;fill-rule:nonzero;stroke:none"
               d="M 0,0 C 0.006,-0.003 0.01,-0.008 0.016,-0.012 0.034,0.013 0.044,0.029 0,0" />
          </g>
          <g
             transform="translate(593.3297,147.6382)"
             id="g4043">
            <path
               inkscape:connector-curvature="0"
               id="path4045"
               style="fill:#ebab48;fill-opacity:1;fill-rule:nonzero;stroke:none"
               d="M 0,0 C -0.044,-0.029 -0.025,-0.027 0.004,-0.019 0.003,-0.013 0.001,-0.007 0,0" />
          </g>
          <g
             transform="translate(604.7946,135.3634)"
             id="g4047">
            <path
               inkscape:connector-curvature="0"
               id="path4049"
               style="fill:#ebab48;fill-opacity:1;fill-rule:nonzero;stroke:none"
               d="m 0,0 c 5.72,-1.59 11.927,-0.387 17.31,2.116 3.635,1.69 6.96,3.938 10.169,6.355 1.669,1.258 3.412,2.415 5.218,3.466 3.473,2.02 6.834,4.213 9.802,6.908 4.394,3.991 7.91,9.246 8.664,15.134 0.752,5.882 -1.714,12.359 -6.852,15.317 C 44.279,49.254 44.21,49.179 44.287,49.23 L 29.791,39.603 c 0.258,-3.128 1.577,-5.556 3.651,-7.912 C 30.417,27.737 26.666,24.354 22.456,21.695 18.373,18.846 13.8,16.7 8.982,15.445 7.615,18.271 5.888,20.429 3.105,21.88 l -14.496,-9.627 c 0.077,0.051 -0.018,0.015 -0.07,0.002 C -10.726,6.372 -5.713,1.588 0,0" />
          </g>
          <g
             transform="translate(644.7819,190.5235)"
             id="g4051">
            <path
               inkscape:connector-curvature="0"
               id="path4053"
               style="fill:#ebab48;fill-opacity:1;fill-rule:nonzero;stroke:none"
               d="m 0,0 c -1.198,-0.828 -2.841,-0.527 -3.668,0.671 -9.626,13.935 -28.795,17.44 -42.729,7.815 -13.935,-9.626 -17.44,-28.794 -7.814,-42.729 0.828,-1.198 0.527,-2.84 -0.671,-3.668 -1.198,-0.828 -2.84,-0.527 -3.668,0.671 -11.279,16.327 -7.171,38.786 9.155,50.065 16.328,11.279 38.787,7.171 50.066,-9.157 C 1.499,2.47 1.198,0.828 0,0" />
          </g>
          <g
             transform="translate(636.1036,184.5287)"
             id="g4055">
            <path
               inkscape:connector-curvature="0"
               id="path4057"
               style="fill:#ebab48;fill-opacity:1;fill-rule:nonzero;stroke:none"
               d="m 0,0 c -1.198,-0.828 -2.841,-0.527 -3.668,0.671 -6.321,9.149 -18.907,11.451 -28.056,5.131 -9.15,-6.32 -11.451,-18.906 -5.13,-28.055 0.827,-1.199 0.527,-2.841 -0.671,-3.669 -1.199,-0.827 -2.841,-0.527 -3.669,0.671 -7.973,11.543 -5.069,27.419 6.472,35.392 11.543,7.974 27.42,5.07 35.393,-6.473 C 1.498,2.47 1.198,0.828 0,0" />
          </g>
          <g
             transform="translate(628.5103,179.2834)"
             id="g4059">
            <path
               inkscape:connector-curvature="0"
               id="path4061"
               style="fill:#ebab48;fill-opacity:1;fill-rule:nonzero;stroke:none"
               d="m 0,0 c -1.198,-0.828 -2.841,-0.527 -3.668,0.671 -3.429,4.963 -10.255,6.211 -15.218,2.783 -4.962,-3.428 -6.21,-10.254 -2.782,-15.217 0.828,-1.198 0.528,-2.84 -0.671,-3.668 -1.198,-0.828 -2.84,-0.527 -3.668,0.671 -5.081,7.355 -3.231,17.472 4.124,22.553 7.355,5.081 17.473,3.23 22.554,-4.125 C 1.498,2.47 1.198,0.828 0,0" />
          </g>
          <g
             transform="translate(249.0588,630.2668)"
             id="g4063">
            <path
               inkscape:connector-curvature="0"
               id="path4065"
               style="fill:#ebab48;fill-opacity:1;fill-rule:nonzero;stroke:none"
               d="m 0,0 -17.021,36.154 -6.154,-8.859 -22.511,15.639 -10.491,-15.1 22.511,-15.639 -6.154,-8.859 z" />
          </g>
          <g
             transform="translate(151.7294,666.1074)"
             id="g4067">
            <path
               inkscape:connector-curvature="0"
               id="path4069"
               style="fill:#ebab48;fill-opacity:1;fill-rule:nonzero;stroke:none"
               d="m 0,0 39.82,-3.336 -6.154,-8.859 22.511,-15.639 -10.491,-15.1 -22.511,15.639 -6.154,-8.859 z" />
          </g>
        </g>
      </g>
      <text
         id="text4073"
         style="font-variant:normal;font-weight:bold;font-stretch:normal;font-size:64.46949768px;font-family:Roboto;-inkscape-font-specification:Roboto-Bold;writing-mode:lr-tb;fill:#ebab48;fill-opacity:1;fill-rule:nonzero;stroke:none"
         transform="matrix(1,0,0,-1,670.1694,568.0562)">
        <tspan
           id="tspan4071"
           y="0"
           x="0">@</tspan>
      </text>
    </g>
  </g>
</svg>
