<svg xmlns="http://www.w3.org/2000/svg" width="1440" height="900"><path d="M814,546L728,564L834,641Z" fill="#025db1" stroke="#025db1" stroke-width="1.51"/><path d="M814,546L669,515L728,564Z" fill="#025bac" stroke="#025bac" stroke-width="1.51"/><path d="M629,651L775,749L728,564Z" fill="#035db2" stroke="#035db2" stroke-width="1.51"/><path d="M728,564L775,749L834,641Z" fill="#035eb4" stroke="#035eb4" stroke-width="1.51"/><path d="M834,641L922,645L814,546Z" fill="#035fb5" stroke="#035fb5" stroke-width="1.51"/><path d="M843,751L922,645L834,641Z" fill="#0462b9" stroke="#0462b9" stroke-width="1.51"/><path d="M669,515L629,651L728,564Z" fill="#025bac" stroke="#025bac" stroke-width="1.51"/><path d="M775,749L843,751L834,641Z" fill="#0563b9" stroke="#0563b9" stroke-width="1.51"/><path d="M922,645L895,489L814,546Z" fill="#035eb2" stroke="#035eb2" stroke-width="1.51"/><path d="M814,546L811,380L669,515Z" fill="#025aaa" stroke="#025aaa" stroke-width="1.51"/><path d="M775,749L843,802L843,751Z" fill="#0766bd" stroke="#0766bd" stroke-width="1.51"/><path d="M629,651L742,766L775,749Z" fill="#0661b7" stroke="#0661b7" stroke-width="1.51"/><path d="M895,489L811,380L814,546Z" fill="#025bad" stroke="#025bad" stroke-width="1.51"/><path d="M922,645L923,470L895,489Z" fill="#035eb2" stroke="#035eb2" stroke-width="1.51"/><path d="M629,651L690,775L742,766Z" fill="#0661b6" stroke="#0661b6" stroke-width="1.51"/><path d="M742,766L843,802L775,749Z" fill="#0766bc" stroke="#0766bc" stroke-width="1.51"/><path d="M923,470L903,434L895,489Z" fill="#025caf" stroke="#025caf" stroke-width="1.51"/><path d="M782,929L843,802L742,766Z" fill="#0a69c1" stroke="#0a69c1" stroke-width="1.51"/><path d="M967,757L988,665L922,645Z" fill="#0564bd" stroke="#0564bd" stroke-width="1.51"/><path d="M629,651L631,751L690,775Z" fill="#0560b4" stroke="#0560b4" stroke-width="1.51"/><path d="M922,645L988,665L923,470Z" fill="#0360b7" stroke="#0360b7" stroke-width="1.51"/><path d="M967,757L922,645L843,751Z" fill="#0664bd" stroke="#0664bd" stroke-width="1.51"/><path d="M903,434L811,380L895,489Z" fill="#025bac" stroke="#025bac" stroke-width="1.51"/><path d="M669,515L555,572L629,651Z" fill="#025aaa" stroke="#025aaa" stroke-width="1.51"/><path d="M570,721L599,754L631,751Z" fill="#0560b4" stroke="#0560b4" stroke-width="1.51"/><path d="M524,511L555,572L669,515Z" fill="#0258a7" stroke="#0258a7" stroke-width="1.51"/><path d="M811,380L668,397L669,515Z" fill="#0257a6" stroke="#0257a6" stroke-width="1.51"/><path d="M631,751L682,886L690,775Z" fill="#0865bb" stroke="#0865bb" stroke-width="1.51"/><path d="M570,721L631,751L629,651Z" fill="#045fb2" stroke="#045fb2" stroke-width="1.51"/><path d="M843,802L967,757L843,751Z" fill="#0867c0" stroke="#0867c0" stroke-width="1.51"/><path d="M555,572L570,721L629,651Z" fill="#025bad" stroke="#025bad" stroke-width="1.51"/><path d="M668,397L603,420L669,515Z" fill="#0157a4" stroke="#0157a4" stroke-width="1.51"/><path d="M603,420L524,511L669,515Z" fill="#0157a5" stroke="#0157a5" stroke-width="1.51"/><path d="M555,572L480,581L570,721Z" fill="#025aaa" stroke="#025aaa" stroke-width="1.51"/><path d="M923,470L1009,442L903,434Z" fill="#025caf" stroke="#025caf" stroke-width="1.51"/><path d="M903,434L897,280L811,380Z" fill="#0259a8" stroke="#0259a8" stroke-width="1.51"/><path d="M988,665L1009,442L923,470Z" fill="#035eb4" stroke="#035eb4" stroke-width="1.51"/><path d="M690,775L682,886L742,766Z" fill="#0866bc" stroke="#0866bc" stroke-width="1.51"/><path d="M843,802L1001,922L967,757Z" fill="#0a6bc6" stroke="#0a6bc6" stroke-width="1.51"/><path d="M599,754L682,886L631,751Z" fill="#0765b9" stroke="#0765b9" stroke-width="1.51"/><path d="M638,959L682,886L572,936Z" fill="#0c6cc1" stroke="#0c6cc1" stroke-width="1.51"/><path d="M524,511L480,581L555,572Z" fill="#0257a5" stroke="#0257a5" stroke-width="1.51"/><path d="M811,380L752,299L668,397Z" fill="#0156a3" stroke="#0156a3" stroke-width="1.51"/><path d="M668,397L599,326L603,420Z" fill="#0155a0" stroke="#0155a0" stroke-width="1.51"/><path d="M897,280L752,299L811,380Z" fill="#0157a3" stroke="#0157a3" stroke-width="1.51"/><path d="M524,511L509,458L480,581Z" fill="#0156a3" stroke="#0156a3" stroke-width="1.51"/><path d="M603,420L509,458L524,511Z" fill="#0155a2" stroke="#0155a2" stroke-width="1.51"/><path d="M493,368L509,458L603,420Z" fill="#01549f" stroke="#01549f" stroke-width="1.51"/><path d="M682,886L782,929L742,766Z" fill="#0a6ac1" stroke="#0a6ac1" stroke-width="1.51"/><path d="M988,665L1108,604L1009,442Z" fill="#0461b9" stroke="#0461b9" stroke-width="1.51"/><path d="M1111,751L1108,604L988,665Z" fill="#0666c1" stroke="#0666c1" stroke-width="1.51"/><path d="M696,270L599,326L668,397Z" fill="#01549f" stroke="#01549f" stroke-width="1.51"/><path d="M927,271L897,280L903,434Z" fill="#0258a7" stroke="#0258a7" stroke-width="1.51"/><path d="M752,299L696,270L668,397Z" fill="#0155a0" stroke="#0155a0" stroke-width="1.51"/><path d="M746,180L696,270L752,299Z" fill="#01539d" stroke="#01539d" stroke-width="1.51"/><path d="M1009,442L927,271L903,434Z" fill="#025aab" stroke="#025aab" stroke-width="1.51"/><path d="M1115,488L1071,415L1009,442Z" fill="#045fb4" stroke="#045fb4" stroke-width="1.51"/><path d="M1108,604L1115,488L1009,442Z" fill="#0461b8" stroke="#0461b8" stroke-width="1.51"/><path d="M782,929L888,942L843,802Z" fill="#0c6dc7" stroke="#0c6dc7" stroke-width="1.51"/><path d="M967,757L1111,751L988,665Z" fill="#0767c2" stroke="#0767c2" stroke-width="1.51"/><path d="M1072,849L1111,751L967,757Z" fill="#0a6bc7" stroke="#0a6bc7" stroke-width="1.51"/><path d="M1108,604L1176,561L1115,488Z" fill="#0664bc" stroke="#0664bc" stroke-width="1.51"/><path d="M897,280L887,225L752,299Z" fill="#0156a2" stroke="#0156a2" stroke-width="1.51"/><path d="M1071,415L927,271L1009,442Z" fill="#025bad" stroke="#025bad" stroke-width="1.51"/><path d="M319,469L396,607L480,581Z" fill="#0155a0" stroke="#0155a0" stroke-width="1.51"/><path d="M599,326L493,368L603,420Z" fill="#01539d" stroke="#01539d" stroke-width="1.51"/><path d="M424,304L493,368L470,243Z" fill="#005096" stroke="#005096" stroke-width="1.51"/><path d="M1001,922L1072,849L967,757Z" fill="#0b6ec9" stroke="#0b6ec9" stroke-width="1.51"/><path d="M682,886L638,959L782,929Z" fill="#0d6dc4" stroke="#0d6dc4" stroke-width="1.51"/><path d="M782,929L857,993L888,942Z" fill="#0f71cb" stroke="#0f71cb" stroke-width="1.51"/><path d="M572,936L682,886L599,754Z" fill="#0968bc" stroke="#0968bc" stroke-width="1.51"/><path d="M426,790L599,754L570,721Z" fill="#0660b2" stroke="#0660b2" stroke-width="1.51"/><path d="M480,581L419,735L570,721Z" fill="#035bac" stroke="#035bac" stroke-width="1.51"/><path d="M392,404L480,581L509,458Z" fill="#0154a0" stroke="#0154a0" stroke-width="1.51"/><path d="M380,678L419,735L480,581Z" fill="#0259a9" stroke="#0259a9" stroke-width="1.51"/><path d="M888,942L1001,922L843,802Z" fill="#0c6ec9" stroke="#0c6ec9" stroke-width="1.51"/><path d="M927,271L887,225L897,280Z" fill="#0157a3" stroke="#0157a3" stroke-width="1.51"/><path d="M952,157L887,225L927,271Z" fill="#01539f" stroke="#01539f" stroke-width="1.51"/><path d="M494,897L572,936L599,754Z" fill="#0967bb" stroke="#0967bb" stroke-width="1.51"/><path d="M1170,782L1168,691L1111,751Z" fill="#0b6dc9" stroke="#0b6dc9" stroke-width="1.51"/><path d="M1111,751L1168,691L1108,604Z" fill="#0868c4" stroke="#0868c4" stroke-width="1.51"/><path d="M1168,691L1176,561L1108,604Z" fill="#0767c1" stroke="#0767c1" stroke-width="1.51"/><path d="M1115,488L1184,431L1071,415Z" fill="#0561b6" stroke="#0561b6" stroke-width="1.51"/><path d="M888,942L979,1050L1001,922Z" fill="#1074d0" stroke="#1074d0" stroke-width="1.51"/><path d="M795,1001L857,993L782,929Z" fill="#0f72cc" stroke="#0f72cc" stroke-width="1.51"/><path d="M638,959L795,1001L782,929Z" fill="#0e70c8" stroke="#0e70c8" stroke-width="1.51"/><path d="M419,735L426,790L570,721Z" fill="#055fb0" stroke="#055fb0" stroke-width="1.51"/><path d="M381,848L426,790L309,829Z" fill="#075fae" stroke="#075fae" stroke-width="1.51"/><path d="M1001,922L1057,902L1072,849Z" fill="#0e72ce" stroke="#0e72ce" stroke-width="1.51"/><path d="M1072,849L1170,782L1111,751Z" fill="#0c6ecb" stroke="#0c6ecb" stroke-width="1.51"/><path d="M1059,1023L1057,902L1001,922Z" fill="#1074d2" stroke="#1074d2" stroke-width="1.51"/><path d="M396,607L380,678L480,581Z" fill="#0257a6" stroke="#0257a6" stroke-width="1.51"/><path d="M426,790L494,897L599,754Z" fill="#0763b5" stroke="#0763b5" stroke-width="1.51"/><path d="M696,270L594,206L599,326Z" fill="#00529a" stroke="#00529a" stroke-width="1.51"/><path d="M887,225L746,180L752,299Z" fill="#01539d" stroke="#01539d" stroke-width="1.51"/><path d="M1224,810L1170,782L1173,948Z" fill="#1074d2" stroke="#1074d2" stroke-width="1.51"/><path d="M1278,637L1209,503L1176,561Z" fill="#0868c1" stroke="#0868c1" stroke-width="1.51"/><path d="M493,368L392,404L509,458Z" fill="#00539c" stroke="#00539c" stroke-width="1.51"/><path d="M236,573L245,695L380,678Z" fill="#01509a" stroke="#01509a" stroke-width="1.51"/><path d="M424,304L392,404L493,368Z" fill="#005198" stroke="#005198" stroke-width="1.51"/><path d="M746,180L626,193L696,270Z" fill="#014f96" stroke="#014f96" stroke-width="1.51"/><path d="M1071,415L1103,261L927,271Z" fill="#035aab" stroke="#035aab" stroke-width="1.51"/><path d="M1209,503L1184,431L1115,488Z" fill="#0664ba" stroke="#0664ba" stroke-width="1.51"/><path d="M1209,503L1115,488L1176,561Z" fill="#0765bc" stroke="#0765bc" stroke-width="1.51"/><path d="M626,193L594,206L696,270Z" fill="#004f96" stroke="#004f96" stroke-width="1.51"/><path d="M1278,637L1176,561L1168,691Z" fill="#0969c4" stroke="#0969c4" stroke-width="1.51"/><path d="M494,897L503,961L572,936Z" fill="#0b6abe" stroke="#0b6abe" stroke-width="1.51"/><path d="M572,936L564,1044L638,959Z" fill="#0e6ec3" stroke="#0e6ec3" stroke-width="1.51"/><path d="M709,1092L810,1069L795,1001Z" fill="#1175cf" stroke="#1175cf" stroke-width="1.51"/><path d="M352,943L503,961L494,897Z" fill="#0b69bb" stroke="#0b69bb" stroke-width="1.51"/><path d="M470,243L493,368L599,326Z" fill="#015199" stroke="#015199" stroke-width="1.51"/><path d="M857,993L904,1064L888,942Z" fill="#1074d0" stroke="#1074d0" stroke-width="1.51"/><path d="M795,1001L810,1069L857,993Z" fill="#1075cf" stroke="#1075cf" stroke-width="1.51"/><path d="M709,1092L795,1001L638,959Z" fill="#1072cb" stroke="#1072cb" stroke-width="1.51"/><path d="M426,790L381,848L494,897Z" fill="#0864b5" stroke="#0864b5" stroke-width="1.51"/><path d="M309,829L426,790L419,735Z" fill="#065ead" stroke="#065ead" stroke-width="1.51"/><path d="M1159,270L1103,261L1071,415Z" fill="#045daf" stroke="#045daf" stroke-width="1.51"/><path d="M901,58L736,134L746,180Z" fill="#01498d" stroke="#01498d" stroke-width="1.51"/><path d="M746,180L713,124L626,193Z" fill="#014b8f" stroke="#014b8f" stroke-width="1.51"/><path d="M626,193L575,95L594,206Z" fill="#00498c" stroke="#00498c" stroke-width="1.51"/><path d="M901,58L746,180L887,225Z" fill="#014d93" stroke="#014d93" stroke-width="1.51"/><path d="M594,206L470,243L599,326Z" fill="#005197" stroke="#005197" stroke-width="1.51"/><path d="M383,228L470,243L414,138Z" fill="#004a8b" stroke="#004a8b" stroke-width="1.51"/><path d="M1069,177L952,157L927,271Z" fill="#02539f" stroke="#02539f" stroke-width="1.51"/><path d="M810,1069L904,1064L857,993Z" fill="#1176d2" stroke="#1176d2" stroke-width="1.51"/><path d="M277,328L319,469L392,404Z" fill="#004c91" stroke="#004c91" stroke-width="1.51"/><path d="M392,404L319,469L480,581Z" fill="#01529c" stroke="#01529c" stroke-width="1.51"/><path d="M380,678L309,829L419,735Z" fill="#055ba9" stroke="#055ba9" stroke-width="1.51"/><path d="M736,134L713,124L746,180Z" fill="#014a8e" stroke="#014a8e" stroke-width="1.51"/><path d="M748,-30L713,124L736,134Z" fill="#014384" stroke="#014384" stroke-width="1.51"/><path d="M1170,782L1224,810L1168,691Z" fill="#0d70cc" stroke="#0d70cc" stroke-width="1.51"/><path d="M1173,948L1170,782L1072,849Z" fill="#0f73d1" stroke="#0f73d1" stroke-width="1.51"/><path d="M1173,948L1072,849L1057,902Z" fill="#1074d1" stroke="#1074d1" stroke-width="1.51"/><path d="M904,1064L979,1050L888,942Z" fill="#1177d3" stroke="#1177d3" stroke-width="1.51"/><path d="M503,961L564,1044L572,936Z" fill="#0d6dc2" stroke="#0d6dc2" stroke-width="1.51"/><path d="M455,1074L564,1044L503,961Z" fill="#0e6fc4" stroke="#0e6fc4" stroke-width="1.51"/><path d="M564,1044L709,1092L638,959Z" fill="#0f72c9" stroke="#0f72c9" stroke-width="1.51"/><path d="M810,1069L923,1086L904,1064Z" fill="#1278d4" stroke="#1278d4" stroke-width="1.51"/><path d="M1310,672L1278,637L1168,691Z" fill="#0b6cc8" stroke="#0b6cc8" stroke-width="1.51"/><path d="M1253,343L1159,270L1184,431Z" fill="#0661b4" stroke="#0661b4" stroke-width="1.51"/><path d="M1184,431L1159,270L1071,415Z" fill="#0560b3" stroke="#0560b3" stroke-width="1.51"/><path d="M1103,261L1069,177L927,271Z" fill="#0258a6" stroke="#0258a6" stroke-width="1.51"/><path d="M1282,425L1184,431L1209,503Z" fill="#0765bb" stroke="#0765bb" stroke-width="1.51"/><path d="M904,1064L923,1086L979,1050Z" fill="#1279d6" stroke="#1279d6" stroke-width="1.51"/><path d="M709,1092L923,1086L810,1069Z" fill="#1176d1" stroke="#1176d1" stroke-width="1.51"/><path d="M979,1050L1059,1023L1001,922Z" fill="#1177d4" stroke="#1177d4" stroke-width="1.51"/><path d="M1100,1079L1059,1023L979,1050Z" fill="#137bd9" stroke="#137bd9" stroke-width="1.51"/><path d="M424,304L378,285L392,404Z" fill="#004f94" stroke="#004f94" stroke-width="1.51"/><path d="M383,228L378,285L424,304Z" fill="#004d91" stroke="#004d91" stroke-width="1.51"/><path d="M383,228L424,304L470,243Z" fill="#004f93" stroke="#004f93" stroke-width="1.51"/><path d="M1153,166L1069,177L1103,261Z" fill="#0357a4" stroke="#0357a4" stroke-width="1.51"/><path d="M1069,177L971,121L952,157Z" fill="#014f98" stroke="#014f98" stroke-width="1.51"/><path d="M952,157L901,58L887,225Z" fill="#014d94" stroke="#014d94" stroke-width="1.51"/><path d="M1159,998L1173,948L1057,902Z" fill="#1278d6" stroke="#1278d6" stroke-width="1.51"/><path d="M381,848L352,943L494,897Z" fill="#0965b7" stroke="#0965b7" stroke-width="1.51"/><path d="M245,695L309,829L380,678Z" fill="#0456a2" stroke="#0456a2" stroke-width="1.51"/><path d="M1305,476L1282,425L1209,503Z" fill="#0967be" stroke="#0967be" stroke-width="1.51"/><path d="M1278,637L1305,476L1209,503Z" fill="#0969c2" stroke="#0969c2" stroke-width="1.51"/><path d="M1224,810L1310,672L1168,691Z" fill="#0d6fcb" stroke="#0d6fcb" stroke-width="1.51"/><path d="M1338,689L1310,672L1224,810Z" fill="#0e71ce" stroke="#0e71ce" stroke-width="1.51"/><path d="M1282,425L1253,343L1184,431Z" fill="#0765b9" stroke="#0765b9" stroke-width="1.51"/><path d="M1153,166L1098,130L1069,177Z" fill="#03539e" stroke="#03539e" stroke-width="1.51"/><path d="M1365,489L1305,476L1278,637Z" fill="#0a6bc4" stroke="#0a6bc4" stroke-width="1.51"/><path d="M1282,425L1371,366L1253,343Z" fill="#0966bb" stroke="#0966bb" stroke-width="1.51"/><path d="M564,1044L607,1113L709,1092Z" fill="#1073ca" stroke="#1073ca" stroke-width="1.51"/><path d="M709,1092L607,1113L923,1086Z" fill="#1175ce" stroke="#1175ce" stroke-width="1.51"/><path d="M455,1074L607,1113L564,1044Z" fill="#1071c7" stroke="#1071c7" stroke-width="1.51"/><path d="M319,469L242,544L396,607Z" fill="#014f98" stroke="#014f98" stroke-width="1.51"/><path d="M174,500L242,544L319,469Z" fill="#014a8e" stroke="#014a8e" stroke-width="1.51"/><path d="M236,573L380,678L396,607Z" fill="#02529e" stroke="#02529e" stroke-width="1.51"/><path d="M242,544L236,573L396,607Z" fill="#014f97" stroke="#014f97" stroke-width="1.51"/><path d="M378,285L277,328L392,404Z" fill="#004c90" stroke="#004c90" stroke-width="1.51"/><path d="M575,95L470,243L594,206Z" fill="#004a8d" stroke="#004a8d" stroke-width="1.51"/><path d="M1059,1023L1159,998L1057,902Z" fill="#1278d6" stroke="#1278d6" stroke-width="1.51"/><path d="M1415,754L1338,689L1224,810Z" fill="#1074d2" stroke="#1074d2" stroke-width="1.51"/><path d="M1100,1079L1159,998L1059,1023Z" fill="#147cdb" stroke="#147cdb" stroke-width="1.51"/><path d="M309,829L352,943L381,848Z" fill="#0860af" stroke="#0860af" stroke-width="1.51"/><path d="M238,912L352,943L309,829Z" fill="#095fac" stroke="#095fac" stroke-width="1.51"/><path d="M713,124L575,95L626,193Z" fill="#00488a" stroke="#00488a" stroke-width="1.51"/><path d="M646,-24L575,95L713,124Z" fill="#004180" stroke="#004180" stroke-width="1.51"/><path d="M971,121L901,58L952,157Z" fill="#014a91" stroke="#014a91" stroke-width="1.51"/><path d="M975,-27L901,58L971,121Z" fill="#014588" stroke="#014588" stroke-width="1.51"/><path d="M1417,581L1365,489L1278,637Z" fill="#0c6dc7" stroke="#0c6dc7" stroke-width="1.51"/><path d="M1247,941L1224,810L1173,948Z" fill="#1279d7" stroke="#1279d7" stroke-width="1.51"/><path d="M1069,177L1098,130L971,121Z" fill="#025099" stroke="#025099" stroke-width="1.51"/><path d="M1153,166L1103,261L1159,270Z" fill="#045baa" stroke="#045baa" stroke-width="1.51"/><path d="M390,1047L455,1074L503,961Z" fill="#0e6ec1" stroke="#0e6ec1" stroke-width="1.51"/><path d="M1193,1149L1100,1079L923,1086Z" fill="#147cdb" stroke="#147cdb" stroke-width="1.51"/><path d="M923,1086L1100,1079L979,1050Z" fill="#137ad8" stroke="#137ad8" stroke-width="1.51"/><path d="M1277,193L1153,166L1159,270Z" fill="#055ba9" stroke="#055ba9" stroke-width="1.51"/><path d="M383,228L277,328L378,285Z" fill="#004a8c" stroke="#004a8c" stroke-width="1.51"/><path d="M174,500L183,622L236,573Z" fill="#01488e" stroke="#01488e" stroke-width="1.51"/><path d="M1266,957L1247,941L1159,998Z" fill="#147cdb" stroke="#147cdb" stroke-width="1.51"/><path d="M1159,998L1247,941L1173,948Z" fill="#137bda" stroke="#137bda" stroke-width="1.51"/><path d="M901,58L870,25L736,134Z" fill="#014587" stroke="#014587" stroke-width="1.51"/><path d="M975,-27L870,25L901,58Z" fill="#014182" stroke="#014182" stroke-width="1.51"/><path d="M277,328L240,380L319,469Z" fill="#00498c" stroke="#00498c" stroke-width="1.51"/><path d="M215,1019L390,1047L352,943Z" fill="#0c66b5" stroke="#0c66b5" stroke-width="1.51"/><path d="M352,943L390,1047L503,961Z" fill="#0c6bbd" stroke="#0c6bbd" stroke-width="1.51"/><path d="M575,95L414,138L470,243Z" fill="#004788" stroke="#004788" stroke-width="1.51"/><path d="M383,228L216,240L277,328Z" fill="#004787" stroke="#004787" stroke-width="1.51"/><path d="M1305,476L1371,366L1282,425Z" fill="#0a68be" stroke="#0a68be" stroke-width="1.51"/><path d="M1253,343L1277,193L1159,270Z" fill="#0661b2" stroke="#0661b2" stroke-width="1.51"/><path d="M1417,581L1278,637L1310,672Z" fill="#0c6eca" stroke="#0c6eca" stroke-width="1.51"/><path d="M183,884L238,912L309,829Z" fill="#085aa5" stroke="#085aa5" stroke-width="1.51"/><path d="M236,573L183,622L245,695Z" fill="#014c93" stroke="#014c93" stroke-width="1.51"/><path d="M174,500L236,573L242,544Z" fill="#01498e" stroke="#01498e" stroke-width="1.51"/><path d="M1247,941L1396,930L1224,810Z" fill="#137bd9" stroke="#137bd9" stroke-width="1.51"/><path d="M1266,1076L1266,957L1159,998Z" fill="#1680df" stroke="#1680df" stroke-width="1.51"/><path d="M240,380L174,500L319,469Z" fill="#01488c" stroke="#01488c" stroke-width="1.51"/><path d="M183,884L309,829L133,770Z" fill="#06559e" stroke="#06559e" stroke-width="1.51"/><path d="M183,622L160,676L245,695Z" fill="#024b93" stroke="#024b93" stroke-width="1.51"/><path d="M89,670L160,676L183,622Z" fill="#01488d" stroke="#01488d" stroke-width="1.51"/><path d="M575,95L437,80L414,138Z" fill="#004280" stroke="#004280" stroke-width="1.51"/><path d="M283,144L216,240L383,228Z" fill="#004280" stroke="#004280" stroke-width="1.51"/><path d="M277,328L156,341L240,380Z" fill="#004585" stroke="#004585" stroke-width="1.51"/><path d="M573,-15L437,80L575,95Z" fill="#003f7a" stroke="#003f7a" stroke-width="1.51"/><path d="M870,25L748,-30L736,134Z" fill="#014281" stroke="#014281" stroke-width="1.51"/><path d="M1365,489L1371,366L1305,476Z" fill="#0b6ac1" stroke="#0b6ac1" stroke-width="1.51"/><path d="M1448,441L1399,340L1371,366Z" fill="#0b6ac0" stroke="#0b6ac0" stroke-width="1.51"/><path d="M1338,689L1417,581L1310,672Z" fill="#0d6fcc" stroke="#0d6fcc" stroke-width="1.51"/><path d="M1454,613L1417,581L1338,689Z" fill="#0e71cd" stroke="#0e71cd" stroke-width="1.51"/><path d="M748,-30L646,-24L713,124Z" fill="#013e7c" stroke="#013e7c" stroke-width="1.51"/><path d="M1380,203L1277,193L1253,343Z" fill="#0863b3" stroke="#0863b3" stroke-width="1.51"/><path d="M1153,166L1192,102L1098,130Z" fill="#04529b" stroke="#04529b" stroke-width="1.51"/><path d="M1089,-14L975,-27L971,121Z" fill="#014487" stroke="#014487" stroke-width="1.51"/><path d="M839,-154L776,-148L748,-30Z" fill="#01346c" stroke="#01346c" stroke-width="1.51"/><path d="M1237,99L1192,102L1153,166Z" fill="#04539c" stroke="#04539c" stroke-width="1.51"/><path d="M646,-24L573,-15L575,95Z" fill="#003c78" stroke="#003c78" stroke-width="1.51"/><path d="M1396,930L1415,754L1224,810Z" fill="#137ad8" stroke="#137ad8" stroke-width="1.51"/><path d="M1089,-14L971,121L1098,130Z" fill="#024a90" stroke="#024a90" stroke-width="1.51"/><path d="M238,912L222,971L352,943Z" fill="#0a5fac" stroke="#0a5fac" stroke-width="1.51"/><path d="M133,770L309,829L245,695Z" fill="#05539c" stroke="#05539c" stroke-width="1.51"/><path d="M160,676L133,770L245,695Z" fill="#034d94" stroke="#034d94" stroke-width="1.51"/><path d="M89,670L133,770L160,676Z" fill="#03498e" stroke="#03498e" stroke-width="1.51"/><path d="M183,884L222,971L238,912Z" fill="#095ba5" stroke="#095ba5" stroke-width="1.51"/><path d="M240,380L122,398L174,500Z" fill="#014484" stroke="#014484" stroke-width="1.51"/><path d="M283,144L383,228L414,138Z" fill="#004381" stroke="#004381" stroke-width="1.51"/><path d="M1448,441L1371,366L1365,489Z" fill="#0c6bc2" stroke="#0c6bc2" stroke-width="1.51"/><path d="M1371,366L1399,340L1253,343Z" fill="#0a67bb" stroke="#0a67bb" stroke-width="1.51"/><path d="M1415,754L1454,613L1338,689Z" fill="#0f73d1" stroke="#0f73d1" stroke-width="1.51"/><path d="M1417,581L1455,531L1365,489Z" fill="#0d6fc8" stroke="#0d6fc8" stroke-width="1.51"/><path d="M216,240L210,246L277,328Z" fill="#004382" stroke="#004382" stroke-width="1.51"/><path d="M20,567L89,670L183,622Z" fill="#014387" stroke="#014387" stroke-width="1.51"/><path d="M207,115L114,270L210,246Z" fill="#003c76" stroke="#003c76" stroke-width="1.51"/><path d="M437,80L283,144L414,138Z" fill="#00407c" stroke="#00407c" stroke-width="1.51"/><path d="M369,-16L283,144L437,80Z" fill="#003a74" stroke="#003a74" stroke-width="1.51"/><path d="M210,246L156,341L277,328Z" fill="#004382" stroke="#004382" stroke-width="1.51"/><path d="M1266,957L1396,930L1247,941Z" fill="#157ede" stroke="#157ede" stroke-width="1.51"/><path d="M1193,1149L1266,1076L1159,998Z" fill="#1781e1" stroke="#1781e1" stroke-width="1.51"/><path d="M1193,1149L1159,998L1100,1079Z" fill="#167fdf" stroke="#167fdf" stroke-width="1.51"/><path d="M1454,613L1455,531L1417,581Z" fill="#0e71cc" stroke="#0e71cc" stroke-width="1.51"/><path d="M1182,14L1089,-14L1098,130Z" fill="#03498e" stroke="#03498e" stroke-width="1.51"/><path d="M1277,193L1237,99L1153,166Z" fill="#0557a2" stroke="#0557a2" stroke-width="1.51"/><path d="M1361,88L1237,99L1277,193Z" fill="#0657a2" stroke="#0657a2" stroke-width="1.51"/><path d="M607,1113L1193,1149L923,1086Z" fill="#1278d5" stroke="#1278d5" stroke-width="1.51"/><path d="M1455,531L1448,441L1365,489Z" fill="#0d6ec6" stroke="#0d6ec6" stroke-width="1.51"/><path d="M1182,14L1098,130L1192,102Z" fill="#044d94" stroke="#044d94" stroke-width="1.51"/><path d="M607,1113L264,1139L1193,1149Z" fill="#1174cc" stroke="#1174cc" stroke-width="1.51"/><path d="M455,1074L330,1124L607,1113Z" fill="#0f70c4" stroke="#0f70c4" stroke-width="1.51"/><path d="M390,1047L330,1124L455,1074Z" fill="#0e6dc0" stroke="#0e6dc0" stroke-width="1.51"/><path d="M215,1019L330,1124L390,1047Z" fill="#0e68b8" stroke="#0e68b8" stroke-width="1.51"/><path d="M114,270L122,398L156,341Z" fill="#003f7b" stroke="#003f7b" stroke-width="1.51"/><path d="M156,341L122,398L240,380Z" fill="#004281" stroke="#004281" stroke-width="1.51"/><path d="M646,-24L564,-95L573,-15Z" fill="#01366e" stroke="#01366e" stroke-width="1.51"/><path d="M748,-30L703,-86L646,-24Z" fill="#013872" stroke="#013872" stroke-width="1.51"/><path d="M776,-148L703,-86L748,-30Z" fill="#01356e" stroke="#01356e" stroke-width="1.51"/><path d="M748,-30L870,25L839,-154Z" fill="#013975" stroke="#013975" stroke-width="1.51"/><path d="M74,911L222,971L183,884Z" fill="#0957a0" stroke="#0957a0" stroke-width="1.51"/><path d="M72,494L183,622L174,500Z" fill="#014587" stroke="#014587" stroke-width="1.51"/><path d="M1390,1017L1396,930L1266,957Z" fill="#1782e2" stroke="#1782e2" stroke-width="1.51"/><path d="M1415,754L1502,741L1454,613Z" fill="#1176d4" stroke="#1176d4" stroke-width="1.51"/><path d="M222,971L215,1019L352,943Z" fill="#0b61ae" stroke="#0b61ae" stroke-width="1.51"/><path d="M74,911L215,1019L222,971Z" fill="#0a5ba4" stroke="#0a5ba4" stroke-width="1.51"/><path d="M74,911L183,884L133,770Z" fill="#075199" stroke="#075199" stroke-width="1.51"/><path d="M1314,34L1182,14L1237,99Z" fill="#054e94" stroke="#054e94" stroke-width="1.51"/><path d="M1237,99L1182,14L1192,102Z" fill="#044f96" stroke="#044f96" stroke-width="1.51"/><path d="M122,398L72,494L174,500Z" fill="#014181" stroke="#014181" stroke-width="1.51"/><path d="M1399,340L1380,203L1253,343Z" fill="#0966b8" stroke="#0966b8" stroke-width="1.51"/><path d="M1471,243L1380,203L1399,340Z" fill="#0a67b9" stroke="#0a67b9" stroke-width="1.51"/><path d="M1454,613L1547,519L1455,531Z" fill="#0f72cd" stroke="#0f72cd" stroke-width="1.51"/><path d="M1616,353L1479,312L1448,441Z" fill="#0e6ec4" stroke="#0e6ec4" stroke-width="1.51"/><path d="M1396,930L1485,758L1415,754Z" fill="#147cdb" stroke="#147cdb" stroke-width="1.51"/><path d="M573,-15L483,-54L437,80Z" fill="#003972" stroke="#003972" stroke-width="1.51"/><path d="M564,-95L483,-54L573,-15Z" fill="#00356c" stroke="#00356c" stroke-width="1.51"/><path d="M703,-86L564,-95L646,-24Z" fill="#01366d" stroke="#01366d" stroke-width="1.51"/><path d="M1182,14L1079,-65L1089,-14Z" fill="#034384" stroke="#034384" stroke-width="1.51"/><path d="M1089,-14L1079,-65L975,-27Z" fill="#023f7f" stroke="#023f7f" stroke-width="1.51"/><path d="M703,-86L776,-148L564,-95Z" fill="#003268" stroke="#003268" stroke-width="1.51"/><path d="M89,670L67,764L133,770Z" fill="#03498d" stroke="#03498d" stroke-width="1.51"/><path d="M-67,732L67,764L89,670Z" fill="#034486" stroke="#034486" stroke-width="1.51"/><path d="M1485,758L1502,741L1415,754Z" fill="#1279d8" stroke="#1279d8" stroke-width="1.51"/><path d="M1584,787L1502,741L1485,758Z" fill="#147ddb" stroke="#147ddb" stroke-width="1.51"/><path d="M1396,930L1437,947L1485,758Z" fill="#1680df" stroke="#1680df" stroke-width="1.51"/><path d="M1266,1076L1390,1017L1266,957Z" fill="#1783e3" stroke="#1783e3" stroke-width="1.51"/><path d="M1360,1116L1390,1017L1266,1076Z" fill="#1986e7" stroke="#1986e7" stroke-width="1.51"/><path d="M1390,1017L1437,947L1396,930Z" fill="#1884e4" stroke="#1884e4" stroke-width="1.51"/><path d="M483,-54L369,-16L437,80Z" fill="#003870" stroke="#003870" stroke-width="1.51"/><path d="M207,115L210,246L216,240Z" fill="#003d77" stroke="#003d77" stroke-width="1.51"/><path d="M450,-136L369,-16L483,-54Z" fill="#003266" stroke="#003266" stroke-width="1.51"/><path d="M330,1124L264,1139L607,1113Z" fill="#0f6ec1" stroke="#0f6ec1" stroke-width="1.51"/><path d="M215,1019L264,1139L330,1124Z" fill="#0e65b3" stroke="#0e65b3" stroke-width="1.51"/><path d="M115,1104L264,1139L215,1019Z" fill="#0d61ac" stroke="#0d61ac" stroke-width="1.51"/><path d="M210,246L114,270L156,341Z" fill="#003f7c" stroke="#003f7c" stroke-width="1.51"/><path d="M122,398L45,417L72,494Z" fill="#013e7c" stroke="#013e7c" stroke-width="1.51"/><path d="M207,115L216,240L283,144Z" fill="#003b75" stroke="#003b75" stroke-width="1.51"/><path d="M839,-154L870,25L975,-27Z" fill="#013a78" stroke="#013a78" stroke-width="1.51"/><path d="M217,6L207,115L283,144Z" fill="#00346a" stroke="#00346a" stroke-width="1.51"/><path d="M1547,519L1448,441L1455,531Z" fill="#0e71c9" stroke="#0e71c9" stroke-width="1.51"/><path d="M1448,441L1479,312L1399,340Z" fill="#0c6bc0" stroke="#0c6bc0" stroke-width="1.51"/><path d="M1021,-145L839,-154L975,-27Z" fill="#013771" stroke="#013771" stroke-width="1.51"/><path d="M72,494L20,567L183,622Z" fill="#014283" stroke="#014283" stroke-width="1.51"/><path d="M114,270L45,417L122,398Z" fill="#003d79" stroke="#003d79" stroke-width="1.51"/><path d="M-5,434L20,567L72,494Z" fill="#013d7a" stroke="#013d7a" stroke-width="1.51"/><path d="M1576,604L1547,519L1454,613Z" fill="#1074d0" stroke="#1074d0" stroke-width="1.51"/><path d="M67,764L74,911L133,770Z" fill="#054d92" stroke="#054d92" stroke-width="1.51"/><path d="M10,833L74,911L67,764Z" fill="#064b90" stroke="#064b90" stroke-width="1.51"/><path d="M1390,1017L1506,956L1437,947Z" fill="#1985e6" stroke="#1985e6" stroke-width="1.51"/><path d="M1193,1149L1360,1116L1266,1076Z" fill="#1884e4" stroke="#1884e4" stroke-width="1.51"/><path d="M1517,146L1361,88L1380,203Z" fill="#0a5da9" stroke="#0a5da9" stroke-width="1.51"/><path d="M1380,203L1361,88L1277,193Z" fill="#075ca8" stroke="#075ca8" stroke-width="1.51"/><path d="M1182,14L1208,-130L1079,-65Z" fill="#034181" stroke="#034181" stroke-width="1.51"/><path d="M1479,312L1471,243L1399,340Z" fill="#0b6abd" stroke="#0b6abd" stroke-width="1.51"/><path d="M1517,146L1471,243L1622,245Z" fill="#0d68b8" stroke="#0d68b8" stroke-width="1.51"/><path d="M1361,88L1314,34L1237,99Z" fill="#06539a" stroke="#06539a" stroke-width="1.51"/><path d="M1208,-130L1021,-145L1079,-65Z" fill="#023a77" stroke="#023a77" stroke-width="1.51"/><path d="M1079,-65L1021,-145L975,-27Z" fill="#013a78" stroke="#013a78" stroke-width="1.51"/><path d="M1502,741L1576,604L1454,613Z" fill="#1076d3" stroke="#1076d3" stroke-width="1.51"/><path d="M1547,519L1616,353L1448,441Z" fill="#0f71c8" stroke="#0f71c8" stroke-width="1.51"/><path d="M1605,697L1576,604L1502,741Z" fill="#1279d8" stroke="#1279d8" stroke-width="1.51"/><path d="M-67,732L10,833L67,764Z" fill="#044587" stroke="#044587" stroke-width="1.51"/><path d="M45,417L-5,434L72,494Z" fill="#013c78" stroke="#013c78" stroke-width="1.51"/><path d="M-33,342L-5,434L45,417Z" fill="#013973" stroke="#013973" stroke-width="1.51"/><path d="M-33,342L45,417L114,270Z" fill="#003a73" stroke="#003a73" stroke-width="1.51"/><path d="M0,861L10,833L-150,803Z" fill="#054686" stroke="#054686" stroke-width="1.51"/><path d="M1437,947L1506,956L1485,758Z" fill="#1782e2" stroke="#1782e2" stroke-width="1.51"/><path d="M1567,1070L1506,956L1390,1017Z" fill="#1b8aeb" stroke="#1b8aeb" stroke-width="1.51"/><path d="M369,-16L217,6L283,144Z" fill="#00346a" stroke="#00346a" stroke-width="1.51"/><path d="M564,-95L450,-136L483,-54Z" fill="#003165" stroke="#003165" stroke-width="1.51"/><path d="M776,-148L450,-136L564,-95Z" fill="#002f64" stroke="#002f64" stroke-width="1.51"/><path d="M839,-154L450,-136L776,-148Z" fill="#012f64" stroke="#012f64" stroke-width="1.51"/><path d="M337,-139L217,6L369,-16Z" fill="#002d5e" stroke="#002d5e" stroke-width="1.51"/><path d="M106,59L24,233L114,270Z" fill="#00356a" stroke="#00356a" stroke-width="1.51"/><path d="M10,833L0,861L74,911Z" fill="#074c90" stroke="#074c90" stroke-width="1.51"/><path d="M16,1015L115,1104L215,1019Z" fill="#0c5ba4" stroke="#0c5ba4" stroke-width="1.51"/><path d="M-67,732L89,670L20,567Z" fill="#014081" stroke="#014081" stroke-width="1.51"/><path d="M-5,434L-41,557L20,567Z" fill="#013b78" stroke="#013b78" stroke-width="1.51"/><path d="M1506,956L1584,787L1485,758Z" fill="#1681e0" stroke="#1681e0" stroke-width="1.51"/><path d="M1584,787L1605,697L1502,741Z" fill="#147ddc" stroke="#147ddc" stroke-width="1.51"/><path d="M1576,604L1642,518L1547,519Z" fill="#1176d1" stroke="#1176d1" stroke-width="1.51"/><path d="M16,1015L215,1019L74,911Z" fill="#0a579e" stroke="#0a579e" stroke-width="1.51"/><path d="M106,59L114,270L207,115Z" fill="#00346a" stroke="#00346a" stroke-width="1.51"/><path d="M-5,434L-77,525L-41,557Z" fill="#013874" stroke="#013874" stroke-width="1.51"/><path d="M1293,-131L1208,-130L1182,14Z" fill="#044280" stroke="#044280" stroke-width="1.51"/><path d="M1293,-131L1182,14L1314,34Z" fill="#05478a" stroke="#05478a" stroke-width="1.51"/><path d="M1402,-1L1314,34L1361,88Z" fill="#075197" stroke="#075197" stroke-width="1.51"/><path d="M24,233L9,243L114,270Z" fill="#003870" stroke="#003870" stroke-width="1.51"/><path d="M-96,231L9,243L-71,141Z" fill="#002e60" stroke="#002e60" stroke-width="1.51"/><path d="M9,243L-33,342L114,270Z" fill="#00386f" stroke="#00386f" stroke-width="1.51"/><path d="M-66,956L16,1015L74,911Z" fill="#095093" stroke="#095093" stroke-width="1.51"/><path d="M-41,557L-67,732L20,567Z" fill="#013c7a" stroke="#013c7a" stroke-width="1.51"/><path d="M-120,686L-67,732L-41,557Z" fill="#013b78" stroke="#013b78" stroke-width="1.51"/><path d="M-164,414L-77,525L-5,434Z" fill="#01356d" stroke="#01356d" stroke-width="1.51"/><path d="M217,6L106,59L207,115Z" fill="#002f61" stroke="#002f61" stroke-width="1.51"/><path d="M450,-136L337,-139L369,-16Z" fill="#002d5f" stroke="#002d5f" stroke-width="1.51"/><path d="M839,-154L337,-139L450,-136Z" fill="#002d60" stroke="#002d60" stroke-width="1.51"/><path d="M1685,551L1642,518L1576,604Z" fill="#1278d4" stroke="#1278d4" stroke-width="1.51"/><path d="M1605,697L1641,698L1576,604Z" fill="#137ad9" stroke="#137ad9" stroke-width="1.51"/><path d="M1637,799L1641,698L1605,697Z" fill="#157fde" stroke="#157fde" stroke-width="1.51"/><path d="M1637,799L1605,697L1584,787Z" fill="#1680df" stroke="#1680df" stroke-width="1.51"/><path d="M1517,146L1402,-1L1361,88Z" fill="#0957a0" stroke="#0957a0" stroke-width="1.51"/><path d="M1517,146L1380,203L1471,243Z" fill="#0a64b3" stroke="#0a64b3" stroke-width="1.51"/><path d="M1622,245L1471,243L1479,312Z" fill="#0c6cbf" stroke="#0c6cbf" stroke-width="1.51"/><path d="M166,-44L106,59L217,6Z" fill="#002a59" stroke="#002a59" stroke-width="1.51"/><path d="M-66,956L74,911L0,861Z" fill="#084d90" stroke="#084d90" stroke-width="1.51"/><path d="M-101,544L-89,568L-77,525Z" fill="#013771" stroke="#013771" stroke-width="1.51"/><path d="M-77,525L-89,568L-41,557Z" fill="#013974" stroke="#013974" stroke-width="1.51"/><path d="M1655,383L1616,353L1547,519Z" fill="#1073cb" stroke="#1073cb" stroke-width="1.51"/><path d="M1506,956L1609,882L1584,787Z" fill="#1885e5" stroke="#1885e5" stroke-width="1.51"/><path d="M1595,993L1609,882L1506,956Z" fill="#1a89ea" stroke="#1a89ea" stroke-width="1.51"/><path d="M1616,353L1610,319L1479,312Z" fill="#0f6fc4" stroke="#0f6fc4" stroke-width="1.51"/><path d="M1609,882L1637,799L1584,787Z" fill="#1784e3" stroke="#1784e3" stroke-width="1.51"/><path d="M-164,414L-101,544L-77,525Z" fill="#01346c" stroke="#01346c" stroke-width="1.51"/><path d="M-89,568L-120,686L-41,557Z" fill="#013875" stroke="#013875" stroke-width="1.51"/><path d="M16,1015L73,1132L115,1104Z" fill="#0c59a0" stroke="#0c59a0" stroke-width="1.51"/><path d="M115,1104L73,1132L264,1139Z" fill="#0d5ea7" stroke="#0d5ea7" stroke-width="1.51"/><path d="M1632,185L1536,130L1517,146Z" fill="#0c64b1" stroke="#0c64b1" stroke-width="1.51"/><path d="M1517,146L1496,-19L1402,-1Z" fill="#09569d" stroke="#09569d" stroke-width="1.51"/><path d="M220,-129L166,-44L217,6Z" fill="#002754" stroke="#002754" stroke-width="1.51"/><path d="M1208,-130L1293,-131L1021,-145Z" fill="#033b76" stroke="#033b76" stroke-width="1.51"/><path d="M1374,-93L1293,-131L1314,34Z" fill="#064787" stroke="#064787" stroke-width="1.51"/><path d="M1374,-93L1314,34L1402,-1Z" fill="#074b8f" stroke="#074b8f" stroke-width="1.51"/><path d="M1616,353L1655,383L1610,319Z" fill="#1072c8" stroke="#1072c8" stroke-width="1.51"/><path d="M1610,319L1622,245L1479,312Z" fill="#0e6ec3" stroke="#0e6ec3" stroke-width="1.51"/><path d="M1642,518L1655,383L1547,519Z" fill="#1175ce" stroke="#1175ce" stroke-width="1.51"/><path d="M1685,551L1655,383L1642,518Z" fill="#1175cf" stroke="#1175cf" stroke-width="1.51"/><path d="M1685,551L1576,604L1641,698Z" fill="#1379d7" stroke="#1379d7" stroke-width="1.51"/><path d="M1193,1149L1496,1152L1360,1116Z" fill="#1987e8" stroke="#1987e8" stroke-width="1.51"/><path d="M1360,1116L1496,1152L1390,1017Z" fill="#1a89eb" stroke="#1a89eb" stroke-width="1.51"/><path d="M1567,1070L1595,993L1506,956Z" fill="#1c8cee" stroke="#1c8cee" stroke-width="1.51"/><path d="M1609,882L1692,910L1637,799Z" fill="#1986e7" stroke="#1986e7" stroke-width="1.51"/><path d="M-164,865L-66,956L0,861Z" fill="#074787" stroke="#074787" stroke-width="1.51"/><path d="M-101,544L-120,686L-89,568Z" fill="#003873" stroke="#003873" stroke-width="1.51"/><path d="M1692,910L1685,551L1641,698Z" fill="#157edd" stroke="#157edd" stroke-width="1.51"/><path d="M1686,270L1622,245L1610,319Z" fill="#0f70c4" stroke="#0f70c4" stroke-width="1.51"/><path d="M1437,-79L1402,-1L1496,-19Z" fill="#084e90" stroke="#084e90" stroke-width="1.51"/><path d="M1437,-79L1374,-93L1402,-1Z" fill="#07498b" stroke="#07498b" stroke-width="1.51"/><path d="M1496,1152L1567,1070L1390,1017Z" fill="#1c8cee" stroke="#1c8cee" stroke-width="1.51"/><path d="M16,1015L-81,1100L73,1132Z" fill="#0c5499" stroke="#0c5499" stroke-width="1.51"/><path d="M-150,803L10,833L-67,732Z" fill="#044282" stroke="#044282" stroke-width="1.51"/><path d="M337,-139L220,-129L217,6Z" fill="#002755" stroke="#002755" stroke-width="1.51"/><path d="M220,-129L157,-77L166,-44Z" fill="#00234f" stroke="#00234f" stroke-width="1.51"/><path d="M166,-44L105,-51L106,59Z" fill="#002653" stroke="#002653" stroke-width="1.51"/><path d="M-71,141L9,243L24,233Z" fill="#003064" stroke="#003064" stroke-width="1.51"/><path d="M106,-125L105,-51L157,-77Z" fill="#00204a" stroke="#00204a" stroke-width="1.51"/><path d="M157,-77L105,-51L166,-44Z" fill="#00234f" stroke="#00234f" stroke-width="1.51"/><path d="M9,243L-96,231L-33,342Z" fill="#003368" stroke="#003368" stroke-width="1.51"/><path d="M1374,-93L1691,-153L1293,-131Z" fill="#074584" stroke="#074584" stroke-width="1.51"/><path d="M1496,-19L1517,146L1536,130Z" fill="#0a5ba5" stroke="#0a5ba5" stroke-width="1.51"/><path d="M1606,-10L1496,-19L1536,130Z" fill="#0b589f" stroke="#0b589f" stroke-width="1.51"/><path d="M1622,245L1632,185L1517,146Z" fill="#0d68b8" stroke="#0d68b8" stroke-width="1.51"/><path d="M1686,270L1632,185L1622,245Z" fill="#0f6dc0" stroke="#0f6dc0" stroke-width="1.51"/><path d="M1686,270L1610,319L1655,383Z" fill="#1071c7" stroke="#1071c7" stroke-width="1.51"/><path d="M-120,686L-150,803L-67,732Z" fill="#033d7a" stroke="#033d7a" stroke-width="1.51"/><path d="M-164,414L-150,803L-120,686Z" fill="#013670" stroke="#013670" stroke-width="1.51"/><path d="M2,37L24,233L106,59Z" fill="#002c5c" stroke="#002c5c" stroke-width="1.51"/><path d="M-33,342L-164,414L-5,434Z" fill="#01356c" stroke="#01356c" stroke-width="1.51"/><path d="M-101,544L-164,414L-120,686Z" fill="#01356e" stroke="#01356e" stroke-width="1.51"/><path d="M1709,1154L1634,1031L1567,1070Z" fill="#1e92f5" stroke="#1e92f5" stroke-width="1.51"/><path d="M1567,1070L1634,1031L1595,993Z" fill="#1d90f2" stroke="#1d90f2" stroke-width="1.51"/><path d="M1595,993L1692,910L1609,882Z" fill="#1b8aec" stroke="#1b8aec" stroke-width="1.51"/><path d="M1637,799L1692,910L1641,698Z" fill="#1883e3" stroke="#1883e3" stroke-width="1.51"/><path d="M1634,1031L1692,910L1595,993Z" fill="#1c8def" stroke="#1c8def" stroke-width="1.51"/><path d="M105,-51L2,37L106,59Z" fill="#002652" stroke="#002652" stroke-width="1.51"/><path d="M-156,308L-164,414L-33,342Z" fill="#013165" stroke="#013165" stroke-width="1.51"/><path d="M1709,1154L1686,270L1685,551Z" fill="#137bd9" stroke="#137bd9" stroke-width="1.51"/><path d="M1685,551L1686,270L1655,383Z" fill="#1073cb" stroke="#1073cb" stroke-width="1.51"/><path d="M-96,231L-156,308L-33,342Z" fill="#003164" stroke="#003164" stroke-width="1.51"/><path d="M2,37L-71,141L24,233Z" fill="#002b5b" stroke="#002b5b" stroke-width="1.51"/><path d="M-150,803L-164,865L0,861Z" fill="#044281" stroke="#044281" stroke-width="1.51"/><path d="M-66,956L-81,1100L16,1015Z" fill="#0a5093" stroke="#0a5093" stroke-width="1.51"/><path d="M-164,414L-164,865L-150,803Z" fill="#023873" stroke="#023873" stroke-width="1.51"/><path d="M-124,76L-156,308L-96,231Z" fill="#002a5a" stroke="#002a5a" stroke-width="1.51"/><path d="M220,-129L106,-125L157,-77Z" fill="#002049" stroke="#002049" stroke-width="1.51"/><path d="M105,-51L-45,-67L2,37Z" fill="#001f48" stroke="#001f48" stroke-width="1.51"/><path d="M2,37L-124,76L-71,141Z" fill="#00244f" stroke="#00244f" stroke-width="1.51"/><path d="M337,-139L106,-125L220,-129Z" fill="#00214c" stroke="#00214c" stroke-width="1.51"/><path d="M-107,1115L-81,1100L-176,1000Z" fill="#0a4d8d" stroke="#0a4d8d" stroke-width="1.51"/><path d="M-81,1100L-107,1115L73,1132Z" fill="#0b5295" stroke="#0b5295" stroke-width="1.51"/><path d="M-176,1000L-81,1100L-66,956Z" fill="#084c8c" stroke="#084c8c" stroke-width="1.51"/><path d="M1656,60L1536,130L1632,185Z" fill="#0d62af" stroke="#0d62af" stroke-width="1.51"/><path d="M1656,60L1606,-10L1536,130Z" fill="#0c5ca5" stroke="#0c5ca5" stroke-width="1.51"/><path d="M1496,-19L1607,-59L1437,-79Z" fill="#094e91" stroke="#094e91" stroke-width="1.51"/><path d="M1686,270L1656,60L1632,185Z" fill="#0e68b7" stroke="#0e68b7" stroke-width="1.51"/><path d="M-164,414L-176,1000L-164,865Z" fill="#033a76" stroke="#033a76" stroke-width="1.51"/><path d="M-164,865L-176,1000L-66,956Z" fill="#074685" stroke="#074685" stroke-width="1.51"/><path d="M-71,141L-124,76L-96,231Z" fill="#002755" stroke="#002755" stroke-width="1.51"/><path d="M-123,40L-124,76L2,37Z" fill="#00204a" stroke="#00204a" stroke-width="1.51"/><path d="M1661,-3L1607,-59L1606,-10Z" fill="#0c559a" stroke="#0c559a" stroke-width="1.51"/><path d="M1606,-10L1607,-59L1496,-19Z" fill="#0a5296" stroke="#0a5296" stroke-width="1.51"/><path d="M1437,-79L1691,-153L1374,-93Z" fill="#094988" stroke="#094988" stroke-width="1.51"/><path d="M106,-125L-45,-67L105,-51Z" fill="#001d44" stroke="#001d44" stroke-width="1.51"/><path d="M-45,-67L-123,40L2,37Z" fill="#001d46" stroke="#001d46" stroke-width="1.51"/><path d="M-124,76L-151,-57L-156,308Z" fill="#00214c" stroke="#00214c" stroke-width="1.51"/><path d="M1656,60L1661,-3L1606,-10Z" fill="#0c59a0" stroke="#0c59a0" stroke-width="1.51"/><path d="M1686,270L1661,-3L1656,60Z" fill="#0d62ad" stroke="#0d62ad" stroke-width="1.51"/><path d="M1692,910L1709,1154L1685,551Z" fill="#1987e8" stroke="#1987e8" stroke-width="1.51"/><path d="M1634,1031L1709,1154L1692,910Z" fill="#1e90f3" stroke="#1e90f3" stroke-width="1.51"/><path d="M1496,1152L1709,1154L1567,1070Z" fill="#1e90f3" stroke="#1e90f3" stroke-width="1.51"/><path d="M-45,-67L-151,-57L-123,40Z" fill="#00183e" stroke="#00183e" stroke-width="1.51"/><path d="M-123,40L-151,-57L-124,76Z" fill="#001b41" stroke="#001b41" stroke-width="1.51"/><path d="M-156,308L-151,-57L-164,414Z" fill="#002a59" stroke="#002a59" stroke-width="1.51"/><path d="M106,-125L-151,-57L-45,-67Z" fill="#00183d" stroke="#00183d" stroke-width="1.51"/><path d="M1686,270L1691,-153L1661,-3Z" fill="#0c5ba3" stroke="#0c5ba3" stroke-width="1.51"/><path d="M1661,-3L1691,-153L1607,-59Z" fill="#0b5093" stroke="#0b5093" stroke-width="1.51"/><path d="M1607,-59L1691,-153L1437,-79Z" fill="#094c8d" stroke="#094c8d" stroke-width="1.51"/><path d="M1293,-131L1691,-153L1021,-145Z" fill="#05407d" stroke="#05407d" stroke-width="1.51"/><path d="M1021,-145L1691,-153L839,-154Z" fill="#023a75" stroke="#023a75" stroke-width="1.51"/><path d="M1709,1154L1691,-153L1686,270Z" fill="#1074cc" stroke="#1074cc" stroke-width="1.51"/></svg>