<?xml version="1.0" encoding="UTF-8" standalone="no"?>
<!-- Created with Inkscape (http://www.inkscape.org/) -->

<svg
   xmlns:dc="http://purl.org/dc/elements/1.1/"
   xmlns:cc="http://creativecommons.org/ns#"
   xmlns:rdf="http://www.w3.org/1999/02/22-rdf-syntax-ns#"
   xmlns:svg="http://www.w3.org/2000/svg"
   xmlns="http://www.w3.org/2000/svg"
   xmlns:sodipodi="http://sodipodi.sourceforge.net/DTD/sodipodi-0.dtd"
   xmlns:inkscape="http://www.inkscape.org/namespaces/inkscape"
   version="1.1"
   id="svg2"
   xml:space="preserve"
   width="2133.3347"
   height="2133.3347"
   viewBox="0 0 2133.3347 2133.3347"
   sodipodi:docname="HOLA.svg"
   inkscape:version="0.92.3 (unknown)"><metadata
     id="metadata8"><rdf:RDF><cc:Work
         rdf:about=""><dc:format>image/svg+xml</dc:format><dc:type
           rdf:resource="http://purl.org/dc/dcmitype/StillImage" /><dc:title></dc:title></cc:Work></rdf:RDF></metadata><defs
     id="defs6"><clipPath
       clipPathUnits="userSpaceOnUse"
       id="clipPath898"><path
         d="m 13952.8,6806.75 h -757.7 v 42.36 h 352 v 0 h 358.6 c 14.6,23.33 28,47.44 40.2,72.25 h 29.2 38 c -17.4,-39.81 -37.6,-78.1 -60.3,-114.61 m 133.2,452.33 c -14.5,3.38 -29.6,5.14 -44.9,5.14 -3.6,0 -7.2,-0.09 -10.7,-0.28 0.2,7.52 0.3,15.08 0.3,22.63 0,157.92 -44.2,305.52 -121,431.08 h 56.8 c 76.1,-130.47 119.6,-282.22 119.6,-444.13 0,-4.83 0,-9.63 -0.1,-14.44 m -505.9,764.49 c -113.1,58 -241.3,90.74 -377.1,90.74 -2.7,0 -5.3,-0.02 -7.9,-0.06 v 42.31 c 2.6,0.01 5.3,0.09 7.9,0.09 134.9,0 262.8,-30.26 377.1,-84.35 v -48.73"
         id="path896"
         inkscape:connector-curvature="0" /></clipPath><clipPath
       clipPathUnits="userSpaceOnUse"
       id="clipPath2432"><path
         d="m 12808.4,3362.36 -215,286.95 70.4,38.33 208,-277.73 -63.4,-47.55"
         id="path2430"
         inkscape:connector-curvature="0" /></clipPath><clipPath
       clipPathUnits="userSpaceOnUse"
       id="clipPath2616"><path
         d="m 4506.81,12941.1 v 116.8 c 24.77,10.9 47.78,22.5 69.11,34.6 v -6.8 h 78.89 c -0.33,-3 -0.5,-6.1 -0.5,-9.2 0,-4 0.3,-7.9 0.85,-11.8 -26.45,-8.6 -45.53,-33.5 -45.53,-62.8 0,-2.6 0.14,-5.2 0.44,-7.8 -31.32,-18.6 -65.67,-36.4 -103.26,-53 m 151.82,162.2 h -64.28 c 237.73,144.5 254.08,350.9 254.08,350.9 v 93 h 87.75 v -108 c 0,0 -5.39,-68 -50.7,-158.7 -61.3,-12.4 -109.48,-61 -121.45,-122.4 -7.78,2.3 -16.01,3.6 -24.54,3.6 -37.66,0 -69.63,-24.5 -80.86,-58.4 m 138.85,738.9 -290.67,125.5 v 116.8 L 4917,13907.4 c -6.82,-15.1 -11.99,-31.2 -15.24,-47.9 -10.93,3.3 -22.5,5.1 -34.49,5.1 -26.04,0 -50.14,-8.3 -69.79,-22.4"
         id="path2614"
         inkscape:connector-curvature="0" /></clipPath><clipPath
       clipPathUnits="userSpaceOnUse"
       id="clipPath3170"><path
         d="m 5009.35,8053.79 h -218.84 c -4.09,0 -7.41,3.32 -7.41,7.41 0,4.09 3.32,7.43 7.41,7.43 h 218.84 c 4.09,0 7.4,-3.34 7.4,-7.43 0,-4.09 -3.31,-7.41 -7.4,-7.41"
         id="path3168"
         inkscape:connector-curvature="0" /></clipPath><clipPath
       clipPathUnits="userSpaceOnUse"
       id="clipPath3220"><path
         d="m 4255.46,7829.86 h -95.96 c -1.8,0 -3.27,1.43 -3.27,3.24 0,1.78 1.47,3.25 3.27,3.25 h 95.96 c 1.79,0 3.24,-1.47 3.24,-3.25 0,-1.81 -1.45,-3.24 -3.24,-3.24"
         id="path3218"
         inkscape:connector-curvature="0" /></clipPath><clipPath
       clipPathUnits="userSpaceOnUse"
       id="clipPath4406"><path
         d="m 4228.87,9611.18 h 343.277 v 0 z"
         id="path4404"
         inkscape:connector-curvature="0" /></clipPath><clipPath
       clipPathUnits="userSpaceOnUse"
       id="clipPath4916"><path
         d="m 8323.52,13213.8 v 0 57.2 h 109.82 c 4.37,0 7.91,-3.9 7.91,-8.7 v 0 h -117.73 v -48.5"
         id="path4914"
         inkscape:connector-curvature="0" /></clipPath></defs><sodipodi:namedview
     pagecolor="#ffffff"
     bordercolor="#666666"
     borderopacity="1"
     objecttolerance="10"
     gridtolerance="10"
     guidetolerance="10"
     inkscape:pageopacity="0"
     inkscape:pageshadow="2"
     inkscape:window-width="1366"
     inkscape:window-height="705"
     id="namedview4"
     showgrid="false"
     inkscape:zoom="0.031289474"
     inkscape:cx="-3379.583"
     inkscape:cy="1545.0378"
     inkscape:window-x="0"
     inkscape:window-y="24"
     inkscape:window-maximized="1"
     inkscape:current-layer="g6918"
     showguides="true"
     inkscape:guide-bbox="true" /><g
     id="g10"
     inkscape:groupmode="layer"
     inkscape:label="ink_ext_XXXXXX"
     transform="matrix(1.3333333,0,0,-1.3333333,3323.8015,10794.513)"><g
       id="g12"
       transform="scale(0.545331)"><g
         id="g6762"><g
           id="g6918"
           style="image-rendering:auto"><title
             id="title6920">AnalysisSystem</title><a
             id="a7292"
             inkscape:export-xdpi="96"
             inkscape:export-ydpi="96"><g
               id="g7290"><g
                 id="g7145"><path
                   inkscape:connector-curvature="0"
                   id="path6138"
                   style="fill:#5ac7ae;fill-opacity:1;fill-rule:nonzero;stroke:none"
                   d="m -4571.2625,11911.818 h 2934 v 2934 h -2934 z" /><path
                   inkscape:connector-curvature="0"
                   id="path6140"
                   style="fill:#72cfb8;fill-opacity:1;fill-rule:nonzero;stroke:none"
                   d="m -2127.7125,13377.318 c 0,-538.8 -436.78,-975.5 -975.57,-975.5 -538.785,0 -975.554,436.7 -975.554,975.5 0,538.8 436.769,975.6 975.554,975.6 538.79,0 975.57,-436.8 975.57,-975.6" /><path
                   inkscape:connector-curvature="0"
                   id="path6170"
                   style="fill:#324064;fill-opacity:1;fill-rule:nonzero;stroke:none"
                   d="m -3449.4325,13869.518 h 796.531 v 512.23 h -796.531 z" /><path
                   inkscape:connector-curvature="0"
                   id="path6172"
                   style="fill:#f7f7f7;fill-opacity:1;fill-rule:nonzero;stroke:none"
                   d="m -3418.6325,13887.118 h 739.34 v 475.281 h -739.34 z" /><path
                   inkscape:connector-curvature="0"
                   id="path6174"
                   style="fill:#dedddb;fill-opacity:1;fill-rule:nonzero;stroke:none"
                   d="m -2705.9525,13887.118 h -571.98 c 1.09,2.4 1.67,5.3 1.67,8.3 v 75.6 h 49.76 l -0.9,-7.4 v 0 c -0.01,-0.1 -0.02,-0.1 -0.02,-0.2 0,0 -0.01,0 -0.01,-0.1 -0.01,0 -0.01,-0.1 -0.01,-0.1 -0.01,0 -0.01,0 -0.01,-0.1 -0.01,0 -0.01,0 -0.01,-0.1 0,0 -0.01,0 -0.01,-0.1 0,0 0,0 -0.01,0 -0.75,-8.7 3.97,-16.7 10.8,-18.1 0.67,-0.1 1.33,-0.2 1.99,-0.2 0.36,0 0.71,0 1.06,0.1 0.16,0 0.68,0 1.44,0.2 2.26,0.6 4.34,2 6.03,3.9 2.28,2.3 3.69,5.8 4.17,9.7 l 1.52,12.5 h 126.3 v 18.6 h -124.04 l 2.75,22.5 h 121.29 v 18.5 h -119.02 l 5.25,43.1 h 113.77 v 18.6 h -111.5 l 1.7,13.9 h 109.8 v 18.6 h -107.53 l 1.64,13.4 h 105.89 v 18.6 h -103.62 l 2,16.4 c 0.65,-0.6 1.41,-1 2.23,-1.1 0.28,-0.1 0.57,-0.1 0.85,-0.1 2.64,0 4.96,2.4 5.38,5.9 l 4.77,39.1 h 88.39 v 18.5 h -86.13 l 1.56,12.7 h 84.57 v 18.6 h -83.15 c -0.72,2.2 -2.25,3.8 -4.17,4.2 -0.29,0 -0.57,0.1 -0.86,0.1 -0.53,0 -1.04,-0.2 -1.53,-0.3 l 1.34,11 c 0.01,0 0.02,0.1 0.03,0.2 0,0 0,0 0,0 0.01,0.1 0.01,0.1 0.02,0.2 0,0 0,0 0,0 0.01,0.1 0.02,0.1 0.02,0.2 0,0 0,0 0,0 0.01,0.1 0.01,0.1 0.01,0.2 0.01,0 0.01,0 0.01,0 0.01,0.1 0.01,0.1 0.01,0.2 0,0 0,0 0,0 0.02,0.1 0.02,0.3 0.03,0.4 0,0 0,0 0,0 0.01,0.1 0.01,0.2 0.01,0.2 0,0 0,0 0,0.1 0,0 0,0.1 0.01,0.1 0,0 0,0 0,0.1 0,0 0,0.1 0,0.1 0,0 0,0 0.01,0.1 0,0 0,0.1 0,0.1 0,0 0,0 0,0.1 0,0 0,0 0,0.1 0,0 0,0.1 0,0.2 0,0 0,0 0,0 0,0.1 0,0.1 0,0.2 0,0 0,0 0,0 0,0.1 0,0.1 -0.01,0.2 0,0 0,0 0,0 0,0.1 0,0.1 0,0.2 0,0 0,0 0,0 -0.25,7.6 -4.7,14.3 -10.87,15.5 -0.68,0.2 -1.34,0.2 -2,0.2 -3.82,0 -7.36,-2.2 -9.75,-5.7 0,0 0,0 -0.01,0 -0.02,-0.1 -0.04,-0.1 -0.06,-0.1 -0.01,0 -0.03,-0.1 -0.04,-0.1 -0.01,0 -0.02,0 -0.03,0 -0.02,-0.1 -0.05,-0.1 -0.07,-0.1 0,-0.1 -0.01,-0.1 -0.01,-0.1 -1.33,-2 -2.27,-4.6 -2.67,-7.4 0,0 0,0 0,0 -0.01,-0.1 -0.02,-0.1 -0.02,-0.2 0,0 -0.01,0 -0.01,0 -0.01,-0.1 -0.01,-0.1 -0.02,-0.2 v 0 l -2.44,-20 h -152.12 l -0.46,2.7 c -1.31,7.7 -6.62,13 -12.54,13 -0.91,0 -1.83,-0.1 -2.75,-0.4 -6.85,-1.9 -11.23,-10.4 -9.89,-19.2 0,0 0,0 0.01,0 0.01,-0.1 0.01,-0.1 0.02,-0.2 0.01,0 0.02,-0.1 0.03,-0.1 l 17.99,-105.8 h -6.71 v -18.6 h 9.87 l 2.29,-13.4 h -12.16 v -18.6 h 15.32 l 2.36,-13.9 h -17.68 v -18.6 h 20.84 l 7.32,-43.1 h -28.16 v -18.5 h 31.32 l 3.83,-22.5 h -35.15 v -18.6 h 38.31 l 4.78,-28.1 c 0.48,-2.8 1.5,-5.3 2.89,-7.3 0.02,-0.1 0.03,-0.1 0.05,-0.1 0.01,0 0.01,0 0.02,0 2.22,-3.2 5.38,-5.2 8.78,-5.5 v -34.6 c 0,-0.1 0,-0.2 0,-0.2 0,0 0,-0.1 0,-0.1 0,0 0,-0.1 0,-0.1 0,0 0,-0.1 0,-0.1 0,0 0.01,-0.1 0.01,-0.1 0,0 0,-0.1 0,-0.1 0,0 0,-0.1 0,-0.1 0,0 0,-0.1 0,-0.1 0,0 0.01,-0.1 0.01,-0.1 0,-0.1 0,-0.1 0,-0.2 0.01,0 0.01,0 0.01,-0.1 0,0 0.01,0 0.01,-0.1 0,0 0,0 0,0 0,-0.1 0.01,-0.1 0.01,-0.1 0,-0.1 0.01,-0.1 0.01,-0.1 0,-0.1 0,-0.1 0,-0.1 0.01,-0.1 0.01,-0.1 0.01,-0.1 0.2,-2.3 0.78,-4.5 1.67,-6.5 h -78.78 v 475.3 h 699.73 -26.66 v -475.3 m -518.28,102.5 h -52.03 v 22.5 h 54.78 l -2.75,-22.5 m 5.01,41 h -57.04 v 43.1 h 62.3 l -5.26,-43.1 m -82.76,0 h -0.35 l -7.32,43.1 h 7.67 v -43.1 m 90.28,61.7 h -64.56 v 13.9 h 66.26 l -1.7,-13.9 m -90.28,0 h -10.83 l -2.37,13.9 h 13.2 v -13.9 m 94.25,32.5 h -68.53 v 13.4 h 70.17 l -1.64,-13.4 m -94.25,0 h -16.36 l -2.29,13.4 h 18.65 v -13.4 m 98.16,32 h -72.44 v 60.2 h 79.78 l -7.34,-60.2 m -98.16,0 h -21.82 l -0.91,5.4 c 0.4,-0.1 0.82,-0.2 1.24,-0.2 0.38,0 0.77,0.1 1.16,0.2 2.94,0.8 4.82,4.5 4.17,8.3 l -7.91,46.5 h 24.07 v -60.2 m 107.77,78.7 h -87.07 c -2.17,2.2 -4.89,3.4 -7.85,3.4 -2.95,0 -5.67,-1.2 -7.84,-3.4 h -32.24 l -2.16,12.7 h 138.71 l -1.55,-12.7" /><path
                   inkscape:connector-curvature="0"
                   id="path6176"
                   style="fill:#37a582;fill-opacity:1;fill-rule:nonzero;stroke:none"
                   d="m -3006.2025,14319.118 h 282.641 v 18.59 h -282.641 z" /><path
                   inkscape:connector-curvature="0"
                   id="path6178"
                   style="fill:#37a582;fill-opacity:1;fill-rule:nonzero;stroke:none"
                   d="m -3006.2025,14276.618 h 282.641 v 18.59 h -282.641 z" /><path
                   inkscape:connector-curvature="0"
                   id="path6180"
                   style="fill:#37a582;fill-opacity:1;fill-rule:nonzero;stroke:none"
                   d="m -3015.0025,14226.218 h 282.645 v 18.59 h -282.645 z" /><path
                   inkscape:connector-curvature="0"
                   id="path6182"
                   style="fill:#37a582;fill-opacity:1;fill-rule:nonzero;stroke:none"
                   d="m -3015.0025,14188.618 h 282.645 v 18.586 h -282.645 z" /><path
                   inkscape:connector-curvature="0"
                   id="path6184"
                   style="fill:#37a582;fill-opacity:1;fill-rule:nonzero;stroke:none"
                   d="m -3015.0025,14147.518 h 282.645 v 18.59 h -282.645 z" /><path
                   inkscape:connector-curvature="0"
                   id="path6186"
                   style="fill:#37a582;fill-opacity:1;fill-rule:nonzero;stroke:none"
                   d="m -3015.0025,14083.018 h 282.645 v 18.59 h -282.645 z" /><path
                   inkscape:connector-curvature="0"
                   id="path6188"
                   style="fill:#f5f5f5;fill-opacity:1;fill-rule:nonzero;stroke:none"
                   d="m -2813.0425,13821.318 -238.12,65.8 2.2,475.7 235.92,92.3 v -633.8" /><path
                   inkscape:connector-curvature="0"
                   id="path6190"
                   style="fill:#959595;fill-opacity:1;fill-rule:nonzero;stroke:none"
                   d="m -2705.9525,13887.118 h 26.6641 v 475.281 h -26.6641 z" /><path
                   inkscape:connector-curvature="0"
                   id="path6192"
                   style="fill:#e83735;fill-opacity:1;fill-rule:nonzero;stroke:none"
                   d="m -3356.8125,14319.118 h 282.637 v 18.59 h -282.637 z" /><path
                   inkscape:connector-curvature="0"
                   id="path6194"
                   style="fill:#e83735;fill-opacity:1;fill-rule:nonzero;stroke:none"
                   d="m -3356.8125,14248.218 h 282.637 v 18.586 h -282.637 z" /><path
                   inkscape:connector-curvature="0"
                   id="path6196"
                   style="fill:#e83735;fill-opacity:1;fill-rule:nonzero;stroke:none"
                   d="m -3356.8125,14217.018 h 282.637 v 18.574 h -282.637 z" /><path
                   inkscape:connector-curvature="0"
                   id="path6198"
                   style="fill:#e83735;fill-opacity:1;fill-rule:nonzero;stroke:none"
                   d="m -3356.8125,14138.218 h 282.637 v 18.582 h -282.637 z" /><path
                   inkscape:connector-curvature="0"
                   id="path6200"
                   style="fill:#5182cb;fill-opacity:1;fill-rule:nonzero;stroke:none"
                   d="m -3356.8125,14106.218 h 282.637 v 18.586 h -282.637 z" /><path
                   inkscape:connector-curvature="0"
                   id="path6202"
                   style="fill:#5182cb;fill-opacity:1;fill-rule:nonzero;stroke:none"
                   d="m -3356.8125,14073.718 h 282.637 v 18.578 h -282.637 z" /><path
                   inkscape:connector-curvature="0"
                   id="path6204"
                   style="fill:#37a582;fill-opacity:1;fill-rule:nonzero;stroke:none"
                   d="m -3356.8125,14012.118 h 282.637 v 18.574 h -282.637 z" /><path
                   inkscape:connector-curvature="0"
                   id="path6206"
                   style="fill:#37a582;fill-opacity:1;fill-rule:nonzero;stroke:none"
                   d="m -3356.8125,13971.018 h 282.637 v 18.586 h -282.637 z" /><path
                   inkscape:connector-curvature="0"
                   id="path6208"
                   style="fill:#39393a;fill-opacity:1;fill-rule:nonzero;stroke:none"
                   d="m -3288.5925,13949.918 c 1.51,-8.9 -2.89,-17.6 -9.84,-19.6 -6.94,-1.9 -13.78,3.7 -15.29,12.6 l -54.37,319.7 c -1.51,8.8 2.89,17.6 9.83,19.5 6.94,1.9 13.79,-3.7 15.29,-12.6 l 54.38,-319.6" /><path
                   inkscape:connector-curvature="0"
                   id="path6210"
                   style="fill:#2d2c2c;fill-opacity:1;fill-rule:nonzero;stroke:none"
                   d="m -3301.9825,13968.818 -53.35,313.7 c 5.84,-0.1 11.06,-5.4 12.36,-13 l 1.85,-10.8 c -1.61,-1.6 -2.45,-4.3 -1.99,-7 l 14.31,-84.2 c 0.46,-2.7 2.11,-4.7 4.09,-5.3 l 22.73,-133.6 v -59.8" /><path
                   inkscape:connector-curvature="0"
                   id="path6212"
                   style="fill:#6e7071;fill-opacity:1;fill-rule:nonzero;stroke:none"
                   d="m -3318.1425,14170.518 c 0.65,-3.8 -1.23,-7.5 -4.17,-8.3 -2.93,-0.9 -5.85,1.5 -6.49,5.3 l -14.31,84.2 c -0.64,3.7 1.22,7.4 4.16,8.3 2.95,0.8 5.85,-1.6 6.5,-5.4 l 14.31,-84.1" /><path
                   inkscape:connector-curvature="0"
                   id="path6214"
                   style="fill:#bbbab8;fill-opacity:1;fill-rule:nonzero;stroke:none"
                   d="m -3310.7625,13935.518 c -0.01,0 -0.01,0 -0.02,0 0.01,0 0.01,0 0.02,0 m -0.07,0.1 c -1.39,2 -2.41,4.5 -2.89,7.3 l -4.78,28.1 4.78,-28.1 c 0.48,-2.8 1.5,-5.3 2.89,-7.3 m -39.27,221.2 v 0 l -17.99,105.8 c -0.01,0 -0.02,0.1 -0.03,0.1 0.01,0 0.02,-0.1 0.03,-0.1 l 17.99,-105.8" /><path
                   inkscape:connector-curvature="0"
                   id="path6216"
                   style="fill:#bbbab8;fill-opacity:1;fill-rule:nonzero;stroke:none"
                   d="m -3368.1425,14262.918 c -0.01,0 -0.01,0 -0.01,0 0,0 0,0 0.01,0" /><path
                   inkscape:connector-curvature="0"
                   id="path6218"
                   style="fill:#484849;fill-opacity:1;fill-rule:nonzero;stroke:none"
                   d="m -3301.9825,13930.018 c -3.4,0.3 -6.56,2.3 -8.78,5.5 -0.01,0 -0.01,0 -0.02,0 -0.02,0 -0.03,0 -0.05,0.1 -1.39,2 -2.41,4.5 -2.89,7.3 l -4.78,28.1 -31.6,185.8 -17.99,105.8 c -0.01,0 -0.02,0.1 -0.03,0.1 -0.01,0.1 -0.01,0.1 -0.02,0.2 -0.01,0 -0.01,0 -0.01,0 -1.1,7.2 1.69,14.3 6.54,17.6 l 59.63,-350.5" /><path
                   inkscape:connector-curvature="0"
                   id="path6220"
                   style="fill:#45bf94;fill-opacity:1;fill-rule:nonzero;stroke:none"
                   d="m -3276.2625,13895.418 c 0,-9.1 -5.76,-16.5 -12.87,-16.5 -7.09,0 -12.85,7.4 -12.85,16.5 v 327.1 c 0,9.1 5.76,16.4 12.85,16.4 7.11,0 12.87,-7.3 12.87,-16.4 v -327.1" /><path
                   inkscape:connector-curvature="0"
                   id="path6222"
                   style="fill:#29334e;fill-opacity:1;fill-rule:nonzero;stroke:none"
                   d="m -3279.1925,13884.918 c 0.44,0.7 0.83,1.5 1.18,2.2 h 0.08 c -0.37,-0.8 -0.79,-1.5 -1.26,-2.2" /><path
                   inkscape:connector-curvature="0"
                   id="path6224"
                   style="fill:#adadab;fill-opacity:1;fill-rule:nonzero;stroke:none"
                   d="m -3277.9325,13887.118 h -0.08 c 1.11,2.4 1.75,5.3 1.75,8.3 v 75.6 -75.6 c 0,-3 -0.58,-5.9 -1.67,-8.3" /><path
                   inkscape:connector-curvature="0"
                   id="path6226"
                   style="fill:#ba302c;fill-opacity:1;fill-rule:nonzero;stroke:none"
                   d="m -3276.2625,14222.518 c 0,0.1 0,0.1 0,0.2 0,-0.1 0,-0.1 0,-0.2 m 0,0.3 c 0,0 0,0.1 0,0.1 0,0 0,-0.1 0,-0.1 m -0.01,0.2 c 0,0 0,0.1 0,0.1 0,0 0,-0.1 0,-0.1 m 0,0.2 c -0.01,0 -0.01,0.1 -0.01,0.1 0,0 0,-0.1 0.01,-0.1 m -0.01,0.2 c 0,0 0,0 -0.01,0.1 0.01,-0.1 0.01,-0.1 0.01,-0.1 m -0.01,0.2 c 0,0 0,0 0,0.1 0,-0.1 0,-0.1 0,-0.1 m -0.02,0.3 c 0,0 0,0 0,0 0,0 0,0 0,0 m -0.01,0.2 c 0,0 0,0 0,0 0,0 0,0 0,0 m -0.02,0.2 c 0,0 0,0 0,0 0,0 0,0 0,0 m -0.01,0.2 c 0,0 0,0 0,0 0,0 0,0 0,0" /><path
                   inkscape:connector-curvature="0"
                   id="path6228"
                   style="fill:#349a7a;fill-opacity:1;fill-rule:nonzero;stroke:none"
                   d="m -3286.2125,13879.618 v 358.9 c 5.2,-1.5 9.2,-7.1 9.86,-14 0,0 0,0 0,0 0,-0.1 0,-0.1 0.01,-0.2 0,0 0,0 0,0 0.01,-0.1 0.01,-0.1 0.02,-0.2 0,0 0,0 0,0 0,0 0.01,-0.1 0.01,-0.2 0,0 0,0 0,0 0.01,-0.1 0.01,-0.2 0.02,-0.2 0,-0.1 0,-0.1 0,-0.1 0,0 0,-0.1 0,-0.1 0.01,-0.1 0.01,-0.1 0.01,-0.1 0,0 0,-0.1 0,-0.1 0,0 0,-0.1 0.01,-0.1 0,0 0,-0.1 0,-0.1 0,0 0,-0.1 0,-0.1 0,0 0,-0.1 0.01,-0.1 0,0 0,-0.1 0,-0.1 0,-0.1 0,-0.1 0,-0.1 0,-0.1 0,-0.1 0,-0.2 v -327.1 c 0,-3 -0.64,-5.9 -1.75,-8.3 v 0 c -0.35,-0.7 -0.74,-1.5 -1.18,-2.2 -0.01,0 -0.01,0 -0.02,0 -3.89,-5.3 -7,-5.3 -7,-5.3" /><path
                   inkscape:connector-curvature="0"
                   id="path6230"
                   style="fill:#32435b;fill-opacity:1;fill-rule:nonzero;stroke:none"
                   d="m -3268.4725,14118.918 c 0,-3.8 -2.45,-6.9 -5.46,-6.9 -3.01,0 -5.45,3.1 -5.45,6.9 v 86.2 c 0,3.8 2.44,6.9 5.45,6.9 3.01,0 5.46,-3.1 5.46,-6.9 v -86.2" /><path
                   inkscape:connector-curvature="0"
                   id="path6232"
                   style="fill:#e2e1df;fill-opacity:1;fill-rule:nonzero;stroke:none"
                   d="m -3301.9125,13893.618 c 0,0 0,0 -0.01,0.1 0.01,-0.1 0.01,-0.1 0.01,-0.1 m -0.01,0.2 c 0,0 -0.01,0 -0.01,0.1 0,-0.1 0.01,-0.1 0.01,-0.1 m -0.02,0.2 c 0,0 0,0 0,0 0,0 0,0 0,0 m -0.01,0.1 c 0,0.1 0,0.1 -0.01,0.1 0.01,0 0.01,0 0.01,-0.1 m -0.01,0.3 c 0,0 -0.01,0.1 -0.01,0.1 0,0 0.01,-0.1 0.01,-0.1 m -0.01,0.2 c 0,0 0,0.1 0,0.1 0,0 0,-0.1 0,-0.1 m 0,0.2 c 0,0 -0.01,0.1 -0.01,0.1 0,0 0.01,-0.1 0.01,-0.1 m -0.01,0.2 c 0,0 0,0.1 0,0.1 0,0 0,-0.1 0,-0.1 m 0,0.2 c 0,0 0,0.1 0,0.2 v 0 c 0,-0.1 0,-0.2 0,-0.2" /><path
                   inkscape:connector-curvature="0"
                   id="path6234"
                   style="fill:#ea4646;fill-opacity:1;fill-rule:nonzero;stroke:none"
                   d="m -3301.9825,14222.518 c 0,0.1 0,0.1 0,0.2 0,-0.1 0,-0.1 0,-0.2 m 0,0.3 c 0,0 0,0.1 0,0.1 0,0 0,-0.1 0,-0.1 m 0,0.2 c 0,0 0.01,0.1 0.01,0.1 0,-0.1 -0.01,-0.1 -0.01,-0.1 m 0.01,0.2 c 0,0 0,0 0,0.1 0,-0.1 0,-0.1 0,-0.1 m 0,0.2 c 0,0 0.01,0 0.01,0 0,0 -0.01,0 -0.01,0 m 0.02,0.3 c 0,0 0,0 0,0 0,0 0,0 0,0 m 0.01,0.2 c 0,0 0,0 0,0 0,0 0,0 0,0 m 0.01,0.2 c 0,0 0,0 0.01,0 -0.01,0 -0.01,0 -0.01,0" /><path
                   inkscape:connector-curvature="0"
                   id="path6236"
                   style="fill:#51c39d;fill-opacity:1;fill-rule:nonzero;stroke:none"
                   d="m -3292.6525,13879.618 c -4.95,1.8 -8.7,7.3 -9.26,14 0,0 0,0 -0.01,0.1 0,0 0,0 0,0.1 0,0 -0.01,0 -0.01,0.1 0,0 -0.01,0 -0.01,0.1 0,0 0,0 0,0 0,0.1 -0.01,0.1 -0.01,0.1 0,0.1 0,0.1 -0.01,0.1 0,0.1 0,0.1 0,0.2 0,0 -0.01,0.1 -0.01,0.1 0,0 0,0.1 0,0.1 0,0 0,0.1 0,0.1 0,0 0,0.1 0,0.1 0,0 -0.01,0.1 -0.01,0.1 0,0 0,0.1 0,0.1 0,0 0,0.1 0,0.1 0,0 0,0.1 0,0.1 0,0 0,0.1 0,0.2 v 327.1 c 0,0.1 0,0.1 0,0.2 0,0 0,0 0,0.1 0,0 0,0.1 0,0.1 0,0 0,0 0,0.1 0,0 0.01,0 0.01,0.1 0,0 0,0 0,0.1 0,0 0,0 0,0.1 0,0 0,0 0,0.1 0,0 0.01,0 0.01,0 0,0.1 0,0.2 0.01,0.3 0,0 0,0 0,0 0,0.1 0.01,0.1 0.01,0.2 0,0 0,0 0,0 0,0.1 0.01,0.1 0.01,0.2 0,0 0,0 0.01,0 0.5,6.8 4.27,12.4 9.27,14.2 v -358.7" /><path
                   inkscape:connector-curvature="0"
                   id="path6238"
                   style="fill:#e83735;fill-opacity:1;fill-rule:nonzero;stroke:none"
                   d="m -3201.9925,13958.518 c -1.1,-8.9 -7.68,-15.1 -14.69,-13.7 -7.02,1.4 -11.82,9.8 -10.72,18.8 l 39.45,323.2 c 1.1,9 7.67,15.1 14.69,13.7 7.02,-1.4 11.82,-9.8 10.72,-18.7 l -39.45,-323.3" /><path
                   inkscape:connector-curvature="0"
                   id="path6240"
                   style="fill:#adadab;fill-opacity:1;fill-rule:nonzero;stroke:none"
                   d="m -3213.6325,13944.718 c 0.49,0 0.97,0.1 1.44,0.2 -0.76,-0.2 -1.28,-0.2 -1.44,-0.2 m 7.47,4.1 c 2.16,2.4 3.69,5.8 4.17,9.7 l 1.52,12.5 -1.52,-12.5 c -0.48,-3.9 -1.89,-7.4 -4.17,-9.7" /><path
                   inkscape:connector-curvature="0"
                   id="path6242"
                   style="fill:#adadab;fill-opacity:1;fill-rule:nonzero;stroke:none"
                   d="m -3163.8825,14270.818 1.34,11 c 0.01,0 0.02,0.1 0.03,0.2 -0.01,-0.1 -0.02,-0.2 -0.03,-0.2 l -1.34,-11 v 0 m 1.37,11.2 c 0.01,0.1 0.01,0.1 0.02,0.2 -0.01,-0.1 -0.01,-0.1 -0.02,-0.2 m 0.02,0.2 c 0.01,0.1 0.02,0.1 0.02,0.2 0,-0.1 -0.01,-0.1 -0.02,-0.2 m 0.02,0.2 c 0.01,0.1 0.01,0.1 0.01,0.2 0,-0.1 0,-0.1 -0.01,-0.2 m 0.02,0.2 c 0.01,0.1 0.01,0.1 0.01,0.2 0,-0.1 0,-0.1 -0.01,-0.2 m 0.01,0.2 c 0.02,0.1 0.02,0.3 0.03,0.4 -0.01,-0.1 -0.01,-0.3 -0.03,-0.4 m 0.03,0.4 c 0.01,0.1 0.01,0.2 0.01,0.2 0,0 0,-0.1 -0.01,-0.2 m 0.01,0.3 c 0,0 0,0.1 0.01,0.1 -0.01,0 -0.01,-0.1 -0.01,-0.1 m 0.01,0.2 c 0,0 0,0.1 0,0.1 0,0 0,-0.1 0,-0.1 m 0.01,0.2 c 0,0 0,0.1 0,0.1 0,0 0,-0.1 0,-0.1 m 0,0.2 c 0,0 0,0 0,0.1 0,-0.1 0,-0.1 0,-0.1 m 0,0.3 c 0,0 0,0 0,0 0,0 0,0 0,0 m 0,0.2 c 0,0 0,0 0,0 0,0 0,0 0,0 m -0.01,0.2 c 0,0 0,0 0,0 0,0 0,0 0,0 m 0,0.2 c 0,0 0,0 0,0 0,0 0,0 0,0" /><path
                   inkscape:connector-curvature="0"
                   id="path6244"
                   style="fill:#ba302c;fill-opacity:1;fill-rule:nonzero;stroke:none"
                   d="m -3213.6825,13944.718 43.25,354.8 c 4.66,-2.4 7.83,-8.1 8.04,-14.5 0,0 0,0 0,0 0,-0.1 0,-0.1 0,-0.2 0,0 0,0 0,0 0.01,-0.1 0.01,-0.1 0.01,-0.2 0,0 0,0 0,0 0,-0.1 0,-0.1 0,-0.2 0,0 0,0 0,0 0,-0.1 0,-0.2 0,-0.2 0,-0.1 0,-0.1 0,-0.1 0,-0.1 0,-0.1 0,-0.1 0,0 0,-0.1 0,-0.1 -0.01,-0.1 -0.01,-0.1 -0.01,-0.1 0,0 0,-0.1 0,-0.1 0,-0.1 0,-0.1 0,-0.1 -0.01,0 -0.01,-0.1 -0.01,-0.1 0,-0.1 0,-0.1 0,-0.1 0,0 0,-0.1 -0.01,-0.2 0,0 0,0 0,0 -0.01,-0.1 -0.01,-0.3 -0.03,-0.4 0,0 0,0 0,0 0,-0.1 0,-0.1 -0.01,-0.2 0,0 0,0 -0.01,0 0,-0.1 0,-0.1 -0.01,-0.2 0,0 0,0 0,0 0,-0.1 -0.01,-0.1 -0.02,-0.2 0,0 0,0 0,0 -0.01,-0.1 -0.01,-0.1 -0.02,-0.2 0,0 0,0 0,0 -0.01,-0.1 -0.02,-0.2 -0.03,-0.2 l -1.34,-11 c -1.95,-0.8 -3.5,-2.9 -3.84,-5.7 l -10.39,-85.1 c -0.34,-2.7 0.64,-5.3 2.32,-6.8 l -2,-16.4 -2.27,-18.6 -1.64,-13.4 -2.27,-18.6 -1.7,-13.9 -2.27,-18.6 -5.25,-43.1 -2.27,-18.5 -2.75,-22.5 -2.26,-18.6 -1.52,-12.5 c -0.48,-3.9 -2.01,-7.3 -4.17,-9.7 0,0 0,0 0,0 -2.39,-2.5 -4.62,-3.5 -6.03,-3.9 -0.47,-0.1 -0.95,-0.2 -1.44,-0.2 -0.04,0 -0.05,0 -0.05,0" /><path
                   inkscape:connector-curvature="0"
                   id="path6246"
                   style="fill:#232417;fill-opacity:1;fill-rule:nonzero;stroke:none"
                   d="m -3167.3325,14177.918 c -0.47,-3.8 -3.25,-6.4 -6.23,-5.8 -2.97,0.6 -5.02,4.1 -4.55,7.9 l 10.39,85.1 c 0.46,3.9 3.25,6.5 6.23,5.9 2.98,-0.6 5.01,-4.2 4.55,-8 l -10.39,-85.1" /><path
                   inkscape:connector-curvature="0"
                   id="path6248"
                   style="fill:#d3d2d0;fill-opacity:1;fill-rule:nonzero;stroke:none"
                   d="m -3227.4825,13962.918 c 0.01,0 0.01,0 0.01,0 0,0 0,0 -0.01,0 m 0.02,0.1 c 0,0.1 0,0.1 0.01,0.1 -0.01,0 -0.01,0 -0.01,-0.1 m 0.02,0.2 c 0,0 0,0.1 0.01,0.1 -0.01,0 -0.01,-0.1 -0.01,-0.1 m 0.02,0.2 c 0,0.1 0.01,0.1 0.02,0.2 -0.01,-0.1 -0.02,-0.1 -0.02,-0.2 m 39.47,323.4 c 0.01,0.1 0.01,0.1 0.02,0.2 -0.01,-0.1 -0.01,-0.1 -0.02,-0.2 m 0.03,0.2 c 0,0.1 0.01,0.1 0.02,0.2 -0.01,-0.1 -0.02,-0.1 -0.02,-0.2 m 0.02,0.2 c 0.4,2.8 1.34,5.4 2.67,7.4 -1.33,-2 -2.27,-4.6 -2.67,-7.4 m 2.68,7.5 c 0.02,0 0.05,0 0.07,0.1 -0.02,-0.1 -0.05,-0.1 -0.07,-0.1 m 0.1,0.1 c 0.01,0 0.03,0.1 0.04,0.1 -0.01,0 -0.03,-0.1 -0.04,-0.1 m 0.1,0.2 c 0.01,0 0.01,0 0.01,0 0,0 0,0 -0.01,0" /><path
                   inkscape:connector-curvature="0"
                   id="path6250"
                   style="fill:#dc3c3b;fill-opacity:1;fill-rule:nonzero;stroke:none"
                   d="m -3220.0925,13946.218 c -4.91,2.9 -8.01,9.5 -7.39,16.7 0.01,0 0.01,0 0.01,0 0,0.1 0.01,0.1 0.01,0.1 0,0.1 0,0.1 0.01,0.1 0,0.1 0,0.1 0.01,0.1 0,0 0,0.1 0.01,0.1 0,0.1 0.01,0.1 0.01,0.1 0,0.1 0.01,0.1 0.02,0.2 v 0 l 39.45,323.2 v 0 c 0.01,0.1 0.01,0.1 0.02,0.2 0,0 0.01,0 0.01,0 0,0.1 0.01,0.1 0.02,0.2 0,0 0,0 0,0 0.4,2.8 1.34,5.4 2.67,7.4 0,0 0.01,0 0.01,0.1 0.02,0 0.05,0 0.07,0.1 0.01,0 0.02,0 0.03,0 0.01,0 0.03,0.1 0.04,0.1 0.02,0 0.04,0 0.06,0.1 0.01,0 0.01,0 0.01,0 2.06,3 4.97,5.1 8.19,5.6 l -43.27,-354.4" /><path
                   inkscape:connector-curvature="0"
                   id="path6252"
                   style="fill:#162e2f;fill-opacity:1;fill-rule:evenodd;stroke:none"
                   d="m -2616.5925,13390.418 h 542.055 v 25.164 h -542.055 z" /><path
                   inkscape:connector-curvature="0"
                   id="path6254"
                   style="fill:#354a88;fill-opacity:1;fill-rule:evenodd;stroke:none"
                   d="m -2768.8825,13698.718 c 0.71,0.2 1.43,0.2 2.16,0.3 -0.73,-0.1 -1.45,-0.1 -2.16,-0.3 m -3.56,-0.7 c 0.55,0.1 1.11,0.2 1.67,0.3 -0.56,-0.1 -1.12,-0.2 -1.67,-0.3 m -3.44,-1 c 0.43,0.1 0.88,0.2 1.32,0.4 -0.44,-0.2 -0.89,-0.3 -1.32,-0.4 m -3.31,-1.3 c 0.35,0.2 0.7,0.3 1.03,0.4 -0.33,-0.1 -0.68,-0.2 -1.03,-0.4 m -3.13,-1.5 c 0.26,0.2 0.52,0.3 0.78,0.4 -0.26,-0.1 -0.52,-0.2 -0.78,-0.4 m -2.92,-1.6 c 0.17,0.1 0.34,0.2 0.52,0.3 -0.18,-0.1 -0.35,-0.2 -0.52,-0.3 m -2.67,-1.8 0.24,0.2 -0.24,-0.2 m 22.67,8.4 c 1.23,0.1 2.46,0.2 3.69,0.2 -1.23,0 -2.46,-0.1 -3.69,-0.2 m -33.29,-21.8 c -0.15,-0.4 -0.31,-0.8 -0.43,-1.3 0.12,0.5 0.28,0.9 0.43,1.3 m 1.01,2.4 c -0.12,-0.2 -0.27,-0.5 -0.38,-0.7 0.11,0.2 0.26,0.5 0.38,0.7 m -1.77,-5.1 c -0.1,-0.6 -0.2,-1.1 -0.26,-1.6 0.06,0.5 0.16,1 0.26,1.6 m 856.6,47.2 h -815.32 c -37.37,0 -48.91,-23.5 -41.7,-51.2 0,0.3 0.06,0.6 0.07,1 -0.08,-1.9 0.07,-3.8 0.59,-5.7 l 59,-222.8 c 8.92,-33.8 16.92,-34.8 60.91,-34.8 l 681.71,0.1 c 35.4,0 52.65,-0.1 59.67,33.9 l 45.96,223.6 c 0.16,0.8 0.24,1.7 0.31,2.5 h 0.02 l 2.22,18.9 c 3.15,27.2 -32.66,34.5 -53.44,34.5" /><path
                   inkscape:connector-curvature="0"
                   id="path6256"
                   style="fill:#1d263d;fill-opacity:1;fill-rule:nonzero;stroke:none"
                   d="m -1891.4725,13668.518 v 0 c -3.03,14.1 -20.59,30.9 -37.83,30.9 h -320.45 l 32.6,22.5 h 274.46 c 19.88,0 53.53,-6.7 53.62,-31.1 0.02,-1.1 -0.06,-2.2 -0.18,-3.4 l -2.22,-18.9" /><path
                   inkscape:connector-curvature="0"
                   id="path6258"
                   style="fill:#2f6e62;fill-opacity:1;fill-rule:nonzero;stroke:none"
                   d="m -2799.7125,13670.718 c 0,0 0,0 0,0.1 0,-0.1 0,-0.1 0,-0.1" /><path
                   inkscape:connector-curvature="0"
                   id="path6260"
                   style="fill:#1d263d;fill-opacity:1;fill-rule:nonzero;stroke:none"
                   d="m -2799.7125,13670.718 c -1.35,5.2 -2.04,10.2 -2.03,15 0.05,20.7 13.36,36.2 43.73,36.2 h 218.89 c -0.57,-0.4 -1.13,-0.8 -1.68,-1.2 -9.19,-6.3 -17.44,-13.5 -24.74,-21.3 h -196.01 v 0 c -18.73,0 -38.3,-13 -38.16,-28.6 0,-0.1 0,-0.1 0,-0.1 v 0 m 456.07,28.7 h -2.09 c -0.28,0.3 -0.55,0.6 -0.82,0.9 l -5.07,9.7 -3.64,-1.2 c -5.34,4.8 -10.95,9.2 -16.82,13.1 h 61.03 c 0,0 0,0 0,0 l -32.59,-22.5 m -54.21,0 h -115.48 c 18.08,10.2 37.94,15.2 57.63,15.2 20.17,0 40.16,-5.2 57.85,-15.2" /><path
                   inkscape:connector-curvature="0"
                   id="path6262"
                   style="fill:#d9dee9;fill-opacity:1;fill-rule:nonzero;stroke:none"
                   d="m -2706.1525,13424.918 -52.06,258.8 180.04,0.2 c -35.32,-50 -37.74,-118.7 -1,-171.9 29.12,-42.3 76.01,-64.9 123.69,-64.9 4.22,0 8.42,0.1 12.63,0.5 l 5.4,-9.4 17.07,7.1 c 3.65,-3.1 7.81,-5.5 12.32,-7.1 l 2.26,-13.2 -300.35,-0.1 m 324.74,0.1 1.79,13.5 c 4.48,1.7 8.59,4.2 12.16,7.3 l 17.15,-6.3 11.5,19.9 -14.9,11.4 c 0.33,2.1 0.5,4.3 0.5,6.5 0,2.4 -0.22,4.9 -0.62,7.2 l 14.3,11.9 -1.89,3.3 c 11.48,13.4 20.32,28.6 26.35,44.8 l 17.24,5.5 -4.84,26.7 c 5.54,4.5 10.19,9.9 13.8,15.9 l 27.09,-1.2 7.15,33.3 -26.18,9.4 c -0.5,3.1 -1.23,6.2 -2.24,9.3 -1.12,3.5 -2.55,6.9 -4.2,10 l 14.78,23.2 -8.36,7.6 352.63,0.4 -44.76,-259.5 -408.45,-0.1 m -74.09,54.8 c -37.3,0 -73.97,17.7 -96.74,50.7 22.75,-33 59.41,-50.7 96.69,-50.7 6.84,0 13.72,0.6 20.52,1.8 0,0 0,0 -0.02,0 -6.78,-1.2 -13.62,-1.8 -20.45,-1.8 m 12.64,10.1 c -77.11,1.1 -113.86,58.5 -129.56,95.7 1.86,-18.9 8.25,-37.5 19.61,-54.2 -33.09,48.8 -24.45,113.8 18.09,152.5 l 153.53,0.2 2.03,-11.3 c -5.54,-4.4 -10.19,-9.8 -13.81,-15.9 l -27.08,1.2 -7.17,-33.2 26.2,-9.5 c 0.5,-3.1 1.23,-6.2 2.24,-9.3 1.12,-3.5 2.53,-6.8 4.2,-9.9 l -14.8,-23.3 25.25,-22.8 20.89,17.7 c 6.34,-2.6 13.13,-4.1 20.08,-4.4 -5.61,-18.7 -15.88,-36.1 -30.46,-50.3 -2.15,1.3 -4.42,2.4 -6.8,3.2 l -3.05,17.9 h -22.96 l -2.42,-18.2 c -4.49,-1.7 -8.6,-4.2 -12.16,-7.3 l -17.16,6.4 -11.48,-19.9 6.79,-5.3 m -38.33,36.1 c 0.5,-0.8 1.05,-1.5 1.69,-2.1 0.7,-0.8 1.45,-1.5 2.24,-2.1 l -1,-7.7 9.12,-2.8 3.23,7 c 1.96,0.1 3.9,0.6 5.76,1.3 l 5.97,-4.5 6.99,6.5 -4.38,6.2 c 0.86,1.8 1.41,3.7 1.61,5.6 l 7.04,3 -2.14,9.3 -7.78,-0.7 c -0.49,0.7 -1.04,1.4 -1.67,2.1 -0.7,0.7 -1.45,1.4 -2.25,2 l 1.01,7.7 -9.13,2.8 -3.22,-7 c -1.96,-0.1 -3.92,-0.5 -5.75,-1.3 l -5.98,4.6 -7.01,-6.5 4.4,-6.3 c -0.87,-1.8 -1.43,-3.7 -1.63,-5.6 l -7.02,-3 2.13,-9.3 7.77,0.8 m -26.99,49.7 c 1.03,-0.9 2.14,-1.6 3.32,-2.3 1.34,-0.7 2.71,-1.3 4.1,-1.8 l 2.06,-11.3 14.15,0.2 1.38,11.3 c 2.73,1 5.28,2.6 7.52,4.5 l 10.53,-3.7 6.89,12.3 -9.02,6.8 c 0.42,2.9 0.31,5.9 -0.28,8.7 l 8.59,7.3 -7.25,12.2 -10.63,-4.5 c -1.03,0.8 -2.15,1.5 -3.32,2.1 -1.34,0.8 -2.72,1.4 -4.11,1.9 l -2.05,11.3 -14.16,-0.2 -1.38,-11.3 c -2.71,-1.1 -5.26,-2.6 -7.51,-4.5 l -10.51,3.7 -6.94,-12.3 9.05,-6.8 c -0.42,-2.9 -0.31,-5.9 0.29,-8.7 l -8.6,-7.3 7.24,-12.2 10.64,4.6 m -44.06,-45.2 c -0.1,0.2 -0.19,0.3 -0.26,0.4 0.07,-0.1 0.16,-0.2 0.26,-0.4 m -0.32,0.5 c -0.07,0.1 -0.15,0.2 -0.22,0.3 0.07,-0.1 0.15,-0.2 0.22,-0.3" /><path
                   inkscape:connector-curvature="0"
                   id="path6264"
                   style="fill:#c6c5c3;fill-opacity:1;fill-rule:evenodd;stroke:none"
                   d="m -2717.4325,13400.818 h 748.52 c 12.4,0 22.55,-10.1 22.55,-22.5 v -412.8 c 0,-12.4 -10.15,-22.5 -22.55,-22.5 h -748.52 c -12.38,0 -22.55,10.1 -22.55,22.5 v 412.8 c 0,12.4 10.17,22.5 22.55,22.5" /><path
                   inkscape:connector-curvature="0"
                   id="path6266"
                   style="fill:#999a99;fill-opacity:1;fill-rule:nonzero;stroke:none"
                   d="m -1968.9125,12943.018 h -540.15 l 166.01,159.3 h 357.34 v 259.9 h -86.51 l 40.28,38.6 h 63.03 c 12.4,0 22.55,-10.1 22.55,-22.5 v -412.8 c 0,-12.4 -10.15,-22.5 -22.55,-22.5" /><path
                   inkscape:connector-curvature="0"
                   id="path6268"
                   style="fill:#243464;fill-opacity:1;fill-rule:evenodd;stroke:none"
                   d="m -2449.2125,12971.618 h 212.02 v 110.977 h -212.02 z" /><path
                   inkscape:connector-curvature="0"
                   id="path6270"
                   style="fill:#858686;fill-opacity:1;fill-rule:nonzero;stroke:none"
                   d="m -2343.0525,13102.318 h -357.58 v 259.9 h 628.41 l -270.83,-259.9" /><path
                   inkscape:connector-curvature="0"
                   id="path6272"
                   style="fill:#66686a;fill-opacity:1;fill-rule:nonzero;stroke:none"
                   d="m -1985.7125,13102.318 h -357.34 l 270.83,259.9 h 86.51 v -259.9" /><path
                   inkscape:connector-curvature="0"
                   id="path6274"
                   style="fill:#2e2d2d;fill-opacity:1;fill-rule:evenodd;stroke:none"
                   d="m -2685.1525,13346.818 h 33.18 c 1.97,0 3.53,-2.1 3.53,-4.6 v -35.8 c 0,-2.5 -1.56,-4.6 -3.53,-4.6 h -33.18 c -1.97,0 -3.6,2.1 -3.6,4.6 v 35.8 c 0,2.5 1.63,4.6 3.6,4.6" /><path
                   inkscape:connector-curvature="0"
                   id="path6276"
                   style="fill:#2e2d2d;fill-opacity:1;fill-rule:evenodd;stroke:none"
                   d="m -2631.3025,13346.818 h 33.17 c 1.96,0 3.6,-2.1 3.6,-4.6 v -35.8 c 0,-2.5 -1.64,-4.6 -3.6,-4.6 h -33.17 c -1.96,0 -3.59,2.1 -3.59,4.6 v 35.8 c 0,2.5 1.63,4.6 3.59,4.6" /><path
                   inkscape:connector-curvature="0"
                   id="path6278"
                   style="fill:#2e2d2d;fill-opacity:1;fill-rule:evenodd;stroke:none"
                   d="m -2577.4025,13346.818 h 33.11 c 1.98,0 3.6,-2.1 3.6,-4.6 v -35.8 c 0,-2.5 -1.62,-4.6 -3.6,-4.6 h -33.11 c -1.97,0 -3.6,2.1 -3.6,4.6 v 35.8 c 0,2.5 1.63,4.6 3.6,4.6" /><path
                   inkscape:connector-curvature="0"
                   id="path6280"
                   style="fill:#2e2d2d;fill-opacity:1;fill-rule:evenodd;stroke:none"
                   d="m -2523.5525,13346.818 h 33.12 c 2.03,0 3.58,-2.1 3.58,-4.6 v -35.8 c 0,-2.5 -1.55,-4.6 -3.58,-4.6 h -33.12 c -1.96,0 -3.59,2.1 -3.59,4.6 v 35.8 c 0,2.5 1.63,4.6 3.59,4.6" /><path
                   inkscape:connector-curvature="0"
                   id="path6282"
                   style="fill:#2e2d2d;fill-opacity:1;fill-rule:evenodd;stroke:none"
                   d="m -2469.7125,13346.818 h 33.19 c 1.96,0 3.58,-2.1 3.58,-4.6 v -35.8 c 0,-2.5 -1.62,-4.6 -3.58,-4.6 h -33.19 c -1.96,0 -3.59,2.1 -3.59,4.6 v 35.8 c 0,2.5 1.63,4.6 3.59,4.6" /><path
                   inkscape:connector-curvature="0"
                   id="path6284"
                   style="fill:#2e2d2d;fill-opacity:1;fill-rule:evenodd;stroke:none"
                   d="m -2415.8025,13346.818 h 33.12 c 1.96,0 3.6,-2.1 3.6,-4.6 v -35.8 c 0,-2.5 -1.64,-4.6 -3.6,-4.6 h -33.12 c -1.96,0 -3.59,2.1 -3.59,4.6 v 35.8 c 0,2.5 1.63,4.6 3.59,4.6" /><path
                   inkscape:connector-curvature="0"
                   id="path6286"
                   style="fill:#2e2d2d;fill-opacity:1;fill-rule:evenodd;stroke:none"
                   d="m -2361.9625,13346.818 h 33.12 c 2.03,0 3.6,-2.1 3.6,-4.6 v -35.8 c 0,-2.5 -1.57,-4.6 -3.6,-4.6 h -33.12 c -1.96,0 -3.59,2.1 -3.59,4.6 v 35.8 c 0,2.5 1.63,4.6 3.59,4.6" /><path
                   inkscape:connector-curvature="0"
                   id="path6288"
                   style="fill:#2e2d2d;fill-opacity:1;fill-rule:evenodd;stroke:none"
                   d="m -2308.1225,13346.818 h 33.19 c 1.96,0 3.6,-2.1 3.6,-4.6 v -35.8 c 0,-2.5 -1.64,-4.6 -3.6,-4.6 h -33.19 c -1.96,0 -3.57,2.1 -3.57,4.6 v 35.8 c 0,2.5 1.61,4.6 3.57,4.6" /><path
                   inkscape:connector-curvature="0"
                   id="path6290"
                   style="fill:#2e2d2d;fill-opacity:1;fill-rule:evenodd;stroke:none"
                   d="m -2254.2125,13346.818 h 33.12 c 1.98,0 3.6,-2.1 3.6,-4.6 v -35.8 c 0,-2.5 -1.62,-4.6 -3.6,-4.6 h -33.12 c -2.03,0 -3.59,2.1 -3.59,4.6 v 35.8 c 0,2.5 1.56,4.6 3.59,4.6" /><path
                   inkscape:connector-curvature="0"
                   id="path6292"
                   style="fill:#2e2d2d;fill-opacity:1;fill-rule:evenodd;stroke:none"
                   d="m -2200.3525,13346.818 h 33.12 c 2.02,0 3.59,-2.1 3.59,-4.6 v -35.8 c 0,-2.5 -1.57,-4.6 -3.59,-4.6 h -33.12 c -1.98,0 -3.59,2.1 -3.59,4.6 v 35.8 c 0,2.5 1.61,4.6 3.59,4.6" /><path
                   inkscape:connector-curvature="0"
                   id="path6294"
                   style="fill:#2e2d2d;fill-opacity:1;fill-rule:evenodd;stroke:none"
                   d="m -2146.5125,13346.818 h 33.19 c 1.96,0 3.58,-2.1 3.58,-4.6 v -35.8 c 0,-2.5 -1.62,-4.6 -3.58,-4.6 h -33.19 c -1.98,0 -3.59,2.1 -3.59,4.6 v 35.8 c 0,2.5 1.61,4.6 3.59,4.6" /><path
                   inkscape:connector-curvature="0"
                   id="path6296"
                   style="fill:#2e2d2d;fill-opacity:1;fill-rule:evenodd;stroke:none"
                   d="m -2604.2925,13284.418 h 33.12 c 1.96,0 3.59,-2.1 3.59,-4.7 v -35.7 c 0,-2.5 -1.63,-4.6 -3.59,-4.6 h -33.12 c -1.96,0 -3.59,2.1 -3.59,4.6 v 35.7 c 0,2.6 1.63,4.7 3.59,4.7" /><path
                   inkscape:connector-curvature="0"
                   id="path6298"
                   style="fill:#2e2d2d;fill-opacity:1;fill-rule:evenodd;stroke:none"
                   d="m -2550.4525,13284.418 h 33.19 c 1.96,0 3.6,-2.1 3.6,-4.7 v -35.7 c 0,-2.5 -1.64,-4.6 -3.6,-4.6 h -33.19 c -1.96,0 -3.58,2.1 -3.58,4.6 v 35.7 c 0,2.6 1.62,4.7 3.58,4.7" /><path
                   inkscape:connector-curvature="0"
                   id="path6300"
                   style="fill:#2e2d2d;fill-opacity:1;fill-rule:evenodd;stroke:none"
                   d="m -2496.5925,13284.418 h 33.19 c 1.94,0 3.57,-2.1 3.57,-4.7 v -35.7 c 0,-2.5 -1.63,-4.6 -3.57,-4.6 h -33.19 c -1.96,0 -3.52,2.1 -3.52,4.6 v 35.7 c 0,2.6 1.56,4.7 3.52,4.7" /><path
                   inkscape:connector-curvature="0"
                   id="path6302"
                   style="fill:#2e2d2d;fill-opacity:1;fill-rule:evenodd;stroke:none"
                   d="m -2442.7025,13284.418 h 33.14 c 1.96,0 3.57,-2.1 3.57,-4.7 v -35.7 c 0,-2.5 -1.61,-4.6 -3.57,-4.6 h -33.14 c -1.96,0 -3.58,2.1 -3.58,4.6 v 35.7 c 0,2.6 1.62,4.7 3.58,4.7" /><path
                   inkscape:connector-curvature="0"
                   id="path6304"
                   style="fill:#2e2d2d;fill-opacity:1;fill-rule:evenodd;stroke:none"
                   d="m -2388.8425,13284.418 h 33.19 c 1.96,0 3.52,-2.1 3.52,-4.7 v -35.7 c 0,-2.5 -1.56,-4.6 -3.52,-4.6 h -33.19 c -1.96,0 -3.6,2.1 -3.6,4.6 v 35.7 c 0,2.6 1.64,4.7 3.6,4.7" /><path
                   inkscape:connector-curvature="0"
                   id="path6306"
                   style="fill:#2e2d2d;fill-opacity:1;fill-rule:evenodd;stroke:none"
                   d="m -2335.0025,13284.418 h 33.19 c 1.96,0 3.59,-2.1 3.59,-4.7 v -35.7 c 0,-2.5 -1.63,-4.6 -3.59,-4.6 h -33.19 c -1.96,0 -3.6,2.1 -3.6,4.6 v 35.7 c 0,2.6 1.64,4.7 3.6,4.7" /><path
                   inkscape:connector-curvature="0"
                   id="path6308"
                   style="fill:#2e2d2d;fill-opacity:1;fill-rule:evenodd;stroke:none"
                   d="m -2281.0925,13284.418 h 33.12 c 1.96,0 3.59,-2.1 3.59,-4.7 v -35.7 c 0,-2.5 -1.63,-4.6 -3.59,-4.6 h -33.12 c -1.96,0 -3.59,2.1 -3.59,4.6 v 35.7 c 0,2.6 1.63,4.7 3.59,4.7" /><path
                   inkscape:connector-curvature="0"
                   id="path6310"
                   style="fill:#2e2d2d;fill-opacity:1;fill-rule:evenodd;stroke:none"
                   d="m -2227.2525,13284.418 h 33.19 c 1.96,0 3.52,-2.1 3.52,-4.7 v -35.7 c 0,-2.5 -1.56,-4.6 -3.52,-4.6 h -33.19 c -1.96,0 -3.58,2.1 -3.58,4.6 v 35.7 c 0,2.6 1.62,4.7 3.58,4.7" /><path
                   inkscape:connector-curvature="0"
                   id="path6312"
                   style="fill:#2e2d2d;fill-opacity:1;fill-rule:evenodd;stroke:none"
                   d="m -2173.4125,13284.418 h 33.19 c 1.96,0 3.59,-2.1 3.59,-4.7 v -35.7 c 0,-2.5 -1.63,-4.6 -3.59,-4.6 h -33.19 c -1.96,0 -3.6,2.1 -3.6,4.6 v 35.7 c 0,2.6 1.64,4.7 3.6,4.7" /><path
                   inkscape:connector-curvature="0"
                   id="path6314"
                   style="fill:#2e2d2d;fill-opacity:1;fill-rule:evenodd;stroke:none"
                   d="m -2119.5025,13284.418 h 33.13 c 1.97,0 3.58,-2.1 3.58,-4.7 v -35.7 c 0,-2.5 -1.61,-4.6 -3.58,-4.6 h -33.13 c -1.96,0 -3.59,2.1 -3.59,4.6 v 35.7 c 0,2.6 1.63,4.7 3.59,4.7" /><path
                   inkscape:connector-curvature="0"
                   id="path6316"
                   style="fill:#2e2d2d;fill-opacity:1;fill-rule:evenodd;stroke:none"
                   d="m -2092.6025,13346.818 h 33.12 c 1.96,0 3.6,-2.1 3.6,-4.6 v -35.8 c 0,-2.5 -1.64,-4.6 -3.6,-4.6 h -33.12 c -2.03,0 -3.59,2.1 -3.59,4.6 v 35.8 c 0,2.5 1.56,4.6 3.59,4.6" /><path
                   inkscape:connector-curvature="0"
                   id="path6318"
                   style="fill:#2e2d2d;fill-opacity:1;fill-rule:evenodd;stroke:none"
                   d="m -2038.7625,13346.818 h 33.12 c 1.96,0 3.58,-2.1 3.58,-4.6 v -35.8 c 0,-2.5 -1.62,-4.6 -3.58,-4.6 h -33.12 c -1.98,0 -3.59,2.1 -3.59,4.6 v 35.8 c 0,2.5 1.61,4.6 3.59,4.6" /><path
                   inkscape:connector-curvature="0"
                   id="path6320"
                   style="fill:#2e2d2d;fill-opacity:1;fill-rule:evenodd;stroke:none"
                   d="m -2064.7625,13284.418 h 59.12 c 1.96,0 3.58,-2.1 3.58,-4.7 v -35.7 c 0,-2.5 -1.62,-4.6 -3.58,-4.6 h -59.12 c -1.98,0 -3.61,2.1 -3.61,4.6 v 35.7 c 0,2.6 1.63,4.7 3.61,4.7" /><path
                   inkscape:connector-curvature="0"
                   id="path6322"
                   style="fill:#2e2d2d;fill-opacity:1;fill-rule:evenodd;stroke:none"
                   d="m -2684.6125,13284.418 h 61.36 c 1.96,0 3.58,-2.1 3.58,-4.7 v -35.7 c 0,-2.5 -1.62,-4.6 -3.58,-4.6 h -61.36 c -2.03,0 -3.59,2.1 -3.59,4.6 v 35.7 c 0,2.6 1.56,4.7 3.59,4.7" /><path
                   inkscape:connector-curvature="0"
                   id="path6324"
                   style="fill:#2e2d2d;fill-opacity:1;fill-rule:evenodd;stroke:none"
                   d="m -2684.6125,13222.018 h 73.28 c 1.96,0 3.59,-2.1 3.59,-4.7 v -35.7 c 0,-2.5 -1.63,-4.6 -3.59,-4.6 h -73.28 c -2.03,0 -3.59,2.1 -3.59,4.6 v 35.7 c 0,2.6 1.56,4.7 3.59,4.7" /><path
                   inkscape:connector-curvature="0"
                   id="path6326"
                   style="fill:#2e2d2d;fill-opacity:1;fill-rule:evenodd;stroke:none"
                   d="m -2684.6125,13159.518 h 33.05 c 1.98,0 3.59,-2.1 3.59,-4.6 v -35.7 c 0,-2.6 -1.61,-4.7 -3.59,-4.7 h -33.05 c -2.03,0 -3.59,2.1 -3.59,4.7 v 35.7 c 0,2.5 1.56,4.6 3.59,4.6" /><path
                   inkscape:connector-curvature="0"
                   id="path6328"
                   style="fill:#2e2d2d;fill-opacity:1;fill-rule:evenodd;stroke:none"
                   d="m -2630.8425,13159.518 h 33.06 c 1.97,0 3.59,-2.1 3.59,-4.6 v -35.7 c 0,-2.6 -1.62,-4.7 -3.59,-4.7 h -33.06 c -1.96,0 -3.58,2.1 -3.58,4.7 v 35.7 c 0,2.5 1.62,4.6 3.58,4.6" /><path
                   inkscape:connector-curvature="0"
                   id="path6330"
                   style="fill:#2e2d2d;fill-opacity:1;fill-rule:evenodd;stroke:none"
                   d="m -2577.0625,13159.518 h 33.05 c 2.03,0 3.59,-2.1 3.59,-4.6 v -35.7 c 0,-2.6 -1.56,-4.7 -3.59,-4.7 h -33.05 c -1.96,0 -3.59,2.1 -3.59,4.7 v 35.7 c 0,2.5 1.63,4.6 3.59,4.6" /><path
                   inkscape:connector-curvature="0"
                   id="path6332"
                   style="fill:#2e2d2d;fill-opacity:1;fill-rule:evenodd;stroke:none"
                   d="m -2523.2725,13159.518 h 344.38 c 2.03,0 3.59,-2.1 3.59,-4.6 v -35.7 c 0,-2.6 -1.56,-4.7 -3.59,-4.7 h -344.38 c -1.98,0 -3.6,2.1 -3.6,4.7 v 35.7 c 0,2.5 1.62,4.6 3.6,4.6" /><path
                   inkscape:connector-curvature="0"
                   id="path6334"
                   style="fill:#2e2d2d;fill-opacity:1;fill-rule:evenodd;stroke:none"
                   d="m -2591.4225,13221.318 h 33.12 c 1.97,0 3.59,-2.1 3.59,-4.6 v -35.7 c 0,-2.6 -1.62,-4.6 -3.59,-4.6 h -33.12 c -1.96,0 -3.59,2 -3.59,4.6 v 35.7 c 0,2.5 1.63,4.6 3.59,4.6" /><path
                   inkscape:connector-curvature="0"
                   id="path6336"
                   style="fill:#2e2d2d;fill-opacity:1;fill-rule:evenodd;stroke:none"
                   d="m -2537.5825,13221.318 h 33.2 c 1.96,0 3.59,-2.1 3.59,-4.6 v -35.7 c 0,-2.6 -1.63,-4.6 -3.59,-4.6 h -33.2 c -1.96,0 -3.59,2 -3.59,4.6 v 35.7 c 0,2.5 1.63,4.6 3.59,4.6" /><path
                   inkscape:connector-curvature="0"
                   id="path6338"
                   style="fill:#2e2d2d;fill-opacity:1;fill-rule:evenodd;stroke:none"
                   d="m -2483.7225,13221.318 h 33.17 c 1.97,0 3.6,-2.1 3.6,-4.6 v -35.7 c 0,-2.6 -1.63,-4.6 -3.6,-4.6 h -33.17 c -1.98,0 -3.54,2 -3.54,4.6 v 35.7 c 0,2.5 1.56,4.6 3.54,4.6" /><path
                   inkscape:connector-curvature="0"
                   id="path6340"
                   style="fill:#2e2d2d;fill-opacity:1;fill-rule:evenodd;stroke:none"
                   d="m -2429.8325,13221.318 h 33.14 c 1.95,0 3.58,-2.1 3.58,-4.6 v -35.7 c 0,-2.6 -1.63,-4.6 -3.58,-4.6 h -33.14 c -1.96,0 -3.57,2 -3.57,4.6 v 35.7 c 0,2.5 1.61,4.6 3.57,4.6" /><path
                   inkscape:connector-curvature="0"
                   id="path6342"
                   style="fill:#2e2d2d;fill-opacity:1;fill-rule:evenodd;stroke:none"
                   d="m -2375.9925,13221.318 h 33.19 c 1.97,0 3.52,-2.1 3.52,-4.6 v -35.7 c 0,-2.6 -1.55,-4.6 -3.52,-4.6 h -33.19 c -1.94,0 -3.57,2 -3.57,4.6 v 35.7 c 0,2.5 1.63,4.6 3.57,4.6" /><path
                   inkscape:connector-curvature="0"
                   id="path6344"
                   style="fill:#2e2d2d;fill-opacity:1;fill-rule:evenodd;stroke:none"
                   d="m -2322.1325,13221.318 h 33.17 c 1.97,0 3.62,-2.1 3.62,-4.6 v -35.7 c 0,-2.6 -1.65,-4.6 -3.62,-4.6 h -33.17 c -1.96,0 -3.59,2 -3.59,4.6 v 35.7 c 0,2.5 1.63,4.6 3.59,4.6" /><path
                   inkscape:connector-curvature="0"
                   id="path6346"
                   style="fill:#2e2d2d;fill-opacity:1;fill-rule:evenodd;stroke:none"
                   d="m -2268.2225,13221.318 h 33.12 c 1.97,0 3.58,-2.1 3.58,-4.6 v -35.7 c 0,-2.6 -1.61,-4.6 -3.58,-4.6 h -33.12 c -1.98,0 -3.59,2 -3.59,4.6 v 35.7 c 0,2.5 1.61,4.6 3.59,4.6" /><path
                   inkscape:connector-curvature="0"
                   id="path6348"
                   style="fill:#2e2d2d;fill-opacity:1;fill-rule:evenodd;stroke:none"
                   d="m -2214.3825,13221.318 h 33.19 c 1.97,0 3.52,-2.1 3.52,-4.6 v -35.7 c 0,-2.6 -1.55,-4.6 -3.52,-4.6 h -33.19 c -1.96,0 -3.59,2 -3.59,4.6 v 35.7 c 0,2.5 1.63,4.6 3.59,4.6" /><path
                   inkscape:connector-curvature="0"
                   id="path6350"
                   style="fill:#2e2d2d;fill-opacity:1;fill-rule:evenodd;stroke:none"
                   d="m -2160.5425,13221.318 h 61.71 c 1.96,0 3.59,-2.1 3.59,-4.6 v -35.7 c 0,-2.6 -1.63,-4.6 -3.59,-4.6 h -61.71 c -1.96,0 -3.58,2 -3.58,4.6 v 35.7 c 0,2.5 1.62,4.6 3.58,4.6" /><path
                   inkscape:connector-curvature="0"
                   id="path6352"
                   style="fill:#2e2d2d;fill-opacity:1;fill-rule:evenodd;stroke:none"
                   d="m -2079.3425,13222.018 h 73.35 c 1.96,0 3.59,-2.1 3.59,-4.7 v -35.7 c 0,-2.5 -1.63,-4.6 -3.59,-4.6 h -73.35 c -1.96,0 -3.58,2.1 -3.58,4.6 v 35.7 c 0,2.6 1.62,4.7 3.58,4.7" /><path
                   inkscape:connector-curvature="0"
                   id="path6354"
                   style="fill:#2e2d2d;fill-opacity:1;fill-rule:evenodd;stroke:none"
                   d="m -2072.7625,13159.518 h 27.64 c 0.68,0 1.28,-0.7 1.28,-1.5 v -12.4 c 0,-0.9 -0.6,-1.6 -1.28,-1.6 h -27.64 c -0.68,0 -1.21,0.7 -1.21,1.6 v 12.4 c 0,0.8 0.53,1.5 1.21,1.5" /><path
                   inkscape:connector-curvature="0"
                   id="path6356"
                   style="fill:#2e2d2d;fill-opacity:1;fill-rule:evenodd;stroke:none"
                   d="m -2072.7625,13132.618 h 27.64 c 0.68,0 1.28,-0.7 1.28,-1.6 v -12.3 c 0,-0.8 -0.6,-1.5 -1.28,-1.5 h -27.64 c -0.68,0 -1.21,0.7 -1.21,1.5 v 12.3 c 0,0.9 0.53,1.6 1.21,1.6" /><path
                   inkscape:connector-curvature="0"
                   id="path6358"
                   style="fill:#2e2d2d;fill-opacity:1;fill-rule:evenodd;stroke:none"
                   d="m -2113.7425,13132.618 h 27.63 c 0.68,0 1.29,-0.7 1.29,-1.6 v -12.3 c 0,-0.8 -0.61,-1.5 -1.29,-1.5 h -27.63 c -0.68,0 -1.21,0.7 -1.21,1.5 v 12.3 c 0,0.9 0.53,1.6 1.21,1.6" /><path
                   inkscape:connector-curvature="0"
                   id="path6360"
                   style="fill:#2e2d2d;fill-opacity:1;fill-rule:evenodd;stroke:none"
                   d="m -2031.8725,13132.618 h 27.64 c 0.68,0 1.23,-0.7 1.23,-1.6 v -12.3 c 0,-0.8 -0.55,-1.5 -1.23,-1.5 h -27.64 c -0.66,0 -1.28,0.7 -1.28,1.5 v 12.3 c 0,0.9 0.62,1.6 1.28,1.6" /><path
                   inkscape:connector-curvature="0"
                   id="path6362"
                   style="fill:#2e2d2d;fill-opacity:1;fill-rule:evenodd;stroke:none"
                   d="m -2161.8225,13159.518 h 33.19 c 1.96,0 3.59,-2.1 3.59,-4.6 v -35.7 c 0,-2.6 -1.63,-4.7 -3.59,-4.7 h -33.19 c -1.96,0 -3.58,2.1 -3.58,4.7 v 35.7 c 0,2.5 1.62,4.6 3.58,4.6" /><path
                   inkscape:connector-curvature="0"
                   id="path6364"
                   style="fill:#ef2f65;fill-opacity:1;fill-rule:nonzero;stroke:none"
                   d="m -2149.8325,13847.818 c 14.87,10.2 35.25,6.5 45.5,-8.4 10.25,-14.9 6.5,-35.2 -8.37,-45.5 l -147.17,-101.5 c -14.87,-10.2 -35.25,-6.5 -45.5,8.4 -10.25,14.8 -6.51,35.2 8.36,45.5 l 147.18,101.5" /><path
                   inkscape:connector-curvature="0"
                   id="path6366"
                   style="fill:#c8294f;fill-opacity:1;fill-rule:nonzero;stroke:none"
                   d="m -2267.2625,13699.318 c -8.8,0 -17.48,4.2 -22.85,12 -8.71,12.6 -5.54,29.9 7.08,38.6 l 124.86,86.1 c 4.8,3.3 10.29,4.9 15.73,4.9 8.8,0 17.48,-4.2 22.85,-12 8.71,-12.6 5.54,-29.9 -7.08,-38.6 l -124.86,-86.1 c -4.8,-3.3 -10.29,-4.9 -15.73,-4.9" /><path
                   inkscape:connector-curvature="0"
                   id="path6368"
                   style="fill:#e22a58;fill-opacity:1;fill-rule:nonzero;stroke:none"
                   d="m -2284.9625,13687.918 -5.24,4.8 c 0.58,7.7 -0.44,25.1 -20.7,29.3 l -0.13,-0.1 c 0.16,2 0.51,4 1.04,6 6.16,-1.6 13.13,-6.8 18.48,-14.6 6.22,-9 8.51,-18.9 6.55,-25.4" /><path
                   inkscape:connector-curvature="0"
                   id="path6370"
                   style="fill:#5cc7a5;fill-opacity:1;fill-rule:nonzero;stroke:none"
                   d="m -2358.9525,13663.818 c 36.78,-53.4 23.36,-126.5 -30,-163.3 -53.38,-36.8 -126.49,-23.3 -163.29,30 -36.81,53.4 -23.39,126.5 30,163.3 53.37,36.8 126.47,23.4 163.29,-30 m -181.85,56.9 c -68.26,-47 -85.44,-140.5 -38.37,-208.7 47.06,-68.3 140.54,-85.5 208.78,-38.4 63.21,43.6 82.55,127 47.67,193.3 l 32.04,22.1 c 0,0 6,27.6 -20.22,33 l -34.02,-23.5 c -49.79,54.5 -133.41,65.3 -195.88,22.2" /><path
                   inkscape:connector-curvature="0"
                   id="path6372"
                   style="fill:#aaaeb6;fill-opacity:1;fill-rule:nonzero;stroke:none"
                   d="m -2455.5525,13479.818 c -37.28,0 -73.94,17.7 -96.69,50.7 v 0 c -0.1,0.2 -0.19,0.3 -0.26,0.4 -0.02,0 -0.04,0.1 -0.06,0.1 -0.07,0.1 -0.15,0.2 -0.22,0.3 0,0 -0.02,0 -0.03,0.1 -11.36,16.7 -17.75,35.3 -19.61,54.2 15.7,-37.2 52.45,-94.6 129.56,-95.7 l 8.1,-6.2 c -0.11,-0.7 -0.2,-1.4 -0.27,-2.1 -6.8,-1.2 -13.68,-1.8 -20.52,-1.8" /><path
                   inkscape:connector-curvature="0"
                   id="path6374"
                   style="fill:#40aa8a;fill-opacity:1;fill-rule:nonzero;stroke:none"
                   d="m -2552.2425,13530.518 v 0 m -0.26,0.4 c -0.02,0 -0.04,0.1 -0.06,0.1 0.02,0 0.04,-0.1 0.06,-0.1 m -0.28,0.4 c 0,0 -0.02,0 -0.03,0.1 0.01,-0.1 0.03,-0.1 0.03,-0.1" /><path
                   inkscape:connector-curvature="0"
                   id="path6376"
                   style="fill:#f0355b;fill-opacity:1;fill-rule:evenodd;stroke:none"
                   d="m -2380.4225,13516.318 c 4.53,-1.6 8.67,-4 12.32,-7.1 l 17.07,7.1 11.5,-19.9 -14.3,-11.9 c 0.4,-2.3 0.62,-4.8 0.62,-7.2 0,-2.2 -0.17,-4.4 -0.5,-6.5 l 14.9,-11.4 -11.5,-19.9 -17.15,6.3 c -3.57,-3.1 -7.68,-5.6 -12.16,-7.3 l -2.42,-18.2 h -22.97 l -3.05,17.9 c -4.51,1.6 -8.67,4 -12.32,7.1 l -17.07,-7.1 -11.48,19.9 14.3,11.9 c -0.42,2.3 -0.64,4.8 -0.64,7.3 0,2.2 0.18,4.3 0.51,6.4 l -14.89,11.5 11.48,19.9 17.16,-6.4 c 3.56,3.1 7.67,5.6 12.16,7.3 l 2.42,18.2 h 22.96 l 3.05,-17.9" /><path
                   inkscape:connector-curvature="0"
                   id="path6378"
                   style="fill:#74202d;fill-opacity:1;fill-rule:nonzero;stroke:none"
                   d="m -2394.2525,13447.418 c -16.43,0 -29.85,13.4 -29.85,29.9 0,16.4 13.42,29.8 29.85,29.8 16.45,0 29.87,-13.4 29.87,-29.8 0,-16.5 -13.42,-29.9 -29.87,-29.9 m 0.02,49.7 c -10.91,0 -19.81,-8.9 -19.81,-19.8 0,-10.9 8.9,-19.8 19.81,-19.8 10.91,0 19.8,8.9 19.8,19.8 0,10.9 -8.89,19.8 -19.8,19.8" /><path
                   inkscape:connector-curvature="0"
                   id="path6380"
                   style="fill:#b98a93;fill-opacity:1;fill-rule:nonzero;stroke:none"
                   d="m -2394.2325,13457.518 c -10.91,0 -19.81,8.9 -19.81,19.8 0,10.9 8.9,19.8 19.81,19.8 10.91,0 19.8,-8.9 19.8,-19.8 0,-10.9 -8.89,-19.8 -19.8,-19.8" /><path
                   inkscape:connector-curvature="0"
                   id="path6382"
                   style="fill:#f29211;fill-opacity:1;fill-rule:evenodd;stroke:none"
                   d="m -2339.2025,13686.218 c 7.13,-0.3 14.1,-1.8 20.59,-4.4 l 20.91,17.7 25.23,-22.9 -14.78,-23.2 c 1.65,-3.1 3.08,-6.5 4.2,-10 1.01,-3.1 1.74,-6.2 2.24,-9.3 l 26.18,-9.4 -7.15,-33.3 -27.09,1.2 c -3.61,-6 -8.26,-11.4 -13.8,-15.9 l 4.84,-26.7 -32.4,-10.4 -12.42,23.8 c -7.11,0.2 -14.08,1.7 -20.59,4.4 l -20.89,-17.7 -25.25,22.8 14.8,23.3 c -1.67,3.1 -3.08,6.4 -4.2,9.9 -1.01,3.1 -1.74,6.2 -2.24,9.3 l -26.2,9.5 7.17,33.2 27.08,-1.2 c 3.62,6.1 8.27,11.5 13.81,15.9 l -4.84,26.7 32.38,10.5 12.42,-23.8" /><path
                   inkscape:connector-curvature="0"
                   id="path6384"
                   style="fill:#72471a;fill-opacity:1;fill-rule:nonzero;stroke:none"
                   d="m -2340.9225,13576.618 c -26.52,0 -48.14,21.7 -48.14,48.2 0,26.5 21.62,48.1 48.14,48.1 26.51,0 48.15,-21.6 48.15,-48.1 0,-26.5 -21.64,-48.2 -48.15,-48.2 m -0.02,77.5 c -2.97,0 -6,-0.4 -8.97,-1.4 -15.39,-5 -23.89,-21.5 -18.94,-36.9 4,-12.4 15.57,-20.4 27.96,-20.4 2.97,0 6,0.5 8.97,1.5 15.38,4.9 23.89,21.5 18.94,36.9 -3.99,12.4 -15.57,20.3 -27.96,20.3" /><path
                   inkscape:connector-curvature="0"
                   id="path6386"
                   style="fill:#b9a477;fill-opacity:1;fill-rule:nonzero;stroke:none"
                   d="m -2340.8925,13595.418 c -12.39,0 -23.96,8 -27.96,20.4 -4.95,15.4 3.55,31.9 18.94,36.9 2.97,1 6,1.4 8.97,1.4 12.39,0 23.97,-7.9 27.96,-20.3 4.95,-15.4 -3.56,-32 -18.94,-36.9 -2.97,-1 -6,-1.5 -8.97,-1.5" /><path
                   inkscape:connector-curvature="0"
                   id="path6388"
                   style="fill:#ea723b;fill-opacity:1;fill-rule:evenodd;stroke:none"
                   d="m -2473.8525,13551.318 c 1.83,0.8 3.79,1.2 5.75,1.3 l 3.22,7 9.13,-2.8 -1.01,-7.7 c 0.8,-0.6 1.55,-1.3 2.25,-2 0.63,-0.7 1.18,-1.4 1.67,-2.1 l 7.78,0.7 2.14,-9.3 -7.04,-3 c -0.2,-1.9 -0.75,-3.8 -1.61,-5.6 l 4.38,-6.2 -6.99,-6.5 -5.97,4.5 c -1.86,-0.7 -3.8,-1.2 -5.76,-1.3 l -3.23,-7 -9.12,2.8 1,7.7 c -0.79,0.6 -1.54,1.3 -2.24,2.1 -0.64,0.6 -1.19,1.3 -1.69,2.1 l -7.77,-0.8 -2.13,9.3 7.02,3 c 0.2,1.9 0.76,3.8 1.63,5.6 l -4.4,6.3 7.01,6.5 5.98,-4.6" /><path
                   inkscape:connector-curvature="0"
                   id="path6390"
                   style="fill:#703822;fill-opacity:1;fill-rule:nonzero;stroke:none"
                   d="m -2467.0125,13523.118 c -3.34,0 -6.66,1.3 -9.1,3.9 -4.66,5 -4.35,12.9 0.66,17.6 2.39,2.2 5.41,3.3 8.44,3.3 3.33,0 6.65,-1.4 9.09,-4 4.66,-5 4.37,-12.9 -0.64,-17.5 -2.38,-2.3 -5.43,-3.3 -8.45,-3.3 m 0,20.6 c -2,0 -4.02,-0.7 -5.6,-2.2 -3.31,-3.1 -3.52,-8.3 -0.44,-11.6 1.62,-1.8 3.84,-2.7 6.04,-2.7 2.02,0 4.01,0.8 5.61,2.2 3.32,3.1 3.5,8.3 0.42,11.7 -1.62,1.7 -3.82,2.6 -6.03,2.6" /><path
                   inkscape:connector-curvature="0"
                   id="path6392"
                   style="fill:#b69b8a;fill-opacity:1;fill-rule:nonzero;stroke:none"
                   d="m -2467.0125,13527.218 c -2.2,0 -4.42,0.9 -6.04,2.7 -3.08,3.3 -2.87,8.5 0.44,11.6 1.58,1.5 3.6,2.2 5.6,2.2 2.21,0 4.41,-0.9 6.03,-2.6 3.08,-3.4 2.9,-8.6 -0.42,-11.7 -1.6,-1.4 -3.59,-2.2 -5.61,-2.2" /><path
                   inkscape:connector-curvature="0"
                   id="path6394"
                   style="fill:#45bf94;fill-opacity:1;fill-rule:evenodd;stroke:none"
                   d="m -2509.3525,13614.718 c 2.25,1.9 4.8,3.4 7.51,4.5 l 1.38,11.3 14.16,0.2 2.05,-11.3 c 1.39,-0.5 2.77,-1.1 4.11,-1.9 1.17,-0.6 2.29,-1.3 3.32,-2.1 l 10.63,4.5 7.25,-12.2 -8.59,-7.3 c 0.59,-2.8 0.7,-5.8 0.28,-8.7 l 9.02,-6.8 -6.89,-12.3 -10.53,3.7 c -2.24,-1.9 -4.79,-3.5 -7.52,-4.5 l -1.38,-11.3 -14.15,-0.2 -2.06,11.3 c -1.39,0.5 -2.76,1.1 -4.1,1.8 -1.18,0.7 -2.29,1.4 -3.32,2.3 l -10.64,-4.6 -7.24,12.2 8.6,7.3 c -0.6,2.8 -0.71,5.8 -0.29,8.7 l -9.05,6.8 6.94,12.3 10.51,-3.7" /><path
                   inkscape:connector-curvature="0"
                   id="path6396"
                   style="fill:#225b4b;fill-opacity:1;fill-rule:nonzero;stroke:none"
                   d="m -2492.4825,13575.518 c -5.4,0 -10.77,2.1 -14.69,6.4 -7.5,8.1 -7.03,20.8 1.06,28.3 3.83,3.5 8.73,5.3 13.61,5.3 5.37,0 10.72,-2.1 14.67,-6.4 7.5,-8.1 7.02,-20.8 -1.05,-28.3 -3.85,-3.5 -8.73,-5.3 -13.6,-5.3 m 0.01,32.2 c -4.29,0 -8.43,-2.3 -10.67,-6.2 -3.28,-5.9 -1.19,-13.4 4.68,-16.6 1.87,-1.1 3.9,-1.6 5.92,-1.6 4.29,0 8.46,2.3 10.67,6.2 3.31,5.9 1.2,13.4 -4.66,16.6 -1.88,1.1 -3.92,1.6 -5.94,1.6" /><path
                   inkscape:connector-curvature="0"
                   id="path6398"
                   style="fill:#82b1a2;fill-opacity:1;fill-rule:nonzero;stroke:none"
                   d="m -2492.5425,13583.318 c -2.02,0 -4.05,0.5 -5.92,1.6 -5.87,3.2 -7.96,10.7 -4.68,16.6 2.24,3.9 6.38,6.2 10.67,6.2 2.02,0 4.06,-0.5 5.94,-1.6 5.86,-3.2 7.97,-10.7 4.66,-16.6 -2.21,-3.9 -6.38,-6.2 -10.67,-6.2" /><path
                   inkscape:connector-curvature="0"
                   id="path6400"
                   style="fill:#a1a1a0;fill-opacity:1;fill-rule:nonzero;stroke:none"
                   d="m -3728.3285,13015.818 c -44.004,38.8 -23.993,129.5 -23.993,129.5 h -131.16 c 0,0 20.008,-90.7 -23.996,-129.5 -44.012,-38.9 -95.418,-38.9 -95.418,-38.9 v -21.8 h 369.977 v 21.8 c 0,0 -51.399,0 -95.41,38.9" /><path
                   inkscape:connector-curvature="0"
                   id="path6402"
                   style="fill:#bfbebc;fill-opacity:1;fill-rule:nonzero;stroke:none"
                   d="m -3632.9185,12955.118 h -369.977 v 21.8 h 369.977 v -21.8" /><path
                   inkscape:connector-curvature="0"
                   id="path6404"
                   style="fill:#cdccca;fill-opacity:1;fill-rule:nonzero;stroke:none"
                   d="m -3328.9025,13203.618 c 0,-32.2 -26.1,-58.3 -58.29,-58.3 h -861.422 c -32.191,0 -58.289,26.1 -58.289,58.3 v 476 c 0,32.2 26.098,58.3 58.289,58.3 h 861.422 c 32.19,0 58.29,-26.1 58.29,-58.3 v -476" /><path
                   inkscape:connector-curvature="0"
                   id="path6406"
                   style="fill:#243464;fill-opacity:1;fill-rule:nonzero;stroke:none"
                   d="m -4306.9035,13679.618 v -476 c 0,-11.3 3.27,-21.8 8.844,-30.8 h 960.307 c 5.58,9 8.85,19.5 8.85,30.8 v 476 c 0,15.1 -5.79,28.8 -15.2,39.2 h -947.609 c -9.414,-10.4 -15.192,-24.1 -15.192,-39.2" /><path
                   inkscape:connector-curvature="0"
                   id="path6408"
                   style="fill:#e4e4e3;fill-opacity:1;fill-rule:nonzero;stroke:none"
                   d="m -4264.8095,13193.118 h 893.813 v 506 h -893.813 z" /><path
                   inkscape:connector-curvature="0"
                   id="path6410"
                   style="fill:#8bcf24;fill-opacity:1;fill-rule:nonzero;stroke:none"
                   d="m -4176.1535,13193.118 h 95.418 v 182.168 h -95.418 z" /><path
                   inkscape:connector-curvature="0"
                   id="path6412"
                   style="fill:#b5dc17;fill-opacity:1;fill-rule:nonzero;stroke:none"
                   d="m -4014.2315,13193.118 h 95.418 v 237.102 h -95.418 z" /><path
                   inkscape:connector-curvature="0"
                   id="path6414"
                   style="fill:#d7c211;fill-opacity:1;fill-rule:nonzero;stroke:none"
                   d="m -3850.8955,13193.118 h 95.418 v 352.758 h -95.418 z" /><path
                   inkscape:connector-curvature="0"
                   id="path6416"
                   style="fill:#e84e1d;fill-opacity:1;fill-rule:nonzero;stroke:none"
                   d="m -3680.3015,13193.118 h 95.418 v 413.477 h -95.418 z" /><path
                   inkscape:connector-curvature="0"
                   id="path6418"
                   style="fill:#e52c22;fill-opacity:1;fill-rule:nonzero;stroke:none"
                   d="m -3517.5625,13201.618 h 95.4141 v 468.766 h -95.4141 z" /><path
                   inkscape:connector-curvature="0"
                   id="path6420"
                   style="fill:#32435b;fill-opacity:1;fill-rule:nonzero;stroke:none"
                   d="m -4201.1995,13302.118 -8.805,11.8 277.422,208 297.32,31.1 209.38,123.7 7.46,-12.7 -212.137,-125.3 -296.469,-30.9 -274.171,-205.7" /><path
                   inkscape:connector-curvature="0"
                   id="path6422"
                   style="fill:#4ac1a9;fill-opacity:1;fill-rule:nonzero;stroke:none"
                   d="m -4181.7505,13308.018 c 0,-13.2 -10.68,-23.8 -23.848,-23.8 -13.172,0 -23.855,10.6 -23.855,23.8 0,13.2 10.683,23.9 23.855,23.9 13.168,0 23.848,-10.7 23.848,-23.9" /><path
                   inkscape:connector-curvature="0"
                   id="path6424"
                   style="fill:#4ac1a9;fill-opacity:1;fill-rule:nonzero;stroke:none"
                   d="m -3905.9535,13514.918 c 0,-13.2 -10.68,-23.9 -23.856,-23.9 -13.168,0 -23.848,10.7 -23.848,23.9 0,13.1 10.68,23.8 23.848,23.8 13.176,0 23.856,-10.7 23.856,-23.8" /><path
                   inkscape:connector-curvature="0"
                   id="path6426"
                   style="fill:#4ac1a9;fill-opacity:1;fill-rule:nonzero;stroke:none"
                   d="m -3609.0635,13545.818 c 0,-13.1 -10.679,-23.8 -23.851,-23.8 -13.168,0 -23.848,10.7 -23.848,23.8 0,13.2 10.68,23.9 23.848,23.9 13.172,0 23.851,-10.7 23.851,-23.9" /><path
                   inkscape:connector-curvature="0"
                   id="path6428"
                   style="fill:#4ac1a9;fill-opacity:1;fill-rule:nonzero;stroke:none"
                   d="m -3398.3125,13670.318 c 0,-13.1 -10.67,-23.8 -23.84,-23.8 -13.17,0 -23.85,10.7 -23.85,23.8 0,13.2 10.68,23.9 23.85,23.9 13.17,0 23.84,-10.7 23.84,-23.9" /><path
                   inkscape:connector-curvature="0"
                   id="path6430"
                   style="fill:#f5af78;fill-opacity:1;fill-rule:nonzero;stroke:none"
                   d="m -3280.8825,13033.218 13.3,117.6 288.88,59.1 -5.04,-91.5 12.1,-76.5 -41.78,-39.2 -91.65,-33.9 -129.68,29.9 -46.13,34.5" /><path
                   inkscape:connector-curvature="0"
                   id="path6432"
                   style="fill:#ecb223;fill-opacity:1;fill-rule:nonzero;stroke:none"
                   d="m -3319.5425,13041.918 45.01,47.4 c 0,0 44.77,-110.5 154.5,-103.9 109.73,6.7 141.67,99.1 141.67,99.1 l 57.84,-42.6 4.17,-107.2 c 0,0 -221.95,-57.3 -256.87,-49 -34.92,8.3 -157.97,66.5 -157.97,66.5 l 11.65,89.7" /><path
                   inkscape:connector-curvature="0"
                   id="path6434"
                   style="fill:#3f83a2;fill-opacity:1;fill-rule:nonzero;stroke:none"
                   d="m -2920.5225,13041.918 c -39.9,-104.7 -199.51,-114.7 -199.51,-114.7 0,0 -159.61,10 -199.51,114.7 0,0 -369.099,-89.7 -399.025,-443.9 0,0 149.635,-294.3 598.535,-324.2 448.9,29.9 598.54,324.2 598.54,324.2 -29.93,354.2 -399.03,443.9 -399.03,443.9" /><path
                   inkscape:connector-curvature="0"
                   id="path6436"
                   style="fill:#583225;fill-opacity:1;fill-rule:nonzero;stroke:none"
                   d="m -2848.1925,13667.918 c -32.43,117.2 -271.84,154.6 -271.84,154.6 0,0 -239.41,-37.4 -271.84,-154.6 -32.41,-117.2 -7.47,-251.9 27.44,-356.6 34.91,-104.8 104.74,-234.4 244.4,-284.3 139.66,49.9 209.49,179.5 244.4,284.3 34.92,104.7 59.85,239.4 27.44,356.6" /><path
                   inkscape:connector-curvature="0"
                   id="path6438"
                   style="fill:#4db99d;fill-opacity:1;fill-rule:nonzero;stroke:none"
                   d="m -2876.7725,13307.918 v 0 0 m 0.37,1.1 c 0.02,0 0.03,0.1 0.05,0.1 -0.02,0 -0.03,-0.1 -0.05,-0.1 m 0.19,0.6 c 0.02,0 0.03,0 0.05,0.1 -0.01,-0.1 -0.03,-0.1 -0.05,-0.1 m 0.19,0.5 c 0.05,0.1 0.09,0.3 0.14,0.4 -0.05,-0.1 -0.09,-0.3 -0.14,-0.4 m 0.19,0.6 c 0.07,0.2 0.14,0.4 0.2,0.6 23.53,70.6 42.53,154.7 42.5,238 0.03,-83.3 -18.97,-167.4 -42.5,-238 -0.06,-0.2 -0.13,-0.4 -0.2,-0.6 m 27.52,357.7 c -0.02,0 -0.03,0 -0.04,0.1 0.01,-0.1 0.02,-0.1 0.04,-0.1 m -0.15,0.5 c -0.01,0 -0.01,0 -0.02,0 0.01,0 0.01,0 0.02,0 m -0.14,0.5 c -0.02,0 -0.03,0.1 -0.05,0.1 0.02,0 0.03,-0.1 0.05,-0.1 m -0.14,0.4 c -0.02,0.1 -0.03,0.1 -0.04,0.2 0.01,-0.1 0.02,-0.1 0.04,-0.2 m -0.16,0.6 c -0.02,0 -0.04,0.1 -0.05,0.1 0.01,0 0.03,-0.1 0.05,-0.1 m -0.15,0.4 c -0.01,0.1 -0.03,0.1 -0.04,0.2 0.01,-0.1 0.03,-0.1 0.04,-0.2 m -0.17,0.6 c -0.01,0 -0.03,0.1 -0.05,0.1 0.02,0 0.04,-0.1 0.05,-0.1 m -0.14,0.4 c -0.01,0.1 -0.03,0.1 -0.05,0.2 0.02,-0.1 0.04,-0.1 0.05,-0.2 m -0.18,0.6 c -0.02,0 -0.03,0.1 -0.06,0.2 0.02,-0.1 0.04,-0.2 0.06,-0.2 m -0.14,0.4 c -0.02,0.1 -0.04,0.1 -0.06,0.2 0.02,-0.1 0.04,-0.1 0.06,-0.2 m -0.19,0.6 c -0.02,0 -0.04,0.1 -0.07,0.2 0.03,-0.1 0.05,-0.2 0.07,-0.2 m -0.14,0.4 c -0.02,0.1 -0.05,0.1 -0.07,0.2 0.02,-0.1 0.05,-0.1 0.07,-0.2 m -0.18,0.5 c -0.03,0.1 -0.07,0.2 -0.1,0.3 0.03,-0.1 0.07,-0.2 0.1,-0.3 m -0.16,0.5 c -0.03,0.1 -0.06,0.1 -0.09,0.2 0.03,-0.1 0.06,-0.1 0.09,-0.2 m -0.13,0.3 c -0.06,0.2 -0.11,0.3 -0.17,0.5 0.05,-0.2 0.11,-0.3 0.17,-0.5 m -0.23,0.6 c -0.03,0.1 -0.06,0.2 -0.09,0.3 0.03,-0.1 0.06,-0.2 0.09,-0.3 m -0.12,0.4 c -0.07,0.2 -0.13,0.4 -0.2,0.5 0.07,-0.2 0.13,-0.3 0.2,-0.5 m -0.24,0.6 c -0.03,0.1 -0.07,0.2 -0.1,0.3 0.03,-0.1 0.07,-0.2 0.1,-0.3 m -0.13,0.4 c -0.07,0.2 -0.14,0.3 -0.21,0.5 0.07,-0.2 0.14,-0.3 0.21,-0.5 m -0.24,0.6 c -0.04,0.1 -0.08,0.2 -0.12,0.3 0.04,-0.1 0.08,-0.2 0.12,-0.3 m -0.14,0.3 c -0.07,0.2 -0.15,0.4 -0.23,0.6 0.08,-0.2 0.16,-0.4 0.23,-0.6 m -0.25,0.7 c -0.04,0.1 -0.08,0.2 -0.13,0.3 0.05,-0.1 0.09,-0.2 0.13,-0.3 m -0.13,0.3 c -14.5,35.9 -48.76,63.8 -88.1,85 39.35,-21.2 73.6,-49.1 88.1,-85 m -88.22,85 c -0.17,0.1 -0.36,0.2 -0.53,0.3 0.18,-0.1 0.35,-0.2 0.53,-0.3 m -0.66,0.4 c -0.08,0 -0.17,0.1 -0.26,0.1 0.09,0 0.17,-0.1 0.26,-0.1 m -0.49,0.2 c -0.07,0.1 -0.14,0.1 -0.21,0.1 0.07,0 0.14,0 0.21,-0.1 m -0.61,0.4 c -0.07,0 -0.13,0 -0.21,0.1 0.07,-0.1 0.14,-0.1 0.21,-0.1 m -0.48,0.2 c -0.06,0.1 -0.13,0.1 -0.18,0.1 0.05,0 0.12,0 0.18,-0.1 m -0.61,0.3 c -0.05,0.1 -0.11,0.1 -0.16,0.1 0.05,0 0.11,0 0.16,-0.1 m -0.5,0.3 c -0.05,0 -0.09,0.1 -0.13,0.1 0.04,0 0.09,-0.1 0.13,-0.1 m -0.61,0.3 c -0.01,0 -0.04,0 -0.06,0.1 0.02,-0.1 0.05,-0.1 0.06,-0.1 m -0.51,0.3 c -0.02,0 -0.04,0 -0.07,0 0.02,0 0.05,0 0.07,0 m -0.58,0.3 v 0 0 m -107.11,40.6 c -0.01,0 -0.01,0 -0.01,0 0,0 0.01,0 0.01,0 m -0.4,0.1 c -0.06,0 -0.12,0 -0.18,0 0.06,0 0.12,0 0.18,0 m -0.29,0.1 c -9.3,2.5 -18.01,4.7 -25.87,6.6 0,0 0,0 0,0 7.86,-1.9 16.57,-4.1 25.87,-6.6" /><path
                   inkscape:connector-curvature="0"
                   id="path6440"
                   style="fill:#45281f;fill-opacity:1;fill-rule:nonzero;stroke:none"
                   d="m -3088.5825,13040.218 c 214.83,398 77.83,674.2 9.68,773.9 7.86,-1.9 16.57,-4.1 25.87,-6.6 0.04,0 0.07,0 0.11,-0.1 0.06,0 0.12,0 0.18,0 0.13,0 0.26,-0.1 0.39,-0.1 0,0 0,0 0.01,0 32.24,-8.9 71.47,-22.1 107.11,-40.6 v 0 c 0.17,-0.1 0.34,-0.2 0.51,-0.3 0.03,0 0.05,0 0.07,0 0.16,-0.1 0.3,-0.2 0.45,-0.2 0.02,-0.1 0.05,-0.1 0.06,-0.1 0.16,-0.1 0.32,-0.1 0.48,-0.2 0.04,0 0.08,-0.1 0.13,-0.1 0.12,-0.1 0.22,-0.1 0.34,-0.2 0.05,0 0.11,0 0.16,-0.1 0.15,0 0.28,-0.1 0.43,-0.2 0.05,0 0.12,0 0.18,-0.1 0.09,0 0.18,-0.1 0.27,-0.1 0.08,-0.1 0.14,-0.1 0.21,-0.1 0.14,-0.1 0.27,-0.2 0.4,-0.3 0.07,0 0.14,0 0.21,-0.1 0.08,0 0.16,0 0.23,-0.1 0.09,0 0.18,-0.1 0.26,-0.1 0.04,0 0.09,-0.1 0.13,-0.1 0.17,-0.1 0.36,-0.2 0.53,-0.3 0.03,0 0.08,0 0.12,0 39.34,-21.2 73.6,-49.1 88.1,-85 v 0 c 0.05,-0.1 0.09,-0.2 0.13,-0.3 0.01,0 0.01,0 0.02,-0.1 0.08,-0.2 0.16,-0.4 0.23,-0.6 0.01,0 0.02,0 0.02,0 0.04,-0.1 0.08,-0.2 0.12,-0.3 0.01,0 0.02,0 0.03,-0.1 0.07,-0.2 0.14,-0.3 0.21,-0.5 0.01,-0.1 0.01,-0.1 0.03,-0.1 0.03,-0.1 0.07,-0.2 0.1,-0.3 0.02,0 0.03,0 0.04,-0.1 0.07,-0.1 0.13,-0.3 0.2,-0.5 0.01,0 0.02,-0.1 0.03,-0.1 0.03,-0.1 0.06,-0.2 0.09,-0.3 0.02,0 0.04,0 0.06,-0.1 0.06,-0.2 0.11,-0.3 0.17,-0.5 0.01,0 0.02,0 0.04,-0.1 0.03,-0.1 0.06,-0.1 0.09,-0.2 0.02,-0.1 0.04,-0.2 0.06,-0.2 0.03,-0.1 0.07,-0.2 0.1,-0.3 0.04,-0.1 0.07,-0.2 0.11,-0.3 0.02,-0.1 0.05,-0.1 0.07,-0.2 0.02,-0.1 0.05,-0.2 0.07,-0.2 0.03,-0.1 0.05,-0.2 0.07,-0.2 0.04,-0.2 0.09,-0.3 0.13,-0.4 0.02,-0.1 0.04,-0.1 0.06,-0.2 0.03,-0.1 0.06,-0.2 0.08,-0.2 0.03,-0.1 0.04,-0.2 0.06,-0.2 0.05,-0.2 0.09,-0.3 0.13,-0.4 0.02,-0.1 0.04,-0.1 0.05,-0.2 0.03,-0.1 0.06,-0.2 0.09,-0.3 0.02,0 0.04,-0.1 0.05,-0.1 0.05,-0.2 0.09,-0.3 0.13,-0.4 0.01,-0.1 0.03,-0.1 0.04,-0.2 0.03,-0.1 0.07,-0.2 0.1,-0.3 0.01,0 0.03,-0.1 0.05,-0.1 0.03,-0.2 0.08,-0.3 0.12,-0.4 0.01,-0.1 0.02,-0.1 0.04,-0.2 0.03,-0.1 0.06,-0.2 0.09,-0.3 0.02,0 0.03,-0.1 0.05,-0.1 0.04,-0.2 0.08,-0.3 0.12,-0.5 0.01,0 0.01,0 0.02,0 0.03,-0.1 0.07,-0.3 0.11,-0.4 0.01,-0.1 0.02,-0.1 0.04,-0.1 0.03,-0.2 0.08,-0.3 0.12,-0.5 10.57,-38.2 15.04,-78.3 15.06,-118.6 0.03,-83.3 -18.97,-167.4 -42.5,-238 -0.06,-0.2 -0.13,-0.4 -0.2,-0.6 -0.02,-0.1 -0.04,-0.1 -0.05,-0.2 -0.05,-0.1 -0.09,-0.3 -0.14,-0.4 -0.04,-0.1 -0.09,-0.3 -0.14,-0.4 -0.02,-0.1 -0.03,-0.1 -0.05,-0.1 -0.04,-0.2 -0.09,-0.3 -0.14,-0.5 -0.02,0 -0.03,-0.1 -0.05,-0.1 -0.13,-0.4 -0.25,-0.8 -0.37,-1.1 v 0 c -32.51,-95.9 -94.34,-211.5 -211.81,-267.7" /><path
                   inkscape:connector-curvature="0"
                   id="path6442"
                   style="fill:#4db99d;fill-opacity:1;fill-rule:nonzero;stroke:none"
                   d="m -2521.5325,12598.018 v 0 m 0.02,0 c 0,0 0,0 0,0 0,0 0,0 0,0 m 0.02,0 c -0.02,0.4 -0.06,0.7 -0.08,1 0.02,-0.3 0.06,-0.7 0.08,-1 m -0.11,1.3 c -0.02,0.2 -0.04,0.4 -0.06,0.6 0.02,-0.2 0.04,-0.4 0.06,-0.6 m -0.1,1 c -0.01,0.2 -0.03,0.4 -0.05,0.6 0.02,-0.2 0.04,-0.4 0.05,-0.6 m -0.07,1 c -0.04,0.2 -0.04,0.4 -0.07,0.6 0.02,-0.2 0.05,-0.4 0.07,-0.6 m -0.09,0.9 c -0.04,0.3 -0.06,0.6 -0.09,0.9 0.03,-0.3 0.05,-0.6 0.09,-0.9 m -0.13,1.3 c -0.02,0.2 -0.04,0.4 -0.06,0.6 0.02,-0.2 0.04,-0.4 0.06,-0.6 m -0.09,1 c -0.02,0.1 -0.04,0.3 -0.05,0.5 0.01,-0.2 0.03,-0.4 0.05,-0.5 m -0.09,0.9 c -0.02,0.2 -0.04,0.4 -0.06,0.6 0.02,-0.2 0.04,-0.4 0.06,-0.6 m -0.09,1 c -0.04,0.2 -0.06,0.5 -0.08,0.8 0.02,-0.3 0.04,-0.6 0.08,-0.8 m -0.13,1.2 c -0.02,0.2 -0.04,0.4 -0.06,0.6 0.02,-0.2 0.04,-0.4 0.06,-0.6 m -0.11,1 c -0.02,0.2 -0.04,0.4 -0.06,0.5 0.02,-0.2 0.04,-0.3 0.06,-0.5 m -0.1,1 c -0.01,0.1 -0.03,0.3 -0.05,0.4 0.02,-0.1 0.04,-0.3 0.05,-0.4 m -0.11,0.9 c -0.01,0.2 -0.03,0.3 -0.05,0.5 0.02,-0.2 0.04,-0.3 0.05,-0.5 m -0.14,1.4 c -0.02,0.1 -0.02,0.2 -0.04,0.4 0,-0.2 0.02,-0.3 0.04,-0.4 m -0.11,0.9 c -0.02,0.1 -0.02,0.2 -0.04,0.4 0.02,-0.1 0.04,-0.3 0.04,-0.4 m -0.09,0.9 c -0.02,0.1 -0.04,0.3 -0.06,0.4 0.02,-0.1 0.04,-0.2 0.06,-0.4 m -0.11,0.9 c -0.02,0.1 -0.04,0.3 -0.04,0.4 0,-0.1 0.02,-0.3 0.04,-0.4 m -0.3,2.4 c 0,0.1 -0.01,0.2 -0.01,0.2 0,0 0.01,-0.1 0.01,-0.2 m -0.09,0.8 c -0.01,0.1 -0.03,0.3 -0.03,0.4 0,-0.1 0.02,-0.3 0.03,-0.4 m -0.11,0.9 c -0.02,0.1 -0.03,0.2 -0.03,0.3 0.01,-0.1 0.01,-0.2 0.03,-0.3 m -0.31,2.5 c -0.02,0 -0.02,0.1 -0.02,0.1 0,0 0,-0.1 0.02,-0.1 m -0.11,0.8 c 0,0 -0.02,0.1 -0.04,0.2 0.02,-0.1 0.04,-0.2 0.04,-0.2 m -0.11,0.8 c -0.02,0.1 -0.02,0.2 -0.03,0.3 0.01,-0.1 0.01,-0.2 0.03,-0.3 m -0.13,0.9 c 0,0.1 0,0.1 -0.02,0.1 0.02,0 0.02,-0.1 0.02,-0.1 m -0.31,2.3 c -0.02,0.1 -0.02,0.1 -0.04,0.2 0.02,0 0.04,-0.1 0.04,-0.2 m -0.11,0.9 c -0.02,0 -0.04,0.1 -0.04,0.2 0,-0.1 0.02,-0.2 0.04,-0.2 m -0.13,0.8 c -0.01,0.1 -0.01,0.2 -0.03,0.3 0.02,-0.1 0.02,-0.2 0.03,-0.3 m -0.37,2.5 c 0,0 0,0 0,0 0,0 0,0 0,0 m -0.11,0.7 c 0,0.1 -0.01,0.1 -0.01,0.2 0,-0.1 0.01,-0.1 0.01,-0.2 m -0.12,0.8 c 0,0.1 -0.02,0.2 -0.02,0.2 0,0 0.02,-0.1 0.02,-0.2 m -0.5,3.3 c 0,0 0,0 -0.02,0.1 0.02,-0.1 0.02,-0.1 0.02,-0.1 m -0.13,0.8 c 0,0 0,0 -0.02,0.1 0,-0.1 0.02,-0.1 0.02,-0.1 m -0.66,4 v 0 0 m -0.68,3.9 c 0,0 -0.02,0.1 -0.02,0.1 0.02,0 0.02,0 0.02,-0.1 m -0.86,4.8 c -0.01,0 0,0 -0.01,0 h 0.01" /><path
                   inkscape:connector-curvature="0"
                   id="path6444"
                   style="fill:#326680;fill-opacity:1;fill-rule:nonzero;stroke:none"
                   d="m -2662.1125,12439.318 c 45.83,210.9 -135.19,476.8 -224.66,592.2 86.26,-30.2 311.33,-131.8 358.46,-383 0.01,0 0,0 0.01,0 0.28,-1.6 0.57,-3.1 0.84,-4.7 0,0 0.02,-0.1 0.02,-0.1 0.22,-1.3 0.46,-2.6 0.68,-3.9 v 0 c 0.22,-1.3 0.44,-2.6 0.64,-3.9 0.02,-0.1 0.02,-0.1 0.02,-0.1 0.04,-0.3 0.08,-0.5 0.11,-0.7 0.02,-0.1 0.02,-0.1 0.02,-0.1 0.17,-1.1 0.31,-2.1 0.48,-3.1 0,0 0.02,-0.1 0.02,-0.2 0.03,-0.2 0.07,-0.4 0.11,-0.6 0,-0.1 0.01,-0.1 0.01,-0.2 0.04,-0.2 0.08,-0.5 0.11,-0.7 0,0 0,0 0,0 0.12,-0.8 0.23,-1.5 0.34,-2.2 0.02,-0.1 0.02,-0.2 0.03,-0.3 0.02,-0.2 0.06,-0.4 0.09,-0.6 0,-0.1 0.02,-0.2 0.04,-0.2 0.02,-0.3 0.05,-0.5 0.07,-0.7 0.02,-0.1 0.02,-0.1 0.04,-0.2 0.11,-0.7 0.2,-1.4 0.29,-2.2 0.02,0 0.02,0 0.02,-0.1 0.04,-0.2 0.06,-0.4 0.1,-0.6 0.01,-0.1 0.01,-0.2 0.03,-0.3 0.02,-0.2 0.06,-0.4 0.07,-0.6 0.02,-0.1 0.04,-0.2 0.04,-0.2 0.04,-0.3 0.05,-0.5 0.09,-0.7 0,0 0,-0.1 0.02,-0.1 0.09,-0.7 0.18,-1.5 0.28,-2.2 0,-0.1 0.01,-0.2 0.03,-0.3 0.02,-0.1 0.04,-0.4 0.08,-0.5 0,-0.1 0.02,-0.3 0.03,-0.4 0.02,-0.2 0.04,-0.4 0.08,-0.6 0,0 0.01,-0.1 0.01,-0.2 0.09,-0.7 0.17,-1.4 0.26,-2 0,-0.1 0.02,-0.3 0.04,-0.4 0.02,-0.1 0.03,-0.3 0.05,-0.5 0.02,-0.1 0.04,-0.3 0.06,-0.4 0.02,-0.2 0.03,-0.3 0.05,-0.5 0.02,-0.2 0.02,-0.3 0.04,-0.4 0.02,-0.2 0.06,-0.4 0.07,-0.5 0.02,-0.2 0.02,-0.3 0.04,-0.4 0.04,-0.4 0.07,-0.6 0.09,-0.9 0.02,-0.2 0.04,-0.3 0.05,-0.5 0.02,-0.1 0.04,-0.3 0.06,-0.5 0.02,-0.1 0.04,-0.3 0.05,-0.4 0.02,-0.2 0.04,-0.4 0.04,-0.5 0.02,-0.1 0.04,-0.3 0.06,-0.5 0.02,-0.1 0.03,-0.3 0.05,-0.4 0.02,-0.2 0.04,-0.4 0.06,-0.6 0.02,-0.1 0.03,-0.3 0.05,-0.4 0.02,-0.3 0.04,-0.6 0.08,-0.8 0.02,-0.2 0.02,-0.3 0.03,-0.4 0.02,-0.2 0.04,-0.4 0.06,-0.6 0.02,-0.1 0.02,-0.2 0.04,-0.4 0.01,-0.2 0.03,-0.4 0.05,-0.5 0.02,-0.2 0.03,-0.3 0.03,-0.4 0.02,-0.2 0.04,-0.4 0.06,-0.6 0.02,-0.2 0.04,-0.3 0.04,-0.4 0.03,-0.3 0.05,-0.6 0.09,-0.9 0,-0.1 0.02,-0.2 0.02,-0.3 0.03,-0.2 0.03,-0.4 0.07,-0.6 0,-0.2 0.02,-0.3 0.02,-0.4 0.02,-0.2 0.04,-0.4 0.05,-0.6 0.02,-0.1 0.02,-0.2 0.04,-0.4 0.02,-0.2 0.04,-0.4 0.06,-0.6 0.02,-0.1 0.02,-0.2 0.03,-0.3 0.02,-0.3 0.06,-0.6 0.08,-1 v 0 c 0,0 0,0 -0.02,0 0,0 0,0 0,0 0,0 0,0 -0.02,0 v 0 c -1.23,-2.4 -41.53,-79.9 -140.58,-158.7" /><text
                   transform="scale(1,-1)"
                   id="text6943"
                   y="-12057.335"
                   x="-3116.854"
                   style="font-style:normal;font-weight:normal;font-size:132.02990723px;line-height:1.25;font-family:sans-serif;letter-spacing:0px;word-spacing:0px;fill:#000000;fill-opacity:1;stroke:none;stroke-width:1.37531149"
                   xml:space="preserve"><tspan
                     style="font-style:normal;font-variant:normal;font-weight:normal;font-stretch:normal;font-size:132.02990723px;font-family:sans-serif;-inkscape-font-specification:sans-serif;text-align:center;text-anchor:middle;fill:#ffffff;stroke-width:1.37531149"
                     y="-12057.335"
                     x="-3116.854"
                     id="tspan6941"
                     sodipodi:role="line">ANLISIS DEL SISTEMA</tspan></text>
</g></g></a></g></g></g></g></svg>