<?xml version="1.0" encoding="UTF-8" standalone="no"?>
<svg
   xmlns:dc="http://purl.org/dc/elements/1.1/"
   xmlns:cc="http://creativecommons.org/ns#"
   xmlns:rdf="http://www.w3.org/1999/02/22-rdf-syntax-ns#"
   xmlns:svg="http://www.w3.org/2000/svg"
   xmlns="http://www.w3.org/2000/svg"
   viewBox="0 0 625 625"
   height="625"
   width="625"
   xml:space="preserve"
   version="1.1"
   id="svg2"><metadata
     id="metadata8"><rdf:RDF><cc:Work
         rdf:about=""><dc:format>image/svg+xml</dc:format><dc:type
           rdf:resource="http://purl.org/dc/dcmitype/StillImage" /><dc:title></dc:title></cc:Work></rdf:RDF></metadata><defs
     id="defs6"><clipPath
       id="clipPath18"
       clipPathUnits="userSpaceOnUse"><path
         id="path20"
         d="M 0,500 500,500 500,0 0,0 0,500 Z" /></clipPath><clipPath
       id="clipPath138"
       clipPathUnits="userSpaceOnUse"><path
         id="path140"
         d="M 0,500 500,500 500,0 0,0 0,500 Z" /></clipPath><clipPath
       id="clipPath602"
       clipPathUnits="userSpaceOnUse"><path
         id="path604"
         d="M 0,500 500,500 500,0 0,0 0,500 Z" /></clipPath></defs><g
     transform="matrix(1.25,0,0,-1.25,0,625)"
     id="g10"><path
       id="path12"
       style="fill:#3197d7;fill-opacity:1;fill-rule:nonzero;stroke:none"
       d="M 0,0 500,0 500,500 0,500 0,0 Z" /><g
       id="g14"><g
         clip-path="url(#clipPath18)"
         id="g16"><g
           transform="translate(121.127,410.1483)"
           id="g22"><path
             id="path24"
             style="fill:#ffffff;fill-opacity:1;fill-rule:nonzero;stroke:none"
             d="m 0,0 c -13.916,-1.321 -25.392,-12.782 -26.72,-26.819 -1.792,-18.954 13.901,-30.903 32.078,-29.209 1.41,0.132 2.829,0.36 4.24,0.671 4.3,-2.937 9.576,-4.417 14.776,-4.142 -2.549,1.4 -4.71,3.765 -6.158,6.286 -0.139,0.243 -0.264,0.496 -0.388,0.748 8.06,3.995 14.439,11.042 14.923,20.259 C 33.717,-13.84 18.534,1.76 0,0" /></g><g
           transform="translate(450.3333,81.8687)"
           id="g26"><path
             id="path28"
             style="fill:#1e5f87;fill-opacity:1;fill-rule:nonzero;stroke:none"
             d="m 0,0 c 0,5.352 -95.96,9.69 -214.333,9.69 -118.373,0 -214.334,-4.338 -214.334,-9.69 0,-5.352 95.961,-9.69 214.334,-9.69 C -95.96,-9.69 0,-5.352 0,0" /></g><g
           transform="translate(419.1268,297.7834)"
           id="g30"><path
             id="path32"
             style="fill:#2a3740;fill-opacity:1;fill-rule:nonzero;stroke:none"
             d="m 0,0 -280.71,0 c -2.79,0 -5.123,-2.121 -5.388,-4.898 l -18.113,-189.897 291.583,0 L 5.388,-5.926 C 5.691,-2.748 3.192,0 0,0" /></g><g
           transform="translate(308.7143,94.5591)"
           id="g34"><path
             id="path36"
             style="fill:#ffffff;fill-opacity:1;fill-rule:nonzero;stroke:none"
             d="m 0,0 c -0.674,-1.671 -1.685,-3.187 -2.949,-4.451 -2.457,-2.457 -5.841,-3.974 -9.59,-3.974 l -243.891,0 c -5.658,0 -10.531,3.483 -12.552,8.425" /></g><g
           transform="translate(189.7456,94.5657)"
           id="g38"><path
             id="path40"
             style="fill:#0e6ab3;fill-opacity:1;fill-rule:nonzero;stroke:none"
             d="M 0,0 -33.402,0 C -36.715,0 -39.4,2.686 -39.4,5.999 l 0,2.424 45.399,0 0,-2.424 C 5.999,2.686 3.313,0 0,0" /></g><g
           transform="translate(409.6631,280.4445)"
           id="g42"><path
             id="path44"
             style="fill:#586b7d;fill-opacity:1;fill-rule:nonzero;stroke:none"
             d="m 0,0 -1.334,-14.064 -11.814,-123.955 -0.059,-0.583 -2.1,-21.972 c -0.095,-0.944 -0.59,-1.772 -1.31,-2.279 -0.508,-0.354 -1.133,-0.592 -1.794,-0.592 l -257.215,0 c -1.818,0 -3.037,1.588 -3.037,3.394 l 0,0.059 2.008,21.373 0.042,0.567 13.187,138.654 c 0.153,1.593 1.49,2.953 3.107,2.953 l 257.215,0 C -1.263,3.555 0.177,1.841 0,0" /></g><g
           transform="translate(408.67,266)"
           id="g46"><path
             id="path48"
             style="fill:#a0d4ec;fill-opacity:1;fill-rule:nonzero;stroke:none"
             d="m 0,0 -11.8,-123.766 -0.02,-0.238 -0.06,-0.584 -2.1,-21.967 c -0.09,-0.94 -0.59,-1.557 -1.31,-2.067 -0.5,-0.36 -1.13,-0.378 -1.79,-0.378 l -257.21,0 c -1.82,0 -3.38,1.168 -3.38,2.968 l 0,0.06 2.18,21.37 0.12,0.57 0.02,0.21 13.21,138.151 c 0.16,1.6 1.54,2.671 3.15,2.671 l 33.31,0 c 4.73,0 8.9,-2.735 10.29,-7.255 L -212.29,0 0,0 Z" /></g><g
           transform="translate(396.87,142)"
           id="g50"><path
             id="path52"
             style="fill:#486786;fill-opacity:1;fill-rule:nonzero;stroke:none"
             d="m 0,0 -0.02,-0.121 -0.06,-0.525 -2.1,-21.938 c -0.09,-0.94 -0.59,-1.543 -1.31,-2.053 C -3.99,-24.997 -4.62,-25 -5.28,-25 l -257.21,0 c -1.82,0 -3.38,1.168 -3.38,2.968 l 0,0.06 2.18,21.37 0.12,0.481 L -263.55,0 0,0 Z" /></g><g
           transform="translate(426.2338,297.7834)"
           id="g54"><path
             id="path56"
             style="fill:#202b33;fill-opacity:1;fill-rule:nonzero;stroke:none"
             d="m 0,0 -7.107,0 c 3.192,0 5.691,-2.748 5.388,-5.926 l -18.016,-188.869 c 4.03,0 7.399,3.063 7.782,7.075 L 5.388,-5.926 C 5.691,-2.748 3.192,0 0,0" /></g><g
           transform="translate(406.4939,99.7135)"
           id="g58"><path
             id="path60"
             style="fill:#b3b3b3;fill-opacity:1;fill-rule:nonzero;stroke:none"
             d="m 0,0 c 0,-3.749 -1.516,-7.147 -3.974,-9.604 -2.457,-2.457 -5.841,-3.974 -9.589,-3.974 l -340.648,0 c -7.02,0 -12.819,5.364 -13.493,12.216 -0.042,0.449 -0.07,0.899 -0.07,1.362 0,0.913 0.365,1.727 0.955,2.317 0.589,0.589 1.418,0.955 2.316,0.955 l 361.232,0 C -1.46,3.272 0,1.811 0,0" /></g><g
           transform="translate(381.5986,90.7822)"
           id="g62"><path
             id="path64"
             style="fill:#202b33;fill-opacity:1;fill-rule:nonzero;stroke:none"
             d="m 0,0 c -0.137,0 -0.276,0.028 -0.41,0.088 -0.503,0.227 -0.728,0.819 -0.501,1.323 0.732,1.623 1.103,3.359 1.103,5.156 0,0.553 0.448,1 1,1 0.553,0 1,-0.447 1,-1 C 2.192,4.484 1.762,2.473 0.913,0.589 0.746,0.219 0.382,0 0,0" /></g><g
           transform="translate(386.624,90.7822)"
           id="g66"><path
             id="path68"
             style="fill:#202b33;fill-opacity:1;fill-rule:nonzero;stroke:none"
             d="m 0,0 c -0.137,0 -0.276,0.028 -0.41,0.088 -0.503,0.227 -0.728,0.819 -0.501,1.323 0.732,1.623 1.103,3.359 1.103,5.156 0,0.553 0.448,1 1,1 0.553,0 1,-0.447 1,-1 C 2.192,4.484 1.762,2.473 0.913,0.589 0.746,0.219 0.382,0 0,0" /></g><g
           transform="translate(391.6484,90.7822)"
           id="g70"><path
             id="path72"
             style="fill:#202b33;fill-opacity:1;fill-rule:nonzero;stroke:none"
             d="m 0,0 c -0.137,0 -0.276,0.028 -0.41,0.088 -0.503,0.227 -0.728,0.819 -0.501,1.323 0.732,1.623 1.103,3.359 1.103,5.156 0,0.553 0.448,1 1,1 0.553,0 1,-0.447 1,-1 C 2.192,4.484 1.762,2.473 0.913,0.589 0.746,0.219 0.382,0 0,0" /></g><g
           transform="translate(309.7379,99.7135)"
           id="g74"><path
             id="path76"
             style="fill:#d1d1d1;fill-opacity:1;fill-rule:nonzero;stroke:none"
             d="m 0,0 c 0,-0.463 -0.028,-0.913 -0.07,-1.362 -0.309,-3.201 -1.741,-6.08 -3.904,-8.242 -2.457,-2.457 -5.841,-3.974 -9.59,-3.974 l -243.891,0 c -7.02,0 -12.819,5.364 -13.493,12.216 -0.042,0.449 -0.07,0.899 -0.07,1.362 0,0.913 0.365,1.727 0.955,2.317 0.589,0.589 1.418,0.955 2.316,0.955 l 264.475,0 C -1.46,3.272 0,1.811 0,0" /></g><g
           transform="translate(189.7456,94.5657)"
           id="g78"><path
             id="path80"
             style="fill:#202b33;fill-opacity:1;fill-rule:nonzero;stroke:none"
             d="M 0,0 -33.402,0 C -36.715,0 -39.4,2.686 -39.4,5.999 l 0,2.424 45.399,0 0,-2.424 C 5.999,2.686 3.313,0 0,0" /></g><g
           transform="translate(332.8775,94.5639)"
           id="g82"><path
             id="path84"
             style="fill:#202b33;fill-opacity:1;fill-rule:nonzero;stroke:none"
             d="m 0,0 c 0,1.68 -1.362,3.042 -3.042,3.042 -1.68,0 -3.042,-1.362 -3.042,-3.042 0,-1.68 1.362,-3.042 3.042,-3.042 C -1.362,-3.042 0,-1.68 0,0" /></g><g
           transform="translate(345.6334,94.5639)"
           id="g86"><path
             id="path88"
             style="fill:#202b33;fill-opacity:1;fill-rule:nonzero;stroke:none"
             d="m 0,0 c 0,1.68 -1.362,3.042 -3.042,3.042 -1.68,0 -3.042,-1.362 -3.042,-3.042 0,-1.68 1.362,-3.042 3.042,-3.042 C -1.362,-3.042 0,-1.68 0,0" /></g><g
           transform="translate(370.8394,275.6031)"
           id="g90"><path
             id="path92"
             style="fill:#00dbab;fill-opacity:1;fill-rule:nonzero;stroke:none"
             d="m 0,0 c 0,1.791 -1.452,3.243 -3.243,3.243 -1.792,0 -3.244,-1.452 -3.244,-3.243 0,-1.791 1.452,-3.243 3.244,-3.243 C -1.452,-3.243 0,-1.791 0,0" /></g><g
           transform="translate(384.5727,275.6031)"
           id="g94"><path
             id="path96"
             style="fill:#f65b45;fill-opacity:1;fill-rule:nonzero;stroke:none"
             d="m 0,0 c 0,1.791 -1.452,3.243 -3.243,3.243 -1.792,0 -3.244,-1.452 -3.244,-3.243 0,-1.791 1.452,-3.243 3.244,-3.243 C -1.452,-3.243 0,-1.791 0,0" /></g><g
           transform="translate(398.3061,275.6031)"
           id="g98"><path
             id="path100"
             style="fill:#fcb237;fill-opacity:1;fill-rule:nonzero;stroke:none"
             d="m 0,0 c 0,1.791 -1.452,3.243 -3.243,3.243 -1.792,0 -3.244,-1.452 -3.244,-3.243 0,-1.791 1.452,-3.243 3.244,-3.243 C -1.452,-3.243 0,-1.791 0,0" /></g><g
           transform="translate(382.973,130.0002)"
           id="g102"><path
             id="path104"
             style="fill:#638cb5;fill-opacity:1;fill-rule:nonzero;stroke:none"
             d="m 0,0 -231.211,0 c -0.782,0 -1.417,-0.634 -1.417,-1.417 l 0,-0.51 c 0,-0.783 0.635,-1.417 1.417,-1.417 L 0,-3.344 c 0.782,0 1.417,0.634 1.417,1.417 l 0,0.51 C 1.417,-0.634 0.782,0 0,0" /></g><g
           transform="translate(159.1833,128.4266)"
           id="g106"><path
             id="path108"
             style="fill:#ffffff;fill-opacity:1;fill-rule:nonzero;stroke:none"
             d="m 0,0 c 0,2.825 -2.29,5.114 -5.114,5.114 -2.825,0 -5.114,-2.289 -5.114,-5.114 0,-2.825 2.289,-5.114 5.114,-5.114 C -2.29,-5.114 0,-2.825 0,0" /></g><g
           transform="translate(334.0082,177.149)"
           id="g110"><path
             id="path112"
             style="fill:#ffffff;fill-opacity:1;fill-rule:nonzero;stroke:none"
             d="m -4.5709445,31.717293 c 0,9.391891 -7.6135375,17.004215 -17.0042145,17.004215 -9.391892,0 -17.004216,-7.612324 -17.004216,-17.004215 0,-9.391891 7.612324,-17.004215 17.004216,-17.004215 9.390677,0 17.0042145,7.612324 17.0042145,17.004215" /></g><g
           transform="translate(151.5919,301.8514)"
           id="g114"><path
             id="path116"
             style="fill:#ffffff;fill-opacity:1;fill-rule:nonzero;stroke:none"
             d="m 0,0 c -4.087,12.505 -14.503,22.309 -26.51,27.688 -20.648,9.25 -51.246,5.805 -65.798,-12.471 -12.156,-15.268 -9.634,-37.631 4.497,-50.581 12.856,-11.781 35.949,-15.973 55.544,-12.142 9.179,-8.08 23.783,-9.447 34.193,-2.943 -6.742,0.722 -13.183,3.786 -18.096,8.449 C -1.805,-34.42 6.707,-20.523 0,0" /></g><g
           transform="translate(101.41669,292.9731)"
           id="g118"><path
             id="path120"
             style="fill:#202b33;fill-opacity:1;fill-rule:nonzero;stroke:none"
             d="m 0,0 c -1.386,5.123 -2.275,10.982 -5.75,15.147 -0.876,1.05 -2.832,0.487 -3.101,-0.819 -0.835,-4.055 0.153,-8.311 1.206,-12.397 -3.314,-0.708 -6.814,-1.448 -10.026,-2.637 -0.931,3.773 -2.041,7.467 -3.556,10.921 -0.446,1.017 -1.676,1.478 -2.689,1.543 -0.392,0.025 -0.713,0.051 -1.068,-0.146 -0.168,-0.093 -0.336,-0.186 -0.504,-0.279 -0.927,-0.515 -1.58,-1.622 -1.542,-2.689 0.337,-9.658 3.788,-19.684 5.935,-29.08 0.925,-4.047 7.795,-3.224 7.328,0.992 -0.11,0.986 -0.207,1.77 -0.463,2.476 -0.659,3.025 -1.252,6.139 -1.885,9.257 3.396,0.418 6.879,1.408 10.152,2.333 0.904,-4.722 1.739,-9.781 4.031,-13.763 1.627,-2.827 5.879,-1.515 5.969,1.616 C 4.203,-11.766 1.497,-5.535 0,0" /></g><g
           transform="translate(123.3485,281.5453)"
           id="g122"><path
             id="path124"
             style="fill:#202b33;fill-opacity:1;fill-rule:nonzero;stroke:none"
             d="m 0,0 c -1.268,4.321 -2.138,8.998 -4.721,12.748 -1.554,2.257 -4.873,1.384 -5.059,-1.37 -0.307,-4.553 1.333,-9.027 2.45,-13.399 0.402,-1.572 2.012,-2.874 3.665,-2.79 0.721,0.037 1.279,0.183 1.918,0.519 C -0.267,-3.515 0.462,-1.575 0,0" /></g><g
           transform="translate(111,312.7682)"
           id="g126"><path
             id="path128"
             style="fill:#202b33;fill-opacity:1;fill-rule:nonzero;stroke:none"
             d="M 0,0 C -6,0 -6,-9.18 0,-9.18 6,-9.18 6,0 0,0" /></g></g></g><g
       id="g134"><g
         clip-path="url(#clipPath138)"
         id="g136"><g
           transform="translate(315.2421,177.1496)"
           id="g142"><path
             id="path144"
             style="fill:#f65b45;fill-opacity:1;fill-rule:nonzero;stroke:none"
             d="m -10.820409,31.342778 0,6.828562 c 0,2.411958 2.6110548,3.916582 4.6977707,2.709843 l 5.88931183,-3.408961 5.91514787,-3.42112 c 2.0836764,-1.205219 2.0851965,-4.212948 0.00148,-5.418167 l -5.91054897,-3.419601 -5.89691053,-3.41048 c -2.0851961,-1.206739 -4.6962509,0.297885 -4.6962509,2.708322 l 0,6.831602 z" /></g><g
           transform="translate(258.0416,142)"
           id="g146"><path
             id="path148"
             style="fill:#1e60a6;fill-opacity:1;fill-rule:nonzero;stroke:none"
             d="m 0,0 -84.161,0 c 0.508,5 1.228,9.012 2.266,13.297 1.476,6.196 3.6,12.277 6.621,17.907 0.083,0.153 0.165,0.368 0.26,0.521 5.051,9.371 11.436,18.873 21.149,23.192 9.867,4.379 21.563,3.034 31.311,-1.628 4.627,-2.207 10.079,-9.011 14.458,-18.216 2.997,-6.279 5.488,-13.86 6.88,-21.673 C -0.437,9.08 0,5 0,0" /></g><g
           transform="translate(202.8594,203.5909)"
           id="g150"><path
             id="path152"
             style="fill:#878787;fill-opacity:1;fill-rule:nonzero;stroke:none"
             d="M 0,0 C 0,0 14.729,7.698 29.458,0 L 14.729,-15.894 0,0 Z" /></g><g
           transform="translate(230.9597,195.5127)"
           id="g154"><path
             id="path156"
             style="fill:#ffa970;fill-opacity:1;fill-rule:nonzero;stroke:none"
             d="m 0,0 c -0.069,2.654 -0.032,3.925 0.018,6.569 0.019,1.307 0.049,2.614 0.078,3.922 0.089,3.902 0.177,7.814 0.069,11.716 -8.581,-2.035 -16.769,-3.705 -25.517,-2.624 0.03,-2.939 0.059,-5.888 0.079,-8.837 l 0.03,-3.509 c 0.019,-2.211 0.039,-4.433 0.059,-6.654 L -13.371,-7.816 0,0 Z" /></g><g
           transform="translate(231.0559,206.0034)"
           id="g158"><path
             id="path160"
             style="fill:#ff954f;fill-opacity:1;fill-rule:nonzero;stroke:none"
             d="m 0,0 c -1.101,-0.639 -2.271,-1.18 -3.46,-1.612 -6.497,-2.349 -15.756,-2.113 -21.909,1.868 -0.02,2.948 -0.049,5.897 -0.079,8.836 C -16.7,8.011 -8.512,9.682 0.069,11.716 0.177,7.814 0.088,3.902 0,0" /></g><g
           transform="translate(162.7825,288.6824)"
           id="g162"><path
             id="path164"
             style="fill:#e07b48;fill-opacity:1;fill-rule:nonzero;stroke:none"
             d="m 0,0 c 0.265,-3.052 2.248,-6.013 5.24,-7.226 2.992,-1.212 6.877,-0.393 8.745,2.116 1.322,1.775 1.543,4.087 1.291,6.241 -0.338,2.883 -1.563,5.82 -4.027,7.566 C 4.725,13.322 -0.492,5.662 0,0" /></g><g
           transform="translate(266.6729,289.4453)"
           id="g166"><path
             id="path168"
             style="fill:#e07b48;fill-opacity:1;fill-rule:nonzero;stroke:none"
             d="m 0,0 c -0.265,-3.052 -2.249,-6.013 -5.24,-7.226 -2.992,-1.212 -6.877,-0.393 -8.745,2.116 -1.322,1.775 -1.543,4.087 -1.291,6.241 0.338,2.883 1.563,5.82 4.027,7.566 C -4.725,13.322 0.492,5.662 0,0" /></g><g
           transform="translate(256.601,334.9094)"
           id="g170"><path
             id="path172"
             style="fill:#ffa970;fill-opacity:1;fill-rule:nonzero;stroke:none"
             d="m 0,0 c -0.662,-32.92 -1.409,-66.383 -12.003,-97.775 -2.106,-6.299 -4.686,-12.597 -9.1,-17.725 -4.415,-5.144 -10.951,-9.015 -17.98,-9.049 -13.412,-0.068 -22.342,12.768 -27.674,24.346 -14.906,32.394 -22.41,67.776 -21.85,103.072 0.815,-0.322 1.647,-0.628 2.496,-0.917 25.942,-9.235 58.947,-10.339 85.16,-2.241 C -0.628,-0.204 -0.306,-0.102 0,0" /></g><g
           transform="translate(202.0798,287.0307)"
           id="g174"><path
             id="path176"
             style="fill:#422014;fill-opacity:1;fill-rule:nonzero;stroke:none"
             d="M 0,0 C 0.27,-0.622 0.843,-1.333 1.758,-1.312 2.882,-1.285 3.269,-0.243 3.291,0.557 3.319,1.609 3.858,6.953 0.74,6.069 -1.639,5.395 -0.513,1.185 0,0" /></g><g
           transform="translate(236.4438,288.0182)"
           id="g178"><path
             id="path180"
             style="fill:#422014;fill-opacity:1;fill-rule:nonzero;stroke:none"
             d="M 0,0 C -0.27,-0.622 -0.843,-1.333 -1.758,-1.312 -2.882,-1.285 -3.269,-0.243 -3.291,0.557 -3.319,1.609 -3.858,6.953 -0.74,6.069 1.639,5.395 0.513,1.185 0,0" /></g><g
           transform="translate(207.4532,272.7239)"
           id="g182"><path
             id="path184"
             style="fill:#f87056;fill-opacity:1;fill-rule:nonzero;stroke:none"
             d="m 0,0 c -4.289,-3.662 -2.735,-10.467 2.021,-12.73 5.894,-2.803 20.266,-1.934 21.239,6.532 0.492,4.28 -3.412,8.06 -7.615,9.006 C 11.216,3.803 3.564,3.041 0,0" /></g><g
           transform="translate(226.0239,272.3997)"
           id="g186"><path
             id="path188"
             style="fill:#f88670;fill-opacity:1;fill-rule:nonzero;stroke:none"
             d="m 0,0 c -3.39,3.226 -10.06,2.117 -13.962,0.585 -0.448,-0.176 -0.436,-0.924 0.122,-0.902 2.274,0.089 4.508,0.603 6.792,0.607 2.311,0.005 4.232,-0.799 6.421,-1.367 C -0.019,-1.236 0.476,-0.453 0,0" /></g><g
           transform="translate(227.4221,238.6949)"
           id="g190"><path
             id="path192"
             style="fill:#a22d36;fill-opacity:1;fill-rule:nonzero;stroke:none"
             d="m 0,0 c -0.697,-3.373 -2.015,-6.402 -3.737,-8.472 -0.11,-0.136 -0.221,-0.262 -0.334,-0.388 -2.948,-3.247 -6.933,-3.6 -10.069,-0.889 -0.062,0.056 -0.125,0.111 -0.185,0.172 -1.955,1.797 -3.294,4.831 -4.032,8.325 -0.401,1.888 -0.628,3.908 -0.685,5.947 6.514,0.939 13.048,1.48 19.586,1.626 C 0.619,4.175 0.422,2.025 0,0" /></g><g
           transform="translate(227.4221,238.6949)"
           id="g194"><path
             id="path196"
             style="fill:#fefefc;fill-opacity:1;fill-rule:nonzero;stroke:none"
             d="m 0,0 c -6.119,-0.414 -12.238,-0.833 -18.357,-1.252 -0.401,1.888 -0.628,3.908 -0.685,5.947 6.514,0.939 13.048,1.48 19.586,1.626 C 0.619,4.175 0.422,2.025 0,0" /></g><g
           transform="translate(223.6855,230.2232)"
           id="g198"><path
             id="path200"
             style="fill:#c93646;fill-opacity:1;fill-rule:nonzero;stroke:none"
             d="m 0,0 c -0.111,-0.136 -0.221,-0.263 -0.335,-0.389 -2.947,-3.246 -6.932,-3.599 -10.068,-0.888 -0.063,0.055 -0.125,0.111 -0.185,0.171 1.273,2.257 3.022,3.757 4.863,4.07 C -3.686,3.307 -1.584,2.186 0,0" /></g><g
           transform="translate(215.3495,201.4827)"
           id="g202"><path
             id="path204"
             style="fill:#a1a1a1;fill-opacity:1;fill-rule:nonzero;stroke:none"
             d="m 0,0 2.239,-13.786 -13.034,4.06 c 0,0 5.492,10.393 10.795,9.726" /></g><g
           transform="translate(215.3495,201.4827)"
           id="g206"><path
             id="path208"
             style="fill:#d1d1d1;fill-opacity:1;fill-rule:nonzero;stroke:none"
             d="m 0,0 c -4.163,0.703 -8.327,1.406 -12.49,2.108 -3.855,-6.039 -5.885,-8.296 -9.1,-11.386 4.979,-1.243 9.628,-3.844 13.645,-7.039 C -7.816,-9.948 -5.129,-3.779 0,0" /></g><g
           transform="translate(219.8273,201.4827)"
           id="g210"><path
             id="path212"
             style="fill:#a1a1a1;fill-opacity:1;fill-rule:nonzero;stroke:none"
             d="m 0,0 -2.239,-13.786 13.034,4.06 C 10.795,-9.726 5.303,0.667 0,0" /></g><g
           transform="translate(219.8273,201.4827)"
           id="g214"><path
             id="path216"
             style="fill:#d1d1d1;fill-opacity:1;fill-rule:nonzero;stroke:none"
             d="m 0,0 c 4.163,0.703 8.327,1.406 12.49,2.108 3.272,-4.534 6.975,-8.146 9.1,-11.386 -4.979,-1.243 -9.628,-3.844 -13.645,-7.039 C 7.816,-9.948 5.129,-3.779 0,0" /></g><g
           transform="translate(164.7732,329.1051)"
           id="g218"><path
             id="path220"
             style="fill:#964419;fill-opacity:1;fill-rule:nonzero;stroke:none"
             d="m 0,0 c 6.142,-8.779 15.249,-15.444 25.474,-18.644 2.591,-0.811 5.455,-1.393 7.97,-0.369 2.514,1.024 4.261,4.257 2.836,6.567 10.549,-4.282 21.707,-9.779 33.091,-9.709 11.385,0.069 23.52,5.663 27.844,16.195 4.753,11.576 -1.581,25.402 -11.64,32.846 -7.477,5.533 -17.45,9.1 -26.702,9.982 -3.828,0.365 -7.893,0.127 -11.463,-1.415 -0.878,-0.38 -8.954,-5.446 -7.922,-6.626 -3.369,3.853 -8.212,6.384 -13.3,6.95 C 9.514,37.633 -11.415,16.315 0,0" /></g><g
           transform="translate(172.9433,288.0147)"
           id="g222"><path
             id="path224"
             style="fill:#964419;fill-opacity:1;fill-rule:nonzero;stroke:none"
             d="m 0,0 c 1.133,-3.085 3.085,-6.505 5.22,-5.637 1.834,0.745 2.432,4.178 2.63,7.113 0.884,13.149 -0.551,26.859 -4.115,39.297 -0.671,2.342 -1.452,4.713 -2.72,6.396 -1.267,1.683 -3.14,2.51 -4.542,1.369 C -5.078,47.277 -5.529,44.226 -5.719,41.489 -6.693,27.45 -4.658,12.685 0,0" /></g><g
           transform="translate(257.8133,286.0105)"
           id="g226"><path
             id="path228"
             style="fill:#964419;fill-opacity:1;fill-rule:nonzero;stroke:none"
             d="m 0,0 c -0.929,-2.771 -2.653,-5.884 -4.84,-5.245 -1.88,0.549 -2.701,3.526 -3.09,6.089 -1.741,11.484 -1.205,23.593 1.538,34.709 0.517,2.093 1.141,4.218 2.296,5.767 1.155,1.549 2.97,2.382 4.444,1.462 1.63,-1.017 2.279,-3.668 2.647,-6.058 C 4.885,24.465 3.819,11.395 0,0" /></g><g
           transform="translate(256.826,155.599)"
           id="g230"><path
             id="path232"
             style="fill:#226ebd;fill-opacity:1;fill-rule:nonzero;stroke:none"
             d="m 0,0 c -3.387,-0.862 -6.751,-1.534 -9.902,-2.042 -10.787,-1.77 -21.645,-2.596 -32.586,-2.372 -10.704,0.224 -21.503,0.803 -32.042,2.868 -2.054,0.401 -4.119,0.861 -6.149,1.44 1.475,6.196 3.6,12.18 6.621,17.809 0.082,0.154 0.165,0.319 0.259,0.472 2.455,-0.141 4.934,-0.106 7.353,-0.141 9.336,-0.107 18.636,-0.886 27.959,-0.697 8.911,0.189 17.833,0.744 26.531,2.762 1.724,0.401 3.411,0.873 5.075,1.381 C -3.883,15.201 -1.393,7.813 0,0" /></g><g
           transform="translate(242.119,353.1046)"
           id="g234"><path
             id="path236"
             style="fill:#9e481a;fill-opacity:1;fill-rule:nonzero;stroke:none"
             d="m 0,0 c -2.996,1.52 -6.27,2.395 -9.517,3.259 -1.5,0.4 -3.107,0.797 -4.579,0.302 -2.152,-0.724 -3.307,-3.229 -3.133,-5.494 0.174,-2.264 1.387,-4.311 2.717,-6.152 5.074,-7.026 12.372,-12.42 20.577,-15.21 1.693,-0.576 3.676,-1.011 5.174,-0.034 1.829,1.192 1.952,3.816 1.581,5.967 C 11.551,-10.01 6.652,-3.376 0,0" /></g><g
           transform="translate(478.6307,189.5349)"
           id="g238"><path
             id="path240"
             style="fill:#d1d1d1;fill-opacity:1;fill-rule:nonzero;stroke:none"
             d="m 0,0 -2.079,-20.77 -12.816,-2.137 c -0.855,-2.008 -1.854,-3.947 -2.985,-5.803 l 6.356,-10.422 -16.156,-14.687 -9.682,7.4 c -1.951,-0.946 -3.97,-1.75 -6.044,-2.404 l -3.398,-12.602 -10.385,0 2.33,23.28 c 15.332,0 29.004,12.428 30.539,27.76 1.535,15.331 -9.649,27.76 -24.981,27.76 l 2.331,23.28 10.385,0 0.875,-12.602 c 1.943,-0.654 3.801,-1.458 5.563,-2.404 l 11.163,7.4 L -5.768,18.362 -14.211,7.94 c 0.76,-1.856 1.37,-3.795 1.823,-5.803 L 0,0 Z" /></g><g
           transform="translate(455.1832,106.457)"
           id="g242"><path
             id="path244"
             style="fill:#b3b3b3;fill-opacity:1;fill-rule:nonzero;stroke:none"
             d="m 0,0 c -5.324,0 -9.64,4.316 -9.64,9.64 0,5.325 4.316,9.641 9.64,9.641 5.324,0 9.64,-4.316 9.64,-9.641 C 9.64,4.316 5.324,0 0,0 m 17.271,6.126 0,7.028 -4.265,0.724 c -0.221,0.679 -0.493,1.335 -0.813,1.963 l 2.504,3.527 -4.97,4.969 -3.526,-2.504 c -0.628,0.32 -1.284,0.593 -1.964,0.814 l -0.723,4.264 -3.514,0 -3.514,0 -0.723,-4.264 c -0.68,-0.221 -1.336,-0.494 -1.964,-0.814 l -3.526,2.504 -4.97,-4.969 2.504,-3.527 c -0.32,-0.628 -0.592,-1.284 -0.813,-1.963 l -4.265,-0.724 0,-7.028 4.265,-0.723 c 0.221,-0.679 0.493,-1.335 0.813,-1.963 l -2.504,-3.527 4.97,-4.97 3.526,2.504 c 0.628,-0.32 1.284,-0.592 1.964,-0.813 l 0.723,-4.264 3.514,0 3.514,0 0.723,4.264 c 0.68,0.221 1.336,0.493 1.964,0.813 l 3.526,-2.504 4.97,4.97 -2.504,3.527 c 0.32,0.628 0.592,1.284 0.813,1.963 l 4.265,0.723 z" /></g><g
           transform="translate(121.7426,369.855)"
           id="g246"><path
             id="path248"
             style="fill:#e84027;fill-opacity:1;fill-rule:nonzero;stroke:none"
             d="m 0,0 c 1.289,-0.588 2.782,-0.496 3.999,0.23 2.165,1.293 4.273,2.678 6.074,4.42 2.34,2.263 4.146,5.225 4.346,8.447 0.199,3.223 -1.489,6.656 -4.499,7.943 -3.085,1.32 -7.135,-0.732 -8.685,-3.669 -1.399,0.722 -2.82,1.44 -4.353,1.818 -1.533,0.378 -3.209,0.392 -4.641,-0.264 -1.377,-0.631 -2.426,-1.84 -3.047,-3.203 C -12.33,12.379 -11.297,8.278 -8.916,5.461 -7.217,3.451 -2.688,1.225 0,0" /></g><g
           transform="translate(394.0306,305.7534)"
           id="g250"><path
             id="path252"
             style="fill:#236b99;fill-opacity:1;fill-rule:nonzero;stroke:none"
             d="m 0,0 c -0.672,4.035 0.228,8.19 -0.289,12.248 -0.516,4.057 -3.27,8.427 -7.359,8.493 -3.067,0.05 -5.665,-2.382 -7.099,-5.093 -2.548,-4.814 -2.455,-10.569 -1.86,-15.984 C -11.777,-0.224 -4.83,-0.112 0,0" /></g><g
           transform="translate(394.7169,332.0275)"
           id="g254"><path
             id="path256"
             style="fill:#236b99;fill-opacity:1;fill-rule:nonzero;stroke:none"
             d="m 0,0 c -0.878,3.908 -5.046,6.768 -9.008,6.182 -4.224,-0.625 -7.465,-5.106 -6.736,-9.313 0.729,-4.208 5.289,-7.337 9.477,-6.504 C -2.079,-8.802 0.936,-4.166 0,0" /></g><g
           transform="translate(427.1545,305.7407)"
           id="g258"><path
             id="path260"
             style="fill:#236b99;fill-opacity:1;fill-rule:nonzero;stroke:none"
             d="m 0,0 c -0.672,4.035 0.227,8.19 -0.289,12.248 -0.516,4.057 -3.27,8.427 -7.359,8.493 -3.067,0.05 -5.665,-2.382 -7.099,-5.093 -2.548,-4.814 -2.455,-10.569 -1.86,-15.984 C -11.777,-0.224 -4.83,-0.112 0,0" /></g><g
           transform="translate(427.8408,332.0147)"
           id="g262"><path
             id="path264"
             style="fill:#236b99;fill-opacity:1;fill-rule:nonzero;stroke:none"
             d="m 0,0 c -0.878,3.908 -5.046,6.768 -9.008,6.182 -4.224,-0.625 -7.465,-5.106 -6.736,-9.313 0.729,-4.208 5.289,-7.337 9.477,-6.504 C -2.079,-8.802 0.936,-4.166 0,0" /></g><g
           transform="translate(409.7656,325.7487)"
           id="g266"><path
             id="path268"
             style="fill:#236b99;fill-opacity:1;fill-rule:nonzero;stroke:none"
             d="m 0,0 c -0.531,3.187 0.18,6.47 -0.228,9.675 -0.408,3.205 -2.583,6.656 -5.814,6.709 -2.422,0.039 -4.474,-1.882 -5.607,-4.023 C -13.662,8.558 -13.588,4.012 -13.118,-0.265 -9.303,-0.177 -3.816,-0.088 0,0" /></g><g
           transform="translate(410.3078,346.5033)"
           id="g270"><path
             id="path272"
             style="fill:#236b99;fill-opacity:1;fill-rule:nonzero;stroke:none"
             d="m 0,0 c -0.694,3.087 -3.986,5.346 -7.115,4.883 -3.337,-0.493 -5.898,-4.033 -5.322,-7.356 0.576,-3.324 4.178,-5.796 7.486,-5.138 C -1.642,-6.953 0.74,-3.291 0,0" /></g><g
           transform="translate(394.7876,350.3991)"
           id="g274"><path
             id="path276"
             style="fill:#236b99;fill-opacity:1;fill-rule:nonzero;stroke:none"
             d="m 0,0 c -0.572,0.158 -1.18,0.395 -1.777,0.397 -0.681,0.002 -1.192,-0.921 -0.507,-1.352 0.21,-0.132 0.434,-0.229 0.664,-0.314 -0.837,-0.22 -1.739,-0.915 -2.2,-1.33 -1.268,-1.142 -2.278,-2.882 -2.415,-4.598 -0.029,-0.355 0.434,-0.428 0.579,-0.134 0.617,1.246 1.182,2.428 2.092,3.496 0.477,0.559 1.073,0.997 1.73,1.318 0.048,0.023 0.097,0.041 0.145,0.059 0.08,-0.696 1.056,-1.027 1.489,-0.391 0.345,0.506 0.491,1.177 0.693,1.752 C 0.636,-0.691 0.455,-0.126 0,0" /></g><g
           transform="translate(418.7236,343.2663)"
           id="g278"><path
             id="path280"
             style="fill:#236b99;fill-opacity:1;fill-rule:nonzero;stroke:none"
             d="m 0,0 c -0.906,2.279 -2.852,4.681 -5.289,4.861 -0.588,0.043 -0.918,-0.746 -0.41,-1.095 0.978,-0.672 1.975,-1.157 2.793,-2.046 0.615,-0.668 1.056,-1.453 1.392,-2.285 -0.355,0.074 -0.716,0.078 -1.065,-0.038 -0.388,-0.13 -0.318,-0.626 -0.079,-0.843 0.56,-0.506 1.403,-0.69 2.02,-1.152 0.346,-0.259 0.776,-0.131 1.037,0.17 0.467,0.54 0.845,1.199 0.936,1.916 C 1.434,0.271 0.423,0.534 0,0" /></g><g
           transform="translate(405.9155,316.7721)"
           id="g282"><path
             id="path284"
             style="fill:#236b99;fill-opacity:1;fill-rule:nonzero;stroke:none"
             d="M 0,0 C -1.145,-0.204 -2.365,-0.218 -3.52,-0.087 -4.588,0.035 -5.458,0.49 -6.323,1.01 -6.124,1.042 -5.924,1.064 -5.726,1.105 -4.636,1.329 -4.93,3.029 -6.028,2.81 -6.843,2.646 -7.656,2.518 -8.485,2.455 -8.76,2.434 -9.036,2.181 -9.121,1.929 c -0.311,-0.922 -0.7,-1.853 -0.811,-2.826 -0.075,-0.654 0.862,-1.037 1.228,-0.46 0.28,0.442 0.49,0.92 0.678,1.408 2.14,-2.037 5.803,-2.315 8.309,-0.948 C 0.743,-0.646 0.549,0.098 0,0" /></g><g
           transform="translate(312.7128,360.0929)"
           id="g286"><path
             id="path288"
             style="fill:#1e5b82;fill-opacity:1;fill-rule:nonzero;stroke:none"
             d="m 0,0 c -6.034,-3.94 -13.364,-5.797 -20.515,-5.197 -11.514,0.967 -22.26,8.578 -27.122,19.21 -4.862,10.632 -3.651,23.87 3.056,33.413 6.708,9.542 18.65,15.017 30.143,13.819 C -4.163,60.173 5.451,53.872 10.639,44.811 15.826,35.749 16.456,24.155 12.281,14.57 9.699,8.642 5.372,3.508 0,0" /></g><g
           transform="translate(316.3021,363.7796)"
           id="g290"><path
             id="path292"
             style="fill:#236b99;fill-opacity:1;fill-rule:nonzero;stroke:none"
             d="m 0,0 c -5.84,-3.502 -12.849,-5.017 -19.614,-4.24 -10.893,1.252 -20.859,8.692 -25.155,18.78 -4.296,10.087 -2.753,22.429 3.893,31.149 6.646,8.72 18.137,13.479 29.003,12.012 C -2.159,56.388 6.773,50.207 11.424,41.578 16.075,32.949 16.328,22.089 12.083,13.253 9.457,7.787 5.2,3.118 0,0" /></g><g
           transform="translate(310.757,373.0341)"
           id="g294"><path
             id="path296"
             style="fill:#2674a6;fill-opacity:1;fill-rule:nonzero;stroke:none"
             d="m 0,0 c -3.821,-2.291 -8.406,-3.282 -12.832,-2.774 -7.126,0.819 -13.646,5.687 -16.457,12.286 -2.81,6.6 -1.801,14.674 2.547,20.379 4.348,5.705 11.866,8.818 18.974,7.858 C -1.412,36.891 4.431,32.847 7.474,27.201 10.517,21.556 10.682,14.451 7.905,8.67 6.187,5.095 3.402,2.04 0,0" /></g><g
           transform="translate(304.9273,382.7637)"
           id="g298"><path
             id="path300"
             style="fill:#236b99;fill-opacity:1;fill-rule:nonzero;stroke:none"
             d="m 0,0 c -1.698,-1.018 -3.735,-1.458 -5.702,-1.232 -3.166,0.363 -6.063,2.526 -7.312,5.459 -1.249,2.932 -0.801,6.52 1.131,9.055 1.933,2.535 5.273,3.918 8.431,3.491 2.824,-0.381 5.421,-2.178 6.773,-4.687 C 4.673,9.578 4.746,6.421 3.512,3.853 2.749,2.264 1.512,0.906 0,0" /></g><g
           transform="translate(297.6418,397.903)"
           id="g302"><path
             id="path304"
             style="fill:#1e5b82;fill-opacity:1;fill-rule:nonzero;stroke:none"
             d="m 0,0 c -0.139,1.521 2.427,1.871 2.67,0.361 0.232,-1.439 0.515,-2.889 0.734,-4.343 0.053,-0.222 0.12,-0.439 0.178,-0.659 5.42,4.626 10.841,9.251 16.284,13.849 5.845,4.938 11.533,10.47 17.94,14.671 0.956,0.626 1.887,-0.735 1.173,-1.52 C 33.894,16.779 27.611,12.098 21.896,7.179 16.528,2.558 11.138,-2.036 5.747,-6.629 c 0.208,0.027 0.416,0.055 0.625,0.092 1.142,0.2 1.982,0.734 3.119,0.283 0.739,-0.293 1.281,-1.147 0.779,-1.915 C 8.923,-10.23 5.345,-9.896 3.183,-9.607 2.609,-9.531 2.189,-9.293 1.933,-8.814 1.1,-8.475 0.561,-7.465 1.231,-6.68 0.619,-4.495 0.209,-2.277 0,0" /></g><g
           transform="translate(335.1506,419.3302)"
           id="g306"><path
             id="path308"
             style="fill:#1e5b82;fill-opacity:1;fill-rule:nonzero;stroke:none"
             d="M 0,0 C 2.703,0.254 5.406,0.507 8.109,0.761 4.311,-6.326 -3.945,-10.754 -11.95,-9.998 -8.204,-6.806 -3.746,-3.192 0,0" /></g><g
           transform="translate(333.7145,419.9178)"
           id="g310"><path
             id="path312"
             style="fill:#1e5b82;fill-opacity:1;fill-rule:nonzero;stroke:none"
             d="M 0,0 C 0.655,2.635 1.31,5.269 1.965,7.904 -5.61,5.208 -11.223,-2.293 -11.672,-10.321 -7.956,-7.095 -3.716,-3.227 0,0" /></g><g
           transform="translate(285.8985,315.0283)"
           id="g314"><path
             id="path316"
             style="fill:#ffffff;fill-opacity:1;fill-rule:nonzero;stroke:none"
             d="M 0,0 C -1.321,0.18 -2.712,0.161 -4.025,-0.149 -4.354,0.387 -4.903,0.803 -5.482,0.982 -5.928,1.119 -6.371,1.11 -6.788,0.995 -7.141,0.937 -7.527,0.792 -7.782,0.632 c -0.532,-0.334 -0.761,-0.84 -0.945,-1.409 -0.369,-1.142 0.207,-2.334 1.118,-3.031 0.489,-0.4 1.12,-0.646 1.838,-0.644 0.936,0.001 1.735,0.684 2.073,1.53 1.13,0.078 2.255,0.14 3.405,0.121 C 1.292,-2.828 1.598,-0.218 0,0" /></g><g
           transform="translate(297.6936,316.1214)"
           id="g318"><path
             id="path320"
             style="fill:#ffffff;fill-opacity:1;fill-rule:nonzero;stroke:none"
             d="M 0,0 C 0.002,0.033 0.005,0.065 0.007,0.098 0.048,0.655 -0.59,1.116 -1.115,1.003 -1.531,1.041 -1.95,0.849 -2.273,0.58 c -0.958,-0.799 -2.208,-1.323 -3.469,-1.326 -0.978,-0.002 -1.4,-1.501 -0.457,-1.916 2.052,-0.904 4.508,-0.484 5.915,1.371 C 0.032,-0.875 0.119,-0.428 0,0" /></g><g
           transform="translate(307.721,326.3132)"
           id="g322"><path
             id="path324"
             style="fill:#ffffff;fill-opacity:1;fill-rule:nonzero;stroke:none"
             d="m 0,0 c -0.426,0.434 -1.063,0.319 -1.476,-0.045 -0.75,-0.66 -0.686,-1.922 -1.125,-2.794 -0.443,-0.883 -1.207,-1.843 -2.026,-2.405 -0.844,-0.579 -0.26,-1.96 0.755,-1.649 1.52,0.466 2.524,1.208 3.44,2.514 C 0.366,-3.239 1.101,-1.12 0,0" /></g><g
           transform="translate(308.5729,332.2148)"
           id="g326"><path
             id="path328"
             style="fill:#ffffff;fill-opacity:1;fill-rule:nonzero;stroke:none"
             d="M 0,0 C -0.141,0.664 -0.106,1.364 -0.029,2.037 0.051,2.722 0.179,3.566 0.676,4.07 1.439,4.844 2.703,4.642 2.937,3.484 3.059,2.876 2.836,2.315 2.726,1.72 2.622,1.161 2.57,0.594 2.45,0.038 2.156,-1.327 0.301,-1.414 0,0" /></g><g
           transform="translate(310.3439,341.5009)"
           id="g330"><path
             id="path332"
             style="fill:#ffffff;fill-opacity:1;fill-rule:nonzero;stroke:none"
             d="M 0,0 C 0.08,0.929 0.272,1.906 0.58,2.785 1.103,4.278 3.48,3.653 3.257,2.105 3.125,1.187 2.834,0.227 2.478,-0.63 1.912,-1.993 -0.126,-1.447 0,0" /></g><g
           transform="translate(311.016,354.2859)"
           id="g334"><path
             id="path336"
             style="fill:#ffffff;fill-opacity:1;fill-rule:nonzero;stroke:none"
             d="m 0,0 c 0.398,0.724 1.055,1.143 1.789,1.343 0.076,0.024 0.145,0.06 0.225,0.077 0.214,0.045 0.423,0.062 0.628,0.063 0.327,0.016 0.656,0 0.974,-0.051 C 4.347,1.316 5.021,0.739 5.384,0.119 5.683,-0.393 5.726,-0.949 5.63,-1.493 5.651,-2.538 5.057,-3.507 4.179,-4.125 4.096,-4.184 4.007,-4.224 3.92,-4.271 3.868,-4.952 3.689,-5.659 3.429,-6.185 2.987,-7.078 1.598,-7.261 1.189,-6.206 0.93,-5.536 0.816,-4.752 0.853,-3.995 0.734,-3.918 0.618,-3.838 0.51,-3.749 -0.568,-2.864 -0.625,-1.137 0,0" /></g><g
           transform="translate(338.5632,373.6941)"
           id="g338"><path
             id="path340"
             style="fill:#ffffff;fill-opacity:1;fill-rule:nonzero;stroke:none"
             d="M 0,0 C -0.471,0.479 -1.074,0.722 -1.729,0.815 -2.006,0.854 -2.28,0.82 -2.557,0.786 -2.871,0.72 -3.147,0.58 -3.386,0.366 -3.425,0.32 -3.446,0.296 -3.477,0.258 c -0.557,-0.263 -1.044,-0.71 -1.35,-1.194 -0.699,-1.104 -0.463,-2.329 0.254,-3.334 0.602,-0.846 1.881,-1.166 2.855,-1.015 0.084,0.013 0.163,0.038 0.243,0.058 0.765,-0.823 1.558,-1.617 2.362,-2.402 1.002,-0.979 1.95,-2.133 3.173,-2.831 1.086,-0.621 2.725,0.538 1.964,1.771 -0.749,1.215 -1.854,2.111 -2.88,3.095 -0.825,0.79 -1.661,1.566 -2.519,2.318 0.023,0.06 0.05,0.119 0.07,0.182 C 1.019,-2.058 0.768,-0.781 0,0" /></g><g
           transform="translate(353.7502,356.8909)"
           id="g342"><path
             id="path344"
             style="fill:#ffffff;fill-opacity:1;fill-rule:nonzero;stroke:none"
             d="M 0,0 C -1.487,1.309 -3.101,2.491 -4.717,3.634 -5.802,4.402 -7.246,2.742 -6.244,1.831 -4.782,0.504 -3.289,-0.835 -1.694,-2.001 -0.501,-2.873 1.124,-0.989 0,0" /></g><g
           transform="translate(364.2876,347.1835)"
           id="g346"><path
             id="path348"
             style="fill:#ffffff;fill-opacity:1;fill-rule:nonzero;stroke:none"
             d="M 0,0 C -2.088,1.384 -3.711,3.115 -5.516,4.819 -6.476,5.726 -8.259,4.722 -7.534,3.441 -6.151,0.998 -3.872,-0.908 -1.547,-2.423 0.005,-3.434 1.546,-1.024 0,0" /></g><g
           transform="translate(373.3182,340.437)"
           id="g350"><path
             id="path352"
             style="fill:#ffffff;fill-opacity:1;fill-rule:nonzero;stroke:none"
             d="m 0,0 c -0.728,0.231 -1.457,0.088 -2.091,-0.259 -0.252,0.193 -0.511,0.378 -0.758,0.569 -0.699,0.542 -1.392,1.076 -2.169,1.504 -1.174,0.647 -2.513,-0.783 -1.558,-1.84 0.758,-0.839 1.717,-1.749 2.728,-2.458 -0.018,-0.097 -0.049,-0.191 -0.06,-0.29 -0.088,-0.796 0.507,-1.67 1.114,-2.112 1.299,-0.947 2.911,-0.485 3.823,0.727 C 1.951,-2.935 1.591,-0.505 0,0" /></g><g
           transform="translate(178.9618,390.8607)"
           id="g354"><path
             id="path356"
             style="fill:#ffffff;fill-opacity:1;fill-rule:nonzero;stroke:none"
             d="m 0,0 c -1.129,0.144 -2.281,0.083 -3.423,-0.04 -0.365,1.699 -2.409,2.704 -4.008,2.221 -1.922,-0.581 -2.614,-2.838 -1.868,-4.554 0.741,-1.703 3.025,-2.114 4.482,-1.112 0.244,0.167 0.449,0.371 0.634,0.588 C -2.796,-3.079 -1.38,-3.196 0,-3.02 1.941,-2.772 1.941,-0.248 0,0" /></g><g
           transform="translate(192.9673,390.3912)"
           id="g358"><path
             id="path360"
             style="fill:#ffffff;fill-opacity:1;fill-rule:nonzero;stroke:none"
             d="m 0,0 c -1.213,0.804 -2.817,0.235 -4.117,0.022 -1.056,-0.173 -1.056,-1.953 0,-2.125 1.3,-0.213 2.904,-0.782 4.117,0.022 0.775,0.514 0.775,1.567 0,2.081" /></g><g
           transform="translate(204.5459,390.4028)"
           id="g362"><path
             id="path364"
             style="fill:#ffffff;fill-opacity:1;fill-rule:nonzero;stroke:none"
             d="m 0,0 c -0.866,0.319 -1.957,0.134 -2.862,0.099 -1.484,-0.058 -1.484,-2.244 0,-2.302 0.905,-0.036 1.996,-0.22 2.862,0.099 1.037,0.381 1.037,1.723 0,2.104" /></g><g
           transform="translate(216.7956,392.0646)"
           id="g366"><path
             id="path368"
             style="fill:#ffffff;fill-opacity:1;fill-rule:nonzero;stroke:none"
             d="m 0,0 c -0.865,0.053 -1.71,-0.007 -2.572,-0.072 -1.609,-0.12 -1.609,-2.377 0,-2.498 C -1.71,-2.634 -0.865,-2.694 0,-2.641 1.702,-2.538 1.702,-0.104 0,0" /></g><g
           transform="translate(234.4252,393.2992)"
           id="g370"><path
             id="path372"
             style="fill:#ffffff;fill-opacity:1;fill-rule:nonzero;stroke:none"
             d="m 0,0 c -1.383,0.293 -2.769,0.183 -4.179,0.128 -1.663,-0.065 -1.663,-2.515 0,-2.58 1.41,-0.055 2.796,-0.165 4.179,0.128 1.154,0.245 1.154,2.079 0,2.324" /></g><g
           transform="translate(252.6186,393.9656)"
           id="g374"><path
             id="path376"
             style="fill:#ffffff;fill-opacity:1;fill-rule:nonzero;stroke:none"
             d="M 0,0 C -0.46,1.111 -1.586,1.888 -2.749,1.797 -2.93,1.808 -3.113,1.794 -3.292,1.729 -3.943,1.493 -4.486,1.01 -4.813,0.424 -5.881,0.231 -6.944,0.002 -7.992,-0.279 c -1.092,-0.292 -0.897,-2.086 0.272,-2.004 0.932,0.065 1.855,0.185 2.781,0.304 0.033,-0.089 0.06,-0.178 0.098,-0.267 0.191,-0.45 0.674,-0.704 1.146,-0.808 0.567,-0.346 1.284,-0.39 1.921,-0.24 C -0.413,-2.974 0.545,-1.316 0,0" /></g><g
           transform="translate(438.5502,313.1878)"
           id="g378"><path
             id="path380"
             style="fill:#ffffff;fill-opacity:1;fill-rule:nonzero;stroke:none"
             d="m 0,0 c 1.442,5.033 8.809,3.286 8.547,-1.348 1.254,-0.211 2.478,-0.567 3.698,-0.97 2.346,-0.774 1.345,-4.266 -1.054,-3.681 C 9.73,-5.642 8.299,-5.226 6.944,-4.595 4.1,-6.817 -1.265,-4.415 0,0" /></g><g
           transform="translate(457.5241,305.8787)"
           id="g382"><path
             id="path384"
             style="fill:#ffffff;fill-opacity:1;fill-rule:nonzero;stroke:none"
             d="M 0,0 C -0.766,1.589 1.246,3.206 2.53,1.863 3.316,1.04 4.092,0.928 5.039,0.684 5.8,0.487 6.333,-0.266 6.324,-1.039 6.313,-2.098 5.492,-2.681 4.533,-2.794 2.668,-3.014 0.772,-1.601 0,0" /></g><g
           transform="translate(467.3277,297.7393)"
           id="g386"><path
             id="path388"
             style="fill:#ffffff;fill-opacity:1;fill-rule:nonzero;stroke:none"
             d="M 0,0 C -0.55,0.892 -0.922,1.817 -1.291,2.798 -1.933,4.502 0.653,5.857 1.778,4.5 2.444,3.695 3.055,2.891 3.556,1.972 4.086,1 3.738,-0.252 2.764,-0.792 1.762,-1.348 0.581,-0.943 0,0" /></g><g
           transform="translate(466.4408,283.8618)"
           id="g390"><path
             id="path392"
             style="fill:#ffffff;fill-opacity:1;fill-rule:nonzero;stroke:none"
             d="M 0,0 C -0.163,1.084 0.028,2.058 0.198,3.132 0.352,4.106 0.852,4.949 1.1,5.885 1.535,7.532 3.963,7.102 3.994,5.464 4.027,3.634 4.546,1.726 3.816,-0.055 3.477,-0.882 2.848,-1.498 1.896,-1.488 1.078,-1.48 0.129,-0.864 0,0" /></g><g
           transform="translate(464.3393,274.8665)"
           id="g394"><path
             id="path396"
             style="fill:#ffffff;fill-opacity:1;fill-rule:nonzero;stroke:none"
             d="M 0,0 C 0.104,0.482 0.255,0.898 0.471,1.346 0.558,1.566 0.69,1.757 0.868,1.92 0.994,2.013 1.121,2.106 1.247,2.199 1.251,2.2 1.252,2.201 1.256,2.202 1.906,3.326 3.788,2.787 3.745,1.489 3.747,1.486 3.748,1.485 3.751,1.481 3.949,1.123 4.001,0.747 3.958,0.347 3.904,-0.148 3.812,-0.58 3.644,-1.044 3.294,-2.016 2.344,-2.643 1.3,-2.344 0.257,-2.045 -0.217,-1.01 0,0" /></g><g
           transform="translate(462.0696,260.5749)"
           id="g398"><path
             id="path400"
             style="fill:#ffffff;fill-opacity:1;fill-rule:nonzero;stroke:none"
             d="M 0,0 C -0.516,1.892 0.817,3.497 1.565,5.094 2.241,6.534 4.791,5.803 4.602,4.224 4.392,2.473 4.673,0.406 3.233,-0.926 2.151,-1.927 0.388,-1.422 0,0" /></g><g
           transform="translate(455.1925,249.1437)"
           id="g402"><path
             id="path404"
             style="fill:#ffffff;fill-opacity:1;fill-rule:nonzero;stroke:none"
             d="M 0,0 C 0.599,2.092 2.526,3.48 4.61,3.564 4.69,3.699 4.765,3.831 4.828,3.96 5.031,4.375 5.286,4.78 5.635,5.068 5.668,5.139 5.702,5.209 5.735,5.28 6.21,6.278 7.969,5.774 7.843,4.676 7.834,4.593 7.824,4.51 7.815,4.427 7.907,4.081 7.892,3.718 7.937,3.304 7.995,3.124 7.972,3.05 7.869,3.084 7.901,2.867 7.923,2.649 7.939,2.431 9.388,1.202 10.092,-0.815 9.543,-2.734 8.797,-5.335 6.005,-6.883 3.404,-6.138 0.803,-5.393 -0.745,-2.601 0,0" /></g><g
           transform="translate(84.3076,246.7292)"
           id="g406"><path
             id="path408"
             style="fill:#ffffff;fill-opacity:1;fill-rule:nonzero;stroke:none"
             d="m 0,0 c -4.542,0.379 -5.294,-7.236 -1.048,-8.03 -0.045,-0.319 -0.082,-0.64 -0.119,-0.953 -0.139,-1.148 -0.425,-2.531 -0.152,-3.65 0.244,-1.001 1.363,-1.094 1.769,-0.148 0.411,0.956 0.346,2.106 0.421,3.144 0.043,0.595 0.057,1.187 0.068,1.782 C 4.082,-6.511 4.068,-0.339 0,0" /></g><g
           transform="translate(84.8529,229.1408)"
           id="g410"><path
             id="path412"
             style="fill:#ffffff;fill-opacity:1;fill-rule:nonzero;stroke:none"
             d="m 0,0 c -0.484,1.199 -1.922,0.478 -1.853,-0.691 0.064,-1.087 0.204,-2.171 0.21,-3.261 0.007,-1.023 -0.188,-2.019 -0.151,-3.039 0.048,-1.308 1.752,-1.214 2.134,-0.178 C 1.116,-5.065 0.808,-2.001 0,0" /></g><g
           transform="translate(85.7472,215.5541)"
           id="g414"><path
             id="path416"
             style="fill:#ffffff;fill-opacity:1;fill-rule:nonzero;stroke:none"
             d="m 0,0 c -0.29,1.19 -1.894,1.203 -2.013,-0.135 -0.077,-0.868 -0.046,-1.734 0.004,-2.601 0.051,-0.867 0.049,-1.73 0.371,-2.528 C -1.287,-6.136 0.1,-6.181 0.339,-5.141 0.701,-3.572 0.374,-1.536 0,0" /></g><g
           transform="translate(87.5436,199.0914)"
           id="g418"><path
             id="path420"
             style="fill:#ffffff;fill-opacity:1;fill-rule:nonzero;stroke:none"
             d="M 0,0 C -0.122,1.828 -0.571,3.708 -1.163,5.404 -1.5,6.372 -2.969,6.069 -2.985,5.015 -3.012,3.179 -2.852,1.234 -2.4,-0.526 -1.969,-2.207 0.117,-1.754 0,0" /></g><g
           transform="translate(91.4522,190.6852)"
           id="g422"><path
             id="path424"
             style="fill:#ffffff;fill-opacity:1;fill-rule:nonzero;stroke:none"
             d="M 0,0 C -1.044,0.802 -1.873,2 -2.479,3.237 -2.997,4.297 -4.525,3.803 -4.332,2.546 -4.016,0.49 -2.952,-1.092 -1.44,-2.271 -0.142,-3.282 1.3,-0.999 0,0" /></g><g
           transform="translate(97.695,185.987)"
           id="g426"><path
             id="path428"
             style="fill:#ffffff;fill-opacity:1;fill-rule:nonzero;stroke:none"
             d="m 0,0 c -0.883,0.745 -1.969,1.331 -3.028,1.694 -0.925,0.317 -2.054,-1.046 -1.208,-1.912 0.898,-0.92 1.929,-1.72 3.064,-2.247 C 0.174,-3.089 1.088,-0.918 0,0" /></g><g
           transform="translate(109.6382,180.7672)"
           id="g430"><path
             id="path432"
             style="fill:#ffffff;fill-opacity:1;fill-rule:nonzero;stroke:none"
             d="m 0,0 c -0.305,1.024 -1.25,1.055 -2.073,1.24 -1.004,0.227 -1.971,0.382 -2.998,0.414 -1.106,0.033 -1.43,-1.611 -0.432,-2.089 0.834,-0.398 1.659,-0.702 2.544,-0.935 0.893,-0.235 1.946,-0.774 2.702,0.091 C 0.079,-0.895 0.148,-0.497 0,0" /></g><g
           transform="translate(120.4889,178.5241)"
           id="g434"><path
             id="path436"
             style="fill:#ffffff;fill-opacity:1;fill-rule:nonzero;stroke:none"
             d="M 0,0 C -0.131,0.82 -0.775,1.158 -1.459,1.106 -2.046,1.061 -2.621,1.047 -3.206,1.119 -3.663,1.176 -4.347,1.104 -4.754,1.255 c -0.821,0.307 -1.43,-0.948 -0.719,-1.512 0.271,-0.216 0.479,-0.543 0.756,-0.766 0.339,-0.275 0.819,-0.432 1.223,-0.536 0.821,-0.211 1.638,-0.271 2.476,-0.089 C -0.343,-1.502 0.12,-0.749 0,0" /></g><g
           transform="translate(130.8958,178.7467)"
           id="g438"><path
             id="path440"
             style="fill:#ffffff;fill-opacity:1;fill-rule:nonzero;stroke:none"
             d="M 0,0 C -1.26,0.232 -2.496,0.159 -3.76,0.013 -4.838,-0.111 -5.001,-2.07 -3.959,-2.372 -2.736,-2.725 -1.53,-3.001 -0.249,-2.981 1.483,-2.954 1.703,-0.314 0,0" /></g><g
           transform="translate(144.0843,176.2072)"
           id="g442"><path
             id="path444"
             style="fill:#ffffff;fill-opacity:1;fill-rule:nonzero;stroke:none"
             d="m 0,0 c -1.661,0.552 -3.553,0.396 -5.262,0.188 -1.086,-0.132 -1.249,-2.09 -0.2,-2.401 1.65,-0.488 3.491,-0.955 5.22,-0.686 C 1.072,-2.694 1.262,-0.419 0,0" /></g><g
           transform="translate(156.7087,174.2181)"
           id="g446"><path
             id="path448"
             style="fill:#ffffff;fill-opacity:1;fill-rule:nonzero;stroke:none"
             d="M 0,0 C -1.552,0.947 -3.785,0.577 -5.518,0.439 -6.594,0.353 -6.764,-1.683 -5.717,-1.946 -4.031,-2.37 -1.889,-3.104 -0.202,-2.428 0.655,-2.083 0.789,-0.481 0,0" /></g><g
           transform="translate(169.4374,174.5457)"
           id="g450"><path
             id="path452"
             style="fill:#ffffff;fill-opacity:1;fill-rule:nonzero;stroke:none"
             d="m 0,0 c -1.167,0.097 -2.257,-0.54 -2.92,-1.546 -0.308,0.011 -0.617,0.014 -0.924,0.023 -0.811,0.025 -1.584,-0.163 -2.375,-0.212 -1.222,-0.075 -1.368,-1.823 -0.175,-2.099 0.657,-0.152 1.297,-0.42 1.975,-0.548 0.312,-0.06 0.633,-0.111 0.955,-0.156 C -3.14,-6 -2.017,-7.154 -0.606,-7.271 1.167,-7.419 2.785,-5.889 2.95,-3.907 3.115,-1.925 1.773,-0.148 0,0" /></g><g
           transform="translate(82.2297,382.4402)"
           id="g454"><path
             id="path456"
             style="fill:#ffffff;fill-opacity:1;fill-rule:nonzero;stroke:none"
             d="m 0,0 c -1.08,4.278 -7.331,3.003 -7.234,-0.907 -1.063,-0.144 -2.103,-0.411 -3.141,-0.717 -1.996,-0.589 -1.247,-3.557 0.79,-3.128 1.24,0.261 2.456,0.573 3.614,1.068 C -3.636,-5.631 0.947,-3.752 0,0" /></g><g
           transform="translate(66.0543,376.7923)"
           id="g458"><path
             id="path460"
             style="fill:#ffffff;fill-opacity:1;fill-rule:nonzero;stroke:none"
             d="M 0,0 C 0.688,1.318 -0.963,2.733 -2.081,1.636 -2.765,0.965 -3.422,0.891 -4.226,0.711 -4.872,0.566 -5.34,-0.054 -5.354,-0.705 -5.373,-1.598 -4.697,-2.111 -3.893,-2.232 -2.327,-2.467 -0.693,-1.328 0,0" /></g><g
           transform="translate(57.5798,370.1996)"
           id="g462"><path
             id="path464"
             style="fill:#ffffff;fill-opacity:1;fill-rule:nonzero;stroke:none"
             d="M 0,0 C 0.487,0.737 0.825,1.505 1.162,2.322 1.749,3.74 -0.393,4.95 -1.377,3.837 -1.96,3.178 -2.495,2.517 -2.942,1.756 -3.414,0.951 -3.155,-0.112 -2.349,-0.593 -1.52,-1.088 -0.515,-0.778 0,0" /></g><g
           transform="translate(57.9553,358.4883)"
           id="g466"><path
             id="path468"
             style="fill:#ffffff;fill-opacity:1;fill-rule:nonzero;stroke:none"
             d="M 0,0 C 0.166,0.909 0.031,1.734 -0.083,2.643 -0.187,3.467 -0.585,4.19 -0.769,4.985 -1.091,6.384 -3.148,6.087 -3.217,4.708 -3.295,3.168 -3.782,1.575 -3.215,0.055 -2.952,-0.65 -2.439,-1.186 -1.636,-1.203 -0.948,-1.217 -0.132,-0.724 0,0" /></g><g
           transform="translate(59.4845,350.8562)"
           id="g470"><path
             id="path472"
             style="fill:#ffffff;fill-opacity:1;fill-rule:nonzero;stroke:none"
             d="M 0,0 C -0.075,0.409 -0.19,0.763 -0.361,1.146 -0.428,1.334 -0.534,1.498 -0.679,1.64 -0.783,1.722 -0.888,1.803 -0.992,1.885 -0.994,1.886 -0.996,1.887 -0.999,1.888 -1.517,2.852 -3.116,2.448 -3.114,1.354 -3.116,1.352 -3.117,1.351 -3.119,1.348 -3.296,1.052 -3.35,0.736 -3.324,0.399 -3.292,-0.02 -3.226,-0.386 -3.097,-0.782 -2.828,-1.61 -2.045,-2.163 -1.158,-1.939 -0.271,-1.716 0.156,-0.856 0,0" /></g><g
           transform="translate(64.8365,339.3542)"
           id="g474"><path
             id="path476"
             style="fill:#ffffff;fill-opacity:1;fill-rule:nonzero;stroke:none"
             d="M 0,0 C -0.349,1.801 -1.863,3.108 -3.606,3.332 -3.663,3.451 -3.717,3.567 -3.76,3.681 -3.9,4.044 -4.084,4.403 -4.355,4.671 -4.378,4.732 -4.401,4.794 -4.424,4.856 -4.748,5.728 -6.263,5.435 -6.238,4.505 -6.236,4.434 -6.234,4.364 -6.232,4.293 -6.335,4.01 -6.349,3.704 -6.418,3.36 -6.48,3.213 -6.466,3.15 -6.377,3.17 -6.42,2.991 -6.455,2.809 -6.484,2.627 -7.791,1.703 -8.532,0.062 -8.212,-1.59 -7.779,-3.828 -5.549,-5.334 -3.311,-4.901 -1.073,-4.467 0.433,-2.238 0,0" /></g><g
           transform="translate(102.3724,212.1098)"
           id="g478"><path
             id="path480"
             style="fill:#2674a6;fill-opacity:1;fill-rule:nonzero;stroke:none"
             d="m 0,0 c 2.601,0.335 5.145,1.11 7.492,2.282 1.835,0.917 3.589,2.114 4.762,3.798 1.172,1.684 1.686,3.92 0.955,5.837 -0.637,1.674 -2.219,2.95 -3.989,3.221 -1.77,0.27 -3.66,-0.476 -4.768,-1.883 -0.483,1.289 -1.384,2.83 -2.426,3.729 -1.042,0.9 -2.497,1.397 -3.828,1.046 -1.542,-0.407 -2.633,-1.878 -2.993,-3.432 -0.36,-1.555 -0.107,-3.184 0.262,-4.736 C -3.786,6.722 -1.648,2.774 0,0" /></g><g
           transform="translate(452.304,272.5364)"
           id="g482"><path
             id="path484"
             style="fill:#2674a6;fill-opacity:1;fill-rule:nonzero;stroke:none"
             d="m 0,0 c -1.472,0.228 -2.904,0.704 -4.219,1.403 -1.029,0.547 -2.007,1.252 -2.648,2.225 -0.641,0.972 -0.9,2.249 -0.458,3.327 0.386,0.94 1.302,1.642 2.31,1.77 1.009,0.128 2.071,-0.323 2.68,-1.138 0.292,0.725 0.826,1.587 1.43,2.082 0.605,0.496 1.438,0.757 2.188,0.538 C 2.153,9.954 2.75,9.103 2.932,8.216 3.114,7.329 2.947,6.407 2.715,5.532 2.246,3.761 0.975,1.551 0,0" /></g><g
           transform="translate(87.7401,150.2414)"
           id="g486"><path
             id="path488"
             style="fill:#1e60a6;fill-opacity:1;fill-rule:nonzero;stroke:none"
             d="m 0,0 c -0.866,-7.527 -5.146,-14.595 -11.416,-18.851 -1.469,-0.997 -3.141,-1.964 -3.788,-3.618 -0.811,-2.072 0.391,-4.496 2.197,-5.797 7.054,-5.079 15.514,0.51 20.502,6.472 0.916,1.094 8.832,15.549 6.659,15.914 C 10.245,-5.224 3.657,-1.53 0,0" /></g><g
           transform="translate(113.0496,154.7757)"
           id="g490"><path
             id="path492"
             style="fill:#d1d1d1;fill-opacity:1;fill-rule:nonzero;stroke:none"
             d="m 0,0 c -0.112,-4.967 -1.432,-10.47 -5.862,-14.066 0,0 -7.077,1.884 -16.45,3.848 -14.269,2.996 -33.864,6.163 -41.917,3.142 l 5.145,22.507 4.798,20.982 c 0,0 13.78,-12.762 37.143,-20.807 4.813,-1.665 10.035,-3.122 15.614,-4.23 0,0 1.671,-5.281 1.529,-11.376" /></g><g
           transform="translate(39.2575,150.2976)"
           id="g494"><path
             id="path496"
             style="fill:#a22d36;fill-opacity:1;fill-rule:nonzero;stroke:none"
             d="m 0,0 c 0.037,-2.307 0.21,-4.692 1.654,-6.718 1.445,-2.025 4.494,-3.596 7.652,-3.205 3.89,0.483 6.121,3.467 7.744,6.091 6.378,10.31 11.226,21.17 11.847,32.43 0.269,4.877 1.604,16.311 -4.236,19.621 C 16.813,52.667 10.402,40.411 8.545,36.449 2.986,24.593 -0.199,12.434 0,0" /></g><g
           transform="translate(66.1653,178.1484)"
           id="g498"><path
             id="path500"
             style="fill:#422014;fill-opacity:1;fill-rule:nonzero;stroke:none"
             d="m 0,0 c -0.119,-1.319 -0.286,-2.629 -0.515,-3.937 0,0 0.007,0 0,-0.006 -0.956,-5.591 -2.842,-11.021 -5.311,-16.286 -1.569,-3.348 -3.371,-6.634 -5.324,-9.846 -1.462,-2.403 -3.447,-5.122 -6.738,-5.418 -2.666,-0.239 -5.176,1.372 -6.317,3.341 -1.141,1.968 -1.193,4.227 -1.143,6.399 0.289,11.733 3.411,23.063 8.521,34.003 1.703,3.656 7.545,14.946 13.983,10.424 C 1.942,15.314 0.405,4.591 0,0" /></g><g
           transform="translate(107.1854,140.7118)"
           id="g502"><path
             id="path504"
             style="fill:#a1a1a1;fill-opacity:1;fill-rule:nonzero;stroke:none"
             d="m 0,0 c 0,0 -7.076,1.884 -16.448,3.846 4.041,7.913 5.858,16.958 5.171,25.821 C -6.467,28.005 -1.248,26.546 4.338,25.44 4.338,25.44 9.852,7.994 0,0" /></g><g
           transform="translate(65.6504,174.2118)"
           id="g506"><path
             id="path508"
             style="fill:#ffffff;fill-opacity:1;fill-rule:nonzero;stroke:none"
             d="m 0,0 c 0,0 0.007,0 0,-0.007 -0.956,-5.591 -2.842,-11.02 -5.311,-16.285 -3.494,2.432 -6.955,4.58 -10.456,7.012 -2.065,4.08 -2.022,7.291 2.828,10.799 C -8.63,1.387 -4.212,0.952 0.053,0.309 0.033,0.194 0.02,0.114 0,0" /></g><g
           transform="translate(34.6333,191.573)"
           id="g510"><path
             id="path512"
             style="fill:#455866;fill-opacity:1;fill-rule:nonzero;stroke:none"
             d="M 0,0 C 1.779,-0.261 3.488,-2.03 4.938,-3.053 6.528,-4.174 8.18,-5.269 9.576,-6.631 10.034,-7.077 9.457,-7.728 8.927,-7.474 7.011,-6.556 5.281,-5.252 3.538,-4.047 2.166,-3.098 0.23,-2.251 -0.577,-0.753 -0.808,-0.325 -0.434,0.064 0,0" /></g><g
           transform="translate(30.4696,179.553)"
           id="g514"><path
             id="path516"
             style="fill:#455866;fill-opacity:1;fill-rule:nonzero;stroke:none"
             d="M 0,0 C 2.91,-0.374 6.039,-1.372 8.78,-2.411 9.612,-2.726 9.289,-3.872 8.417,-3.732 5.606,-3.28 2.426,-2.621 -0.205,-1.527 -0.933,-1.224 -0.95,0.122 0,0" /></g><g
           transform="translate(28.9857,165.8847)"
           id="g518"><path
             id="path520"
             style="fill:#455866;fill-opacity:1;fill-rule:nonzero;stroke:none"
             d="M 0,0 C 2.539,0.642 5.147,1.462 7.764,1.686 8.412,1.741 8.711,0.703 8.104,0.433 5.708,-0.633 3.04,-1.18 0.51,-1.843 -0.684,-2.156 -1.194,-0.302 0,0" /></g><g
           transform="translate(28.9836,150.5155)"
           id="g522"><path
             id="path524"
             style="fill:#455866;fill-opacity:1;fill-rule:nonzero;stroke:none"
             d="M 0,0 C 0.708,0.926 1.737,1.594 2.643,2.324 3.668,3.151 4.721,3.945 5.801,4.699 6.59,5.249 7.507,4.026 6.819,3.383 5.915,2.538 4.984,1.726 4.023,0.946 3.136,0.226 2.243,-0.716 1.208,-1.206 0.506,-1.537 -0.595,-0.778 0,0" /></g><g
           transform="translate(406.0431,372.1732)"
           id="g526"><path
             id="path528"
             style="fill:#ffffff;fill-opacity:1;fill-rule:nonzero;stroke:none"
             d="m 0,0 c 4.411,0.096 4.566,6.474 0.734,7.254 0.097,1.067 0.069,2.141 0.002,3.222 -0.127,2.077 -3.188,2.01 -3.225,-0.071 C -2.512,9.138 -2.479,7.883 -2.256,6.644 -4.676,4.803 -3.869,-0.084 0,0" /></g><g
           transform="translate(404.1546,389.2019)"
           id="g530"><path
             id="path532"
             style="fill:#ffffff;fill-opacity:1;fill-rule:nonzero;stroke:none"
             d="M 0,0 C 1.13,-0.965 2.88,0.328 2.06,1.662 1.559,2.479 1.634,3.136 1.637,3.96 1.64,4.622 1.141,5.217 0.51,5.376 -0.357,5.594 -1.007,5.05 -1.305,4.293 -1.884,2.82 -1.139,0.972 0,0" /></g><g
           transform="translate(399.6235,398.9358)"
           id="g534"><path
             id="path536"
             style="fill:#ffffff;fill-opacity:1;fill-rule:nonzero;stroke:none"
             d="M 0,0 C 0.609,-0.64 1.283,-1.141 2.003,-1.652 3.254,-2.541 4.913,-0.723 4.048,0.484 3.535,1.2 3.011,1.87 2.369,2.475 1.691,3.115 0.596,3.1 -0.053,2.422 -0.721,1.725 -0.643,0.676 0,0" /></g><g
           transform="translate(388.1247,401.1882)"
           id="g538"><path
             id="path540"
             style="fill:#ffffff;fill-opacity:1;fill-rule:nonzero;stroke:none"
             d="m 0,0 c 0.849,-0.365 1.683,-0.418 2.595,-0.51 0.826,-0.083 1.62,0.143 2.436,0.144 1.436,0.002 1.606,2.073 0.277,2.449 C 3.825,2.503 2.381,3.334 0.773,3.122 0.026,3.023 -0.61,2.642 -0.806,1.864 -0.975,1.196 -0.677,0.291 0,0" /></g><g
           transform="translate(380.344,401.4041)"
           id="g542"><path
             id="path544"
             style="fill:#ffffff;fill-opacity:1;fill-rule:nonzero;stroke:none"
             d="M 0,0 C 0.415,-0.019 0.786,0.015 1.198,0.095 1.396,0.119 1.58,0.186 1.75,0.296 1.853,0.379 1.956,0.462 2.059,0.545 2.061,0.547 2.062,0.549 2.064,0.551 3.119,0.841 3.083,2.49 2.016,2.733 2.014,2.735 2.013,2.736 2.011,2.739 1.762,2.977 1.466,3.101 1.132,3.151 0.716,3.213 0.345,3.23 -0.07,3.194 -0.936,3.116 -1.651,2.476 -1.632,1.562 -1.612,0.648 -0.869,0.039 0,0" /></g><g
           transform="translate(368.2112,402.6184)"
           id="g546"><path
             id="path548"
             style="fill:#ffffff;fill-opacity:1;fill-rule:nonzero;stroke:none"
             d="M 0,0 C 1.431,-0.827 3.025,-0.084 4.486,0.184 5.805,0.425 5.756,2.66 4.428,2.845 2.957,3.049 1.332,3.721 -0.062,2.833 -1.109,2.166 -1.075,0.621 0,0" /></g><g
           transform="translate(357.4217,399.4649)"
           id="g550"><path
             id="path552"
             style="fill:#ffffff;fill-opacity:1;fill-rule:nonzero;stroke:none"
             d="M 0,0 C 1.834,0.04 3.377,1.313 3.893,2.993 4.02,3.029 4.143,3.062 4.262,3.086 4.644,3.162 5.029,3.283 5.338,3.505 5.403,3.517 5.467,3.53 5.532,3.542 6.447,3.714 6.413,5.256 5.492,5.389 5.422,5.399 5.352,5.409 5.283,5.419 5.021,5.568 4.722,5.634 4.394,5.76 4.26,5.846 4.195,5.843 4.2,5.751 4.03,5.824 3.858,5.889 3.683,5.948 2.992,7.392 1.5,8.399 -0.182,8.362 -2.461,8.313 -4.322,6.369 -4.272,4.09 -4.223,1.811 -2.279,-0.05 0,0" /></g><g
           transform="translate(378.584,386.3237)"
           id="g554"><path
             id="path556"
             style="fill:#2674a6;fill-opacity:1;fill-rule:nonzero;stroke:none"
             d="m 0,0 c -0.194,0 -0.389,-0.011 -0.577,-0.023 l -14.058,-0.958 c -1.243,-0.085 -2.323,-0.218 -2.962,-0.991 -0.524,-0.634 -0.78,-1.746 -0.72,-3.13 0.029,-0.663 0.117,-1.324 0.21,-2.025 0.088,-0.673 0.181,-1.37 0.219,-2.079 l 0.034,-0.669 c 0.245,-4.838 0.581,-6.256 3.641,-6.076 3.42,0.203 6.876,0.486 10.273,0.84 0.489,0.051 0.98,0.058 1.437,0.058 l 0.791,-0.003 c 1.01,0 2.064,0.037 2.866,0.483 1.137,0.632 1.159,1.371 0.931,3.494 -0.05,0.469 -0.103,0.962 -0.132,1.476 C 1.864,-8.068 1.826,-6.512 1.788,-5.006 1.77,-4.259 1.752,-3.512 1.728,-2.767 1.696,-1.86 1.628,-0.851 1.196,-0.37 0.964,-0.11 0.605,0 0,0 m -14.645,-17.964 c -4.802,0 -4.999,3.88 -5.207,7.987 l -0.034,0.665 c -0.033,0.63 -0.116,1.258 -0.204,1.922 -0.095,0.713 -0.192,1.45 -0.225,2.202 -0.058,1.33 0.1,3.188 1.177,4.491 1.238,1.497 3.12,1.626 4.367,1.711 L -0.713,1.972 C -0.479,1.988 -0.24,2 0,2 0.435,2 1.757,2 2.685,0.966 c 0.88,-0.981 0.999,-2.407 1.041,-3.667 0.025,-0.751 0.044,-1.503 0.062,-2.256 0.036,-1.489 0.074,-3.029 0.161,-4.53 0.029,-0.481 0.078,-0.941 0.125,-1.379 0.217,-2.029 0.442,-4.127 -1.949,-5.455 -1.22,-0.678 -2.564,-0.735 -3.837,-0.735 l -0.791,0.003 c -0.403,0 -0.831,-0.006 -1.23,-0.048 -3.426,-0.357 -6.912,-0.641 -10.361,-0.846 -0.191,-0.011 -0.375,-0.017 -0.551,-0.017" /></g><g
           transform="translate(375.6701,378.3945)"
           id="g558"><path
             id="path560"
             style="fill:#2674a6;fill-opacity:1;fill-rule:nonzero;stroke:none"
             d="M 0,0 C -2.223,1.94 -5.253,3.152 -8.088,3.971 -8.123,1.286 -7.814,-1.404 -7.172,-4.012 -4.888,-2.815 -2.284,-1.197 0,0" /></g><g
           transform="translate(324.0537,321.4849)"
           id="g562"><path
             id="path564"
             style="fill:#2674a6;fill-opacity:1;fill-rule:nonzero;stroke:none"
             d="m 0,0 c -1.568,-0.025 -3.063,-1.125 -3.538,-2.558 -0.482,-1.456 0.051,-3.193 1.265,-4.131 0.781,-0.604 1.868,-0.916 2.955,-0.854 1.131,0.059 2.19,0.501 2.907,1.212 0.744,0.739 1.117,1.785 0.974,2.731 C 4.432,-2.737 3.872,-1.868 2.986,-1.155 2.062,-0.41 1.001,0 0,0 m 0.417,-9.55 c -1.456,0 -2.846,0.453 -3.913,1.278 -1.864,1.439 -2.68,4.106 -1.941,6.342 0.741,2.238 2.988,3.89 5.344,3.93 L -0.09,2 C 1.458,2 2.962,1.432 4.24,0.403 5.517,-0.625 6.334,-1.94 6.54,-3.3 6.777,-4.865 6.187,-6.571 4.997,-7.75 3.938,-8.803 2.402,-9.456 0.788,-9.541 0.665,-9.547 0.541,-9.55 0.417,-9.55" /></g><g
           transform="translate(334.4766,334.729)"
           id="g566"><path
             id="path568"
             style="fill:#2674a6;fill-opacity:1;fill-rule:nonzero;stroke:none"
             d="m 0,0 c -1.57,-0.025 -3.066,-1.125 -3.541,-2.559 -0.481,-1.455 0.05,-3.192 1.265,-4.13 0.781,-0.603 1.853,-0.91 2.957,-0.854 1.13,0.06 2.189,0.501 2.904,1.212 C 4.33,-5.592 4.703,-4.545 4.561,-3.6 4.43,-2.736 3.869,-1.868 2.983,-1.155 2.059,-0.41 0.999,0 0,0 m 0.417,-9.55 c -1.458,0 -2.849,0.454 -3.916,1.278 -1.864,1.44 -2.68,4.107 -1.94,6.342 C -4.698,0.308 -2.45,1.96 -0.095,2 1.461,2.028 2.959,1.433 4.237,0.403 5.515,-0.625 6.332,-1.94 6.537,-3.3 6.774,-4.865 6.184,-6.57 4.994,-7.75 3.936,-8.802 2.401,-9.455 0.786,-9.541 0.663,-9.547 0.54,-9.55 0.417,-9.55" /></g><g
           transform="translate(341.5264,321.9897)"
           id="g570"><path
             id="path572"
             style="fill:#2674a6;fill-opacity:1;fill-rule:nonzero;stroke:none"
             d="m 0,0 c -1.57,-0.025 -3.065,-1.125 -3.54,-2.558 -0.481,-1.456 0.05,-3.194 1.265,-4.131 0.781,-0.604 1.853,-0.915 2.956,-0.854 1.131,0.06 2.19,0.502 2.905,1.212 0.745,0.739 1.118,1.786 0.976,2.731 C 4.43,-2.736 3.87,-1.868 2.984,-1.155 2.06,-0.41 1,0 0,0 m 0.417,-9.55 c -1.457,0 -2.848,0.453 -3.915,1.278 -1.864,1.439 -2.681,4.106 -1.94,6.342 0.74,2.238 2.987,3.89 5.343,3.93 l 0.003,0 C 1.457,2 2.961,1.432 4.238,0.403 5.515,-0.624 6.331,-1.939 6.538,-3.299 6.775,-4.865 6.185,-6.57 4.995,-7.75 3.937,-8.802 2.402,-9.455 0.786,-9.541 0.663,-9.547 0.54,-9.55 0.417,-9.55" /></g><g
           transform="translate(327.1797,320.9038)"
           id="g574"><path
             id="path576"
             style="fill:#2674a6;fill-opacity:1;fill-rule:nonzero;stroke:none"
             d="M 0,0 C -0.226,0 -0.454,0.077 -0.641,0.233 -1.064,0.588 -1.12,1.218 -0.766,1.642 L 3.886,7.2 C 4.238,7.622 4.871,7.681 5.294,7.325 5.718,6.97 5.773,6.34 5.419,5.916 L 0.768,0.358 C 0.57,0.122 0.286,0 0,0" /></g><g
           transform="translate(329.4795,316.7739)"
           id="g578"><path
             id="path580"
             style="fill:#2674a6;fill-opacity:1;fill-rule:nonzero;stroke:none"
             d="M 0,0 C -0.545,0 -0.991,0.437 -1,0.983 -1.009,1.536 -0.568,1.991 -0.017,2 l 7.525,0.125 0.016,0 c 0.545,0 0.991,-0.436 1,-0.983 C 8.533,0.59 8.094,0.135 7.541,0.125 L 0.017,0 0,0 Z" /></g><g
           transform="translate(465.3283,396.5602)"
           id="g582"><path
             id="path584"
             style="fill:#236b99;fill-opacity:1;fill-rule:nonzero;stroke:none"
             d="M 0,0 C -0.171,0.982 -0.165,1.995 -0.105,2.986 -0.08,3.394 -0.467,3.743 -0.859,3.74 -2.014,3.73 -3.168,3.723 -4.322,3.706 -5.075,3.694 -5.877,3.843 -6.299,3.129 -6.35,3.042 -6.35,2.93 -6.299,2.843 c 0.422,-0.714 1.224,-0.566 1.977,-0.577 0.507,-0.008 1.014,-0.01 1.52,-0.015 -1.917,-2.341 -3.553,-4.85 -4.883,-7.579 -0.626,-1.285 -1.077,-4.145 -2.897,-2.657 -1.542,1.262 -3.084,2.524 -4.635,3.775 -0.282,0.228 -0.697,0.295 -0.972,0 -5.796,-6.238 -11.55,-12.814 -16.175,-19.987 -0.403,-0.625 0.542,-1.121 0.969,-0.567 5.065,6.574 10.042,13.093 15.754,19.126 1.781,-1.49 3.57,-2.969 5.359,-4.449 0.679,-0.562 1.42,-0.703 2.099,-0.025 0.341,0.342 0.536,1.097 0.694,1.527 0.483,1.314 1.093,2.577 1.733,3.82 1.128,2.192 2.549,4.221 4.121,6.115 0.013,-0.385 0.031,-0.771 0.072,-1.158 0.088,-0.827 0.103,-1.786 0.778,-2.339 0.33,-0.271 0.744,-0.158 0.898,0.237 C 0.371,-1.251 0.118,-0.679 0,0" /></g><g
           transform="translate(445.9427,356.7256)"
           id="g586"><path
             id="path588"
             style="fill:#236b99;fill-opacity:1;fill-rule:nonzero;stroke:none"
             d="m 0,0 c -0.844,4.534 -1.595,8.961 -2.439,13.495 -3.102,-0.57 -6.468,-1.637 -9.57,-2.207 C -10.864,7.299 -9.72,3.309 -8.575,-0.68 -6.038,-0.249 -2.537,-0.431 0,0" /></g><g
           transform="translate(460.6141,358.4469)"
           id="g590"><path
             id="path592"
             style="fill:#236b99;fill-opacity:1;fill-rule:nonzero;stroke:none"
             d="M 0,0 C -0.988,7.214 -2.256,14.699 -3.243,21.913 -6.169,21.062 -9.45,19.966 -12.461,19.496 -10.809,12.69 -9.425,5.819 -8.314,-1.096 -5.72,-0.653 -2.594,-0.443 0,0" /></g><g
           transform="translate(471.3905,360.172)"
           id="g594"><path
             id="path596"
             style="fill:#236b99;fill-opacity:1;fill-rule:nonzero;stroke:none"
             d="m 0,0 c -0.343,8.571 -1.356,17.795 -3.036,26.207 -2.307,-0.508 -5.05,-1.038 -7.357,-1.546 1.415,-8.357 2.83,-16.715 4.245,-25.072 C -4.563,-0.186 -1.585,-0.225 0,0" /></g></g></g></g></svg>