<?xml version="1.0" encoding="UTF-8" standalone="no"?>
<!-- Created with Inkscape (http://www.inkscape.org/) -->

<svg
   xmlns:dc="http://purl.org/dc/elements/1.1/"
   xmlns:cc="http://creativecommons.org/ns#"
   xmlns:rdf="http://www.w3.org/1999/02/22-rdf-syntax-ns#"
   xmlns:svg="http://www.w3.org/2000/svg"
   xmlns="http://www.w3.org/2000/svg"
   xmlns:sodipodi="http://sodipodi.sourceforge.net/DTD/sodipodi-0.dtd"
   xmlns:inkscape="http://www.inkscape.org/namespaces/inkscape"
   version="1.1"
   id="svg2"
   xml:space="preserve"
   width="1066.6667"
   height="1066.6667"
   viewBox="0 0 1066.6667 1066.6667"
   sodipodi:docname="tranforma.svg"
   inkscape:version="0.92.3 (unknown)"><metadata
     id="metadata8"><rdf:RDF><cc:Work
         rdf:about=""><dc:format>image/svg+xml</dc:format><dc:type
           rdf:resource="http://purl.org/dc/dcmitype/StillImage" /><dc:title></dc:title></cc:Work></rdf:RDF></metadata><defs
     id="defs6"><clipPath
       clipPathUnits="userSpaceOnUse"
       id="clipPath18"><path
         d="M 0,0 H 800 V 800 H 0 Z"
         id="path16"
         inkscape:connector-curvature="0" /></clipPath><linearGradient
       x1="0"
       y1="0"
       x2="1"
       y2="0"
       gradientUnits="userSpaceOnUse"
       gradientTransform="matrix(765.99957,-781.99994,-781.99994,-765.99957,13.205078,794.87451)"
       spreadMethod="pad"
       id="linearGradient28"><stop
         style="stop-opacity:1;stop-color:#56c7cc"
         offset="0"
         id="stop24" /><stop
         style="stop-opacity:1;stop-color:#32bcc2"
         offset="1"
         id="stop26" /></linearGradient><clipPath
       clipPathUnits="userSpaceOnUse"
       id="clipPath38"><path
         d="M 0,800 H 800 V 0 H 0 Z"
         id="path36"
         inkscape:connector-curvature="0" /></clipPath><clipPath
       clipPathUnits="userSpaceOnUse"
       id="clipPath220"><path
         d="M 0,800 H 800 V 0 H 0 Z"
         id="path218"
         inkscape:connector-curvature="0" /></clipPath><clipPath
       clipPathUnits="userSpaceOnUse"
       id="clipPath302"><path
         d="M 0,800 H 800 V 0 H 0 Z"
         id="path300"
         inkscape:connector-curvature="0" /></clipPath><clipPath
       clipPathUnits="userSpaceOnUse"
       id="clipPath764"><path
         d="M 0,800 H 800 V 0 H 0 Z"
         id="path762"
         inkscape:connector-curvature="0" /></clipPath></defs><sodipodi:namedview
     pagecolor="#ffffff"
     bordercolor="#666666"
     borderopacity="1"
     objecttolerance="10"
     gridtolerance="10"
     guidetolerance="10"
     inkscape:pageopacity="0"
     inkscape:pageshadow="2"
     inkscape:window-width="1366"
     inkscape:window-height="705"
     id="namedview4"
     showgrid="false"
     inkscape:zoom="0.44249997"
     inkscape:cx="54.163883"
     inkscape:cy="511.82268"
     inkscape:window-x="0"
     inkscape:window-y="24"
     inkscape:window-maximized="1"
     inkscape:current-layer="g10" /><g
     id="g10"
     inkscape:groupmode="layer"
     inkscape:label="85117-OHCTXL-89"
     transform="matrix(1.3333333,0,0,-1.3333333,0,1066.6667)"><g
       id="g12"><g
         id="g14"
         clip-path="url(#clipPath18)"><g
           id="g20"><g
             id="g22"><path
               d="M 0,0 H 800 V 800 H 0 Z"
               style="fill:url(#linearGradient28);stroke:none"
               id="path30"
               inkscape:connector-curvature="0" /></g></g></g></g><g
       id="g32"><g
         id="g34"
         clip-path="url(#clipPath38)"><g
           id="g40"
           transform="translate(405.8535,321.7578)"><path
             d="M 0,0 V 2.52 C 0,4.184 -0.375,5.757 -1.029,7.178 H 2.62 C 0.985,5.236 0,2.735 0,0 M -21.287,7.178 C -21.94,5.757 -22.314,4.184 -22.314,2.52 v 4.658 z m 135.058,221.558 c 6.485,0 11.742,5.256 11.742,11.741 0,6.484 -5.257,11.741 -11.742,11.741 -6.483,0 -11.74,-5.257 -11.74,-11.741 0,-3.797 1.81,-7.163 4.607,-9.31 L 58.021,150.256 53.5,155.542 v 53.875 c 0,3.651 -2.959,6.61 -6.608,6.61 H -74.384 c -3.649,0 -6.608,-2.959 -6.608,-6.61 V 13.787 c 0,-3.65 2.959,-6.609 6.608,-6.609 h 29.753 v -23.711 c 0,-0.516 0.038,-1.023 0.106,-1.52 -0.048,-0.623 -0.079,-1.271 -0.094,-1.95 l -14.149,14.149 c -4.357,4.357 -11.421,4.357 -15.777,0 -4.359,-4.359 -3.269,-10.537 0,-15.78 l 37.34,-54.037 c 0.002,-10e-4 0.002,-0.003 0.002,-0.003 0.74,-1.063 1.527,-2.092 2.358,-3.081 V -92.9 h -2.989 v -13.392 h -3.512 v -43.064 h 83.421 v 43.064 H 38.564 V -92.9 h -3.721 v 11.708 c 6.121,6.432 9.785,15.073 9.785,25.625 v 3.601 0.383 46.547 C 44.628,1.127 39.633,6.12 33.471,6.12 27.309,6.12 22.313,1.127 22.313,-5.036 V 0 c 0,2.735 -0.987,5.236 -2.62,7.178 h 27.199 c 3.649,0 6.608,2.959 6.608,6.609 v 137.688 l 3.704,-4.332 c 0.275,-0.322 0.686,-0.491 1.115,-0.457 0.423,0.036 0.804,0.272 1.022,0.635 l 49.56,82.482 c 1.485,-0.678 3.13,-1.067 4.87,-1.067"
             style="fill:#3aa6ab;fill-opacity:1;fill-rule:nonzero;stroke:none"
             id="path42"
             inkscape:connector-curvature="0" /></g><g
           id="g44"
           transform="translate(446.917,345.0273)"><path
             d="m 0,0 c 0,-3.649 -2.962,-6.608 -6.61,-6.608 h -121.275 c -3.65,0 -6.609,2.959 -6.609,6.608 v 195.631 c 0,3.651 2.959,6.61 6.609,6.61 H -6.61 c 3.648,0 6.61,-2.959 6.61,-6.61 z"
             style="fill:#0e5987;fill-opacity:1;fill-rule:nonzero;stroke:none"
             id="path46"
             inkscape:connector-curvature="0" /></g><path
           d="M 440.513,370.458 H 318.827 v 151.694 h 121.686 z"
           style="fill:#08334d;fill-opacity:1;fill-rule:nonzero;stroke:none"
           id="path48"
           inkscape:connector-curvature="0" /><path
           d="M 432.823,375.817 H 326.516 v 140.976 h 106.307 z"
           style="fill:#e0e0e0;fill-opacity:1;fill-rule:nonzero;stroke:none"
           id="path50"
           inkscape:connector-curvature="0" /><path
           d="m 427.065,381.951 h -94.792 v 118.892 h 94.792 z"
           style="fill:#ffffff;fill-opacity:1;fill-rule:nonzero;stroke:none"
           id="path52"
           inkscape:connector-curvature="0" /><path
           d="m 427.065,510.659 h -94.792 v -9.816 h 94.792 z"
           style="fill:#218085;fill-opacity:1;fill-rule:nonzero;stroke:none"
           id="path54"
           inkscape:connector-curvature="0" /><g
           id="g56"
           transform="translate(390.1553,354.1465)"><path
             d="m 0,0 c 0,-5.792 -4.693,-10.487 -10.486,-10.487 -5.791,0 -10.486,4.695 -10.486,10.487 0,5.792 4.695,10.485 10.486,10.485 C -4.693,10.485 0,5.792 0,0"
             style="fill:#ffffff;fill-opacity:1;fill-rule:nonzero;stroke:none"
             id="path58"
             inkscape:connector-curvature="0" /></g><g
           id="g60"
           transform="translate(388.4019,354.1465)"><path
             d="m 0,0 c 0,-4.824 -3.909,-8.733 -8.733,-8.733 -4.822,0 -8.732,3.909 -8.732,8.733 0,4.824 3.91,8.731 8.732,8.731 C -3.909,8.731 0,4.824 0,0"
             style="fill:#08334d;fill-opacity:1;fill-rule:nonzero;stroke:none"
             id="path62"
             inkscape:connector-curvature="0" /></g><g
           id="g64"
           transform="translate(358.0225,357.5244)"><path
             d="m 0,0 h -24.516 c -1.866,0 -3.38,-1.513 -3.38,-3.378 0,-1.866 1.514,-3.38 3.38,-3.38 H 0 c 1.866,0 3.379,1.514 3.379,3.38 C 3.379,-1.513 1.866,0 0,0"
             style="fill:#08334d;fill-opacity:1;fill-rule:nonzero;stroke:none"
             id="path66"
             inkscape:connector-curvature="0" /></g><g
           id="g68"
           transform="translate(425.832,357.5244)"><path
             d="m 0,0 h -24.517 c -1.866,0 -3.378,-1.513 -3.378,-3.378 0,-1.866 1.512,-3.38 3.378,-3.38 H 0 c 1.865,0 3.379,1.514 3.379,3.38 C 3.379,-1.513 1.865,0 0,0"
             style="fill:#08334d;fill-opacity:1;fill-rule:nonzero;stroke:none"
             id="path70"
             inkscape:connector-curvature="0" /></g><g
           id="g72"
           transform="translate(395.54,533.5703)"><path
             d="m 0,0 c 0,-1.801 -1.461,-3.262 -3.262,-3.262 h -27.497 c -1.802,0 -3.262,1.461 -3.262,3.262 0,1.802 1.46,3.263 3.262,3.263 H -3.262 C -1.461,3.263 0,1.802 0,0"
             style="fill:#ffffff;fill-opacity:1;fill-rule:nonzero;stroke:none"
             id="path74"
             inkscape:connector-curvature="0" /></g><g
           id="g76"
           transform="translate(358.3833,405.8091)"><path
             d="M 0,0 25.874,56.868 45.183,35.88 73.658,96.331 93.242,73.435 l 55.562,92.474"
             style="fill:none;stroke:#08334d;stroke-width:2.64400005;stroke-linecap:round;stroke-linejoin:round;stroke-miterlimit:10;stroke-dasharray:none;stroke-opacity:1"
             id="path78"
             inkscape:connector-curvature="0" /></g><g
           id="g80"
           transform="translate(375.5264,402.4702)"><path
             d="m 0,0 c 0,-9.468 -7.675,-17.143 -17.143,-17.143 -9.468,0 -17.143,7.675 -17.143,17.143 0,9.468 7.675,17.143 17.143,17.143 C -7.675,17.143 0,9.468 0,0"
             style="fill:#ff6f4f;fill-opacity:1;fill-rule:nonzero;stroke:none"
             id="path82"
             inkscape:connector-curvature="0" /></g><g
           id="g84"
           transform="translate(518.9268,571.7183)"><path
             d="m 0,0 c 0,-6.485 -5.255,-11.742 -11.739,-11.742 -6.486,0 -11.74,5.257 -11.74,11.742 0,6.483 5.254,11.74 11.74,11.74 C -5.255,11.74 0,6.483 0,0"
             style="fill:#ff6f4f;fill-opacity:1;fill-rule:nonzero;stroke:none"
             id="path86"
             inkscape:connector-curvature="0" /></g><g
           id="g88"
           transform="translate(560.6875,287.7207)"><path
             d="m 0,0 c 12.233,0 22.147,9.915 22.147,22.147 0,12.233 -9.914,22.148 -22.147,22.148 -7.987,0 -14.989,-4.232 -18.884,-10.575 l -30.6,16.326 c 0.864,1.884 1.349,3.978 1.349,6.188 0,8.212 -6.657,14.87 -14.87,14.87 -8.214,0 -14.869,-6.658 -14.869,-14.87 0,-8.213 6.655,-14.873 14.869,-14.873 5.059,0 9.524,2.528 12.209,6.388 l 30.669,-16.361 c -1.293,-2.815 -2.019,-5.942 -2.019,-9.241 0,-5.734 2.179,-10.959 5.752,-14.892 l -19.59,-19.872 c -4.759,4.41 -11.127,7.11 -18.127,7.11 -14.736,0 -26.68,-11.943 -26.68,-26.677 0,-14.734 11.944,-26.679 26.68,-26.679 14.733,0 26.677,11.945 26.677,26.679 0,6.78 -2.536,12.968 -6.704,17.675 l 19.64,19.922 C -10.613,2.044 -5.545,0 0,0"
             style="fill:#3aa6ab;fill-opacity:1;fill-rule:nonzero;stroke:none"
             id="path90"
             inkscape:connector-curvature="0" /></g><g
           id="g92"
           transform="translate(485.2441,352.9639)"><path
             d="M 0,0 63.007,-33.612"
             style="fill:none;stroke:#08334d;stroke-width:2.64400005;stroke-linecap:round;stroke-linejoin:round;stroke-miterlimit:10;stroke-dasharray:none;stroke-opacity:1"
             id="path94"
             inkscape:connector-curvature="0" /></g><g
           id="g96"
           transform="translate(548.3125,319.2695)"><path
             d="M 0,0 -54.239,-55.018"
             style="fill:none;stroke:#08334d;stroke-width:2.64400005;stroke-linecap:round;stroke-linejoin:round;stroke-miterlimit:10;stroke-dasharray:none;stroke-opacity:1"
             id="path98"
             inkscape:connector-curvature="0" /></g><g
           id="g100"
           transform="translate(520.8164,265.0205)"><path
             d="m 0,0 c 0,-14.734 -11.946,-26.68 -26.68,-26.68 -14.732,0 -26.678,11.946 -26.678,26.68 0,14.732 11.946,26.677 26.678,26.677 C -11.946,26.677 0,14.732 0,0"
             style="fill:#ffb238;fill-opacity:1;fill-rule:nonzero;stroke:none"
             id="path102"
             inkscape:connector-curvature="0" /></g><g
           id="g104"
           transform="translate(494.1367,264.1719)"><path
             d="m 0,0 c 4.913,0 8.894,3.98 8.894,8.892 v 4.849 c 0,4.913 -3.981,8.895 -8.894,8.895 -4.912,0 -8.893,-3.982 -8.893,-8.895 V 8.892 C -8.893,3.98 -4.912,0 0,0"
             style="fill:#08334d;fill-opacity:1;fill-rule:nonzero;stroke:none"
             id="path106"
             inkscape:connector-curvature="0" /></g><g
           id="g108"
           transform="translate(497.9473,258.3389)"><path
             d="m 0,0 h -7.62 c -5.171,0 -9.685,-2.812 -12.101,-6.988 2.416,-4.174 6.93,-6.986 12.101,-6.986 H 0 c 5.171,0 9.684,2.812 12.1,6.986 C 9.684,-2.812 5.171,0 0,0"
             style="fill:#08334d;fill-opacity:1;fill-rule:nonzero;stroke:none"
             id="path110"
             inkscape:connector-curvature="0" /></g><g
           id="g112"
           transform="translate(570.3984,319.3516)"><path
             d="m 0,0 c 0,-12.232 -9.917,-22.148 -22.147,-22.148 -12.234,0 -22.148,9.916 -22.148,22.148 0,12.23 9.914,22.147 22.148,22.147 C -9.917,22.147 0,12.23 0,0"
             style="fill:#ff6f4f;fill-opacity:1;fill-rule:nonzero;stroke:none"
             id="path114"
             inkscape:connector-curvature="0" /></g><g
           id="g116"
           transform="translate(548.251,318.6465)"><path
             d="m 0,0 c 4.076,0 7.382,3.307 7.382,7.383 v 4.027 c 0,4.077 -3.306,7.382 -7.382,7.382 -4.076,0 -7.383,-3.305 -7.383,-7.382 V 7.383 C -7.383,3.307 -4.076,0 0,0"
             style="fill:#802815;fill-opacity:1;fill-rule:nonzero;stroke:none"
             id="path118"
             inkscape:connector-curvature="0" /></g><g
           id="g120"
           transform="translate(551.4141,313.8047)"><path
             d="m 0,0 h -6.327 c -4.294,0 -8.038,-2.333 -10.046,-5.8 2.008,-3.467 5.752,-5.801 10.046,-5.801 H 0 c 4.294,0 8.039,2.334 10.044,5.801 C 8.039,-2.333 4.294,0 0,0"
             style="fill:#802815;fill-opacity:1;fill-rule:nonzero;stroke:none"
             id="path122"
             inkscape:connector-curvature="0" /></g><g
           id="g124"
           transform="translate(500.1143,353.4375)"><path
             d="m 0,0 c 0,-8.212 -6.657,-14.871 -14.87,-14.871 -8.213,0 -14.87,6.659 -14.87,14.871 0,8.212 6.657,14.871 14.87,14.871 C -6.657,14.871 0,8.212 0,0"
             style="fill:#0e5987;fill-opacity:1;fill-rule:nonzero;stroke:none"
             id="path126"
             inkscape:connector-curvature="0" /></g><g
           id="g128"
           transform="translate(485.2441,352.9639)"><path
             d="m 0,0 c 2.738,0 4.957,2.222 4.957,4.958 v 2.703 c 0,2.738 -2.219,4.956 -4.957,4.956 -2.736,0 -4.957,-2.218 -4.957,-4.956 V 4.958 C -4.957,2.222 -2.736,0 0,0"
             style="fill:#ffffff;fill-opacity:1;fill-rule:nonzero;stroke:none"
             id="path130"
             inkscape:connector-curvature="0" /></g><g
           id="g132"
           transform="translate(487.3691,349.7148)"><path
             d="m 0,0 h -4.249 c -2.882,0 -5.397,-1.568 -6.745,-3.896 1.348,-2.328 3.863,-3.895 6.745,-3.895 H 0 c 2.881,0 5.397,1.567 6.743,3.895 C 5.397,-1.568 2.881,0 0,0"
             style="fill:#ffffff;fill-opacity:1;fill-rule:nonzero;stroke:none"
             id="path134"
             inkscape:connector-curvature="0" /></g><g
           id="g136"
           transform="translate(604.6826,366.6455)"><path
             d="M 0,0 C 0.014,0.02 0.026,0.037 0.038,0.055 0.026,0.037 0.014,0.02 0,0 m -1.191,-1.586 c 0.043,0.052 0.082,0.106 0.125,0.16 -0.043,-0.054 -0.082,-0.108 -0.125,-0.16 m -7.083,-6.692 c -0.029,-0.019 -0.055,-0.036 -0.08,-0.056 0.025,0.02 0.051,0.037 0.08,0.056 m 1.589,1.195 c -0.068,-0.055 -0.137,-0.107 -0.207,-0.16 0.07,0.053 0.139,0.105 0.207,0.16 m 140.902,121.907 c 0.179,0.322 0.35,0.65 0.523,0.976 0.129,0.248 0.255,0.497 0.382,0.748 0.232,0.461 0.455,0.928 0.675,1.398 0.153,0.334 0.307,0.667 0.454,1.006 0.135,0.314 0.268,0.629 0.396,0.946 0.139,0.338 0.273,0.677 0.402,1.018 0.157,0.409 0.307,0.818 0.454,1.232 0.141,0.399 0.277,0.799 0.406,1.203 0,0 0.002,0 0.002,0.001 0,0.003 0.002,0.008 0.004,0.012 0.086,0.27 0.172,0.542 0.253,0.814 0.176,0.575 0.341,1.155 0.495,1.739 0.054,0.207 0.101,0.415 0.151,0.623 0.121,0.478 0.231,0.959 0.333,1.442 0.014,0.057 0.027,0.111 0.04,0.167 0.034,0.167 0.07,0.334 0.103,0.501 0.124,0.623 0.238,1.25 0.338,1.882 0.004,0.023 0.008,0.047 0.011,0.071 0.028,0.178 0.052,0.357 0.077,0.536 0.082,0.562 0.155,1.128 0.218,1.696 0.01,0.085 0.022,0.169 0.031,0.255 0.008,0.072 0.015,0.144 0.022,0.216 0.068,0.687 0.118,1.381 0.16,2.076 0.003,0.073 0.011,0.144 0.015,0.218 0.006,0.108 0.006,0.217 0.011,0.325 0.032,0.731 0.055,1.464 0.055,2.203 0,0.849 -0.023,1.692 -0.066,2.53 -0.01,0.185 -0.03,0.369 -0.041,0.554 -0.044,0.655 -0.089,1.308 -0.156,1.955 -0.019,0.168 -0.045,0.334 -0.064,0.501 -0.077,0.665 -0.159,1.329 -0.262,1.985 -0.019,0.122 -0.043,0.242 -0.064,0.363 -0.116,0.701 -0.242,1.4 -0.388,2.092 -0.016,0.075 -0.036,0.15 -0.052,0.225 -0.157,0.736 -0.332,1.468 -0.525,2.191 -0.009,0.034 -0.02,0.067 -0.028,0.102 -0.206,0.764 -0.428,1.519 -0.667,2.267 -0.002,0.004 -0.004,0.008 -0.004,0.013 -6.241,19.375 -24.41,33.4 -45.859,33.4 -21.456,0 -39.627,-14.029 -45.864,-33.41 v 0 c -0.242,-0.751 -0.463,-1.508 -0.669,-2.275 -0.008,-0.032 -0.019,-0.064 -0.028,-0.096 -0.193,-0.725 -0.366,-1.458 -0.525,-2.196 -0.017,-0.074 -0.035,-0.146 -0.051,-0.22 -0.146,-0.693 -0.271,-1.392 -0.39,-2.095 -0.018,-0.12 -0.045,-0.24 -0.063,-0.361 -0.104,-0.658 -0.186,-1.323 -0.263,-1.991 -0.018,-0.166 -0.045,-0.329 -0.063,-0.495 -0.066,-0.648 -0.113,-1.302 -0.155,-1.958 -0.01,-0.184 -0.031,-0.367 -0.043,-0.551 -0.042,-0.838 -0.065,-1.681 -0.065,-2.53 0,-0.739 0.023,-1.472 0.057,-2.203 0.005,-0.108 0.005,-0.217 0.008,-0.325 0.006,-0.074 0.012,-0.145 0.018,-0.218 0.039,-0.695 0.09,-1.389 0.157,-2.076 0.007,-0.073 0.017,-0.145 0.023,-0.216 0.01,-0.085 0.022,-0.169 0.031,-0.253 0.062,-0.57 0.136,-1.136 0.218,-1.698 0.026,-0.179 0.049,-0.358 0.077,-0.536 0.004,-0.024 0.008,-0.049 0.011,-0.071 0.099,-0.632 0.214,-1.258 0.338,-1.881 0.033,-0.168 0.069,-0.336 0.104,-0.504 0.012,-0.054 0.026,-0.108 0.038,-0.165 0.103,-0.482 0.213,-0.962 0.333,-1.44 0.051,-0.209 0.1,-0.418 0.152,-0.626 0.154,-0.583 0.321,-1.161 0.493,-1.735 0.085,-0.275 0.171,-0.547 0.257,-0.819 v -10e-4 c 10e-4,-0.004 0.003,-0.009 0.005,-0.013 0.13,-0.4 0.263,-0.798 0.404,-1.192 0.147,-0.419 0.299,-0.834 0.459,-1.248 0.129,-0.337 0.258,-0.673 0.395,-1.007 0.131,-0.318 0.265,-0.636 0.402,-0.952 0.143,-0.33 0.293,-0.656 0.443,-0.982 0.222,-0.48 0.452,-0.956 0.688,-1.426 0.122,-0.246 0.247,-0.49 0.375,-0.733 1.518,-2.899 3.316,-5.626 5.37,-8.14 L 4.661,57.602 v 49.666 9.527 h -110.664 v -9.527 -96.945 h 44.545 c 1.566,-5.426 4.486,-10.546 8.762,-14.822 11.614,-11.615 29.431,-13.231 42.784,-4.871 -0.002,0 -0.002,-0.001 -0.004,-0.001 l 3.424,-3.423 c 2.077,-2.076 5.032,-2.733 7.667,-1.972 l 23.054,-23.052 c 1.464,-1.466 3.841,-1.466 5.305,0 1.465,1.464 1.465,3.839 0,5.304 L 6.479,-9.462 c 0.763,2.636 0.107,5.592 -1.969,7.67 L 1.085,1.631 C 1.083,1.625 1.08,1.621 1.078,1.617 6.556,10.362 7.752,21.02 4.661,30.6 v 22.329 l 52.255,52.253 c 8.79,-9.369 21.273,-15.231 35.136,-15.231 18.151,0 33.949,10.042 42.163,24.869 0.002,0.002 0.002,0.003 0.002,0.004"
             style="fill:#3aa6ab;fill-opacity:1;fill-rule:nonzero;stroke:none"
             id="path138"
             inkscape:connector-curvature="0" /></g><path
           d="M 596.906,386.453 H 486.243 v 96.944 h 110.663 z"
           style="fill:#ffffff;fill-opacity:1;fill-rule:nonzero;stroke:none"
           id="path140"
           inkscape:connector-curvature="0" /><path
           d="M 596.906,492.923 H 486.243 v -9.526 h 110.663 z"
           style="fill:#218085;fill-opacity:1;fill-rule:nonzero;stroke:none"
           id="path142"
           inkscape:connector-curvature="0" /><g
           id="g144"
           transform="translate(593.498,488.1602)"><path
             d="m 0,0 c 0,-1.474 -1.194,-2.669 -2.669,-2.669 -1.474,0 -2.669,1.195 -2.669,2.669 0,1.474 1.195,2.669 2.669,2.669 C -1.194,2.669 0,1.474 0,0"
             style="fill:#ff6f4f;fill-opacity:1;fill-rule:nonzero;stroke:none"
             id="path146"
             inkscape:connector-curvature="0" /></g><g
           id="g148"
           transform="translate(584.8242,488.1602)"><path
             d="m 0,0 c 0,-1.474 -1.196,-2.669 -2.671,-2.669 -1.474,0 -2.669,1.195 -2.669,2.669 0,1.474 1.195,2.669 2.669,2.669 C -1.196,2.669 0,1.474 0,0"
             style="fill:#ffb238;fill-opacity:1;fill-rule:nonzero;stroke:none"
             id="path150"
             inkscape:connector-curvature="0" /></g><g
           id="g152"
           transform="translate(576.1484,488.1602)"><path
             d="m 0,0 c 0,-1.474 -1.196,-2.669 -2.669,-2.669 -1.476,0 -2.669,1.195 -2.669,2.669 0,1.474 1.193,2.669 2.669,2.669 C -1.196,2.669 0,1.474 0,0"
             style="fill:#ffb238;fill-opacity:1;fill-rule:nonzero;stroke:none"
             id="path154"
             inkscape:connector-curvature="0" /></g><path
           d="m 563.717,469.881 h -44.283 v 7.45 h 44.283 z"
           style="fill:#e0e0e0;fill-opacity:1;fill-rule:nonzero;stroke:none"
           id="path156"
           inkscape:connector-curvature="0" /><path
           d="m 493.37,452.262 h 44.284 v 11.897 H 493.37 Z"
           style="fill:#e0e0e0;fill-opacity:1;fill-rule:nonzero;stroke:none"
           id="path158"
           inkscape:connector-curvature="0" /><path
           d="m 545.498,459.543 h 44.281 v 4.616 h -44.281 z"
           style="fill:#e0e0e0;fill-opacity:1;fill-rule:nonzero;stroke:none"
           id="path160"
           inkscape:connector-curvature="0" /><path
           d="m 545.498,452.263 h 44.281 v 4.616 h -44.281 z"
           style="fill:#e0e0e0;fill-opacity:1;fill-rule:nonzero;stroke:none"
           id="path162"
           inkscape:connector-curvature="0" /><path
           d="M 578.449,439.324 H 504.7 v 5.286 h 73.749 z"
           style="fill:#e0e0e0;fill-opacity:1;fill-rule:nonzero;stroke:none"
           id="path164"
           inkscape:connector-curvature="0" /><path
           d="M 578.449,428.023 H 504.7 v 5.287 h 73.749 z"
           style="fill:#e0e0e0;fill-opacity:1;fill-rule:nonzero;stroke:none"
           id="path166"
           inkscape:connector-curvature="0" /><path
           d="M 578.449,416.724 H 504.7 v 5.288 h 73.749 z"
           style="fill:#e0e0e0;fill-opacity:1;fill-rule:nonzero;stroke:none"
           id="path168"
           inkscape:connector-curvature="0" /><g
           id="g170"
           transform="translate(578.2285,402.7559)"><path
             d="m 0,0 c 0,-3.157 -2.559,-5.715 -5.715,-5.715 h -61.878 c -3.156,0 -5.717,2.558 -5.717,5.715 0,3.155 2.561,5.714 5.717,5.714 H -5.715 C -2.559,5.714 0,3.155 0,0"
             style="fill:#08334d;fill-opacity:1;fill-rule:nonzero;stroke:none"
             id="path172"
             inkscape:connector-curvature="0" /></g><g
           id="g174"
           transform="translate(584.8818,419.3696)"><path
             d="M 0,0 73.3,73.3"
             style="fill:none;stroke:#000000;stroke-width:3.30500007;stroke-linecap:round;stroke-linejoin:miter;stroke-miterlimit:10;stroke-dasharray:none;stroke-opacity:1"
             id="path176"
             inkscape:connector-curvature="0" /></g><g
           id="g178"
           transform="translate(621.7773,343.6152)"><path
             d="m 0,0 c 1.466,-1.466 1.466,-3.842 0,-5.305 -1.464,-1.465 -3.838,-1.465 -5.302,0 l -30.495,30.492 c -1.466,1.466 -1.464,3.842 0,5.306 1.465,1.464 3.838,1.464 5.304,0 z"
             style="fill:#0e5987;fill-opacity:1;fill-rule:nonzero;stroke:none"
             id="path180"
             inkscape:connector-curvature="0" /></g><g
           id="g182"
           transform="translate(588.46,420.5391)"><path
             d="m 0,0 c 13.505,-13.505 13.505,-35.403 -0.002,-48.909 -13.506,-13.507 -35.403,-13.507 -48.909,0 -13.506,13.506 -13.506,35.402 0,48.909 C -35.405,13.506 -13.508,13.506 0,0"
             style="fill:#0e5987;fill-opacity:1;fill-rule:nonzero;stroke:none"
             id="path184"
             inkscape:connector-curvature="0" /></g><g
           id="g186"
           transform="translate(596.7529,374.3359)"><path
             d="m 0,0 -3.422,3.424 c -1.362,-2.175 -2.98,-4.236 -4.873,-6.13 -1.892,-1.893 -3.953,-3.51 -6.129,-4.872 l 3.425,-3.423 c 3.036,-3.039 7.963,-3.039 10.999,0 C 3.038,-7.964 3.038,-3.037 0,0"
             style="fill:#08334d;fill-opacity:1;fill-rule:nonzero;stroke:none"
             id="path188"
             inkscape:connector-curvature="0" /></g><g
           id="g190"
           transform="translate(583.248,415.3291)"><path
             d="m 0,0 c 10.628,-10.628 10.628,-27.86 0,-38.488 -10.627,-10.629 -27.86,-10.629 -38.487,-0.002 -10.63,10.629 -10.63,27.862 0,38.49 C -27.86,10.627 -10.627,10.627 0,0"
             style="fill:#56c7cc;fill-opacity:1;fill-rule:nonzero;stroke:none"
             id="path192"
             inkscape:connector-curvature="0" /></g><g
           id="g194"
           transform="translate(563.9043,414.6367)"><path
             d="m 0,0 c 4.245,-4.244 4.243,-11.125 0,-15.37 -4.243,-4.242 -11.125,-4.242 -15.369,0 -4.244,4.245 -4.244,11.126 0,15.37 C -11.125,4.244 -4.243,4.244 0,0"
             style="fill:#ffffff;fill-opacity:1;fill-rule:nonzero;stroke:none"
             id="path196"
             inkscape:connector-curvature="0" /></g><g
           id="g198"
           transform="translate(732.4727,514.2568)"><path
             d="m 0,0 c 0,-26.607 -21.57,-48.176 -48.178,-48.176 -26.608,0 -48.176,21.569 -48.176,48.176 0,26.608 21.568,48.178 48.176,48.178 C -21.57,48.178 0,26.608 0,0"
             style="fill:#ffffff;fill-opacity:1;fill-rule:nonzero;stroke:none"
             id="path200"
             inkscape:connector-curvature="0" /></g><g
           id="g202"
           transform="translate(726.4609,490.9492)"><path
             d="m 0,0 c 3.827,6.908 6.012,14.851 6.012,23.308 0,6.87 -1.449,13.4 -4.04,19.313 h -88.276 c -2.592,-5.913 -4.038,-12.443 -4.038,-19.313 0,-8.457 2.185,-16.4 6.012,-23.308 z"
             style="fill:#08334d;fill-opacity:1;fill-rule:nonzero;stroke:none"
             id="path204"
             inkscape:connector-curvature="0" /></g><g
           id="g206"
           transform="translate(728.4326,494.9429)"><path
             d="m 0,0 c 2.592,5.915 4.04,12.443 4.04,19.314 0,6.871 -1.448,13.4 -4.04,19.313 h -88.275 c -2.592,-5.913 -4.038,-12.442 -4.038,-19.313 0,-6.871 1.446,-13.399 4.038,-19.314 z"
             style="fill:#0e5987;fill-opacity:1;fill-rule:nonzero;stroke:none"
             id="path208"
             inkscape:connector-curvature="0" /></g></g></g><text
       transform="scale(1,-1)"
       style="font-variant:normal;font-weight:normal;font-stretch:normal;font-size:14.5479002px;font-family:Quicksand;-inkscape-font-specification:Quicksand-Regular;writing-mode:lr-tb;fill:#ffffff;fill-opacity:1;fill-rule:nonzero;stroke:none"
       id="text212"
       x="645.37012"
       y="-508.52829"><tspan
         sodipodi:role="line"
         id="tspan210"
         x="645.37012"
         y="-508.52829">Transforma</tspan></text>
<g
       id="g214"><g
         id="g216"
         clip-path="url(#clipPath220)"><g
           id="g222"
           transform="translate(696.8105,425.3052)"><path
             d="M 0,0 C 0,1.074 -0.32,2.066 -0.862,2.877 -0.887,2.916 -0.912,2.952 -0.938,2.99 -1.03,3.121 -1.13,3.246 -1.233,3.366 -1.258,3.395 -1.279,3.422 -1.305,3.451 -1.432,3.591 -1.568,3.726 -1.711,3.85 -1.733,3.871 -1.76,3.889 -1.782,3.908 -1.904,4.01 -2.029,4.104 -2.161,4.193 -2.204,4.221 -2.245,4.249 -2.29,4.277 c -0.135,0.084 -0.273,0.162 -0.416,0.232 -0.026,0.012 -0.051,0.028 -0.077,0.04 -0.168,0.077 -0.343,0.143 -0.519,0.201 -0.047,0.014 -0.094,0.024 -0.14,0.037 -0.139,0.039 -0.28,0.071 -0.424,0.095 -0.053,0.01 -0.107,0.021 -0.161,0.027 -0.19,0.026 -0.379,0.043 -0.576,0.043 h -49.992 c -0.195,0 -0.386,-0.017 -0.576,-0.042 -0.052,-0.007 -0.106,-0.018 -0.161,-0.028 -0.144,-0.024 -0.284,-0.056 -0.423,-0.095 -0.047,-0.013 -0.092,-0.023 -0.139,-0.037 -0.178,-0.058 -0.35,-0.124 -0.519,-0.201 -0.026,-0.012 -0.053,-0.028 -0.079,-0.04 C -56.635,4.438 -56.773,4.361 -56.906,4.277 -56.951,4.249 -56.994,4.221 -57.037,4.192 -57.166,4.104 -57.292,4.011 -57.412,3.91 -57.437,3.889 -57.463,3.871 -57.485,3.85 -57.628,3.726 -57.765,3.591 -57.892,3.451 -57.916,3.422 -57.94,3.394 -57.963,3.365 -58.068,3.246 -58.165,3.121 -58.258,2.991 -58.283,2.953 -58.31,2.916 -58.336,2.877 -58.876,2.065 -59.196,1.074 -59.196,0 v -29.321 c 0,-0.881 0.216,-1.704 0.591,-2.421 0,-0.002 10e-4,-0.002 10e-4,-0.003 0.09,-0.174 0.193,-0.338 0.301,-0.5 0.018,-0.025 0.036,-0.051 0.053,-0.076 0.109,-0.153 0.225,-0.302 0.351,-0.44 0.003,-0.006 0.007,-0.012 0.012,-0.016 0.134,-0.148 0.277,-0.285 0.424,-0.412 0.021,-0.018 0.043,-0.034 0.065,-0.052 0.123,-0.103 0.253,-0.199 0.387,-0.289 0.037,-0.024 0.075,-0.049 0.111,-0.072 0.148,-0.092 0.299,-0.177 0.457,-0.251 0.013,-0.006 0.024,-0.014 0.036,-0.02 0.17,-0.078 0.344,-0.142 0.522,-0.2 0.047,-0.012 0.092,-0.024 0.139,-0.036 0.139,-0.04 0.277,-0.07 0.42,-0.095 0.055,-0.009 0.107,-0.019 0.159,-0.027 0.188,-0.024 0.379,-0.041 0.572,-0.041 h 49.992 c 0.195,0 0.384,0.017 0.572,0.041 0.054,0.008 0.107,0.018 0.159,0.027 0.143,0.025 0.283,0.055 0.422,0.095 0.045,0.012 0.092,0.024 0.137,0.036 0.178,0.058 0.354,0.122 0.523,0.2 0.013,0.006 0.022,0.012 0.033,0.018 0.159,0.074 0.314,0.161 0.461,0.255 0.036,0.021 0.071,0.046 0.108,0.069 0.136,0.09 0.267,0.188 0.393,0.293 0.021,0.015 0.041,0.031 0.06,0.047 0.15,0.128 0.292,0.266 0.425,0.414 0.004,0.004 0.007,0.009 0.013,0.015 0.124,0.138 0.24,0.287 0.351,0.441 0.018,0.025 0.036,0.051 0.052,0.076 0.109,0.16 0.21,0.324 0.3,0.495 0.002,0.002 0.004,0.005 0.006,0.008 0.373,0.717 0.588,1.54 0.588,2.421 z"
             style="fill:#3aa6ab;fill-opacity:1;fill-rule:nonzero;stroke:none"
             id="path224"
             inkscape:connector-curvature="0" /></g><g
           id="g226"
           transform="translate(684.374,405.4678)"><path
             d="m 0,0 c 0,-2.735 -2.062,-4.952 -4.604,-4.952 h -49.992 c -2.542,0 -4.601,2.217 -4.601,4.952 v 29.321 c 0,2.735 2.059,4.951 4.601,4.951 H -4.604 C -2.062,34.272 0,32.056 0,29.321 Z"
             style="fill:#ffb238;fill-opacity:1;fill-rule:nonzero;stroke:none"
             id="path228"
             inkscape:connector-curvature="0" /></g><g
           id="g230"
           transform="translate(683.7832,403.0464)"><path
             d="M 0,0 -29.009,28.193 -58.018,0 c 0.789,-1.51 2.289,-2.53 4.013,-2.53 H -4.013 C -2.29,-2.53 -0.789,-1.51 0,0"
             style="fill:#ab731b;fill-opacity:1;fill-rule:nonzero;stroke:none"
             id="path232"
             inkscape:connector-curvature="0" /></g><g
           id="g234"
           transform="translate(683.7832,403.0464)"><path
             d="M 0,0 -29.009,24.086 -58.018,0 c 0.789,-1.51 2.289,-2.53 4.013,-2.53 H -4.013 C -2.29,-2.53 -0.789,-1.51 0,0"
             style="fill:#ffb238;fill-opacity:1;fill-rule:nonzero;stroke:none"
             id="path236"
             inkscape:connector-curvature="0" /></g><g
           id="g238"
           transform="translate(654.7744,410.8496)"><path
             d="m 0,0 29.033,26.316 c -0.781,1.535 -2.296,2.575 -4.037,2.575 h -49.992 c -1.741,0 -3.256,-1.04 -4.037,-2.574 z"
             style="fill:#ab731b;fill-opacity:1;fill-rule:nonzero;stroke:none"
             id="path240"
             inkscape:connector-curvature="0" /></g><g
           id="g242"
           transform="translate(654.7744,413.0605)"><path
             d="m 0,0 29.033,24.105 c -0.781,1.535 -2.296,2.575 -4.037,2.575 h -49.992 c -1.741,0 -3.256,-1.04 -4.037,-2.574 z"
             style="fill:#ffb238;fill-opacity:1;fill-rule:nonzero;stroke:none"
             id="path244"
             inkscape:connector-curvature="0" /></g><g
           id="g246"
           transform="translate(312.6421,275.3896)"><path
             d="M 0,0 C -0.042,0.07 -0.087,0.138 -0.13,0.205 -0.22,0.343 -0.312,0.475 -0.408,0.606 -0.446,0.655 -0.481,0.709 -0.521,0.759 -0.65,0.927 -0.788,1.087 -0.929,1.241 -0.977,1.295 -1.026,1.346 -1.076,1.397 -1.189,1.515 -1.308,1.63 -1.428,1.741 -1.475,1.784 -1.519,1.826 -1.566,1.867 -1.726,2.008 -1.892,2.141 -2.063,2.269 -2.109,2.302 -2.158,2.334 -2.205,2.368 -2.347,2.467 -2.491,2.561 -2.64,2.65 -2.69,2.683 -2.74,2.714 -2.79,2.743 -2.979,2.851 -3.172,2.95 -3.368,3.041 -3.407,3.06 -3.448,3.074 -3.487,3.093 -3.656,3.167 -3.828,3.234 -4.003,3.296 -4.024,3.304 -4.045,3.313 -4.066,3.32 h 0.003 l -5.324,5.06 v 46.389 c 0,5.204 -4.013,9.463 -9.112,9.873 v 0.04 h -0.802 -34.081 v 33.377 l -75.751,-0.712 V 33.971 c 0.001,-5.476 4.438,-9.915 9.914,-9.915 h 6.908 27.173 V 9.192 L -91.316,3.32 h 0.001 c -0.02,-0.007 -0.04,-0.016 -0.06,-0.024 -0.177,-0.062 -0.35,-0.129 -0.521,-0.204 -0.037,-0.018 -0.077,-0.032 -0.116,-0.05 -0.198,-0.092 -0.39,-0.191 -0.579,-0.301 -0.05,-0.027 -0.099,-0.058 -0.149,-0.091 -0.149,-0.088 -0.295,-0.183 -0.438,-0.284 -0.046,-0.032 -0.093,-0.064 -0.139,-0.097 -0.172,-0.128 -0.338,-0.261 -0.498,-0.402 -0.048,-0.041 -0.091,-0.083 -0.137,-0.126 -0.121,-0.111 -0.239,-0.226 -0.353,-0.344 -0.05,-0.051 -0.099,-0.102 -0.149,-0.156 -0.141,-0.154 -0.276,-0.314 -0.405,-0.48 -0.041,-0.052 -0.077,-0.108 -0.117,-0.16 -0.095,-0.127 -0.185,-0.257 -0.272,-0.392 -0.046,-0.07 -0.092,-0.139 -0.135,-0.211 -0.103,-0.168 -0.2,-0.341 -0.292,-0.518 -0.606,-1.173 -0.954,-2.525 -0.954,-3.964 v -48.481 c 0,-1.454 0.356,-2.819 0.974,-4.004 0.084,-0.16 0.174,-0.316 0.267,-0.469 0.062,-0.102 0.127,-0.201 0.193,-0.297 0.056,-0.087 0.114,-0.17 0.175,-0.253 0.065,-0.091 0.133,-0.185 0.203,-0.274 0.114,-0.145 0.234,-0.286 0.357,-0.422 0.067,-0.073 0.139,-0.145 0.209,-0.216 0.085,-0.087 0.172,-0.173 0.261,-0.255 0.07,-0.067 0.141,-0.133 0.214,-0.196 0.147,-0.127 0.298,-0.251 0.454,-0.365 0.061,-0.044 0.123,-0.085 0.184,-0.129 0.123,-0.085 0.248,-0.165 0.376,-0.244 0.066,-0.04 0.132,-0.08 0.199,-0.119 0.181,-0.103 0.364,-0.198 0.552,-0.286 0.043,-0.02 0.087,-0.036 0.13,-0.054 0.163,-0.073 0.33,-0.138 0.498,-0.197 0.061,-0.023 0.122,-0.042 0.183,-0.064 0.209,-0.066 0.419,-0.126 0.635,-0.174 0.022,-0.004 0.044,-0.008 0.067,-0.012 0.199,-0.043 0.403,-0.075 0.609,-0.102 0.059,-0.006 0.119,-0.013 0.178,-0.018 0.228,-0.023 0.459,-0.037 0.692,-0.037 h 82.658 c 0.234,0 0.464,0.014 0.693,0.037 0.059,0.005 0.118,0.012 0.176,0.018 0.208,0.027 0.412,0.059 0.614,0.102 0.02,0.005 0.042,0.008 0.063,0.012 0.215,0.047 0.428,0.11 0.636,0.176 0.06,0.02 0.119,0.039 0.179,0.061 0.172,0.06 0.341,0.126 0.507,0.2 0.039,0.017 0.081,0.032 0.121,0.051 0.19,0.088 0.375,0.185 0.557,0.289 0.065,0.037 0.128,0.076 0.194,0.114 0.13,0.08 0.258,0.164 0.382,0.251 0.059,0.043 0.12,0.081 0.178,0.123 0.157,0.116 0.31,0.24 0.458,0.368 0.072,0.062 0.141,0.128 0.211,0.194 0.089,0.083 0.176,0.169 0.263,0.256 0.069,0.071 0.14,0.143 0.208,0.216 0.123,0.136 0.241,0.277 0.355,0.421 0.073,0.09 0.14,0.185 0.208,0.28 0.057,0.079 0.113,0.161 0.168,0.243 0.068,0.099 0.136,0.2 0.199,0.305 0.073,0.122 0.142,0.247 0.209,0.372 0.651,1.207 1.03,2.603 1.03,4.098 v 48.481 c 0,1.429 -0.344,2.774 -0.942,3.943 C 0.211,-0.354 0.107,-0.176 0,0"
             style="fill:#3aa6ab;fill-opacity:1;fill-rule:nonzero;stroke:none"
             id="path248"
             inkscape:connector-curvature="0" /></g><g
           id="g250"
           transform="translate(203.5742,231.9082)"><path
             d="m 0,0 c 0,-4.521 3.408,-8.188 7.611,-8.188 h 82.658 c 4.201,0 7.609,3.667 7.609,8.188 v 48.48 c 0,4.522 -3.408,8.186 -7.609,8.186 H 7.611 C 3.408,56.666 0,53.002 0,48.48 Z"
             style="fill:#ff6f4f;fill-opacity:1;fill-rule:nonzero;stroke:none"
             id="path252"
             inkscape:connector-curvature="0" /></g><g
           id="g254"
           transform="translate(252.5132,244.4609)"><path
             d="M 0,0 16.679,13.849 47.964,-16.557 C 46.66,-19.052 44.181,-20.74 41.33,-20.74 h -82.658 c -2.85,0 -5.331,1.688 -6.635,4.183 l 31.285,30.405 z"
             style="fill:#ab2b0e;fill-opacity:1;fill-rule:nonzero;stroke:none"
             id="path256"
             inkscape:connector-curvature="0" /></g><g
           id="g258"
           transform="translate(208.8877,288.1943)"><path
             d="M 0,0 H 87.253 L 43.625,41.471 Z"
             style="fill:#c74224;fill-opacity:1;fill-rule:nonzero;stroke:none"
             id="path260"
             inkscape:connector-curvature="0" /></g><g
           id="g262"
           transform="translate(252.5132,244.4609)"><path
             d="M 0,0 14.012,11.636 47.964,-16.557 C 46.66,-19.052 44.181,-20.74 41.33,-20.74 h -82.658 c -2.85,0 -5.331,1.688 -6.635,4.183 l 33.952,28.192 z"
             style="fill:#ff6f4f;fill-opacity:1;fill-rule:nonzero;stroke:none"
             id="path264"
             inkscape:connector-curvature="0" /></g><g
           id="g266"
           transform="translate(252.5132,240.8076)"><path
             d="m 0,0 -48.003,43.512 c 1.293,2.535 3.796,4.255 6.675,4.255 H 41.33 c 2.879,0 5.381,-1.72 6.673,-4.255 z"
             style="fill:#c74224;fill-opacity:1;fill-rule:nonzero;stroke:none"
             id="path268"
             inkscape:connector-curvature="0" /></g><g
           id="g270"
           transform="translate(246.8218,382.9307)"><path
             d="m 0,0 v -64.087 c 0,-5.187 3.986,-9.437 9.062,-9.871 v -0.043 h -74.899 c -5.475,0 -9.913,4.438 -9.913,9.914 v 63.376 z"
             style="fill:#ffffff;fill-opacity:1;fill-rule:nonzero;stroke:none"
             id="path272"
             inkscape:connector-curvature="0" /></g><path
           d="m 238.384,349.209 h -58.487 v 4.196 h 58.487 z"
           style="fill:#218085;fill-opacity:1;fill-rule:nonzero;stroke:none"
           id="path274"
           inkscape:connector-curvature="0" /><path
           d="m 238.384,339.495 h -58.487 v 4.195 h 58.487 z"
           style="fill:#218085;fill-opacity:1;fill-rule:nonzero;stroke:none"
           id="path276"
           inkscape:connector-curvature="0" /><path
           d="m 238.384,368.637 h -58.487 v 4.196 h 58.487 z"
           style="fill:#218085;fill-opacity:1;fill-rule:nonzero;stroke:none"
           id="path278"
           inkscape:connector-curvature="0" /><path
           d="m 238.384,358.923 h -58.487 v 4.195 h 58.487 z"
           style="fill:#218085;fill-opacity:1;fill-rule:nonzero;stroke:none"
           id="path280"
           inkscape:connector-curvature="0" /><path
           d="m 231.387,329.781 h -44.496 v 4.195 h 44.496 z"
           style="fill:#218085;fill-opacity:1;fill-rule:nonzero;stroke:none"
           id="path282"
           inkscape:connector-curvature="0" /><g
           id="g284"
           transform="translate(196.9233,339.6416)"><path
             d="M 0,0 C 0,5.475 4.408,9.913 9.883,9.913 H 84.782 V 9.871 C 79.707,9.438 75.721,5.187 75.721,0 v -2.875 h 0.061 v -17.924 c 0,-5.475 -4.439,-9.913 -9.914,-9.913 H -9.03 v 0.043 c 5.074,0.434 9.03,4.683 9.03,9.87 z"
             style="fill:#e0e0e0;fill-opacity:1;fill-rule:nonzero;stroke:none"
             id="path286"
             inkscape:connector-curvature="0" /></g><g
           id="g288"
           transform="translate(215.0654,339.6416)"><path
             d="m 0,0 c 0,5.187 -3.985,9.438 -9.061,9.871 v 0.042 h 74.899 c 5.475,0 9.914,-4.438 9.914,-9.913 V -63.376 L 37.448,-95.181 0,-64.086 Z"
             style="fill:#ffffff;fill-opacity:1;fill-rule:nonzero;stroke:none"
             id="path290"
             inkscape:connector-curvature="0" /></g></g></g><text
       transform="matrix(1,0,0,-1,221.2471,306.4854)"
       style="font-variant:normal;font-weight:normal;font-stretch:normal;font-size:42.76879883px;font-family:Quicksand;-inkscape-font-specification:Quicksand-Regular;writing-mode:lr-tb;fill:#218085;fill-opacity:1;fill-rule:nonzero;stroke:none"
       id="text294"><tspan
         x="0"
         y="0"
         id="tspan292">@</tspan></text>
<g
       id="g296"><g
         id="g298"
         clip-path="url(#clipPath302)"><path
           d="m 283.064,292.812 h -58.487 v 4.195 h 58.487 z"
           style="fill:#218085;fill-opacity:1;fill-rule:nonzero;stroke:none"
           id="path304"
           inkscape:connector-curvature="0" /><path
           d="m 283.064,304.385 h -24.907 v 4.195 h 24.907 z"
           style="fill:#218085;fill-opacity:1;fill-rule:nonzero;stroke:none"
           id="path306"
           inkscape:connector-curvature="0" /><path
           d="m 283.064,315.936 h -24.907 v 4.196 h 24.907 z"
           style="fill:#218085;fill-opacity:1;fill-rule:nonzero;stroke:none"
           id="path308"
           inkscape:connector-curvature="0" /><path
           d="m 283.064,327.694 h -24.907 v 4.196 h 24.907 z"
           style="fill:#218085;fill-opacity:1;fill-rule:nonzero;stroke:none"
           id="path310"
           inkscape:connector-curvature="0" /><path
           d="m 283.064,283.192 h -58.487 v 4.196 h 58.487 z"
           style="fill:#218085;fill-opacity:1;fill-rule:nonzero;stroke:none"
           id="path312"
           inkscape:connector-curvature="0" /><path
           d="m 276.068,273.574 h -44.495 v 4.195 h 44.495 z"
           style="fill:#218085;fill-opacity:1;fill-rule:nonzero;stroke:none"
           id="path314"
           inkscape:connector-curvature="0" /><g
           id="g316"
           transform="translate(219.7671,433.2529)"><path
             d="m 0,0 c 0,-24.637 19.972,-44.609 44.61,-44.609 24.637,0 44.609,19.972 44.609,44.609 0,24.637 -19.972,44.608 -44.609,44.608 C 19.972,44.608 0,24.637 0,0"
             style="fill:#3aa6ab;fill-opacity:1;fill-rule:nonzero;stroke:none"
             id="path318"
             inkscape:connector-curvature="0" /></g><g
           id="g320"
           transform="translate(296.5479,442.7363)"><path
             d="m 0,0 c 0,-24.637 -19.972,-44.609 -44.609,-44.609 -24.638,0 -44.61,19.972 -44.61,44.609 0,24.636 19.972,44.609 44.61,44.609 C -19.972,44.609 0,24.636 0,0"
             style="fill:#ffffff;fill-opacity:1;fill-rule:nonzero;stroke:none"
             id="path322"
             inkscape:connector-curvature="0" /></g><g
           id="g324"
           transform="translate(264.3154,435.3735)"><path
             d="m 0,0 c 0,-1.604 -5.542,-2.905 -12.376,-2.905 -6.837,0 -12.377,1.301 -12.377,2.905 v 4.458 c 0,0 7.849,-1.555 12.377,-1.555 C -7.251,2.903 0,4.458 0,4.458 Z"
             style="fill:#c7851c;fill-opacity:1;fill-rule:nonzero;stroke:none"
             id="path326"
             inkscape:connector-curvature="0" /></g><g
           id="g328"
           transform="translate(264.3154,439.832)"><path
             d="m 0,0 c 0,-1.604 -5.542,-2.905 -12.376,-2.905 -6.837,0 -12.377,1.301 -12.377,2.905 v 4.459 c 0,0 7.849,-1.555 12.377,-1.555 C -7.251,2.904 0,4.459 0,4.459 Z"
             style="fill:#ffb238;fill-opacity:1;fill-rule:nonzero;stroke:none"
             id="path330"
             inkscape:connector-curvature="0" /></g><g
           id="g332"
           transform="translate(264.3154,444.291)"><path
             d="m 0,0 c 0,-1.603 -5.542,-2.903 -12.376,-2.903 -6.837,0 -12.377,1.3 -12.377,2.903 v 4.46 c 0,0 7.849,-1.555 12.377,-1.555 C -7.251,2.905 0,4.46 0,4.46 Z"
             style="fill:#c7851c;fill-opacity:1;fill-rule:nonzero;stroke:none"
             id="path334"
             inkscape:connector-curvature="0" /></g><g
           id="g336"
           transform="translate(264.3154,448.7515)"><path
             d="m 0,0 c 0,-1.604 -5.542,-2.905 -12.376,-2.905 -6.837,0 -12.377,1.301 -12.377,2.905 v 4.459 c 0,0 7.849,-1.556 12.377,-1.556 C -7.251,2.903 0,4.459 0,4.459 Z"
             style="fill:#ffb238;fill-opacity:1;fill-rule:nonzero;stroke:none"
             id="path338"
             inkscape:connector-curvature="0" /></g><g
           id="g340"
           transform="translate(264.3154,453.2104)"><path
             d="m 0,0 c 0,-1.604 -5.542,-2.904 -12.376,-2.904 -6.837,0 -12.377,1.3 -12.377,2.904 v 4.46 c 0,0 7.849,-1.555 12.377,-1.555 C -7.251,2.905 0,4.46 0,4.46 Z"
             style="fill:#c7851c;fill-opacity:1;fill-rule:nonzero;stroke:none"
             id="path342"
             inkscape:connector-curvature="0" /></g><g
           id="g344"
           transform="translate(264.3154,457.6709)"><path
             d="m 0,0 c 0,-1.604 -5.542,-2.905 -12.376,-2.905 -6.837,0 -12.377,1.301 -12.377,2.905 0,1.604 5.54,2.903 12.377,2.903 C -5.542,2.903 0,1.604 0,0"
             style="fill:#ffb238;fill-opacity:1;fill-rule:nonzero;stroke:none"
             id="path346"
             inkscape:connector-curvature="0" /></g><g
           id="g348"
           transform="translate(245.8594,422.6685)"><path
             d="m 0,0 c 0,-1.604 -5.541,-2.904 -12.375,-2.904 -6.837,0 -12.378,1.3 -12.378,2.904 v 4.459 c 0,0 7.849,-1.554 12.378,-1.554 C -7.249,2.905 0,4.459 0,4.459 Z"
             style="fill:#ffb238;fill-opacity:1;fill-rule:nonzero;stroke:none"
             id="path350"
             inkscape:connector-curvature="0" /></g><g
           id="g352"
           transform="translate(245.8594,427.1279)"><path
             d="m 0,0 c 0,-1.604 -5.541,-2.904 -12.375,-2.904 -6.837,0 -12.378,1.3 -12.378,2.904 v 4.46 c 0,0 7.849,-1.556 12.378,-1.556 C -7.249,2.904 0,4.46 0,4.46 Z"
             style="fill:#c7851c;fill-opacity:1;fill-rule:nonzero;stroke:none"
             id="path354"
             inkscape:connector-curvature="0" /></g><g
           id="g356"
           transform="translate(245.8594,431.5879)"><path
             d="m 0,0 c 0,-1.604 -5.541,-2.904 -12.375,-2.904 -6.837,0 -12.378,1.3 -12.378,2.904 v 4.459 c 0,0 7.849,-1.556 12.378,-1.556 C -7.249,2.903 0,4.459 0,4.459 Z"
             style="fill:#ffb238;fill-opacity:1;fill-rule:nonzero;stroke:none"
             id="path358"
             inkscape:connector-curvature="0" /></g><g
           id="g360"
           transform="translate(245.8594,436.0474)"><path
             d="m 0,0 c 0,-1.604 -5.541,-2.905 -12.375,-2.905 -6.837,0 -12.378,1.301 -12.378,2.905 v 4.459 c 0,0 7.849,-1.556 12.378,-1.556 C -7.249,2.903 0,4.459 0,4.459 Z"
             style="fill:#c7851c;fill-opacity:1;fill-rule:nonzero;stroke:none"
             id="path362"
             inkscape:connector-curvature="0" /></g><g
           id="g364"
           transform="translate(245.8594,440.5068)"><path
             d="m 0,0 c 0,-1.604 -5.541,-2.905 -12.375,-2.905 -6.837,0 -12.378,1.301 -12.378,2.905 v 4.459 c 0,0 7.849,-1.556 12.378,-1.556 C -7.249,2.903 0,4.459 0,4.459 Z"
             style="fill:#ffb238;fill-opacity:1;fill-rule:nonzero;stroke:none"
             id="path366"
             inkscape:connector-curvature="0" /></g><g
           id="g368"
           transform="translate(245.8594,444.9658)"><path
             d="m 0,0 c 0,-1.604 -5.541,-2.904 -12.375,-2.904 -6.837,0 -12.378,1.3 -12.378,2.904 v 4.458 c 0,0 7.849,-1.555 12.378,-1.555 C -7.249,2.903 0,4.458 0,4.458 Z"
             style="fill:#c7851c;fill-opacity:1;fill-rule:nonzero;stroke:none"
             id="path370"
             inkscape:connector-curvature="0" /></g><g
           id="g372"
           transform="translate(245.8594,449.4243)"><path
             d="m 0,0 c 0,-1.603 -5.541,-2.903 -12.375,-2.903 -6.837,0 -12.378,1.3 -12.378,2.903 v 4.46 c 0,0 7.849,-1.555 12.378,-1.555 C -7.249,2.905 0,4.46 0,4.46 Z"
             style="fill:#ffb238;fill-opacity:1;fill-rule:nonzero;stroke:none"
             id="path374"
             inkscape:connector-curvature="0" /></g><g
           id="g376"
           transform="translate(245.8594,453.8848)"><path
             d="m 0,0 c 0,-1.604 -5.541,-2.904 -12.375,-2.904 -6.837,0 -12.378,1.3 -12.378,2.904 0,1.604 5.541,2.903 12.378,2.903 C -5.541,2.903 0,1.604 0,0"
             style="fill:#c7851c;fill-opacity:1;fill-rule:nonzero;stroke:none"
             id="path378"
             inkscape:connector-curvature="0" /></g><g
           id="g380"
           transform="translate(281.1675,423.5493)"><path
             d="m 0,0 c 0,-1.604 -5.542,-2.903 -12.377,-2.903 -6.835,0 -12.377,1.299 -12.377,2.903 v 4.459 c 0,0 7.849,-1.554 12.377,-1.554 C -7.25,2.905 0,4.459 0,4.459 Z"
             style="fill:#ffb238;fill-opacity:1;fill-rule:nonzero;stroke:none"
             id="path382"
             inkscape:connector-curvature="0" /></g><g
           id="g384"
           transform="translate(281.1675,428.0088)"><path
             d="m 0,0 c 0,-1.603 -5.542,-2.904 -12.377,-2.904 -6.835,0 -12.377,1.301 -12.377,2.904 v 4.46 c 0,0 7.849,-1.556 12.377,-1.556 C -7.25,2.904 0,4.46 0,4.46 Z"
             style="fill:#c7851c;fill-opacity:1;fill-rule:nonzero;stroke:none"
             id="path386"
             inkscape:connector-curvature="0" /></g><g
           id="g388"
           transform="translate(281.1675,432.4687)"><path
             d="m 0,0 c 0,-1.604 -5.542,-2.905 -12.377,-2.905 -6.835,0 -12.377,1.301 -12.377,2.905 v 4.458 c 0,0 7.849,-1.553 12.377,-1.553 C -7.25,2.905 0,4.458 0,4.458 Z"
             style="fill:#ffb238;fill-opacity:1;fill-rule:nonzero;stroke:none"
             id="path390"
             inkscape:connector-curvature="0" /></g><g
           id="g392"
           transform="translate(281.1675,436.9272)"><path
             d="m 0,0 c 0,-1.603 -5.542,-2.903 -12.377,-2.903 -6.835,0 -12.377,1.3 -12.377,2.903 v 4.46 c 0,0 7.849,-1.555 12.377,-1.555 C -7.25,2.905 0,4.46 0,4.46 Z"
             style="fill:#c7851c;fill-opacity:1;fill-rule:nonzero;stroke:none"
             id="path394"
             inkscape:connector-curvature="0" /></g><g
           id="g396"
           transform="translate(281.1675,441.3877)"><path
             d="m 0,0 c 0,-1.604 -5.542,-2.905 -12.377,-2.905 -6.835,0 -12.377,1.301 -12.377,2.905 v 4.459 c 0,0 7.849,-1.556 12.377,-1.556 C -7.25,2.903 0,4.459 0,4.459 Z"
             style="fill:#ffb238;fill-opacity:1;fill-rule:nonzero;stroke:none"
             id="path398"
             inkscape:connector-curvature="0" /></g><g
           id="g400"
           transform="translate(281.1675,445.8467)"><path
             d="m 0,0 c 0,-1.604 -5.542,-2.903 -12.377,-2.903 -6.835,0 -12.377,1.299 -12.377,2.903 v 4.459 c 0,0 7.849,-1.554 12.377,-1.554 C -7.25,2.905 0,4.459 0,4.459 Z"
             style="fill:#c7851c;fill-opacity:1;fill-rule:nonzero;stroke:none"
             id="path402"
             inkscape:connector-curvature="0" /></g><g
           id="g404"
           transform="translate(281.1675,450.3062)"><path
             d="m 0,0 c 0,-1.604 -5.542,-2.904 -12.377,-2.904 -6.835,0 -12.377,1.3 -12.377,2.904 v 4.459 c 0,0 7.849,-1.555 12.377,-1.555 C -7.25,2.904 0,4.459 0,4.459 Z"
             style="fill:#ffb238;fill-opacity:1;fill-rule:nonzero;stroke:none"
             id="path406"
             inkscape:connector-curvature="0" /></g><g
           id="g408"
           transform="translate(281.1675,454.7656)"><path
             d="m 0,0 c 0,-1.604 -5.542,-2.903 -12.377,-2.903 -6.835,0 -12.377,1.299 -12.377,2.903 v 4.46 c 0,0 7.849,-1.555 12.377,-1.555 C -7.25,2.905 0,4.46 0,4.46 Z"
             style="fill:#c7851c;fill-opacity:1;fill-rule:nonzero;stroke:none"
             id="path410"
             inkscape:connector-curvature="0" /></g><g
           id="g412"
           transform="translate(281.1675,459.2256)"><path
             d="m 0,0 c 0,-1.604 -5.542,-2.904 -12.377,-2.904 -6.835,0 -12.377,1.3 -12.377,2.904 0,1.604 5.542,2.904 12.377,2.904 C -5.542,2.904 0,1.604 0,0"
             style="fill:#ffb238;fill-opacity:1;fill-rule:nonzero;stroke:none"
             id="path414"
             inkscape:connector-curvature="0" /></g><g
           id="g416"
           transform="translate(660.0107,284.999)"><path
             d="m 0,0 c 0,-3.427 -2.775,-6.203 -6.201,-6.203 h -3.56 v 8.775 6.891 3.35 h 3.56 C -2.775,12.813 0,10.036 0,6.612 Z m -5.004,16.984 h -4.757 v 5.898 H -49.655 V 9.463 2.572 -8.811 c 0,-3.405 1.91,-6.363 4.717,-7.867 v -7.486 h 30.46 v 7.486 c 2.368,1.268 4.087,3.572 4.571,6.305 h 4.903 c 4.927,0 8.923,3.994 8.923,8.923 v 9.512 c 0,4.927 -3.996,8.922 -8.923,8.922"
             style="fill:#3aa6ab;fill-opacity:1;fill-rule:nonzero;stroke:none"
             id="path418"
             inkscape:connector-curvature="0" /></g><path
           d="m 633.096,270.318 h -30.461 v 8.124 h 30.461 z"
           style="fill:#9c311a;fill-opacity:1;fill-rule:nonzero;stroke:none"
           id="path420"
           inkscape:connector-curvature="0" /><g
           id="g422"
           transform="translate(647.5723,294.4814)"><path
             d="m 0,0 c 0,-3.425 -2.776,-6.201 -6.202,-6.201 h -5.46 c -3.426,0 -6.201,2.776 -6.201,6.201 v 6.611 c 0,3.427 2.775,6.203 6.201,6.203 h 5.46 C -2.776,12.814 0,10.038 0,6.611 Z m -5.005,16.985 h -7.854 c -4.927,0 -8.923,-3.995 -8.923,-8.922 v -9.512 c 0,-4.929 3.996,-8.923 8.923,-8.923 h 7.854 c 4.93,0 8.924,3.994 8.924,8.923 v 9.512 c 0,4.927 -3.994,8.922 -8.924,8.922"
             style="fill:#9c311a;fill-opacity:1;fill-rule:nonzero;stroke:none"
             id="path424"
             inkscape:connector-curvature="0" /></g><g
           id="g426"
           transform="translate(637.8105,317.3652)"><path
             d="m 0,0 v -31.693 c 0,-4.926 -3.993,-8.922 -8.923,-8.922 h -22.046 c -4.927,0 -8.923,3.996 -8.923,8.922 V 0 Z"
             style="fill:#ff6f4f;fill-opacity:1;fill-rule:nonzero;stroke:none"
             id="path428"
             inkscape:connector-curvature="0" /></g><path
           d="m 637.811,297.057 h -39.892 v 6.889 h 39.892 z"
           style="fill:#9c311a;fill-opacity:1;fill-rule:nonzero;stroke:none"
           id="path430"
           inkscape:connector-curvature="0" /><g
           id="g432"
           transform="translate(297.3125,560.0464)"><path
             d="m 0,0 c -4.398,0 -7.964,3.565 -7.964,7.963 0,4.397 3.566,7.963 7.964,7.963 4.397,0 7.963,-3.566 7.963,-7.963 C 7.963,3.565 4.397,0 0,0 m 0,29.933 c -12.134,0 -21.97,-9.837 -21.97,-21.97 0,-10.235 6.999,-18.836 16.472,-21.277 l 4.495,-16.935 c -6.164,-0.161 -11.011,-1.787 -11.011,-3.773 0,-2.093 5.379,-3.791 12.013,-3.791 6.635,0 12.014,1.698 12.014,3.791 0,1.986 -4.847,3.612 -11.013,3.773 l 4.497,16.935 c 9.472,2.441 16.472,11.042 16.472,21.277 0,12.133 -9.837,21.97 -21.969,21.97"
             style="fill:#3aa6ab;fill-opacity:1;fill-rule:nonzero;stroke:none"
             id="path434"
             inkscape:connector-curvature="0" /></g><g
           id="g436"
           transform="translate(296.8867,535.5073)"><path
             d="m 0,0 c 0,-2.093 -5.379,-3.79 -12.013,-3.79 -6.634,0 -12.012,1.697 -12.012,3.79 0,2.092 5.378,3.789 12.012,3.789 C -5.379,3.789 0,2.092 0,0"
             style="fill:#ffffff;fill-opacity:1;fill-rule:nonzero;stroke:none"
             id="path438"
             inkscape:connector-curvature="0" /></g><g
           id="g440"
           transform="translate(284.874,569.5293)"><path
             d="m 0,0 c -4.398,0 -7.964,3.565 -7.964,7.963 0,4.398 3.566,7.964 7.964,7.964 4.398,0 7.964,-3.566 7.964,-7.964 C 7.964,3.565 4.398,0 0,0 m 0,29.933 c -12.133,0 -21.97,-9.836 -21.97,-21.97 0,-10.235 7,-18.836 16.473,-21.276 L 0,-34.022 5.497,-13.313 c 9.472,2.44 16.473,11.041 16.473,21.276 0,12.134 -9.836,21.97 -21.97,21.97"
             style="fill:#c74224;fill-opacity:1;fill-rule:nonzero;stroke:none"
             id="path442"
             inkscape:connector-curvature="0" /></g><g
           id="g444"
           transform="translate(549.668,513.3403)"><path
             d="m 0,0 h 65.852 c 4.835,0 8.755,3.92 8.755,8.758 0,2.101 -0.742,4.029 -1.974,5.538 h 1.364 c 4.009,0 7.259,3.25 7.259,7.259 0,4.009 -3.25,7.259 -7.259,7.259 h -6.352 c -0.234,4.268 -3.757,7.66 -8.085,7.66 h -0.916 c -2.248,0 -4.28,-0.914 -5.748,-2.39 -0.736,3.72 -4.013,6.525 -7.951,6.525 h -0.917 c -1.79,0 -3.439,-0.588 -4.779,-1.57 v 0.167 c 0,5.348 -4.335,9.683 -9.682,9.683 h -1.094 c -5.179,0 -9.392,-4.066 -9.659,-9.177 -1.87,1.275 -4.13,2.022 -6.566,2.022 h -1.322 c -6.45,0 -11.68,-5.229 -11.68,-11.68 V 17.516 17.479 C -5.236,17.094 -8.757,13.34 -8.757,8.758 -8.757,3.92 -4.836,0 0,0"
             style="fill:#3aa6ab;fill-opacity:1;fill-rule:nonzero;stroke:none"
             id="path446"
             inkscape:connector-curvature="0" /></g><g
           id="g448"
           transform="translate(611.2275,551.6372)"><path
             d="m 0,0 h -6.354 c -0.232,4.269 -3.757,7.661 -8.083,7.661 h -0.918 c -2.246,0 -4.279,-0.914 -5.747,-2.39 -0.736,3.719 -4.012,6.524 -7.95,6.524 h -0.919 c -1.788,0 -3.436,-0.586 -4.777,-1.568 v 0.167 c 0,5.346 -4.337,9.681 -9.682,9.681 h -1.096 c -5.347,0 -9.682,-4.335 -9.682,-9.681 V 0 c 0,-0.01 0.002,-0.021 0.002,-0.032 -3.715,-0.316 -6.635,-3.428 -6.635,-7.226 0,-4.01 3.25,-7.259 7.259,-7.259 H 0 c 4.009,0 7.257,3.249 7.257,7.259 C 7.257,-3.25 4.009,0 0,0"
             style="fill:#08334d;fill-opacity:1;fill-rule:nonzero;stroke:none"
             id="path450"
             inkscape:connector-curvature="0" /></g><g
           id="g452"
           transform="translate(603.0801,540.3389)"><path
             d="m 0,0 h -7.665 c -0.279,5.149 -4.534,9.243 -9.752,9.243 h -1.107 c -2.71,0 -5.162,-1.104 -6.933,-2.885 -0.889,4.488 -4.845,7.872 -9.592,7.872 h -1.107 c -2.159,0 -4.147,-0.708 -5.766,-1.893 v 0.202 c 0,6.45 -5.228,11.68 -11.68,11.68 h -1.321 c -6.453,0 -11.681,-5.23 -11.681,-11.68 V 0 c 0,-0.012 0,-0.025 0,-0.039 -4.482,-0.382 -8.003,-4.136 -8.003,-8.718 0,-4.838 3.92,-8.758 8.757,-8.758 H 0 c 4.836,0 8.757,3.92 8.757,8.758 C 8.757,-3.92 4.836,0 0,0"
             style="fill:#0e5987;fill-opacity:1;fill-rule:nonzero;stroke:none"
             id="path454"
             inkscape:connector-curvature="0" /></g><g
           id="g456"
           transform="translate(217.3047,485.7031)"><path
             d="m 0,0 c 22.032,0 39.891,17.86 39.891,39.892 0,22.03 -17.859,39.89 -39.891,39.89 -22.031,0 -39.891,-17.86 -39.891,-39.89 C -39.891,17.86 -22.031,0 0,0"
             style="fill:#3aa6ab;fill-opacity:1;fill-rule:nonzero;stroke:none"
             id="path458"
             inkscape:connector-curvature="0" /></g><g
           id="g460"
           transform="translate(244.7568,535.0771)"><path
             d="m 0,0 c 0,-22.031 -17.858,-39.891 -39.89,-39.891 -22.031,0 -39.891,17.86 -39.891,39.891 0,22.031 17.86,39.891 39.891,39.891 C -17.858,39.891 0,22.031 0,0"
             style="fill:#08334d;fill-opacity:1;fill-rule:nonzero;stroke:none"
             id="path462"
             inkscape:connector-curvature="0" /></g><g
           id="g464"
           transform="translate(238.1709,535.0771)"><path
             d="m 0,0 c 0,-18.394 -14.91,-33.305 -33.304,-33.305 -18.394,0 -33.305,14.911 -33.305,33.305 0,18.393 14.911,33.304 33.305,33.304 C -14.91,33.304 0,18.393 0,0"
             style="fill:#ffffff;fill-opacity:1;fill-rule:nonzero;stroke:none"
             id="path466"
             inkscape:connector-curvature="0" /></g><g
           id="g468"
           transform="translate(205.7773,538.5142)"><path
             d="m 0,0 c 1.329,-1.329 1.329,-3.482 0,-4.811 -1.329,-1.329 -3.481,-1.328 -4.811,0 l -15.823,15.824 c -1.329,1.329 -1.329,3.482 0,4.811 1.328,1.328 3.482,1.328 4.81,0 z"
             style="fill:#08334d;fill-opacity:1;fill-rule:nonzero;stroke:none"
             id="path470"
             inkscape:connector-curvature="0" /></g><g
           id="g472"
           transform="translate(209.5112,533.7031)"><path
             d="m 0,0 c -1.329,-1.329 -3.481,-1.329 -4.811,0 -1.328,1.329 -1.327,3.482 0,4.811 l 9.284,9.285 c 1.33,1.329 3.484,1.329 4.813,0 1.328,-1.329 1.328,-3.482 0,-4.811 z"
             style="fill:#08334d;fill-opacity:1;fill-rule:nonzero;stroke:none"
             id="path474"
             inkscape:connector-curvature="0" /></g><g
           id="g476"
           transform="translate(210.814,535.0771)"><path
             d="m 0,0 c 0,-3.284 -2.662,-5.947 -5.947,-5.947 -3.284,0 -5.947,2.663 -5.947,5.947 0,3.284 2.663,5.947 5.947,5.947 C -2.662,5.947 0,3.284 0,0"
             style="fill:#0e5987;fill-opacity:1;fill-rule:nonzero;stroke:none"
             id="path478"
             inkscape:connector-curvature="0" /></g><g
           id="g480"
           transform="translate(204.8672,565.5894)"><path
             d="m 0,0 c -0.651,0 -1.178,-0.527 -1.178,-1.178 v -1.713 c 0,-0.65 0.527,-1.177 1.178,-1.177 0.65,0 1.177,0.527 1.177,1.177 v 1.713 C 1.177,-0.527 0.65,0 0,0"
             style="fill:#0e5987;fill-opacity:1;fill-rule:nonzero;stroke:none"
             id="path482"
             inkscape:connector-curvature="0" /></g><g
           id="g484"
           transform="translate(204.8672,508.6338)"><path
             d="m 0,0 c -0.651,0 -1.178,-0.527 -1.178,-1.178 v -1.713 c 0,-0.65 0.527,-1.178 1.178,-1.178 0.65,0 1.177,0.528 1.177,1.178 v 1.713 C 1.177,-0.527 0.65,0 0,0"
             style="fill:#0e5987;fill-opacity:1;fill-rule:nonzero;stroke:none"
             id="path486"
             inkscape:connector-curvature="0" /></g><g
           id="g488"
           transform="translate(235.3789,535.0771)"><path
             d="M 0,0 C 0,0.65 -0.527,1.178 -1.178,1.178 H -2.891 C -3.542,1.178 -4.069,0.65 -4.069,0 c 0,-0.65 0.527,-1.178 1.178,-1.178 h 1.713 C -0.527,-1.178 0,-0.65 0,0"
             style="fill:#0e5987;fill-opacity:1;fill-rule:nonzero;stroke:none"
             id="path490"
             inkscape:connector-curvature="0" /></g><g
           id="g492"
           transform="translate(178.4233,535.0771)"><path
             d="M 0,0 C 0,0.65 -0.527,1.178 -1.178,1.178 H -2.891 C -3.542,1.178 -4.069,0.65 -4.069,0 c 0,-0.65 0.527,-1.178 1.178,-1.178 h 1.713 C -0.527,-1.178 0,-0.65 0,0"
             style="fill:#0e5987;fill-opacity:1;fill-rule:nonzero;stroke:none"
             id="path494"
             inkscape:connector-curvature="0" /></g><g
           id="g496"
           transform="translate(426.8857,337.3613)"><path
             d="m 0,0 c -6.161,0 -11.157,-4.993 -11.157,-11.157 v 5.038 c 0,6.162 -4.995,11.156 -11.155,11.156 -6.165,0 -11.159,-4.994 -11.159,-11.156 v 2.517 c 0,6.163 -4.995,11.157 -11.157,11.157 -6.163,0 -11.157,-4.994 -11.157,-11.157 v 57.553 c 0,6.163 -4.996,11.158 -11.158,11.158 -6.163,0 -11.158,-4.995 -11.158,-11.158 v -76.604 c 0,-0.516 0.038,-1.025 0.105,-1.52 -0.046,-0.623 -0.078,-1.271 -0.093,-1.952 l -14.149,14.15 c -4.356,4.356 -11.421,4.356 -15.778,0 -4.358,-4.358 -3.268,-10.536 0,-15.78 l 37.342,-54.036 c 0.001,-0.001 0.001,-0.002 0.001,-0.002 0.739,-1.064 1.527,-2.093 2.358,-3.082 v -48.306 H 1.371 v 45.868 c 6.123,6.433 9.787,15.075 9.787,25.625 v 3.602 0.383 46.546 C 11.158,-4.993 6.164,0 0,0"
             style="fill:#f9c895;fill-opacity:1;fill-rule:nonzero;stroke:none"
             id="path498"
             inkscape:connector-curvature="0" /></g><path
           d="m 431.979,195.84 h -76.397 v 42.501 h 76.397 z"
           style="fill:#ffffff;fill-opacity:1;fill-rule:nonzero;stroke:none"
           id="path500"
           inkscape:connector-curvature="0" /><path
           d="M 435.491,181.885 H 352.07 v 43.064 h 83.421 z"
           style="fill:#0e5987;fill-opacity:1;fill-rule:nonzero;stroke:none"
           id="path502"
           inkscape:connector-curvature="0" /><g
           id="g504"
           transform="translate(193.1567,259.8867)"><path
             d="M 0,0 C 0,15.01 -12.168,27.18 -27.179,27.18 -42.19,27.18 -54.358,15.01 -54.358,0 c 0,-15.011 12.168,-27.181 27.179,-27.181 C -12.168,-27.181 0,-15.011 0,0"
             style="fill:#3aa6ab;fill-opacity:1;fill-rule:nonzero;stroke:none"
             id="path506"
             inkscape:connector-curvature="0" /></g><g
           id="g508"
           transform="translate(180.7192,269.3701)"><path
             d="m 0,0 c 0,-15.01 -12.168,-27.18 -27.179,-27.18 -15.012,0 -27.18,12.17 -27.18,27.18 0,15.01 12.168,27.18 27.18,27.18 C -12.168,27.18 0,15.01 0,0"
             style="fill:#0e5987;fill-opacity:1;fill-rule:nonzero;stroke:none"
             id="path510"
             inkscape:connector-curvature="0" /></g><g
           id="g512"
           transform="translate(168.1968,259.3994)"><path
             d="m 0,0 c 0,1.452 -1.178,2.63 -2.63,2.63 h 1.187 c 1.452,0 2.63,1.177 2.63,2.629 0,1.451 -1.178,2.629 -2.63,2.629 h 0.594 c 1.453,0 2.629,1.176 2.629,2.63 0,1.451 -1.176,2.628 -2.629,2.628 h 0.293 c 1.452,0 2.63,1.179 2.63,2.63 0,1.452 -1.178,2.629 -2.63,2.629 h -4.783 c -0.122,0 -0.242,-0.008 -0.358,-0.023 -0.146,0.01 -3.703,0.018 -3.864,0.021 0,0 0.945,3.305 1.119,4.78 0.256,2.182 0.683,3.807 -0.345,4.833 -1.026,1.028 -3.095,0.58 -3.783,-0.98 l -6.706,-10.38 V 16.655 C -19.528,16.481 -19.77,16.296 -20.003,16.1 H -31.386 V -0.324 h 10.807 c 1.517,-1.443 3.554,-2.305 6.041,-2.305 h 0.848 0.091 10.969 C -1.178,-2.629 0,-1.452 0,0"
             style="fill:#ffffff;fill-opacity:1;fill-rule:nonzero;stroke:none"
             id="path514"
             inkscape:connector-curvature="0" /></g><path
           d="M 147.543,258.355 H 136.81 v 18.259 h 10.733 z"
           style="fill:#ffffff;fill-opacity:1;fill-rule:nonzero;stroke:none"
           id="path516"
           inkscape:connector-curvature="0" /><path
           d="m 145.308,257.352 h -8.497 v 20.268 h 8.497 z"
           style="fill:#e0e0e0;fill-opacity:1;fill-rule:nonzero;stroke:none"
           id="path518"
           inkscape:connector-curvature="0" /><g
           id="g520"
           transform="translate(182.0449,394.207)"><path
             d="m 0,0 c 4.886,0 8.847,3.963 8.847,8.848 v 34.151 c 0,4.886 -3.961,8.847 -8.847,8.847 h -105.67 c -4.886,0 -8.848,-3.961 -8.848,-8.847 V 13.426 8.848 -14.431 L -100.087,0 Z"
             style="fill:#3aa6ab;fill-opacity:1;fill-rule:nonzero;stroke:none"
             id="path522"
             inkscape:connector-curvature="0" /></g><g
           id="g524"
           transform="translate(169.6069,455.5361)"><path
             d="m 0,0 h -105.67 c -4.887,0 -8.848,-3.961 -8.848,-8.847 v -29.574 -4.577 -23.277 l 14.431,14.429 H 0 c 4.886,0 8.847,3.962 8.847,8.848 V -8.847 C 8.847,-3.961 4.886,0 0,0"
             style="fill:#ffb238;fill-opacity:1;fill-rule:nonzero;stroke:none"
             id="path526"
             inkscape:connector-curvature="0" /></g><g
           id="g528"
           transform="translate(165.7881,446.2383)"><path
             d="m 0,0 c 0,-1.312 -1.064,-2.376 -2.376,-2.376 h -93.28 c -1.313,0 -2.376,1.064 -2.376,2.376 0,1.313 1.063,2.377 2.376,2.377 h 93.28 C -1.064,2.377 0,1.313 0,0"
             style="fill:#ffffff;fill-opacity:1;fill-rule:nonzero;stroke:none"
             id="path530"
             inkscape:connector-curvature="0" /></g><g
           id="g532"
           transform="translate(165.7881,424.9971)"><path
             d="m 0,0 c 0,-1.312 -1.064,-2.376 -2.376,-2.376 h -93.28 c -1.313,0 -2.376,1.064 -2.376,2.376 0,1.313 1.063,2.376 2.376,2.376 h 93.28 C -1.064,2.376 0,1.313 0,0"
             style="fill:#ffffff;fill-opacity:1;fill-rule:nonzero;stroke:none"
             id="path534"
             inkscape:connector-curvature="0" /></g><g
           id="g536"
           transform="translate(159.9888,435.6182)"><path
             d="m 0,0 c 0,-1.312 -1.064,-2.376 -2.376,-2.376 h -81.681 c -1.313,0 -2.376,1.064 -2.376,2.376 0,1.313 1.063,2.377 2.376,2.377 H -2.376 C -1.064,2.377 0,1.313 0,0"
             style="fill:#ffffff;fill-opacity:1;fill-rule:nonzero;stroke:none"
             id="path538"
             inkscape:connector-curvature="0" /></g><g
           id="g540"
           transform="translate(159.9888,414.377)"><path
             d="m 0,0 c 0,-1.312 -1.064,-2.376 -2.376,-2.376 h -81.681 c -1.313,0 -2.376,1.064 -2.376,2.376 0,1.312 1.063,2.376 2.376,2.376 H -2.376 C -1.064,2.376 0,1.312 0,0"
             style="fill:#ffffff;fill-opacity:1;fill-rule:nonzero;stroke:none"
             id="path542"
             inkscape:connector-curvature="0" /></g><g
           id="g544"
           transform="translate(712.6611,375.6201)"><path
             d="m 0,0 h -38.414 c -2.853,0 -5.163,-2.313 -5.163,-5.163 v -1.519 -4.324 h -13.44 c -2.853,0 -5.164,-2.311 -5.164,-5.163 v -17.26 -2.672 -13.585 l 8.423,8.422 h 35.156 c 2.851,0 5.164,2.311 5.164,5.163 v 5.842 h 3.445 6.735 l 8.423,-8.422 v 13.586 2.67 17.262 C 5.165,-2.313 2.853,0 0,0"
             style="fill:#3aa6ab;fill-opacity:1;fill-rule:nonzero;stroke:none"
             id="path546"
             inkscape:connector-curvature="0" /></g><g
           id="g548"
           transform="translate(661.8105,385.1025)"><path
             d="m 0,0 h 38.413 c 2.853,0 5.163,-2.311 5.163,-5.162 v -17.261 -2.67 -13.587 l -8.422,8.423 H 0 c -2.853,0 -5.164,2.312 -5.164,5.164 V -5.162 C -5.164,-2.311 -2.853,0 0,0"
             style="fill:#0e5987;fill-opacity:1;fill-rule:nonzero;stroke:none"
             id="path550"
             inkscape:connector-curvature="0" /></g><g
           id="g552"
           transform="translate(684.3359,378.4219)"><path
             d="m 0,0 h -27.689 v -18.412 c 0,-2.853 2.311,-5.164 5.164,-5.164 H 5.895 V -5.893 C 5.895,-2.639 3.254,0 0,0"
             style="fill:#08334d;fill-opacity:1;fill-rule:nonzero;stroke:none"
             id="path554"
             inkscape:connector-curvature="0" /></g><g
           id="g556"
           transform="translate(681.6221,374.0977)"><path
             d="m 0,0 h -38.417 c -2.851,0 -5.163,-2.312 -5.163,-5.163 v -17.26 -2.673 -13.585 l 8.422,8.423 H 0 c 2.851,0 5.163,2.311 5.163,5.162 V -5.163 C 5.163,-2.312 2.851,0 0,0"
             style="fill:#ffffff;fill-opacity:1;fill-rule:nonzero;stroke:none"
             id="path558"
             inkscape:connector-curvature="0" /></g><g
           id="g560"
           transform="translate(443.7305,607.0005)"><path
             d="m 0,0 c 0,5.218 4.245,9.462 9.463,9.462 1.17,0 2.285,-0.222 3.319,-0.611 C 7.98,7.015 4.555,2.372 4.555,-3.068 V -5.842 L 0,-5.842 Z M 26.782,-3.068 V -5.842 H 26.192 22.23 V 0 c 0,2.049 -0.497,3.979 -1.357,5.697 3.46,-1.408 5.909,-4.803 5.909,-8.765 M 16.457,6.351 C 17.985,4.67 18.926,2.446 18.926,0 V -5.842 H 8.154 7.858 v 2.774 c 0,4.926 3.787,8.981 8.599,9.419 m 9.735,-62.291 h 5.877 5.664 v 50.098 h -7.644 v 2.774 c 0,6.889 -5.49,12.506 -12.319,12.745 -2.237,1.921 -5.134,3.09 -8.307,3.09 C 2.424,12.767 -3.302,7.04 -3.302,0 v -5.842 h -8.025 V -55.94 H 8.154 Z"
             style="fill:#3aa6ab;fill-opacity:1;fill-rule:nonzero;stroke:none"
             id="path562"
             inkscape:connector-curvature="0" /></g><g
           id="g564"
           transform="translate(437.499,603.4014)"><path
             d="m 0,0 v 10.015 c 0,6.138 4.976,11.114 11.114,11.114 6.138,0 11.114,-4.976 11.114,-11.114 V 0"
             style="fill:none;stroke:#ffffff;stroke-width:3.30500007;stroke-linecap:round;stroke-linejoin:round;stroke-miterlimit:10;stroke-dasharray:none;stroke-opacity:1"
             id="path566"
             inkscape:connector-curvature="0" /></g><path
           d="m 469.026,560.542 h -29.578 v 50.1 h 29.578 z"
           style="fill:#064145;fill-opacity:1;fill-rule:nonzero;stroke:none"
           id="path568"
           inkscape:connector-curvature="0" /><path
           d="m 457.483,560.542 h -37.518 v 50.1 h 37.518 z"
           style="fill:#218085;fill-opacity:1;fill-rule:nonzero;stroke:none"
           id="path570"
           inkscape:connector-curvature="0" /><g
           id="g572"
           transform="translate(451.0752,583.064)"><path
             d="m 0,0 c 0,-6.823 -5.53,-12.353 -12.353,-12.353 -6.82,0 -12.35,5.53 -12.35,12.353 0,6.822 5.53,12.353 12.35,12.353 C -5.53,12.353 0,6.822 0,0"
             style="fill:#ffffff;fill-opacity:1;fill-rule:nonzero;stroke:none"
             id="path574"
             inkscape:connector-curvature="0" /></g><g
           id="g576"
           transform="translate(457.4834,560.5425)"><path
             d="M 0,0 H 5.878 V 47.944 L 0,50.1 Z"
             style="fill:#08334d;fill-opacity:1;fill-rule:nonzero;stroke:none"
             id="path578"
             inkscape:connector-curvature="0" /></g><g
           id="g580"
           transform="translate(469.0264,560.5425)"><path
             d="M 0,0 H -5.665 V 47.944 L 0,50.1 Z"
             style="fill:#218085;fill-opacity:1;fill-rule:nonzero;stroke:none"
             id="path582"
             inkscape:connector-curvature="0" /></g><g
           id="g584"
           transform="translate(429.6426,606.4687)"><path
             d="m 0,0 v 10.016 c 0,6.137 4.976,11.114 11.113,11.114 6.139,0 11.115,-4.977 11.115,-11.114 V 0"
             style="fill:none;stroke:#ffffff;stroke-width:3.30500007;stroke-linecap:round;stroke-linejoin:round;stroke-miterlimit:10;stroke-dasharray:none;stroke-opacity:1"
             id="path586"
             inkscape:connector-curvature="0" /></g><g
           id="g588"
           transform="translate(179.8115,480.4292)"><path
             d="m 0,0 c 5.927,0 10.75,-4.822 10.75,-10.75 0,-5.927 -4.823,-10.749 -10.75,-10.749 -5.928,0 -10.75,4.822 -10.75,10.749 C -10.75,-4.822 -5.928,0 0,0 m 0,-23.482 c 7.021,0 12.732,5.711 12.732,12.732 0,7.021 -5.711,12.733 -12.732,12.733 -7.021,0 -12.733,-5.712 -12.733,-12.733 0,-7.021 5.712,-12.732 12.733,-12.732"
             style="fill:#3aa6ab;fill-opacity:1;fill-rule:nonzero;stroke:none"
             id="path590"
             inkscape:connector-curvature="0" /></g><g
           id="g592"
           transform="translate(179.1138,479.1621)"><path
             d="m 0,0 c 0,-6.484 -5.256,-11.741 -11.74,-11.741 -6.485,0 -11.741,5.257 -11.741,11.741 0,6.485 5.256,11.741 11.741,11.741 C -5.256,11.741 0,6.485 0,0 Z"
             style="fill:none;stroke:#ffffff;stroke-width:1.98300004;stroke-linecap:butt;stroke-linejoin:miter;stroke-miterlimit:10;stroke-dasharray:none;stroke-opacity:1"
             id="path594"
             inkscape:connector-curvature="0" /></g><g
           id="g596"
           transform="translate(580.0762,248.2461)"><path
             d="m 0,0 c -5.928,0 -10.748,4.821 -10.748,10.75 0,5.928 4.82,10.75 10.748,10.75 5.927,0 10.751,-4.822 10.751,-10.75 C 10.751,4.821 5.927,0 0,0 m 0,23.483 c -7.021,0 -12.733,-5.712 -12.733,-12.733 0,-7.021 5.712,-12.731 12.733,-12.731 7.021,0 12.733,5.71 12.733,12.731 0,7.021 -5.712,12.733 -12.733,12.733"
             style="fill:#3aa6ab;fill-opacity:1;fill-rule:nonzero;stroke:none"
             id="path598"
             inkscape:connector-curvature="0" /></g><g
           id="g600"
           transform="translate(579.3789,268.4805)"><path
             d="m 0,0 c 0,-6.485 -5.255,-11.741 -11.739,-11.741 -6.486,0 -11.742,5.256 -11.742,11.741 0,6.484 5.256,11.739 11.742,11.739 C -5.255,11.739 0,6.484 0,0 Z"
             style="fill:none;stroke:#ffffff;stroke-width:1.98300004;stroke-linecap:butt;stroke-linejoin:miter;stroke-miterlimit:10;stroke-dasharray:none;stroke-opacity:1"
             id="path602"
             inkscape:connector-curvature="0" /></g><g
           id="g604"
           transform="translate(362.2803,586.8589)"><path
             d="m 0,0 c 5.927,0 10.749,-4.823 10.749,-10.75 0,-5.927 -4.822,-10.749 -10.749,-10.749 -5.928,0 -10.75,4.822 -10.75,10.749 C -10.75,-4.823 -5.928,0 0,0 m 0,-23.482 c 7.021,0 12.731,5.711 12.731,12.732 0,7.021 -5.71,12.732 -12.731,12.732 -7.021,0 -12.733,-5.711 -12.733,-12.732 0,-7.021 5.712,-12.732 12.733,-12.732"
             style="fill:#3aa6ab;fill-opacity:1;fill-rule:nonzero;stroke:none"
             id="path606"
             inkscape:connector-curvature="0" /></g><g
           id="g608"
           transform="translate(361.5825,585.5928)"><path
             d="m 0,0 c 0,-6.485 -5.255,-11.741 -11.741,-11.741 -6.485,0 -11.74,5.256 -11.74,11.741 0,6.484 5.255,11.74 11.74,11.74 C -5.255,11.74 0,6.484 0,0 Z"
             style="fill:none;stroke:#ffffff;stroke-width:1.98300004;stroke-linecap:butt;stroke-linejoin:miter;stroke-miterlimit:10;stroke-dasharray:none;stroke-opacity:1"
             id="path610"
             inkscape:connector-curvature="0" /></g><g
           id="g612"
           transform="translate(303.2554,358.1885)"><path
             d="m 0,0 c -5.928,0 -10.75,4.822 -10.75,10.75 0,5.928 4.822,10.75 10.75,10.75 5.927,0 10.75,-4.822 10.75,-10.75 C 10.75,4.822 5.927,0 0,0 m 0,23.481 c -7.021,0 -12.733,-5.71 -12.733,-12.731 0,-7.021 5.712,-12.732 12.733,-12.732 7.021,0 12.731,5.711 12.731,12.732 0,7.021 -5.71,12.731 -12.731,12.731"
             style="fill:#3aa6ab;fill-opacity:1;fill-rule:nonzero;stroke:none"
             id="path614"
             inkscape:connector-curvature="0" /></g><g
           id="g616"
           transform="translate(302.5581,378.4219)"><path
             d="m 0,0 c 0,-6.484 -5.256,-11.74 -11.741,-11.74 -6.485,0 -11.741,5.256 -11.741,11.74 0,6.485 5.256,11.74 11.741,11.74 C -5.256,11.74 0,6.485 0,0 Z"
             style="fill:none;stroke:#ffffff;stroke-width:1.98300004;stroke-linecap:butt;stroke-linejoin:miter;stroke-miterlimit:10;stroke-dasharray:none;stroke-opacity:1"
             id="path618"
             inkscape:connector-curvature="0" /></g><g
           id="g620"
           transform="translate(189.8691,206.9268)"><path
             d="m 0,0 c -4.816,0 -8.733,3.919 -8.733,8.735 0,4.817 3.917,8.736 8.733,8.736 4.817,0 8.735,-3.919 8.735,-8.736 C 8.735,3.919 4.817,0 0,0 m 0,19.454 c -5.909,0 -10.717,-4.808 -10.717,-10.719 0,-5.91 4.808,-10.717 10.717,-10.717 5.911,0 10.718,4.807 10.718,10.717 0,5.911 -4.807,10.719 -10.718,10.719"
             style="fill:#3aa6ab;fill-opacity:1;fill-rule:nonzero;stroke:none"
             id="path622"
             inkscape:connector-curvature="0" /></g><g
           id="g624"
           transform="translate(187.1582,225.1445)"><path
             d="m 0,0 c 0,-5.371 -4.354,-9.725 -9.727,-9.725 -5.372,0 -9.725,4.354 -9.725,9.725 0,5.374 4.353,9.728 9.725,9.728 C -4.354,9.728 0,5.374 0,0 Z"
             style="fill:none;stroke:#08334d;stroke-width:1.98300004;stroke-linecap:round;stroke-linejoin:round;stroke-miterlimit:10;stroke-dasharray:none;stroke-opacity:1"
             id="path626"
             inkscape:connector-curvature="0" /></g><g
           id="g628"
           transform="translate(479.9531,302.3076)"><path
             d="M 0,0 C 0,2.508 2.041,4.55 4.551,4.55 7.059,4.55 9.098,2.508 9.098,0 9.098,-2.508 7.059,-4.549 4.551,-4.549 2.041,-4.549 0,-2.508 0,0 m 11.742,0 c 0,3.967 -3.227,7.193 -7.191,7.193 -3.968,0 -7.194,-3.226 -7.194,-7.193 0,-3.965 3.226,-7.192 7.194,-7.192 3.964,0 7.191,3.227 7.191,7.192"
             style="fill:#3aa6ab;fill-opacity:1;fill-rule:nonzero;stroke:none"
             id="path630"
             inkscape:connector-curvature="0" /></g><g
           id="g632"
           transform="translate(477.9346,311.792)"><path
             d="m 0,0 c 0,-3.242 -2.628,-5.871 -5.87,-5.871 -3.242,0 -5.87,2.629 -5.87,5.871 0,3.242 2.628,5.871 5.87,5.871 C -2.628,5.871 0,3.242 0,0 Z"
             style="fill:none;stroke:#08334d;stroke-width:2.64400005;stroke-linecap:round;stroke-linejoin:round;stroke-miterlimit:10;stroke-dasharray:none;stroke-opacity:1"
             id="path634"
             inkscape:connector-curvature="0" /></g><g
           id="g636"
           transform="translate(342.5654,221.2295)"><path
             d="m 0,0 c -2.872,0 -5.209,2.339 -5.209,5.21 0,2.873 2.337,5.21 5.209,5.21 2.873,0 5.21,-2.337 5.21,-5.21 C 5.21,2.339 2.873,0 0,0 m 0,11.741 c -3.601,0 -6.531,-2.93 -6.531,-6.531 0,-3.602 2.93,-6.532 6.531,-6.532 3.602,0 6.532,2.93 6.532,6.532 0,3.601 -2.93,6.531 -6.532,6.531"
             style="fill:#3aa6ab;fill-opacity:1;fill-rule:nonzero;stroke:none"
             id="path638"
             inkscape:connector-curvature="0" /></g><g
           id="g640"
           transform="translate(335.9985,235.9238)"><path
             d="m 0,0 c 0,-3.242 -2.628,-5.871 -5.872,-5.871 -3.241,0 -5.869,2.629 -5.869,5.871 0,3.242 2.628,5.869 5.869,5.869 C -2.628,5.869 0,3.242 0,0 Z"
             style="fill:none;stroke:#ffffff;stroke-width:1.32200003;stroke-linecap:butt;stroke-linejoin:miter;stroke-miterlimit:10;stroke-dasharray:none;stroke-opacity:1"
             id="path642"
             inkscape:connector-curvature="0" /></g><g
           id="g644"
           transform="translate(716.5947,430.0903)"><path
             d="m 0,0 c -2.689,0 -4.878,2.189 -4.878,4.879 0,2.691 2.189,4.88 4.878,4.88 2.691,0 4.881,-2.189 4.881,-4.88 C 4.881,2.189 2.691,0 0,0 m 0,11.742 c -3.784,0 -6.861,-3.078 -6.861,-6.863 0,-3.783 3.077,-6.862 6.861,-6.862 3.784,0 6.863,3.079 6.863,6.862 0,3.785 -3.079,6.863 -6.863,6.863"
             style="fill:#3aa6ab;fill-opacity:1;fill-rule:nonzero;stroke:none"
             id="path646"
             inkscape:connector-curvature="0" /></g><g
           id="g648"
           transform="translate(710.0293,444.4541)"><path
             d="m 0,0 c 0,-3.243 -2.629,-5.872 -5.872,-5.872 -3.242,0 -5.87,2.629 -5.87,5.872 0,3.241 2.628,5.87 5.87,5.87 C -2.629,5.87 0,3.241 0,0 Z"
             style="fill:none;stroke:#ffffff;stroke-width:1.98300004;stroke-linecap:butt;stroke-linejoin:miter;stroke-miterlimit:10;stroke-dasharray:none;stroke-opacity:1"
             id="path650"
             inkscape:connector-curvature="0" /></g><g
           id="g652"
           transform="translate(402.5937,566.7832)"><path
             d="m 0,0 c 2.508,0 4.549,-2.04 4.549,-4.549 0,-2.508 -2.041,-4.549 -4.549,-4.549 -2.508,0 -4.549,2.041 -4.549,4.549 C -4.549,-2.04 -2.508,0 0,0 m 0,-11.741 c 3.966,0 7.193,3.226 7.193,7.192 0,3.966 -3.227,7.193 -7.193,7.193 -3.966,0 -7.192,-3.227 -7.192,-7.193 0,-3.966 3.226,-7.192 7.192,-7.192"
             style="fill:#3aa6ab;fill-opacity:1;fill-rule:nonzero;stroke:none"
             id="path654"
             inkscape:connector-curvature="0" /></g><g
           id="g656"
           transform="translate(396.0273,571.7183)"><path
             d="m 0,0 c 0,-3.243 -2.63,-5.871 -5.872,-5.871 -3.242,0 -5.87,2.628 -5.87,5.871 0,3.242 2.628,5.87 5.87,5.87 C -2.63,5.87 0,3.242 0,0 Z"
             style="fill:none;stroke:#08334d;stroke-width:2.64400005;stroke-linecap:round;stroke-linejoin:round;stroke-miterlimit:10;stroke-dasharray:none;stroke-opacity:1"
             id="path658"
             inkscape:connector-curvature="0" /></g><g
           id="g660"
           transform="translate(525.3389,512.6699)"><path
             d="m 0,0 c 0,-2.69 -2.189,-4.879 -4.881,-4.879 -2.689,0 -4.878,2.189 -4.878,4.879 0,2.69 2.189,4.88 4.878,4.88 C -2.189,4.88 0,2.69 0,0 m -11.742,0 c 0,-3.783 3.077,-6.862 6.861,-6.862 3.786,0 6.863,3.079 6.863,6.862 0,3.783 -3.077,6.862 -6.863,6.862 -3.784,0 -6.861,-3.079 -6.861,-6.862"
             style="fill:#3aa6ab;fill-opacity:1;fill-rule:nonzero;stroke:none"
             id="path662"
             inkscape:connector-curvature="0" /></g><g
           id="g664"
           transform="translate(513.8926,522.1523)"><path
             d="m 0,0 c 0,-3.242 -2.629,-5.87 -5.871,-5.87 -3.243,0 -5.87,2.628 -5.87,5.87 0,3.244 2.627,5.872 5.87,5.872 C -2.629,5.872 0,3.244 0,0 Z"
             style="fill:none;stroke:#ffffff;stroke-width:1.98300004;stroke-linecap:butt;stroke-linejoin:miter;stroke-miterlimit:10;stroke-dasharray:none;stroke-opacity:1"
             id="path666"
             inkscape:connector-curvature="0" /></g><g
           id="g668"
           transform="translate(158.0454,369.9736)"><path
             d="m 0,0 c 0,-2.509 -2.041,-4.55 -4.549,-4.55 -2.508,0 -4.549,2.041 -4.549,4.55 0,2.508 2.041,4.549 4.549,4.549 C -2.041,4.549 0,2.508 0,0 m -11.741,0 c 0,-3.968 3.226,-7.193 7.192,-7.193 3.966,0 7.193,3.225 7.193,7.193 0,3.964 -3.227,7.192 -7.193,7.192 -3.966,0 -7.192,-3.228 -7.192,-7.192"
             style="fill:#3aa6ab;fill-opacity:1;fill-rule:nonzero;stroke:none"
             id="path670"
             inkscape:connector-curvature="0" /></g><g
           id="g672"
           transform="translate(146.9292,379.4561)"><path
             d="m 0,0 c 0,-3.243 -2.627,-5.871 -5.871,-5.871 -3.242,0 -5.871,2.628 -5.871,5.871 0,3.242 2.629,5.871 5.871,5.871 C -2.627,5.871 0,3.242 0,0 Z"
             style="fill:none;stroke:#08334d;stroke-width:2.64400005;stroke-linecap:round;stroke-linejoin:round;stroke-miterlimit:10;stroke-dasharray:none;stroke-opacity:1"
             id="path674"
             inkscape:connector-curvature="0" /></g><g
           id="g676"
           transform="translate(118.4546,268.8311)"><path
             d="m 0,0 c -2.692,0 -4.88,2.188 -4.88,4.879 0,2.69 2.188,4.88 4.88,4.88 2.69,0 4.879,-2.19 4.879,-4.88 C 4.879,2.188 2.69,0 0,0 m 0,11.741 c -3.785,0 -6.863,-3.079 -6.863,-6.862 0,-3.785 3.078,-6.861 6.863,-6.861 3.784,0 6.861,3.076 6.861,6.861 0,3.783 -3.077,6.862 -6.861,6.862"
             style="fill:#3aa6ab;fill-opacity:1;fill-rule:nonzero;stroke:none"
             id="path678"
             inkscape:connector-curvature="0" /></g><g
           id="g680"
           transform="translate(111.8872,283.1924)"><path
             d="m 0,0 c 0,-3.241 -2.629,-5.87 -5.871,-5.87 -3.243,0 -5.871,2.629 -5.871,5.87 0,3.243 2.628,5.872 5.871,5.872 C -2.629,5.872 0,3.243 0,0 Z"
             style="fill:none;stroke:#ffffff;stroke-width:1.98300004;stroke-linecap:butt;stroke-linejoin:miter;stroke-miterlimit:10;stroke-dasharray:none;stroke-opacity:1"
             id="path682"
             inkscape:connector-curvature="0" /></g><g
           id="g684"
           transform="translate(154.4194,572.1152)"><path
             d="M 0,0 H -52.81 V 0.327 L -61.527,-8.39 V -86.461 H 0 Z"
             style="fill:#3aa6ab;fill-opacity:1;fill-rule:nonzero;stroke:none"
             id="path686"
             inkscape:connector-curvature="0" /></g><g
           id="g688"
           transform="translate(80.4546,495.1377)"><path
             d="m 0,0 v 78.071 l 8.717,8.389 h 52.81 V 0 Z"
             style="fill:#ffffff;fill-opacity:1;fill-rule:nonzero;stroke:none"
             id="path690"
             inkscape:connector-curvature="0" /></g><path
           d="M 133.036,535.517 H 90.829 v 3.182 h 42.207 z"
           style="fill:#e0e0e0;fill-opacity:1;fill-rule:nonzero;stroke:none"
           id="path692"
           inkscape:connector-curvature="0" /><path
           d="M 133.036,545.569 H 90.829 v 3.181 h 42.207 z"
           style="fill:#e0e0e0;fill-opacity:1;fill-rule:nonzero;stroke:none"
           id="path694"
           inkscape:connector-curvature="0" /><path
           d="M 133.036,555.622 H 90.829 v 3.182 h 42.207 z"
           style="fill:#e0e0e0;fill-opacity:1;fill-rule:nonzero;stroke:none"
           id="path696"
           inkscape:connector-curvature="0" /><path
           d="M 133.036,565.675 H 90.829 v 3.181 h 42.207 z"
           style="fill:#e0e0e0;fill-opacity:1;fill-rule:nonzero;stroke:none"
           id="path698"
           inkscape:connector-curvature="0" /><path
           d="M 133.036,525.464 H 90.829 v 3.181 h 42.207 z"
           style="fill:#e0e0e0;fill-opacity:1;fill-rule:nonzero;stroke:none"
           id="path700"
           inkscape:connector-curvature="0" /><path
           d="m 127.988,515.411 h -32.11 v 3.181 h 32.11 z"
           style="fill:#e0e0e0;fill-opacity:1;fill-rule:nonzero;stroke:none"
           id="path702"
           inkscape:connector-curvature="0" /><g
           id="g704"
           transform="translate(80.4546,573.2085)"><path
             d="M 0,0 8.717,8.717 V 0 Z"
             style="fill:#e0e0e0;fill-opacity:1;fill-rule:nonzero;stroke:none"
             id="path706"
             inkscape:connector-curvature="0" /></g><g
           id="g708"
           transform="translate(151.7637,466.9219)"><path
             d="m 0,0 -10.195,2.98 h -4.511 -32.374 v 2.013 h 6.826 c 0,-0.72 0.585,-1.305 1.304,-1.305 0.722,0 1.306,0.585 1.306,1.305 h 0.082 c 0.503,0 0.913,0.409 0.913,0.913 0,0.504 -0.41,0.912 -0.913,0.912 h -11.711 c -0.504,0 -0.913,-0.408 -0.913,-0.912 0,-0.504 0.409,-0.913 0.913,-0.913 h 0.09 V 2.98 h -4.051 c -1.646,0 -2.98,-1.334 -2.98,-2.98 0,-1.646 1.334,-2.98 2.98,-2.98 h 4.051 0.896 1.207 32.374 4.511 l 7.094,2.073 z"
             style="fill:#3aa6ab;fill-opacity:1;fill-rule:nonzero;stroke:none"
             id="path710"
             inkscape:connector-curvature="0" /></g><g
           id="g712"
           transform="translate(139.3257,476.4053)"><path
             d="m 0,0 -10.195,-2.981 h -43.039 c -1.646,0 -2.98,1.335 -2.98,2.981 0,1.646 1.334,2.98 2.98,2.98 h 43.039 z"
             style="fill:#e0e0e0;fill-opacity:1;fill-rule:nonzero;stroke:none"
             id="path714"
             inkscape:connector-curvature="0" /></g><g
           id="g716"
           transform="translate(124.6201,473.4243)"><path
             d="M 0,0 H 4.511 L 14.706,2.981 4.511,5.961 H 0 Z"
             style="fill:#218085;fill-opacity:1;fill-rule:nonzero;stroke:none"
             id="path718"
             inkscape:connector-curvature="0" /></g><g
           id="g720"
           transform="translate(91.0386,479.3853)"><path
             d="m 0,0 h -4.947 c -1.646,0 -2.98,-1.334 -2.98,-2.98 0,-1.646 1.334,-2.981 2.98,-2.981 H 0 Z"
             style="fill:#08334d;fill-opacity:1;fill-rule:nonzero;stroke:none"
             id="path722"
             inkscape:connector-curvature="0" /></g><g
           id="g724"
           transform="translate(129.1309,479.3853)"><path
             d="M 0,0 10.195,-2.98 0,-5.961 Z"
             style="fill:#e0e0e0;fill-opacity:1;fill-rule:nonzero;stroke:none"
             id="path726"
             inkscape:connector-curvature="0" /></g><g
           id="g728"
           transform="translate(136.2251,475.498)"><path
             d="M 0,0 3.101,0.907 0.018,1.809 C 0.156,1.214 0.149,0.592 0,0"
             style="fill:#08334d;fill-opacity:1;fill-rule:nonzero;stroke:none"
             id="path730"
             inkscape:connector-curvature="0" /></g><path
           d="m 92.245,473.424 h -2.102 v 5.961 h 2.102 z"
           style="fill:#218085;fill-opacity:1;fill-rule:nonzero;stroke:none"
           id="path732"
           inkscape:connector-curvature="0" /><path
           d="m 92.245,482.478 h -2.102 v -3.092 h 2.102 z"
           style="fill:#095054;fill-opacity:1;fill-rule:nonzero;stroke:none"
           id="path734"
           inkscape:connector-curvature="0" /><g
           id="g736"
           transform="translate(100.3765,482.7036)"><path
             d="m 0,0 c 0.722,0 1.305,-0.584 1.305,-1.305 0,-0.72 -0.583,-1.306 -1.305,-1.306 -0.72,0 -1.305,0.586 -1.305,1.306 C -1.305,-0.584 -0.72,0 0,0"
             style="fill:#095054;fill-opacity:1;fill-rule:nonzero;stroke:none"
             id="path738"
             inkscape:connector-curvature="0" /></g><g
           id="g740"
           transform="translate(101.7632,483.2236)"><path
             d="M 0,0 C 0.504,0 0.913,-0.409 0.913,-0.913 0.913,-1.416 0.504,-1.825 0,-1.825 h -11.711 c -0.504,0 -0.912,0.409 -0.912,0.912 0,0.504 0.408,0.913 0.912,0.913 z"
             style="fill:#218085;fill-opacity:1;fill-rule:nonzero;stroke:none"
             id="path742"
             inkscape:connector-curvature="0" /></g><g
           id="g744"
           transform="translate(104.6846,368.8828)"><path
             d="m 0,0 c -20.361,0 -36.866,-16.506 -36.866,-36.866 0,-20.362 16.505,-36.867 36.866,-36.867 20.36,0 36.866,16.505 36.866,36.867 C 36.866,-16.506 20.36,0 0,0"
             style="fill:#3aa6ab;fill-opacity:1;fill-rule:nonzero;stroke:none"
             id="path746"
             inkscape:connector-curvature="0" /></g><g
           id="g748"
           transform="translate(129.1128,341.5)"><path
             d="m 0,0 c 0,-20.361 -16.506,-36.866 -36.867,-36.866 -20.361,0 -36.865,16.505 -36.865,36.866 0,20.36 16.504,36.866 36.865,36.866 C -16.506,36.866 0,20.36 0,0"
             style="fill:#ff6f4f;fill-opacity:1;fill-rule:nonzero;stroke:none"
             id="path750"
             inkscape:connector-curvature="0" /></g><path
           d="m 71.92,325.31 h 9.251 v 20.252 H 71.92 Z"
           style="fill:#ffffff;fill-opacity:1;fill-rule:nonzero;stroke:none"
           id="path752"
           inkscape:connector-curvature="0" /><path
           d="m 86.655,325.31 h 9.252 v 25.295 h -9.252 z"
           style="fill:#ffffff;fill-opacity:1;fill-rule:nonzero;stroke:none"
           id="path754"
           inkscape:connector-curvature="0" /><path
           d="m 101.391,325.31 h 9.25 v 32.38 h -9.25 z"
           style="fill:#ffffff;fill-opacity:1;fill-rule:nonzero;stroke:none"
           id="path756"
           inkscape:connector-curvature="0" /></g></g></g></svg>