<?xml version="1.0" encoding="UTF-8" standalone="no"?>
<!-- Created with Inkscape (http://www.inkscape.org/) -->

<svg
   xmlns:dc="http://purl.org/dc/elements/1.1/"
   xmlns:cc="http://creativecommons.org/ns#"
   xmlns:rdf="http://www.w3.org/1999/02/22-rdf-syntax-ns#"
   xmlns:svg="http://www.w3.org/2000/svg"
   xmlns="http://www.w3.org/2000/svg"
   xmlns:sodipodi="http://sodipodi.sourceforge.net/DTD/sodipodi-0.dtd"
   xmlns:inkscape="http://www.inkscape.org/namespaces/inkscape"
   version="1.1"
   id="svg2"
   xml:space="preserve"
   width="1066.6667"
   height="1066.6667"
   viewBox="0 0 1066.6667 1066.6667"
   sodipodi:docname="socialMediaYellow.svg"
   inkscape:version="0.92.3 (unknown)"><metadata
     id="metadata8"><rdf:RDF><cc:Work
         rdf:about=""><dc:format>image/svg+xml</dc:format><dc:type
           rdf:resource="http://purl.org/dc/dcmitype/StillImage" /><dc:title></dc:title></cc:Work></rdf:RDF></metadata><defs
     id="defs6"><clipPath
       clipPathUnits="userSpaceOnUse"
       id="clipPath20"><path
         d="M 0,800 H 800 V 0 H 0 Z"
         id="path18"
         inkscape:connector-curvature="0" /></clipPath><clipPath
       clipPathUnits="userSpaceOnUse"
       id="clipPath116"><path
         d="M 0,0 H 800 V 800 H 0 Z"
         id="path114"
         inkscape:connector-curvature="0" /></clipPath><clipPath
       clipPathUnits="userSpaceOnUse"
       id="clipPath124"><path
         d="M 200.72,648.983 H 792.392 V -118.169 H 200.72 Z"
         id="path122"
         inkscape:connector-curvature="0" /></clipPath><clipPath
       clipPathUnits="userSpaceOnUse"
       id="clipPath140"><path
         d="m 552.423,493.294 h 174.782 v -135.9 H 552.423 Z"
         id="path138"
         inkscape:connector-curvature="0" /></clipPath><clipPath
       clipPathUnits="userSpaceOnUse"
       id="clipPath156"><path
         d="M 551.121,743.227 H 697.075 V 598.006 H 551.121 Z"
         id="path154"
         inkscape:connector-curvature="0" /></clipPath><clipPath
       clipPathUnits="userSpaceOnUse"
       id="clipPath172"><path
         d="M 93.8309,747.727 H 237.83 V 596.511 H 93.8309 Z"
         id="path170"
         inkscape:connector-curvature="0" /></clipPath><clipPath
       clipPathUnits="userSpaceOnUse"
       id="clipPath188"><path
         d="m 71.332,159.753 h 164.2 V 24.8066 h -164.2 z"
         id="path186"
         inkscape:connector-curvature="0" /></clipPath><clipPath
       clipPathUnits="userSpaceOnUse"
       id="clipPath204"><path
         d="M 24.4881,457.939 H 210.079 V 322.988 H 24.4881 Z"
         id="path202"
         inkscape:connector-curvature="0" /></clipPath><clipPath
       clipPathUnits="userSpaceOnUse"
       id="clipPath464"><path
         d="M 0,0 H 800 V 800 H 0 Z"
         id="path462"
         inkscape:connector-curvature="0" /></clipPath><clipPath
       clipPathUnits="userSpaceOnUse"
       id="clipPath644"><path
         d="M 0,800 H 800 V 0 H 0 Z"
         id="path642"
         inkscape:connector-curvature="0" /></clipPath></defs><sodipodi:namedview
     pagecolor="#ffffff"
     bordercolor="#666666"
     borderopacity="1"
     objecttolerance="10"
     gridtolerance="10"
     guidetolerance="10"
     inkscape:pageopacity="0"
     inkscape:pageshadow="2"
     inkscape:window-width="1366"
     inkscape:window-height="705"
     id="namedview4"
     showgrid="false"
     inkscape:zoom="0.31289473"
     inkscape:cx="68.411005"
     inkscape:cy="363.35286"
     inkscape:window-x="0"
     inkscape:window-y="24"
     inkscape:window-maximized="1"
     inkscape:current-layer="g10" /><g
     id="g10"
     inkscape:groupmode="layer"
     inkscape:label="102230-OLVA58-530"
     transform="matrix(1.3333333,0,0,-1.3333333,0,1066.6667)"><path
       d="M 0,0 H 800 V 800 H 0 Z"
       style="fill:#fff365;fill-opacity:1;fill-rule:nonzero;stroke:none"
       id="path12"
       inkscape:connector-curvature="0" /><g
       id="g110"><g
         id="g112"
         clip-path="url(#clipPath116)"><g
           id="g118"><g
             id="g120" /><g
             id="g132"><g
               clip-path="url(#clipPath124)"
               id="g130"><g
                 transform="translate(791.4893,-53.8711)"
                 id="g128"><path
                   d="m 0,0 c -3.401,3.401 -25.098,34.495 -46.079,64.565 -15.882,22.761 -30.883,44.26 -38.218,54.164 -13.837,18.677 -50.591,68.293 -51.474,104.49 -0.608,24.926 -13.717,66.465 -23.289,96.795 -4.118,13.05 -7.674,24.319 -9.463,31.728 -6.151,25.483 -16.152,36.885 -36.899,42.072 -6.596,1.649 -18.193,6.416 -31.622,11.936 -6.171,2.537 -12.667,5.206 -19.194,7.787 -0.187,23.742 -0.391,47.882 -0.59,71.435 -0.77,91.007 -1.435,169.605 -0.689,178.189 1.793,20.61 -13.256,35.588 -24.809,38.476 -3.277,0.82 -20.994,1.217 -54.161,1.217 -33.781,0 -78.019,-0.414 -113.565,-0.747 -25.243,-0.236 -47.044,-0.44 -58.817,-0.44 -12.498,0 -25.919,-12.135 -27.727,-39.244 -0.832,-12.495 -1.269,-95.394 -1.162,-188.135 -3.746,1.069 -7.262,1.842 -10.534,2.22 -2.777,0.32 -5.52,0.483 -8.155,0.483 -12.084,0 -21.62,-3.273 -27.58,-9.467 -4.765,-4.952 -7.025,-11.547 -6.714,-19.604 0.717,-18.662 27.847,-33.407 53.155,-40.769 0.002,-0.448 0.003,-0.895 0.005,-1.343 -2.568,0.47 -5.064,0.706 -7.359,0.706 -2.283,0 -4.437,-0.215 -6.403,-0.637 -10.396,-2.231 -17.156,-10.224 -18.545,-21.927 -1.514,-12.756 3.758,-26.538 12.096,-32.952 -8.597,-2.835 -14.207,-10.346 -15.512,-20.97 -1.785,-14.525 4.849,-30.401 14.787,-35.389 0.488,-0.245 0.98,-0.475 1.475,-0.69 -0.044,-0.011 -0.092,-0.018 -0.137,-0.029 -8.87,-2.191 -14.572,-9.582 -16.055,-20.81 -1.953,-14.786 4.037,-31.004 13.352,-36.151 3.636,-2.01 7.494,-3.028 11.467,-3.028 4.504,0 8.747,1.256 12.511,3.525 0.544,-25.116 1.215,-41.442 2.025,-44.037 4.537,-14.517 27.599,-17.521 44.552,-18.518 5.638,-0.332 30.11,-0.958 59.887,-1.432 18.412,-18.749 49.221,-46.755 82.245,-57.152 38.588,-12.147 63.617,-26.5 74.39,-42.658 8.951,-13.426 42.206,-91.718 43.771,-99.537 1.81,-9.053 15.801,-31.549 24.519,-37.652 0.747,-0.524 2.04,-0.768 4.067,-0.768 h 0.001 c 12.901,0 53.552,9.963 88.118,19.835 9.708,2.774 51.711,14.966 67.704,22.794 l 2.038,-3.167 c -0.036,-0.03 -0.08,-0.062 -0.114,-0.093 -0.416,-0.364 -0.458,-0.996 -0.095,-1.411 0.198,-0.226 0.475,-0.342 0.753,-0.342 0.234,0 0.469,0.081 0.658,0.247 2.425,2.123 9.523,5.279 17.036,8.62 14.731,6.55 24.444,11.151 25.203,15.242 C 1.029,-1.624 0.734,-0.734 0,0"
                   style="fill:#eaebec;fill-opacity:1;fill-rule:nonzero;stroke:none"
                   id="path126"
                   inkscape:connector-curvature="0" /></g></g></g></g><g
           id="g134"><g
             id="g136" /><g
             id="g148"><g
               clip-path="url(#clipPath140)"
               id="g146"><g
                 transform="translate(628.213,490.6064)"
                 id="g144"><path
                   d="m 0,0 c -11.922,-3.294 -21.812,-10.069 -29.395,-20.138 -12.631,-16.774 -15.958,-40.495 -8.767,-62.125 -5.088,-1.828 -10.961,-2.717 -17.918,-2.718 -6.18,0 -12.573,0.696 -18.593,1.409 -0.402,0.054 -0.804,-0.157 -0.998,-0.519 -0.194,-0.362 -0.148,-0.805 0.116,-1.119 11.248,-13.339 29.042,-21.302 47.599,-21.302 1.161,0 2.332,0.033 3.488,0.096 14.25,-16.788 35.002,-26.796 55.614,-26.797 h 0.003 c 0.543,0 1.084,0.007 1.628,0.021 22.73,0.578 43.667,13.164 56.01,33.667 12.201,20.269 13.542,44.317 3.586,64.329 C 81.276,-12.892 51.85,2.688 20.813,2.688 13.455,2.688 6.452,1.783 0,0"
                   style="fill:#eaebec;fill-opacity:1;fill-rule:nonzero;stroke:none"
                   id="path142"
                   inkscape:connector-curvature="0" /></g></g></g></g><g
           id="g150"><g
             id="g152" /><g
             id="g164"><g
               clip-path="url(#clipPath156)"
               id="g162"><g
                 transform="translate(551.9365,599.0039)"
                 id="g160"><path
                   d="m 0,0 c 3.53,-0.662 7.179,-0.998 10.845,-0.998 14.691,0 29.847,5.469 41.676,15.021 8.287,-3.151 16.777,-4.749 25.245,-4.749 h 10e-4 c 2.773,0 5.557,0.178 8.274,0.527 22.551,2.898 42.092,17.558 52.274,39.216 10.065,21.41 8.94,45.47 -3.01,64.359 -11.855,18.738 -37.621,30.847 -65.644,30.847 -10.675,0 -20.994,-1.825 -29.843,-5.279 C 28.294,134.448 19.148,126.698 12.636,115.907 1.209,96.974 0.935,71.001 11.937,49.738 15.535,42.783 20.329,36.394 26.192,30.74 24.849,27.279 22.962,23.932 20.577,20.781 14.848,13.216 7.089,7.403 -0.415,1.783 -0.732,1.545 -0.879,1.142 -0.789,0.756 -0.699,0.369 -0.39,0.072 0,0"
                   style="fill:#eaebec;fill-opacity:1;fill-rule:nonzero;stroke:none"
                   id="path158"
                   inkscape:connector-curvature="0" /></g></g></g></g><g
           id="g166"><g
             id="g168" /><g
             id="g180"><g
               clip-path="url(#clipPath172)"
               id="g178"><g
                 transform="translate(167.7031,612.7764)"
                 id="g176"><path
                   d="M 0,0 C 2.781,0 5.573,0.178 8.298,0.527 13.679,1.22 18.952,2.59 23.985,4.602 27.651,0.393 32.4,-3.343 37.764,-6.232 c 9.274,-4.997 19.173,-7.395 31.149,-10.01 0.071,-0.016 0.144,-0.024 0.214,-0.024 0.328,0 0.642,0.162 0.83,0.442 0.229,0.341 0.227,0.786 -0.005,1.124 -8.91,12.994 -14.126,28.353 -15.094,44.442 15.669,23.023 16.74,52.174 2.704,74.36 -11.855,18.74 -37.621,30.848 -65.644,30.848 -10.675,0 -20.994,-1.825 -29.843,-5.278 C -49.45,125.175 -58.596,117.424 -65.107,106.634 -76.534,87.7 -76.809,61.728 -65.808,40.466 -53.284,16.262 -26.838,0 0,0"
                   style="fill:#eaebec;fill-opacity:1;fill-rule:nonzero;stroke:none"
                   id="path174"
                   inkscape:connector-curvature="0" /></g></g></g></g><g
           id="g182"><g
             id="g184" /><g
             id="g196"><g
               clip-path="url(#clipPath188)"
               id="g194"><g
                 transform="translate(233.7403,156.3105)"
                 id="g192"><path
                   d="m 0,0 c -0.379,0.12 -0.792,-0.001 -1.052,-0.302 -8.027,-9.3 -19.426,-16.037 -34.831,-20.585 -13.181,15.023 -36.386,24.329 -60.755,24.329 -10.666,0 -20.979,-1.824 -29.823,-5.275 -11.525,-4.497 -20.67,-12.248 -27.183,-23.037 -11.426,-18.934 -11.702,-44.906 -0.699,-66.169 12.523,-24.203 38.968,-40.465 65.806,-40.465 2.781,0 5.574,0.178 8.299,0.527 35.095,4.512 61.445,37.597 58.937,73.878 3.587,3.487 7.221,7.266 10.807,11.239 3.058,3.387 6.227,7.055 8.409,11.354 5.394,10.623 3.946,23.399 2.783,33.663 C 0.654,-0.448 0.38,-0.117 0,0"
                   style="fill:#eaebec;fill-opacity:1;fill-rule:nonzero;stroke:none"
                   id="path190"
                   inkscape:connector-curvature="0" /></g></g></g></g><g
           id="g198"><g
             id="g200" /><g
             id="g212"><g
               clip-path="url(#clipPath204)"
               id="g210"><g
                 transform="translate(106.6572,323.5156)"
                 id="g208"><path
                   d="m 0,0 c 15.292,1.966 29.06,9.149 39.852,20.785 l 2.876,-0.558 c 6.092,-1.186 12.425,-2.41 18.774,-2.306 15.724,0.259 29.792,8.39 41.48,16.309 0.367,0.249 0.527,0.709 0.393,1.13 -0.133,0.422 -0.565,0.7 -0.97,0.699 l -0.586,-0.005 c -11.594,0 -23.966,5.975 -34.836,16.826 -2.62,2.615 -5.253,5.582 -8.264,9.315 1.561,14.831 -1.704,29.131 -9.454,41.38 -11.855,18.74 -37.621,30.848 -65.645,30.848 -10.675,0 -20.994,-1.825 -29.843,-5.278 -11.524,-4.498 -20.67,-12.248 -27.181,-23.038 C -84.831,87.173 -85.106,61.2 -74.104,39.939 -61.581,15.734 -35.135,-0.527 -8.297,-0.527 -5.516,-0.527 -2.725,-0.35 0,0"
                   style="fill:#eaebec;fill-opacity:1;fill-rule:nonzero;stroke:none"
                   id="path206"
                   inkscape:connector-curvature="0" /></g></g></g></g><g
           id="g214"
           transform="translate(210.2461,408.625)"><path
             d="m 0,0 c 0.651,-16.917 26.247,-31.359 51.149,-38.748 -0.082,21.004 -0.135,42.212 -0.161,62.954 -3.853,1.123 -7.451,1.937 -10.765,2.319 -2.703,0.312 -5.369,0.47 -7.927,0.47 C 20.769,26.995 11.73,23.934 6.157,18.142 1.783,13.597 -0.288,7.493 0,0"
             style="fill:#ffddaa;fill-opacity:1;fill-rule:nonzero;stroke:none"
             id="path216"
             inkscape:connector-curvature="0" /></g><g
           id="g218"
           transform="translate(465.6367,627.3311)"><path
             d="m 0,0 c -6.446,0 -11.691,5.245 -11.691,11.691 0,6.447 5.245,11.692 11.691,11.692 6.446,0 11.691,-5.245 11.691,-11.692 C 11.691,5.245 6.446,0 0,0 m -31.183,1.782 h -67.712 c -2.083,0 -3.772,0.855 -4.882,2.472 -0.929,1.353 -1.42,3.203 -1.42,5.348 0,5.676 3.32,12 8.084,12 h 66.821 c 4.313,0 6.568,-4.986 6.568,-9.911 0,-4.931 -2.306,-9.909 -7.459,-9.909 M 74.524,-181.747 c -0.77,91.059 -1.435,169.7 -0.68,178.38 1.696,19.5 -12.444,33.647 -23.302,36.362 -3.074,0.768 -21.134,1.157 -53.677,1.157 -33.77,0 -78.004,-0.414 -113.546,-0.747 -25.248,-0.236 -47.052,-0.44 -58.836,-0.44 -11.192,0 -24.018,-11.697 -25.73,-37.377 -1.036,-15.544 -1.477,-140.1 -1.022,-256.886 6.078,-1.387 12.386,-4.116 17.367,-8.344 -0.122,15.757 -0.228,31.872 -0.31,47.951 -0.3,58.856 -0.234,106.366 0.194,141.212 0.796,64.88 2.62,65.791 3.708,66.336 4.549,2.275 82.909,3.122 131.233,3.122 28.935,0 55.112,-0.255 73.712,-0.719 33.495,-0.835 33.495,-1.921 33.495,-3.297 0,-0.399 0.043,-4.066 0.117,-10.413 0.377,-32.331 1.507,-129.092 2.013,-220.999 5.176,-1.819 10.51,-3.834 15.847,-5.927 -0.187,23.822 -0.389,47.761 -0.583,70.629"
             style="fill:#ac9180;fill-opacity:1;fill-rule:nonzero;stroke:none"
             id="path220"
             inkscape:connector-curvature="0" /></g><g
           id="g222"
           transform="translate(435.4541,156.4561)"><path
             d="m 0,0 c 0,-2.206 -1.794,-4 -4,-4 h -65.276 c -2.206,0 -4,1.794 -4,4 v 15.383 c 0,2.206 1.794,4 4,4 H -4 c 2.206,0 4,-1.794 4,-4 z m 96.304,139.274 c -2.336,1.099 -4.531,2.129 -6.614,3.103 C 89.66,36.758 87.826,35.84 86.76,35.308 83.723,33.789 27.673,33.238 -9.272,33.238 h -0.017 c -36.794,0 -70.781,0.44 -95.701,1.237 -47.115,1.508 -47.391,3.709 -47.572,5.167 -0.247,1.974 -0.797,33.231 -1.331,77.684 -3.265,-8.87 -9.607,-15.767 -17.411,-19.176 0.015,-1.348 0.03,-2.685 0.046,-4.015 3.149,-1.796 5.979,-4.054 8.237,-6.667 4.978,-5.76 7.009,-12.895 5.875,-20.632 -1.533,-10.464 -6.485,-18.973 -13.316,-23.944 0.54,-25.498 1.211,-42.094 2.026,-44.704 4.651,-14.877 33.335,-16.563 42.761,-17.118 9.802,-0.577 76.664,-2.047 129.241,-2.047 H 3.58 c 26.913,0 44.823,0.388 53.24,1.154 30.58,2.779 45.033,19.083 48.119,32.198 1.145,4.863 1.249,53.99 0.94,117.299 -2.843,4.427 -6.054,7.943 -9.575,9.6"
             style="fill:#978072;fill-opacity:1;fill-rule:nonzero;stroke:none"
             id="path224"
             inkscape:connector-curvature="0" /></g><g
           id="g226"
           transform="translate(267.8899,308.3127)"><path
             d="m 0,0 c 3.788,-1.94 7.316,-4.519 10.11,-7.8 1.336,-1.568 2.436,-3.235 3.312,-4.979 C 13.346,-5.697 13.27,1.617 13.197,9.11 9.578,4.978 5.054,1.829 0,0"
             style="fill:#978072;fill-opacity:1;fill-rule:nonzero;stroke:none"
             id="path228"
             inkscape:connector-curvature="0" /></g><g
           id="g230"
           transform="translate(484.4776,387.9971)"><path
             d="m 0,0 c 7.438,2.706 21.998,-0.765 38.415,-6.415 -0.336,60.407 -1.005,134.319 -2.009,220.275 -0.061,5.227 -0.1,8.639 -0.113,9.912 -4.809,1.526 -46.544,2.541 -105.211,2.541 -67.674,0 -125.512,-1.272 -130.182,-2.848 -1.249,-2.614 -3.883,-28.886 -2.939,-208.457 0.083,-15.82 0.189,-31.671 0.311,-47.17 0.5,-0.509 0.984,-1.035 1.445,-1.58 4.606,-5.448 6.417,-12.03 5.236,-19.033 -0.971,-5.761 -3.21,-10.973 -6.367,-15.327 0.101,-10.553 0.208,-20.764 0.316,-30.496 0.488,-2.633 0.525,-5.382 0.093,-8.206 0.544,-46.978 1.12,-81.039 1.384,-84.629 4.263,-2.916 60.774,-4.87 141.308,-4.87 h 0.02 c 54.389,0 90.961,0.923 94.919,1.802 1.352,4.047 2.031,40.871 2.041,106.272 -1.525,0.712 -3.006,1.404 -4.4,2.054 -7.479,3.491 -12.965,6.051 -17.468,8.288 -4.57,-3.268 -36.449,-25.4 -61.546,-25.402 -3.621,-0.001 -7.097,0.46 -10.332,1.503 -33.572,10.83 -38.585,25.208 -38.585,32.815 0,6.956 11.967,11.282 24.636,15.862 9.015,3.258 18.337,6.629 21.197,10.56 C -39.229,-30.72 -18.161,-6.604 0,0"
             style="fill:#cee7d3;fill-opacity:1;fill-rule:nonzero;stroke:none"
             id="path232"
             inkscape:connector-curvature="0" /></g><g
           id="g234"
           transform="translate(243.6873,312.3042)"><path
             d="m 0,0 c 1.812,0.384 3.781,0.585 5.866,0.585 4.717,0 10.365,-1.085 15.721,-3.36 C 32.873,0.303 41.562,10.147 43.771,23.25 44.866,29.747 43.254,35.604 38.98,40.659 31.866,49.072 19.482,52.838 10.363,52.838 8.22,52.838 6.207,52.639 4.379,52.247 -8.639,49.453 -11.846,38.386 -12.6,32.039 -14.115,19.271 -8.553,5.461 0,0"
             style="fill:#ffddaa;fill-opacity:1;fill-rule:nonzero;stroke:none"
             id="path236"
             inkscape:connector-curvature="0" /></g><g
           id="g238"
           transform="translate(241.3692,257.0547)"><path
             d="m 0,0 c 1.614,-0.81 3.271,-1.434 4.959,-1.894 0.365,0.016 0.73,0.031 1.103,0.031 2.418,0 4.872,-0.307 7.285,-0.874 C 26.758,-1.886 37.636,8.962 40.1,24.239 41.184,30.968 39.506,36.998 35.108,42.161 28.241,50.225 16.638,53.834 8.185,53.834 6.142,53.834 4.223,53.636 2.48,53.245 -9.811,50.487 -12.932,39.602 -13.699,33.358 -15.389,19.605 -9.243,4.641 0,0"
             style="fill:#ffddaa;fill-opacity:1;fill-rule:nonzero;stroke:none"
             id="path240"
             inkscape:connector-curvature="0" /></g><g
           id="g242"
           transform="translate(240.0742,199.3379)"><path
             d="m 0,0 c 3.337,-1.844 6.869,-2.778 10.5,-2.778 12.833,0 23.424,11.111 25.756,27.021 1.047,7.147 -0.824,13.729 -5.409,19.035 -5.552,6.424 -14.773,10.576 -23.49,10.576 -1.841,0 -3.571,-0.197 -5.14,-0.584 C -8.6,50.597 -11.544,40.137 -12.337,34.14 -14.159,20.337 -8.51,4.703 0,0"
             style="fill:#ffddaa;fill-opacity:1;fill-rule:nonzero;stroke:none"
             id="path244"
             inkscape:connector-curvature="0" /></g><g
           id="g246"
           transform="translate(797.877,-41.5791)"><path
             d="m 0,0 c 0.04,0.216 0.03,0.461 -0.302,0.794 -3.526,3.525 -25.273,34.693 -46.305,64.835 -15.873,22.749 -30.867,44.236 -38.185,54.116 -23.729,32.034 -51.069,72.99 -51.866,105.633 -0.601,24.643 -13.66,66.026 -23.196,96.242 -4.13,13.085 -7.696,24.385 -9.5,31.861 -6.021,24.94 -15.294,35.564 -35.44,40.601 -6.737,1.684 -18.397,6.477 -31.898,12.026 -26.82,11.025 -63.555,26.124 -76.024,21.589 -17.707,-6.439 -38.419,-30.188 -46.897,-41.845 -3.22,-4.429 -12.407,-7.749 -22.134,-11.266 -10.93,-3.95 -23.316,-8.428 -23.316,-13.981 0,-12.019 13.558,-23.286 37.198,-30.911 25.909,-8.358 70.137,23.644 70.58,23.968 0.303,0.219 0.702,0.252 1.037,0.087 4.58,-2.29 10.193,-4.909 17.962,-8.535 3.829,-1.787 8.137,-3.797 13.018,-6.094 15.338,-7.219 24.687,-45.59 24.687,-50.852 0,-0.553 -0.447,-1 -1,-1 -0.553,0 -1,0.447 -1,1 0,3.403 -4.441,22.442 -11.941,36.036 0.294,-62.435 0.157,-109.375 -1.014,-114.352 -3.238,-13.763 -18.246,-30.855 -49.885,-33.732 -8.477,-0.771 -26.451,-1.161 -53.422,-1.161 h -0.013 c -21.44,0 -45.257,0.244 -66.618,0.573 18.42,-18.58 48.231,-45.2 79.992,-55.198 39.035,-12.289 64.421,-26.911 75.454,-43.457 8.212,-12.319 42.222,-91.03 44.067,-100.254 1.71,-8.547 15.462,-30.636 23.705,-36.407 0.136,-0.095 0.749,-0.406 2.92,-0.406 21.486,-10e-4 129.236,30.116 154.776,42.255 l 1.047,-1.626 2.038,-3.167 c 2.727,2.309 9.542,5.342 17.426,8.849 C -14.163,-9.384 -0.624,-3.362 0,0"
             style="fill:#ffddaa;fill-opacity:1;fill-rule:nonzero;stroke:none"
             id="path248"
             inkscape:connector-curvature="0" /></g><g
           id="g250"
           transform="translate(250.4688,435.1504)"><path
             d="m 0,0 c 3.314,-0.382 6.913,-1.196 10.766,-2.319 0.025,-20.742 0.078,-41.95 0.16,-62.954 -24.901,7.389 -50.498,21.83 -51.149,38.748 -0.288,7.493 1.784,13.596 6.157,18.141 5.574,5.792 14.612,8.854 26.139,8.854 C -5.369,0.47 -2.702,0.312 0,0 m 272.415,166.731 c -0.074,6.347 -0.117,10.014 -0.117,10.412 0,1.377 0,2.463 -33.495,3.297 -18.6,0.464 -44.778,0.72 -73.712,0.72 -48.324,0 -126.684,-0.848 -131.233,-3.122 -1.089,-0.545 -2.912,-1.456 -3.709,-66.337 -0.427,-34.845 -0.493,-82.355 -0.193,-141.211 0.082,-16.079 0.188,-32.194 0.31,-47.951 -4.982,4.228 -11.289,6.956 -17.367,8.343 -0.455,116.787 -0.014,241.343 1.022,256.886 1.712,25.681 14.538,37.378 25.73,37.378 11.783,0 33.588,0.204 58.836,0.44 35.542,0.333 79.776,0.747 113.546,0.747 32.543,0 50.603,-0.39 53.677,-1.157 10.858,-2.715 24.998,-16.862 23.302,-36.362 -0.755,-8.68 -0.09,-87.321 0.68,-178.38 0.194,-22.869 0.396,-46.807 0.583,-70.629 -5.337,2.093 -10.671,4.107 -15.847,5.927 -0.506,91.906 -1.636,188.668 -2.013,220.999 M 30.618,-117.728 c 0.073,-7.493 0.149,-14.807 0.225,-21.889 -0.876,1.744 -1.976,3.411 -3.312,4.979 -2.794,3.281 -6.322,5.86 -10.11,7.8 5.054,1.829 9.578,4.978 13.197,9.11 M 11.75,-181.309 c 0.008,-0.745 0.017,-1.483 0.026,-2.223 -1.007,0.493 -2.037,0.942 -3.088,1.341 1.039,0.237 2.061,0.53 3.062,0.882 m -31.132,90.502 c 0.754,6.347 3.961,17.413 16.98,20.207 1.828,0.393 3.84,0.592 5.983,0.592 9.119,0 21.504,-3.766 28.617,-12.18 4.275,-5.054 5.887,-10.912 4.791,-17.409 -2.209,-13.102 -10.898,-22.946 -22.184,-26.025 -5.355,2.276 -11.004,3.36 -15.72,3.36 -2.086,0 -4.054,-0.2 -5.867,-0.584 -8.553,5.461 -14.115,19.271 -12.6,32.039 m -3.417,-53.93 c 0.768,6.243 3.889,17.129 16.179,19.886 1.743,0.391 3.662,0.589 5.705,0.589 8.453,0 20.057,-3.609 26.924,-11.673 4.397,-5.163 6.076,-11.193 4.991,-17.921 -2.464,-15.277 -13.341,-26.125 -26.753,-26.976 -2.413,0.566 -4.866,0.873 -7.284,0.873 -0.373,0 -0.739,-0.015 -1.104,-0.03 -1.688,0.459 -3.345,1.084 -4.959,1.893 -9.243,4.641 -15.388,19.605 -13.699,33.359 m 0.067,-56.936 c 0.793,5.997 3.737,16.457 14.554,19.13 1.57,0.388 3.299,0.584 5.141,0.584 8.717,0 17.937,-4.151 23.489,-10.575 4.585,-5.307 6.456,-11.889 5.409,-19.035 -2.332,-15.91 -12.923,-27.022 -25.756,-27.022 -3.63,0 -7.163,0.935 -10.5,2.779 -8.509,4.703 -14.159,20.336 -12.337,34.139 m 312.657,-64.646 c -3.086,-13.116 -17.539,-29.419 -48.119,-32.199 -8.417,-0.765 -26.327,-1.153 -53.241,-1.153 h -0.013 c -52.577,0 -119.44,1.47 -129.241,2.047 -9.426,0.555 -38.111,2.241 -42.761,17.118 -0.815,2.61 -1.486,19.206 -2.026,44.704 6.831,4.971 11.783,13.479 13.316,23.944 1.134,7.737 -0.898,14.872 -5.875,20.631 -2.259,2.614 -5.089,4.871 -8.238,6.667 -0.015,1.33 -0.031,2.668 -0.046,4.016 7.804,3.409 14.146,10.306 17.411,19.175 0.535,-44.452 1.084,-75.71 1.331,-77.684 0.182,-1.457 0.457,-3.658 47.572,-5.166 24.92,-0.798 58.907,-1.237 95.701,-1.237 h 0.017 c 36.945,0 92.995,0.551 96.032,2.069 1.066,0.533 2.901,1.451 2.93,107.07 2.083,-0.975 4.279,-2.004 6.614,-3.103 3.521,-1.657 6.732,-5.174 9.576,-9.6 0.308,-63.31 0.205,-112.436 -0.94,-117.299 M 164.98,-100.263 c -12.668,-4.579 -24.635,-8.905 -24.635,-15.861 0,-7.607 5.012,-21.985 38.585,-32.815 3.235,-1.043 6.711,-1.504 10.332,-1.503 25.096,0.002 56.976,22.133 61.546,25.402 4.503,-2.237 9.989,-4.797 17.468,-8.288 1.394,-0.65 2.875,-1.342 4.4,-2.054 -0.01,-65.401 -0.689,-102.225 -2.041,-106.272 -3.958,-0.879 -40.53,-1.802 -94.919,-1.802 h -0.02 c -80.534,0 -137.046,1.954 -141.308,4.87 -0.264,3.589 -0.84,37.651 -1.384,84.629 0.432,2.824 0.394,5.573 -0.093,8.206 -0.108,9.732 -0.215,19.942 -0.316,30.495 3.157,4.355 5.395,9.567 6.367,15.327 1.181,7.004 -0.63,13.585 -5.236,19.034 -0.462,0.545 -0.945,1.071 -1.445,1.58 -0.122,15.499 -0.228,31.35 -0.311,47.17 -0.944,179.571 1.69,205.843 2.939,208.457 4.67,1.576 62.508,2.848 130.182,2.848 58.667,0 100.402,-1.015 105.211,-2.541 0.012,-1.273 0.052,-4.685 0.113,-9.912 1.004,-85.956 1.673,-159.868 2.008,-220.276 -16.416,5.651 -30.977,9.121 -38.414,6.416 -18.161,-6.605 -39.229,-30.72 -47.831,-42.549 -2.86,-3.932 -12.182,-7.302 -21.198,-10.561 m 383.541,-374.258 c -3.402,3.401 -25.098,34.495 -46.08,64.565 -15.881,22.761 -30.882,44.26 -38.217,54.163 -13.837,18.678 -50.591,68.294 -51.474,104.49 -0.608,24.927 -13.718,66.465 -23.289,96.795 -4.118,13.05 -7.675,24.32 -9.464,31.729 -6.15,25.482 -16.151,36.884 -36.898,42.071 -6.596,1.649 -18.194,6.417 -31.622,11.937 -6.171,2.536 -12.668,5.206 -19.194,7.787 -0.187,23.741 -0.391,47.882 -0.591,71.434 -0.769,91.008 -1.434,169.606 -0.688,178.19 1.793,20.61 -13.257,35.588 -24.81,38.475 -3.277,0.82 -20.994,1.218 -54.161,1.218 -33.78,0 -78.018,-0.414 -113.564,-0.747 -25.243,-0.236 -47.044,-0.44 -58.818,-0.44 -12.498,0 -25.919,-12.135 -27.726,-39.245 C 11.092,175.407 10.656,92.508 10.763,-0.234 7.017,0.835 3.501,1.609 0.229,1.986 -2.549,2.307 -5.292,2.47 -7.927,2.47 c -12.084,0 -21.62,-3.274 -27.58,-9.467 -4.764,-4.952 -7.024,-11.548 -6.714,-19.605 0.718,-18.661 27.848,-33.407 53.155,-40.768 0.002,-0.448 0.004,-0.896 0.005,-1.343 -2.568,0.47 -5.063,0.705 -7.358,0.705 -2.283,0 -4.438,-0.215 -6.403,-0.637 -10.397,-2.231 -17.157,-10.223 -18.545,-21.926 -1.514,-12.756 3.757,-26.538 12.096,-32.952 -8.598,-2.836 -14.207,-10.347 -15.512,-20.97 -1.785,-14.526 4.848,-30.402 14.787,-35.39 0.488,-0.245 0.98,-0.474 1.475,-0.689 -0.045,-0.011 -0.093,-0.019 -0.137,-0.03 -8.87,-2.191 -14.572,-9.582 -16.056,-20.809 -1.953,-14.786 4.037,-31.004 13.353,-36.151 3.635,-2.01 7.494,-3.029 11.466,-3.029 4.505,0 8.747,1.257 12.512,3.526 0.543,-25.116 1.214,-41.443 2.025,-44.037 4.537,-14.517 27.598,-17.521 44.551,-18.518 5.638,-0.332 30.111,-0.959 59.887,-1.433 18.412,-18.748 49.221,-46.754 82.245,-57.151 38.589,-12.148 63.617,-26.5 74.391,-42.658 8.95,-13.426 42.206,-91.718 43.77,-99.537 1.811,-9.053 15.801,-31.549 24.52,-37.653 0.747,-0.523 2.04,-0.767 4.066,-0.767 h 10e-4 c 12.902,0 53.553,9.962 88.118,19.835 9.708,2.773 51.712,14.965 67.704,22.793 l -1.047,1.627 c -25.54,-12.139 -133.29,-42.256 -154.776,-42.255 -2.171,0 -2.784,0.31 -2.92,0.406 -8.243,5.77 -21.995,27.859 -23.705,36.406 -1.844,9.225 -35.855,87.936 -44.067,100.254 -11.033,16.547 -36.419,31.168 -75.454,43.457 -31.761,9.999 -61.571,36.619 -79.992,55.199 21.361,-0.329 45.178,-0.574 66.618,-0.574 h 0.013 c 26.971,0 44.945,0.391 53.422,1.161 31.639,2.877 46.647,19.97 49.885,33.733 1.171,4.977 1.308,51.916 1.014,114.351 7.5,-13.594 11.941,-32.633 11.941,-36.036 0,-0.553 0.447,-1 1,-1 0.553,0 1,0.447 1,1 0,5.263 -9.348,43.634 -24.686,50.853 -4.882,2.297 -9.19,4.306 -13.019,6.093 -7.768,3.626 -13.382,6.246 -17.962,8.536 -0.335,0.165 -0.734,0.131 -1.037,-0.087 -0.443,-0.325 -44.671,-32.327 -70.58,-23.968 -23.64,7.625 -37.198,18.891 -37.198,30.911 0,5.553 12.386,10.03 23.316,13.98 9.727,3.517 18.914,6.837 22.134,11.266 8.478,11.657 29.19,35.406 46.897,41.846 12.469,4.535 49.204,-10.565 76.024,-21.589 13.501,-5.55 25.161,-10.343 31.898,-12.026 20.146,-5.038 29.419,-15.662 35.44,-40.601 1.804,-7.477 5.37,-18.776 9.5,-31.861 9.536,-30.216 22.595,-71.599 23.196,-96.243 0.797,-32.642 28.137,-73.598 51.866,-105.632 7.319,-9.88 22.312,-31.368 38.185,-54.117 21.032,-30.141 42.779,-61.309 46.305,-64.835 0.332,-0.333 0.342,-0.578 0.302,-0.793 -0.624,-3.363 -14.163,-9.384 -24.049,-13.78 -7.883,-3.506 -14.699,-6.539 -17.425,-8.848 -0.037,-0.031 -0.08,-0.063 -0.115,-0.093 -0.416,-0.364 -0.458,-0.996 -0.094,-1.411 0.198,-0.227 0.474,-0.342 0.753,-0.342 0.234,0 0.468,0.081 0.658,0.247 2.424,2.122 9.522,5.278 17.036,8.619 14.73,6.551 24.443,11.151 25.202,15.242 0.176,0.949 -0.119,1.839 -0.853,2.574"
             style="fill:#7b4c3e;fill-opacity:1;fill-rule:nonzero;stroke:none"
             id="path252"
             inkscape:connector-curvature="0" /></g><g
           id="g254"
           transform="translate(435.3447,646.9326)"><path
             d="m 0,0 h -66.821 c -3.427,0 -6.084,-5.375 -6.084,-9.999 0,-1.74 0.369,-3.198 1.068,-4.216 0.731,-1.064 1.819,-1.604 3.234,-1.604 h 67.712 c 3.772,0 5.459,3.972 5.459,7.909 C 4.568,-4.022 2.859,0 0,0"
             style="fill:#8c625b;fill-opacity:1;fill-rule:nonzero;stroke:none"
             id="path256"
             inkscape:connector-curvature="0" /></g><g
           id="g258"
           transform="translate(434.4541,631.1133)"><path
             d="m 0,0 h -67.712 c -1.415,0 -2.504,0.54 -3.234,1.604 -0.7,1.018 -1.069,2.476 -1.069,4.216 0,4.624 2.658,9.999 6.084,9.999 H 0.891 c 2.859,0 4.568,-4.021 4.568,-7.91 C 5.459,3.973 3.771,0 0,0 m 0.891,17.819 h -66.822 c -4.763,0 -8.084,-6.323 -8.084,-11.999 0,-2.145 0.492,-3.995 1.42,-5.348 C -71.484,-1.146 -69.796,-2 -67.712,-2 H 0 c 5.152,0 7.459,4.978 7.459,9.909 0,4.925 -2.256,9.91 -6.568,9.91"
             style="fill:#7b4c3e;fill-opacity:1;fill-rule:nonzero;stroke:none"
             id="path260"
             inkscape:connector-curvature="0" /></g><g
           id="g262"
           transform="translate(475.3281,639.0225)"><path
             d="m 0,0 c 0,5.344 -4.348,9.691 -9.691,9.691 -5.344,0 -9.692,-4.347 -9.692,-9.691 0,-5.344 4.348,-9.691 9.692,-9.691 C -4.348,-9.691 0,-5.344 0,0"
             style="fill:#8c625b;fill-opacity:1;fill-rule:nonzero;stroke:none"
             id="path264"
             inkscape:connector-curvature="0" /></g><g
           id="g266"
           transform="translate(455.9453,639.0225)"><path
             d="m 0,0 c 0,5.344 4.348,9.691 9.691,9.691 5.344,0 9.692,-4.347 9.692,-9.691 0,-5.344 -4.348,-9.691 -9.692,-9.691 C 4.348,-9.691 0,-5.344 0,0 M 9.691,11.691 C 3.245,11.691 -2,6.446 -2,0 c 0,-6.446 5.245,-11.691 11.691,-11.691 6.447,0 11.692,5.245 11.692,11.691 0,6.446 -5.245,11.691 -11.692,11.691"
             style="fill:#7b4c3e;fill-opacity:1;fill-rule:nonzero;stroke:none"
             id="path268"
             inkscape:connector-curvature="0" /></g><g
           id="g270"
           transform="translate(431.4541,173.8389)"><path
             d="m 0,0 h -65.276 c -1.103,0 -2,-0.897 -2,-2 v -15.383 c 0,-1.102 0.897,-2 2,-2 H 0 c 1.103,0 2,0.898 2,2 V -2 C 2,-0.897 1.103,0 0,0"
             style="fill:#8c625b;fill-opacity:1;fill-rule:nonzero;stroke:none"
             id="path272"
             inkscape:connector-curvature="0" /></g><g
           id="g274"
           transform="translate(433.4541,156.4561)"><path
             d="m 0,0 c 0,-1.103 -0.897,-2 -2,-2 h -65.276 c -1.103,0 -2,0.897 -2,2 v 15.383 c 0,1.102 0.897,2 2,2 H -2 c 1.103,0 2,-0.898 2,-2 z m -2,19.383 h -65.276 c -2.206,0 -4,-1.794 -4,-4 V 0 c 0,-2.206 1.794,-4 4,-4 H -2 c 2.206,0 4,1.794 4,4 v 15.383 c 0,2.206 -1.794,4 -4,4"
             style="fill:#7b4c3e;fill-opacity:1;fill-rule:nonzero;stroke:none"
             id="path276"
             inkscape:connector-curvature="0" /></g><g
           id="g278"
           transform="translate(212.3042,420.6228)"><path
             d="m 0,0 c -1.531,-3.472 -2.232,-7.477 -2.058,-11.998 0.651,-16.917 26.247,-31.359 51.149,-38.748 -0.027,6.804 -0.049,13.628 -0.07,20.451 -5.888,1.848 -11.688,3.936 -17.322,6.476 C 19.562,-18.349 8.06,-10.416 0,0"
             style="fill:#fcca94;fill-opacity:1;fill-rule:nonzero;stroke:none"
             id="path280"
             inkscape:connector-curvature="0" /></g><g
           id="g282"
           transform="translate(286.7136,332.1978)"><path
             d="m 0,0 c -3.362,-1.08 -6.738,-2.107 -10.167,-2.866 -15.19,-3.362 -31.477,-1.15 -45.377,5.797 1.246,-9.683 6.011,-18.67 12.518,-22.825 1.812,0.385 3.78,0.585 5.866,0.585 4.717,0 10.365,-1.084 15.72,-3.36 C -11.142,-19.86 -3.024,-11.409 0,0"
             style="fill:#fcca94;fill-opacity:1;fill-rule:nonzero;stroke:none"
             id="path284"
             inkscape:connector-curvature="0" /></g><g
           id="g286"
           transform="translate(280.8723,278.3381)"><path
             d="m 0,0 c -14.046,-5.782 -29.715,-7.052 -43.904,-1.807 -3.247,1.201 -6.398,2.748 -9.311,4.634 1.219,-10.662 6.529,-20.504 13.712,-24.11 1.613,-0.81 3.271,-1.434 4.959,-1.894 0.365,0.015 0.73,0.03 1.103,0.03 2.418,0 4.872,-0.307 7.285,-0.873 C -13.627,-23.225 -3.313,-13.704 0,0"
             style="fill:#fcca94;fill-opacity:1;fill-rule:nonzero;stroke:none"
             id="path288"
             inkscape:connector-curvature="0" /></g><g
           id="g290"
           transform="translate(274.7175,216.6975)"><path
             d="m 0,0 c -3.761,-1.559 -7.697,-2.648 -11.797,-3.096 -13.329,-1.456 -27.008,4.636 -35.521,14.902 -0.099,-12.388 5.176,-25.021 12.675,-29.166 3.337,-1.843 6.869,-2.778 10.5,-2.778 10.886,0 20.157,7.999 24.143,20.138"
             style="fill:#fcca94;fill-opacity:1;fill-rule:nonzero;stroke:none"
             id="path292"
             inkscape:connector-curvature="0" /></g><g
           id="g294"
           transform="translate(559.8051,44.6667)"><path
             d="m 0,0 c -2.667,18.667 16,46.667 8,48 -8,1.333 -7.724,1.449 -31.333,-4 -8.667,-2 -44,8 -35.334,17.333 8.667,9.334 28,19.334 38,28.667 10,9.333 42.667,63.333 42.667,78 0,14.667 -2.667,85.333 -17.333,98.667 C -10,280 -53.333,300 -62,296.667 c -8.667,-3.334 -33.333,-24.667 -63.333,-38 -10.801,-4.801 -19.776,-5.789 -26.855,-5.101 5.882,-3.793 13.408,-7.219 22.395,-10.117 25.909,-8.359 70.136,23.643 70.58,23.967 0.303,0.219 0.702,0.252 1.037,0.087 4.58,-2.29 10.193,-4.909 17.962,-8.535 3.829,-1.787 8.137,-3.797 13.018,-6.094 15.338,-7.218 24.687,-45.589 24.687,-50.852 0,-0.553 -0.447,-1 -1,-1 -0.553,0 -1,0.447 -1,1 0,3.403 -4.441,22.442 -11.941,36.036 0.294,-62.435 0.157,-109.375 -1.014,-114.352 -3.238,-13.762 -18.246,-30.855 -49.885,-33.732 -8.478,-0.771 -26.451,-1.161 -53.422,-1.161 h -0.014 c -21.439,0 -45.256,0.244 -66.617,0.573 18.42,-18.58 48.231,-45.2 79.992,-55.198 39.035,-12.289 64.42,-26.91 75.454,-43.457 8.212,-12.319 42.222,-91.03 44.067,-100.254 1.71,-8.547 15.462,-30.636 23.705,-36.406 0.136,-0.096 0.749,-0.407 2.92,-0.407 9.877,0 37.984,6.365 67.953,14.421 C 57.628,-104.948 2.331,-16.315 0,0"
             style="fill:#fcca94;fill-opacity:1;fill-rule:nonzero;stroke:none"
             id="path296"
             inkscape:connector-curvature="0" /></g><g
           id="g298"
           transform="translate(492.3551,350.6768)"><path
             d="m 0,0 c -3.312,-2.085 -6.07,-5.012 -9.169,-7.398 -3.175,-2.444 -6.691,-4.393 -9.803,-6.917 -0.551,-0.446 0.044,-1.317 0.665,-1.142 3.881,1.09 7.321,3.237 10.709,5.37 3.506,2.208 7.197,4.635 9.736,7.949 C 3.115,-0.862 1.255,0.79 0,0"
             style="fill:#fcca94;fill-opacity:1;fill-rule:nonzero;stroke:none"
             id="path300"
             inkscape:connector-curvature="0" /></g><g
           id="g302"
           transform="translate(496.06,358.71)"><path
             d="m 0,0 c -1.344,-0.539 -2.574,-1.113 -3.821,-1.853 -1.352,-0.803 -2.84,-1.521 -3.974,-2.626 -0.875,-0.853 0.024,-2.272 1.159,-1.991 1.365,0.337 2.605,1.11 3.844,1.754 1.348,0.7 2.575,1.424 3.8,2.324 C 2.104,-1.586 1.485,0.595 0,0"
             style="fill:#fcca94;fill-opacity:1;fill-rule:nonzero;stroke:none"
             id="path304"
             inkscape:connector-curvature="0" /></g><g
           id="g306"
           transform="translate(558.7625,155.0703)"><path
             d="m 0,0 c -8.144,-8.378 -15.416,-18.832 -21.828,-28.58 -0.7,-1.062 0.888,-2.266 1.748,-1.349 7.987,8.522 16.44,18.034 22.687,27.917 C 3.624,-0.404 1.307,1.345 0,0"
             style="fill:#fcca94;fill-opacity:1;fill-rule:nonzero;stroke:none"
             id="path308"
             inkscape:connector-curvature="0" /></g><g
           id="g310"
           transform="translate(567.4127,156.6138)"><path
             d="m 0,0 c -1.972,-2.834 -3.268,-6.175 -4.753,-9.286 -0.664,-1.392 1.35,-2.614 2.092,-1.222 1.672,3.138 3.623,6.246 4.767,9.62 C 2.55,0.422 0.706,1.015 0,0"
             style="fill:#fcca94;fill-opacity:1;fill-rule:nonzero;stroke:none"
             id="path312"
             inkscape:connector-curvature="0" /></g><g
           id="g314"
           transform="translate(602.6748,127.8091)"><path
             d="m 0,0 c -3.776,-4.635 -7.427,-9.362 -11.171,-14.023 -3.411,-4.247 -7.422,-8.167 -10.446,-12.694 -0.491,-0.733 0.492,-1.743 1.229,-1.229 9.129,6.371 16.978,16.67 22.995,25.934 C 3.625,-0.446 1.198,1.47 0,0"
             style="fill:#fcca94;fill-opacity:1;fill-rule:nonzero;stroke:none"
             id="path316"
             inkscape:connector-curvature="0" /></g><g
           id="g318"
           transform="translate(616.1162,129.7036)"><path
             d="m 0,0 c -3.053,-3.554 -6.068,-7.533 -7.69,-11.977 -0.474,-1.3 1.419,-2.368 2.318,-1.349 3.025,3.428 5.387,7.593 7.765,11.48 C 3.284,-0.389 1.141,1.329 0,0"
             style="fill:#fcca94;fill-opacity:1;fill-rule:nonzero;stroke:none"
             id="path320"
             inkscape:connector-curvature="0" /></g><g
           id="g322"
           transform="translate(600.6919,-1.7725)"><path
             d="m 0,0 c -4.814,5.581 -9.584,11.312 -13.764,17.385 -1.968,2.86 -3.719,5.859 -5.418,8.884 -1.016,1.808 -1.716,4.191 -3.577,5.256 -0.456,0.26 -0.975,-0.076 -1.002,-0.575 -0.005,-0.084 -0.009,-0.168 -0.014,-0.252 -0.009,-0.167 0.121,-0.315 0.274,-0.361 0.068,-0.02 0.136,-0.04 0.204,-0.06 0.077,-0.023 0.141,0.027 0.168,0.096 -0.774,-1.988 2.631,-6.812 3.465,-8.402 1.611,-3.072 3.442,-6.023 5.34,-8.925 C -10.713,7.525 -6.592,2.719 -1.685,-1.685 -0.534,-2.718 1.001,-1.16 0,0"
             style="fill:#fcca94;fill-opacity:1;fill-rule:nonzero;stroke:none"
             id="path324"
             inkscape:connector-curvature="0" /></g><g
           id="g326"
           transform="translate(605.7476,4.5972)"><path
             d="m 0,0 c -2.904,3.182 -5.892,6.395 -8.337,9.949 -0.831,1.208 -2.769,0.124 -1.99,-1.163 2.46,-4.067 5.259,-7.555 9.144,-10.32 C -0.241,-2.205 0.715,-0.783 0,0"
             style="fill:#fcca94;fill-opacity:1;fill-rule:nonzero;stroke:none"
             id="path328"
             inkscape:connector-curvature="0" /></g><g
           id="g330"
           transform="translate(251.6792,399.592)"><path
             d="m 0,0 c -3.49,2.598 -8.779,5.163 -13.188,5.336 -0.874,0.035 -1.147,-1.176 -0.433,-1.601 1.806,-1.076 3.928,-1.643 5.846,-2.508 2.24,-1.009 4.412,-2.148 6.671,-3.116 C 0.193,-2.445 1.141,-0.85 0,0"
             style="fill:#fcca94;fill-opacity:1;fill-rule:nonzero;stroke:none"
             id="path332"
             inkscape:connector-curvature="0" /></g><g
           id="g334"
           transform="translate(252.5067,404.6199)"><path
             d="M 0,0 C -1.243,0.013 -2.582,0.04 -3.732,0.559 -4.681,0.986 -5.473,-0.284 -4.56,-0.858 -3.115,-1.768 -1.422,-2.203 0.208,-1.535 0.985,-1.216 0.942,-0.01 0,0"
             style="fill:#fcca94;fill-opacity:1;fill-rule:nonzero;stroke:none"
             id="path336"
             inkscape:connector-curvature="0" /></g><g
           id="g338"
           transform="translate(280.4274,337.8687)"><path
             d="m 0,0 c -4.426,-2.469 -8.62,-3.978 -13.607,-4.811 -1.418,-0.237 -0.966,-2.299 0.322,-2.379 5.31,-0.331 10.918,1.612 14.894,5.104 C 2.774,-1.063 1.284,0.716 0,0"
             style="fill:#fcca94;fill-opacity:1;fill-rule:nonzero;stroke:none"
             id="path340"
             inkscape:connector-curvature="0" /></g><g
           id="g342"
           transform="translate(279.3081,343.1565)"><path
             d="m 0,0 c -1.116,-1.261 -2.718,-2.145 -4.36,-2.505 -0.829,-0.183 -0.656,-1.596 0.202,-1.497 2.245,0.261 3.941,1.318 5.201,3.197 C 1.463,-0.178 0.499,0.564 0,0"
             style="fill:#fcca94;fill-opacity:1;fill-rule:nonzero;stroke:none"
             id="path344"
             inkscape:connector-curvature="0" /></g><g
           id="g346"
           transform="translate(270.9444,282.7417)"><path
             d="m 0,0 c -6.643,-0.953 -13.09,-2.708 -19.805,-3.352 -0.804,-0.077 -0.804,-1.173 0,-1.25 6.935,-0.664 14.256,-0.372 20.648,2.603 C 2.069,-1.428 1.115,0.16 0,0"
             style="fill:#fcca94;fill-opacity:1;fill-rule:nonzero;stroke:none"
             id="path348"
             inkscape:connector-curvature="0" /></g><g
           id="g350"
           transform="translate(266.5032,218.6077)"><path
             d="m 0,0 c -1.91,0.209 -3.793,0.239 -5.707,0.378 -1.873,0.136 -3.71,0.539 -5.582,0.641 -0.738,0.04 -0.959,-0.993 -0.365,-1.347 3.39,-2.018 8.14,-2.561 11.913,-1.59 C 1.4,-1.625 1.036,-0.113 0,0"
             style="fill:#fcca94;fill-opacity:1;fill-rule:nonzero;stroke:none"
             id="path352"
             inkscape:connector-curvature="0" /></g><g
           id="g354"
           transform="translate(269.5868,222.384)"><path
             d="M 0,0 C -1.028,-0.482 -2.428,-0.318 -3.418,0.197 -3.965,0.482 -4.522,-0.205 -4.08,-0.662 -2.798,-1.987 -0.904,-2.039 0.552,-0.945 1.112,-0.523 0.648,0.303 0,0"
             style="fill:#fcca94;fill-opacity:1;fill-rule:nonzero;stroke:none"
             id="path356"
             inkscape:connector-curvature="0" /></g><g
           id="g358"
           transform="translate(473.0899,374.5664)"><path
             d="m 0,0 c -5.122,-3.027 -9.114,-6.891 -13.032,-11.354 -3.692,-4.207 -7.947,-9.354 -9.504,-14.784 -0.284,-0.991 0.979,-1.691 1.697,-0.988 3.953,3.866 6.845,8.872 10.57,13.009 3.76,4.174 8.061,7.861 12.044,11.816 C 2.958,-1.126 1.439,0.85 0,0"
             style="fill:#ffe6c6;fill-opacity:1;fill-rule:nonzero;stroke:none"
             id="path360"
             inkscape:connector-curvature="0" /></g><g
           id="g362"
           transform="translate(485.5335,377.0085)"><path
             d="M 0,0 C -1.672,-0.343 -3.371,-0.441 -5.057,-0.65 -5.915,-0.756 -6.571,-2.04 -5.56,-2.506 -3.441,-3.482 -1.121,-3.193 0.843,-1.999 1.935,-1.335 1.197,0.246 0,0"
             style="fill:#ffe6c6;fill-opacity:1;fill-rule:nonzero;stroke:none"
             id="path364"
             inkscape:connector-curvature="0" /></g><g
           id="g366"
           transform="translate(647.7589,233.6626)"><path
             d="m 0,0 c -1.853,10.207 -5.89,20.035 -8.948,29.934 -3.062,9.915 -5.371,20.22 -9.088,29.911 -0.385,1.004 -2.178,0.97 -2.033,-0.275 1.21,-10.392 4.325,-20.682 7.023,-30.766 C -10.331,18.658 -7.975,8.061 -3.284,-1.384 -2.32,-3.327 0.342,-1.882 0,0"
             style="fill:#ffe6c6;fill-opacity:1;fill-rule:nonzero;stroke:none"
             id="path368"
             inkscape:connector-curvature="0" /></g><g
           id="g370"
           transform="translate(649.7451,226.0005)"><path
             d="m 0,0 c -0.051,1.671 -2.479,1.651 -2.578,0 -0.237,-3.945 -0.07,-7.638 1.76,-11.195 0.478,-0.928 2.084,-0.522 2.002,0.543 C 0.909,-7.086 0.109,-3.582 0,0"
             style="fill:#ffe6c6;fill-opacity:1;fill-rule:nonzero;stroke:none"
             id="path372"
             inkscape:connector-curvature="0" /></g><g
           id="g374"
           transform="translate(723.4497,54.3691)"><path
             d="m 0,0 c -4.471,6.592 -9.24,12.879 -14.146,19.149 -5.68,7.258 -12.933,14.375 -15.646,23.329 -0.236,0.78 -1.331,0.598 -1.381,-0.187 -0.486,-7.692 6.701,-14.722 10.918,-20.481 C -14.403,13.817 -8.593,5.876 -2.208,-1.704 -1.179,-2.926 0.893,-1.317 0,0"
             style="fill:#ffe6c6;fill-opacity:1;fill-rule:nonzero;stroke:none"
             id="path376"
             inkscape:connector-curvature="0" /></g><g
           id="g378"
           transform="translate(734.1028,37.2261)"><path
             d="m 0,0 c -0.634,0.917 -1.209,1.861 -1.863,2.764 -0.748,1.03 -1.253,2.078 -1.116,3.368 0.155,1.465 -2.19,1.729 -2.532,0.342 C -6.369,2.996 -4.213,0.329 -1.47,-1.47 -0.589,-2.047 0.613,-0.887 0,0"
             style="fill:#ffe6c6;fill-opacity:1;fill-rule:nonzero;stroke:none"
             id="path380"
             inkscape:connector-curvature="0" /></g><g
           id="g382"
           transform="translate(239.752,431.5425)"><path
             d="m 0,0 c -5.104,-0.528 -10.599,-1.554 -15.239,-3.841 -1.147,-0.565 -0.583,-2.398 0.64,-2.365 5.027,0.133 10.327,1.742 14.952,3.597 C 1.623,-2.099 1.615,0.167 0,0"
             style="fill:#ffe6c6;fill-opacity:1;fill-rule:nonzero;stroke:none"
             id="path384"
             inkscape:connector-curvature="0" /></g><g
           id="g386"
           transform="translate(252.6272,431.1763)"><path
             d="m 0,0 c -0.656,0.222 -1.335,0.536 -2.027,0.616 -0.715,0.084 -1.43,0.167 -2.146,0.251 -0.912,0.106 -1.067,-1.352 -0.212,-1.573 0.702,-0.182 1.404,-0.364 2.106,-0.546 0.653,-0.169 1.422,-0.101 2.092,-0.129 C 0.641,-1.416 0.723,-0.246 0,0"
             style="fill:#ffe6c6;fill-opacity:1;fill-rule:nonzero;stroke:none"
             id="path388"
             inkscape:connector-curvature="0" /></g><g
           id="g390"
           transform="translate(260.4348,361.3853)"><path
             d="m 0,0 c -5.145,-0.096 -10.609,-0.937 -15.562,-2.323 -0.98,-0.274 -0.779,-1.761 0.239,-1.764 5.143,-0.019 10.634,0.624 15.619,1.9 C 1.514,-1.875 1.259,0.023 0,0"
             style="fill:#ffe6c6;fill-opacity:1;fill-rule:nonzero;stroke:none"
             id="path392"
             inkscape:connector-curvature="0" /></g><g
           id="g394"
           transform="translate(254.4743,305.1118)"><path
             d="m 0,0 c -5.086,0.568 -11.686,-1.189 -15.935,-4.015 -0.869,-0.578 -0.324,-1.911 0.708,-1.678 2.587,0.587 5.086,1.529 7.683,2.115 2.593,0.586 5.266,0.683 7.856,1.276 C 1.698,-1.984 1.227,-0.137 0,0"
             style="fill:#ffe6c6;fill-opacity:1;fill-rule:nonzero;stroke:none"
             id="path396"
             inkscape:connector-curvature="0" /></g><g
           id="g398"
           transform="translate(260.8706,245.3472)"><path
             d="M 0,0 C -4.495,2.613 -10.057,3.568 -15.152,2.291 -15.539,2.194 -15.418,1.674 -15.064,1.639 -10.033,1.14 -5.397,0.217 -0.617,-1.464 0.256,-1.77 0.769,-0.447 0,0"
             style="fill:#ffe6c6;fill-opacity:1;fill-rule:nonzero;stroke:none"
             id="path400"
             inkscape:connector-curvature="0" /></g><g
           id="g402"
           transform="translate(524.8965,380.8823)"><path
             d="m 0,0 c 5.176,-1.82 10.511,-3.834 15.847,-5.927 -0.186,23.822 -0.389,47.76 -0.582,70.629 -0.211,24.865 -0.413,48.799 -0.581,70.64 C 9.485,131.846 4.266,128.384 -0.978,124.963 -0.609,86.963 -0.236,42.952 0,0"
             style="fill:#978072;fill-opacity:1;fill-rule:nonzero;stroke:none"
             id="path404"
             inkscape:connector-curvature="0" /></g><g
           id="g406"
           transform="translate(263.3678,366.0327)"><path
             d="M 0,0 C 6.078,-1.387 12.385,-4.115 17.367,-8.344 17.255,6.05 17.158,20.742 17.08,35.433 11.366,34.585 5.632,33.911 -0.106,33.462 -0.078,22.305 -0.043,11.117 0,0"
             style="fill:#978072;fill-opacity:1;fill-rule:nonzero;stroke:none"
             id="path408"
             inkscape:connector-curvature="0" /></g><g
           id="g410"
           transform="translate(312.3469,655.9783)"><path
             d="m 0,0 c -8.369,1.612 -19.404,1.457 -27.248,-2.44 -7.436,-3.694 -10.785,-10.974 -12.519,-18.755 -0.223,-1.002 1.084,-1.559 1.642,-0.693 3.963,6.151 7.206,12.503 14.5,15.15 7.296,2.647 15.99,1.716 23.625,2.783 2.013,0.281 1.917,3.586 0,3.955"
             style="fill:#bb9e8b;fill-opacity:1;fill-rule:nonzero;stroke:none"
             id="path412"
             inkscape:connector-curvature="0" /></g><g
           id="g414"
           transform="translate(338.9339,654.3428)"><path
             d="m 0,0 c -5.35,0.786 -11.497,0.732 -16.784,-0.508 -1.159,-0.272 -1.159,-2.064 0,-2.336 C -11.497,-4.084 -5.35,-4.139 0,-3.352 1.667,-3.107 1.667,-0.245 0,0"
             style="fill:#bb9e8b;fill-opacity:1;fill-rule:nonzero;stroke:none"
             id="path416"
             inkscape:connector-curvature="0" /></g><g
           id="g418"
           transform="translate(380.2031,347.8188)"><path
             d="m 0,0 c -27.363,-8.539 -56.497,-9.402 -85.154,-8.764 -1.756,0.04 -3.513,0.087 -5.27,0.138 -0.008,-1.305 -0.122,-2.63 -0.348,-3.971 -0.972,-5.76 -3.211,-10.972 -6.368,-15.327 0.102,-10.553 0.208,-20.764 0.317,-30.495 0.487,-2.633 0.525,-5.382 0.093,-8.207 0.544,-46.977 1.12,-81.039 1.383,-84.628 4.263,-2.916 60.775,-4.87 141.309,-4.87 h 0.02 c 54.388,0 90.96,0.922 94.918,1.801 1.352,4.047 2.032,40.872 2.041,106.272 -1.525,0.713 -3.006,1.404 -4.399,2.055 -7.48,3.491 -12.966,6.05 -17.469,8.288 -4.569,-3.269 -36.449,-25.401 -61.546,-25.403 -3.621,-0.001 -7.096,0.46 -10.332,1.503 -33.572,10.83 -38.585,25.208 -38.585,32.816 0,6.956 11.967,11.282 24.636,15.861 9.016,3.259 18.338,6.629 21.197,10.56 8.603,11.83 29.67,35.945 47.832,42.549 7.437,2.706 21.997,-0.764 38.414,-6.415 -0.101,18.281 -0.234,37.807 -0.396,58.521 C 122.073,76.005 101.452,60.224 80.447,44.972 55.473,26.837 29.462,9.194 0,0"
             style="fill:#b4ddc8;fill-opacity:1;fill-rule:nonzero;stroke:none"
             id="path420"
             inkscape:connector-curvature="0" /></g><g
           id="g422"
           transform="translate(299.4539,600.7183)"><path
             d="m 0,0 c -0.493,0.966 -1.99,0.916 -2.496,0 -2.328,-4.212 -2.122,-9.824 -2.401,-14.534 -0.388,-6.57 -0.749,-13.14 -1.132,-19.711 -0.689,-11.825 -3.107,-24.481 -1.425,-36.255 0.459,-3.219 5.132,-2.661 5.951,0 3.474,11.292 2.59,24.542 2.983,36.255 0.199,5.914 0.339,11.823 0.33,17.74 C 1.803,-11.231 2.455,-4.811 0,0"
             style="fill:#ebf4e8;fill-opacity:1;fill-rule:nonzero;stroke:none"
             id="path424"
             inkscape:connector-curvature="0" /></g><g
           id="g426"
           transform="translate(295.5188,502.5376)"><path
             d="m 0,0 c 0.066,3.845 1.055,7.578 1.117,11.414 0.033,2.065 -2.707,2.662 -3.749,1.015 -4.282,-6.766 -4.706,-17.271 -1.945,-24.638 0.901,-2.406 4.486,-2.114 4.565,0.618 C 0.1,-7.721 -0.067,-3.869 0,0"
             style="fill:#ebf4e8;fill-opacity:1;fill-rule:nonzero;stroke:none"
             id="path428"
             inkscape:connector-curvature="0" /></g><g
           id="g430"
           transform="translate(420.4717,220.6667)"><path
             d="m 0,0 c 0,-10.309 -8.357,-18.667 -18.667,-18.667 -10.309,0 -18.666,8.358 -18.666,18.667 0,10.309 8.357,18.667 18.666,18.667 C -8.357,18.667 0,10.309 0,0"
             style="fill:#ffffff;fill-opacity:1;fill-rule:nonzero;stroke:none"
             id="path432"
             inkscape:connector-curvature="0" /></g><g
           id="g434"
           transform="translate(370.4717,220.6667)"><path
             d="m 0,0 c 0,-8.468 -6.865,-15.333 -15.333,-15.333 -8.469,0 -15.334,6.865 -15.334,15.333 0,8.468 6.865,15.333 15.334,15.333 C -6.865,15.333 0,8.468 0,0"
             style="fill:#ffffff;fill-opacity:1;fill-rule:nonzero;stroke:none"
             id="path436"
             inkscape:connector-curvature="0" /></g><g
           id="g438"
           transform="translate(329.1384,220.6667)"><path
             d="m 0,0 c 0,-8.468 -6.865,-15.333 -15.333,-15.333 -8.469,0 -15.334,6.865 -15.334,15.333 0,8.468 6.865,15.333 15.334,15.333 C -6.865,15.333 0,8.468 0,0"
             style="fill:#ffffff;fill-opacity:1;fill-rule:nonzero;stroke:none"
             id="path440"
             inkscape:connector-curvature="0" /></g><g
           id="g442"
           transform="translate(503.805,220.6667)"><path
             d="m 0,0 c 0,-8.468 -6.865,-15.333 -15.333,-15.333 -8.469,0 -15.334,6.865 -15.334,15.333 0,8.468 6.865,15.333 15.334,15.333 C -6.865,15.333 0,8.468 0,0"
             style="fill:#ffffff;fill-opacity:1;fill-rule:nonzero;stroke:none"
             id="path444"
             inkscape:connector-curvature="0" /></g><g
           id="g446"
           transform="translate(462.4717,220.6667)"><path
             d="m 0,0 c 0,-8.468 -6.865,-15.333 -15.333,-15.333 -8.469,0 -15.334,6.865 -15.334,15.333 0,8.468 6.865,15.333 15.334,15.333 C -6.865,15.333 0,8.468 0,0"
             style="fill:#ffffff;fill-opacity:1;fill-rule:nonzero;stroke:none"
             id="path448"
             inkscape:connector-curvature="0" /></g></g></g><text
       transform="scale(0.91165731,-1.0969034)"
       style="font-variant:normal;font-weight:bold;font-stretch:normal;font-size:54.75341797px;font-family:Amatic;-inkscape-font-specification:Amatic-Bold;writing-mode:lr-tb;fill:#8c625b;fill-opacity:1;fill-rule:nonzero;stroke:none;stroke-width:0.55281693"
       id="text452"
       x="346.89093"
       y="-453.21283"><tspan
         sodipodi:role="line"
         id="tspan450"
         x="346.89093"
         y="-453.21283"
         style="stroke-width:0.55281693">Social</tspan></text>
<text
       transform="scale(0.91382168,-1.0943054)"
       style="font-variant:normal;font-weight:bold;font-stretch:normal;font-size:56.17573929px;font-family:Amatic;-inkscape-font-specification:Amatic-Bold;writing-mode:lr-tb;fill:#8c625b;fill-opacity:1;fill-rule:nonzero;stroke:none;stroke-width:0.57839674"
       id="text456"
       x="340.80545"
       y="-406.46585"><tspan
         sodipodi:role="line"
         id="tspan454"
         x="340.80545"
         y="-406.46585"
         style="stroke-width:0.57839674">media</tspan></text>
<g
       id="g458"><g
         id="g460"
         clip-path="url(#clipPath464)"><g
           id="g466"
           transform="translate(693.8969,726.3454)"><path
             d="m 0,0 c -17.797,28.132 -63.347,37.241 -94.278,25.172 -10.629,-4.148 -19.974,-11.496 -26.69,-22.623 -11.732,-19.44 -11.102,-45.026 -0.668,-65.192 3.709,-7.168 8.68,-13.64 14.536,-19.192 -1.425,-3.873 -3.505,-7.552 -5.986,-10.829 -5.773,-7.625 -13.535,-13.462 -21.19,-19.195 18.338,-3.438 37.795,2.375 52.154,14.182 10.654,-4.143 22.194,-5.835 33.575,-4.372 C -1.512,-96.003 25.192,-39.821 0,0"
             style="fill:#238aca;fill-opacity:1;fill-rule:nonzero;stroke:none"
             id="path468"
             inkscape:connector-curvature="0" /></g><g
           id="g470"
           transform="translate(695.6157,660.4648)"><path
             d="m 0,0 c -14.716,-6.186 -30.979,-7.865 -46.96,-8.615 -8.856,-0.415 -17.895,-0.552 -26.389,1.983 -6.711,2.003 -12.82,5.6 -18.766,9.3 -7.359,4.579 -14.618,9.393 -21.058,15.193 -7.218,6.501 -13.301,14.236 -18.009,22.731 -0.84,-12.79 1.921,-25.941 7.827,-37.355 3.709,-7.168 8.68,-13.639 14.536,-19.192 -1.425,-3.873 -3.505,-7.551 -5.986,-10.828 -5.773,-7.625 -13.535,-13.462 -21.19,-19.195 18.338,-3.438 37.795,2.375 52.154,14.182 10.654,-4.143 22.194,-5.835 33.575,-4.372 C -27.625,-33.258 -9.698,-18.728 0,0"
             style="fill:#217eb8;fill-opacity:1;fill-rule:nonzero;stroke:none"
             id="path472"
             inkscape:connector-curvature="0" /></g><g
           id="g474"
           transform="translate(562.0928,615.0898)"><path
             d="m 0,0 c 2.688,-0.388 5.433,-0.584 8.188,-0.584 14.424,0 29.317,5.444 40.859,14.936 0.279,0.23 0.661,0.292 0.997,0.159 8.227,-3.199 16.661,-4.822 25.065,-4.822 h 0.001 c 2.69,0 5.387,0.171 8.019,0.51 21.87,2.811 40.83,17.047 50.72,38.082 9.772,20.789 8.692,44.131 -2.89,62.441 -11.497,18.172 -36.601,29.915 -63.954,29.915 -10.428,0 -20.496,-1.779 -29.116,-5.142 C 26.785,131.163 17.972,123.692 11.692,113.288 0.616,94.937 0.367,69.731 11.056,49.072 14.65,42.126 19.474,35.758 25.393,30.146 25.682,29.871 25.78,29.449 25.643,29.074 24.222,25.211 22.16,21.482 19.515,17.988 14.099,10.835 7.017,5.277 0,0 m 8.188,-2.584 c -3.666,0 -7.314,0.336 -10.844,0.998 -0.39,0.072 -0.7,0.369 -0.789,0.756 -0.09,0.386 0.056,0.789 0.374,1.027 7.504,5.62 15.262,11.433 20.992,18.998 2.385,3.151 4.271,6.498 5.614,9.959 -5.862,5.655 -10.656,12.043 -14.255,18.998 -11.002,21.263 -10.727,47.236 0.699,66.169 6.513,10.791 15.659,18.541 27.183,23.037 8.849,3.454 19.168,5.279 29.843,5.279 28.022,0 53.789,-12.109 65.643,-30.847 11.951,-18.889 13.076,-42.949 3.01,-64.359 C 125.477,25.773 105.935,11.113 83.385,8.215 80.668,7.866 77.884,7.689 75.11,7.689 h -0.001 c -8.467,0 -16.958,1.597 -25.245,4.749 C 38.035,2.885 22.88,-2.584 8.188,-2.584"
             style="fill:#7b4c3e;fill-opacity:1;fill-rule:nonzero;stroke:none"
             id="path476"
             inkscape:connector-curvature="0" /></g><g
           id="g478"
           transform="translate(675.8069,733.825)"><path
             d="m 0,0 c -5.89,6.839 -14.274,9.294 -22.55,12.114 -7.877,2.685 -18.278,5.803 -26.547,3.2 -0.91,-0.286 -0.991,-1.674 0,-1.921 3.815,-0.948 7.824,-1.094 11.699,-1.834 4.051,-0.774 8.003,-2.131 11.886,-3.496 7.649,-2.69 16.66,-5.424 23.109,-10.466 C -0.7,-3.735 1.459,-1.694 0,0"
             style="fill:#68a8dc;fill-opacity:1;fill-rule:nonzero;stroke:none"
             id="path480"
             inkscape:connector-curvature="0" /></g><g
           id="g482"
           transform="translate(695.3042,713.5696)"><path
             d="m 0,0 c -0.984,6.052 -7.65,11.045 -12.252,14.49 -1.301,0.974 -2.731,-1.081 -1.681,-2.178 2.063,-2.154 3.943,-4.427 5.646,-6.876 1.705,-2.453 3.1,-5.2 5.48,-7.07 C -1.454,-2.698 0.28,-1.723 0,0"
             style="fill:#68a8dc;fill-opacity:1;fill-rule:nonzero;stroke:none"
             id="path484"
             inkscape:connector-curvature="0" /></g><g
           id="g486"
           transform="translate(657.2619,705.3952)"><path
             d="m 0,0 c -0.321,0.436 -9.298,0.27 -19.404,-0.267 -0.005,5.361 0.183,9.108 0.679,9.892 2.207,3.487 13.448,1.978 16.103,3.116 2.655,1.139 0.677,14.587 -1.35,14.493 -12.853,-0.597 -34.806,-1.277 -34.932,-13.13 -0.031,-2.87 -0.047,-8.694 -0.009,-15.875 -4.819,-0.544 -8.315,-1.16 -8.987,-1.806 -1.464,-1.405 0.533,-11.484 0.595,-12.835 0.019,-0.404 3.54,-0.493 8.541,-0.399 0.306,-20.61 1.1,-43.368 2.986,-43.748 2.733,-0.55 18.318,-0.842 18.53,1.876 0.126,1.607 -1.185,23.967 -1.822,42.703 7.121,0.422 13.119,0.901 14.34,1.205 C -1.384,-13.942 0.723,-0.982 0,0"
             style="fill:#ffffff;fill-opacity:1;fill-rule:nonzero;stroke:none"
             id="path488"
             inkscape:connector-curvature="0" /></g><g
           id="g490"
           transform="translate(228.2188,657.8672)"><path
             d="m 0,0 c 15.4,22.406 16.521,50.842 2.856,72.443 -11.497,18.173 -36.6,29.916 -63.954,29.916 -10.428,0 -20.496,-1.778 -29.116,-5.141 -11.104,-4.333 -19.918,-11.805 -26.196,-22.208 -11.076,-18.352 -11.326,-43.558 -0.638,-64.215 12.19,-23.558 37.922,-39.386 64.032,-39.386 2.698,0 5.403,0.172 8.042,0.512 5.448,0.7 10.781,2.117 15.853,4.212 0.124,0.051 0.253,0.075 0.382,0.075 0.289,0 0.571,-0.125 0.765,-0.356 3.566,-4.243 8.293,-8.017 13.671,-10.913 8.421,-4.538 17.463,-6.899 28.21,-9.287 C 5.572,-31.413 0.714,-16.35 -0.174,-0.623 -0.187,-0.401 -0.125,-0.183 0,0"
             style="fill:#7cbb44;fill-opacity:1;fill-rule:nonzero;stroke:none"
             id="path492"
             inkscape:connector-curvature="0" /></g><g
           id="g494"
           transform="translate(213.916,622.8057)"><path
             d="m 0,0 c -5.378,2.896 -10.105,6.671 -13.671,10.913 -0.194,0.231 -0.476,0.356 -0.766,0.356 -0.128,0 -0.257,-0.024 -0.381,-0.075 -5.073,-2.094 -10.406,-3.511 -15.853,-4.212 -2.64,-0.34 -5.345,-0.511 -8.042,-0.511 -26.11,0 -51.843,15.828 -64.032,39.385 -10.689,20.658 -10.439,45.864 0.638,64.215 6.278,10.404 15.091,17.875 26.196,22.208 8.62,3.363 18.687,5.142 29.116,5.142 27.354,0 52.457,-11.743 63.954,-29.916 C 30.824,85.903 29.703,57.468 14.303,35.061 14.178,34.879 14.116,34.66 14.129,34.438 15.017,18.712 19.875,3.648 28.21,-9.286 17.463,-6.898 8.421,-4.537 0,0 m 31.239,-10.23 c -8.91,12.995 -14.126,28.354 -15.094,44.443 15.669,23.022 16.74,52.174 2.704,74.36 -11.855,18.74 -37.621,30.848 -65.644,30.848 -10.675,0 -20.994,-1.825 -29.843,-5.279 -11.525,-4.497 -20.671,-12.248 -27.182,-23.038 -11.427,-18.933 -11.702,-44.905 -0.701,-66.168 12.524,-24.204 38.97,-40.465 65.808,-40.465 2.781,0 5.573,0.177 8.298,0.527 5.381,0.692 10.654,2.062 15.687,4.074 3.666,-4.208 8.416,-7.944 13.779,-10.833 9.274,-4.997 19.173,-7.395 31.149,-10.011 0.071,-0.015 0.144,-0.023 0.214,-0.023 0.328,0 0.642,0.162 0.83,0.441 0.229,0.341 0.227,0.787 -0.005,1.124"
             style="fill:#7b4c3e;fill-opacity:1;fill-rule:nonzero;stroke:none"
             id="path496"
             inkscape:connector-curvature="0" /></g><g
           id="g498"
           transform="translate(228.0449,657.2441)"><path
             d="M 0,0 C -0.013,0.222 0.049,0.44 0.174,0.623 9.825,14.664 13.866,31.072 12.177,46.683 4.243,29.808 -8.328,15.239 -24.628,6.323 c -25.311,-13.842 -59.401,-11.93 -80.802,7.415 -8.348,7.546 -14.378,17.068 -19.231,27.289 0.391,-10.098 2.977,-20.314 7.787,-29.609 12.19,-23.558 37.922,-39.386 64.032,-39.386 2.697,0 5.403,0.172 8.042,0.512 5.448,0.7 10.78,2.117 15.853,4.212 0.124,0.051 0.253,0.075 0.382,0.075 0.289,0 0.571,-0.125 0.765,-0.356 3.566,-4.242 8.293,-8.017 13.671,-10.913 8.421,-4.537 17.463,-6.899 28.21,-9.287 C 5.746,-30.79 0.888,-15.727 0,0"
             style="fill:#70ab3e;fill-opacity:1;fill-rule:nonzero;stroke:none"
             id="path500"
             inkscape:connector-curvature="0" /></g><g
           id="g502"
           transform="translate(186.3081,753.6938)"><path
             d="m 0,0 c -8.81,4.6 -21.184,2.676 -30.616,1.053 -10.197,-1.754 -22.358,-5.567 -30.309,-12.46 -0.897,-0.776 0.05,-2.294 1.14,-1.958 4.8,1.477 9.361,3.679 14.159,5.212 4.84,1.546 9.865,2.556 14.879,3.34 5.305,0.83 10.745,0.948 16.103,0.847 4.792,-0.089 9.329,-0.99 14.093,-0.246 C 1.442,-3.902 1.661,-0.868 0,0"
             style="fill:#a4c854;fill-opacity:1;fill-rule:nonzero;stroke:none"
             id="path504"
             inkscape:connector-curvature="0" /></g><g
           id="g506"
           transform="translate(209.9025,744.5454)"><path
             d="m 0,0 c -2.264,1.661 -4.765,2.597 -7.36,3.644 -2.699,1.09 -5.769,2.553 -8.699,2.631 -1.43,0.037 -2.37,-1.949 -1.215,-2.934 2.003,-1.711 4.682,-2.573 7.044,-3.719 2.804,-1.362 5.54,-2.798 8.559,-3.585 C 0.843,-4.617 1.909,-1.4 0,0"
             style="fill:#a4c854;fill-opacity:1;fill-rule:nonzero;stroke:none"
             id="path508"
             inkscape:connector-curvature="0" /></g><g
           id="g510"
           transform="translate(157.3539,712.8934)"><path
             d="m 0,0 c -4.036,2.07 -11.182,-4.615 -6.834,-13.982 4.347,-9.368 14.5,-17.879 23.433,-20.639 8.933,-2.76 21.636,-2.157 21.221,9.432 -0.119,3.319 -7.708,7.019 -10.396,5.139 -2.689,-1.879 -4.074,-5.049 -6.251,-5.37 -2.177,-0.321 -14.815,7.452 -16.386,10.557 -1.57,3.105 1.856,2.498 1.374,5.763 C 5.68,-5.835 2.807,-1.439 0,0"
             style="fill:#ffffff;fill-opacity:1;fill-rule:nonzero;stroke:none"
             id="path512"
             inkscape:connector-curvature="0" /></g><g
           id="g514"
           transform="translate(203.4998,696.8928)"><path
             d="m 0,0 c -1.189,-26.56 -23.015,-36.305 -44.03,-32.312 -2.497,0.474 -12.878,-5.021 -15.622,-3.723 -2.803,1.324 2.126,12.512 1.202,14.93 -0.924,2.417 -16.159,26.837 5.827,45.117 C -30.637,42.292 1.189,26.56 0,0 m -58.82,31.554 c -28.727,-23.885 -8.821,-55.794 -7.614,-58.952 1.207,-3.158 -5.233,-17.777 -1.57,-19.508 3.586,-1.695 17.149,5.484 20.412,4.865 27.459,-5.217 55.978,7.516 57.531,42.22 1.553,34.704 -40.032,55.26 -68.759,31.375"
             style="fill:#ffffff;fill-opacity:1;fill-rule:nonzero;stroke:none"
             id="path516"
             inkscape:connector-curvature="0" /></g><g
           id="g518"
           transform="translate(722.7862,406.6123)"><path
             d="M 0,0 C 11.848,19.681 13.159,43.011 3.509,62.407 -7.263,84.06 -35.953,99.182 -66.26,99.182 c -7.178,0 -14.002,-0.88 -20.28,-2.616 -11.487,-3.173 -21.02,-9.705 -28.33,-19.413 -12.417,-16.489 -15.544,-39.935 -8.162,-61.19 0.177,-0.509 -0.081,-1.066 -0.582,-1.261 -5.527,-2.145 -11.918,-3.188 -19.539,-3.189 -5.399,0 -10.924,0.518 -16.226,1.12 10.92,-11.722 27.296,-18.651 44.35,-18.651 1.288,0 2.589,0.041 3.867,0.121 0.02,0.001 0.042,0.002 0.062,0.002 0.295,0 0.577,-0.129 0.767,-0.357 13.883,-16.572 34.222,-26.466 54.406,-26.467 h 0.003 c 0.527,0 1.05,0.007 1.577,0.021 C -32.305,-32.139 -11.987,-19.914 0,0"
             style="fill:#eb3d5e;fill-opacity:1;fill-rule:nonzero;stroke:none"
             id="path520"
             inkscape:connector-curvature="0" /></g><g
           id="g522"
           transform="translate(666.8623,373.8936)"><path
             d="m 0,0 h -0.003 c -20.184,0.001 -40.523,9.895 -54.406,26.467 -0.191,0.227 -0.472,0.357 -0.767,0.357 -0.02,0 -0.042,-0.001 -0.062,-0.002 -1.279,-0.08 -2.579,-0.121 -3.867,-0.121 -17.054,0 -33.43,6.929 -44.35,18.651 5.302,-0.602 10.827,-1.121 16.226,-1.121 7.621,10e-4 14.012,1.044 19.539,3.19 0.501,0.195 0.758,0.752 0.582,1.261 -7.382,21.255 -4.255,44.701 8.162,61.19 7.31,9.708 16.843,16.239 28.33,19.413 6.278,1.736 13.101,2.615 20.28,2.615 30.307,0 58.997,-15.122 69.769,-36.774 C 69.083,75.729 67.772,52.399 55.924,32.719 43.937,12.805 23.619,0.58 1.577,0.021 1.05,0.007 0.526,0 0,0 M 61.224,96.017 C 50.127,118.321 20.7,133.9 -10.336,133.9 c -7.358,0 -14.361,-0.904 -20.813,-2.687 -11.922,-3.294 -21.812,-10.069 -29.395,-20.138 -12.632,-16.774 -15.958,-40.495 -8.767,-62.125 -5.088,-1.828 -10.961,-2.718 -17.918,-2.719 -6.18,0 -12.574,0.697 -18.593,1.41 -0.403,0.054 -0.804,-0.158 -0.998,-0.519 -0.195,-0.362 -0.149,-0.806 0.116,-1.119 11.248,-13.339 29.042,-21.302 47.599,-21.302 1.161,0 2.332,0.032 3.488,0.096 C -41.367,8.009 -20.615,-1.999 -0.003,-2 H 0 c 0.543,0 1.084,0.007 1.628,0.021 22.729,0.578 43.667,13.164 56.01,33.666 12.201,20.27 13.542,44.318 3.586,64.33"
             style="fill:#7b4c3e;fill-opacity:1;fill-rule:nonzero;stroke:none"
             id="path524"
             inkscape:connector-curvature="0" /></g><g
           id="g526"
           transform="translate(730.8997,426.3623)"><path
             d="m 0,0 c -5.54,-5.472 -11.499,-10.56 -18.277,-14.368 -14.255,-8.009 -31.172,-9.844 -47.52,-9.543 -9.209,0.169 -18.506,0.983 -27.254,3.864 -6.86,2.26 -13.253,5.748 -19.392,9.553 -7.137,4.422 -14.076,9.374 -19.463,15.813 -0.803,0.959 -1.563,1.959 -2.286,2.987 0.653,-4.068 1.666,-8.119 3.046,-12.093 0.177,-0.509 -0.081,-1.066 -0.582,-1.261 -5.526,-2.145 -11.918,-3.188 -19.539,-3.189 -5.398,0 -10.924,0.518 -16.225,1.12 10.919,-11.722 27.295,-18.651 44.349,-18.651 1.288,0 2.589,0.041 3.867,0.121 0.021,10e-4 0.042,0.002 0.063,0.002 0.295,0 0.576,-0.129 0.766,-0.357 13.883,-16.572 34.222,-26.466 54.407,-26.467 h 0.003 c 0.526,0 1.049,0.007 1.577,0.021 22.042,0.559 42.359,12.784 54.346,32.698 C -4.326,-13.457 -1.62,-6.791 0,0"
             style="fill:#d63655;fill-opacity:1;fill-rule:nonzero;stroke:none"
             id="path528"
             inkscape:connector-curvature="0" /></g><g
           id="g530"
           transform="translate(683.6986,493.751)"><path
             d="m 0,0 c -7.507,5.525 -18.586,6.116 -27.642,6.271 -8.705,0.149 -19.813,-0.845 -27.23,-5.787 -0.91,-0.607 -0.581,-2.05 0.562,-2.074 8.892,-0.189 17.677,1.764 26.668,1.36 9.039,-0.407 17.482,-3.861 26.4,-4.356 C 1.438,-4.735 1.794,-1.32 0,0"
             style="fill:#ed5b78;fill-opacity:1;fill-rule:nonzero;stroke:none"
             id="path532"
             inkscape:connector-curvature="0" /></g><g
           id="g534"
           transform="translate(705.7804,483.96)"><path
             d="m 0,0 c -1.888,2.429 -4.598,3.955 -7.343,5.286 -2.031,0.984 -5.086,2.208 -7.182,0.919 -0.459,-0.282 -0.715,-0.964 -0.379,-1.443 1.203,-1.711 3.513,-2.33 5.247,-3.434 2.397,-1.526 4.45,-3.542 7.03,-4.733 C -0.309,-4.475 1.515,-1.949 0,0"
             style="fill:#ed5b78;fill-opacity:1;fill-rule:nonzero;stroke:none"
             id="path536"
             inkscape:connector-curvature="0" /></g><g
           id="g538"
           transform="translate(662.2385,428.2345)"><path
             d="M 0,0 C -11.932,-1.12 -13.863,13.093 -8.839,19.158 -1.902,27.531 9.552,24.063 11.664,16.085 13.775,8.107 11.933,1.12 0,0 M 19.722,18.995 C 16.099,32.681 -3.55,38.63 -15.45,24.266 -24.069,13.861 -20.757,-10.52 -0.287,-8.599 20.183,-6.678 23.344,5.308 19.722,18.995"
             style="fill:#ffffff;fill-opacity:1;fill-rule:nonzero;stroke:none"
             id="path540"
             inkscape:connector-curvature="0" /></g><g
           id="g542"
           transform="translate(678.0547,466.104)"><path
             d="m 0,0 c -0.92,-1.079 -1.38,-2.54 -1.028,-4.116 0.552,-2.472 3.225,-4.263 5.721,-3.834 4.965,0.853 5.58,8.056 0.794,9.546 C 3.398,2.246 1.265,1.483 0,0"
             style="fill:#ffffff;fill-opacity:1;fill-rule:nonzero;stroke:none"
             id="path544"
             inkscape:connector-curvature="0" /></g><g
           id="g546"
           transform="translate(692.0709,413.0038)"><path
             d="m 0,0 c -7.067,-7.868 -45.865,-10.308 -53.407,-3.511 -7.543,6.797 -9.086,50.355 -4.302,55.434 6.825,7.245 48.357,9.342 52.97,4.971 C -0.126,52.524 7.067,7.868 0,0 m 2.475,66.187 c -5.987,5.672 -59.89,2.951 -68.748,-6.452 -6.21,-6.592 -4.207,-63.125 5.583,-71.947 9.789,-8.822 60.144,-5.655 69.316,4.557 9.171,10.212 -0.164,68.17 -6.151,73.842"
             style="fill:#ffffff;fill-opacity:1;fill-rule:nonzero;stroke:none"
             id="path548"
             inkscape:connector-curvature="0" /></g><g
           id="g550"
           transform="translate(179.7285,389.4795)"><path
             d="m 0,0 c -2.749,2.743 -5.504,5.857 -8.671,9.801 -0.167,0.207 -0.244,0.472 -0.215,0.736 1.616,14.524 -1.534,28.529 -9.11,40.506 -11.497,18.173 -36.601,29.916 -63.955,29.916 -10.428,0 -20.496,-1.778 -29.116,-5.142 -11.104,-4.333 -19.917,-11.804 -26.196,-22.208 -11.076,-18.351 -11.326,-43.557 -0.637,-64.214 12.189,-23.558 37.921,-39.386 64.032,-39.386 2.696,0 5.401,0.172 8.041,0.512 14.997,1.927 28.487,9.038 39.012,20.562 0.234,0.259 0.587,0.376 0.928,0.308 l 3.424,-0.665 c 5.995,-1.165 12.193,-2.376 18.36,-2.269 14.061,0.232 26.881,7.063 37.784,14.224 C 22.318,-16.517 10.456,-10.439 0,0"
             style="fill:#4ac1ef;fill-opacity:1;fill-rule:nonzero;stroke:none"
             id="path552"
             inkscape:connector-curvature="0" /></g><g
           id="g554"
           transform="translate(157.2656,360.2051)"><path
             d="m 0,0 -3.424,0.665 c -0.341,0.068 -0.694,-0.049 -0.929,-0.308 -10.524,-11.524 -24.014,-18.634 -39.011,-20.562 -2.64,-0.34 -5.345,-0.512 -8.041,-0.512 -26.111,0 -51.843,15.828 -64.033,39.386 -10.688,20.657 -10.438,45.863 0.638,64.215 6.279,10.403 15.092,17.875 26.196,22.208 8.62,3.363 18.688,5.141 29.116,5.141 27.354,0 52.458,-11.743 63.955,-29.916 7.576,-11.976 10.726,-25.982 9.11,-40.506 -0.029,-0.263 0.048,-0.529 0.215,-0.736 3.167,-3.943 5.922,-7.057 8.671,-9.801 C 32.919,18.836 44.781,12.758 56.144,11.955 45.241,4.794 32.421,-2.037 18.36,-2.269 12.193,-2.376 5.995,-1.165 0,0 m 60.267,13.171 c -0.133,0.422 -0.566,0.699 -0.97,0.698 l -0.586,-0.005 c -11.595,0 -23.967,5.976 -34.836,16.826 -2.62,2.616 -5.253,5.582 -8.265,9.316 1.562,14.831 -1.704,29.131 -9.454,41.38 -11.854,18.739 -37.621,30.847 -65.644,30.847 -10.675,0 -20.994,-1.825 -29.843,-5.278 -11.524,-4.497 -20.67,-12.248 -27.182,-23.038 -11.426,-18.934 -11.702,-44.906 -0.7,-66.168 12.524,-24.204 38.97,-40.466 65.808,-40.466 2.781,0 5.572,0.178 8.297,0.527 15.292,1.966 29.059,9.15 39.851,20.786 l 2.876,-0.559 c 6.093,-1.185 12.426,-2.409 18.775,-2.306 15.723,0.259 29.792,8.391 41.48,16.31 0.366,0.248 0.526,0.708 0.393,1.13"
             style="fill:#7b4c3e;fill-opacity:1;fill-rule:nonzero;stroke:none"
             id="path556"
             inkscape:connector-curvature="0" /></g><g
           id="g558"
           transform="translate(179.7285,389.4795)"><path
             d="m 0,0 c -2.749,2.743 -5.504,5.857 -8.671,9.801 -0.167,0.207 -0.244,0.472 -0.215,0.736 0.287,2.577 0.416,5.137 0.405,7.673 -0.541,-0.703 -1.072,-1.413 -1.628,-2.105 C -18.364,5.831 -28.537,-3.293 -40.82,-8.07 c -6.675,-2.597 -13.787,-3.844 -20.865,-4.937 -15.799,-2.44 -32.388,-4.111 -47.416,1.339 -16.001,5.804 -27.927,18.869 -36.641,33.792 -0.071,-11.101 2.536,-22.476 7.842,-32.729 12.189,-23.558 37.921,-39.386 64.032,-39.386 2.696,0 5.401,0.172 8.041,0.512 14.997,1.927 28.487,9.038 39.012,20.562 0.234,0.259 0.587,0.376 0.928,0.308 l 3.424,-0.665 c 5.995,-1.165 12.193,-2.376 18.36,-2.269 14.061,0.232 26.881,7.063 37.784,14.224 C 22.318,-16.517 10.456,-10.439 0,0"
             style="fill:#16aee5;fill-opacity:1;fill-rule:nonzero;stroke:none"
             id="path560"
             inkscape:connector-curvature="0" /></g><g
           id="g562"
           transform="translate(108.3556,463.5835)"><path
             d="m 0,0 c -15.635,5.964 -38.984,1.668 -49.605,-11.964 -0.736,-0.944 0.22,-2.614 1.396,-1.809 6.632,4.535 13.335,7.812 21.21,9.586 8.834,1.99 17.612,0.359 26.501,0.504 C 1.723,-3.647 1.917,-0.731 0,0"
             style="fill:#81d3f6;fill-opacity:1;fill-rule:nonzero;stroke:none"
             id="path564"
             inkscape:connector-curvature="0" /></g><g
           id="g566"
           transform="translate(133.6389,457.4819)"><path
             d="m 0,0 c -3.981,3.614 -9.823,5.169 -15.163,4.956 -1.993,-0.08 -2.326,-2.79 -0.462,-3.414 4.578,-1.535 9.275,-3.388 13.991,-4.35 C -0.092,-3.122 1.33,-1.207 0,0"
             style="fill:#81d3f6;fill-opacity:1;fill-rule:nonzero;stroke:none"
             id="path568"
             inkscape:connector-curvature="0" /></g><g
           id="g570"
           transform="translate(145.821,427.5257)"><path
             d="m 0,0 c -3.033,-0.688 -6.067,-1.376 -6.067,-1.376 0,0 4.714,7.869 3.031,8.39 -1.683,0.521 -7.962,-4.695 -9.241,-4.624 -1.28,0.071 -8.44,9.881 -22.422,4.663 -8.657,-3.231 -9.754,-9.179 -10.609,-17.942 -7.132,2.1 -18.433,6.948 -30.891,18.096 -4.077,3.649 -7.651,-14.554 0.504,-21.851 0,0 -3.886,-0.641 -6.376,0.78 -2.488,1.421 0.929,-14.173 11.926,-16.492 0,0 -6.446,-0.5 -7.726,-0.429 -1.022,0.056 5.581,-10.126 15.934,-13.783 -10.16,-4.245 -22.098,-3.742 -22.968,-5.084 -1.871,-2.892 14.392,-18.34 48.54,-4.395 34.148,13.945 28.997,44.612 28.997,44.612 C -0.757,-5.949 0,0 0,0"
             style="fill:#ffffff;fill-opacity:1;fill-rule:nonzero;stroke:none"
             id="path572"
             inkscape:connector-curvature="0" /></g><g
           id="g574"
           transform="translate(240.2002,167.5303)"><path
             d="m 0,0 c -8.293,-8.86 -19.737,-15.317 -34.899,-19.707 -0.375,-0.11 -0.783,0.012 -1.039,0.311 -12.735,14.876 -35.595,24.119 -59.66,24.119 -10.42,0 -20.481,-1.778 -29.096,-5.139 -11.105,-4.333 -19.918,-11.805 -26.197,-22.207 -11.076,-18.352 -11.326,-43.559 -0.636,-64.216 12.189,-23.557 37.921,-39.385 64.03,-39.385 2.696,0 5.403,0.172 8.043,0.512 34.209,4.396 59.853,36.79 57.165,72.21 -0.023,0.297 0.088,0.588 0.302,0.795 3.663,3.546 7.381,7.403 11.048,11.467 2.968,3.288 6.04,6.84 8.111,10.92 C 1.922,-20.963 1.054,-9.58 0,0"
             style="fill:#e12e28;fill-opacity:1;fill-rule:nonzero;stroke:none"
             id="path576"
             inkscape:connector-curvature="0" /></g><g
           id="g578"
           transform="translate(218.2129,114.8232)"><path
             d="m 0,0 c -0.214,-0.207 -0.324,-0.498 -0.302,-0.795 2.689,-35.42 -22.956,-67.813 -57.165,-72.21 -2.639,-0.34 -5.346,-0.512 -8.043,-0.512 -26.109,0 -51.841,15.828 -64.03,39.385 -10.689,20.657 -10.439,45.865 0.637,64.216 6.278,10.402 15.092,17.874 26.196,22.207 8.615,3.361 18.677,5.139 29.097,5.139 24.064,0 46.924,-9.242 59.66,-24.119 0.256,-0.299 0.663,-0.421 1.038,-0.311 15.162,4.39 26.606,10.847 34.899,19.707 1.054,-9.58 1.922,-20.963 -2.828,-30.32 -2.071,-4.08 -5.142,-7.632 -8.11,-10.92 C 7.381,7.403 3.663,3.546 0,0 m 23.726,55.145 c -0.044,0.394 -0.319,0.725 -0.699,0.842 -0.379,0.12 -0.792,-0.001 -1.051,-0.301 C 13.948,46.386 2.55,39.648 -12.855,35.101 -26.037,50.123 -49.241,59.43 -73.61,59.43 c -10.666,0 -20.98,-1.825 -29.824,-5.276 -11.525,-4.497 -20.67,-12.248 -27.182,-23.037 -11.427,-18.933 -11.702,-44.906 -0.699,-66.169 12.522,-24.203 38.967,-40.465 65.805,-40.465 2.781,0 5.574,0.178 8.299,0.528 35.096,4.512 61.445,37.597 58.938,73.878 3.587,3.486 7.22,7.265 10.806,11.238 3.059,3.388 6.228,7.056 8.409,11.355 5.394,10.623 3.947,23.398 2.784,33.663"
             style="fill:#7b4c3e;fill-opacity:1;fill-rule:nonzero;stroke:none"
             id="path580"
             inkscape:connector-curvature="0" /></g><g
           id="g582"
           transform="translate(217.9461,113.3467)"><path
             d="m 0,0 c -14.171,-16.191 -29.567,-31.774 -49.291,-39.978 -16.498,-6.861 -35.33,-7.956 -52.512,-3.053 -6.928,1.978 -13.602,4.908 -19.623,8.865 -4.045,2.658 -7.742,5.746 -11.208,9.099 0.965,-2.581 2.083,-5.118 3.361,-7.588 12.189,-23.558 37.921,-39.385 64.03,-39.385 2.696,0 5.403,0.172 8.043,0.512 C -23.211,-67.16 2.31,-35.152 0,0"
             style="fill:#cc2923;fill-opacity:1;fill-rule:nonzero;stroke:none"
             id="path584"
             inkscape:connector-curvature="0" /></g><g
           id="g586"
           transform="translate(135.1457,166.7568)"><path
             d="m 0,0 c -15.055,-0.621 -35.568,-9.689 -40.445,-25.265 -0.204,-0.652 0.678,-1.159 1.143,-0.665 5.062,5.371 9.905,10.204 16.441,13.817 7.371,4.074 15.504,5.409 23.437,7.855 C 2.857,-3.555 2.515,0.104 0,0"
             style="fill:#ee5535;fill-opacity:1;fill-rule:nonzero;stroke:none"
             id="path588"
             inkscape:connector-curvature="0" /></g><g
           id="g590"
           transform="translate(162.5552,164.9214)"><path
             d="m 0,0 c -5.163,2.856 -11.351,3.542 -16.843,1.076 -1.449,-0.651 -0.591,-2.695 0.749,-2.766 5.004,-0.266 9.932,-0.331 14.905,-1.13 C 0.441,-3.082 1.637,-0.906 0,0"
             style="fill:#ee5535;fill-opacity:1;fill-rule:nonzero;stroke:none"
             id="path592"
             inkscape:connector-curvature="0" /></g><g
           id="g594"
           transform="translate(142.4117,89.1158)"><path
             d="m 0,0 c -2.113,1.636 -12.999,23.36 -10.254,25.877 2.69,2.467 28.478,0.181 29.542,-4.153 C 20.353,17.391 2.113,-1.636 0,0 m 35.507,53.755 c -7.63,5.257 -70.516,-15.862 -74.837,-22.786 -5.454,-8.742 7.263,-50.73 18.164,-51.76 10.902,-1.03 66.177,17.142 71.434,24.771 5.256,7.63 -7.132,44.518 -14.761,49.775"
             style="fill:#ffffff;fill-opacity:1;fill-rule:nonzero;stroke:none"
             id="path596"
             inkscape:connector-curvature="0" /></g><g
           id="g598"
           transform="translate(402.262,569.3874)"><path
             d="m 0,0 c -0.182,4.924 -0.41,9.85 -0.954,14.751 -0.242,2.178 -3.43,2.178 -3.672,0 C -5.171,9.844 -5.343,4.927 -5.581,0 c -0.213,-4.419 -0.942,-9.232 0.342,-13.529 0.669,-2.236 4.229,-2.236 4.897,0 C 0.949,-9.21 0.164,-4.439 0,0"
             style="fill:#ffffff;fill-opacity:1;fill-rule:nonzero;stroke:none"
             id="path600"
             inkscape:connector-curvature="0" /></g><g
           id="g602"
           transform="translate(430.958,575.4839)"><path
             d="m 0,0 c -4.646,-4.083 -7.769,-10.775 -10.3,-16.425 -0.924,-2.062 1.735,-4.695 3.405,-2.627 4.005,4.96 8.716,10.91 10.29,17.075 C 3.917,0.069 1.502,1.32 0,0"
             style="fill:#ffffff;fill-opacity:1;fill-rule:nonzero;stroke:none"
             id="path604"
             inkscape:connector-curvature="0" /></g><g
           id="g606"
           transform="translate(467.2371,567.7217)"><path
             d="m 0,0 c -3.747,-1.42 -6.943,-3.65 -10.374,-5.688 -4.117,-2.445 -8.521,-4.415 -12.57,-6.965 -2.069,-1.303 -0.746,-4.605 1.671,-3.962 4.317,1.148 8.411,3.206 12.383,5.217 4.025,2.039 8.087,4.077 11.246,7.35 C 3.931,-2.417 2.378,0.901 0,0"
             style="fill:#ffffff;fill-opacity:1;fill-rule:nonzero;stroke:none"
             id="path608"
             inkscape:connector-curvature="0" /></g><g
           id="g610"
           transform="translate(369.7408,575.4839)"><path
             d="m 0,0 c 4.646,-4.083 7.769,-10.775 10.3,-16.425 0.924,-2.062 -1.735,-4.695 -3.405,-2.627 -4.005,4.96 -8.716,10.91 -10.29,17.075 C -3.917,0.069 -1.502,1.32 0,0"
             style="fill:#ffffff;fill-opacity:1;fill-rule:nonzero;stroke:none"
             id="path612"
             inkscape:connector-curvature="0" /></g><g
           id="g614"
           transform="translate(333.4618,567.7217)"><path
             d="m 0,0 c 3.747,-1.42 6.943,-3.65 10.374,-5.688 4.117,-2.445 8.521,-4.415 12.57,-6.965 2.069,-1.303 0.746,-4.605 -1.671,-3.962 -4.317,1.148 -8.411,3.206 -12.383,5.217 -4.025,2.039 -8.087,4.077 -11.246,7.35 C -3.931,-2.417 -2.378,0.901 0,0"
             style="fill:#ffffff;fill-opacity:1;fill-rule:nonzero;stroke:none"
             id="path616"
             inkscape:connector-curvature="0" /></g><g
           id="g618"
           transform="translate(398.4369,414)"><path
             d="m 0,0 c 0.182,-4.924 0.41,-9.85 0.954,-14.751 0.242,-2.178 3.43,-2.178 3.672,0 C 5.171,-9.844 5.343,-4.927 5.581,0 5.794,4.419 6.523,9.232 5.239,13.529 4.57,15.765 1.01,15.765 0.342,13.529 -0.949,9.21 -0.164,4.439 0,0"
             style="fill:#ffffff;fill-opacity:1;fill-rule:nonzero;stroke:none"
             id="path620"
             inkscape:connector-curvature="0" /></g><g
           id="g622"
           transform="translate(369.7408,407.9035)"><path
             d="M 0,0 C 4.646,4.083 7.769,10.775 10.3,16.425 11.224,18.487 8.565,21.12 6.895,19.052 2.89,14.092 -1.821,8.142 -3.395,1.977 -3.917,-0.069 -1.502,-1.32 0,0"
             style="fill:#ffffff;fill-opacity:1;fill-rule:nonzero;stroke:none"
             id="path624"
             inkscape:connector-curvature="0" /></g><g
           id="g626"
           transform="translate(333.4618,415.6657)"><path
             d="m 0,0 c 3.747,1.42 6.943,3.65 10.374,5.688 4.117,2.445 8.521,4.415 12.57,6.965 2.069,1.303 0.746,4.605 -1.671,3.962 C 16.956,15.467 12.862,13.409 8.89,11.398 4.865,9.359 0.803,7.321 -2.356,4.048 -3.931,2.417 -2.378,-0.901 0,0"
             style="fill:#ffffff;fill-opacity:1;fill-rule:nonzero;stroke:none"
             id="path628"
             inkscape:connector-curvature="0" /></g><g
           id="g630"
           transform="translate(430.958,407.9035)"><path
             d="m 0,0 c -4.646,4.083 -7.769,10.775 -10.3,16.425 -0.924,2.062 1.735,4.695 3.405,2.627 C -2.89,14.092 1.821,8.142 3.395,1.977 3.917,-0.069 1.502,-1.32 0,0"
             style="fill:#ffffff;fill-opacity:1;fill-rule:nonzero;stroke:none"
             id="path632"
             inkscape:connector-curvature="0" /></g><g
           id="g634"
           transform="translate(467.2371,415.6657)"><path
             d="m 0,0 c -3.747,1.42 -6.943,3.65 -10.374,5.688 -4.117,2.445 -8.521,4.415 -12.57,6.965 -2.069,1.303 -0.746,4.605 1.671,3.962 4.317,-1.148 8.411,-3.206 12.383,-5.217 C -4.865,9.359 -0.803,7.321 2.356,4.048 3.931,2.417 2.378,-0.901 0,0"
             style="fill:#ffffff;fill-opacity:1;fill-rule:nonzero;stroke:none"
             id="path636"
             inkscape:connector-curvature="0" /></g></g></g></g></svg>